<svg class="crocodoc-2jt6Qd crocodoc-page-svg" version="1.1"
    xmlns="http://www.w3.org/2000/svg"
    xmlns:xlink="http://www.w3.org/1999/xlink"
    xmlns:xhtml="http://www.w3.org/1999/xhtml"
    xml:space="preserve" width="654.0pt" height="834.0pt" viewBox="0 0 654.0 834.0">
<xhtml:link href="stylesheet.css" type="text/css" rel="stylesheet" />
<style>
.crocodoc-2jt6Qd tspan { white-space:pre; }
.crocodoc-2jt6Qd path { fill:transparent; }

</style>
<defs>
<linearGradient id="Grad_16_122_2jt6Qd" x1="44.82%" y1="92.27%" x2="90.53%" y2="92.27%"><stop offset="0.00" style="stop-color:#ffffff" /><stop offset="0.25" style="stop-color:#eeeeee" /><stop offset="0.50" style="stop-color:#bdbdbd" /><stop offset="0.75" style="stop-color:#6d6d6d" /><stop offset="1.00" style="stop-color:#000000" /></linearGradient>
<mask id="Mask_15_122_2jt6Qd">
<g ><path d="M3 831 l648 0 l0 -828 l-648 0 l0 828 " style="fill:url(#Grad_16_122_2jt6Qd);"/></g></mask>
</defs>

<g style="opacity:0.40;" ><path d="M71.97 751.59 c0.77 -0.59 1.54 -1 2.32 -1.22 c0.78 0.14 1.43 0.38 1.9 0.71 c-0.44 0 -0.88 0.01 -1.32 0.05 c-0.96 0.07 -1.93 0.23 -2.9 0.46 M70.58 751.73 c-0.17 -0.35 -0.34 -0.64 -0.48 -0.88 c-0.05 -0.08 -0.1 -0.16 -0.15 -0.23 c0.57 -0.14 1.16 -0.25 1.75 -0.32 c0.08 -0.01 0.17 -0.02 0.26 -0.02 c0.12 -0.01 0.24 -0.02 0.35 -0.02 c-0.59 0.38 -1.17 0.87 -1.73 1.48 M71.79 756.57 c-0.73 0.19 -1.47 0.32 -2.2 0.38 c-0.46 0.03 -0.92 0.04 -1.37 0.01 c0.64 -1.48 1.37 -2.76 2.18 -3.83 c0.42 0.94 0.89 2.1 1.39 3.44 M72.35 752.35 c0.71 -0.14 1.42 -0.24 2.12 -0.29 c0.83 -0.06 1.66 -0.06 2.48 -0.01 c0.16 0.53 0.01 1.14 -0.44 1.76 c-1.37 -0.66 -2.77 -1.15 -4.16 -1.47 M77.8 754.49 c0.53 -0.76 0.75 -1.53 0.63 -2.26 c2.4 0.39 4.61 1.32 6.39 2.7 c0.59 1.34 0.26 2.92 -0.93 4.48 c-1.73 -1.95 -3.83 -3.65 -6.09 -4.92 M77.37 750.55 c1.2 0.27 2.36 0.68 3.46 1.22 c-0.91 -0.28 -1.86 -0.48 -2.85 -0.59 c-0.17 -0.23 -0.37 -0.44 -0.61 -0.63 M82.93 760.48 c-1.62 1.59 -4.03 2.99 -6.82 3.97 c-0.85 -2.48 -1.77 -4.88 -2.67 -6.97 c1.44 -0.53 2.71 -1.27 3.59 -2.11 c2.19 1.34 4.22 3.11 5.9 5.12 M67.37 751.87 c-0.23 0.02 -0.46 0.04 -0.69 0.07 c0.52 -0.33 1.13 -0.63 1.77 -0.88 c0.13 -0.05 0.25 -0.09 0.39 -0.13 c0.23 0.16 0.54 0.51 0.87 0.98 c-0.8 -0.09 -1.59 -0.1 -2.33 -0.05 M71.19 776.65 c2.06 -0.15 4.16 -0.53 6.23 -1.12 c0.37 1.66 0.63 3.04 0.77 4.12 l0.03 0.2 c0.03 0.28 0.06 0.5 0.07 0.71 c-1.08 0.5 -2.22 0.71 -3.36 0.79 c-1.93 0.14 -3.84 -0.05 -5.68 -0.59 c-0.12 -0.13 -0.17 -0.18 -0.22 -0.24 c-0.88 -1.02 -1.56 -2.31 -2.08 -3.9 c1.36 0.12 2.79 0.13 4.25 0.02 M76.89 773.26 c-2.03 0.58 -4.09 0.95 -6.12 1.11 c-1.53 0.12 -3.02 0.1 -4.42 -0.05 c-0.2 -0.98 -0.33 -2.01 -0.41 -3.07 c-0.09 -1.18 -0.1 -2.4 -0.05 -3.65 c1.22 0.12 2.5 0.13 3.81 0.03 c1.79 -0.13 3.61 -0.46 5.41 -0.97 c0.68 2.32 1.28 4.54 1.78 6.61 M69.56 765.83 c-1.22 0.09 -2.41 0.08 -3.54 -0.03 c0.26 -2.62 0.84 -5.21 1.67 -7.5 c0.61 0.05 1.25 0.06 1.91 0.01 c0.88 -0.07 1.78 -0.22 2.67 -0.46 c0.76 2.13 1.57 4.57 2.33 7.08 c-1.67 0.47 -3.36 0.77 -5.03 0.9 M72.89 756.23 c-0.58 -1.27 -1.13 -2.37 -1.64 -3.28 c1.49 0.33 3 0.89 4.5 1.67 c-0.73 0.64 -1.71 1.19 -2.85 1.6 M87.47 770.66 c0.09 1.23 -0.01 2.39 -0.3 3.44 c-0.29 0.45 -0.61 0.89 -0.94 1.31 c-0.24 0.3 -0.5 0.6 -0.77 0.89 c-1.56 1.68 -3.5 3.02 -5.62 3.89 c0 -0.22 -0.01 -0.45 -0.02 -0.7 l-0.02 -0.29 c-0.09 -1.13 -0.32 -2.54 -0.68 -4.22 c3.34 -1.16 6.28 -2.83 8.32 -4.73 c0.01 0.13 0.03 0.26 0.04 0.39 M84.03 761.9 c1.36 1.91 2.34 3.9 2.91 5.92 c-1.96 1.97 -4.92 3.71 -8.36 4.91 c-0.52 -2.08 -1.16 -4.28 -1.9 -6.57 c2.98 -1.04 5.58 -2.55 7.35 -4.26 M88.79 770.78 c0 -0.28 -0.01 -0.57 -0.03 -0.85 c-0.02 -0.31 -0.06 -0.63 -0.11 -0.96 c0.33 -0.4 0.61 -0.8 0.85 -1.2 c-0.13 1.02 -0.37 2.03 -0.71 3.01 M86.57 756.56 c0.09 0.1 0.17 0.2 0.26 0.3 c1.34 1.9 2.22 4.03 2.6 6.32 c-0.07 1.08 -0.52 2.19 -1.36 3.32 c-0.63 -1.97 -1.65 -3.89 -3.03 -5.71 c1.13 -1.42 1.65 -2.87 1.53 -4.24 M66.77 779.83 c-2.34 -1.12 -4.34 -2.78 -5.87 -4.85 c1.18 0.65 2.62 1.13 4.28 1.42 c0.41 1.32 0.95 2.47 1.59 3.43 M64.48 765.59 c-2.38 -0.45 -4.17 -1.41 -5.05 -2.69 c0.95 -2.27 2.48 -4.4 4.41 -6.15 c0.57 0.65 1.47 1.12 2.63 1.38 c-0.95 2.29 -1.63 4.86 -1.98 7.47 M63.32 755.85 c-1.89 1.6 -3.43 3.53 -4.47 5.63 c-0.05 -0.32 -0.06 -0.65 -0.02 -0.98 c0.86 -2.34 2.3 -4.47 4.16 -6.16 c0.13 -0.09 0.28 -0.18 0.42 -0.27 c-0.24 0.62 -0.27 1.22 -0.09 1.79 M68.53 752.69 c-1.42 0.58 -2.76 1.32 -4 2.21 c-0.05 -0.51 0.15 -1.07 0.61 -1.64 c0.83 -0.28 1.73 -0.46 2.67 -0.53 c0.23 -0.02 0.47 -0.03 0.72 -0.03 M64.96 755.8 c1.3 -1.01 2.73 -1.85 4.25 -2.49 c-0.79 1.01 -1.51 2.19 -2.15 3.51 c-0.93 -0.19 -1.67 -0.55 -2.09 -1.02 M58.8 764.68 c1.12 1.29 3.05 2.25 5.49 2.7 c-0.11 1.43 -0.11 2.84 -0.01 4.19 c0.06 0.85 0.17 1.69 0.32 2.49 c-2.65 -0.52 -4.64 -1.52 -5.78 -2.92 c-0.19 -0.51 -0.35 -1.05 -0.49 -1.59 c-0.01 -0.09 -0.02 -0.16 -0.02 -0.23 c-0.11 -1.53 0.05 -3.09 0.49 -4.65 " style="fill:#d3d2d2;"/></g><text class="f5782 f5765" font-size="8.00" style="fill:#231f20"><tspan x="69.24" y="769.34" textLength="10.03" dx="0,0.56">98</tspan></text><text class="f1560 f5766" font-size="8.00" style="fill:#656263"><tspan x="87.25" y="769.13" textLength="97.51" class="f1561 f781" dx="0,0.56,0.56,0.56,0.56,0.56,0.56,0.56,0.56,0.56,0.56,0.56,0.56,0.56,0.56,0.56,0.56,0.56,0.56">GLOBAL TRENDS 2030:</tspan>
<tspan x="185.32" y="769.13" textLength="97.73" dx="0,0.56,0.56,-0.18,0.56,0.56,0.56,0.56,0.02,0.56,0.56,0.56,0.56,0.56,0.56,0.56,0.56,0.56,0.56"> ALTERNATIVE WORLDS</tspan></text>
<g mask="url(#Mask_15_122_2jt6Qd)" ><path d="M295.95 766.5 l292.19 0 " style="stroke:#918f8f;stroke-width:1.00;stroke-dasharray:0.001,1.994;stroke-linecap:round;stroke-linejoin:round;"/><path d="M293.95 766.5 M589.14 766.5 " style="stroke:#918f8f;stroke-width:1.00;stroke-linecap:round;stroke-linejoin:round;"/></g><text class="f1489 f786" font-size="10.00" style="fill:#231f20"><tspan x="340.50" y="91.00" textLength="226.84" dx="0,0.16,-0.07,0.15,0,0,-0.03,0.15,-0.02,0.08,0,0,-0.04,-0.03,0.01,0.13,0.14,0.31,-0.03,0.07,-0.07,0.34,-0.1,0.25,-0.06,0.05,-0.02,0.08,0.22,-0.01,0.13,0.27,-0.03,0,0,0.34,0.04,-0.04,0,0,0.08,-0.08,0.26,0.03,-0.08,0.08,0,0.08,-0.11,0.06,0.21,-0.02,0">with other electricity-generating fuel sources&#8212;coal, </tspan>
<tspan x="340.50" y="105.00" textLength="204.8" dx="0,0.14,-0.01,0.2,0.26,0.22,0.21,0,0,0.08,0.18,-0.04,0,0,-0.12,0.01,0.01,-0.03,0.11,0.2,-0.44,0,0,-0.03,0,0,0.16,0.27,-0.02,-0.1,-0.16,0.14,0,0,0.28,-0.05,0.01,-0.03,0.11,0.2,-0.48,0,0,0.09,-0.02,-0.01,0">natural gas, nuclear, or wind&#8212;is unclear. Some </tspan>
<tspan x="340.50" y="119.00" textLength="238.66" dx="0,-0.09,-0.03,0.06,0.01,0.06,0.18,0.05,0.15,0,0,0.27,-0.02,0.18,-0.03,0.06,-0.01,0.01,0,0,0.15,0.14,-0.01,0,0,0.15,-0.02,0,0,-0.06,0.06,-0.06,0.01,0.01,0.13,0.01,0.03,0,0,-0.11,0.05,0.05,0.15,0,0,-0.03,0,0,-0.04,-0.03,0.01,0.13,0.14,0.31,-0.03,0.07,-0.07,0.34,0">forecasts indicate that the projected costs of electricity </tspan>
<tspan x="340.50" y="133.00" textLength="214.29" dx="0,-0.06,0.06,0.09,-0.03,0.01,0.13,0.13,-0.06,-0.02,0,0,0.21,0.06,-0.02,0,0,0.14,-0.01,0.2,0.26,0.22,0.21,0,0,0.08,0.18,0,0,0.21,-0.02,0,0,-0.11,0.06,0.21,0,0,0.16,0.28,0.28,0,0,0.06,0.05,0.15,0.2,0.27,0">production from natural gas and coal will remain </tspan>
<tspan x="340.50" y="147.00" textLength="222.65" dx="0,-0.06,-0.11,-0.14,0.08,0,0,0.15,0.14,0.21,0,0,-0.04,-0.03,0.01,0.13,0.14,0.31,-0.03,0.07,-0.07,0.34,0,0,-0.06,0.06,0.09,-0.03,0.01,0.13,0.13,-0.06,-0.02,0,0,0.21,0.06,-0.02,0,0,0.08,-0.04,0.13,0.2,0,0,0.05,-0.11,-0.14,0.08,0">lower than electricity production from solar power </tspan>
<tspan x="340.50" y="161.00" textLength="227.63" dx="0,0.27,0,0,0.15,-0.02,0,0,-0.02,-0.01,0.25,0,0,-0.85,0.37,-0.26,0.08,0,0,-0.12,0.11,0.2,0.18,-0.08,0,0,0.11,0.15,-0.02,0.08,0,0,-0.09,-0.03,0.06,0.01,0.06,0.18,0.05,0.15,0,0,0.27,-0.02,0.18,-0.03,0.06,-0.01,0.01,0,0,0.15,0.14,-0.01,0">in the next 15-20 years. Other forecasts indicate that </tspan>
<tspan x="340.50" y="175.00" textLength="238.87" dx="0,-0.07,-0.05,-0.03,-0.04,-0.11,-0.1,-0.04,-0.07,0.18,0.2,-0.03,0,0,-0.04,-0.03,0.01,0.13,0.14,0.31,-0.03,0.07,-0.07,0.34,0,0,-0.06,0.06,0.09,-0.03,0.01,0.13,0.13,-0.06,-0.02,0,0,0.16,0.28,0.28,0,0,0.09,0,0,-0.11,-0.02,-0.08,0.07,0.03,0.13,-0.07,0.13,0.04,-0.09,0">photovoltaic electricity production will be competitive </tspan>
<tspan x="340.50" y="189.00" textLength="213.55" dx="0,0.16,-0.07,0.15,0,0,-0.11,-0.02,-0.07,-0.09,0.05,-0.06,0.13,-0.06,-0.02,0.14,0.21,0,0,-0.04,-0.03,0.01,0.13,0.14,0.31,-0.03,0.07,-0.07,0.34,0,0,-0.06,0.06,0.09,-0.03,0.01,0.13,0.13,-0.06,-0.02,0,0,0.16,-0.07,0.15,-0.05,-0.08,0,0">with conventional electricity production without </tspan>
<tspan x="340.50" y="203.00" textLength="230.88" dx="0,0.06,0.02,0.05,0.03,-0.03,0.18,0.18,0.11,-0.01,0.13,-0.06,-0.02,0,0,0.27,0,0,0.15,-0.02,0,0,-0.02,-0.01,0.25,0,0,0.06,-0.09,0,0,-0.04,0,0,-0.46,0,0,-0.12,0.11,0.2,0.18,-0.08,0,0,-0.01,0.11,0.21,-0.07,0.02,0.27,0.28,-0.03,-0.07,0">subsidization in the next &#59904;ve to 10 years. Meanwhile, </tspan>
<tspan x="340.50" y="217.00" textLength="232.91" dx="0,-0.03,0.26,0.31,0.27,-0.03,0,0,0.15,-0.02,0,0,-0.02,-0.01,0.25,0,0,0.09,0.07,-0.09,0.08,0.22,0.21,0,0,0.02,0.01,0.06,0.04,0.03,0.08,-0.04,0,0,-0.02,0.06,-0.77,0,0,0.27,-0.04,0.24,0.29,0.06,0,0,-0.01,0.28,-0.01,0.07,-0.03,0.05,-0.06,0">during the next several decades, new, highly ef&#59904;cient </tspan>
<tspan x="340.50" y="231.00" textLength="230.84" dx="0,0.14,-0.01,0.2,0.26,0.22,0.21,0,0,0.08,0.18,0,0,-0.04,-0.03,0.01,0.13,0.14,0.31,-0.03,0.07,-0.07,0.34,-0.1,0.25,-0.06,0.05,-0.02,0.07,0.22,-0.01,0.13,0.27,-0.03,0,0,-0.07,0.13,0.21,-0.06,0.15,0,0,0.2,0.06,0,0,-0.01,0.07,0.07,0.01,0.13,0.01,0.03,0">natural gas electricity-generating plants are expected </tspan>
<tspan x="340.50" y="245.00" textLength="238.09" dx="0,-0.04,0,0,-0.11,-0.02,-0.01,0,0,-0.02,0,0,0.26,0.27,-0.02,0,0,0.21,-0.02,0,0,0.27,-0.05,0.07,0.06,0.11,0.18,0.09,0.03,0,0,0.14,-0.01,0.2,0.26,0.22,0.21,0,0,0.08,0.18,0,0,0.06,-0.05,-0.09,-0.07,0.26,-0.03,0.08,0,0,0.18,0,0,0">to come on line and increased natural gas supplies as a </tspan>
<tspan x="340.50" y="259.00" textLength="238.87" dx="0,0.06,0.08,0.06,0.28,-0.07,0,0,-0.03,0,0,0.2,0.22,0.03,0.02,0.31,0.27,-0.03,0,0,0.01,0.01,0.01,0.28,-0.05,-0.04,-0.06,0.02,0.36,0,0,0.16,0.28,0.28,0,0,0.15,0.2,0.27,-0.06,0.18,0.2,0.27,0,0,-0.06,-0.11,0,0,0.14,-0.01,0.2,0.26,0.22,0.21,0">result of fracking technology will maintain low natural </tspan>
<tspan x="340.50" y="273.00" textLength="45.05" dx="0,0.08,0.18,0,0,-0.06,0.31,-0.03,-0.08,0.08,-0.08">gas prices.</tspan>
<tspan x="340.50" y="301.00" textLength="227.13" dx="0,0.12,0.08,-0.03,-0.05,-0.07,0.01,0,0,-0.07,0.15,0,0,0.05,0.05,0.03,-0.07,0.13,-0.06,-0.02,0,0,0.18,0,0,0.15,-0.02,0,0,-0.04,0.05,0.05,0,0,0.04,-0.08,0.28,-0.02,0.17,0.21,-0.06,0,0,0.06,0.05,-0.02,0.06,0.04,0.04,-0.04,-0.03,0">Despite its position as the most abundant renewable </tspan>
<tspan x="340.50" y="315.00" textLength="230.3" dx="0,0.05,-0.02,0.08,0.16,0.36,0,0,0.06,0.08,0.08,-0.08,0.26,0.03,-0.08,0,0,0.21,-0.02,0,0,-0.07,0.15,0,0,0.15,-0.02,0.03,-0.03,0.06,0.03,0.13,-0.03,0.06,0.21,0,0,0.05,-0.03,0.01,0.05,-0.06,0.13,0.13,0.21,0,0,0.27,0,0,0.15,0.21,-0.04,0">energy resource and its theoretical potential in many </tspan>
<tspan x="340.50" y="329.00" textLength="230.84" dx="0,0.06,0.03,0.23,-0.06,-0.02,0.15,0,0,-0.04,0,0,-0.01,-0.2,-0.08,0.03,0.03,0,0,0.12,0.26,0.3,0.06,0.05,-0.06,0,0,-0.04,-0.03,0.18,0.21,0,0,0.05,-0.02,0.08,0.16,0.36,0,0,0.06,-0.05,-0.09,-0.07,0.06,0,0,0.18,0,0,-0.14,-0.04,0.28,0">regions to exceed current total energy supply as well </tspan>
<tspan x="340.50" y="343.00" textLength="210.65" dx="0,0.18,0,0,-0.07,0.15,0,0,0.09,0.05,0.27,-0.04,0.24,0,0,0.05,-0.07,0.21,0.26,0.06,-0.02,0.28,-0.01,0.05,-0.06,0.18,0.21,0,0,-0.11,-0.02,0.15,0.09,0.03,0,0.04,0.05,-0.05,-0.08,0.08,-0.04,0,0,0.08,-0.04,0.13,0.2,0">as its benign environmental consequences, solar </tspan>
<tspan x="340.50" y="357.00" textLength="233.23" dx="0,0.05,-0.02,0.08,0.16,0.36,0,0,0.08,0.03,-0.08,0.08,0,0,0.08,-0.02,-0.01,0,0,-0.09,-0.03,0.29,0.28,-0.03,0.17,0.04,-0.04,-0.03,0,0,-0.12,0.26,0.05,0.2,-0.03,0.08,0,0,-0.04,0,0,0.06,0.11,0.03,0.01,0,0,-0.07,0.15,0,0,0.34,0.28,0.28,0">energy faces some formidable hurdles to reach its full </tspan>
<tspan x="340.50" y="371.00" textLength="229.59" dx="0,0.05,-0.03,0.01,0.05,-0.06,0.13,0.13,0.21,-0.05,0,0,0.27,0,0,-0.09,-0.11,-0.09,0.08,0.29,0.28,-0.01,0.05,-0.06,0,0,0.05,-0.04,0.26,-0.03,0.07,-0.03,0.08,0,0,-0.04,0,0,-0.06,0.06,-0.11,0.2,-0.03,0.03,0,0,0.29,0.14,0.21,-0.05,0.07,0.13,0.21,0">potential. If government policies to provide &#59904;nancial </tspan>
<tspan x="340.50" y="385.00" textLength="236.71" dx="0,0.21,-0.02,0,0,0.06,0.03,0.22,0.28,0.13,-0.01,-0.04,-0.03,0.5,0,0,0.27,-0.05,-0.08,0.05,-0.06,0.13,0.04,-0.09,0.08,0,0,-0.1,-0.03,0,0,0.08,-0.04,0.13,0.2,0,0,0.05,-0.02,0.07,0.16,0.36,0,0,0.18,0.14,0.09,-0.07,-0.09,0.07,0.11,0.2,0.06,0.03,0">and regulatory incentives for solar energy disappeared </tspan>
<tspan x="340.50" y="399.00" textLength="210.53" dx="0,0.18,0,0,0,0,0.06,0.08,0.06,0.28,-0.07,0,0,-0.03,0,0,0.05,0.14,0.22,0.2,0.27,-0.02,0.03,0,0,-0.09,-0.11,-0.09,0.08,0.29,0.28,-0.01,0.05,-0.06,0,0,-0.08,0.04,0.09,-0.06,0.03,0.15,-0.04,0,0,0.08,-0.04,0.13,0.2,0">as a result of strained government budgets, solar </tspan>
<tspan x="340.50" y="413.00" textLength="221.47" dx="0,0.05,-0.02,0.08,0.16,0.36,0,0,0.28,-0.04,0.24,-0.06,0,0,-0.05,-0.03,0,0,0.06,0.11,0.03,0.01,0,0,0,0,-0.11,0.05,0.05,-0.17,0.35,-0.11,-0.02,-0.08,0.07,0.03,0.13,-0.07,0.13,0.04,-0.09,0,0,0.04,0.05,0.03,-0.07,0.13,-0.06,-0.02,0">energy might not reach a cost-competitive position </tspan>
<tspan x="340.50" y="427.00" textLength="221.23" dx="0,0.27,0,0,0.15,-0.02,0,0,-0.02,-0.01,0.25,0,0,0.31,-0.14,0,0,0.03,0.01,0.06,0.04,0.03,0.08,0,0,-0.04,0,0,0.09,0,0,0,0,0.09,0.08,0.31,-0.06,-0.08,0.15,0,0,-0.11,-0.02,-0.08,0.07,0.02,0.13,-0.07,-0.04,-0.03,0">in the next two decades to be a serious competitor </tspan>
<tspan x="340.50" y="441.00" textLength="215.17" dx="0,-0.04,0,0,-0.04,-0.03,0.01,0.13,0.14,0.31,-0.03,0.07,-0.07,0.34,0,0,-0.06,0.06,0.09,-0.03,0.01,-0.08,0.03,0,0,0.21,0.06,-0.02,0,0,-0.11,0.06,0.21,0,0,0.21,-0.02,0,0,0.14,-0.01,0.2,0.26,0.22,0.21,0,0,0.08,0.18,-0.08,0">to electricity produced from coal and natural gas. </tspan>
<tspan x="340.50" y="455.00" textLength="212.37" dx="0,0.38,-0.05,-0.03,0.15,-0.02,0.08,0,0,-0.12,0.26,0.05,0.2,-0.03,0,0,0.08,0.03,0.07,0.27,-0.03,0,0,0.08,-0.04,0.13,0.2,0,0,0.05,-0.02,0.08,0.16,0.36,0,0,0.14,0,0,0.15,0.14,-0.01,0,0,-0.07,0,0,0.14,0,0,0.21,0">Another hurdle facing solar energy is that it is an </tspan>
<tspan x="340.50" y="469.00" textLength="232.21" dx="0,0.27,-0.06,0.01,0.08,0.29,0.28,-0.07,0.19,0.01,0.05,-0.06,0,0,0.08,-0.08,0.26,0.03,-0.08,-0.07,0,0,-0.06,0.05,-0.02,0.08,0.22,-0.01,0.13,0.27,-0.03,0,0,0.05,-0.11,-0.14,0.08,0,0,-0.02,0.29,0.06,0,0,0.02,-0.02,0.05,0,0,0.15,-0.02,0">intermittent source, generating power only when the </tspan>
<tspan x="340.50" y="483.00" textLength="233.72" dx="0,0.06,0.28,0,0,0.14,0,0,-0.01,0.27,0.27,0.27,0.27,-0.03,-0.1,0,0,0.08,-0.07,0.15,-0.05,-0.08,0,0,0,0.08,-0.02,-0.01,0,0,-0.01,0.28,-0.01,0.07,-0.03,0.05,-0.06,0,0,0.05,-0.02,0.08,0.16,0.36,0,0,0.05,-0.04,-0.03,0.22,0.12,-0.06,-0.07,0">sun is shining. Without some ef&#59904;cient energy storage, </tspan>
<tspan x="340.50" y="497.00" textLength="236.33" dx="0,0.06,0.01,0.01,0,0,0.18,0,0,0.13,0.2,0.16,-0.06,0,0,0.06,-0.01,0.19,0.01,0.08,0.31,-0.03,0.08,0,0,-0.03,0,0,-0.04,-0.04,-0.07,0.01,0.05,0,0,0.09,0.21,-0.07,0,0,0,0.08,-0.04,0.13,0.2,0,0,0.05,-0.02,0.08,0.16,0.36,0,0,0.16,0.28,0.28,0">such as large batteries or molten salt, solar energy will </tspan>
<tspan x="340.50" y="511.00" textLength="223.76" dx="0,-0.05,-0.03,0,0,0.09,0,0,0.04,-0.04,-0.03,0,0,-0.04,0,0,0.34,0.28,0.28,0.06,0,0,0.06,0.04,-0.07,0.13,0.03,-0.08,0,0,-0.03,0.15,-0.02,0.08,0,0,0.05,-0.02,0.08,0.16,0.36,-0.1,0.25,-0.06,0.05,-0.02,0.08,0.22,-0.01,0.13,0.27,-0.03,0">not be able to fully replace other energy-generating </tspan>
<tspan x="340.50" y="525.00" textLength="213.01" dx="0,0.2,0.07,0.05,0.01,0.05,0.16,-0.08,0,0,0.26,-0.01,0.15,-0.02,0.08,-0.44,0,0,-0.07,0,0,-0.11,-0.08,0.28,-0.03,0,0,-0.02,0.29,0.06,0,0,-0.07,0.07,0.08,0.22,-0.01,0.01,0,0,0.18,0,0,0,0,-0.04,0.1,-0.03,0.31,-0.03,0">systems. Rather, it could only operate as a hybrid </tspan>
<tspan x="340.50" y="539.00" textLength="207.96" dx="0,0.2,0.07,0.05,0.01,0.05,0,0,0.06,-0.04,0.06,0.18,0.27,-0.03,0,0,-0.02,0,0,-0.03,0.15,-0.02,0.08,0,0,0.05,-0.02,0.08,0.16,0.36,0,0,0.08,-0.08,0.26,0.03,-0.08,0.08,-0.04,0,0,0.06,0.01,0.01,0,0,0.18,0">system relying on other energy sources, such as </tspan>
<tspan x="340.50" y="553.00" textLength="219.87" dx="0,0.14,-0.01,0.2,0.26,0.22,0.21,0,0,0.08,0.18,-0.04,0,0,-0.04,0,0,-0.06,0.05,-0.02,0.08,0.22,-0.01,0.01,0,0,-0.04,-0.03,0.01,0.13,0.14,0.31,-0.03,0.07,-0.07,0.34,0,0,0.02,-0.02,0.05,0,0,0.15,-0.02,0,0,0.06,0.28,0,0,0.14,0">natural gas, to generate electricity when the sun is </tspan>
<tspan x="340.50" y="567.00" textLength="214.42" dx="0,-0.05,-0.03,0,0,-0.01,0.27,0.27,0.27,0.27,-0.03,-0.1,0,0,-0.09,0.03,0.18,-0.07,0.13,-0.06,-0.02,0.14,0.21,0.28,0.06,-0.75,0,0,0.16,-0.03,0.03,0.08,-0.03,-0.06,0.06,0.11,0.04,0,0,0.15,0.09,0,0,-0.03,0,0,0.08,-0.04,0.13,0.2,0">not shining. Additionally, widespread use of solar </tspan>
<tspan x="340.50" y="581.00" textLength="221.36" dx="0,0.05,-0.02,0.08,0.16,0.36,0,0,-0.1,-0.03,0,0,0.18,0.14,0.05,0.14,0.31,0.03,-0.08,0,0.01,0.03,0,0,-0.06,0.05,-0.02,0.08,0.22,-0.01,0.13,-0.06,-0.02,0,0,-0.03,0,0,-0.04,-0.03,0.01,0.13,0.14,0.31,-0.03,0.07,-0.07,0.34,0,0,0.16,0.28,0.28,0">energy for distributed generation of electricity will </tspan>
<tspan x="340.50" y="595.00" textLength="206.27" dx="0,0.06,0.03,0,0.26,0.26,0.06,0,0,0.13,0.2,0.16,-0.06,0,0,0.23,0.31,-0.03,0.19,0.12,0.27,0.33,0.21,0.22,0.18,0.05,0.14,0.35,0.01,0.13,0.2,0.26,0.06,0,0,0.27,-0.07,-0.09,0.08,0.05,0.15,-0.01,0.05,-0.06,0.15,0,0,-0.04,0">require large grid-infrastructure investments to </tspan>
<tspan x="340.50" y="609.00" textLength="229.06" dx="0,0.14,0.21,-0.02,0.2,-0.03,0,0,0.15,-0.02,0,0,-0.11,0.28,-0.07,0.13,0.16,0.35,0.18,0.26,0.06,0.01,0.13,0.13,-0.06,-0.02,0.14,0.21,0,0,-0.04,-0.11,0,0,-0.03,0,0,-0.04,-0.03,0.01,0.13,0.14,0.31,-0.03,0.07,-0.07,0.34,0,0,0.27,0,0,0.15,-0.02,0">handle the multi-directional &#59905;ow of electricity in the </tspan>
<tspan x="340.50" y="623.00" textLength="91.85" dx="0,0.18,0.14,0.05,0.14,0.31,0.03,-0.08,0,0.13,-0.06,-0.02,0,0,-0.02,0.03,0.31,-0.14,-0.03,0.03,0">distribution network.</tspan></text><text class="f5782 f5765" font-size="11.00" style="fill:#e6910d"><tspan x="340.50" y="656.00" textLength="133.61" dx="0,0,0,0,-1.01,0,0,0,0,0,0,0,0,0,0,0,0,0,0">HEALTH TECHNOLOGIES</tspan></text><text class="f1489 f786" font-size="10.00" style="fill:#231f20"><tspan x="340.50" y="679.00" textLength="220.27" dx="0,0.09,0.14,0.09,0.11,0.18,0.09,0,0,0.15,0.21,0.14,0.12,-0.06,0.05,-0.01,0.05,-0.06,0,0,0.01,0.01,0.01,0.28,-0.05,-0.04,-0.06,0.02,0.23,-0.03,0.08,0,0,0.27,0,0,0.02,0.07,-0.09,-0.04,-0.06,-0.07,-0.04,-0.01,0.05,-0.07,0">Disease management technologies in development </tspan>
<tspan x="340.50" y="693.00" textLength="238.07" dx="0,-0.06,0.06,-0.02,0.28,0.14,0.09,0,0,0.03,-0.04,0.24,0.27,0.33,-0.01,0.06,0.21,-0.06,0,0,-0.02,0.11,0.21,-0.07,0.15,-0.04,0,0,-0.06,-0.02,-0.03,-0.06,0.07,0.21,-0.07,0.34,0,0,0.08,0.2,0.27,0.15,0,0,0.15,0.27,0.06,-0.08,0.03,0.24,-0.05,-0.08,0,0">promise signi&#59904;cant healthy longevity gains throughout </tspan>
<tspan x="340.50" y="707.00" textLength="222.73" dx="0,0.15,-0.02,0,0,-0.14,-0.03,0.02,-0.03,0,0,0.02,0.27,0.28,-0.03,0,0,-0.12,0.28,0.15,0.21,0,0,-0.09,0.03,0.24,-0.01,0.05,-0.06,0.18,-0.01,0.13,-0.06,-0.02,0,0,0.01,0.01,0.01,0.28,-0.05,-0.04,-0.06,0.02,0.23,-0.03,0.08,0">the world while human augmentation technologies </tspan></text><text class="f1489 f786" font-size="10.00" style="fill:#231f20"><tspan x="75.00" y="91.00" textLength="209.73" dx="0,0.27,-0.06,-0.04,0,0,0.21,-0.04,0.08,0.03,0.21,0.17,0.06,0.18,0.09,0.03,0,0,0.01,0.01,0.01,0.28,-0.05,-0.04,-0.06,0.02,0.23,-0.03,0.08,0,0,0.06,0.03,0.19,-0.06,0.08,0.05,0.15,0,0,0.15,0.14,-0.01,0,0,0.06,0.01,0.01,0">into algae-based technologies suggests that such </tspan>
<tspan x="75.00" y="105.00" textLength="225.42" dx="0,0.01,0.01,0.01,0.28,-0.05,-0.04,-0.06,0.02,0.23,-0.03,0.08,0,0,-0.03,0.27,-0.09,0.08,0,0,-0.01,0.19,0.14,0.22,0.03,0.13,0.13,0.04,-0.09,0,0,0.09,0.05,-0.02,0.02,-0.05,0.15,0,0,0.27,-0.05,0.01,-0.08,0.04,0.18,0.27,-0.03,0,0,0.27,-0.04,0.24,0">technologies offer attractive bene&#59904;ts including high </tspan>
<tspan x="75.00" y="119.00" textLength="222.21" dx="0,-0.06,0.06,0.09,-0.03,0.01,0.13,0.13,0.04,0.21,-0.07,0.34,0.06,0,0,0.15,-0.02,0,0,-0.06,0.06,0.09,-0.03,0.01,0.13,0.13,0.04,-0.09,0,0,0.15,0.09,0,0,-0.03,0,0,-0.05,-0.02,0.14,0.2,0.22,0.04,-0.04,-0.03,0,0,0.13,0.21,-0.02,0.26,0">productivity; the productive use of nonarable land; </tspan>
<tspan x="75.00" y="133.00" textLength="219.63" dx="0,0.15,-0.02,0,0,0.15,0.09,0,0,-0.03,0,0,0.18,0.04,-0.09,0.08,0.18,0.09,0,0,0.04,-0.01,0.01,0.08,0,0,0.08,-0.08,0.26,0.03,-0.08,0.08,0,0,-0.21,0.21,0.06,0.08,-0.01,-0.01,0,0,0.09,0.21,0.26,0.27,-0.02,-0.07,0,0,0.21,-0.02,0">the use of diverse water sources (fresh, saline, and </tspan>
<tspan x="75.00" y="147.00" textLength="232.47" dx="0,0.04,0.18,0.05,0.01,0.06,0.04,-0.01,0.01,0.08,-0.46,0.14,0,0,0.21,-0.02,0,0,0.15,-0.02,0,0,0.06,0.01,0.26,-0.17,0.01,0.26,0.27,-0.03,0,0,-0.03,0,0,0.06,0.2,0.08,0.09,-0.02,0,0,0.18,-0.06,-0.19,0.28,-0.03,0.02,0,0,0.21,-0.02,0">wastewater); and the recycling of carbon dioxide and </tspan>
<tspan x="75.00" y="161.00" textLength="57.17" dx="0,-0.03,0.15,-0.02,0.08,0,0,0.04,0.18,0.05,0.01,0.08,-0.08">other wastes.</tspan>
<tspan x="75.00" y="189.00" textLength="228.65" dx="0,-0.12,0.01,0.27,-0.03,0.07,0.21,0.27,-0.03,0,0,-0.11,0.05,0.05,0,0,-0.11,-0.02,-0.08,0.07,0.03,0.13,-0.07,0.13,0.04,-0.09,0.05,-0.02,0.08,0.11,0,0,-0.09,-0.03,0,0,-0.03,-0.06,0.36,0.17,0.06,0.18,0.09,0.03,0,0,0.05,-0.02,0.08,0.16,0.36,0">Achieving cost competitiveness for bio-based energy </tspan>
<tspan x="75.00" y="203.00" textLength="219.65" dx="0,0.01,0.01,0.01,0.28,-0.05,-0.04,-0.06,0.02,0.23,-0.03,0.08,0,0,0.14,0,0,0.15,-0.02,0,0,-0.06,0.31,0.27,0.15,0.2,0.5,0,0,-0.12,0.26,0.05,0.2,-0.03,0,0,-0.09,-0.03,0,0,-0.11,-0.02,0.29,-0.01,0.08,0.03,0.07,0.13,0.21,0">technologies is the primary hurdle for commercial </tspan>
<tspan x="75.00" y="217.00" textLength="231.14" dx="0,0.06,0.01,-0.09,-0.08,0.08,0.11,-0.08,0,0,0.25,0.27,0.29,-0.18,0.03,0,0,-0.04,0,0,0.15,0.14,-0.01,0,0,-0.12,0.26,0.05,0.2,-0.03,0,0,0.14,0,0,0.15,-0.02,0,0,0.27,-0.04,0.24,0.29,0.06,0,0,0.28,-0.05,-0.08,0.08,0.36,0.18,0.2,0.27,0">success. Linked to that hurdle is the highly uncertain </tspan>
<tspan x="75.00" y="231.00" textLength="214.69" dx="0,0.34,0,0.2,0.26,0.06,0,0,-0.06,0.31,-0.03,0.07,0.27,-0.03,0,0,-0.03,0,0,-0.09,0.05,0.11,0.03,0.28,0,0,0.34,0.04,-0.04,0,0,0.08,-0.08,0.26,0.03,-0.08,0.08,0,0,-0.03,0,0,0.05,-0.02,0.08,0.16,0.36,0,0,0.21,-0.02,0">future pricing of fossil fuel sources of energy and </tspan>
<tspan x="75.00" y="245.00" textLength="217.97" dx="0,0.16,-0.03,0.03,0.08,0,0,0.15,0.09,0,0,-0.03,0,0,0.06,-0.01,0.19,0.01,0.08,0.5,0,0,0.14,0.22,0.21,0.15,-0.03,0.05,-0.03,0.36,0.18,-0.01,0.13,-0.06,-0.02,0,0,0.01,0.01,0.01,0.28,-0.05,-0.04,-0.06,0.02,0.36,-0.79,0,0,0.22,0">wider use of battery transportation technology. In </tspan>
<tspan x="75.00" y="259.00" textLength="217.05" dx="0,0.04,0.03,0.18,-0.07,0.13,-0.06,-0.02,-0.01,0,0,-0.11,-0.02,0.15,0.03,0.14,0.05,0.01,0.05,-0.06,0,0,-0.09,-0.11,-0.09,0.08,0.29,0.28,-0.01,0.05,-0.06,0,0,0.29,0.14,0.21,-0.05,0.07,0.13,0.21,0,0,0.06,-0.05,-0.09,0.05,-0.03,0.36,0">addition, consistent government &#59904;nancial support </tspan>
<tspan x="75.00" y="273.00" textLength="221.64" dx="0,0.16,0.28,0.28,0,0,0.09,0,0,-0.02,0.01,-0.08,0.08,0.11,0.09,0.2,0.5,0,0,-0.09,-0.03,0,0,0.15,-0.02,0,0,0.03,0.07,-0.09,-0.04,-0.06,-0.07,-0.04,-0.01,0.05,-0.06,0,0,-0.03,0,0,-0.03,-0.06,0.36,0.17,0.06,0.18,0.09,0.03,0">will be necessary for the development of bio-based </tspan>
<tspan x="75.00" y="287.00" textLength="206.5" dx="0,0.05,-0.02,0.08,0.16,0.36,0,0,0.01,0.01,0.01,0.28,-0.05,-0.04,-0.06,0.02,0.23,-0.03,0.08,-0.04,0,0,0.02,0.27,-0.03,0.01,0,0,0.27,-0.06,0.14,0.06,0.09,-0.03,0.01,-0.08,0.08,0,0,0.21,-0.05,-0.03,0.15,-0.02,0.08,0">energy technologies, which introduces another </tspan>
<tspan x="75.00" y="301.00" textLength="192.93" dx="0,0.28,-0.05,-0.08,0.08,0.36,0.18,0.2,0.27,-0.06,0.34,0,0,-0.09,-0.03,0,0,0.15,-0.02,0,0,-0.06,-0.02,-0.03,0.01,0.15,0.01,0.07,0.29,0,0,0.21,0.13,0.04,-0.03,0.28,0.26,-0.07,0.34,0,0,-0.03,0,0,0.15,-0.02,0">uncertainty for the long-term viability of the </tspan>
<tspan x="75.00" y="315.00" textLength="228.72" dx="0,0.01,0.01,0.01,0.28,-0.05,-0.04,-0.06,0.02,0.23,-0.03,0.08,-0.08,0,0,-0.13,-0.03,0,0,-0.01,0.15,0.21,-0.08,-0.07,-0.03,-0.07,0,0,0.15,-0.02,0,0,-0.12,0.27,-0.07,0.01,0.03,0,0,0.01,0.18,-0.01,0.01,0.08,0,0,0.21,-0.02,0,0,0.15,-0.02,0">technologies. For example, the United States and the </tspan>
<tspan x="75.00" y="329.00" textLength="218.46" dx="0,0.04,0.26,0.06,-0.07,0.07,0.11,0.21,0,0,-0.12,0.27,-0.06,-0.02,0,0,0.14,-0.02,-0.09,0,0,0.12,0.18,0.23,0.06,0.08,0.11,0.03,0.04,-0.09,0,0,-0.03,-0.06,-0.03,0.34,0.04,-0.04,0,0,0.15,0.21,-0.02,0.17,-0.01,0.01,0.08,0">European Union have aggressive biofuel mandates </tspan>
<tspan x="75.00" y="343.00" textLength="212.7" dx="0,0.15,0.14,-0.01,0,0,0.27,-0.05,0.01,-0.08,0.04,0.03,0,0,0.06,0.15,0.05,0.18,0.2,0.27,0.14,0.04,-0.03,0.28,0.26,-0.07,0.34,0,0,0.15,0.21,-0.02,0.17,-0.01,0.01,0.08,0,0,-0.09,-0.03,0,0,0.06,0.03,-0.03,0.01,0.07,0.27,-0.03,0">that include sustainability mandates for reducing </tspan>
<tspan x="75.00" y="357.00" textLength="227.47" dx="0,0.23,0.06,0.03,0.05,0.28,-0.05,-0.08,0.15,0.09,0,0,0.08,0.18,0,0,0.05,0.28,0.14,0.11,0.03,-0.06,-0.02,0.15,-0.08,0,0,0.38,-0.07,0.15,-0.05,-0.08,0.03,0.24,0,0,0.08,-0.02,-0.01,0,0,0.04,0.08,0.08,0.21,-0.05,-0.08,0.03,0">greenhouse gas emissions. Although some advanced </tspan>
<tspan x="75.00" y="371.00" textLength="236.94" dx="0,-0.03,-0.06,-0.03,0.34,0.04,-0.04,0,0,0.01,0.01,0.01,0.28,-0.05,-0.04,-0.06,0.02,0.23,-0.03,0.08,0,0,-0.11,-0.08,0.28,-0.03,0,0,-0.01,0.03,0.03,0,0,0.15,-0.02,0.08,0.09,0,0,0.05,0.18,0.21,-0.02,0.17,0.2,0.05,0.14,-0.04,0,0,-0.11,0.05,0.05,0.15,0">biofuel technologies could meet these standards, costs </tspan>
<tspan x="75.00" y="385.00" textLength="216.93" dx="0,0.2,0.06,0,0,0.27,-0.04,0.24,0,0,0.21,-0.02,0,0,0.15,-0.02,0,0,0.01,0.01,0.01,0.28,-0.05,-0.04,-0.06,0.02,0.23,-0.03,0.08,0,0,0.2,0.06,0,0,-0.05,-0.03,0,0,-0.06,0.06,-0.11,-0.09,0.05,0,0,-0.02,0,0,0">are high and the technologies are not proven on a </tspan>
<tspan x="75.00" y="399.00" textLength="77.17" dx="0,-0.11,-0.02,0.29,-0.01,0.08,0.03,0.08,0.13,0.21,0,0,0.09,0.06,0.21,-0.03,-0.11">commercial scale.</tspan>
<tspan x="75.00" y="431.00" textLength="69.99" class="f5782 f5765" font-size="9.00">SOLAR ENERGY</tspan>
<tspan x="75.00" y="455.00" textLength="231.64" dx="0,0.09,-0.04,0.13,0.2,0,0,0.05,-0.02,0.08,0.16,0.36,-0.75,0,0,0.02,0.27,-0.03,0.01,0,0,0.14,0.18,0,0,0.06,0.02,0.05,0.05,0.18,0.21,-0.06,0.13,0.13,0.21,0,0,0.23,0.06,-0.11,0.36,0.15,0,0,0.05,-0.03,0.01,0.05,-0.06,0.13,0.13,0.21,-0.02,0">Solar energy, which has substantial growth potential, </tspan>
<tspan x="75.00" y="469.00" textLength="212.9" dx="0,-0.11,-0.08,0.28,-0.03,0,0,0.18,0.14,0,0.35,-0.05,-0.05,0,0,0.15,-0.02,0,0,0.25,-0.06,-0.01,0.06,0.21,0,0,0.05,-0.02,0.08,0.16,0.36,0,0,0.05,-0.07,0.21,0.26,0.06,-0.02,0.28,-0.01,0.05,-0.06,0,0,0.32,0,0,-0.07,0">could disrupt the global energy environment if it </tspan>
<tspan x="75.00" y="483.00" textLength="232.44" dx="0,0.03,0.01,0.27,-0.03,0.07,-0.09,0.08,0,0,0,0,-0.11,-0.02,-0.08,0.07,0.03,0.13,-0.07,0.13,0.04,-0.09,0,0,-0.11,0.05,0.05,0,0,0.16,-0.07,0.15,0,0,-0.04,-0.03,0.01,0.13,0.14,0.31,-0.03,0.07,-0.07,0.34,0,0,-0.06,0.06,0.09,-0.03,0.01,-0.08,0.03,0">achieves a competitive cost with electricity produced </tspan>
<tspan x="75.00" y="497.00" textLength="232.75" dx="0,0.21,0.06,-0.02,0,0,-0.03,0.15,-0.02,0.08,0,0,0.08,-0.08,0.26,0.03,-0.08,0.08,0,0,-0.03,0,0,0.05,-0.02,0.08,0.16,0.36,-0.79,0,0,0.19,0.01,0.06,-0.09,0.15,0.09,0,0,-0.03,0,0,-0.09,-0.11,-0.09,0.08,0.29,0.28,-0.01,0.05,-0.06,0">from other sources of energy. Because of government </tspan>
<tspan x="75.00" y="511.00" textLength="218.59" dx="0,0.06,0.02,0.05,0.03,-0.03,0.18,-0.03,0.08,0,0,0.21,-0.02,0,0,0.22,-0.07,-0.05,-0.03,0.2,0.06,0,0,0.03,0.01,0.01,0.26,0.27,0.27,0.27,-0.03,0,0,-0.11,0.05,0.05,0.15,-0.04,0,0,-0.07,-0.05,-0.03,-0.04,-0.11,-0.09,-0.04,-0.07,0.18,0.2,-0.03,0">subsidies and rapidly declining costs, photovoltaic </tspan>
<tspan x="75.00" y="525.00" textLength="223.21" dx="0,0.01,0.01,0.01,0.28,-0.05,-0.04,-0.06,0.02,0.36,0,0,0.14,0,0,-0.05,-0.11,0,0,0.16,-0.03,0.03,-0.04,0.06,0,0,0.15,0.09,0.03,0,0,-0.09,-0.03,0,0,-0.04,-0.03,0.01,0.13,0.14,0.31,-0.03,0.06,0.21,0,0,0.05,-0.11,-0.14,0.08,0">technology is now widely used for electrical power </tspan>
<tspan x="75.00" y="539.00" textLength="234.25" dx="0,-0.06,0.05,-0.02,0.08,0.22,-0.01,0.13,-0.06,-0.02,-0.04,0,0,0.06,0.27,0.27,0.14,0,0,0.14,0,0,0.21,0.26,0.06,0.11,0.04,0.11,0,0,0.15,-0.02,0,0,-0.03,0.11,0.04,0.18,0.27,-0.03,0,0,0.15,0.21,-0.12,0.33,0.08,0.03,0.13,0.2,0.26,0.06,0.08,0">generation. China is already the leading manufacturer </tspan>
<tspan x="75.00" y="553.00" textLength="97.67" dx="0,-0.03,0,0,-0.07,-0.05,-0.03,-0.04,-0.11,-0.09,-0.04,-0.07,0.18,0.2,-0.03,0,0,0.03,0.21,-0.02,-0.04,0.14,-0.08">of photovoltaic panels.</tspan>
<tspan x="75.00" y="581.00" textLength="230.42" dx="0,0.09,-0.04,0.13,0.2,0,0,0.15,-0.02,0.08,0.29,0.15,0.21,0,0,0.01,0.01,0.01,0.28,-0.05,-0.04,-0.06,0.02,0.36,0,0,0.06,0.21,0,0,0.21,0.14,0.08,0,0,-0.06,0.05,-0.02,0.08,0.22,-0.01,0.01,0,0,-0.04,-0.03,0.01,0.13,0.14,0.31,-0.03,0.06,0.21,0">Solar thermal technology can also generate electrical </tspan>
<tspan x="75.00" y="595.00" textLength="209.51" dx="0,0.05,-0.11,-0.14,0.08,0,0,-0.06,0,0,0.15,0.03,0.27,-0.03,0,0,0.28,0.26,0.3,0.06,-0.03,0.18,0,0,-0.04,0,0,-0.11,-0.02,-0.05,-0.08,0.05,-0.06,0.14,0.22,-0.01,0.01,0,0,0.06,0.28,0.29,0.26,-0.04,0.24,-0.06,0,0">power by using mirrors to concentrate sunlight, </tspan>
<tspan x="75.00" y="609.00" textLength="220.88" dx="0,0.02,0.27,-0.03,0.01,0,0,0.14,0,0,-0.11,-0.02,-0.07,-0.09,0.08,0.36,0.01,0.03,0,0,-0.04,0,0,-0.02,0.11,-0.01,0,0,0.27,0,0,0,0,0.08,-0.04,0.13,0.2,0,0,-0.11,-0.04,0.28,-0.03,0.01,0.13,-0.04,-0.03,-0.48,0,0,0.24,-0.02,0">which is converted to heat in a solar collector. The </tspan>
<tspan x="75.00" y="623.00" textLength="225.69" dx="0,-0.02,0.11,-0.01,0,0,0.14,0,0,0.14,0.22,0.21,0.15,0,-0.09,0.08,0.3,0.06,0.03,0,0,-0.04,0,0,0,0,-0.02,0.11,-0.01,0,0,0.05,-0.04,-0.03,0.22,0.12,-0.06,0,0,-0.01,0.03,0.18,-0.08,0.28,0,0,0.06,0.01,0.01,0,0,0.18,0">heat is transferred to a heat storage medium such as </tspan>
<tspan x="75.00" y="637.00" textLength="227.0" dx="0,-0.04,-0.04,-0.07,0.01,0.05,0,0,0.09,0.21,-0.07,0,0,0,0.02,0.27,-0.03,0.01,0,0,0.06,0.21,0,0,0.09,0,0,0.15,0.09,0.03,0,0,-0.09,-0.03,0,0,0.05,0.01,0.11,0.21,0,0,-0.06,0.05,-0.02,0.08,0.22,-0.01,0.13,-0.06,-0.02,0">molten salt, which can be used for steam generation </tspan>
<tspan x="75.00" y="651.00" textLength="234.65" dx="0,-0.04,0,0,-0.06,0.06,0.09,-0.03,0.01,-0.08,0,0,-0.04,-0.03,0.01,0.13,0.14,0.31,-0.03,0.07,-0.07,0.34,-0.79,0,0,0.19,0.01,0.06,-0.09,0.15,0.09,0,0,-0.02,0.11,-0.01,0,0,0.06,0.21,0,0,0.09,0,0,0.05,-0.04,-0.03,0.06,0.03,0,0,-0.03,0.08,0.11,0">to produce electricity. Because heat can be stored less </tspan>
<tspan x="75.00" y="665.00" textLength="233.79" dx="0,-0.01,0.07,0.07,0.05,0.15,0.03,0.04,-0.09,-0.04,0.06,0,0,0.15,0.14,0.21,0,0,-0.04,-0.03,0.01,0.13,0.14,0.31,-0.03,0.07,-0.07,0.34,-0.75,0,0,0.08,-0.04,0.13,0.2,0,0,0.15,-0.02,0.08,0.29,0.15,0.21,0,0,0.01,0.01,0.01,0.28,-0.05,-0.04,-0.06,0.02,0.36,0">expensively than electricity, solar thermal technology </tspan>
<tspan x="75.00" y="679.00" textLength="225.84" dx="0,0.06,0.21,0,0,-0.06,0.05,-0.02,0.07,0.22,-0.01,0.01,0,0,-0.04,-0.03,0.01,0.13,0.14,0.31,-0.03,0.07,-0.07,0.34,0,0,0.02,-0.02,0.05,0,0,0.15,-0.02,0,0,0.06,0.28,0,0,0.14,0,0,-0.05,-0.03,0,0,-0.01,0.27,0.27,0.27,0.27,-0.03,-0.1">can generate electricity when the sun is not shining.</tspan>
<tspan x="75.00" y="707.00" textLength="232.73" dx="0,-0.05,-0.11,-0.14,0.07,-0.09,0.07,-0.44,0,0,0.02,-0.02,0.03,0.15,-0.02,0.08,0,0,0.08,-0.04,0.13,0.2,0.14,0.08,-0.07,-0.05,-0.03,-0.04,-0.11,-0.09,-0.04,-0.07,0.18,0.2,-0.03,0,0,-0.03,0,0,0.08,-0.04,0.13,0.2,0.14,0.15,0.15,-0.02,0.07,0.29,0.15,0.21,0">However, whether solar-photovoltaic or solar-thermal </tspan>
<tspan x="75.00" y="721.00" textLength="228.83" dx="0,-0.04,-0.03,0.01,0.13,0.14,0.31,-0.03,0.08,-0.07,0.34,-0.1,0.25,-0.06,0.05,-0.02,0.08,0.22,-0.01,0.13,0.27,-0.03,0,0,-0.07,0.13,0.21,-0.06,0.15,0,0,0.16,0.28,0.28,0,0,0.09,0,0,-0.11,0.05,0.05,0,0,-0.11,-0.02,-0.08,0.07,0.03,0.13,-0.07,0.13,0.04,-0.09,0">electricity-generating plants will be cost competitive </tspan></text><path d="M15 21 l-15 0 M639 21 l15 0 M15 813 l-15 0 M639 813 l15 0 M21 15 l0 -15 M21 819 l0 15 M633 15 l0 -15 M633 819 l0 15 " style="stroke:#ffffff;stroke-width:1.25;"/><path d="M15 21 l-15 0 M639 21 l15 0 M15 813 l-15 0 M639 813 l15 0 M21 15 l0 -15 M21 819 l0 15 M633 15 l0 -15 M633 819 l0 15 " style="stroke:#000000;stroke-width:0.25;"/>
</svg>
