<svg class="crocodoc-2jt6Qd crocodoc-page-svg" version="1.1"
    xmlns="http://www.w3.org/2000/svg"
    xmlns:xlink="http://www.w3.org/1999/xlink"
    xmlns:xhtml="http://www.w3.org/1999/xhtml"
    xml:space="preserve" width="654.0pt" height="834.0pt" viewBox="0 0 654.0 834.0">
<xhtml:link href="stylesheet.css" type="text/css" rel="stylesheet" />
<style>
.crocodoc-2jt6Qd tspan { white-space:pre; }
.crocodoc-2jt6Qd path { fill:transparent; }

</style>
<defs>
<mask id="Mask_15_110_2jt6Qd">
<g ><path d="M3 831 l648 0 l0 -828 l-648 0 l0 828 " style="fill:url(#Grad_16_110_2jt6Qd);"/></g></mask>
<linearGradient id="Grad_16_110_2jt6Qd" x1="44.82%" y1="92.27%" x2="90.53%" y2="92.27%"><stop offset="0.00" style="stop-color:#ffffff" /><stop offset="0.25" style="stop-color:#eeeeee" /><stop offset="0.50" style="stop-color:#bdbdbd" /><stop offset="0.75" style="stop-color:#6d6d6d" /><stop offset="1.00" style="stop-color:#000000" /></linearGradient>
</defs>

<g style="opacity:0.40;" ><path d="M71.97 751.59 c0.77 -0.59 1.54 -1 2.32 -1.22 c0.78 0.14 1.43 0.38 1.9 0.71 c-0.44 0 -0.88 0.01 -1.32 0.05 c-0.96 0.07 -1.93 0.23 -2.9 0.46 M70.58 751.73 c-0.17 -0.35 -0.34 -0.64 -0.48 -0.88 c-0.05 -0.08 -0.1 -0.16 -0.15 -0.23 c0.57 -0.14 1.16 -0.25 1.75 -0.32 c0.08 -0.01 0.17 -0.02 0.26 -0.02 c0.12 -0.01 0.24 -0.02 0.35 -0.02 c-0.59 0.38 -1.17 0.87 -1.73 1.48 M71.79 756.57 c-0.73 0.19 -1.47 0.32 -2.2 0.38 c-0.46 0.03 -0.92 0.04 -1.37 0.01 c0.64 -1.48 1.37 -2.76 2.18 -3.83 c0.42 0.94 0.89 2.1 1.39 3.44 M72.35 752.35 c0.71 -0.14 1.42 -0.24 2.12 -0.29 c0.83 -0.06 1.66 -0.06 2.48 -0.01 c0.16 0.53 0.01 1.14 -0.44 1.76 c-1.37 -0.66 -2.77 -1.15 -4.16 -1.47 M77.8 754.49 c0.53 -0.76 0.75 -1.53 0.63 -2.26 c2.4 0.39 4.61 1.32 6.39 2.7 c0.59 1.34 0.26 2.92 -0.93 4.48 c-1.73 -1.95 -3.83 -3.65 -6.09 -4.92 M77.37 750.55 c1.2 0.27 2.36 0.68 3.46 1.22 c-0.91 -0.28 -1.86 -0.48 -2.85 -0.59 c-0.17 -0.23 -0.37 -0.44 -0.61 -0.63 M82.93 760.48 c-1.62 1.59 -4.03 2.99 -6.82 3.97 c-0.85 -2.48 -1.77 -4.88 -2.67 -6.97 c1.44 -0.53 2.71 -1.27 3.59 -2.11 c2.19 1.34 4.22 3.11 5.9 5.12 M67.37 751.87 c-0.23 0.02 -0.46 0.04 -0.69 0.07 c0.52 -0.33 1.13 -0.63 1.77 -0.88 c0.13 -0.05 0.25 -0.09 0.39 -0.13 c0.23 0.16 0.54 0.51 0.87 0.98 c-0.8 -0.09 -1.59 -0.1 -2.33 -0.05 M71.19 776.65 c2.06 -0.15 4.16 -0.53 6.23 -1.12 c0.37 1.66 0.63 3.04 0.77 4.12 l0.03 0.2 c0.03 0.28 0.06 0.5 0.07 0.71 c-1.08 0.5 -2.22 0.71 -3.36 0.79 c-1.93 0.14 -3.84 -0.05 -5.68 -0.59 c-0.12 -0.13 -0.17 -0.18 -0.22 -0.24 c-0.88 -1.02 -1.56 -2.31 -2.08 -3.9 c1.36 0.12 2.79 0.13 4.25 0.02 M76.89 773.26 c-2.03 0.58 -4.09 0.95 -6.12 1.11 c-1.53 0.12 -3.02 0.1 -4.42 -0.05 c-0.2 -0.98 -0.33 -2.01 -0.41 -3.07 c-0.09 -1.18 -0.1 -2.4 -0.05 -3.65 c1.22 0.12 2.5 0.13 3.81 0.03 c1.79 -0.13 3.61 -0.46 5.41 -0.97 c0.68 2.32 1.28 4.54 1.78 6.61 M69.56 765.83 c-1.22 0.09 -2.41 0.08 -3.54 -0.03 c0.26 -2.62 0.84 -5.21 1.67 -7.5 c0.61 0.05 1.25 0.06 1.91 0.01 c0.88 -0.07 1.78 -0.22 2.67 -0.46 c0.76 2.13 1.57 4.57 2.33 7.08 c-1.67 0.47 -3.36 0.77 -5.03 0.9 M72.89 756.23 c-0.58 -1.27 -1.13 -2.37 -1.64 -3.28 c1.49 0.33 3 0.89 4.5 1.67 c-0.73 0.64 -1.71 1.19 -2.85 1.6 M87.47 770.66 c0.09 1.23 -0.01 2.39 -0.3 3.44 c-0.29 0.45 -0.61 0.89 -0.94 1.31 c-0.24 0.3 -0.5 0.6 -0.77 0.89 c-1.56 1.68 -3.5 3.02 -5.62 3.89 c0 -0.22 -0.01 -0.45 -0.02 -0.7 l-0.02 -0.29 c-0.09 -1.13 -0.32 -2.54 -0.68 -4.22 c3.34 -1.16 6.28 -2.83 8.32 -4.73 c0.01 0.13 0.03 0.26 0.04 0.39 M84.03 761.9 c1.36 1.91 2.34 3.9 2.91 5.92 c-1.96 1.97 -4.92 3.71 -8.36 4.91 c-0.52 -2.08 -1.16 -4.28 -1.9 -6.57 c2.98 -1.04 5.58 -2.55 7.35 -4.26 M88.79 770.78 c0 -0.28 -0.01 -0.57 -0.03 -0.85 c-0.02 -0.31 -0.06 -0.63 -0.11 -0.96 c0.33 -0.4 0.61 -0.8 0.85 -1.2 c-0.13 1.02 -0.37 2.03 -0.71 3.01 M86.57 756.56 c0.09 0.1 0.17 0.2 0.26 0.3 c1.34 1.9 2.22 4.03 2.6 6.32 c-0.07 1.08 -0.52 2.19 -1.36 3.32 c-0.63 -1.97 -1.65 -3.89 -3.03 -5.71 c1.13 -1.42 1.65 -2.87 1.53 -4.24 M66.77 779.83 c-2.34 -1.12 -4.34 -2.78 -5.87 -4.85 c1.18 0.65 2.62 1.13 4.28 1.42 c0.41 1.32 0.95 2.47 1.59 3.43 M64.48 765.59 c-2.38 -0.45 -4.17 -1.41 -5.05 -2.69 c0.95 -2.27 2.48 -4.4 4.41 -6.15 c0.57 0.65 1.47 1.12 2.63 1.38 c-0.95 2.29 -1.63 4.86 -1.98 7.47 M63.32 755.85 c-1.89 1.6 -3.43 3.53 -4.47 5.63 c-0.05 -0.32 -0.06 -0.65 -0.02 -0.98 c0.86 -2.34 2.3 -4.47 4.16 -6.16 c0.13 -0.09 0.28 -0.18 0.42 -0.27 c-0.24 0.62 -0.27 1.22 -0.09 1.79 M68.53 752.69 c-1.42 0.58 -2.76 1.32 -4 2.21 c-0.05 -0.51 0.15 -1.07 0.61 -1.64 c0.83 -0.28 1.73 -0.46 2.67 -0.53 c0.23 -0.02 0.47 -0.03 0.72 -0.03 M64.96 755.8 c1.3 -1.01 2.73 -1.85 4.25 -2.49 c-0.79 1.01 -1.51 2.19 -2.15 3.51 c-0.93 -0.19 -1.67 -0.55 -2.09 -1.02 M58.8 764.68 c1.12 1.29 3.05 2.25 5.49 2.7 c-0.11 1.43 -0.11 2.84 -0.01 4.19 c0.06 0.85 0.17 1.69 0.32 2.49 c-2.65 -0.52 -4.64 -1.52 -5.78 -2.92 c-0.19 -0.51 -0.35 -1.05 -0.49 -1.59 c-0.01 -0.09 -0.02 -0.16 -0.02 -0.23 c-0.11 -1.53 0.05 -3.09 0.49 -4.65 " style="fill:#d3d2d2;"/></g><text class="f5782 f5765" font-size="8.00" style="fill:#231f20"><tspan x="69.24" y="769.34" textLength="10.03" dx="0,0.56">86</tspan></text><text class="f1560 f5766" font-size="8.00" style="fill:#656263"><tspan x="87.25" y="769.13" textLength="97.51" class="f1561 f781" dx="0,0.56,0.56,0.56,0.56,0.56,0.56,0.56,0.56,0.56,0.56,0.56,0.56,0.56,0.56,0.56,0.56,0.56,0.56">GLOBAL TRENDS 2030:</tspan>
<tspan x="185.32" y="769.13" textLength="97.73" dx="0,0.56,0.56,-0.18,0.56,0.56,0.56,0.56,0.02,0.56,0.56,0.56,0.56,0.56,0.56,0.56,0.56,0.56,0.56"> ALTERNATIVE WORLDS</tspan></text>
<g mask="url(#Mask_15_110_2jt6Qd)" ><path d="M295.95 766.5 l292.19 0 " style="stroke:#918f8f;stroke-width:1.00;stroke-dasharray:0.001,1.994;stroke-linecap:round;stroke-linejoin:round;"/><path d="M293.95 766.5 M589.14 766.5 " style="stroke:#918f8f;stroke-width:1.00;stroke-linecap:round;stroke-linejoin:round;"/></g><text class="f1489 f786" font-size="10.00" style="fill:#231f20"><tspan x="340.50" y="91.00" textLength="233.94" dx="0,0.15,0.21,-0.04,0,0,0.05,-0.01,0.07,0.16,0.23,0.27,-0.03,0,0,0.15,0.2,0.03,-0.18,0.03,0.15,-0.04,0,0,0.26,0.28,-0.18,0,0,0.06,0.27,0.27,0.14,0,0,0.14,0.18,0,0,0.06,0.01,-0.08,0.05,-0.06,0.15,0.06,0,0,0.03,-0.02,-0.02,0">many emerging markets, like China has recently done </tspan>
<tspan x="340.50" y="105.00" textLength="97.68" dx="0,0.27,0,0,-0.07,-0.05,-0.03,-0.04,-0.11,-0.09,-0.04,-0.07,0.18,0.2,-0.03,0,0,0.03,0.21,-0.02,-0.04,0.14,-0.08">in photovoltaic panels.</tspan>
<tspan x="340.50" y="133.00" textLength="140.19" class="f1486 f791" dx="0,-0.53,0.06,-0.05,0.19,-0.07,-0.16,0,-0.02,0.14,-0.01,0.01,0.14,0,0,-0.07,0.05,0.06,0.11,0.16,0.09,0.23,0.03,-0.11,0.03,0.16,0.15">Technological breakthroughs</tspan>
<tspan x="480.70" y="133.00" textLength="61.84" dx="0,0,0.07,0.08,0.36,0.18,0.2,0.27,0.27,0.27,-0.03,0,0,-0.04,0"> pertaining to </tspan>
<tspan x="340.50" y="147.00" textLength="65.0" dx="0,0.15,-0.02,0,0,0.09,0.01,0.12,0.26,0.31,-0.07,0.34,0,0,-0.03,0">the security of </tspan>
<tspan x="405.51" y="147.00" textLength="69.6" class="f1486 f791" dx="0,0.07,-0.07,0.15,0.14,0,0,0.05,0.13,0,-0.11,0.14,0.03,-0.06,0.13">vital resources</tspan>
<tspan x="475.11" y="147.00" textLength="79.81" dx="0,0,0.16,0.28,0.28,0,0,0.09,0,0,-0.02,0.01,-0.08,0.08,0.11,0.09,0.2,0.5,0"> will be necessary </tspan>
<tspan x="340.50" y="161.00" textLength="211.91" dx="0,-0.04,0,0,-0.01,0.03,0.03,0,0,0.15,-0.02,0,0,-0.09,0.07,0.09,0.07,0,0,0.04,-0.01,0.01,0.08,-0.44,0,0,0.21,-0.02,0,0,0.05,-0.02,0.08,0.16,0.36,0,0,-0.02,0.03,0.03,0.14,0,0,-0.03,0,0,0.15,-0.02,0">to meet the food, water, and energy needs of the </tspan>
<tspan x="340.50" y="175.00" textLength="223.1" dx="0,-0.14,-0.03,0.02,-0.03,-0.15,-0.51,0,0,0.04,-0.07,-0.1,0.28,0.13,-0.01,0.13,-0.06,-0.02,-0.04,0,0,-0.08,0.1,0,0,0.01,0.01,0.01,0.28,-0.05,-0.04,-0.06,0.02,0.23,-0.03,0.08,0,0,0.26,0.28,-0.18,-0.04,0.06,0,0,-0.04,0,0,0.09,0,0,-0.01,0">world&#8217;s population. Key technologies likely to be at </tspan>
<tspan x="340.50" y="189.00" textLength="216.28" dx="0,0.15,-0.02,0,0,-0.09,-0.03,0.06,-0.01,0.21,0.06,-0.02,-0.06,0,0,0.27,0,0,0.15,0.27,0.14,0,0,0.2,0.06,0.05,0.14,0,0,0.16,0.28,0.28,0,0,0.27,-0.05,0.01,-0.08,0.04,0.03,0,0,-0.06,0.05,-0.02,0.03,0.13,-0.03,0.06,0.21,0.28,0.06,0">the forefront in this arena will include genetically </tspan>
<tspan x="340.50" y="203.00" textLength="234.79" dx="0,-0.04,0.09,0.18,0.33,-0.01,0.03,0,0,0.07,0.06,-0.07,0.03,-0.04,0,0,-0.06,0.06,0.01,0.07,0.14,0.03,-0.06,-0.02,0,0,0.12,0.23,0.31,-0.03,0.12,0.28,-0.07,0.2,0.26,0.06,-0.07,0,0,0.04,-0.01,0.01,0.07,0.14,0.12,0.26,0.3,0.31,-0.04,0.08,-0.01,0.13,-0.06,-0.02,0">modi&#59904;ed crops, precision agriculture, water-irrigation </tspan>
<tspan x="340.50" y="217.00" textLength="240.86" dx="0,0.01,0.01,0.01,0.28,0.27,-0.03,0,0.04,0.08,-0.04,0,0,0.08,-0.04,0.13,0.2,0,0,0.05,-0.02,0.08,0.16,0.36,-0.75,0,0,0.04,0.08,0.08,0.21,-0.05,-0.08,0.03,0,0,-0.03,-0.06,0.36,0.17,0.06,0.18,0.09,0.03,0,0,0.34,0.04,-0.04,0.14,-0.04,0,0,0.21,-0.02,0">techniques, solar energy, advanced bio-based fuels, and </tspan>
<tspan x="340.50" y="231.00" textLength="234.44" dx="0,0.05,0.28,0.14,0.21,-0.05,-0.08,0.03,0,0,-0.03,0.28,0,0,0.21,-0.02,0,0,0.14,-0.01,0.2,0.26,0.22,0.21,0,0,0.08,0.18,0,0,-0.01,0.25,0.14,0.22,0.03,0.13,0.13,-0.06,-0.02,0,0,0.21,0.13,0,0,0.21,0.22,0.03,0.13,0.2,0.26,0.31,0.27,-0.03,0">enhanced oil and natural gas extraction via fracturing </tspan>
<tspan x="340.50" y="245.00" textLength="92.2" dx="0,-0.15,0.09,0.03,0,0,0.09,-0.19,0,0,-0.02,0,0,0.03,0.12,-0.06,0,0,-0.47,-0.05,0.13">(see box on page 35).</tspan></text><text class="f1549 f829" font-size="12.00" style="fill:#e6910d"><tspan x="340.50" y="278.00" textLength="212.69">&#8220; . . . a shift in the technology center of </tspan>
<tspan x="346.50" y="295.00" textLength="215.77" dx="0,0,0,0,0,0,0,0,0,0,-0.22,0,0,0,-0.22,0,0,0,0,0,0,0,0,0,0,0,0,0,0,0,0,0,0,0,0,0,0,0,0,0,0,0">gravity from West to East and South . . . </tspan>
<tspan x="346.50" y="312.00" textLength="183.76">almost certainly will continue . . . &#8221;</tspan></text><text class="f1489 f786" font-size="10.00" style="fill:#231f20"><tspan x="340.50" y="343.00" textLength="99.29" dx="0,0.22,0.18,0.05,0,0,-0.08,0,0,0,-0.05,-0.03,0,0,-0.03,0.11,0.18,0.05,0,0,0,-0.02,0.06,0">Last but not least, new </tspan>
<tspan x="439.80" y="343.00" textLength="93.83" class="f1486 f791" dx="0,-0.04,0.06,0.14,-0.06,0.09,0,0,0.03,0.06,-0.05,0.19,-0.07,-0.16,0,-0.02,0.14,-0.01,0.13">health technologies</tspan>
<tspan x="533.64" y="343.00" textLength="21.89" dx="0,0,0.16,0.28,0.28,0"> will </tspan>
<tspan x="340.50" y="357.00" textLength="218.24" dx="0,-0.11,-0.02,-0.06,0.13,0.27,-0.12,0.04,0,0,-0.04,0,0,-0.01,0.25,0.01,0.05,-0.02,0,0,0.15,-0.02,0,0,-0.02,-0.09,0.08,0.22,0.12,-0.06,0,0,0.12,-0.06,0,0,-0.03,0,0,0.05,-0.07,-0.1,0.28,0.13,-0.01,0.13,-0.06,-0.02,0.15,0">continue to extend the average age of populations </tspan>
<tspan x="340.50" y="371.00" textLength="235.72" dx="0,0.2,0.06,-0.08,0.28,-0.02,0,0,0.15,-0.02,0,0,-0.14,-0.03,0.02,-0.03,0.07,0,0,0.21,-0.01,-0.04,0.26,-0.06,-0.03,0.22,-0.01,0.01,0,0,0.03,0,-0.03,0.28,0.26,-0.07,0.18,-0.01,0.13,0.27,-0.03,0,0,-0.07,-0.04,0.07,0.03,-0.03,0.06,0.21,0,0,0.21,-0.02,0">around the world, ameliorate debilitating physical and </tspan>
<tspan x="340.50" y="385.00" textLength="218.35" dx="0,-0.01,0.05,-0.06,0.18,0.21,0,0,-0.11,-0.02,-0.02,0.18,-0.07,0.13,-0.06,-0.02,0.15,-0.04,0,0,0.21,-0.02,0,0,0.27,-0.08,-0.06,0.06,-0.11,-0.09,0,0,-0.11,-0.09,0.08,0.22,0.21,0.28,0,0,-0.14,-0.04,0.28,0.16,0.17,0.09,0.08,0.27,-0.03,-0.1">mental conditions, and improve overall well-being.</tspan></text><text class="f5782 f5765" font-size="11.00" style="fill:#e6910d"><tspan x="340.50" y="418.00" textLength="170.85" dx="0,0,0,0,0,0,0,-1.01,0,0,0,0,0,0,0,0,0,0,0,0,0,0,0,0">INFORMATION TECHNOLOGIES</tspan></text><text class="f1489 f786" font-size="10.00" style="fill:#231f20"><tspan x="340.50" y="441.00" textLength="230.46" dx="0,0.07,0.26,0.31,0.27,-0.03,0,0,0.15,-0.02,0,0,-0.02,-0.01,0.25,0,0,-0.85,0.37,-0.26,0.08,0,0,-0.12,0.11,0.2,0.18,-0.04,0,0,0.15,-0.02,0,0,0.14,0.2,0.05,0.07,0.04,0.2,0.06,-0.07,0,0,0.08,-0.03,0.33,0.31,0.04,0.2,0.06,-0.07,0">During the next 15-20 years, the hardware, software, </tspan>
<tspan x="340.50" y="455.00" textLength="238.41" dx="0,0.21,-0.02,0,0,-0.11,-0.02,0.28,-0.02,0.01,0.13,0.13,0.04,0.21,-0.07,0.34,0,0,0.18,-0.03,0.07,0.01,0.13,0.15,0,0,-0.03,0,0,0.16,0,0,0.16,0.28,0.28,0,0,-0.01,0.07,0.07,0.08,0.31,-0.03,0.05,-0.05,-0.08,0,0,0.15,0.18,0.11,0.03,0.04,-0.09,0">and connectivity aspects of IT will experience massive </tspan>
<tspan x="340.50" y="469.00" textLength="227.9" dx="0,0.23,0.06,-0.11,0.36,0.15,0,0,0.27,0,0,0.06,-0.07,0.03,0.04,-0.03,0.28,0.26,-0.07,0.34,0,0,0.21,-0.02,0,0,-0.11,-0.02,-0.08,-0.07,-0.03,-0.01,0.28,-0.07,0.34,0,0,0.18,0,0,-0.14,-0.04,0.28,0,0,0.18,0,0,-0.04,-0.03,0.06,0">growth in capability and complexity as well as more </tspan>
<tspan x="340.50" y="483.00" textLength="230.69" dx="0,0.16,-0.03,0.03,0.08,-0.03,-0.06,0.06,0.11,0.04,0,0,0.18,0.32,0.27,0.34,0.15,0.03,-0.06,-0.02,-0.04,0,0,0.24,0.27,0.14,0,0,0.23,0.06,-0.11,0.36,0.15,0,0,0.21,-0.02,0,0,0.18,0.32,0.27,0.34,0.15,0.03,-0.06,-0.02,0,0,0.16,0.28,0.28,0">widespread diffusion. This growth and diffusion will </tspan>
<tspan x="340.50" y="497.00" textLength="221.72" dx="0,-0.06,0.06,0.08,0.09,0.05,-0.07,0,0,0.03,-0.04,0.24,0.27,0.33,-0.01,0.06,0.21,-0.06,0,0,0.01,0.14,0.21,0.28,-0.03,0.05,-0.03,-0.06,0.08,0,0,-0.09,-0.03,0,0,-0.09,-0.11,-0.09,0.08,0.29,0.28,-0.01,0.05,-0.06,0.15,0,0,0.21,-0.02,0">present signi&#59904;cant challenges for governments and </tspan>
<tspan x="340.50" y="511.00" textLength="239.09" dx="0,0.08,0.07,0.07,-0.03,0.03,0.13,-0.03,0.08,-0.04,0,0,0.02,0.27,-0.03,0.01,0,0,-0.11,0.15,0.05,0,0,0.29,-0.02,0,0,0.04,0.01,0.07,0,0,-0.04,0,0,0.06,-0.07,-0.05,0.2,0.26,0.06,0,0,0.15,-0.02,0,0,0.09,0.05,-0.02,0.02,-0.05,0.15,0">societies, which must &#59904;nd ways to capture the bene&#59904;ts </tspan>
<tspan x="340.50" y="525.00" textLength="223.15" dx="0,-0.03,0,0,-0.02,0.06,0,0,0.16,0,0,0.01,0.01,0.01,0.28,-0.05,-0.04,-0.06,0.02,0.23,-0.03,0.08,0,0,0.02,0.27,0.28,-0.03,0,0,0.03,0.11,0.21,0.26,0.27,-0.03,0,0,0.16,-0.07,0.15,0,0,0.15,-0.02,0,0,-0.02,0.06,0">of new IT technologies while dealing with the new </tspan>
<tspan x="340.50" y="539.00" textLength="170.25" dx="0,0.15,0.27,0.06,0.11,-0.01,0.15,0,0,0.15,0.14,-0.01,0,0,0.15,-0.05,0.05,0.09,0,0,0.01,0.01,0.01,0.28,-0.05,-0.04,-0.06,0.02,0.23,-0.03,0.08,0,0,-0.06,0.06,0.08,0.09,0.05,-0.07,-0.05">threats that those technologies present.</tspan>
<tspan x="340.50" y="567.00" textLength="214.66" dx="0,0.24,0.27,0.06,0.03,0,0,0.01,0.01,0.01,0.28,-0.05,-0.04,-0.06,0.02,0.36,0,0,0.03,0.07,-0.09,-0.04,-0.06,-0.07,-0.04,-0.01,0.05,-0.06,0.15,0,0,0.16,-0.07,0.15,0,0,0.21,0,0,0.16,0,0,-0.09,0.07,0.12,0.15,0">Three technology developments with an IT focus </tspan>
<tspan x="340.50" y="581.00" textLength="219.78" dx="0,0.14,-0.02,-0.09,0,0,0.15,-0.02,0,0,0.05,-0.11,-0.14,0.08,0,0,-0.04,0,0,0.01,0.14,0.21,-0.03,-0.06,0,0,0.15,-0.02,0,0,0.04,0.01,0,0,-0.14,0,0,0.16,0.28,0.28,0,0,0.26,0.04,-0.09,-0.07,0,0,0.03,0">have the power to change the way we will live, do </tspan>
<tspan x="340.50" y="595.00" textLength="235.3" dx="0,-0.08,0.15,0.03,0.27,-0.02,0.08,0.11,-0.04,0,0,0.21,-0.02,0,0,-0.06,0.06,-0.03,0.01,0.01,0.13,0,0,-0.08,0.26,0.18,0.09,-0.04,0.04,-0.09,0.08,0,0,0.09,-0.01,-0.09,-0.03,0.06,0,0,0.08,-0.07,0.01,0.38,0,0,0.08,-0.04,-0.08,0,0.13,-0.06,-0.02,0.15,0">business, and protect ourselves before 2030: solutions </tspan>
<tspan x="340.50" y="609.00" textLength="218.81" dx="0,-0.09,-0.03,0,0,0.05,-0.04,-0.03,0.22,0.12,-0.06,0,0,0.21,-0.02,0,0,-0.06,0.06,0.07,-0.08,0.08,0.11,0.03,0.27,-0.03,0,0,0.13,0.2,0.16,-0.06,0,0,0,0.18,0.21,-0.06,0.13,-0.07,0.13,-0.03,0.08,0,0,-0.03,0,0,0.17,-0.01,0.18,0.07,0">for storage and processing large quantities of data, </tspan>
<tspan x="340.50" y="623.00" textLength="218.27" dx="0,0.08,0.07,0.07,0.13,0.21,0,0,-0.02,0.02,0.31,-0.14,-0.03,0.03,0.31,0.27,-0.03,0,0,0.01,0.01,0.01,0.28,-0.05,-0.04,-0.06,0.02,0.23,-0.03,0.08,-0.04,0,0,0.21,-0.02,0,0,-0.27,0.02,0.15,0.2,0.36,0,0,0.07,-0.07,0.13,-0.03,0.08,-0.22,0">social networking technologies, and &#8220;smart cities&#8221; </tspan>
<tspan x="340.50" y="637.00" textLength="224.66" dx="0,0.05,-0.05,-0.11,-0.02,-0.08,0.03,0.18,0.11,0.03,0.27,-0.03,0,0,0,0,-0.05,0.05,0.05,0,0,-0.03,0,0,0.26,0.08,0.06,0.21,0,0,0.01,0.01,0.01,0.28,-0.05,-0.04,-0.06,0.02,0.23,-0.03,0.08,0,0,0.05,0.14,0.04,-0.04,-0.03,0.03,0">encompassing a host of urban technologies enabled </tspan>
<tspan x="340.50" y="651.00" textLength="212.09" dx="0,-0.06,0,0,0.05,0.28,0.14,0.21,-0.05,-0.08,0.03,0,0,0.21,-0.02,0,0,0.09,0.01,0.12,0.26,0.06,0,0,0.16,0,0,0.2,0.07,0.05,0.01,0.05,0.16,-0.08,0,0,-0.09,0.08,0.08,0.21,-0.05,-0.08,0.08,0,0,0.27,0">by enhanced and secure IT systems. Advances in </tspan>
<tspan x="340.50" y="665.00" textLength="225.38" dx="0,0.17,-0.01,0.18,0,0,0.05,-0.04,-0.03,0.22,0.12,-0.06,0,0,0.21,-0.02,0,0,0.21,0.14,0.21,0.06,0.07,0.03,0.14,0,0,-0.02,0.08,0.22,0.21,-0.03,0,0,0,0,-0.11,-0.02,0.28,0.27,-0.03,0,0,0.01,-0.11,-0.02,-0.05,-0.02,0.28,-0.03,0">data storage and analysis herald a coming economic </tspan>
<tspan x="340.50" y="679.00" textLength="228.34" dx="0,0.09,0.07,-0.02,0,0,0.27,0,0,-0.06,-0.03,0.36,0.15,0,0,0.38,-0.01,0.08,0.31,-0.03,0.06,0.21,0,0,0.04,0.08,0.08,0.21,-0.05,-0.08,0.08,0,0,0.27,0,0,0,0,-0.05,0.05,0.05,0,0,-0.03,0,0,0.26,0.08,0.06,0.21,0">boom in North America; advances in a host of urban </tspan>
<tspan x="340.50" y="693.00" textLength="230.83" dx="0,0.01,0.01,0.01,0.28,-0.05,-0.04,-0.06,0.02,0.23,-0.03,0.08,0,0,0.16,0.28,0.28,0,0,0.09,0,0,-0.01,0.14,-0.07,0.07,0.03,0,0,-0.06,0,0,0.15,-0.02,0,0,0.23,0.13,0.21,-0.06,0,0,0.27,-0.07,-0.09,0.08,0.05,0.15,-0.01,0.05,-0.06,0.15,0">technologies will be shaped by the giant investments </tspan>
<tspan x="340.50" y="707.00" textLength="235.31" dx="0,0.27,0,0,0.02,0.15,0.2,0.35,-0.17,0.35,0.07,-0.07,0.13,-0.03,0.08,0,0,0.27,0.33,0.21,0.22,0.18,0.05,0.14,0.35,0.01,0.13,0.2,0.26,0.06,0.08,0,0,0.27,0,0,0.15,-0.02,0,0,0.02,0.07,-0.09,-0.04,-0.06,-0.07,-0.05,0.27,-0.03,0,0,-0.14,-0.03,0.02,-0.03,0.03">in smart-cities infrastructures in the developing world.</tspan></text><text class="f1481 f779" font-size="14.00" style="fill:#e6910d"><tspan x="138.00" y="89.01" textLength="112.0" class="f5782 f5765" font-size="12.00">GAME-CHANGER 5</tspan>
<tspan x="138.00" y="108.15" textLength="144.54" dx="0,0,0,0,0,0,0,-1.04,0,0,0,0,0,0,0,0,0,0">THE IMPACT OF NEW </tspan>
<tspan x="138.00" y="124.95" textLength="108.22">TECHNOLOGIES</tspan></text><text class="f1489 f786" font-size="10.00" style="fill:#231f20"><tspan x="75.00" y="161.00" textLength="229.23" dx="0,0.15,-0.11,-0.02,-0.05,-0.02,0.28,-0.03,0,0,0.23,0.06,-0.11,0.36,0.15,0,0,0.27,0,0,0.05,-0.01,0.08,0.16,0.23,0.27,-0.03,0,0,0.15,0.2,0.03,-0.18,0.03,0,0,-0.11,-0.08,0.28,-0.07,0.14,0.31,-0.03,0.08,0,0,0.16,0.28,0.28,0">Economic growth in emerging market countries will </tspan>
<tspan x="75.00" y="175.00" textLength="228.82" dx="0,0.05,0.13,0.27,-0.11,0.28,0.13,-0.01,0.01,0,0,0.27,-0.05,0.07,0.06,0.11,0.18,0.09,0.03,0,0,0.01,0.01,0.01,0.28,-0.05,-0.04,-0.06,0.02,0.23,-0.03,0.06,0.21,0,0,0.27,0.28,-0.05,-0.11,0.08,-0.01,0.13,-0.06,-0.02,0,0,0.2,0.06,-0.08,0.28,-0.02,0">stimulate increased technological innovation around </tspan>
<tspan x="75.00" y="189.00" textLength="164.37" dx="0,0.15,-0.02,0,0,-0.14,-0.03,0.02,-0.03,0,0,-0.03,0.26,0.31,0.27,-0.03,0,0,0.15,-0.02,0,0,-0.02,-0.01,0.25,0,0,-0.85,0.37,-0.26,0.08,0,0,-0.12,0.11,0.2,0.18,-0.08">the world during the next 15-20 years.</tspan>
<tspan x="75.00" y="217.00" textLength="239.61" dx="0,0,0,-0.01,0.27,0.32,0.33,0,0,0.27,0,0,0.15,-0.02,0,0,0.01,0.01,0.01,0.28,-0.05,-0.04,-0.06,0.02,0.23,-0.03,0.06,0.21,0,0,-0.08,0.05,-0.06,0.01,0.08,0,0,-0.03,0,0,0.23,0.22,-0.02,0.21,-0.07,0.34,0,0,0.21,0.06,-0.02,0,0,-0.61,0.08,0.05,0">A shift in the technological center of gravity from West </tspan>
<tspan x="75.00" y="231.00" textLength="223.8" dx="0,-0.04,0,0,0.22,0.18,0.05,0,0,0.21,-0.02,0,0,0.09,-0.08,0,0.15,-0.01,0,0,0.02,0.27,-0.03,0.01,0,0,0.14,0.18,0,0,0.21,0.26,0.06,0.11,0.04,0.11,0,0,0.09,0.03,0.22,0.28,-0.01,0,0,0.21,0.27,-0.04,0.05,0.05,0">to East and South, which has already begun, almost </tspan>
<tspan x="75.00" y="245.00" textLength="216.71" dx="0,-0.08,0.08,0.36,0.18,0.2,0.27,0.29,0.06,0,0,0.16,0.28,0.28,0,0,-0.11,-0.02,-0.06,0.13,0.27,-0.12,0.04,0,0,0.18,0,0,0.15,-0.02,0,0,-0.04,-0.11,0.05,0,0,-0.03,0,0,-0.11,-0.02,-0.08,0.03,0.21,0.27,-0.03,0.08,-0.04,0">certainly will continue as the &#59905;ows of companies, </tspan>
<tspan x="75.00" y="259.00" textLength="229.51" dx="0,-0.03,0.03,0.11,0.18,-0.04,0,0,0.05,-0.07,0.14,0.06,0.04,-0.06,0.06,0.05,-0.02,-0.04,0.26,0.18,-0.04,0,0,0.21,-0.02,0,0,0.06,-0.07,-0.05,-0.07,0.18,0.21,0,0,0.21,0.06,-0.02,0,0,0.15,-0.02,0,0,0.02,0.07,-0.09,-0.04,-0.06,-0.07,0.07,0.03,0">ideas, entrepreneurs, and capital from the developed </tspan>
<tspan x="75.00" y="273.00" textLength="227.29" dx="0,-0.04,0,0,0.15,-0.02,0,0,0.03,0.07,-0.09,-0.04,-0.06,-0.07,-0.05,0.27,-0.03,0,0,0.15,0.2,0.03,-0.18,0.02,0.15,0,0,0.27,-0.05,0.07,0.06,0.11,0.18,0.09,-0.11,0,0,0.07,0.26,0.31,0.27,-0.03,0,0,0.15,-0.02,0,0,-0.02,-0.01,0.25,0">to the developing markets increase. During the next </tspan>
<tspan x="75.00" y="287.00" textLength="219.23" dx="0,-0.85,0.37,-0.26,0.08,0,0,-0.12,0.11,0.2,0.18,-0.04,0,0,-0.04,-0.03,0.06,0,0,0.01,0.01,0.01,0.28,-0.05,-0.04,-0.06,0.02,0.23,-0.03,0.06,0.21,0,0,0.03,0.13,0.13,0.04,0.21,-0.07,0.34,0,0,0.14,0,0,0.26,0.28,-0.18,-0.04,0.06,0,0,-0.04,0">15-20 years, more technological activity is likely to </tspan>
<tspan x="75.00" y="301.00" textLength="229.56" dx="0,-0.04,-0.11,-0.09,0,0,-0.04,0,0,0.03,0.07,-0.09,-0.04,-0.06,-0.07,-0.05,0.27,-0.03,0,0,-0.14,-0.03,0.02,-0.03,0,0,0.18,0,0,-0.11,0.28,-0.07,0.13,0.27,0.14,-0.01,0.13,-0.06,-0.02,0.14,0.21,0.14,0,0,-0.1,0.07,0.12,0.15,0,0,-0.02,0">move to developing world as multinationals focus on </tspan>
<tspan x="75.00" y="315.00" textLength="234.52" dx="0,0.15,-0.02,0,0,0.08,0.18,0.05,0.01,0.08,0.05,-0.17,0.25,0.23,0.06,-0.11,0.16,0.27,-0.03,0,0,0.05,-0.01,0.08,0.16,0.23,0.27,-0.03,0,0,0.15,0.2,0.03,-0.18,0.03,0.15,0,0,0.21,-0.02,0,0,0.18,0,0,0.06,0.27,0.27,-0.02,0.08,0.09,-0.07,0">the fastest-growing emerging markets and as Chinese, </tspan>
<tspan x="75.00" y="329.00" textLength="205.34" dx="0,0.22,-0.02,0.18,0.13,0.21,-0.01,0,0,0.09,0.22,0.17,0.16,0.28,0.26,0.13,0.21,-0.01,0,0,0.21,-0.02,0,0,-0.03,0.15,-0.02,0.08,0,0,0.05,-0.01,0.08,0.16,0.23,0.27,-0.03,0.01,0.35,0.01,-0.11,-0.02,-0.05,-0.02,-0.01,0">Indian, Brazilian, and other emerging-economy </tspan>
<tspan x="75.00" y="343.00" textLength="192.18" dx="0,-0.11,-0.03,0.28,0.05,-0.03,0.22,-0.01,0.13,-0.06,-0.02,0.15,0,0,0.22,-0.07,-0.05,-0.03,0.2,0.06,0,0,0.09,0.01,-0.11,-0.02,-0.01,0,0,0.27,-0.06,0.01,0.08,0.29,0.14,-0.01,0.13,-0.06,-0.02,0.14,0.21,0.28,0.06,0">corporations rapidly become internationally </tspan>
<tspan x="75.00" y="357.00" textLength="235.11" dx="0,-0.11,-0.02,-0.08,0.07,0.03,0.13,-0.07,0.13,0.04,-0.09,-0.11,0,0,0.24,-0.02,0,0,-0.03,0.07,0.03,0.03,0,0,-0.03,0,0,0.15,0.27,0.14,0,0,-0.04,-0.11,-0.09,0.05,-0.01,0.05,-0.06,0,0,0.16,0.28,0.28,0,0,0.03,0.04,0.07,0.05,-0.02,0">competitive. The speed of this movement will depend </tspan>
<tspan x="75.00" y="371.00" textLength="217.85" dx="0,-0.02,0,0,0.15,-0.02,0,0,-0.02,0.08,0.2,0.28,0.13,0.04,-0.03,0.28,0.26,-0.07,0.34,0,0,-0.03,0,0,0.31,0.14,0,0,0,0.06,-0.07,-0.05,-0.07,0.18,0.21,0,0,0.27,0,0,0.15,-0.02,0,0,0.03,0.07,-0.09,-0.04,-0.06,-0.07,-0.05,0.27,-0.03,0">on the availability of risk capital in the developing </tspan>
<tspan x="75.00" y="385.00" textLength="235.62" dx="0,-0.11,-0.08,0.28,-0.06,0.14,0.31,-0.03,0.08,-0.04,0,0,0.35,0.28,-0.03,0.08,0,0,-0.03,0,0,0.13,-0.02,0,0,-0.04,0,0,-0.06,0.06,-0.03,0.01,0.01,0.13,0,0,0.27,-0.06,0.01,-0.04,0.28,-0.03,0.01,0.13,0.2,0.18,0.21,0,0,-0.06,0.06,-0.07,0.07,0.08,0.36,0.34,0">countries, rules of law to protect intellectual property </tspan>
<tspan x="75.00" y="399.00" textLength="196.45" dx="0,0.31,-0.04,0.24,-0.06,0.15,-0.04,0,0,0.21,-0.02,0,0,0.15,-0.02,0,0,0.03,0.08,0.03,0.26,0.06,0,0,-0.03,0,0,0.03,0.07,-0.09,-0.04,-0.06,-0.07,-0.05,0.27,-0.03,0.01,0.35,0.01,-0.11,-0.02,-0.05,-0.02,-0.01,0">rights, and the desire of developing-economy </tspan>
<tspan x="75.00" y="413.00" textLength="206.9" dx="0,-0.11,-0.02,-0.08,0.03,0.21,0.27,-0.03,0.08,0,0,-0.04,0,0,0.23,0.06,-0.11,0,0,0.21,-0.02,0,0,0.09,0,0,0.25,-0.06,-0.01,0.06,0.21,0.28,0.06,0,0,-0.11,-0.02,-0.08,0.07,0.03,0.13,-0.07,0.13,0.04,-0.09,-0.11">companies to grow and be globally competitive.</tspan>
<tspan x="75.00" y="441.00" textLength="179.18" dx="0,-0.13,-0.08,0.26,0,0,0.01,0.01,0.01,0.28,-0.05,-0.04,-0.06,0.02,0.36,0,0,0.2,0.06,0.05,0.14,0.18,0,0,0.16,0.28,0.28,0,0,-0.01,0.14,-0.07,0.07,0,0,0.25,-0.06,-0.01,0.06,0.21,0">Four technology arenas will shape global </tspan>
<tspan x="75.00" y="455.00" textLength="207.7" dx="0,0.01,-0.11,-0.02,-0.05,-0.02,0.28,-0.03,-0.1,0,0,0.08,0.07,0.07,0.13,0.21,-0.02,0,0,0.21,-0.02,0,0,0.28,0.28,0.26,-0.07,0.18,0.2,0.5,0,0,0.03,0.07,-0.09,-0.04,-0.06,-0.07,-0.04,-0.01,0.05,-0.06,0.15,0,0,-0.06,0">economic, social, and military developments by </tspan>
<tspan x="75.00" y="469.00" textLength="209.93" dx="0,0.08,-0.07,0.01,0.38,0,0,0.27,0.33,-0.09,-0.03,0.29,0.15,-0.01,0.13,-0.06,-0.02,0,0,0.01,0.01,0.01,0.28,-0.05,-0.04,-0.06,0.02,0.23,-0.03,0.08,-0.04,0,0,-0.09,0,-0.04,-0.02,0.15,-0.01,0.13,-0.06,-0.02,0,0,0.21,-0.02,0">2030: information technologies, automation and </tspan>
<tspan x="75.00" y="483.00" textLength="226.5" dx="0,0.15,0.21,-0.12,0.32,0.08,0.03,0.13,0.2,0.26,0.31,0.27,-0.03,0,0,0.01,0.01,0.01,0.28,-0.05,-0.04,-0.06,0.02,0.23,-0.03,0.08,-0.04,0,0,0.06,0.08,0.08,-0.08,0.26,0.03,-0.08,0,0,0.01,0.01,0.01,0.28,-0.05,-0.04,-0.06,0.02,0.23,-0.03,0.08,-0.04,0">manufacturing technologies, resource technologies, </tspan>
<tspan x="75.00" y="497.00" textLength="105.28" dx="0,0.21,-0.02,0,0,-0.02,0.11,0.21,-0.07,0.15,0,0,0.01,0.01,0.01,0.28,-0.05,-0.04,-0.06,0.02,0.23,-0.03,0.08,-0.08">and health technologies.</tspan>
<tspan x="75.00" y="525.00" textLength="114.62" class="f1486 f791" dx="0,0.12,0.23,-0.13,-0.12,0.18,0.11,-0.05,0.08,-0.01,-0.13,0,0,0.03,0.06,-0.05,0.19,-0.08,-0.16,0,-0.02,0.37">Information technology</tspan>
<tspan x="189.63" y="525.00" textLength="122.54" dx="0,0,0.14,0,0,0.05,-0.06,0.01,0.07,0.31,0.27,-0.03,0,0,0.15,-0.02,0,0,-0.03,-0.04,0,0,0.17,-0.01,0.18,0,0,0.08,0.22,0.03,0"> is entering the big data era. </tspan>
<tspan x="75.00" y="539.00" textLength="230.95" dx="0,0.15,0.06,0.07,-0.08,0.08,0.11,0,0,0.04,-0.11,-0.14,0.08,0,0,0.21,-0.02,0,0,0.17,-0.01,0.18,0,0,0.05,-0.04,-0.03,0.22,0.12,-0.06,0,0,0.2,0.06,0,0,0.09,0.01,-0.11,-0.02,0.28,0.27,-0.03,0,0,0.21,0.27,-0.04,0.05,0.05,0">Process power and data storage are becoming almost </tspan>
<tspan x="75.00" y="553.00" textLength="240.3" dx="0,0.21,0.06,0.03,0.22,0,0,-0.02,0.02,0.31,-0.14,-0.03,0.03,0.19,0,0,0.21,-0.02,0,0,0.15,-0.02,0,0,0.01,-0.06,-0.08,0.04,0,0,0.16,0.28,0.28,0,0,-0.06,0.06,-0.11,0.21,-0.03,0.03,0,0,0.25,-0.06,-0.01,0.06,0.21,0,0,0.03,-0.09,-0.08,0.08,0.11,0">free; networks and the cloud will provide global access </tspan>
<tspan x="75.00" y="567.00" textLength="238.45" dx="0,0.21,-0.02,0,0,0.07,0.08,0.47,0.08,0.18,0.03,0.04,-0.09,0,0,0.09,0.08,0.47,0.21,-0.03,-0.08,0.08,0.25,0,0,0.08,0.07,0.07,0.13,0.21,0,0,-0.01,0.03,0.18,0.13,0,0,0.21,-0.02,0,0,0.26,0.1,0.09,0.08,0.18,0.09,0.01,0.12,0.26,0.31,-0.07,0.34,0">and pervasive services; social media and cybersecurity </tspan>
<tspan x="75.00" y="581.00" textLength="114.06" dx="0,0.16,0.28,0.28,0,0,0.09,0,0,0.13,0.2,0.16,-0.06,0,0,-0.02,0.06,0,0,0.15,0.2,0.03,-0.18,0.03,0.15,-0.08">will be large new markets.</tspan>
<tspan x="75.00" y="609.00" textLength="200.48" class="f1486 f791" dx="0,-0.16,-0.05,0.05,-0.1,0.11,-0.05,0.08,-0.01,-0.13,0,0,0.08,-0.04,0,0,0.11,0.02,-0.08,0.08,-0.07,-0.06,0.08,0,0,0.11,0.08,-0.13,0.18,-0.06,0.08,0.1,0.26,0.14,0.16,0.19,-0.09,0">Automation and advanced manufacturing </tspan>
<tspan x="75.00" y="623.00" textLength="60.64" class="f1486 f791" dx="0,0.03,0.06,-0.05,0.19,-0.07,-0.16,0,-0.02,0.14,-0.01,0.13">technologies</tspan>
<tspan x="135.65" y="623.00" textLength="157.27" dx="0,0,0.2,0.06,0,0,0.01,0.14,0.21,-0.03,0.23,0.27,-0.03,0,0,0.15,-0.02,0,0,-0.08,0.15,0.03,0.27,-0.02,0.08,0.11,0,0,-0.04,0.09,0.03,-0.04,0,0,-0.03,0"> are changing the business model of </tspan>
<tspan x="75.00" y="637.00" textLength="240.23" dx="0,0.15,0.18,0.11,0,0,-0.06,0.06,0.09,-0.03,0.01,0.13,0.13,-0.06,-0.02,0,0,0.21,-0.02,0,0,-0.05,-0.11,0,0,0.34,0,0.2,0.26,0.06,0,0,-0.06,0.06,0.09,-0.03,0.01,0.13,0.15,0,0,0.21,-0.02,0,0,0.09,0.07,0.47,0.21,-0.03,-0.08,0.08,0">mass production and how future products and services </tspan>
<tspan x="75.00" y="651.00" textLength="235.73" dx="0,0.16,0.28,0.28,0,0,0.09,0,0,0.02,-0.04,0.26,0.04,-0.09,0.08,0.06,0.03,0,0,-0.04,0,0,0.15,-0.02,0,0,0.27,-0.05,0.07,0.06,0.11,0.18,0.03,0.27,-0.03,0.25,0.06,0,0,0.27,-0.08,0.05,-0.03,0.36,0.18,0.21,-0.06,0,0,0.28,-0.03,0.03,0.2,-0.03,0">will be delivered to the increasingly important middle </tspan>
<tspan x="75.00" y="665.00" textLength="226.83" dx="0,0.01,0.13,0.18,0.11,0.09,0.08,0,0,0.27,0,0,0.09,-0.03,0.15,0,0,0.03,0.07,-0.09,-0.04,-0.06,-0.07,0.07,0.03,0,0,0.21,-0.02,0,0,0.03,0.07,-0.09,-0.04,-0.06,-0.07,-0.05,0.27,-0.03,0,0,-0.11,-0.08,0.28,-0.06,0.14,0.31,-0.03,0.08,-0.08,0">classes in both developed and developing countries. </tspan>
<tspan x="75.00" y="679.00" textLength="222.23" dx="0,0.24,0.03,0.13,0.21,0,0,0.15,0.21,-0.12,0.33,0.08,0.03,0.13,0.2,0.26,0.31,0.27,-0.03,0,0,0.05,-0.06,0.01,0.08,0.28,-0.06,0.31,0.14,0.09,0.08,0,0,0.14,-0.02,-0.09,0,0,0.21,0.26,0.06,0.11,0.04,0.11,0,0,-0.08,0.26,0.28,-0.07,0">Asian manufacturing enterprises have already built </tspan>
<tspan x="75.00" y="693.00" textLength="221.7" dx="0,0.15,-0.02,0,0,-0.11,-0.02,-0.08,0.07,0.03,0.01,0.05,-0.05,0.07,-0.03,0.08,0,0,-0.04,0,0,0.03,0.07,-0.09,-0.04,-0.06,-0.07,0,0,-0.05,-0.11,-0.09,-0.04,0,0,-0.09,0,-0.04,-0.02,0.15,-0.01,0.13,-0.06,-0.02,0,0,0.21,-0.02,0">the competencies to develop novel automation and </tspan>
<tspan x="75.00" y="707.00" textLength="210.56" dx="0,0.04,0.08,0.08,0.21,-0.05,-0.08,0.03,0,0,0.15,0.21,-0.12,0.33,0.08,0.03,0.13,0.2,0.26,0.31,0.27,-0.03,0,0,-0.07,-0.09,-0.07,0.26,-0.03,0.06,-0.01,0.13,-0.06,-0.02,0.15,0,0,0.21,0.06,-0.02,0,0,0.15,-0.02,0.08,0.26,0">advanced manufacturing applications from their </tspan>
<tspan x="75.00" y="721.00" textLength="230.18" dx="0,0.12,0.26,0.3,0.06,0.05,-0.06,0,0,0.06,-0.07,0.03,0.04,-0.03,0.28,0.26,-0.07,0.13,-0.03,0.08,-0.04,0,0,0.21,-0.02,0,0,0.15,-0.02,0.1,0,0,0.2,0.06,0,0,0.05,-0.03,0.14,0.09,0.03,0,0,-0.04,0,0,0.02,-0.02,0.28,0.27,0.14,-0.01,0.01,0">current capabilities, and they are poised to dominate </tspan></text><path d="M101.62 72.81 c14.7 0 26.62 11.92 26.62 26.62 c0 14.05 -10.88 25.54 -24.67 26.54 l-28.58 0.08 l0 -28.58 c1.08 -13.79 12.58 -24.67 26.62 -24.67 " style="fill:#e6910d;"/><path d="M119.16 98.66 l-5.2 -9.24 c-0.06 -0.1 -0.16 -0.16 -0.27 -0.16 l-12.26 0.19 c-0.17 0 -0.3 0.15 -0.3 0.31 l-1.48 3.12 l-4.17 -2.42 c-0.09 -0.05 -0.21 -0.06 -0.3 0 l-10.22 5.73 c-0.13 0.07 -0.19 0.23 -0.14 0.37 l-0.03 12.27 c0 0.11 0.06 0.21 0.15 0.27 l9.69 5.59 c0.02 0.22 0.26 0.34 0.45 0.23 l1.07 -0.6 l9.28 -5.22 c0.1 -0.05 0.16 -0.16 0.16 -0.27 l0 -1.2 l7.69 -0.01 c0.1 0 0.2 -0.05 0.26 -0.14 l4.79 -7.27 l0.13 -0.2 l0.67 -1.02 c0.06 -0.09 0.07 -0.22 0.01 -0.32 M95.54 100.44 l-0.11 -0.19 l0.07 0.21 c-0.26 0.09 -0.56 0.11 -0.84 0.07 l-6.23 -3.65 c-0.21 -0.29 -0.19 -0.53 -0.03 -0.74 l6.61 -3.73 c0.22 -0.05 0.36 -0.05 0.5 -0.04 l3.56 2.04 l2.92 1.69 c0.2 0.28 0.19 0.52 0.04 0.72 l-1.36 0.77 c-0.09 0.05 -0.28 0.16 -0.68 0.38 l-1.59 0.88 l-2.87 1.59 z M103.99 107.43 c-0.16 0.44 -0.42 0.78 -0.71 0.96 c0 0 -1.65 1 -1.66 1 l-4.94 2.78 c-0.24 -0.01 -0.29 -0.03 -0.33 -0.07 c-0.08 -0.17 -0.1 -7.19 -0.1 -7.2 l0.03 -1.14 c0.02 -0.59 0.42 -1.25 0.92 -1.51 l6.03 -3.14 c0.22 -0.12 0.45 -0.13 0.63 -0.03 l0.12 0.19 c0 0 0.01 2.98 0.01 2.98 l-0.01 0.23 c0 0 0.01 0.5 0.01 0.5 l0.01 2.57 l0 1.84 z M116.03 100.77 l-3.08 4.68 l-0.18 -0.12 l0.15 0.16 c-0.22 0.2 -0.54 0.38 -0.88 0.5 l-6.36 0.02 l-0.21 0 l-0.01 -0.21 l-0.07 -2.77 c0.04 -0.13 0.68 -1.05 0.68 -1.06 l0.89 -1.21 c0.32 -0.29 0.74 -0.49 1.18 -0.59 l7.27 -0.03 c0.35 0.07 0.57 0.23 0.65 0.44 l-0.02 0.2 z M116.32 97 c-0.07 0.32 -0.38 0.52 -0.82 0.52 c0 0 -1.59 0.02 -1.59 0.02 l-5.76 0.06 c-0.54 -0.09 -1.01 -0.38 -1.2 -0.72 c0 0 -2.44 -4.3 -2.44 -4.3 l-0.42 -0.75 c-0.14 -0.32 -0.05 -0.62 0.22 -0.78 l8.16 -0.16 c0.27 0.08 0.46 0.18 0.61 0.3 l3.21 5.65 z " style="fill:#ffffff;"/><path d="M94.94 94.67 c-0.8 0 -2.04 0.44 -1.94 1.44 c0.09 0.9 1.19 1.24 1.95 1.24 c0.8 0 2.04 -0.44 1.94 -1.44 c-0.09 -0.89 -1.19 -1.24 -1.95 -1.24 " style="fill:#ffffff;"/><path d="M108.45 92.14 c-0.68 -0.2 -1.58 0.01 -1.81 0.77 c-0.22 0.76 0.43 1.42 1.11 1.62 c0.67 0.2 1.58 -0.01 1.81 -0.76 c0.22 -0.75 -0.43 -1.42 -1.11 -1.62 " style="fill:#ffffff;"/><path d="M111.7 94.15 c-0.7 0.37 -0.77 1.24 -0.26 1.81 c0.49 0.54 1.37 0.74 2.03 0.4 c0.71 -0.37 0.77 -1.24 0.26 -1.81 c-0.49 -0.54 -1.37 -0.74 -2.03 -0.4 " style="fill:#ffffff;"/><path d="M110.16 101.75 c-0.67 -0.01 -1.36 0.42 -1.45 1.13 c-0.1 0.81 0.66 1.39 1.4 1.41 c0.67 0.01 1.36 -0.42 1.45 -1.13 c0.1 -0.81 -0.66 -1.39 -1.4 -1.41 " style="fill:#ffffff;"/><path d="M98.37 102.93 c-1.68 0.26 -1.81 3.47 0.08 3.18 c1.68 -0.26 1.81 -3.48 -0.08 -3.18 " style="fill:#ffffff;"/><path d="M101.7 107.86 c1.55 -0.24 1.66 -3.19 -0.08 -2.92 c-1.55 0.24 -1.66 3.19 0.08 2.92 " style="fill:#ffffff;"/><path d="M15 21 l-15 0 M639 21 l15 0 M15 813 l-15 0 M639 813 l15 0 M21 15 l0 -15 M21 819 l0 15 M633 15 l0 -15 M633 819 l0 15 " style="stroke:#ffffff;stroke-width:1.25;"/><path d="M15 21 l-15 0 M639 21 l15 0 M15 813 l-15 0 M639 813 l15 0 M21 15 l0 -15 M21 819 l0 15 M633 15 l0 -15 M633 819 l0 15 " style="stroke:#000000;stroke-width:0.25;"/>
</svg>
