<svg class="crocodoc-2jt6Qd crocodoc-page-svg" version="1.1"
    xmlns="http://www.w3.org/2000/svg"
    xmlns:xlink="http://www.w3.org/1999/xlink"
    xmlns:xhtml="http://www.w3.org/1999/xhtml"
    xml:space="preserve" width="654.0pt" height="834.0pt" viewBox="0 0 654.0 834.0">
<xhtml:link href="stylesheet.css" type="text/css" rel="stylesheet" />
<style>
.crocodoc-2jt6Qd tspan { white-space:pre; }
.crocodoc-2jt6Qd path { fill:transparent; }

</style>
<defs>
<mask id="Mask_15_11_2jt6Qd">
<g ><path d="M3 831 l648 0 l0 -828 l-648 0 l0 828 " style="fill:url(#Grad_16_11_2jt6Qd);"/></g></mask>
<linearGradient id="Grad_16_11_2jt6Qd" x1="64.81%" y1="92.15%" x2="11.00%" y2="92.15%"><stop offset="0.00" style="stop-color:#ffffff" /><stop offset="0.25" style="stop-color:#eeeeee" /><stop offset="0.50" style="stop-color:#bdbdbd" /><stop offset="0.75" style="stop-color:#6d6d6d" /><stop offset="1.00" style="stop-color:#000000" /></linearGradient>
</defs>

<g style="opacity:0.40;" ><path d="M577.78 751.59 c-0.76 -0.59 -1.54 -1 -2.32 -1.22 c-0.78 0.14 -1.43 0.38 -1.9 0.71 c0.44 0 0.88 0.01 1.32 0.05 c0.96 0.07 1.93 0.23 2.9 0.46 M579.18 751.73 c0.17 -0.35 0.33 -0.64 0.48 -0.88 c0.05 -0.08 0.1 -0.16 0.15 -0.23 c-0.57 -0.14 -1.16 -0.25 -1.75 -0.32 c-0.08 -0.01 -0.17 -0.02 -0.26 -0.02 c-0.12 -0.01 -0.24 -0.02 -0.36 -0.02 c0.59 0.38 1.17 0.87 1.73 1.48 M577.97 756.57 c0.73 0.19 1.48 0.32 2.21 0.38 c0.46 0.03 0.92 0.04 1.37 0.01 c-0.64 -1.48 -1.37 -2.76 -2.18 -3.83 c-0.42 0.94 -0.89 2.1 -1.39 3.44 M577.41 752.35 c-0.71 -0.14 -1.42 -0.24 -2.12 -0.29 c-0.83 -0.06 -1.66 -0.06 -2.48 -0.01 c-0.16 0.53 -0.01 1.14 0.44 1.76 c1.37 -0.66 2.77 -1.15 4.16 -1.47 M571.96 754.49 c-0.53 -0.76 -0.75 -1.53 -0.63 -2.26 c-2.4 0.39 -4.61 1.32 -6.39 2.7 c-0.59 1.34 -0.26 2.92 0.93 4.48 c1.74 -1.95 3.83 -3.65 6.09 -4.92 M572.39 750.55 c-1.2 0.27 -2.36 0.68 -3.46 1.22 c0.91 -0.28 1.86 -0.48 2.85 -0.59 c0.16 -0.23 0.37 -0.44 0.61 -0.63 M566.82 760.48 c1.62 1.59 4.03 2.99 6.82 3.97 c0.85 -2.48 1.77 -4.88 2.67 -6.97 c-1.44 -0.53 -2.71 -1.27 -3.6 -2.11 c-2.19 1.34 -4.22 3.11 -5.9 5.12 M582.39 751.87 c0.23 0.02 0.46 0.04 0.69 0.07 c-0.52 -0.33 -1.13 -0.63 -1.77 -0.88 c-0.13 -0.05 -0.25 -0.09 -0.38 -0.13 c-0.23 0.16 -0.54 0.51 -0.87 0.98 c0.8 -0.09 1.59 -0.1 2.33 -0.05 M578.56 776.65 c-2.06 -0.15 -4.16 -0.53 -6.23 -1.12 c-0.37 1.66 -0.63 3.04 -0.77 4.12 l-0.03 0.2 c-0.03 0.28 -0.06 0.5 -0.07 0.71 c1.08 0.5 2.22 0.71 3.36 0.79 c1.93 0.14 3.84 -0.05 5.68 -0.59 c0.12 -0.13 0.17 -0.18 0.22 -0.24 c0.88 -1.02 1.56 -2.31 2.08 -3.9 c-1.36 0.12 -2.79 0.13 -4.25 0.02 M572.87 773.26 c2.03 0.58 4.09 0.95 6.12 1.11 c1.53 0.12 3.02 0.1 4.42 -0.05 c0.2 -0.98 0.34 -2.01 0.41 -3.07 c0.09 -1.18 0.1 -2.4 0.05 -3.65 c-1.22 0.12 -2.5 0.13 -3.81 0.03 c-1.79 -0.13 -3.61 -0.46 -5.41 -0.97 c-0.68 2.32 -1.28 4.54 -1.78 6.61 M580.2 765.83 c1.22 0.09 2.41 0.08 3.54 -0.03 c-0.26 -2.62 -0.84 -5.21 -1.67 -7.5 c-0.61 0.05 -1.25 0.06 -1.91 0.01 c-0.88 -0.07 -1.78 -0.22 -2.66 -0.46 c-0.76 2.13 -1.57 4.57 -2.33 7.08 c1.67 0.47 3.36 0.77 5.03 0.9 M576.86 756.23 c0.58 -1.27 1.13 -2.37 1.64 -3.28 c-1.49 0.33 -3 0.89 -4.5 1.67 c0.73 0.64 1.71 1.19 2.85 1.6 M562.29 770.66 c-0.09 1.23 0.01 2.39 0.3 3.44 c0.29 0.45 0.61 0.89 0.94 1.31 c0.24 0.3 0.5 0.6 0.77 0.89 c1.56 1.68 3.5 3.02 5.62 3.89 c0 -0.22 0.01 -0.45 0.02 -0.7 l0.02 -0.29 c0.09 -1.13 0.32 -2.54 0.68 -4.22 c-3.35 -1.16 -6.28 -2.83 -8.32 -4.73 c-0.01 0.13 -0.03 0.26 -0.04 0.39 M565.72 761.9 c-1.36 1.91 -2.34 3.9 -2.91 5.92 c1.96 1.97 4.92 3.71 8.36 4.91 c0.52 -2.08 1.16 -4.28 1.9 -6.57 c-2.98 -1.04 -5.58 -2.55 -7.35 -4.26 M560.96 770.78 c0 -0.28 0.01 -0.57 0.03 -0.85 c0.02 -0.31 0.06 -0.63 0.11 -0.96 c-0.32 -0.4 -0.61 -0.8 -0.85 -1.2 c0.13 1.02 0.37 2.03 0.71 3.01 M563.19 756.56 c-0.09 0.1 -0.17 0.2 -0.26 0.3 c-1.34 1.9 -2.22 4.03 -2.6 6.32 c0.07 1.08 0.52 2.19 1.35 3.32 c0.63 -1.97 1.65 -3.89 3.03 -5.71 c-1.13 -1.42 -1.65 -2.87 -1.53 -4.24 M582.99 779.83 c2.34 -1.12 4.34 -2.78 5.87 -4.85 c-1.18 0.65 -2.62 1.13 -4.28 1.42 c-0.41 1.32 -0.95 2.47 -1.59 3.43 M585.27 765.59 c2.38 -0.45 4.17 -1.41 5.06 -2.69 c-0.96 -2.27 -2.48 -4.4 -4.41 -6.15 c-0.56 0.65 -1.47 1.12 -2.63 1.38 c0.95 2.29 1.63 4.86 1.98 7.47 M586.44 755.85 c1.89 1.6 3.43 3.53 4.47 5.63 c0.05 -0.32 0.06 -0.65 0.02 -0.98 c-0.86 -2.34 -2.3 -4.47 -4.16 -6.16 c-0.13 -0.09 -0.27 -0.18 -0.42 -0.27 c0.24 0.62 0.27 1.22 0.09 1.79 M581.23 752.69 c1.42 0.58 2.76 1.32 4 2.21 c0.05 -0.51 -0.15 -1.07 -0.61 -1.64 c-0.83 -0.28 -1.73 -0.46 -2.67 -0.53 c-0.23 -0.02 -0.47 -0.03 -0.71 -0.03 M584.79 755.8 c-1.3 -1.01 -2.73 -1.85 -4.25 -2.49 c0.79 1.01 1.51 2.19 2.15 3.51 c0.93 -0.19 1.67 -0.55 2.1 -1.02 M590.95 764.68 c-1.12 1.29 -3.06 2.25 -5.49 2.7 c0.11 1.43 0.11 2.84 0.01 4.19 c-0.06 0.85 -0.17 1.69 -0.32 2.49 c2.65 -0.52 4.64 -1.52 5.78 -2.92 c0.19 -0.51 0.35 -1.05 0.49 -1.59 c0.01 -0.09 0.02 -0.16 0.02 -0.23 c0.11 -1.53 -0.05 -3.09 -0.49 -4.65 " style="fill:#d3d2d2;"/></g><text class="f5782 f5765" font-size="8.00" style="fill:#231f20"><tspan x="572.55" y="769.34" textLength="7.36" dx="0,0.56,0.56">iii</tspan></text><text class="f1517 f781" font-size="8.00" style="fill:#656263"><tspan x="430.93" y="769.13" textLength="119.7" dx="0,0.56,0.56,0.56,0.56,0.56,0.56,0.56,0.56,0.56,0.56,0.56,0.56,0.56,0.56,0.56,0.56,0.56,0.56,0.56,0.56,0.56,0.56,0.56,0.56,0.56,0.56,0.56,0.56">National Intelligence Council</tspan></text>
<g mask="url(#Mask_15_11_2jt6Qd)" ><path d="M420.5 766.5 l-344.75 0 " style="stroke:#918f8f;stroke-width:1.00;stroke-dasharray:0.001,1.999;stroke-linecap:round;stroke-linejoin:round;"/><path d="M422.5 766.5 M74.75 766.5 " style="stroke:#918f8f;stroke-width:1.00;stroke-linecap:round;stroke-linejoin:round;"/></g><text class="f1479 f777" font-size="70.32" style="fill:#758b0d"><tspan x="75.00" y="129.88" textLength="40.36">T</tspan></text><text class="f1481 f779" font-size="11.00" style="fill:#231f20"><tspan x="122.40" y="87.88" textLength="164.58" dx="0,-0.01,0,0,-0.02,0.01,0.14,0.02,0,0,-0.09,0,0,-0.07,-0.01,0.09,0,0,0.03,-0.09,-0.1,0,0,0.1,0,0,0.19,0.02,0,-0.04,0.2,-0.07,-0.1,0,0">he world of 2030 will be radically </tspan>
<tspan x="122.40" y="108.88" textLength="172.67" dx="0,0.06,0.19,0.01,-0.01,0.23,-0.04,0.01,0.24,0,0.09,0,0,0.12,-0.03,0.06,0,0,0.04,-0.01,0,0,-0.03,0.01,0.14,0.02,0,0,-0.07,0.09,0.03,-0.17,-0.59,0">transformed from our world today. </tspan>
<tspan x="122.40" y="129.88" textLength="171.96" dx="0,-0.09,0,0,-0.07,-0.01,0.09,-0.24,0,0,-0.01,0,0,-0.02,0.04,0.02,-0.07,0.06,0.52,0.22,0.33,0.11,-0.01,-0.03,0.1,-0.01,0.01,0,0,0.1,-0.01,0">By 2030, no country&#8212;whether the </tspan>
<tspan x="75.00" y="150.87" textLength="211.35" dx="0,-0.11,-0.17,0,0,0.04,-0.09,0,-0.06,-0.24,0,0,0.01,0,0,0.01,-0.19,0,0,-0.09,0.1,-0.01,0.01,0,0,-0.06,-0.02,-0.02,0.04,0,0,-0.02,0.04,0.02,-0.07,0.06,0.52,0.22,0.33,0.03,-0.09,-0.1,0">US, China, or any other large country&#8212;will </tspan>
<tspan x="75.00" y="171.87" textLength="216.11" dx="0,0.1,0,0,0,0,-0.01,0.04,0.04,0.06,0,0.06,-0.09,-0.04,0,0,0.1,-0.03,-0.02,0.01,-0.72,0,0,0.1,-0.01,0,0,0.06,0.02,0.1,-0.04,-0.02,0.01,0.24,0,0.06,-0.07,0">be a hegemonic power. The empowerment </tspan>
<tspan x="75.00" y="192.87" textLength="219.43" dx="0,-0.09,0,0,0,0.03,0,0.01,0.02,0,0.07,-0.02,-0.07,-0.01,0,0,0.01,0.03,0,0,0,0.01,0.45,0.14,0.01,0.02,-0.04,0.06,0,0,-0.09,0,0,0.1,-0.03,-0.02,0.01,0,0,0.01,0,0.06,-0.03,0">of individuals and diffusion of power among </tspan>
<tspan x="75.00" y="213.87" textLength="234.07" dx="0,0.23,0.18,-0.06,-0.07,0.03,0,0,0.01,0.03,0,0,0.12,-0.03,0.06,0,0,0.23,0.18,-0.06,-0.07,0.03,0,0,-0.07,0,0,0,-0.07,-0.04,0.01,0.24,-0.03,-0.07,0,0,-0.01,-0.03,0.38,-0.02,0.01,0.22,0.12,0,0,0.03,-0.09,-0.1,0">states and from states to informal networks will </tspan>
<tspan x="75.00" y="234.87" textLength="223.39" dx="0,-0.06,-0.15,-0.12,0,0,0,0,0.04,0.19,0.01,-0.03,-0.06,0.01,-0.04,0,0,0,0.02,0.04,-0.02,0.41,-0.08,0,0,-0.06,-0.02,-0.02,0.04,-0.01,0,0,0,-0.02,-0.1,-0.12,0.01,0.21,0.02,0,-0.03,0,0,0.1,-0.01,0">have a dramatic impact, largely reversing the </tspan>
<tspan x="75.00" y="255.87" textLength="222.51" dx="0,-0.09,-0.01,0.23,-0.07,0.01,0.13,-0.04,0,0,0.14,-0.01,0.09,0,0,-0.09,0,0,0.1,-0.01,0,0,-0.24,0.03,0.23,0,0,0.02,0,-0.01,-0.01,0,0,-0.87,-0.45,-0.04,-0.24,0,0,-0.02,0.03,0.23,-0.07,0.01,0.14,0,-0.03,0">historic rise of the West since 1750, restoring </tspan>
<tspan x="75.00" y="276.87" textLength="203.89" dx="0,0.24,0.02,-0.07,-0.22,-0.47,0,0,-0.03,-0.03,-0.07,0.06,-0.07,0,0,0,0,0,0.1,-0.01,0,0,-0.03,-0.02,0.07,0.04,-0.07,0,0,0.04,-0.02,0.06,-0.01,0.06,-0.16,-0.73,0,0,0.01,0.03,0">Asia&#8217;s weight in the global economy, and </tspan>
<tspan x="75.00" y="297.87" textLength="213.21" dx="0,0.01,0.11,-0.01,0.01,0.14,0,-0.03,0,0,0,0,0,0,0,-0.01,-0.03,0,0,0.01,0.19,0,0,-0.09,0,0,-0.98,0.07,0.06,0,0.04,0.07,0.18,-0.06,0.01,-0.04,0.14,-0.06,0.01,-0.04,0.06,-0.43,0">ushering in a new era of &#8220;democratization&#8221; </tspan>
<tspan x="75.00" y="318.87" textLength="206.3" dx="0,-0.06,0,0,0.1,-0.01,0,0,0,-0.07,-0.07,0.01,0.24,-0.06,-0.06,0.01,-0.04,0.06,-0.06,-0.07,0,0,0.01,0.03,0,0,0.07,0.06,0,0.03,0.23,0.01,-0.04,0,0,-0.02,-0.1,-0.12,-0.01,-0.17,0,0,0,0">at the international and domestic level. In </tspan>
<tspan x="75.00" y="339.87" textLength="223.26" dx="0,0.02,0.11,0,0.01,0.01,-0.04,0.06,0,0,-0.07,0,0,0,0.03,0,0.01,0.02,0,0.07,-0.02,-0.07,0,0,0.06,0.02,0.1,-0.03,-0.02,0.01,0.24,0,0.06,-0.07,0,0,0.01,0.03,0,0,0.1,-0.01,0">addition to individual empowerment and the </tspan>
<tspan x="75.00" y="360.86" textLength="221.12" dx="0,0,0.01,0.45,0.14,0.01,0.02,-0.04,0.06,0,0,-0.09,0,0,0.23,0.18,-0.06,-0.07,0,0,0.1,-0.04,-0.02,0.01,-0.81,0,0,-0.02,0,0,0.1,-0.01,-0.09,-0.04,-0.1,-0.12,0,0,0.1,-0.06,-0.06,0,0,0.38,-0.02,0">diffusion of state power, we believe that two </tspan>
<tspan x="75.00" y="381.86" textLength="29.13" dx="0,-0.09,0.1,-0.01,0.01,0">other </tspan>
<tspan x="104.13" y="381.86" textLength="62.34" class="f1524 f810" dx="0,0.09,0.07,0.12,0.01,0.09,-0.17,0.14,0.08,0.19">megatrends</tspan>
<tspan x="166.47" y="381.86" textLength="137.07" dx="0,0,0.03,-0.09,-0.1,0,0,0.11,-0.06,0.01,0.1,0,0,0.04,-0.01,0,0,-0.02,0.01,0.14,0.02,0,0,0.04,0.04,0,0,-0.07,0"> will shape our world out to </tspan>
<tspan x="75.00" y="402.86" textLength="226.62" dx="0,-0.07,-0.01,0.09,0.46,0,0,0.07,0.06,0,0.04,0.02,0.18,0.01,0.1,-0.09,-0.04,0,0,0.04,-0.06,0.38,-0.07,0.01,0.24,-0.01,-0.1,0,0,0.03,0.11,0.1,0.04,0.01,-0.07,-0.07,-0.1,0,0,0,0.19,0.01,0.01,0,0">2030: demographic patterns, especially rapid </tspan>
<tspan x="75.00" y="423.86" textLength="227.16" dx="0,-0.04,-0.02,0,-0.03,0.17,0,0,0.01,0.03,0,0,0.02,-0.03,-0.03,0.03,0,-0.03,0,0,-0.02,0.03,0.09,0.04,-0.01,-0.01,-0.01,0,0,0.07,0.06,-0.03,0.01,0.03,0.09,0,0,0.11,-0.09,-0.04,0.1,-0.26,0">aging; and growing resource demands which, </tspan>
<tspan x="75.00" y="444.86" textLength="222.35" dx="0,0,0,0,0.1,-0.01,0,0,0.2,-0.01,0.09,0.03,0,0,-0.09,0,0,-0.04,0.04,0.09,0,0,0.01,0.03,0,0,0.06,-0.06,-0.07,0.01,-0.81,0,0,-0.08,-0.07,0.06,-0.07,0,0,-0.02,-0.06,0.02,0,0,-0.07,0">in the cases of food and water, might lead to </tspan>
<tspan x="75.00" y="465.86" textLength="211.43" dx="0,0.09,0.2,-0.02,-0.01,0.01,0.01,0.01,-0.04,0.03,0.02,0,0,0.1,-0.01,0.03,0.09,0,0,0.06,-0.02,0.06,0.03,0.09,-0.1,0,0,0.11,-0.09,-0.04,0.1,0,0,-0.02,-0.02,0,0,0.02,-0.04,0.53,0.08,-0.02,-0.07,-0.1,0,0">scarcities. These trends, which are virtually </tspan>
<tspan x="75.00" y="486.86" textLength="227.48" dx="0,-0.01,0.01,0.53,0.18,-0.07,0,-0.26,0,0,-0.07,0.1,-0.01,0.23,0,0,-0.07,0.09,0.03,-0.16,-0.73,0,0,0.08,0.04,0,0,0.07,-0.01,0.14,0,-0.03,0,0,0.1,-0.01,0,0,-0.01,-0.07,0.31,0,0,-0.69,0.31,-0.19,-0.07,0">certain, exist today, but during the next 15-20 </tspan>
<tspan x="75.00" y="507.86" textLength="227.07" dx="0,-0.11,-0.06,-0.02,0.21,0,0,0.1,-0.01,-0.11,0,0,0.03,-0.09,-0.1,0,0,0.01,-0.07,0,0,0,0,0,0.1,0,0,0.02,-0.02,-0.06,-0.06,-0.07,0.01,0,0,0,0.06,0,0.06,-0.07,0.08,0.02,-0.12,0">years they will gain much greater momentum. </tspan>
<tspan x="75.00" y="528.86" textLength="170.15" dx="0,0.01,0.03,0.07,0.01,0.22,0.01,0,0,-0.09,0,-0.03,0,0,0.1,-0.01,0,0,0,0.04,0.01,-0.06,0.06,-0.02,0.06,0.03,0.09,0,0,-0.03,-0.02,0">Underpinning the megatrends are </tspan>
<tspan x="245.15" y="528.86" textLength="45.12" class="f1524 f810" dx="0,-0.04,0.08,0.22,-0.04,0.11,0.11,0.08,0">tectonic </tspan>
<tspan x="75.00" y="549.86" textLength="27.71" class="f1524 f810" dx="0,0.19,0.11,0.04,0.19,0.09">shifts</tspan>
<tspan x="103.09" y="549.86" textLength="197.34" dx="0,0.51,0.07,0.14,0.01,0.01,-0.04,0.2,-0.07,0,0,0.1,-0.06,0.01,-0.03,0.04,0.03,0,0,-0.07,0,0,-0.25,-0.11,0,0,-0.04,-0.06,-0.06,0.08,-0.01,-0.02,0.03,0,0,-0.09,0,0,0.04,-0.01,0">&#8212;critical changes to key features of our </tspan>
<tspan x="75.00" y="570.85" textLength="213.36" dx="0,-0.03,-0.02,0.07,0.04,-0.07,0,0,0.06,-0.18,0.02,-0.04,-0.03,0.06,0,0,0.06,-0.07,0,0,0.1,-0.06,-0.06,0,0,0.03,-0.09,-0.1,0,0,-0.06,0.45,-0.04,0.04,0.41,0,0,-0.01,-0.04,0,0,0.1,-0.01,0">global environment that will affect how the </tspan>
<tspan x="75.00" y="591.85" textLength="179.96" dx="0,-0.02,0.01,0.14,0.02,0,0,-0.37,-0.02,0.01,0.22,0.12,-0.36,0,0,0.33,0.09,0.04,0,0,0.18,0.01,0.02,-0.02,0,0,0.06,0,0,0.04,-0.04,0.04,0,0,0.18,0.2">world &#8220;works&#8221; (see table on page v).</tspan>
<tspan x="75.00" y="623.00" textLength="226.51" class="f1489 f786" font-size="10.00" dx="0,0.24,0.25,0.14,0.22,-0.07,0.05,-0.04,0.13,-0.01,0.13,-0.06,-0.02,0.15,0,0,-0.03,0,0,0.15,-0.02,0,0,-0.01,0.03,0.08,-0.01,0.14,0.06,0.05,-0.02,0.14,0,0,-0.14,-0.08,0.28,-0.03,0,0,0.21,-0.06,-0.02,-0.02,0,0,0.05,-0.03,0.27,-0.06,0">Extrapolations of the megatrends would alone point </tspan>
<tspan x="75.00" y="637.00" textLength="217.11" class="f1489 f786" font-size="10.00" dx="0,-0.04,0,0,0,0,0.01,0.14,0.21,-0.03,-0.06,0.03,0,0,-0.14,-0.03,0.02,-0.03,0,0,-0.06,0,0,0.08,-0.07,0.01,0.23,-0.08,-0.08,0,0,0,0.15,-0.02,0,0,-0.14,-0.03,0.02,-0.03,0,0,-0.11,-0.08,0.28,-0.03,0">to a changed world by 2030&#8212;but the world could </tspan>
<tspan x="75.00" y="651.00" textLength="201.77" class="f1489 f786" font-size="10.00" dx="0,0.09,0,0,0.14,0.22,0.21,0.15,0,-0.09,-0.03,0.29,-0.01,0.03,0,0,0.27,0,0,0.22,0.04,0.18,-0.03,0.06,0.21,0.28,0.06,0,0,0.18,0.32,0.27,-0.09,0.08,0.06,0.05,-0.06,0,0,0.04,0.01,0.07,-0.08,0,0,-0.61,0">be transformed in radically different ways. We </tspan>
<tspan x="75.00" y="665.00" textLength="85.45" class="f1489 f786" font-size="10.00" dx="0,0.09,-0.04,0.26,-0.03,0.07,-0.09,0,0,0.15,0.14,-0.01,0,0,0.03,0.32,0,0,-0.18,0.1,0">believe that six key </tspan>
<tspan x="160.46" y="665.00" textLength="72.63" class="f1496 f789" font-size="10.00" dx="0,-0.2,0.04,0.1,0.03,0.24,-0.11,-0.17,0.04,-0.01,-0.17,0.1,-0.06">game-changers</tspan>
<tspan x="233.14" y="665.00" textLength="53.77" class="f1489 f786" font-size="10.00" dx="0,0.08,0,0.04,0.08,0.05,0.13,-0.06,-0.02,0.15,0">&#8212;questions </tspan>
<tspan x="75.00" y="679.00" textLength="226.3" class="f1489 f786" font-size="10.00" dx="0,0.06,0.03,0.08,0.2,0.05,0.18,0.27,-0.03,0,0,0.15,-0.02,0,0,0.25,-0.06,-0.01,0.06,0.21,0,0,0.01,-0.11,-0.02,-0.05,-0.02,-0.01,-0.75,0,0,-0.09,-0.11,-0.09,0.08,0.29,0.14,0.21,-0.05,-0.08,-0.07,0,0,-0.11,-0.02,0.34,0.28,-0.03,0.13,0,0">regarding the global economy, governance, con&#59905;ict, </tspan>
<tspan x="75.00" y="693.00" textLength="219.61" class="f1489 f786" font-size="10.00" dx="0,0.06,0.03,0.23,-0.06,-0.02,0.14,0.21,0,0,0.27,0.15,0.05,0.18,0.04,-0.03,0.28,0.26,-0.07,0.34,-0.75,0,0,0.01,0.01,0.01,0.28,-0.05,-0.04,-0.06,0.02,0.36,-0.75,0,0,0.21,-0.02,0,0,0.15,-0.02,0,0,0.06,-0.04,-0.03,0,0,-0.03,0,0,0.15,-0.02,0">regional instability, technology, and the role of the </tspan>
<tspan x="75.00" y="707.00" textLength="220.62" class="f1489 f786" font-size="10.00" dx="0,-0.12,0.27,-0.07,0.01,0.03,0,0,0.01,0.18,-0.01,0.01,0.08,0,-0.38,0.16,0.28,0.28,0,0,0.13,0.2,0.16,-0.06,-0.04,0.06,0,0,0.03,0.02,0.01,0.08,0.29,0.28,0.27,-0.02,0,0,0.02,0.14,-0.01,0,0,0.31,0.27,-0.02,0,0,-0.03,0">United States&#8212;will largely determine what kind of </tspan>
<tspan x="75.00" y="721.00" textLength="221.52" class="f1489 f786" font-size="10.00" dx="0,0.14,0.22,0.21,0.15,0,-0.09,-0.03,0.29,-0.01,0.03,0,0,-0.14,-0.03,0.02,-0.03,0,0,-0.14,0,0,0.16,0.28,0.28,0,0,0.27,0.28,0.14,0.04,-0.03,-0.07,0,0,0.27,0,0,0.08,-0.07,0.01,-0.16,0,0,0.12,0.07,-0.09,0.08,0.22,0.21,0">transformed world we will inhabit in 2030. Several </tspan></text><text class="f1489 f786" font-size="10.00" style="fill:#231f20"><tspan x="340.50" y="91.00" textLength="41.06" dx="0,0.05,-0.03,0.01,0.05,-0.06,0.13,0.13,0.21,0">potential </tspan>
<tspan x="381.56" y="91.00" textLength="59.82" class="f1496 f789" dx="0,0.17,0.17,0.08,-0.06,0,0,-0.01,-0.23,0.04,0.06">Black Swans</tspan>
<tspan x="441.43" y="91.00" textLength="113.9" dx="0,0.08,0.18,0.14,0.09,0.07,0.06,0.03,0.01,0,0,0.07,-0.09,0.05,-0.06,0.15,0,-0.38,-0.14,-0.08,0.28,-0.03,0">&#8212;discrete events&#8212;would </tspan>
<tspan x="340.50" y="105.00" textLength="232.86" dx="0,0.06,-0.09,0.15,0.09,0,0,0.13,0.2,0.16,-0.06,0.21,0.24,0.09,0.06,0.21,-0.03,0,0,0.18,0.14,0,0.35,-0.05,-0.05,0.13,-0.06,-0.02,0,0,-0.15,0.09,0.03,0,0,0.03,0.12,-0.06,0,0,0.28,0.01,0.13,0,0,0.38,0.28,0,0,-0.08,0,0,0,0.31,-0.14,0">cause large-scale disruption (see page xi). All but two </tspan>
<tspan x="340.50" y="119.00" textLength="223.78" dx="0,-0.03,0,0,0.15,-0.02,0.08,0.09,-0.08,-0.1,0.15,-0.02,0,0,0.05,0.05,0.11,0.03,0.03,-0.03,0.28,0.26,-0.07,0.34,0,0,-0.03,0,0,0,0,0.03,0.05,-0.04,0.07,0.07,0.22,-0.01,0.13,-0.03,0,0,0.06,0.27,0.27,0.14,0,0,-0.03,0,0,0">of these&#8212;the possibility of a democratic China or a </tspan>
<tspan x="340.50" y="133.00" textLength="222.38" dx="0,0.06,-0.01,-0.09,-0.03,0.29,-0.01,0.03,0,0,0.21,0.22,0.21,-0.12,-0.38,-0.14,-0.08,0.28,-0.03,0,0,0.14,-0.02,-0.09,0,0,-0.02,0.03,0.08,-0.01,0.13,0.04,-0.09,0,0,0.06,0.04,0.07,0.07,0.03,0.12,0.15,0.11,0.03,-0.06,-0.02,0.15,-0.08">reformed Iran&#8212;would have negative repercussions.</tspan>
<tspan x="340.50" y="161.00" textLength="233.74" dx="0,0.15,0.18,0.09,0.03,0,0,-0.05,0.05,-0.02,0,0,0.02,0.14,-0.01,0,0,-0.14,0,0,0.33,-0.05,-0.11,0,0,0.04,0.09,-0.08,0,0,0,0.15,-0.02,0,0,-0.01,0.03,0.08,-0.01,0.14,0.06,0.05,-0.02,0.14,0,0,0.21,-0.02,0">Based upon what we know about the megatrends and </tspan>
<tspan x="340.50" y="175.00" textLength="235.69" dx="0,0.15,-0.02,0,0,0.05,0.05,0.11,0.03,0.03,-0.04,-0.03,0,0,0.27,-0.06,0.01,0.08,0.22,0.03,0.13,0.13,-0.06,-0.02,0.15,0,0,0.09,0.03,0.31,-0.14,0.03,0.05,0,0,0.15,-0.02,0,0,-0.01,0.03,0.08,-0.01,0.14,0.06,0.05,-0.02,0.14,0,0,0.21,-0.02,0">the possible interactions between the megatrends and </tspan>
<tspan x="340.50" y="189.00" textLength="240.47" dx="0,0.15,-0.02,0,0,0.08,0.21,-0.01,0.21,0.35,0.01,0.14,0.21,-0.03,-0.06,0.08,0.18,-0.04,0,0,-0.14,0,0,0.14,-0.02,-0.09,0,0,0.03,-0.04,0.26,0.27,-0.02,0.11,-0.01,0.01,0.03,0,0,-0.09,-0.08,0.26,0,0,0.2,0.03,0.01,-0.02,0.03,0.34,0.2,0.03,0.21,0">the game-changers, we have delineated four archetypal </tspan>
<tspan x="340.50" y="203.00" textLength="233.71" dx="0,0.34,0,0.2,0.26,0.06,0.08,0,0,0.15,0.14,-0.01,0,0,0.06,0.04,-0.06,0.06,0.08,0.09,0.05,-0.06,0,0,0.18,0.14,0.05,0.13,0.27,-0.05,0.13,0,0,0.03,-0.01,0.15,-0.07,0.04,0.01,0.07,0,0,-0.09,-0.03,0,0,0.15,-0.02,0,0,-0.14,-0.03,0.02,-0.03,0">futures that represent distinct pathways for the world </tspan>
<tspan x="340.50" y="217.00" textLength="116.79" dx="0,-0.08,0,0,0,-0.04,0,0,0.08,-0.07,0.01,-0.16,0,0,-0.06,-0.02,-0.02,0,0,-0.03,0,0,0.15,-0.02,0.08,0.09,0">out to 2030. None of these </tspan>
<tspan x="457.31" y="217.00" textLength="88.6" class="f1496 f789" dx="0,0.03,0.18,-0.05,0.1,0.28,0.07,0.1,0.02,0,-0.12,0,0,-0.14,0.04,0.04,0.17,0.08">alternative worlds</tspan>
<tspan x="545.92" y="217.00" textLength="12.01" dx="0,0,0.14,0"> is </tspan>
<tspan x="340.49" y="231.00" textLength="240.2" dx="0,0.27,-0.02,0.07,0.21,-0.07,0.18,0.04,-0.04,-0.03,-0.11,0,0,0.22,0,0,0.06,0.11,0.21,0.26,-0.07,0.34,-0.75,0,0,0.15,-0.02,0,0,0.34,0,0.2,0.26,0.06,0,0,-0.06,0.06,-0.01,0.06,0.04,-0.04,0.06,0,0,0.16,0.28,0.28,0,0,-0.11,-0.02,0.15,0.03,0.14,0.05,0,0,-0.03,0">inevitable. In reality, the future probably will consist of </tspan>
<tspan x="340.49" y="245.00" textLength="136.62" dx="0,-0.04,-0.03,0.05,-0.01,0.05,-0.06,0.15,0,0,0.21,0.06,-0.02,0,0,0.21,0.28,0,0,0.15,-0.02,0,0,0.09,-0.08,0.05,0.14,0.2,0.31,-0.06,0.05,-0.08">elements from all the scenarios.</tspan></text><text class="f5782 f5765" font-size="11.00" style="fill:#007eb2"><tspan x="340.50" y="278.00" textLength="160.94" dx="0,0,0,0,-1.01,0,0,0,0,0,0,0,0,0,0,0,0,0,0,-1.01,0,0,0">MEGATRENDS AND RELATED </tspan>
<tspan x="340.50" y="292.00" textLength="96.33">TECTONIC SHIFTS</tspan></text><text class="f1489 f786" font-size="10.00" style="fill:#231f20"><tspan x="340.50" y="319.00" textLength="201.82" class="f5782 f5765" font-size="9.00" dx="0,0,0,0,-0.83,0,0,0,0,0,0,0,0,0,0,0,0,0,0,0,0,0,0,0,0,0,0,0,0,0,0,0,0,0,0">MEGATREND 1: INDIVIDUAL EMPOWERMENT</tspan>
<tspan x="340.50" y="343.00" textLength="233.32" dx="0,0.22,-0.02,0.18,0.04,0.21,-0.03,-0.03,0.18,0.22,0,0,0.05,-0.08,0.05,-0.11,-0.14,0.08,0.29,-0.01,0.05,-0.06,0,0,0.16,0.28,0.28,0,0,0.03,-0.09,-0.08,-0.04,-0.03,0.08,0.22,-0.01,0.01,0,0,0.06,0.02,0.05,0.05,0.18,0.21,-0.06,0.13,0.13,0.21,0.28,0.06,0">Individual empowerment will accelerate substantially </tspan>
<tspan x="340.50" y="357.00" textLength="241.1" dx="0,-0.03,0.26,0.31,0.27,-0.03,0,-0.05,0.15,-0.02,0,-0.05,-0.02,-0.01,0.25,0,-0.05,-0.85,0.37,-0.26,0.08,0,-0.05,-0.12,0.11,0.2,0.18,0,-0.05,-0.11,0.16,0.27,-0.03,0,-0.05,-0.04,0,-0.05,0.05,-0.11,-0.09,0.08,0.36,0.34,0,-0.05,0.06,0.03,-0.03,0.01,0.13,0.13,-0.06,-0.02,0">during the next 15-20 years owing to poverty reduction </tspan>
<tspan x="340.50" y="371.00" textLength="231.02" dx="0,0.21,-0.02,0,0,0,0,-0.12,0.03,-0.06,0,0,0.23,0.06,-0.11,0.36,0.15,0,0,-0.03,0,0,0.15,-0.02,0,0,0.25,-0.06,-0.01,0.06,0.21,0,0,0.28,-0.03,0.03,0.2,-0.03,0,0,0.01,0.13,0.18,0.11,-0.04,0,0,0.23,0.06,0.11,-0.01,0.01,0.08,0">and a huge growth of the global middle class, greater </tspan>
<tspan x="340.50" y="385.00" textLength="223.59" dx="0,0.03,-0.03,0.01,0.06,-0.01,0.13,-0.06,-0.02,0.14,0.22,0,0,-0.01,0.19,0.18,0.2,0.27,0.28,-0.01,0.05,-0.06,0,0,0,0.21,-0.02,0,0,0.09,0.03,0.19,0.01,0.07,0,0,-0.02,0.11,0.21,-0.07,0.15,0,0,0.06,0.2,0.06,-0.11,0,0,0.24,-0.02,0">educational attainment, and better health care. The </tspan>
<tspan x="340.50" y="399.00" textLength="240.87" dx="0,0.23,0.06,-0.11,0.36,0.15,0,0,-0.03,0,0,0.15,-0.02,0,0,0.25,-0.06,-0.01,0.06,0.21,0,0,0.28,-0.03,0.03,0.2,-0.03,0,0,0.01,0.13,0.18,0.11,0,0,-0.11,-0.02,0.15,0.05,0.13,-0.07,0.2,0,0.01,0.08,0,0,0,0,0.01,0.01,0.13,-0.04,-0.02,0.27,-0.03,0">growth of the global middle class constitutes a tectonic </tspan>
<tspan x="340.50" y="413.00" textLength="206.89" dx="0,-0.01,0.27,0.32,0.33,0.04,0,0,-0.09,-0.03,0,0,0.15,-0.02,0,0,0.28,0.18,0.05,0,0,0.13,0.27,-0.01,-0.07,0,0,0,0,0.15,-0.06,-0.01,-0.03,0.31,-0.07,0.34,0,0,-0.03,0,0,0.15,-0.02,0,0,-0.14,-0.03,0.02,-0.03,-0.15,-0.51,0">shift: for the &#59904;rst time, a majority of the world&#8217;s </tspan>
<tspan x="340.50" y="427.00" textLength="230.3" dx="0,0.05,-0.07,-0.1,0.28,0.13,-0.01,0.13,-0.06,-0.02,0,0,0.16,0.28,0.28,0,0,-0.05,-0.03,0,0,0.09,0,0,0.27,-0.08,0.05,-0.11,-0.09,0.08,0.31,0.14,-0.01,-0.02,0.03,0.07,0,0,0.21,-0.02,0,0,0.15,-0.02,0,0,0.28,-0.03,0.03,0.2,-0.03,0">population will not be impoverished, and the middle </tspan>
<tspan x="340.50" y="441.00" textLength="240.88" dx="0,0.01,0.13,0.18,0.11,0.09,0.08,0,0,0.16,0.28,0.28,0,0,0.09,0,0,0.15,-0.02,0,0,-0.04,0.05,0.05,0,0,0.27,-0.08,0.05,-0.03,0.36,0.18,0.21,-0.06,0,0,0.08,0.07,0.07,0.13,0.21,0,0,0.21,-0.02,0,0,0.01,-0.11,-0.02,-0.05,-0.02,0.28,-0.03,0">classes will be the most important social and economic </tspan>
<tspan x="340.50" y="455.00" textLength="218.38" dx="0,0.09,0.01,0.13,-0.04,-0.03,0,0,0.27,0,0,0.15,-0.02,0,0,0.08,0.18,0.05,0,0,0.15,-0.06,-0.01,-0.03,0.31,-0.07,0.34,0,0,-0.03,0,0,-0.11,-0.08,0.28,-0.06,0.14,0.31,-0.03,0.08,0,0,0.2,0.06,-0.08,0.28,-0.02,0,0,0.15,-0.02,0">sector in the vast majority of countries around the </tspan>
<tspan x="340.50" y="469.00" textLength="237.48" dx="0,-0.14,-0.03,0.02,-0.03,0.03,0,0,0.22,-0.02,0.18,0.04,0.21,-0.03,-0.03,0.18,0.21,0,0,0.05,-0.08,0.05,-0.11,-0.14,0.08,0.29,-0.01,0.05,-0.06,0,0,0.14,0,0,0.15,-0.02,0,0,-0.04,0.05,0.05,0,0,0.27,-0.08,0.05,-0.03,0.36,0.18,0.21,-0.06,0">world. Individual empowerment is the most important </tspan>
<tspan x="340.50" y="483.00" textLength="216.49" dx="0,-0.01,0.03,0.08,-0.01,0.14,0.06,0.05,-0.02,0,0,0.09,0.01,0.06,-0.09,0.15,0.09,0,0,-0.07,0,0,0.14,0,0,0.09,-0.03,0.15,0,0,0,0,0.06,-0.09,0.15,0.09,0,0,0.21,-0.02,0,0,-0.01,0.27,-0.09,0.01,0.13,0,0,-0.03,0">megatrend because it is both a cause and effect of </tspan>
<tspan x="340.50" y="497.00" textLength="223.32" dx="0,-0.04,0.05,0.05,0,0,-0.03,0.15,-0.02,0.08,0,0,0.14,0.06,0.05,-0.02,0.14,0,-0.16,0.27,-0.05,0.01,-0.08,0.04,0.18,0.27,-0.03,0,0,0.15,-0.02,0,0,-0.01,0.07,0.03,0.21,-0.02,0.18,0.27,-0.03,0,0,0.25,-0.06,-0.01,0.06,0.21,0">most other trends&#8212;including the expanding global </tspan>
<tspan x="340.50" y="511.00" textLength="226.26" dx="0,0.01,-0.11,-0.02,-0.05,-0.02,-0.01,-0.75,0,0,0.22,-0.07,-0.05,-0.03,0,0,0.23,0.06,-0.11,0.36,0.15,0,0,-0.03,0,0,0.15,-0.02,0,0,0.03,0.07,-0.09,-0.04,-0.06,-0.07,-0.05,0.27,-0.03,0,0,-0.11,-0.08,0.28,-0.06,0.14,0.31,-0.03,0.08,-0.04,0">economy, rapid growth of the developing countries, </tspan>
<tspan x="340.50" y="525.00" textLength="231.63" dx="0,0.21,-0.02,0,0,0.16,-0.03,0.03,0.08,-0.03,-0.06,0.06,0.11,0.04,0,0,-0.01,0.07,-0.07,-0.06,-0.03,-0.07,0.18,-0.01,0.13,-0.06,-0.02,0,0,-0.03,0,0,-0.02,0.06,0,0,-0.11,-0.02,0.29,-0.11,0.28,0.27,-0.03,0.07,-0.01,0.13,-0.06,-0.02,0.15,0">and widespread exploitation of new communications </tspan>
<tspan x="340.50" y="539.00" textLength="222.6" dx="0,0.21,-0.02,0,0,0.15,0.21,-0.12,0.33,0.08,0.03,0.13,0.2,0.26,0.31,0.27,-0.03,0,0,0.01,0.01,0.01,0.28,-0.05,-0.04,-0.06,0.02,0.23,-0.03,0.08,-0.08,0,0,0.07,0,0,0.15,-0.02,0,0,-0.02,-0.02,0,0,0.14,0.21,-0.02,0.07,0">and manufacturing technologies. On the one hand, </tspan>
<tspan x="340.50" y="553.00" textLength="234.48" dx="0,-0.14,0,0,0.09,0.03,0,0,0.15,-0.02,0,0,0.05,-0.03,0.01,0.05,-0.06,0.13,0.13,0.21,0,0,-0.09,-0.03,0,0,0.23,0.06,0.11,-0.01,0.01,0.08,0,0,0.27,-0.02,0.18,0.04,0.21,-0.03,-0.03,0.18,0.21,0,0,0.27,0.27,-0.07,0.13,0.13,-0.01,0.13,0.04,-0.09,0,0,0.18,0">we see the potential for greater individual initiative as </tspan>
<tspan x="340.50" y="567.00" textLength="237.87" dx="0,-0.18,0.1,0,0,-0.04,0,0,0.08,-0.04,0.04,0.21,0.27,-0.03,0,0,0.15,-0.02,0,0,-0.04,-0.08,0.28,-0.06,0.13,0.27,-0.03,0,0,0.25,-0.06,-0.01,0.06,0.21,0,0,0.01,0.14,0.21,0.28,-0.03,0.05,-0.03,-0.06,0.08,0,0,-0.11,-0.09,0.08,0,0,0.15,-0.02,0">key to solving the mounting global challenges over the </tspan>
<tspan x="340.50" y="581.00" textLength="240.75" dx="0,-0.02,-0.01,0.25,0,0,-0.85,0.37,-0.26,0.08,0,0,-0.12,0.11,0.2,0.18,-0.08,0,0,0.07,0,0,0.15,-0.02,0,0,-0.03,0.15,-0.02,0.08,0,0,0.14,0.21,-0.02,0.07,0,0,0.27,0,0,0,0,0.01,0.01,0.13,-0.04,-0.02,0.27,-0.03,0,0,-0.01,0.27,0.32,0.33,0,0">next 15-20 years. On the other hand, in a tectonic shift, </tspan>
<tspan x="340.50" y="595.00" textLength="230.09" dx="0,0.27,-0.02,0.18,0.04,0.21,-0.03,-0.03,0.18,0.21,0.14,0,0,0.21,-0.02,0,0,0.02,0.15,0.21,0.28,0,0,0.23,0.06,-0.08,-0.05,0.03,0,0,0.16,0.28,0.28,0,0,0.14,-0.02,-0.09,0,0,0.23,0.06,0.11,-0.01,0.01,0.07,0,0,0.03,-0.09,-0.08,0.08,0.11,0">individuals and small groups will have greater access </tspan>
<tspan x="340.50" y="609.00" textLength="215.77" dx="0,-0.04,0,0,-0.03,0.03,0.15,0.14,0.21,0,0,0.21,-0.02,0,0,0.18,0.14,0,0.35,-0.05,-0.05,0.13,0.04,-0.09,0,0,0.01,0.01,0.01,0.28,-0.05,-0.04,-0.06,0.02,0.23,-0.03,0.08,0,0,0,0.03,0.2,0.35,0.13,-0.03,0.12,0.28,0.13,0.2,0.02,0.06,0">to lethal and disruptive technologies (particularly </tspan>
<tspan x="340.50" y="623.00" textLength="225.39" dx="0,-0.06,0.06,0.01,0.07,0.14,0.03,-0.06,-0.02,0.17,0.24,0.05,0.14,0.31,0.28,-0.18,0,0,0.06,-0.07,0.03,0.04,-0.03,0.28,0.26,-0.07,0.13,-0.03,0.08,-0.04,0,0,0.26,0.1,0.09,0.08,0,0,0.27,0.15,0.05,0.14,0.35,0.28,-0.01,0.05,-0.06,0.15,-0.04,0,0,0.21,-0.02,0">precision-strike capabilities, cyber instruments, and </tspan>
<tspan x="340.50" y="637.00" textLength="217.12" dx="0,-0.03,-0.06,-0.03,0.01,0.08,0.3,0.06,-0.03,0,0,-0.14,0.11,-0.07,0.05,-0.02,0.27,0.5,-0.43,-0.03,0,0,0.05,0.14,0.04,-0.04,0.26,0.27,-0.03,0,0,0.15,-0.02,0.05,0,0,-0.04,0,0,0.07,0.08,0.28,0.07,0.03,0.14,0.22,-0.01,0.01,0">bioterror weaponry), enabling them to perpetrate </tspan>
<tspan x="340.50" y="651.00" textLength="201.18" dx="0,0.13,0.2,0.16,-0.06,0.21,0.24,0.09,0.06,0.21,-0.03,0,0,0.21,-0.06,-0.04,-0.03,0.05,-0.05,-0.08,-0.08,-0.02,0,0,0.06,-0.07,0.03,0.04,-0.03,0.28,0.26,-0.07,0.34,0,0,-0.09,-0.03,0.29,-0.01,0.08,0.02,0.06,0,0,0.15,-0.02,0">large-scale violence&#8212;a capability formerly the </tspan>
<tspan x="340.50" y="665.00" textLength="83.65" dx="0,-0.04,-0.02,-0.05,-0.07,0.04,-0.04,0.06,0,0,-0.03,0,0,0.05,0.18,-0.01,0.01,0.08,-0.08">monopoly of states.</tspan></text><path d="M15 21 l-15 0 M639 21 l15 0 M15 813 l-15 0 M639 813 l15 0 M21 15 l0 -15 M21 819 l0 15 M633 15 l0 -15 M633 819 l0 15 " style="stroke:#ffffff;stroke-width:1.25;"/><path d="M15 21 l-15 0 M639 21 l15 0 M15 813 l-15 0 M639 813 l15 0 M21 15 l0 -15 M21 819 l0 15 M633 15 l0 -15 M633 819 l0 15 " style="stroke:#000000;stroke-width:0.25;"/>
</svg>
