<svg class="crocodoc-2jt6Qd crocodoc-page-svg" version="1.1"
    xmlns="http://www.w3.org/2000/svg"
    xmlns:xlink="http://www.w3.org/1999/xlink"
    xmlns:xhtml="http://www.w3.org/1999/xhtml"
    xml:space="preserve" width="654.0pt" height="834.0pt" viewBox="0 0 654.0 834.0">
<xhtml:link href="stylesheet.css" type="text/css" rel="stylesheet" />
<style>
.crocodoc-2jt6Qd tspan { white-space:pre; }
.crocodoc-2jt6Qd path { fill:transparent; }

</style>
<defs>
<mask id="Mask_15_24_2jt6Qd">
<g ><path d="M3 831 l648 0 l0 -828 l-648 0 l0 828 " style="fill:url(#Grad_16_24_2jt6Qd);"/></g></mask>
<linearGradient id="Grad_16_24_2jt6Qd" x1="44.82%" y1="92.27%" x2="90.53%" y2="92.27%"><stop offset="0.00" style="stop-color:#ffffff" /><stop offset="0.25" style="stop-color:#eeeeee" /><stop offset="0.50" style="stop-color:#bdbdbd" /><stop offset="0.75" style="stop-color:#6d6d6d" /><stop offset="1.00" style="stop-color:#000000" /></linearGradient>
</defs>

<g style="opacity:0.40;" ><path d="M71.97 751.59 c0.77 -0.59 1.54 -1 2.32 -1.22 c0.78 0.14 1.43 0.38 1.9 0.71 c-0.44 0 -0.88 0.01 -1.32 0.05 c-0.96 0.07 -1.93 0.23 -2.9 0.46 M70.58 751.73 c-0.17 -0.35 -0.34 -0.64 -0.48 -0.88 c-0.05 -0.08 -0.1 -0.16 -0.15 -0.23 c0.57 -0.14 1.16 -0.25 1.75 -0.32 c0.08 -0.01 0.17 -0.02 0.26 -0.02 c0.12 -0.01 0.24 -0.02 0.35 -0.02 c-0.59 0.38 -1.17 0.87 -1.73 1.48 M71.79 756.57 c-0.73 0.19 -1.47 0.32 -2.2 0.38 c-0.46 0.03 -0.92 0.04 -1.37 0.01 c0.64 -1.48 1.37 -2.76 2.18 -3.83 c0.42 0.94 0.89 2.1 1.39 3.44 M72.35 752.35 c0.71 -0.14 1.42 -0.24 2.12 -0.29 c0.83 -0.06 1.66 -0.06 2.48 -0.01 c0.16 0.53 0.01 1.14 -0.44 1.76 c-1.37 -0.66 -2.77 -1.15 -4.16 -1.47 M77.8 754.49 c0.53 -0.76 0.75 -1.53 0.63 -2.26 c2.4 0.39 4.61 1.32 6.39 2.7 c0.59 1.34 0.26 2.92 -0.93 4.48 c-1.73 -1.95 -3.83 -3.65 -6.09 -4.92 M77.37 750.55 c1.2 0.27 2.36 0.68 3.46 1.22 c-0.91 -0.28 -1.86 -0.48 -2.85 -0.59 c-0.17 -0.23 -0.37 -0.44 -0.61 -0.63 M82.93 760.48 c-1.62 1.59 -4.03 2.99 -6.82 3.97 c-0.85 -2.48 -1.77 -4.88 -2.67 -6.97 c1.44 -0.53 2.71 -1.27 3.59 -2.11 c2.19 1.34 4.22 3.11 5.9 5.12 M67.37 751.87 c-0.23 0.02 -0.46 0.04 -0.69 0.07 c0.52 -0.33 1.13 -0.63 1.77 -0.88 c0.13 -0.05 0.25 -0.09 0.39 -0.13 c0.23 0.16 0.54 0.51 0.87 0.98 c-0.8 -0.09 -1.59 -0.1 -2.33 -0.05 M71.19 776.65 c2.06 -0.15 4.16 -0.53 6.23 -1.12 c0.37 1.66 0.63 3.04 0.77 4.12 l0.03 0.2 c0.03 0.28 0.06 0.5 0.07 0.71 c-1.08 0.5 -2.22 0.71 -3.36 0.79 c-1.93 0.14 -3.84 -0.05 -5.68 -0.59 c-0.12 -0.13 -0.17 -0.18 -0.22 -0.24 c-0.88 -1.02 -1.56 -2.31 -2.08 -3.9 c1.36 0.12 2.79 0.13 4.25 0.02 M76.89 773.26 c-2.03 0.58 -4.09 0.95 -6.12 1.11 c-1.53 0.12 -3.02 0.1 -4.42 -0.05 c-0.2 -0.98 -0.33 -2.01 -0.41 -3.07 c-0.09 -1.18 -0.1 -2.4 -0.05 -3.65 c1.22 0.12 2.5 0.13 3.81 0.03 c1.79 -0.13 3.61 -0.46 5.41 -0.97 c0.68 2.32 1.28 4.54 1.78 6.61 M69.56 765.83 c-1.22 0.09 -2.41 0.08 -3.54 -0.03 c0.26 -2.62 0.84 -5.21 1.67 -7.5 c0.61 0.05 1.25 0.06 1.91 0.01 c0.88 -0.07 1.78 -0.22 2.67 -0.46 c0.76 2.13 1.57 4.57 2.33 7.08 c-1.67 0.47 -3.36 0.77 -5.03 0.9 M72.89 756.23 c-0.58 -1.27 -1.13 -2.37 -1.64 -3.28 c1.49 0.33 3 0.89 4.5 1.67 c-0.73 0.64 -1.71 1.19 -2.85 1.6 M87.47 770.66 c0.09 1.23 -0.01 2.39 -0.3 3.44 c-0.29 0.45 -0.61 0.89 -0.94 1.31 c-0.24 0.3 -0.5 0.6 -0.77 0.89 c-1.56 1.68 -3.5 3.02 -5.62 3.89 c0 -0.22 -0.01 -0.45 -0.02 -0.7 l-0.02 -0.29 c-0.09 -1.13 -0.32 -2.54 -0.68 -4.22 c3.34 -1.16 6.28 -2.83 8.32 -4.73 c0.01 0.13 0.03 0.26 0.04 0.39 M84.03 761.9 c1.36 1.91 2.34 3.9 2.91 5.92 c-1.96 1.97 -4.92 3.71 -8.36 4.91 c-0.52 -2.08 -1.16 -4.28 -1.9 -6.57 c2.98 -1.04 5.58 -2.55 7.35 -4.26 M88.79 770.78 c0 -0.28 -0.01 -0.57 -0.03 -0.85 c-0.02 -0.31 -0.06 -0.63 -0.11 -0.96 c0.33 -0.4 0.61 -0.8 0.85 -1.2 c-0.13 1.02 -0.37 2.03 -0.71 3.01 M86.57 756.56 c0.09 0.1 0.17 0.2 0.26 0.3 c1.34 1.9 2.22 4.03 2.6 6.32 c-0.07 1.08 -0.52 2.19 -1.36 3.32 c-0.63 -1.97 -1.65 -3.89 -3.03 -5.71 c1.13 -1.42 1.65 -2.87 1.53 -4.24 M66.77 779.83 c-2.34 -1.12 -4.34 -2.78 -5.87 -4.85 c1.18 0.65 2.62 1.13 4.28 1.42 c0.41 1.32 0.95 2.47 1.59 3.43 M64.48 765.59 c-2.38 -0.45 -4.17 -1.41 -5.05 -2.69 c0.95 -2.27 2.48 -4.4 4.41 -6.15 c0.57 0.65 1.47 1.12 2.63 1.38 c-0.95 2.29 -1.63 4.86 -1.98 7.47 M63.32 755.85 c-1.89 1.6 -3.43 3.53 -4.47 5.63 c-0.05 -0.32 -0.06 -0.65 -0.02 -0.98 c0.86 -2.34 2.3 -4.47 4.16 -6.16 c0.13 -0.09 0.28 -0.18 0.42 -0.27 c-0.24 0.62 -0.27 1.22 -0.09 1.79 M68.53 752.69 c-1.42 0.58 -2.76 1.32 -4 2.21 c-0.05 -0.51 0.15 -1.07 0.61 -1.64 c0.83 -0.28 1.73 -0.46 2.67 -0.53 c0.23 -0.02 0.47 -0.03 0.72 -0.03 M64.96 755.8 c1.3 -1.01 2.73 -1.85 4.25 -2.49 c-0.79 1.01 -1.51 2.19 -2.15 3.51 c-0.93 -0.19 -1.67 -0.55 -2.09 -1.02 M58.8 764.68 c1.12 1.29 3.05 2.25 5.49 2.7 c-0.11 1.43 -0.11 2.84 -0.01 4.19 c0.06 0.85 0.17 1.69 0.32 2.49 c-2.65 -0.52 -4.64 -1.52 -5.78 -2.92 c-0.19 -0.51 -0.35 -1.05 -0.49 -1.59 c-0.01 -0.09 -0.02 -0.16 -0.02 -0.23 c-0.11 -1.53 0.05 -3.09 0.49 -4.65 " style="fill:#d3d2d2;"/></g><text class="f5782 f5765" font-size="8.00" style="fill:#231f20"><tspan x="68.21" y="769.34" textLength="12.1" dx="0,0.56,0.56">xvi</tspan></text><text class="f1536 f5766" font-size="8.00" style="fill:#656263"><tspan x="87.25" y="769.13" textLength="97.51" class="f1537 f781" dx="0,0.56,0.56,0.56,0.56,0.56,0.56,0.56,0.56,0.56,0.56,0.56,0.56,0.56,0.56,0.56,0.56,0.56,0.56">GLOBAL TRENDS 2030:</tspan>
<tspan x="185.32" y="769.13" textLength="97.73" dx="0,0.56,0.56,-0.18,0.56,0.56,0.56,0.56,0.02,0.56,0.56,0.56,0.56,0.56,0.56,0.56,0.56,0.56,0.56"> ALTERNATIVE WORLDS</tspan></text>
<g mask="url(#Mask_15_24_2jt6Qd)" ><path d="M295.95 766.5 l292.19 0 " style="stroke:#918f8f;stroke-width:1.00;stroke-dasharray:0.001,1.994;stroke-linecap:round;stroke-linejoin:round;"/><path d="M293.95 766.5 M589.14 766.5 " style="stroke:#918f8f;stroke-width:1.00;stroke-linecap:round;stroke-linejoin:round;"/></g><text class="f5785 f5766" font-size="8.50" style="fill:#444141"><tspan x="88.50" y="85.88" textLength="171.24" dx="0,0,-0.58,0,0,0,0,0,0,0,0,0,0,0,0,0,0,0,0,0,0,0,0,0,0,0,0,0,0,0,0,0,0,0,0,0">LATIN AMERICA: MORE PROSPEROUS BUT  </tspan>
<tspan x="88.50" y="96.88" textLength="87.88" dx="0,0,0,0,0,0,0,0,0,-0.94,0,0,0,0,0,0,0,0,0">INHERENTLY FRAGILE </tspan>
<tspan x="291.00" y="96.88" textLength="8.84">84</tspan></text><text class="f1485 f781" font-size="10.00" style="fill:#231f20"><tspan x="75.00" y="115.44" textLength="78.51" dx="0,0,0,0,0,0,0,-0.74,0,0,0,0,0,0">THE IMPACT OF </tspan>
<tspan x="75.00" y="126.44" textLength="107.57">NEW TECHNOLOGIES </tspan>
<tspan x="291.00" y="126.44" textLength="11.12">86</tspan></text><text class="f5785 f5766" font-size="8.50" style="fill:#444141"><tspan x="88.50" y="143.56" textLength="129.36" dx="0,0,0,0,0,0,0,-0.58,0,0,0,0,0,0,0,0,0,0,0,0,0,0,0,0,0">INFORMATION TECHNOLOGIES </tspan>
<tspan x="291.00" y="143.56" textLength="8.84">86</tspan>
<tspan x="88.50" y="160.68" textLength="155.6" dx="0,0,0,0,0,0,-0.58,0,0,0,0,0,0,0,0,0,0,0,0,0,-0.47,0,0,0,0,0,0,0,0">AUTOMATION AND MANUFACTURING </tspan>
<tspan x="88.50" y="171.68" textLength="67.88">TECHNOLOGIES </tspan>
<tspan x="291.00" y="171.68" textLength="8.84">90</tspan>
<tspan x="88.50" y="188.79" textLength="113.87">RESOURCE TECHNOLOGIES </tspan>
<tspan x="291.00" y="188.79" textLength="8.84">93</tspan>
<tspan x="88.50" y="205.91" textLength="101.58" dx="0,0,0,0,-0.78,0,0,0,0,0,0,0,0,0,0,0,0,0,0,0">HEALTH TECHNOLOGIES </tspan>
<tspan x="291.00" y="205.91" textLength="8.84">98</tspan></text><text class="f1485 f781" font-size="10.00" style="fill:#231f20"><tspan x="75.00" y="224.48" textLength="89.43">THE ROLE OF THE </tspan>
<tspan x="75.00" y="235.48" textLength="76.51" dx="0,0,0,0,0,0,0,0,0,-0.92,-0.92,0,0,0">UNITED STATES </tspan>
<tspan x="291.00" y="235.48" textLength="16.68">101</tspan></text><text class="f5785 f5766" font-size="8.50" style="fill:#444141"><tspan x="88.50" y="252.60" textLength="70.24">STEADY US ROLE </tspan>
<tspan x="291.00" y="252.60" textLength="13.26">101</tspan>
<tspan x="88.50" y="269.71" textLength="156.71" dx="0,0,0,-0.78,0,0,0,0,0,0,0,0,0,0,0,0,0,0,0,0,0,0,0,0,0,0,0,0,0,0,0,0,0">MULTIPLE POTENTIAL SCENARIOS FOR </tspan>
<tspan x="88.50" y="280.71" textLength="143.89" dx="0,0,0,0,0,0,0,0,0,0,0,0,0,-0.58,-0.58,0,0,0,0,0,0,0,0,0,0,0,0,0,0,0,0">THE UNITED STATES&#8217; GLOBAL ROLE </tspan>
<tspan x="291.00" y="280.71" textLength="13.26">104</tspan></text><text class="f5782 f5765" font-size="13.00" style="fill:#758b0d"><tspan x="75.00" y="353.72" textLength="151.42" dx="0,0,-1.2,0,0,0,0,-1.2,0,0,0,0,0,0,0,0,0,0,0">ALTERNATIVE WORLDS </tspan>
<tspan x="290.99" y="353.72" textLength="23.09">111</tspan></text><text class="f1485 f781" font-size="10.00" style="fill:#231f20"><tspan x="75.00" y="378.22" textLength="88.36" class="f1541 f825" dx="0,0,-0.92,0,0,0,0,0,0,0,0,0,0,0,0">STALLED ENGINES</tspan>
<tspan x="163.36" y="378.22" textLength="2.78"> </tspan>
<tspan x="291.00" y="378.22" textLength="16.68">114</tspan>
<tspan x="75.00" y="396.78" textLength="37.4" class="f1541 f825">FUSION</tspan>
<tspan x="112.40" y="396.78" textLength="2.78"> </tspan>
<tspan x="291.00" y="396.78" textLength="16.68">120</tspan>
<tspan x="75.00" y="415.33" textLength="124.47" class="f1541 f825" dx="0,0,0,0,0,0,0,0,-1.29,0,0,0,0,0,0,0,0,0,0,0,0,0">GINI-OUT-OF-THE-BOTTLE</tspan>
<tspan x="199.47" y="415.33" textLength="2.78"> </tspan>
<tspan x="291.00" y="415.33" textLength="16.68">126</tspan>
<tspan x="75.00" y="433.89" textLength="92.02" class="f1541 f825" dx="0,0,0,0,0,-0.92,-0.92,0,0,0,0,0,0,0">NONSTATE WORLD</tspan>
<tspan x="167.02" y="433.89" textLength="2.78"> </tspan>
<tspan x="291.00" y="433.89" textLength="16.68">132</tspan>
<tspan x="75.00" y="471.02" textLength="116.27">ACKNOWLEDGEMENTS </tspan>
<tspan x="291.00" y="471.02" textLength="16.68">138</tspan></text><path d="M91.88 304.18 c9.32 0 16.88 7.56 16.88 16.88 c0 8.91 -6.9 16.19 -15.64 16.83 l-18.12 0.05 l0 -18.12 c0.68 -8.74 7.97 -15.64 16.88 -15.64 " style="fill:#758b0d;"/><path d="M83.99 326.28 l1.82 -1.82 l1.82 1.82 l1.21 -1.21 l-1.82 -1.82 l1.82 -1.82 l-1.21 -1.21 l-1.82 1.82 l-1.82 -1.82 l-1.21 1.21 l1.82 1.82 l-1.82 1.82 l1.21 1.21 z M100.95 324.13 l-1.21 -1.21 l-1.81 1.82 l-1.82 -1.82 l-1.21 1.21 l1.81 1.82 l-1.81 1.82 l1.21 1.21 l1.82 -1.82 l1.81 1.82 l1.21 -1.21 l-1.82 -1.82 l1.82 -1.82 z M94.13 317.19 l-2.6 3.03 l1.98 0 c-0.35 5.25 -4.72 9.42 -10.06 9.42 l0 1.35 c6.08 0 11.05 -4.77 11.4 -10.76 l1.87 0 l-2.6 -3.03 z M88.16 319.55 c1.86 0 3.36 -1.51 3.36 -3.36 c0 -1.86 -1.51 -3.36 -3.36 -3.36 c-1.86 0 -3.36 1.5 -3.36 3.36 c0 1.86 1.51 3.36 3.36 3.36 M88.16 314.5 c0.93 0 1.68 0.75 1.68 1.68 c0 0.93 -0.75 1.68 -1.68 1.68 c-0.93 0 -1.68 -0.75 -1.68 -1.68 c0 -0.93 0.75 -1.68 1.68 -1.68 " style="fill:#ffffff;"/><path d="M15 21 l-15 0 M639 21 l15 0 M15 813 l-15 0 M639 813 l15 0 M21 15 l0 -15 M21 819 l0 15 M633 15 l0 -15 M633 819 l0 15 " style="stroke:#ffffff;stroke-width:1.25;"/><path d="M15 21 l-15 0 M639 21 l15 0 M15 813 l-15 0 M639 813 l15 0 M21 15 l0 -15 M21 819 l0 15 M633 15 l0 -15 M633 819 l0 15 " style="stroke:#000000;stroke-width:0.25;"/>
</svg>
