<svg class="crocodoc-2jt6Qd crocodoc-page-svg" version="1.1"
    xmlns="http://www.w3.org/2000/svg"
    xmlns:xlink="http://www.w3.org/1999/xlink"
    xmlns:xhtml="http://www.w3.org/1999/xhtml"
    xml:space="preserve" width="654.0pt" height="834.0pt" viewBox="0 0 654.0 834.0">
<xhtml:link href="stylesheet.css" type="text/css" rel="stylesheet" />
<style>
.crocodoc-2jt6Qd tspan { white-space:pre; }
.crocodoc-2jt6Qd path { fill:transparent; }

</style>
<defs>
<linearGradient id="Grad_16_58_2jt6Qd" x1="44.82%" y1="92.27%" x2="90.53%" y2="92.27%"><stop offset="0.00" style="stop-color:#ffffff" /><stop offset="0.25" style="stop-color:#eeeeee" /><stop offset="0.50" style="stop-color:#bdbdbd" /><stop offset="0.75" style="stop-color:#6d6d6d" /><stop offset="1.00" style="stop-color:#000000" /></linearGradient>
<mask id="Mask_15_58_2jt6Qd">
<g ><path d="M3 831 l648 0 l0 -828 l-648 0 l0 828 " style="fill:url(#Grad_16_58_2jt6Qd);"/></g></mask>
</defs>

<g style="opacity:0.40;" ><path d="M71.97 751.59 c0.77 -0.59 1.54 -1 2.32 -1.22 c0.78 0.14 1.43 0.38 1.9 0.71 c-0.44 0 -0.88 0.01 -1.32 0.05 c-0.96 0.07 -1.93 0.23 -2.9 0.46 M70.58 751.73 c-0.17 -0.35 -0.34 -0.64 -0.48 -0.88 c-0.05 -0.08 -0.1 -0.16 -0.15 -0.23 c0.57 -0.14 1.16 -0.25 1.75 -0.32 c0.08 -0.01 0.17 -0.02 0.26 -0.02 c0.12 -0.01 0.24 -0.02 0.35 -0.02 c-0.59 0.38 -1.17 0.87 -1.73 1.48 M71.79 756.57 c-0.73 0.19 -1.47 0.32 -2.2 0.38 c-0.46 0.03 -0.92 0.04 -1.37 0.01 c0.64 -1.48 1.37 -2.76 2.18 -3.83 c0.42 0.94 0.89 2.1 1.39 3.44 M72.35 752.35 c0.71 -0.14 1.42 -0.24 2.12 -0.29 c0.83 -0.06 1.66 -0.06 2.48 -0.01 c0.16 0.53 0.01 1.14 -0.44 1.76 c-1.37 -0.66 -2.77 -1.15 -4.16 -1.47 M77.8 754.49 c0.53 -0.76 0.75 -1.53 0.63 -2.26 c2.4 0.39 4.61 1.32 6.39 2.7 c0.59 1.34 0.26 2.92 -0.93 4.48 c-1.73 -1.95 -3.83 -3.65 -6.09 -4.92 M77.37 750.55 c1.2 0.27 2.36 0.68 3.46 1.22 c-0.91 -0.28 -1.86 -0.48 -2.85 -0.59 c-0.17 -0.23 -0.37 -0.44 -0.61 -0.63 M82.93 760.48 c-1.62 1.59 -4.03 2.99 -6.82 3.97 c-0.85 -2.48 -1.77 -4.88 -2.67 -6.97 c1.44 -0.53 2.71 -1.27 3.59 -2.11 c2.19 1.34 4.22 3.11 5.9 5.12 M67.37 751.87 c-0.23 0.02 -0.46 0.04 -0.69 0.07 c0.52 -0.33 1.13 -0.63 1.77 -0.88 c0.13 -0.05 0.25 -0.09 0.39 -0.13 c0.23 0.16 0.54 0.51 0.87 0.98 c-0.8 -0.09 -1.59 -0.1 -2.33 -0.05 M71.19 776.65 c2.06 -0.15 4.16 -0.53 6.23 -1.12 c0.37 1.66 0.63 3.04 0.77 4.12 l0.03 0.2 c0.03 0.28 0.06 0.5 0.07 0.71 c-1.08 0.5 -2.22 0.71 -3.36 0.79 c-1.93 0.14 -3.84 -0.05 -5.68 -0.59 c-0.12 -0.13 -0.17 -0.18 -0.22 -0.24 c-0.88 -1.02 -1.56 -2.31 -2.08 -3.9 c1.36 0.12 2.79 0.13 4.25 0.02 M76.89 773.26 c-2.03 0.58 -4.09 0.95 -6.12 1.11 c-1.53 0.12 -3.02 0.1 -4.42 -0.05 c-0.2 -0.98 -0.33 -2.01 -0.41 -3.07 c-0.09 -1.18 -0.1 -2.4 -0.05 -3.65 c1.22 0.12 2.5 0.13 3.81 0.03 c1.79 -0.13 3.61 -0.46 5.41 -0.97 c0.68 2.32 1.28 4.54 1.78 6.61 M69.56 765.83 c-1.22 0.09 -2.41 0.08 -3.54 -0.03 c0.26 -2.62 0.84 -5.21 1.67 -7.5 c0.61 0.05 1.25 0.06 1.91 0.01 c0.88 -0.07 1.78 -0.22 2.67 -0.46 c0.76 2.13 1.57 4.57 2.33 7.08 c-1.67 0.47 -3.36 0.77 -5.03 0.9 M72.89 756.23 c-0.58 -1.27 -1.13 -2.37 -1.64 -3.28 c1.49 0.33 3 0.89 4.5 1.67 c-0.73 0.64 -1.71 1.19 -2.85 1.6 M87.47 770.66 c0.09 1.23 -0.01 2.39 -0.3 3.44 c-0.29 0.45 -0.61 0.89 -0.94 1.31 c-0.24 0.3 -0.5 0.6 -0.77 0.89 c-1.56 1.68 -3.5 3.02 -5.62 3.89 c0 -0.22 -0.01 -0.45 -0.02 -0.7 l-0.02 -0.29 c-0.09 -1.13 -0.32 -2.54 -0.68 -4.22 c3.34 -1.16 6.28 -2.83 8.32 -4.73 c0.01 0.13 0.03 0.26 0.04 0.39 M84.03 761.9 c1.36 1.91 2.34 3.9 2.91 5.92 c-1.96 1.97 -4.92 3.71 -8.36 4.91 c-0.52 -2.08 -1.16 -4.28 -1.9 -6.57 c2.98 -1.04 5.58 -2.55 7.35 -4.26 M88.79 770.78 c0 -0.28 -0.01 -0.57 -0.03 -0.85 c-0.02 -0.31 -0.06 -0.63 -0.11 -0.96 c0.33 -0.4 0.61 -0.8 0.85 -1.2 c-0.13 1.02 -0.37 2.03 -0.71 3.01 M86.57 756.56 c0.09 0.1 0.17 0.2 0.26 0.3 c1.34 1.9 2.22 4.03 2.6 6.32 c-0.07 1.08 -0.52 2.19 -1.36 3.32 c-0.63 -1.97 -1.65 -3.89 -3.03 -5.71 c1.13 -1.42 1.65 -2.87 1.53 -4.24 M66.77 779.83 c-2.34 -1.12 -4.34 -2.78 -5.87 -4.85 c1.18 0.65 2.62 1.13 4.28 1.42 c0.41 1.32 0.95 2.47 1.59 3.43 M64.48 765.59 c-2.38 -0.45 -4.17 -1.41 -5.05 -2.69 c0.95 -2.27 2.48 -4.4 4.41 -6.15 c0.57 0.65 1.47 1.12 2.63 1.38 c-0.95 2.29 -1.63 4.86 -1.98 7.47 M63.32 755.85 c-1.89 1.6 -3.43 3.53 -4.47 5.63 c-0.05 -0.32 -0.06 -0.65 -0.02 -0.98 c0.86 -2.34 2.3 -4.47 4.16 -6.16 c0.13 -0.09 0.28 -0.18 0.42 -0.27 c-0.24 0.62 -0.27 1.22 -0.09 1.79 M68.53 752.69 c-1.42 0.58 -2.76 1.32 -4 2.21 c-0.05 -0.51 0.15 -1.07 0.61 -1.64 c0.83 -0.28 1.73 -0.46 2.67 -0.53 c0.23 -0.02 0.47 -0.03 0.72 -0.03 M64.96 755.8 c1.3 -1.01 2.73 -1.85 4.25 -2.49 c-0.79 1.01 -1.51 2.19 -2.15 3.51 c-0.93 -0.19 -1.67 -0.55 -2.09 -1.02 M58.8 764.68 c1.12 1.29 3.05 2.25 5.49 2.7 c-0.11 1.43 -0.11 2.84 -0.01 4.19 c0.06 0.85 0.17 1.69 0.32 2.49 c-2.65 -0.52 -4.64 -1.52 -5.78 -2.92 c-0.19 -0.51 -0.35 -1.05 -0.49 -1.59 c-0.01 -0.09 -0.02 -0.16 -0.02 -0.23 c-0.11 -1.53 0.05 -3.09 0.49 -4.65 " style="fill:#d3d2d2;"/></g><text class="f5782 f5765" font-size="8.00" style="fill:#231f20"><tspan x="69.24" y="769.34" textLength="10.03" dx="0,0.56">34</tspan></text><text class="f1560 f5766" font-size="8.00" style="fill:#656263"><tspan x="87.25" y="769.13" textLength="97.51" class="f1561 f781" dx="0,0.56,0.56,0.56,0.56,0.56,0.56,0.56,0.56,0.56,0.56,0.56,0.56,0.56,0.56,0.56,0.56,0.56,0.56">GLOBAL TRENDS 2030:</tspan>
<tspan x="185.32" y="769.13" textLength="97.73" dx="0,0.56,0.56,-0.18,0.56,0.56,0.56,0.56,0.02,0.56,0.56,0.56,0.56,0.56,0.56,0.56,0.56,0.56,0.56"> ALTERNATIVE WORLDS</tspan></text>
<g mask="url(#Mask_15_58_2jt6Qd)" ><path d="M295.95 766.5 l292.19 0 " style="stroke:#918f8f;stroke-width:1.00;stroke-dasharray:0.001,1.994;stroke-linecap:round;stroke-linejoin:round;"/><path d="M293.95 766.5 M589.14 766.5 " style="stroke:#918f8f;stroke-width:1.00;stroke-linecap:round;stroke-linejoin:round;"/></g><text class="f1489 f786" font-size="10.00" style="fill:#231f20"><tspan x="74.74" y="91.00" textLength="221.55" dx="0,-0.09,0.07,0.09,0,0,-0.11,0.05,0.05,0.15,0,0,0.16,0.28,0.28,0,0,-0.05,-0.03,0,0,-0.02,0.01,-0.08,0.08,0.11,0.09,0.2,0.31,0.28,0.06,0,0,-0.03,0.11,0.04,0,0,-0.04,0,0,0.23,0.06,0.11,-0.01,0.01,0.07,0,0,0.01,0.27,0.28,-0.03,0">food costs will not necessarily lead to greater child </tspan>
<tspan x="74.74" y="105.00" textLength="217.55" dx="0,0.15,0.21,0.27,-0.12,0,0.14,0.31,-0.07,0.13,-0.06,-0.02,-0.04,0,0,-0.06,-0.04,0.24,-0.06,0.01,0.08,0,0,0.15,0.2,0.03,-0.18,0.03,0.15,0,0,0.16,0.28,0.28,0,0,0.06,0.08,0.06,0.28,-0.07,0,0,0.27,0,0,0.27,-0.04,0.24,-0.02,0.08,0">malnutrition. Tighter markets will result in higher </tspan>
<tspan x="74.74" y="119.00" textLength="239.7" dx="0,-0.06,0.31,-0.03,-0.08,0.08,0,0,0.21,-0.02,0,0,0.27,-0.05,0.07,0.06,0.11,0.18,0.09,0.03,0,0,-0.06,0.31,-0.03,-0.08,0,0,-0.09,-0.04,0.13,-0.01,0.13,0.28,0.26,-0.07,0.34,0,0,-0.08,0,0,0,-0.05,-0.03,0,0,-0.02,0.01,-0.08,0.08,0.11,0.09,0.2,0.31,0.28,0.06,0">prices and increased price volatility but not necessarily </tspan>
<tspan x="74.74" y="133.00" textLength="235.55" dx="0,0.27,0,0,0,0,0.34,0.28,-0.02,0.17,0.21,-0.01,0.05,-0.06,0.18,0.21,0,0,-0.01,-0.05,-0.03,0.36,0.18,0.12,-0.06,0,0,-0.03,0,0,-0.09,0.07,0.09,0.03,0,0,0.06,-0.02,-0.06,0.13,0.27,-0.12,0.04,0.03,0,0,0.06,-0.04,0.26,0.13,0.21,-0.05,-0.08,0">in a fundamental shortage of food. Continued reliance </tspan>
<tspan x="74.74" y="147.00" textLength="230.3" dx="0,-0.02,0,0,0.15,0.2,0.18,0.04,0,0,0.18,0,0,0,0,-0.03,-0.06,-0.03,0.34,0.04,-0.04,0,0,-0.09,0.03,0.03,0.14,0.05,-0.04,0.07,0.02,0,0,0.16,0.28,0.28,0,0,0.21,0.14,0.08,0,0,0.27,-0.05,0.07,0.06,0.11,0.18,0.09,0,0,0.15,-0.02,0">on maize as a biofuel feedstock will also increase the </tspan>
<tspan x="74.74" y="161.00" textLength="95.11" dx="0,0.05,-0.03,0.01,0.05,-0.06,0.13,0.13,0.21,0,0,-0.09,-0.03,0,0,-0.09,-0.04,0.13,-0.01,0.13,0.28,0.26,-0.07,0.34,-0.79">potential for volatility.</tspan>
<tspan x="74.74" y="189.00" textLength="224.84" dx="0,0,0,0.05,0.18,0.04,-0.04,-0.03,0,0,0.06,-0.05,-0.09,-0.07,0.06,0,0,-0.03,0,0,0.12,0.23,0.31,-0.03,0.12,0.28,-0.07,0.2,0.26,0.22,0.21,0,0,-0.11,-0.02,0.29,-0.04,0.09,0.18,-0.07,0.13,-0.03,0.08,0,0,-0.04,0,0,-0.01,0.03,0.03,0">A stable supply of agricultural commodities to meet </tspan>
<tspan x="74.74" y="203.00" textLength="216.3" dx="0,0.25,-0.06,-0.01,0.06,0.21,0,0,-0.09,0.07,0.09,0,0,0.09,0.01,0.12,0.26,0.31,-0.07,0.34,0,0,-0.02,0.03,0.03,0.14,0,0,0.21,-0.02,0,0,0.05,0.15,0.06,0.26,0.06,0,0,0.14,0.22,0.04,0.03,0,0,-0.04,-0.11,0.05,0">global food security needs and ensure trade &#59905;ows </tspan>
<tspan x="74.74" y="217.00" textLength="217.69" dx="0,0.06,0.21,0,0,0.09,0,0,0.03,0.01,0.27,-0.03,0.07,-0.09,0.03,0,0,0.15,0.27,0.06,-0.08,0.03,0.24,0,0,0.06,-0.05,-0.09,-0.07,0.06,-0.1,0.24,0.03,-0.03,0.03,0,0,0.15,0.21,0.14,0.12,-0.06,0.05,-0.01,0.05,-0.06,0">can be achieved through supply-side management </tspan>
<tspan x="74.74" y="231.00" textLength="224.11" dx="0,-0.06,0.22,0.03,0.13,0.13,-0.03,-0.08,0.08,0,0,-0.04,0,0,0.09,0.07,0.05,0.05,0,0,0.07,0.06,-0.07,0,0,-0.06,0.06,0.09,-0.03,0.01,0.13,0.13,-0.06,-0.02,-0.12,-0.16,0.27,-0.05,0.01,-0.08,0.04,0.18,0.27,-0.03,0,0,-0.02,0.06,0">practices to boost crop production&#8212;including new </tspan>
<tspan x="74.74" y="245.00" textLength="217.27" dx="0,0.01,0.01,0.01,0.28,-0.05,-0.04,-0.06,0.02,0.23,-0.03,0.08,0,-0.1,-0.04,0,0,0.28,-0.07,0.13,-0.04,0.08,-0.01,0.01,0,0,0.15,-0.02,0,0,0.05,-0.03,0.01,0.05,-0.06,0.13,0.13,0.21,0.28,0.06,0,0,-0.02,0.03,0.08,-0.01,0.13,0.04,-0.09,0">technologies&#8212;to mitigate the potentially negative </tspan>
<tspan x="74.74" y="259.00" textLength="115.34" dx="0,0.27,-0.08,0.03,0.03,0.13,0.15,0,0,-0.03,0,0,0.01,0.26,0.27,0.15,-0.01,0.01,0,0,0.01,0.14,0.21,-0.03,-0.06,-0.11">impacts of climate change.</tspan>
<tspan x="74.74" y="287.00" textLength="216.36" dx="0,-0.05,-0.11,-0.14,0.07,-0.09,0.07,-0.44,0,0,0,0,-0.12,0.28,0.05,0.09,0.08,0,0,-0.03,0,0,0.06,-0.05,-0.09,-0.07,0.06,-0.1,0.23,0.21,-0.02,0.19,0.35,0.03,0.05,0.15,0.21,-0.02,0,0,0.08,0.03,0.13,-0.04,-0.03,0.18,0">However, a number of supply-and-demand factors </tspan>
<tspan x="74.74" y="301.00" textLength="217.44" dx="0,-0.11,-0.08,0.28,-0.03,0,0,0.03,0.08,0.22,0.2,0.28,0,0,0.15,0.14,-0.01,0,0,-0.08,0,0.01,-0.11,-0.02,-0.01,-0.11,0,0,0.24,-0.02,0.08,0.09,0,0,0.27,-0.05,0.01,-0.08,0.04,0.03,0,0,-0.01,0.25,0.14,0.06,0.05,-0.01,0">could derail that outcome. These include extreme </tspan>
<tspan x="74.74" y="315.00" textLength="233.0" dx="0,-0.14,0.11,-0.01,0.15,-0.02,0.08,0.14,0.09,0.06,-0.04,0.13,-0.01,0.01,0.03,0,0,0.18,0.14,0,0.35,-0.05,-0.05,0.13,-0.06,-0.02,0.15,0,0,0.21,0.06,-0.02,0,0,0.28,0.28,0.28,-0.07,0.13,-0.04,0.08,-0.01,0.01,0.03,0,0,0.01,0.26,0.27,0.15,-0.01,0.01,0">weather-related disruptions from unmitigated climate </tspan>
<tspan x="74.74" y="329.00" textLength="209.97" dx="0,0.01,0.14,0.21,-0.03,-0.06,-0.07,0,0,-0.06,0.06,-0.04,-0.06,-0.02,-0.03,-0.06,0.03,0,0,0.07,0.08,0.31,-0.06,0.09,0.14,0,0,-0.03,0,0,0.05,0.07,-0.03,0,0,0.15,0.21,0.14,0.12,-0.06,0.05,-0.01,0.05,-0.06,0">change, prolonged periods of poor management </tspan>
<tspan x="74.74" y="343.00" textLength="210.0" dx="0,-0.03,0,0,0.04,-0.01,0.01,0.08,0,0,0.21,-0.02,0,0,0.08,-0.03,0.28,-0.02,0,0,0.21,-0.02,0,0,0.27,0.14,0.04,0.03,0.03,0,0.18,-0.01,0.01,0,0,0.15,0.09,0,0,-0.03,0,0,-0.04,0.09,0.03,0.08,0.29,0">of water and soil, and inadequate use of modern </tspan>
<tspan x="74.74" y="357.00" textLength="234.91" dx="0,0.12,0.23,0.31,-0.03,0.12,0.28,-0.07,0.2,0.26,0.22,0.21,0,0,0.01,0.01,0.01,0.28,-0.05,-0.04,-0.06,0.02,0.23,-0.03,0.08,0,0,0.21,-0.02,0,0,-0.09,0.08,0.36,0.13,0.28,0.26,0.18,0.04,0.08,-0.48,0,0,0.27,0,0,-0.02,-0.02,0,0,-0.03,0,0,-0.04,-0.03,0.06,0">agricultural technologies and fertilizer. If one or more </tspan>
<tspan x="74.74" y="371.00" textLength="227.74" dx="0,-0.03,0,0,0.15,-0.02,0.08,0.09,0,0,0.08,0.03,0.13,-0.04,-0.03,0.18,0,0,0.06,0.21,-0.01,0,0,0.27,-0.06,-0.04,0,0,-0.07,0.13,0.01,-0.75,0,0,0,0,0.09,0.01,-0.11,-0.02,-0.02,0.07,0,0,0.27,-0.04,0.24,-0.02,0.08,0.14,0.09,0.31,0.14,0,0">of these factors came into play, a second, higher-risk </tspan>
<tspan x="74.74" y="385.00" textLength="218.17" dx="0,-0.08,0,0.01,-0.11,-0.02,-0.01,0,0,-0.14,-0.08,0.28,-0.03,0,0,0.05,-0.01,0.08,0.16,-0.06,0,0,0.27,0,0,0.02,0.27,-0.03,0.01,0,0,-0.09,0.07,0.09,0,0,-0.06,0.06,0.09,-0.03,0.01,0.13,0.13,-0.06,-0.02,0">outcome would emerge in which food production </tspan>
<tspan x="74.74" y="399.00" textLength="210.85" dx="0,0.08,0.2,0.28,-0.03,0.03,0,0,-0.04,0,0,-0.18,0.03,0.04,0,0,0.03,0.03,-0.08,0,0,0.16,-0.07,0.15,0,0,0.03,0.05,0.15,0.21,-0.02,0,0,0.23,0.06,-0.11,0.36,0.15,-0.04,0,0,-0.04,0.01,0.01,0,0,0">failed to keep pace with demand growth. Such a </tspan>
<tspan x="74.74" y="413.00" textLength="229.46" dx="0,0.03,0.07,-0.09,-0.04,-0.06,-0.07,-0.04,-0.01,0.05,-0.06,0,0,-0.14,-0.08,0.28,-0.03,0,0,0.07,0.06,0.11,-0.01,0.01,0,0,-0.01,-0.05,-0.03,0.36,0.18,0.12,-0.06,0.08,0,0,0.15,0.14,-0.01,0,0,-0.11,-0.08,0.28,-0.03,0,0,0.14,-0.02,-0.09,0">development would create shortages that could have </tspan>
<tspan x="74.74" y="427.00" textLength="230.71" dx="0,0.18,0.26,0.06,0,0,-0.06,0.03,-0.07,0.05,-0.04,0.26,-0.07,0.13,-0.03,0.06,0.21,-0.02,0,0,0.08,0.07,0.07,0.13,0.21,-0.02,0,0,0.21,-0.02,0,0,0.01,-0.11,-0.02,-0.05,-0.02,0.28,-0.03,0,0,0.06,0.04,0.07,0.08,0.03,0.12,0.15,0.11,0.03,-0.06,-0.02,0.15,-0.08">dire geopolitical, social, and economic repercussions.</tspan>
<tspan x="74.74" y="455.00" textLength="225.41" dx="0,0.22,-0.05,0.07,0.06,0.11,0.18,0.03,0.27,-0.03,0,0,0.12,0.23,0.31,-0.03,0.12,0.28,-0.07,0.2,0.26,0.22,0.21,0,0,-0.06,0.06,0.09,-0.03,0.01,0.13,0.13,0.04,0.21,-0.07,0.34,0,0,0.27,0,0,0.43,0.21,0.31,-0.03,0.06,0,0,-0.14,-0.08,0.28,-0.03,0">Increasing agricultural productivity in Africa would </tspan>
<tspan x="74.74" y="469.00" textLength="240.27" dx="0,-0.06,0.06,0.08,0.09,0.05,-0.07,0,0,0,0,0.03,-0.04,0.24,0.27,0.33,-0.01,0.06,0.21,-0.06,0,0,-0.07,-0.09,0.05,-0.03,0.35,0.2,0.28,0.27,-0.07,0.34,0,0,-0.04,0,0,0.09,0.07,0.05,0.05,0,0,0.21,-0.02,0,0,0.18,0.04,-0.09,0.08,0.18,0.03,0.32,0.48,0">present a signi&#59904;cant opportunity to boost and diversify </tspan>
<tspan x="74.74" y="483.00" textLength="224.83" dx="0,0.25,-0.06,-0.01,0.06,0.21,0,0,-0.06,0.06,0.09,-0.03,0.01,0.13,0.13,-0.06,-0.02,0,0,0.21,-0.02,0,0,0.04,0.03,0.19,0.06,0.08,0.11,0,0,0.06,0.03,0.23,-0.06,-0.02,0.14,0.21,0,0,0.05,-0.11,-0.09,0.07,0.36,0.34,0,0,0.21,-0.02,0">global production and address regional poverty and </tspan>
<tspan x="74.74" y="497.00" textLength="213.39" dx="0,-0.09,0.07,0.09,0,0,0.09,0.01,0.12,0.26,0.31,-0.07,0.34,-0.79,0,0,-0.05,-0.11,-0.14,0.07,-0.09,0.08,-0.44,0,0,0.12,0.23,0.31,-0.03,0.12,0.28,-0.07,0.2,0.26,0.22,0.21,0,0,-0.06,0.06,0.09,-0.03,0.01,0.13,0.13,0.04,0.2,-0.07,0.34,0">food security. However, agricultural productivity </tspan>
<tspan x="74.74" y="511.00" textLength="217.43" dx="0,0.27,0,0,0.43,0.21,0.31,-0.03,0.07,0,0,0.16,0.28,0.28,0,0,0.06,0.03,0,0.26,0.26,0.06,0,0,0.15,-0.06,-0.01,-0.03,0,0,0.01,0.14,0.21,-0.03,-0.06,0.08,0,0,0.07,-0.09,0.05,0,0,-0.04,0,0,-0.02,-0.09,-0.03,-0.03,0">in Africa will require major changes even to avoid </tspan>
<tspan x="74.74" y="525.00" textLength="236.52" dx="0,-0.01,-0.05,-0.03,0.36,0.18,0.12,-0.06,0.08,-0.08,0,0,-0.12,0.29,0.26,0.28,-0.18,0,0,0.24,0.03,0.13,0,0,0.21,-0.02,0,0,0.09,-0.08,0,0.15,0,0,0.38,-0.01,0.08,0.31,-0.03,0.06,0.07,0,0,0.02,0.27,-0.03,0.01,0,0,0.14,-0.02,-0.09,0">shortages. Unlike Asia and South America, which have </tspan>
<tspan x="74.74" y="539.00" textLength="231.36" dx="0,0.03,0.01,0.27,-0.03,0.07,-0.09,0.03,0,0,0.03,-0.04,0.24,0.27,0.33,-0.01,0.06,0.21,-0.06,0,0,0.27,-0.08,-0.06,0.06,-0.11,-0.09,0.05,-0.01,0.05,-0.06,0.15,0,0,0.27,0,0,-0.06,0.06,0.09,-0.03,0.01,0.13,0.13,-0.06,-0.02,0,0,0.07,0.08,0">achieved signi&#59904;cant improvements in production per </tspan>
<tspan x="74.74" y="553.00" textLength="228.69" dx="0,0.06,-0.07,-0.05,-0.07,0.18,0.07,0,0,0.43,0.21,0.31,-0.03,0.06,0,0,-0.02,0.29,0.06,0,0,0.06,0.01,-0.08,0.05,-0.06,0.15,0.06,0,0,0.06,0.03,0.2,0.26,0.29,-0.02,0.03,0,0,-0.04,0,0,-0.67,-0.1,-0.28,0.19,-0.22,0,0,-0.03,0.07,-0.09,-0.04,0.14,-0.08,0">capita, Africa only recently returned to 1970s&#8217; levels. </tspan>
<tspan x="74.74" y="567.00" textLength="234.61" dx="0,0.1,0.21,-0.04,0,0,0.43,0.21,0.31,-0.03,0.06,0.21,0,0,0.05,0.18,-0.01,0.01,0.08,0,0,0.14,-0.02,-0.09,0,0,0.05,0.07,-0.03,0,0,0.05,0.14,0.04,-0.04,0.26,0.27,-0.03,0,0,0.05,-0.07,0.21,0.26,0.06,-0.02,0.28,-0.01,0.05,-0.06,0.15,0">Many African states have poor enabling environments </tspan>
<tspan x="74.74" y="581.00" textLength="203.02" dx="0,-0.09,-0.03,0,0,0.12,0.23,0.31,-0.03,0.12,0.28,-0.07,0.2,0.26,0.22,0.21,0,0,0.03,0.07,-0.09,-0.04,-0.06,-0.07,-0.04,-0.01,0.05,-0.06,0,0,0,0.27,-0.05,0.01,-0.08,0.04,0.18,0.27,-0.03,0,0,0.13,0.03,0.02,0,0,-0.03,0">for agricultural development, including lack of </tspan>
<tspan x="74.74" y="595.00" textLength="238.99" dx="0,0.06,0.33,0.28,-0.01,0.07,-0.03,0.05,-0.06,0,0,0.35,0.26,0.22,0.21,0,0,0.27,0.33,0.21,0.22,0.18,0.05,0.14,0.35,0.01,0.13,0.2,0.26,0.06,0,0,0.21,-0.02,0,0,0.14,0.22,0.21,0.15,-0.03,0.05,-0.03,0.35,0.18,-0.01,0.13,-0.06,-0.02,0,0,-0.04,0,0,-0.06,0.03,0">suf&#59904;cient rural infrastructure and transportation to get </tspan>
<tspan x="74.74" y="609.00" textLength="225.74" dx="0,0.09,0.03,0.03,0.14,0,0,0.21,-0.02,0,0,-0.09,0.08,0.36,0.13,0.28,0.26,0.18,0.04,0.08,0,0,0.21,0.06,-0.02,0,0,0.15,-0.02,0,0,0.05,-0.03,0.36,0.15,0,0,0.27,0.29,0.13,0.21,-0.02,0.07,0,0,0.21,-0.02,0,0,-0.14,0.11,0.22,0">seeds and fertilizer from the ports inland, and weak </tspan>
<tspan x="74.74" y="623.00" textLength="222.19" dx="0,-0.09,-0.11,-0.09,0.08,0.29,0.14,0.21,-0.05,-0.08,-0.11,0,0,0.08,-0.09,0.05,0,0,0,0,0.08,0.2,0.26,0.02,0.06,0,0,0.15,0.2,0.16,0.23,0.27,0.14,0.21,0,0,0.27,-0.08,-0.06,0.06,-0.11,-0.09,0.05,-0.01,0.05,-0.06,0,0,0.27,0">governance. Even a fairly marginal improvement in </tspan>
<tspan x="74.74" y="637.00" textLength="230.72" dx="0,-0.09,0.07,0.09,0,0,0.06,-0.05,-0.09,-0.07,0.06,0,0,0.01,0.14,0.2,0.27,0,0,0.15,0.21,0.14,0.12,-0.06,0.05,-0.01,0.05,-0.06,0,0,-0.11,-0.08,0.28,-0.03,0,0,0.14,0.22,0.21,0.15,-0.01,0.13,-0.01,0.01,0,0,0.27,-0.07,-0.04,0,0,0">food supply chain management could translate into a </tspan>
<tspan x="74.74" y="651.00" textLength="226.66" dx="0,0.03,-0.04,0.24,0.27,0.33,-0.01,0.06,0.21,-0.07,0,0,0.06,0.03,-0.03,0.01,0.13,0.13,-0.06,-0.02,0,0,0.27,0,0,0.04,0.18,0.05,0.01,-0.07,0,0,-0.02,0.03,0.08,-0.01,0.13,0.27,-0.03,0,0,0,0,0.03,-0.04,0.24,0.27,0.33,-0.01,0.06,0.21,-0.06,0">signi&#59904;cant reduction in waste, negating a signi&#59904;cant </tspan>
<tspan x="74.74" y="665.00" textLength="240.68" dx="0,0.21,-0.04,-0.08,0.28,-0.06,0,0,-0.03,0,0,0.15,-0.02,0,0,-0.06,0.06,0.08,0.11,0.06,0.26,0.06,0.08,0,0,0.2,0.06,-0.02,0,0,0.23,0.06,-0.11,0.16,0.27,-0.03,0,0,0.04,-0.07,-0.1,0.28,0.13,-0.01,0.13,-0.06,-0.02,0.15,0,0,0.21,-0.02,0">amount of the pressures from growing populations and </tspan>
<tspan x="74.74" y="679.00" textLength="75.7" dx="0,0.27,-0.05,0.07,0.06,0.11,0.18,0.09,0.03,0,0,-0.14,0.11,0.21,-0.07,0.15,-0.04">increased wealth.</tspan>
<tspan x="74.74" y="707.00" textLength="208.52" dx="0,0.08,-0.07,0.15,-0.05,-0.08,0,0,0,0.22,-0.07,-0.05,-0.03,0,0,0.27,-0.07,-0.09,0.08,0.05,0.15,-0.01,0.05,-0.07,0,0,0.27,0,0,0.04,0.17,-0.07,-0.05,0.18,-0.01,0.13,-0.06,-0.02,-0.01,0,0,0.01,0.26,0.27,0.15,-0.01,0.01,0">Without rapid investment in adaptation, climate </tspan>
<tspan x="74.74" y="721.00" textLength="230.64" dx="0,0.01,0.14,0.21,-0.03,-0.06,0,0,0.14,0,0,0.21,0.14,0.08,0,0,-0.01,0.07,0.07,0.01,0.13,0.01,0.03,0,0,-0.04,0,0,0.06,0.08,0.06,0.28,-0.07,0,0,0.27,0,0,-0.01,0.14,0.2,0.28,0,0,0.02,0.01,0.01,0.26,0.27,-0.02,0.08,0,0,0.27,0">change is also expected to result in sharp declines in </tspan></text><text class="f1489 f786" font-size="10.00" style="fill:#231f20"><tspan x="340.24" y="91.00" textLength="27.13" dx="0,0.18,-0.03,-0.04,-0.03,0.14,-0.08">yields.</tspan>
<tspan x="367.35" y="87.67" textLength="2.61" font-size="5.83">a</tspan>
<tspan x="369.96" y="91.00" textLength="202.47" dx="0,0,0.22,-0.05,0.07,0.06,0.11,0.18,0.03,0.27,-0.03,0,0,0.07,0.06,-0.07,0,0,-0.06,0.06,0.09,-0.03,0.01,0.13,0.13,0.04,0.2,-0.07,0.34,0,0,-0.02,0,0,0.26,0.3,0.31,-0.04,0.08,-0.01,0.01,0.03,0,0,0.13,0.21,-0.02,0"> Increasing crop productivity on irrigated land </tspan>
<tspan x="340.24" y="105.00" textLength="223.22" dx="0,-0.11,-0.08,0.28,-0.03,0,0,0.03,0.01,0.07,0.06,0.11,0.18,0.09,0,0,0.15,-0.02,0,0,-0.02,0.03,0.03,0,0,-0.04,0,0,0.26,0.3,0.31,-0.04,0.08,-0.01,0.01,0,0,-0.03,0.15,-0.02,0.08,0,0,0.13,0.21,-0.02,0.03,0,0,0.24,0.27,0.14,0">could decrease the need to irrigate other land. This </tspan>
<tspan x="340.24" y="119.00" textLength="222.31" dx="0,0.18,0.22,-0.18,0.08,0,0,0,0,0.18,0.14,-0.03,-0.06,0.06,-0.07,0.05,-0.03,0.36,0.13,-0.06,-0.02,0.14,-0.01,0.01,-0.04,0.06,0,0,0.27,-0.04,0.24,0,0,0.21,-0.04,-0.08,0.28,-0.06,0,0,-0.03,0,0,-0.06,0.06,0.08,0.11,0.06,0.26,0.06,0">takes a disproportionately high amount of pressure </tspan>
<tspan x="340.24" y="133.00" textLength="224.65" dx="0,-0.03,0.27,0,0,-0.03,0,0,0.04,-0.01,0.01,0.08,0,0,0.06,0.08,0.08,-0.08,0.26,0.03,-0.08,0.08,-0.08,0,0,0.24,-0.02,0,0,0.31,0.14,0,0,0,-0.03,0,0,0.08,0.2,0.28,0.26,0.27,-0.03,0,0,-0.04,0,0,0.03,0.01,0.27,-0.03,0.07,-0.09,0">off of water resources. The risk of failing to achieve </tspan>
<tspan x="340.24" y="147.00" textLength="220.95" dx="0,0.27,-0.05,0.07,0.06,0.11,0.18,0.09,0.03,0,0,0.07,0.06,-0.07,0,0,-0.06,0.06,0.09,-0.03,0.01,0.13,0.13,0.04,0.2,-0.07,0.34,0,0,0.15,-0.02,0.08,0.06,-0.01,-0.09,-0.03,0.06,0,0,-0.11,-0.08,0.28,-0.03,0,0,0.14,-0.02,-0.09,0,0,0">increased crop productivity therefore could have a </tspan>
<tspan x="340.24" y="161.00" textLength="232.28" dx="0,-0.02,0.03,0.08,-0.01,0.13,0.04,-0.09,0,0,0.27,-0.08,0.03,0.03,0.13,0,0,-0.05,-0.03,0,0,-0.02,0.29,0.06,0,0,-0.02,0,0,-0.1,0.07,0.09,0,0,0.09,0.01,0.12,0.26,0.31,-0.07,0.34,0,0,-0.08,0,0,0,0.21,0.14,0.08,0,0,-0.02,0">negative impact not only on food security but also on </tspan>
<tspan x="340.24" y="175.00" textLength="63.58" dx="0,0.04,-0.01,0.01,0.07,0,0,0.09,0.01,0.12,0.26,0.31,-0.07,0.34,-0.79">water security.</tspan>
<tspan x="340.24" y="203.00" textLength="234.31" dx="0,0.07,0.08,0.06,0.11,0.21,0,0,-0.06,0.06,0.09,-0.03,0.01,0.13,0.13,-0.06,-0.02,0,0,0.27,0,0,0.05,0.27,0.27,0.14,0,0,0.21,-0.02,0,0,0.22,-0.02,0.18,0.13,0,0,0.08,0.03,-0.08,0.08,0,0,0.03,-0.04,0.24,0.27,0.33,-0.01,0.06,0.21,-0.06,0">Cereal production in China and India faces signi&#59904;cant </tspan>
<tspan x="340.24" y="217.00" textLength="219.18" dx="0,0.01,0.14,0.21,0.28,-0.03,0.05,-0.03,-0.06,0.08,0,0,0.21,0.06,-0.02,0,0,0.05,-0.07,0.21,0.26,0.06,-0.02,0.28,-0.01,0.05,-0.06,0.18,0.21,0,0,0.05,0.14,0.06,0.08,0.11,0.09,0.08,0,0,0.06,-0.04,0.13,-0.01,0.13,0.27,-0.03,0,0,-0.04,0">challenges from environmental stresses relating to </tspan>
<tspan x="340.24" y="231.00" textLength="217.32" dx="0,0.04,-0.01,0.01,0.08,0,0,0.09,0.06,0.2,0.03,0.07,-0.07,0.34,-0.75,0,0,0.08,-0.03,0.28,0,0,0.03,0.04,-0.07,-0.03,0.03,0.13,-0.06,-0.02,-0.01,0,0,0.01,0.26,0.27,0.15,-0.01,0.01,0,0,0.01,0.14,0.21,-0.03,-0.06,-0.07,0,0,0.21,-0.02,0">water scarcity, soil depletion, climate change, and </tspan>
<tspan x="340.24" y="245.00" textLength="233.57" dx="0,-0.06,0.06,0.08,0.11,0.06,0.26,0.06,0.08,0,0,-0.02,0,0,0.13,0.21,-0.02,0,0,-0.02,0.08,0.2,0.28,0.13,0.04,-0.03,0.28,0.26,-0.07,0.34,0,0,0.21,0.06,-0.02,0,0,0.26,0.08,0.06,0.21,0.27,0.18,0.11,-0.01,0.13,-0.06,-0.02,-0.04,0,0,0.17,-0.03,0.15,0">pressures on land availability from urbanization. Both </tspan>
<tspan x="340.24" y="259.00" textLength="221.7" dx="0,-0.11,-0.08,0.28,-0.06,0.14,0.31,-0.03,0.08,0,0,0.2,0.06,0,0,0.15,-0.06,-0.01,-0.03,0,0,-0.06,0.06,0.09,-0.03,0.01,-0.08,0.08,0.18,0,0,-0.03,0,0,0.02,-0.02,0.11,-0.01,0,0,0,0.21,-0.02,0,0,0.06,0.27,0.27,0.14,0">countries are major producers of wheat, and China </tspan>
<tspan x="340.24" y="273.00" textLength="229.07" dx="0,0.14,0,0,0.15,-0.02,0,0,0.09,0.01,-0.11,-0.02,-0.02,0.19,0.11,0.13,0.2,0.16,-0.06,0.08,0.05,0,0,-0.06,0.06,0.09,-0.03,0.01,-0.08,0.08,0,0,0.21,-0.02,0,0,-0.11,-0.02,0.15,0.06,0.28,-0.01,0.08,0,0,-0.03,0,0,-0.11,-0.03,0.29,0">is the second-largest producer and consumer of corn </tspan>
<tspan x="340.24" y="287.00" textLength="236.72" dx="0,0.28,0.33,0.01,0.08,0,0,0.15,-0.02,0,0,0,-0.06,0,0,0.06,0.27,0.27,0.14,0.07,0,0,0.03,0.2,0.36,0.13,-0.03,0.12,0.28,0.13,0.2,0.02,0.06,-0.75,0,0,0.14,0,0,0.27,-0.07,-0.09,0.08,0.05,0.13,0.27,-0.03,0,0,-0.02,0.11,-0.02,0.21,0.28,0.06,0,0,0.27,0">after the US. China, particularly, is investing heavily in </tspan>
<tspan x="340.24" y="301.00" textLength="226.14" dx="0,0.12,0.23,0.31,-0.03,0.12,0.28,-0.07,0.2,0.26,0.22,0.21,0,0,0.01,0.01,0.01,0.28,-0.05,-0.04,-0.06,0.02,0.36,0,0,0.21,-0.02,0,0,-0.06,0.06,0.09,-0.03,0.01,0.13,0.13,0.04,0.21,-0.07,0.34,-0.79,0,0,0.06,0.27,0.27,0.14,0,0,0.21,-0.02,0">agricultural technology and productivity. China and </tspan>
<tspan x="340.24" y="315.00" textLength="229.16" dx="0,0.22,-0.02,0.18,0.13,0,0,0.2,0.06,0,0,0.28,0.29,0.26,0.28,-0.18,-0.04,0.06,0,0,-0.04,0,0,0.04,0.06,0.21,-0.02,0.03,-0.02,0,0,0.15,-0.02,0.08,0.26,0,0,-0.01,0.27,-0.09,-0.03,0.36,0.15,0,0,-0.04,0,0,0.02,0.01,0.27,-0.03,0.07,-0.09,0">India are unlikely to abandon their efforts to achieve </tspan>
<tspan x="340.24" y="329.00" textLength="238.41" dx="0,0.23,0.22,0.2,0.27,0,0,0.09,-0.04,0.32,-0.05,0.24,0.06,0.33,0.28,-0.01,0.07,-0.03,0.05,-0.05,0.26,0,0,0.15,0.27,0.06,-0.08,0.03,0.24,0,0,0.08,-0.13,0.08,-0.16,0,0,-0.05,-0.11,-0.14,0.07,-0.09,0.08,-0.44,0,0,-0.06,0,0,0.08,-0.07,0.01,-0.12,0">grain self-suf&#59904;ciency through 2020. However, by 2030, </tspan>
<tspan x="340.24" y="343.00" textLength="234.07" dx="0,0.03,0.05,-0.04,0.02,0.23,0.22,-0.07,-0.07,0.27,-0.03,0,0,-0.06,0.06,0.08,0.11,0.06,0.26,0.06,0.08,0,0,0.21,-0.02,0,0,0.27,-0.05,0.07,0.06,0.11,0.18,0.03,0.27,-0.03,0,0,0.05,-0.07,0.21,0.26,0.06,-0.02,0.28,-0.01,0.05,-0.06,0.18,0.21,0">demographic pressures and increasing environmental </tspan>
<tspan x="340.24" y="357.00" textLength="210.62" dx="0,-0.11,-0.02,0.15,0.05,0.14,0.22,0.2,0.27,-0.06,0.15,0,0,0.15,0.01,0,0,-0.09,-0.03,0.03,-0.08,0,0,0.09,-0.03,0.15,0,0,-0.11,-0.08,0.28,-0.06,0.14,0.31,-0.03,0.08,0,0,-0.04,0,0,0.27,-0.05,0.07,0.06,0.11,0.18,0.09,0">constraints may force both countries to increase </tspan>
<tspan x="340.24" y="371.00" textLength="241.1" dx="0,0.27,-0.08,0.05,-0.03,0.35,0.15,-0.04,0,-0.03,0.05,-0.03,0.01,0.05,-0.06,0.13,0.13,0.21,0.28,0.06,0,-0.03,0.14,0.31,-0.04,0.19,-0.06,0.08,0.31,0.27,-0.03,0,-0.03,0,-0.03,0.03,-0.04,0.24,0.27,0.33,-0.01,0.06,0.21,-0.06,0,-0.03,-0.06,0.31,-0.03,-0.08,0,-0.03,0.35,0.28,-0.12,-0.05,0">imports, potentially triggering a signi&#59904;cant price runup </tspan>
<tspan x="340.24" y="385.00" textLength="108.12" dx="0,-0.02,0,0,0.27,-0.06,0.01,0.08,0.29,0.14,-0.01,0.13,-0.06,-0.02,0.14,0.21,0,0,0.15,0.2,0.03,-0.18,0.03,0.15,-0.08">on international markets.</tspan>
<tspan x="448.20" y="381.67" textLength="3.24" font-size="5.83">b</tspan></text><text class="f1489 f786" font-size="10.00" style="fill:#231f20"><tspan x="340.24" y="413.00" textLength="197.1" dx="0,0.24,-0.02,0,0,-0.06,0.31,0.27,0.15,0.2,0.5,0,0,-0.11,-0.02,0.15,0.09,0.03,0,0.04,0.05,-0.05,-0.08,0,0,-0.03,0,0,0.31,0.14,0.03,0.27,-0.03,0,0,-0.06,0.31,-0.03,-0.08,0.08,0,0,-0.09,-0.03,0">The primary consequence of rising prices for </tspan>
<tspan x="340.24" y="427.00" textLength="225.03" dx="0,0.12,0.23,0.31,-0.03,0.12,0.28,-0.07,0.2,0.26,0.22,0.21,0,0,-0.11,-0.02,0.29,-0.04,0.09,0.18,-0.07,0.13,-0.03,0.08,0,0,0.14,0,0,0.15,-0.02,0,0,-0.11,-0.02,0.29,-0.01,0.05,0.15,0.06,0.26,0.22,-0.01,0.01,0,0,0.27,0.28,-0.18,0">agricultural commodities is the commensurate hike </tspan>
<tspan x="340.24" y="441.00" textLength="236.12" dx="0,0.27,0,0,0.05,0.18,-0.07,-0.07,-0.03,0,0,-0.1,0.07,0.09,0,0,-0.06,0.31,-0.03,-0.08,0.08,0,0,-0.09,-0.03,0,0,-0.02,-0.09,0.08,0.22,0.12,-0.06,0,0,-0.05,-0.08,0.15,0.09,-0.04,-0.05,-0.04,-0.03,0.14,-0.08,0,0,0.38,-0.07,0.15,-0.05,-0.08,0.03,0.24,0">in staple food prices for average households. Although </tspan>
<tspan x="340.24" y="455.00" textLength="219.72" dx="0,0.31,-0.03,0.01,0,0,-0.11,-0.08,0.28,-0.07,0.14,0.31,-0.03,0.08,0,0,0.16,0.28,0.28,0,0,0.21,0.14,0.08,0,0,-0.09,0.03,-0.04,0,0,0.15,-0.02,0,0,-0.05,0.27,-0.05,0.01,-0.01,0,0,0.15,-0.02,0,0,-0.01,0.14,0.2,0.06,0,0,-0.03,0">rich countries will also feel the pinch, the share of </tspan>
<tspan x="340.24" y="469.00" textLength="222.32" dx="0,-0.09,0.07,0.09,0,0,-0.03,0.07,0.05,-0.02,0.18,0.27,-0.03,0,0,0.27,0,0,-0.06,-0.11,-0.12,0.12,0.27,-0.05,-0.11,-0.02,-0.01,0,0,-0.05,-0.08,0.15,0.09,-0.04,-0.05,-0.04,-0.03,0.14,0,0,0.27,0,0,0.05,0.07,-0.03,0.06,0.08,0">food spending in low-income households in poorer </tspan>
<tspan x="340.24" y="483.00" textLength="214.48" dx="0,-0.11,-0.08,0.28,-0.06,0.14,0.31,-0.03,0.08,0,0,0.14,0,0,0.08,0.2,0,0,0.23,0.06,0.11,-0.01,0.01,0.08,-0.44,0,0,0.21,-0.02,0,0,0.15,-0.02,0.08,0.09,0,0,0.08,0.21,0.28,0.28,0.26,-0.03,0.08,0,0,0.16,0.28,0.28,0,0,0.09,0">countries is far greater, and these families will be </tspan>
<tspan x="340.24" y="497.00" textLength="218.03" dx="0,0.28,0.27,-0.09,0.01,0.13,0.01,0.03,0,0,-0.04,0,0,0,0,0.23,0.06,0.11,-0.01,0.01,0.08,0,0,-0.01,0.25,0.01,0.05,-0.06,-0.05,0,0,0.24,0,0,0,0,0.06,0.08,0.06,0.28,-0.07,0,0,0,-0.09,0.07,0.09,0.19,0.08,-0.06,0.31,-0.03,-0.08,0">affected to a greater extent. As a result, food-price </tspan>
<tspan x="340.24" y="511.00" textLength="214.05" dx="0,0.27,0.34,0.15,-0.01,0.13,-0.06,-0.02,0,0,-0.06,0.06,-0.01,0.06,0.04,-0.04,0.06,0,0,0.16,0.28,0.28,0,0,0.34,0.04,-0.04,0,0,0.08,0.07,0.07,0.13,0.21,0,0,0.18,0.14,0.09,-0.11,-0.02,-0.06,0.01,0.05,-0.07,0,0,-0.11,-0.09,0.08,0">in&#59905;ation probably will fuel social discontent over </tspan>
<tspan x="340.24" y="525.00" textLength="198.67" dx="0,-0.03,0.15,-0.02,0.08,0,0,0.01,-0.11,-0.02,-0.05,-0.02,0.28,-0.03,0,0,0.14,0.11,0.06,0.04,0.08,0,0,0.06,0.01,0.01,0,0,0.18,0,0,-0.06,-0.11,0,0,0.04,0.12,-0.06,0.08,0,0,0.21,-0.02,0">other economic issues such as low wages and </tspan>
<tspan x="340.24" y="539.00" textLength="75.47" dx="0,0.05,0.07,-0.03,0,0,-0.09,-0.11,-0.09,0.07,0.29,0.14,0.21,-0.05,-0.08,-0.11">poor governance.</tspan>
<tspan x="340.24" y="567.00" textLength="185.04" dx="0,0.37,-0.02,0.11,-0.01,0,0,0.14,0,0,0.26,0.28,-0.18,-0.04,0.06,0,0,-0.04,0,0,-0.01,0.3,0.27,0.03,-0.03,-0.07,0,0,0.03,0.2,0.35,0.13,-0.03,0.12,0.28,0.13,0.2,0.02,0.06,0,0,0.27,-0.04,0.24,0">Wheat is likely to exhibit particularly high </tspan>
<tspan x="340.24" y="581.00" textLength="207.97" dx="0,-0.06,0.31,-0.03,-0.08,0,0,-0.09,-0.04,0.13,-0.01,0.13,0.28,0.26,-0.07,0.34,-0.79,0,0,0.01,-0.04,0.24,0.27,0.33,-0.01,0.06,0.21,-0.06,0,0,-0.06,0.06,0.09,-0.03,0.01,0.13,0.13,-0.06,-0.02,0,0,0.07,-0.09,0.12,0.26,0.18,0,0,0.27,0">price volatility. Signi&#59904;cant production occurs in </tspan>
<tspan x="340.24" y="595.00" textLength="210.59" dx="0,0.04,-0.01,0.01,0.08,0.14,0.24,0.05,0.14,0.06,0.08,0.11,0.09,0.03,0,0,0.21,-0.02,0,0,0.01,0.26,0.27,0.15,-0.01,0.01,0.21,-0.05,0.41,0.28,0.27,-0.02,0.08,0.22,0.04,-0.04,-0.03,0,0,0.06,0.03,0.23,-0.06,-0.02,0.15,0,0,0.27,0">water-stressed and climate-vulnerable regions in </tspan>
<tspan x="340.24" y="609.00" textLength="209.2" dx="0,0.06,0.27,0.27,0.14,0.07,0,0,0.22,-0.02,0.18,0.13,0.07,0,0,0.06,0.22,0.31,0.14,0.05,0.18,0.21,-0.01,0,0,0.21,-0.02,0,0,-0.13,0.15,0.05,0.14,0.22,0.21,0.26,0.13,0.07,0,0,0.06,0.03,0.19,-0.06,0.08,0.05,0.13,0.27,-0.03,0">China, India, Pakistan, and Australia, suggesting </tspan>
<tspan x="340.24" y="623.00" textLength="223.97" dx="0,0.15,0.2,0.03,-0.18,0.03,0.15,0,0,0.16,0.28,0.28,0,0,0.06,0.05,0.15,0.2,0.27,0,0,0.13,-0.04,0.24,-0.07,0,0,0.21,-0.02,0,0,0.41,0.28,0.27,-0.02,0.08,0.22,0.04,-0.04,-0.03,0,0,-0.04,0,0,0.14,0.2,0.47,-0.09,0.08,0.05,0">markets will remain tight and vulnerable to harvest </tspan>
<tspan x="340.24" y="637.00" textLength="111.4" dx="0,-0.01,-0.05,0.07,0.02,0.19,-0.04,0,0,0.27,-0.05,0.01,-0.08,0.04,0.18,0.27,-0.03,0,0,0.18,0.14,0.09,0.11,0.18,0.09,-0.11">shocks, including disease.</tspan>
<tspan x="340.24" y="665.00" textLength="233.79" dx="0,0.22,0,0,-0.06,0.05,-0.02,0.08,0.22,0.21,-0.02,0,0,0.15,-0.02,0,0,0.23,0.06,-0.08,-0.05,0.03,0,0,-0.04,0.05,0.05,0,0,0.41,0.28,0.27,-0.02,0.08,0.22,0.04,-0.04,-0.03,0,0,-0.04,0,0,0.15,-0.02,0,0,0.27,-0.08,0.03,0.03,0.13,0.15,0">In general, the groups most vulnerable to the impacts </tspan>
<tspan x="340.24" y="679.00" textLength="209.51" dx="0,-0.03,0,0,-0.09,0.07,0.09,0.19,0.08,-0.06,0.31,-0.03,-0.08,0,0,0.27,0.34,0.15,-0.01,0.13,-0.06,-0.02,0,0,0.16,0.28,0.28,0,0,0.09,0,0,0.27,-0.08,0.05,-0.03,0.36,-0.17,0.35,0.03,0.04,0.07,0.05,-0.02,0.03,0.05,-0.06,0">of food-price in&#59905;ation will be import-dependent </tspan></text><path d="M340.24 690 l72 0 " style="stroke:#918f8f;stroke-width:0.50;"/><text class="f1489 f786" font-size="7.50" style="fill:#4f4c4d"><tspan x="340.24" y="700.50" textLength="3.14" font-size="7.00">a</tspan>
<tspan x="343.31" y="703.50" textLength="221.04" dx="0,-0.08,-0.08,0.17,-0.01,-0.08,-0.08,0.06,-0.06,0.19,0.02,-0.06,-0.08,-0.08,-0.08,-0.03,-0.08,-0.08,0.1,0.19,0.1,-0.08,-0.08,0.19,0.23,-0.08,-0.03,0.2,0.11,-0.01,0.09,-0.05,-0.02,-0.08,-0.08,0.1,-0.08,-0.08,-0.08,-0.08,0.19,-0.07,0.21,0.25,-0.08,-0.02,0.2,0.19,0.1,0.07,0.01,-0.05,-0.02,-0.02,0.01,-0.08,-0.08,0.04,0.02,0.03,-0.03,0.25,-0.08,-0.08,0.14,0.04,-0.02,0">  The source for this information is a NIC-commissioned report from </tspan>
<tspan x="340.24" y="713.00" textLength="228.06" dx="0,0.04,0.1,-0.01,0.1,0.1,0.15,-0.08,-0.08,-0.04,-0.06,0.11,0.06,-0.05,-0.08,-0.08,0,-0.08,-0.08,-0.01,-0.01,0.09,-0.05,-0.02,0.1,0.15,-0.08,-0.08,0.08,0.01,0.08,0.19,0.22,-0.06,0.24,-0.08,-0.08,0.16,-0.06,0.02,0.01,0.09,0.1,-0.08,-0.08,-0.02,-0.08,-0.08,-0.01,-0.01,0.14,0.19,0.16,0.15,-0.08,-0.08,-0.07,0.05,0.06,-0.06,0.19,0.02,-0.06,0.05,-0.08,-0.08,-0.05,0">Chatham House, US National Security Impacts of Natural Resources by </tspan>
<tspan x="340.24" y="722.50" textLength="70.87" dx="0,0.06,-0.1,0.06,-0.09,-0.07,-0.07,0.06,-0.05,0.01,-0.09,-0.07,-0.07,0.15,-0.01,-0.07,-0.07,0.06,0.07,0.05,-0.12">2020, 2030, and 2040.</tspan>
<tspan x="340.24" y="729.00" textLength="3.88" font-size="7.00">b</tspan>
<tspan x="344.06" y="732.00" textLength="18.55" dx="0,-0.08,-0.08,0.17,-0.03,-0.02,0.02">  Ibid.</tspan></text><path d="M15 21 l-15 0 M639 21 l15 0 M15 813 l-15 0 M639 813 l15 0 M21 15 l0 -15 M21 819 l0 15 M633 15 l0 -15 M633 819 l0 15 " style="stroke:#ffffff;stroke-width:1.25;"/><path d="M15 21 l-15 0 M639 21 l15 0 M15 813 l-15 0 M639 813 l15 0 M21 15 l0 -15 M21 819 l0 15 M633 15 l0 -15 M633 819 l0 15 " style="stroke:#000000;stroke-width:0.25;"/>
</svg>
