<svg class="crocodoc-2jt6Qd crocodoc-page-svg" version="1.1"
    xmlns="http://www.w3.org/2000/svg"
    xmlns:xlink="http://www.w3.org/1999/xlink"
    xmlns:xhtml="http://www.w3.org/1999/xhtml"
    xml:space="preserve" width="654.0pt" height="834.0pt" viewBox="0 0 654.0 834.0">
<xhtml:link href="stylesheet.css" type="text/css" rel="stylesheet" />
<style>
.crocodoc-2jt6Qd tspan { white-space:pre; }
.crocodoc-2jt6Qd path { fill:transparent; }

</style>
<defs>
<linearGradient id="Grad_16_66_2jt6Qd" x1="44.82%" y1="92.27%" x2="90.53%" y2="92.27%"><stop offset="0.00" style="stop-color:#ffffff" /><stop offset="0.25" style="stop-color:#eeeeee" /><stop offset="0.50" style="stop-color:#bdbdbd" /><stop offset="0.75" style="stop-color:#6d6d6d" /><stop offset="1.00" style="stop-color:#000000" /></linearGradient>
<mask id="Mask_15_66_2jt6Qd">
<g ><path d="M3 831 l648 0 l0 -828 l-648 0 l0 828 " style="fill:url(#Grad_16_66_2jt6Qd);"/></g></mask>
</defs>

<g style="opacity:0.40;" ><path d="M71.97 751.59 c0.77 -0.59 1.54 -1 2.32 -1.22 c0.78 0.14 1.43 0.38 1.9 0.71 c-0.44 0 -0.88 0.01 -1.32 0.05 c-0.96 0.07 -1.93 0.23 -2.9 0.46 M70.58 751.73 c-0.17 -0.35 -0.34 -0.64 -0.48 -0.88 c-0.05 -0.08 -0.1 -0.16 -0.15 -0.23 c0.57 -0.14 1.16 -0.25 1.75 -0.32 c0.08 -0.01 0.17 -0.02 0.26 -0.02 c0.12 -0.01 0.24 -0.02 0.35 -0.02 c-0.59 0.38 -1.17 0.87 -1.73 1.48 M71.79 756.57 c-0.73 0.19 -1.47 0.32 -2.2 0.38 c-0.46 0.03 -0.92 0.04 -1.37 0.01 c0.64 -1.48 1.37 -2.76 2.18 -3.83 c0.42 0.94 0.89 2.1 1.39 3.44 M72.35 752.35 c0.71 -0.14 1.42 -0.24 2.12 -0.29 c0.83 -0.06 1.66 -0.06 2.48 -0.01 c0.16 0.53 0.01 1.14 -0.44 1.76 c-1.37 -0.66 -2.77 -1.15 -4.16 -1.47 M77.8 754.49 c0.53 -0.76 0.75 -1.53 0.63 -2.26 c2.4 0.39 4.61 1.32 6.39 2.7 c0.59 1.34 0.26 2.92 -0.93 4.48 c-1.73 -1.95 -3.83 -3.65 -6.09 -4.92 M77.37 750.55 c1.2 0.27 2.36 0.68 3.46 1.22 c-0.91 -0.28 -1.86 -0.48 -2.85 -0.59 c-0.17 -0.23 -0.37 -0.44 -0.61 -0.63 M82.93 760.48 c-1.62 1.59 -4.03 2.99 -6.82 3.97 c-0.85 -2.48 -1.77 -4.88 -2.67 -6.97 c1.44 -0.53 2.71 -1.27 3.59 -2.11 c2.19 1.34 4.22 3.11 5.9 5.12 M67.37 751.87 c-0.23 0.02 -0.46 0.04 -0.69 0.07 c0.52 -0.33 1.13 -0.63 1.77 -0.88 c0.13 -0.05 0.25 -0.09 0.39 -0.13 c0.23 0.16 0.54 0.51 0.87 0.98 c-0.8 -0.09 -1.59 -0.1 -2.33 -0.05 M71.19 776.65 c2.06 -0.15 4.16 -0.53 6.23 -1.12 c0.37 1.66 0.63 3.04 0.77 4.12 l0.03 0.2 c0.03 0.28 0.06 0.5 0.07 0.71 c-1.08 0.5 -2.22 0.71 -3.36 0.79 c-1.93 0.14 -3.84 -0.05 -5.68 -0.59 c-0.12 -0.13 -0.17 -0.18 -0.22 -0.24 c-0.88 -1.02 -1.56 -2.31 -2.08 -3.9 c1.36 0.12 2.79 0.13 4.25 0.02 M76.89 773.26 c-2.03 0.58 -4.09 0.95 -6.12 1.11 c-1.53 0.12 -3.02 0.1 -4.42 -0.05 c-0.2 -0.98 -0.33 -2.01 -0.41 -3.07 c-0.09 -1.18 -0.1 -2.4 -0.05 -3.65 c1.22 0.12 2.5 0.13 3.81 0.03 c1.79 -0.13 3.61 -0.46 5.41 -0.97 c0.68 2.32 1.28 4.54 1.78 6.61 M69.56 765.83 c-1.22 0.09 -2.41 0.08 -3.54 -0.03 c0.26 -2.62 0.84 -5.21 1.67 -7.5 c0.61 0.05 1.25 0.06 1.91 0.01 c0.88 -0.07 1.78 -0.22 2.67 -0.46 c0.76 2.13 1.57 4.57 2.33 7.08 c-1.67 0.47 -3.36 0.77 -5.03 0.9 M72.89 756.23 c-0.58 -1.27 -1.13 -2.37 -1.64 -3.28 c1.49 0.33 3 0.89 4.5 1.67 c-0.73 0.64 -1.71 1.19 -2.85 1.6 M87.47 770.66 c0.09 1.23 -0.01 2.39 -0.3 3.44 c-0.29 0.45 -0.61 0.89 -0.94 1.31 c-0.24 0.3 -0.5 0.6 -0.77 0.89 c-1.56 1.68 -3.5 3.02 -5.62 3.89 c0 -0.22 -0.01 -0.45 -0.02 -0.7 l-0.02 -0.29 c-0.09 -1.13 -0.32 -2.54 -0.68 -4.22 c3.34 -1.16 6.28 -2.83 8.32 -4.73 c0.01 0.13 0.03 0.26 0.04 0.39 M84.03 761.9 c1.36 1.91 2.34 3.9 2.91 5.92 c-1.96 1.97 -4.92 3.71 -8.36 4.91 c-0.52 -2.08 -1.16 -4.28 -1.9 -6.57 c2.98 -1.04 5.58 -2.55 7.35 -4.26 M88.79 770.78 c0 -0.28 -0.01 -0.57 -0.03 -0.85 c-0.02 -0.31 -0.06 -0.63 -0.11 -0.96 c0.33 -0.4 0.61 -0.8 0.85 -1.2 c-0.13 1.02 -0.37 2.03 -0.71 3.01 M86.57 756.56 c0.09 0.1 0.17 0.2 0.26 0.3 c1.34 1.9 2.22 4.03 2.6 6.32 c-0.07 1.08 -0.52 2.19 -1.36 3.32 c-0.63 -1.97 -1.65 -3.89 -3.03 -5.71 c1.13 -1.42 1.65 -2.87 1.53 -4.24 M66.77 779.83 c-2.34 -1.12 -4.34 -2.78 -5.87 -4.85 c1.18 0.65 2.62 1.13 4.28 1.42 c0.41 1.32 0.95 2.47 1.59 3.43 M64.48 765.59 c-2.38 -0.45 -4.17 -1.41 -5.05 -2.69 c0.95 -2.27 2.48 -4.4 4.41 -6.15 c0.57 0.65 1.47 1.12 2.63 1.38 c-0.95 2.29 -1.63 4.86 -1.98 7.47 M63.32 755.85 c-1.89 1.6 -3.43 3.53 -4.47 5.63 c-0.05 -0.32 -0.06 -0.65 -0.02 -0.98 c0.86 -2.34 2.3 -4.47 4.16 -6.16 c0.13 -0.09 0.28 -0.18 0.42 -0.27 c-0.24 0.62 -0.27 1.22 -0.09 1.79 M68.53 752.69 c-1.42 0.58 -2.76 1.32 -4 2.21 c-0.05 -0.51 0.15 -1.07 0.61 -1.64 c0.83 -0.28 1.73 -0.46 2.67 -0.53 c0.23 -0.02 0.47 -0.03 0.72 -0.03 M64.96 755.8 c1.3 -1.01 2.73 -1.85 4.25 -2.49 c-0.79 1.01 -1.51 2.19 -2.15 3.51 c-0.93 -0.19 -1.67 -0.55 -2.09 -1.02 M58.8 764.68 c1.12 1.29 3.05 2.25 5.49 2.7 c-0.11 1.43 -0.11 2.84 -0.01 4.19 c0.06 0.85 0.17 1.69 0.32 2.49 c-2.65 -0.52 -4.64 -1.52 -5.78 -2.92 c-0.19 -0.51 -0.35 -1.05 -0.49 -1.59 c-0.01 -0.09 -0.02 -0.16 -0.02 -0.23 c-0.11 -1.53 0.05 -3.09 0.49 -4.65 " style="fill:#d3d2d2;"/></g><text class="f5782 f5765" font-size="8.00" style="fill:#231f20"><tspan x="69.24" y="769.34" textLength="10.03" dx="0,0.56">42</tspan></text><text class="f1560 f5766" font-size="8.00" style="fill:#656263"><tspan x="87.25" y="769.13" textLength="97.51" class="f1561 f781" dx="0,0.56,0.56,0.56,0.56,0.56,0.56,0.56,0.56,0.56,0.56,0.56,0.56,0.56,0.56,0.56,0.56,0.56,0.56">GLOBAL TRENDS 2030:</tspan>
<tspan x="185.32" y="769.13" textLength="97.73" dx="0,0.56,0.56,-0.18,0.56,0.56,0.56,0.56,0.02,0.56,0.56,0.56,0.56,0.56,0.56,0.56,0.56,0.56,0.56"> ALTERNATIVE WORLDS</tspan></text>
<g mask="url(#Mask_15_66_2jt6Qd)" ><path d="M295.95 766.5 l292.19 0 " style="stroke:#918f8f;stroke-width:1.00;stroke-dasharray:0.001,1.994;stroke-linecap:round;stroke-linejoin:round;"/><path d="M293.95 766.5 M589.14 766.5 " style="stroke:#918f8f;stroke-width:1.00;stroke-linecap:round;stroke-linejoin:round;"/></g><path d="M75 732 l504 0 l0 -652.5 l-504 0 l0 652.5 z " style="fill:#fcf2e0;"/><text class="f1539 f823" font-size="11.00" style="fill:#2e2a2b"><tspan x="133.50" y="146.25" textLength="389.84" dx="0,0.22,0.22,0.22,0.2,0.22,0.22,0.22,0.22,0.2,0.22,0.22,0.22,0.22,0.22,0.22,0.22,0.2,0.02,0.22,0.22,0.22,0.22,0.22,0.22,0.22,0.22,0.2,0.22,0.02,0.22,0.22,0.2,0.22,0.22,0.22,0.2,0.22,0.22,0.22,0.22,0.22,0.02,0.22,0.22,0.22,0.22,0.2,0.22,0.22,0.22,0.22,0.22,0.2,0.22,0.22,0.22,0.22,0.02,0.22,0.2,0.22,0.2,0.22,0.22,0.22,0.22,0.22,0.22,0.22,0.22,0.22,0.22,0">The vast changes resulting from the megatrends alone ensure a transformed </tspan>
<tspan x="133.50" y="164.75" textLength="386.58" dx="0,0.22,0.22,0.22,0.22,0.22,0.22,0.22,0.22,0.22,0.22,0.22,0.22,0.22,0.22,0.22,0.22,0.22,0.22,0.22,0.22,0.22,0.22,0.22,0.22,0.22,0.22,0.22,0.22,0.22,0.22,0.22,0.22,0.22,0.22,0.22,0.22,0.22,0.22,0.22,0.22,0.22,0.22,0.22,0.22,0.22,0.22,0.22,0.22,0.22,0.22,0.22,0.22,0.22,0.22,0.22,0.22,0.22,0.22,0.22,0.22,0.22,0.22,0.22,0.22,0.22,0.22,0.22,0.22,0.22,0.22,0">world by 2030. How the game-changers sketched below evolve and interact </tspan>
<tspan x="133.50" y="183.25" textLength="351.59" dx="0,0.22,0.22,0.22,0.22,0.22,0.22,0.22,0.22,0.22,0.22,0.22,0.22,0.22,0.22,0.22,0.22,0.22,0.22,0.22,0.22,0.22,0.22,0.22,0.22,0.22,0.22,0.22,0.22,0.22,0.22,0.22,0.22,0.22,0.22,0.02,0.22,0.22,0.22,0.22,0.22,0.22,0.22,0.22,0.22,0.22,0.22,0.22,0.22,0.22,0.22,0.22,0.22,0.22,0.22,0.22,0.22,0.22,0.22,0.22,0.22,0.22,0.22,0.22,0.22,0.22,0.22,0">with each other and with the megatrends will determine what kind of </tspan>
<tspan x="133.50" y="201.76" textLength="378.1" dx="0,0.22,0.22,0.22,0.22,0.22,0.22,0.22,0.22,0.22,0.22,0.22,0.22,0.22,0.22,0.22,0.22,0.22,0.22,0.22,0.22,0.22,0.22,0.22,0.22,0.22,0.22,0.22,0.22,0.22,0.22,0.22,0.22,0.22,0.22,0.22,0.22,0.22,0.22,0.22,0.22,0.22,0.22,0.22,0.22,0.22,0.22,0.22,0.22,0.22,0.22,0.22,0.22,0.22,0.22,0.22,0.22,0.22,-0.79,0.22,0.22,0.22,0.22,0.22,0.22,0.22,0.22,0.22,0.22,0.22,0.22,0.22,0.22,0.22,0.22,0.22,0">transformed world we will inhabit in 2030. In this chapter, we drill down on </tspan>
<tspan x="133.50" y="220.26" textLength="120.92" class="f1524 f810" style="fill:#e6910d" dx="0,0.22,0.22,0.22,0.22,0.22,0.22,0.22,0.22,0.22,0.22,0.22,0.22,0.22,0.22,0.22,0.22,0.22,0.22,0.22,0.22">six key game-changers</tspan>
<tspan x="254.64" y="220.26" textLength="143.09" dx="0,0.22,0.22,0.22,0.22,0.22,0.22,0.22,0.22,0.22,0.22,0.22,0.22,0.22,0.22,0.22,0.22,0.22,0.22,0.22,0.22,0.22,0.22,0.22,0.22,0.22,0.22,0.22,0.22"> and their potential impacts:</tspan>
<tspan x="157.33" y="247.75" textLength="2.86"> </tspan>
<tspan x="151.50" y="247.75" textLength="5.5" class="f1597 f848">&#8226;</tspan>
<tspan x="160.50" y="247.75" textLength="182.95" class="f1479 f777" dx="0,0.33,0.33,0.33,0.33,0.33,0.33,0.33,0.33,0.33,0.33,0.33,0.33,0.13,0.33,0.33,0.33,0.33,0.33,0.33,0.33,0.33,0.33,0.33,0.33,0.33,0.33,0.33,0.33,0.33,0.33,-0.68">The Crisis-Prone Global Economy.</tspan>
<tspan x="343.78" y="247.75" textLength="131.0" dx="0,0.33,0.59,0.33,0.33,0.33,0.33,0.33,0.33,0.33,0.33,0.33,0.33,0.33,0.33,0.33,0.33,0.33,0.33,0.33,0.33,0.33,0.33,0"> Will divergences among </tspan>
<tspan x="160.50" y="266.25" textLength="350.01" dx="0,0.33,0.33,0.33,0.33,0.33,0.33,0.33,0.33,0.33,0.33,0.33,0.33,0.33,0.33,0.33,0.13,0.33,0.33,0.13,0.33,0.33,0.33,0.33,0.33,0.33,0.33,0.33,0.33,0.33,0.33,0.33,0.33,0.33,0.33,0.33,0.33,0.13,0.33,0.33,0.33,0.33,0.33,0.33,0.33,0.33,0.33,0.33,0.33,0.33,0.33,0.33,0.33,0.33,0.33,0.33,0.33,0.33,0.33,0.33,0.33,0.33,0.33,0.33,0.33,0.13,0.33,0.33,0.33,0.33,0">players with different economic interests and global volatility result </tspan>
<tspan x="160.50" y="284.75" textLength="323.41" dx="0,0.33,0.33,0.33,0.33,0.33,0.33,0.33,0.33,0.33,0.33,0.33,0.33,0.33,0.33,0.33,0.33,0.33,0.33,0.33,0.33,0.33,0.33,0.33,0.33,0.33,0.13,0.33,0.33,0.33,0.33,0.33,0.33,0.33,0.33,0.33,0.33,0.33,0.33,0.33,0.33,0.33,0.33,0.33,0.33,0.33,0.33,0.33,0.33,0.33,0.33,0.33,0.33,0.33,0.33,0.33,0.33,0.33,0.33,0">in a worldwide economic breakdown and collapse? Or will the </tspan>
<tspan x="160.50" y="303.26" textLength="355.37" dx="0,0.33,0.33,0.33,0.33,0.33,0.33,0.33,0.33,0.33,0.33,0.33,0.33,0.33,0.33,0.33,0.33,0.33,0.33,0.33,0.33,0.33,0.33,0.33,0.33,0.33,0.13,0.33,0.33,0.33,0.33,0.33,0.33,0.33,0.33,0.33,0.33,0.33,0.33,0.33,0.33,0.33,0.33,0.33,0.33,0.33,0.33,0.33,0.33,0.33,0.33,0.13,0.33,0.33,0.33,0.33,0.33,0.33,0.13,0.33,0.33,0.33,0.33,0.33,0.33,0.33,0.33,0">development of multiple growth centers lead to increased resiliency </tspan>
<tspan x="160.50" y="321.76" textLength="155.78" dx="0,0.33,0.33,0.33,0.33,0.33,0.33,0.33,0.33,0.33,0.33,0.33,0.33,0.33,0.33,0.33,0.33,0.33,0.33,0.33,0.33,0.33,0.33,0.33,0.33,0.13,0.33,0.33,0.33">in the global economic order?</tspan>
<tspan x="157.33" y="349.25" textLength="2.86"> </tspan>
<tspan x="151.50" y="349.25" textLength="5.5" class="f1597 f848">&#8226;</tspan>
<tspan x="160.50" y="349.25" textLength="117.96" class="f1479 f777" dx="0,0.33,0.33,0.33,0.33,0.33,0.33,0.33,0.33,0.53,0.33,0.33,0.33,0.33,0.33,0.33,0.33,0.33,0.33">The Governance Gap.</tspan>
<tspan x="278.79" y="349.25" textLength="228.48" dx="0,0.33,0.59,0.33,0.33,0.33,0.33,0.33,0.33,0.33,0.13,0.33,0.33,0.33,0.33,0.33,0.33,0.33,0.33,0.53,0.33,0.33,0.33,0.33,0.33,0.33,0.33,0.33,0.33,0.33,0.33,0.33,0.33,0.33,0.33,0.53,0.33,0.33,0.33,0.33,0.33,0.33,0.33,0"> Will current governments and international </tspan>
<tspan x="160.50" y="367.75" textLength="353.39" dx="0,0.33,0.33,0.33,0.33,0.33,0.33,0.33,0.33,0.33,0.33,0.33,0.33,0.33,0.33,0.33,0.33,0.33,0.33,0.33,0.33,0.33,0.33,0.33,0.33,0.33,0.33,0.33,0.33,0.33,0.33,0.33,0.33,0.33,0.33,0.33,0.33,0.33,0.33,0.33,0.33,0.33,0.33,0.33,0.33,0.33,0.33,0.33,0.53,0.33,0.33,0.33,0.33,0.33,0.33,0.33,0.33,0.33,0.33,0.33,0.33,0.33,0.33,0.33,0.33,0.33,0.33,0">institutions be able to adapt fast enough to harness change instead </tspan>
<tspan x="160.50" y="386.25" textLength="147.57" dx="0,0.33,0.33,0.33,0.33,0.33,0.33,0.33,0.33,0.33,0.33,0.33,0.33,0.33,0.33,0.33,0.33,0.33,0.33,0.33,0.33,0.33,0.33,0.33,0.33,0.33,0.33">of being overwhelmed by it?</tspan>
<tspan x="157.33" y="413.75" textLength="2.86"> </tspan>
<tspan x="151.50" y="413.75" textLength="5.5" class="f1597 f848">&#8226;</tspan>
<tspan x="160.50" y="413.75" textLength="197.04" class="f1479 f777" dx="0,0.33,0.33,0.33,0.33,0.33,0.33,0.33,0.33,0.33,0.33,0.33,0.33,0.33,0.33,0.33,0.33,0.33,0.33,0.33,0.33,0.33,0.13,0.33,0.33,0.33,0.33,0.33,0.33,0.33,0.33,0.33,0.33,0.33,0.33,0.33,0.33">The Potential for Increased Conflict.</tspan>
<tspan x="357.87" y="413.75" textLength="155.1" dx="0,0.33,0.59,0.33,0.33,0.33,0.33,0.33,0.33,0.33,0.33,0.33,0.33,0.33,0.33,0.33,0.33,0.33,0.33,0.33,0.33,0.33,0.33,0.33,0.33,0.33,0.33,0.33,0.33,0.33,0"> Will rapid changes and shifts </tspan>
<tspan x="160.50" y="432.25" textLength="293.51" dx="0,0.33,0.33,0.33,0.33,0.33,0.33,0.33,0.33,0.33,0.33,0.33,0.33,0.33,0.33,0.33,0.33,0.33,0.33,0.33,0.13,0.33,0.33,0.33,0.33,0.33,0.33,0.33,0.33,0.33,0.33,0.33,0.33,0.33,0.33,0.33,0.33,0.33,0.33,0.33,0.33,0.33,0.33,0.33,0.33,0.33,0.33,0.33,0.33,0.33,0.33,0.33,0.33,0.33,0.33,0.33,0.33,0.33">in power lead to more intrastate and interstate conflicts?</tspan>
<tspan x="157.33" y="459.75" textLength="2.86"> </tspan>
<tspan x="151.50" y="459.75" textLength="5.5" class="f1597 f848">&#8226;</tspan>
<tspan x="160.50" y="459.75" textLength="194.91" class="f1479 f777" dx="0,0.33,0.33,0.33,0.33,0.33,0.33,0.33,0.33,0.33,0.33,0.33,0.33,0.33,0.33,0.33,0.33,0.33,0.33,0.33,0.33,0.33,0.33,0.33,0.33,0.33,0.33,0.33,0.33,0.33,0.33,0.33,0.33,0.33,0.33,-0.68">Wider Scope of Regional Instability.</tspan>
<tspan x="355.74" y="459.75" textLength="120.45" dx="0,0.33,0.59,0.33,0.33,0.33,0.33,0.13,0.33,0.33,0.33,0.33,0.33,0.33,0.33,0.33,0.33,0.33,0.33,0.33,0.33,0.33,0.33,0.33,-0.68,0"> Will regional spillover, </tspan>
<tspan x="160.50" y="478.25" textLength="359.91" dx="0,0.33,0.33,0.33,0.33,0.33,0.33,0.33,0.33,0.33,0.33,0.33,0.33,0.33,0.33,0.33,0.33,0.33,0.33,0.33,0.33,0.33,0.33,0.33,0.33,0.33,0.33,0.33,0.33,0.33,0.33,0.33,0.33,0.33,0.33,0.33,0.33,0.33,0.33,0.33,0.33,0.33,0.33,0.33,0.33,0.33,0.33,0.33,0.33,0.33,0.33,0.33,0.33,0.33,0.33,0.33,0.33,0.33,0.33,0.33,0.33,0.33,0.33,0.33,0.33,0.33,0.33,0.33,0.33,0.33,0.33">especially in the Middle East and South Asia, cause global instability?</tspan>
<tspan x="157.33" y="505.75" textLength="2.86"> </tspan>
<tspan x="151.50" y="505.75" textLength="5.5" class="f1597 f848">&#8226;</tspan>
<tspan x="160.50" y="505.75" textLength="181.18" class="f1479 f777" dx="0,0.33,0.33,0.33,0.33,0.33,0.33,0.33,0.33,0.33,0.33,0.33,0.33,0.33,0.33,0.33,0.33,0.33,0.33,-0.89,0.33,0.33,0.33,0.33,0.33,0.33,0.33,0.33,0.33,0.33,0.33">The Impact of New Technologies.</tspan>
<tspan x="342.01" y="505.75" textLength="177.3" dx="0,0.33,0.59,0.33,0.33,0.33,0.33,0.33,0.33,0.33,0.33,0.33,0.33,0.33,0.33,0.33,0.33,0.33,0.33,0.33,0.33,0.33,0.13,0.33,0.33,0.33,0.33,0.33,0.13,0.33,0.33,0.33,0.33,0"> Will technological breakthroughs </tspan>
<tspan x="160.50" y="524.25" textLength="332.05" dx="0,0.33,0.33,0.33,0.33,0.33,0.33,0.33,0.33,0.33,0.33,0.33,0.33,0.33,0.33,0.33,0.33,0.33,0.33,0.33,0.33,0.33,0.33,0.33,0.33,0.33,0.33,0.33,0.33,0.33,0.33,0.33,0.33,0.33,0.33,0.33,0.33,0.33,0.33,0.33,0.33,0.13,0.33,0.33,0.33,0.33,0.33,0.33,0.33,0.33,0.33,0.33,0.33,0.33,0.33,0.33,0.33,0.33,0.33,0.33,0.33,0">be developed in time to boost economic productivity and solve </tspan>
<tspan x="160.50" y="542.75" textLength="309.67" dx="0,0.33,0.33,0.33,0.33,0.33,0.13,0.33,0.33,0.33,0.33,0.33,0.33,0.33,0.33,0.33,0.33,0.33,0.33,0.33,0.33,0.33,0.33,0.33,0.33,0.33,0.33,0.33,0.33,0.33,0.33,0.33,0.33,0.33,0.33,0.33,0.33,0.33,0.33,0.33,0.33,0.33,0.33,0.33,0.33,0.33,0.13,0.33,0.33,0.33,0.33,0.13,0.33,0.33,0.33,0.33,0.33,0.33,0">the problems caused by the strain on natural resources and </tspan>
<tspan x="160.50" y="561.26" textLength="343.53" dx="0,0.33,0.33,0.33,0.33,0.33,0.33,0.33,0.33,0.33,0.33,0.33,0.33,0.33,0.33,0.33,0.33,0.33,0.33,0.33,0.33,0.33,0.33,0.33,0.33,0.33,0.33,0.33,0.33,0.13,0.33,0.33,0.33,0.33,0.33,0.33,0.33,0.33,0.33,0.33,0.33,0.33,0.33,0.33,0.33,0.33,0.33,0.33,0.33,0.33,0.33,0.33,0.33,0.33,0.33,0.33,0.33,0.33,0.33,0.33,0.33,0.33,0.33,0.33,0.33,0">climate change as well as chronic disease, aging populations, and </tspan>
<tspan x="160.50" y="579.76" textLength="99.66" dx="0,0.33,0.33,0.33,0.33,0.33,0.33,0.33,0.33,0.33,0.33,0.33,0.33,0.33,0.33,0.33,0.33,0.33,0.33">rapid urbanization?</tspan>
<tspan x="157.33" y="607.25" textLength="2.86"> </tspan>
<tspan x="151.50" y="607.25" textLength="5.5" class="f1597 f848">&#8226;</tspan>
<tspan x="160.50" y="607.25" textLength="164.97" class="f1479 f777" dx="0,0.33,0.33,0.33,0.33,0.33,0.33,0.33,0.33,0.33,0.33,0.33,0.33,0.33,0.33,0.33,0.33,0.33,0.33,0.33,0.33,0.33,0.33,0.33,0.33,0.33,0.33,0.33,0.33,0.33">The Role of the United States.</tspan>
<tspan x="325.80" y="607.25" textLength="196.17" dx="0,0.33,0.59,0.33,0.33,0.33,0.33,0.33,0.33,0.33,0.33,0.33,0.33,0.33,0.33,0.33,0.33,0.33,0.33,0.33,0.33,0.33,0.33,0.33,0.33,0.33,0.33,0.33,0.33,0.33,0.33,0.33,0.33,0.33,0.33,0.33,0.33,0"> Will the US be able to work with new </tspan>
<tspan x="160.50" y="625.75" textLength="362.03" dx="0,0.33,0.33,0.33,0.33,0.33,0.33,0.33,0.33,0.33,0.33,0.33,0.33,0.13,0.33,0.33,0.33,0.33,0.33,0.33,0.33,0.33,0.33,0.33,0.33,0.33,0.33,0.33,0.33,0.33,0.53,0.33,0.33,0.33,0.33,0.33,0.33,0.33,0.33,0.33,0.33,0.33,0.33,0.33,0.33,0.33,0.33,0.33,0.33,0.33,0.33,0.33,0.33,0.33,0.33,0.33,0.33,0.33,0.33,0.33,0.33,0.33,0.33,0.33,0.13,0.33,0.33,0.33,0.33,0.33,0.33,0">partners to reinvent the international system, carving out new roles in </tspan>
<tspan x="160.50" y="644.25" textLength="136.4" dx="0,0.33,0.33,0.33,0.33,0.33,0.33,0.33,0.33,0.33,0.33,0.33,0.33,0.33,0.33,0.33,0.33,0.33,0.33,0.33,0.13,0.33,0.33,0.33">an expanded world order?</tspan></text>
<g style="blend-mode:multiply;" ><path d="M357.31 597.47 l-37.88 -67.32 c-0.4 -0.7 -1.15 -1.14 -1.95 -1.14 l-89.28 1.36 c-1.26 0.01 -2.19 1.07 -2.19 2.28 l-10.78 22.72 l-30.35 -17.6 c-0.67 -0.39 -1.52 -0.41 -2.21 -0.02 l-74.46 41.72 c-0.95 0.54 -1.37 1.68 -0.99 2.7 l-0.21 89.39 c0 0.8 0.42 1.54 1.11 1.94 l70.61 40.69 c0.16 1.57 1.9 2.48 3.3 1.71 l7.79 -4.38 l1.13 -0.63 l66.48 -37.38 c0.7 -0.4 1.14 -1.14 1.14 -1.95 l-0.02 -8.78 l56.03 -0.09 c0.75 0 1.44 -0.38 1.86 -1 l34.88 -52.95 l0.98 -1.49 l4.91 -7.46 c0.45 -0.69 0.5 -1.59 0.09 -2.32 M185.21 610.47 l-0.78 -1.4 l0.51 1.52 c-1.89 0.64 -4.05 0.82 -6.1 0.51 l-0.3 -0.04 l-0.27 -0.16 l-44.84 -26.37 l-0.34 -0.2 l-0.21 -0.34 c-0.95 -1.54 -0.83 -3.35 0.32 -4.84 l0.2 -0.26 l0.29 -0.16 l47.71 -26.73 l0.25 -0.14 l0.29 -0.04 c1.04 -0.16 2.05 -0.2 3.09 -0.12 l0.37 0.03 l0.32 0.18 l25.28 14.66 l21.31 12.35 l0.36 0.21 l0.22 0.37 c0.87 1.49 0.77 3.18 -0.29 4.64 l-0.21 0.29 l-0.31 0.17 l-9.37 5.18 l0.1 -0.18 c-0.73 0.52 -2.17 1.32 -5.08 2.92 l-11.59 6.41 l-20.93 11.56 z M246.74 661.41 l-0.1 0.27 c-1.06 2.91 -2.97 5.42 -5.1 6.71 c0 0 -12.03 7.29 -12.07 7.32 l-36 20.24 l-0.67 0.37 l-0.71 -0.28 c-0.38 -0.15 -0.72 -0.35 -1.04 -0.6 l-0.61 -0.48 l0 -0.78 c0 0 -0.13 -51.14 -0.13 -51.18 l0.21 -8.34 c0.11 -4.28 3.04 -9.12 6.67 -11.02 l43.92 -22.9 c1.61 -0.84 3.25 -0.91 4.61 -0.21 l0.86 0.45 l0 0.97 c0 0 0.06 21.71 0.06 21.69 l0.01 1.14 l0 0.27 l-0.08 0.25 c-0.01 0.03 0.09 3.64 0.09 3.68 l0.04 18.74 l0.03 13.39 l0 0.29 z M334.48 612.85 l-22.44 34.06 l-1.34 -0.88 l1.08 1.18 c-1.62 1.49 -3.9 2.77 -6.42 3.61 l-0.24 0.08 l-0.26 0 l-45.85 0.08 l-1.56 0 l-0.04 -1.56 l-0.54 -20.17 l-0.01 -0.53 l0.3 -0.43 c0 0 4.67 -6.71 4.69 -6.75 l6.5 -8.85 l0.23 -0.25 c2.1 -1.86 5.16 -3.33 8.38 -4.05 l0.34 -0.04 l52.61 -0.16 l0.35 0.04 c2.22 0.49 3.78 1.62 4.37 3.16 l0.29 0.77 l-0.45 0.68 z M336.56 585.37 c-0.48 2.3 -2.77 3.76 -5.97 3.81 c0 0 -11.58 0.17 -11.58 0.17 l-41.96 0.42 l-0.28 -0.02 c-3.67 -0.62 -7.08 -2.71 -8.48 -5.2 c0 0 -17.75 -31.31 -17.75 -31.32 l-3.03 -5.47 c-1 -2.3 -0.34 -4.48 1.61 -5.68 l0.38 -0.24 l0.44 -0.01 l58.64 -0.89 l0.28 0 l0.26 0.09 c1.43 0.49 2.78 1.2 3.91 2.07 l0.26 0.2 l0.16 0.29 l22.96 40.68 l0.3 0.53 l-0.13 0.59 z " style="fill:#fcf2e0;"/><path d="M180.79 568.39 c-5.81 0.01 -14.89 3.19 -14.15 10.51 c0.67 6.52 8.67 9.05 14.19 9.04 c5.82 -0.01 14.89 -3.19 14.15 -10.51 c-0.66 -6.52 -8.68 -9.05 -14.19 -9.04 " style="fill:#fcf2e0;"/><path d="M279.22 550 c-4.93 -1.44 -11.54 0.08 -13.16 5.57 c-1.61 5.5 3.15 10.36 8.07 11.79 c4.92 1.45 11.54 -0.08 13.15 -5.57 c1.61 -5.5 -3.15 -10.36 -8.07 -11.8 " style="fill:#fcf2e0;"/><path d="M302.92 564.64 c-5.13 2.68 -5.64 9.05 -1.88 13.16 c3.58 3.92 10 5.43 14.79 2.91 c5.14 -2.67 5.64 -9.05 1.88 -13.16 c-3.58 -3.92 -10 -5.42 -14.79 -2.91 " style="fill:#fcf2e0;"/><path d="M291.68 620.03 c-4.85 -0.09 -9.94 3.09 -10.56 8.19 c-0.71 5.86 4.78 10.15 10.23 10.25 c4.85 0.08 9.94 -3.1 10.56 -8.2 c0.71 -5.86 -4.77 -10.15 -10.22 -10.24 " style="fill:#fcf2e0;"/><path d="M205.84 628.59 c-12.24 1.91 -13.22 25.32 0.55 23.18 c12.24 -1.91 13.22 -25.33 -0.55 -23.18 " style="fill:#fcf2e0;"/><path d="M230.08 664.51 c11.28 -1.76 12.07 -23.23 -0.55 -21.26 c-11.28 1.76 -12.07 23.25 0.55 21.26 " style="fill:#fcf2e0;"/></g><path d="M15 21 l-15 0 M639 21 l15 0 M15 813 l-15 0 M639 813 l15 0 M21 15 l0 -15 M21 819 l0 15 M633 15 l0 -15 M633 819 l0 15 " style="stroke:#ffffff;stroke-width:1.25;"/><path d="M15 21 l-15 0 M639 21 l15 0 M15 813 l-15 0 M639 813 l15 0 M21 15 l0 -15 M21 819 l0 15 M633 15 l0 -15 M633 819 l0 15 " style="stroke:#000000;stroke-width:0.25;"/>
</svg>
