<svg class="crocodoc-2jt6Qd crocodoc-page-svg" version="1.1"
    xmlns="http://www.w3.org/2000/svg"
    xmlns:xlink="http://www.w3.org/1999/xlink"
    xmlns:xhtml="http://www.w3.org/1999/xhtml"
    xml:space="preserve" width="654.0pt" height="834.0pt" viewBox="0 0 654.0 834.0">
<xhtml:link href="stylesheet.css" type="text/css" rel="stylesheet" />
<style>
.crocodoc-2jt6Qd tspan { white-space:pre; }
.crocodoc-2jt6Qd path { fill:transparent; }

</style>
<defs>
<mask id="Mask_15_74_2jt6Qd">
<g ><path d="M3 831 l648 0 l0 -828 l-648 0 l0 828 " style="fill:url(#Grad_16_74_2jt6Qd);"/></g></mask>
<linearGradient id="Grad_16_74_2jt6Qd" x1="44.82%" y1="92.27%" x2="90.53%" y2="92.27%"><stop offset="0.00" style="stop-color:#ffffff" /><stop offset="0.25" style="stop-color:#eeeeee" /><stop offset="0.50" style="stop-color:#bdbdbd" /><stop offset="0.75" style="stop-color:#6d6d6d" /><stop offset="1.00" style="stop-color:#000000" /></linearGradient>
</defs>

<g style="opacity:0.40;" ><path d="M71.97 751.59 c0.77 -0.59 1.54 -1 2.32 -1.22 c0.78 0.14 1.43 0.38 1.9 0.71 c-0.44 0 -0.88 0.01 -1.32 0.05 c-0.96 0.07 -1.93 0.23 -2.9 0.46 M70.58 751.73 c-0.17 -0.35 -0.34 -0.64 -0.48 -0.88 c-0.05 -0.08 -0.1 -0.16 -0.15 -0.23 c0.57 -0.14 1.16 -0.25 1.75 -0.32 c0.08 -0.01 0.17 -0.02 0.26 -0.02 c0.12 -0.01 0.24 -0.02 0.35 -0.02 c-0.59 0.38 -1.17 0.87 -1.73 1.48 M71.79 756.57 c-0.73 0.19 -1.47 0.32 -2.2 0.38 c-0.46 0.03 -0.92 0.04 -1.37 0.01 c0.64 -1.48 1.37 -2.76 2.18 -3.83 c0.42 0.94 0.89 2.1 1.39 3.44 M72.35 752.35 c0.71 -0.14 1.42 -0.24 2.12 -0.29 c0.83 -0.06 1.66 -0.06 2.48 -0.01 c0.16 0.53 0.01 1.14 -0.44 1.76 c-1.37 -0.66 -2.77 -1.15 -4.16 -1.47 M77.8 754.49 c0.53 -0.76 0.75 -1.53 0.63 -2.26 c2.4 0.39 4.61 1.32 6.39 2.7 c0.59 1.34 0.26 2.92 -0.93 4.48 c-1.73 -1.95 -3.83 -3.65 -6.09 -4.92 M77.37 750.55 c1.2 0.27 2.36 0.68 3.46 1.22 c-0.91 -0.28 -1.86 -0.48 -2.85 -0.59 c-0.17 -0.23 -0.37 -0.44 -0.61 -0.63 M82.93 760.48 c-1.62 1.59 -4.03 2.99 -6.82 3.97 c-0.85 -2.48 -1.77 -4.88 -2.67 -6.97 c1.44 -0.53 2.71 -1.27 3.59 -2.11 c2.19 1.34 4.22 3.11 5.9 5.12 M67.37 751.87 c-0.23 0.02 -0.46 0.04 -0.69 0.07 c0.52 -0.33 1.13 -0.63 1.77 -0.88 c0.13 -0.05 0.25 -0.09 0.39 -0.13 c0.23 0.16 0.54 0.51 0.87 0.98 c-0.8 -0.09 -1.59 -0.1 -2.33 -0.05 M71.19 776.65 c2.06 -0.15 4.16 -0.53 6.23 -1.12 c0.37 1.66 0.63 3.04 0.77 4.12 l0.03 0.2 c0.03 0.28 0.06 0.5 0.07 0.71 c-1.08 0.5 -2.22 0.71 -3.36 0.79 c-1.93 0.14 -3.84 -0.05 -5.68 -0.59 c-0.12 -0.13 -0.17 -0.18 -0.22 -0.24 c-0.88 -1.02 -1.56 -2.31 -2.08 -3.9 c1.36 0.12 2.79 0.13 4.25 0.02 M76.89 773.26 c-2.03 0.58 -4.09 0.95 -6.12 1.11 c-1.53 0.12 -3.02 0.1 -4.42 -0.05 c-0.2 -0.98 -0.33 -2.01 -0.41 -3.07 c-0.09 -1.18 -0.1 -2.4 -0.05 -3.65 c1.22 0.12 2.5 0.13 3.81 0.03 c1.79 -0.13 3.61 -0.46 5.41 -0.97 c0.68 2.32 1.28 4.54 1.78 6.61 M69.56 765.83 c-1.22 0.09 -2.41 0.08 -3.54 -0.03 c0.26 -2.62 0.84 -5.21 1.67 -7.5 c0.61 0.05 1.25 0.06 1.91 0.01 c0.88 -0.07 1.78 -0.22 2.67 -0.46 c0.76 2.13 1.57 4.57 2.33 7.08 c-1.67 0.47 -3.36 0.77 -5.03 0.9 M72.89 756.23 c-0.58 -1.27 -1.13 -2.37 -1.64 -3.28 c1.49 0.33 3 0.89 4.5 1.67 c-0.73 0.64 -1.71 1.19 -2.85 1.6 M87.47 770.66 c0.09 1.23 -0.01 2.39 -0.3 3.44 c-0.29 0.45 -0.61 0.89 -0.94 1.31 c-0.24 0.3 -0.5 0.6 -0.77 0.89 c-1.56 1.68 -3.5 3.02 -5.62 3.89 c0 -0.22 -0.01 -0.45 -0.02 -0.7 l-0.02 -0.29 c-0.09 -1.13 -0.32 -2.54 -0.68 -4.22 c3.34 -1.16 6.28 -2.83 8.32 -4.73 c0.01 0.13 0.03 0.26 0.04 0.39 M84.03 761.9 c1.36 1.91 2.34 3.9 2.91 5.92 c-1.96 1.97 -4.92 3.71 -8.36 4.91 c-0.52 -2.08 -1.16 -4.28 -1.9 -6.57 c2.98 -1.04 5.58 -2.55 7.35 -4.26 M88.79 770.78 c0 -0.28 -0.01 -0.57 -0.03 -0.85 c-0.02 -0.31 -0.06 -0.63 -0.11 -0.96 c0.33 -0.4 0.61 -0.8 0.85 -1.2 c-0.13 1.02 -0.37 2.03 -0.71 3.01 M86.57 756.56 c0.09 0.1 0.17 0.2 0.26 0.3 c1.34 1.9 2.22 4.03 2.6 6.32 c-0.07 1.08 -0.52 2.19 -1.36 3.32 c-0.63 -1.97 -1.65 -3.89 -3.03 -5.71 c1.13 -1.42 1.65 -2.87 1.53 -4.24 M66.77 779.83 c-2.34 -1.12 -4.34 -2.78 -5.87 -4.85 c1.18 0.65 2.62 1.13 4.28 1.42 c0.41 1.32 0.95 2.47 1.59 3.43 M64.48 765.59 c-2.38 -0.45 -4.17 -1.41 -5.05 -2.69 c0.95 -2.27 2.48 -4.4 4.41 -6.15 c0.57 0.65 1.47 1.12 2.63 1.38 c-0.95 2.29 -1.63 4.86 -1.98 7.47 M63.32 755.85 c-1.89 1.6 -3.43 3.53 -4.47 5.63 c-0.05 -0.32 -0.06 -0.65 -0.02 -0.98 c0.86 -2.34 2.3 -4.47 4.16 -6.16 c0.13 -0.09 0.28 -0.18 0.42 -0.27 c-0.24 0.62 -0.27 1.22 -0.09 1.79 M68.53 752.69 c-1.42 0.58 -2.76 1.32 -4 2.21 c-0.05 -0.51 0.15 -1.07 0.61 -1.64 c0.83 -0.28 1.73 -0.46 2.67 -0.53 c0.23 -0.02 0.47 -0.03 0.72 -0.03 M64.96 755.8 c1.3 -1.01 2.73 -1.85 4.25 -2.49 c-0.79 1.01 -1.51 2.19 -2.15 3.51 c-0.93 -0.19 -1.67 -0.55 -2.09 -1.02 M58.8 764.68 c1.12 1.29 3.05 2.25 5.49 2.7 c-0.11 1.43 -0.11 2.84 -0.01 4.19 c0.06 0.85 0.17 1.69 0.32 2.49 c-2.65 -0.52 -4.64 -1.52 -5.78 -2.92 c-0.19 -0.51 -0.35 -1.05 -0.49 -1.59 c-0.01 -0.09 -0.02 -0.16 -0.02 -0.23 c-0.11 -1.53 0.05 -3.09 0.49 -4.65 " style="fill:#d3d2d2;"/></g><text class="f5782 f5765" font-size="8.00" style="fill:#231f20"><tspan x="69.24" y="769.34" textLength="10.03" dx="0,0.56">50</tspan></text><text class="f1560 f5766" font-size="8.00" style="fill:#656263"><tspan x="87.25" y="769.13" textLength="97.51" class="f1561 f781" dx="0,0.56,0.56,0.56,0.56,0.56,0.56,0.56,0.56,0.56,0.56,0.56,0.56,0.56,0.56,0.56,0.56,0.56,0.56">GLOBAL TRENDS 2030:</tspan>
<tspan x="185.32" y="769.13" textLength="97.73" dx="0,0.56,0.56,-0.18,0.56,0.56,0.56,0.56,0.02,0.56,0.56,0.56,0.56,0.56,0.56,0.56,0.56,0.56,0.56"> ALTERNATIVE WORLDS</tspan></text>
<g mask="url(#Mask_15_74_2jt6Qd)" ><path d="M295.95 766.5 l292.19 0 " style="stroke:#918f8f;stroke-width:1.00;stroke-dasharray:0.001,1.994;stroke-linecap:round;stroke-linejoin:round;"/><path d="M293.95 766.5 M589.14 766.5 " style="stroke:#918f8f;stroke-width:1.00;stroke-linecap:round;stroke-linejoin:round;"/></g><text class="f1489 f786" font-size="10.00" style="fill:#231f20"><tspan x="340.50" y="91.00" textLength="227.11" dx="0,0.13,-0.01,0.01,0,0,-0.67,0.17,0.15,0,0,-0.08,0.05,-0.06,0.2,0.26,0.5,-0.75,0,0,0,0,-0.03,0.11,0.04,0.18,0.27,-0.03,-0.28,-0.1,0.15,-0.05,-0.08,0.03,0.24,0,0,-0.05,-0.03,0,0,0.03,-0.02,0.28,0.27,0.14,0.21,-0.06,-0.46">late 19th century, a leading&#8212;though not dominant&#8212;</tspan>
<tspan x="340.50" y="105.00" textLength="236.72" dx="0,0.25,-0.06,-0.01,0.06,0.21,0,0,0.12,0.26,0.3,0.06,0.05,-0.05,0.26,0,0,-0.22,0.15,-0.02,0,0,0.03,-0.04,0.28,0.13,0.2,-0.46,0,0,0.15,0.01,0,0,0.06,0.05,0.15,0.2,0.27,-0.01,0,0,-0.08,0,0,0,0.21,-0.06,-0.02,-0.03,0.09,0.03,-0.03,0.03,0">global currency (the dollar) may remain, but alongside </tspan>
<tspan x="340.50" y="119.00" textLength="225.73" dx="0,-0.03,0.15,-0.02,0.08,0.18,-0.08,0,0,0.24,-0.02,0,0,0.04,0.05,0.09,0.05,-0.05,-0.08,0,0,-0.03,0,0,0,0,0.01,-0.03,0.11,0.2,0,0,-0.02,0.03,-0.06,0.05,-0.04,-0.02,0.27,-0.03,0,0,0.01,-0.11,-0.02,-0.05,-0.02,0.28,-0.03,0">others. The absence of a clear hegemonic economic </tspan>
<tspan x="340.50" y="133.00" textLength="203.96" dx="0,0.05,-0.11,-0.14,0.08,-0.15,-0.02,0.18,0,0,0.06,0.04,-0.06,0.06,0.08,0.09,0.05,-0.06,0.01,0.03,0,0,-0.06,0,0,0.21,0,0,0.28,0.27,0.31,0.04,0.08,0.21,0.28,-0.03,0.03,0,0,0.25,-0.06,-0.01,0.06,0.21,0">power&#8212;as represented by an unrivalled global </tspan>
<tspan x="340.50" y="147.00" textLength="234.27" dx="0,0.12,0.26,0.3,0.06,0.05,-0.05,0.26,-0.39,0.08,-0.11,-0.08,0.28,-0.03,0,0,0.27,0,0,0.2,0.26,0.29,0,0,0.04,0.03,0,0,-0.04,0,0,-0.1,-0.04,0.13,-0.01,0.13,0.28,0.26,-0.07,0.34,0,0,0.18,0,0,0.27,0,0,0.15,-0.02,0,0,0.13,-0.01,0.01,0">currency&#8212;could in turn add to volatility as in the late </tspan>
<tspan x="340.50" y="161.00" textLength="239.47" dx="0,-0.67,0.17,0.15,0,0,-0.08,0.05,-0.06,0.2,0.26,0.49,-0.79,0,0,0.24,-0.02,0,0,0.08,0.2,0.31,-0.06,-0.08,0.15,0,0,-0.07,0.13,0.01,-0.12,0.08,0.18,0,0,-0.1,0.26,0.18,0.06,0.04,0.03,0,0,0.15,-0.02,0.08,0.26,0,0,-0.03,0.07,0.01,0.07,0.13,0.21,0">19th century. The various players pursued their special </tspan>
<tspan x="340.50" y="175.00" textLength="240.63" dx="0,0.27,-0.06,0.01,0.08,0.06,0.08,0.05,0.15,0,0,0.16,-0.07,0.15,0,0,0.26,-0.07,0.19,0.15,-0.03,0,0,0.31,0.14,0,0,0,-0.03,0,0,0.21,-0.04,0,0,0.05,0.33,-0.09,-0.03,0.03,-0.08,0.05,-0.01,0.05,-0.06,0,0,-0.03,0,0,-0.11,-0.02,0.29,-0.04,-0.02,0">interests with little risk of any enforcement of common </tspan>
<tspan x="340.50" y="189.00" textLength="145.15" dx="0,0.35,0.28,-0.03,0.08,0,0,-0.06,0,0,0.21,0,0,-0.11,-0.09,0.08,0.46,0.02,-0.02,-0.04,0.27,0.28,0.27,-0.03,0,0,0.05,-0.11,-0.14,0.08,-0.48">rules by an overwhelming power.</tspan>
<tspan x="340.50" y="217.00" textLength="209.38" dx="0,0.06,0,0,-0.11,-0.08,0.26,0.18,0.09,-0.07,0,0,0.15,-0.02,0,0,0.34,0,0.2,0.26,0.06,0,0,0.16,0.28,0.28,0,0,-0.05,-0.03,0,0,-0.01,0.15,0.03,0.13,0.15,0.06,0,0,0.06,0.04,0.07,0.11,-0.01,0,0,0.15,-0.02,0">Of course, the future will not exactly repeat the </tspan>
<tspan x="340.50" y="231.00" textLength="231.73" dx="0,0.03,0.18,0.05,0.04,0,0,0.15,-0.02,0.08,0.06,0,0,0.2,0.06,0,0,0.09,-0.03,0.15,0,0,0.06,0.11,0.18,0.08,-0.02,0.15,0,0,-0.04,0,0,0.09,-0.04,0.26,-0.03,0.07,-0.09,0,0,0.15,0.14,-0.01,0,0,0.15,-0.02,0,0,0.25,-0.06,-0.01,0.06,0.21,0">past: there are both reasons to believe that the global </tspan>
<tspan x="340.50" y="245.00" textLength="238.32" dx="0,0.01,-0.11,-0.02,-0.05,-0.02,-0.01,0,0,0.16,0.28,0.28,0,0,0.09,0,0,0.05,0.14,0.06,-0.02,-0.03,-0.06,0.07,0,0,0.15,0.14,0.21,0,0,0.27,0,0,0.15,-0.02,0,0,0.13,-0.01,0.01,0,0,-0.67,0.17,0.15,0,0,-0.08,0.05,-0.06,0.2,0.26,0.5,0">economy will be stronger than in the late 19th century </tspan>
<tspan x="340.50" y="259.00" textLength="219.27" dx="0,0.21,-0.02,0,0,0.21,0.14,0.08,0,0,0.03,-0.07,0.2,0.18,-0.01,0.13,-0.06,-0.02,0.15,0,0,0.27,0,0,0.02,0.27,-0.03,0.01,0,0,-0.07,0,0,-0.11,-0.08,0.28,-0.03,0,0,0.09,0.01,-0.11,-0.02,-0.01,0,0,-0.04,-0.03,0.06,0">and also situations in which it could become more </tspan>
<tspan x="340.50" y="273.00" textLength="240.32" dx="0,0.07,0.31,0.14,0.03,0.14,0.28,0.08,-0.06,0.06,-0.02,-0.02,-0.11,0,0,-0.61,0,0,0.14,-0.02,-0.09,0,0,0,0,0.05,0.14,0.06,-0.02,-0.03,-0.06,0.08,0,0,0.25,-0.06,-0.01,0.06,0.21,0,0,0.29,0.14,0.21,-0.05,0.07,0.13,0.21,0,0,0.2,0.07,0.05,0.01,0.05,0">crisis-prone. We have a stronger global &#59904;nancial system </tspan>
<tspan x="340.50" y="287.00" textLength="224.98" dx="0,-0.09,-0.03,0,0,0.03,0.11,0.21,0.26,0.27,-0.03,0,0,0.16,-0.07,0.15,0,0,0.05,0.14,0.06,0.08,0.11,0.09,0.08,0,0,0.15,0.14,0.21,0,0,-0.14,0,0,0.18,-0.03,0,0,0.27,0,0,0.11,0.2,0.02,0.26,-0.03,0.08,0,0,0.08,0.22,0.18,-0.08,0">for dealing with stresses than we did in earlier eras. </tspan>
<tspan x="340.50" y="301.00" textLength="215.89" dx="0,0.24,-0.02,0,0,-0.09,-0.04,-0.03,0,0,0.05,0.18,0.21,-0.02,0.17,0.2,0.05,0,0,0.18,-0.03,0,0,-0.05,-0.03,0,0,0.21,0.28,-0.06,-0.11,0,0,-0.09,-0.03,0,0,0,0,0.05,0.18,0.04,-0.03,0.28,0.26,0.18,0.11,-0.01,0.13,-0.06,-0.02,0">The gold standard did not allow for a stabilization </tspan>
<tspan x="340.50" y="315.00" textLength="221.89" dx="0,0.05,-0.04,0.26,-0.03,0.26,0,0,-0.06,0,0,-0.08,0.05,-0.06,0.14,0.22,0.21,0,0,0.06,0.21,0.29,0.19,-0.04,0,0,0.03,-0.09,-0.08,0.05,-0.07,0.2,0.18,-0.01,0.13,0.27,-0.03,0,0,0.15,-0.02,0,0,-0.09,-0.04,0.13,-0.01,0.13,0.28,0.26,-0.07,0.34,-0.79,0">policy by central banks, accentuating the volatility. </tspan>
<tspan x="340.50" y="329.00" textLength="204.05" dx="0,0.09,0.06,0.03,0.19,-0.04,-0.02,0,0,-0.61,0.07,0.09,0.14,0,0,0.27,0.15,0.05,0.13,-0.07,0.2,0,0.13,-0.06,-0.02,0.15,0,0,-0.22,0.15,-0.02,0,0,0.23,0.23,0,0,0.21,-0.02,0,0,-0.61,-0.03,0.02,-0.03,0">Bretton Woods institutions (the IMF and World </tspan>
<tspan x="340.50" y="343.00" textLength="230.58" dx="0,0.15,0.21,0.29,-0.36,0.57,-0.38,0.02,0.27,-0.03,0.01,0,0,0.06,0.03,-0.03,0.01,-0.08,0,0,0.15,-0.02,0,0,0.31,0.14,0,0,0,-0.03,0,0,-0.03,-0.05,0.28,0.28,-0.06,-0.11,-0.09,0.08,0,0,0.2,0.06,-0.02,0,0,0.16,0.09,0.06,0.21,0">Bank)&#8212;which reduce the risk of spillover from &#59904;scal </tspan>
<tspan x="340.50" y="357.00" textLength="230.11" dx="0,0.21,-0.02,0,0,-0.03,0.15,-0.02,0.07,0,0,0.07,0.31,0.14,0.09,0.08,0,0.08,0.18,-0.03,0,0,-0.05,-0.03,0,0,-0.01,0.28,0.14,0.05,-0.05,0,0,-0.05,-0.11,-0.14,0.07,-0.09,0.08,-0.44,0,0,0.15,-0.02,0,0,0.03,0.03,0.23,0.06,0.03,0">and other crises&#8212;did not exist. However, the degree </tspan>
<tspan x="340.50" y="371.00" textLength="214.32" dx="0,-0.04,0,0,0.02,0.27,-0.03,0.01,0,0,0.15,-0.02,0,0,0.05,-0.01,0.08,0.16,0.23,0.27,-0.03,0,0,0.05,-0.11,-0.14,0.08,0.18,0,0,-0.14,-0.08,0.28,-0.03,0,0,0.21,-0.03,0.06,0,0,0.15,-0.02,0.08,0.09,0">to which the emerging powers would view these </tspan>
<tspan x="340.50" y="385.00" textLength="232.99" dx="0,-0.03,0.31,-0.04,0.23,0.27,0.14,0.21,0.28,0.06,0,0,-0.61,0.08,0.05,0.01,0.08,0.29,0.17,0.35,0.08,0.05,0.18,0.04,-0.04,0.26,0.14,-0.01,-0.02,0.03,0,0,0.09,0.09,0.18,-0.03,0.08,0,0,0.16,-0.07,0.15,0,0,-0.03,0.03,0.23,-0.07,0.13,0.27,0.15,0.03,0.26,0">originally Western-established bodies with legitimacy </tspan>
<tspan x="340.50" y="399.00" textLength="238.47" dx="0,0.21,-0.02,0,-0.04,0.03,-0.01,-0.09,0.08,0.06,0.05,-0.05,-0.08,0,-0.04,0.27,0,-0.04,0,-0.04,0.34,0.28,0.28,0.16,0,-0.04,0.09,0.06,0.21,-0.03,0,-0.04,0.01,-0.11,-0.02,-0.05,-0.02,0.28,-0.03,0,-0.04,0.07,0.31,0.14,0.03,0.14,0,-0.04,0.14,0,-0.04,0.28,-0.05,0.01,-0.03,0.11,0.2,-0.48">and deference in a full- scale economic crisis is unclear.</tspan>
<tspan x="340.50" y="427.00" textLength="221.83" dx="0,0.24,-0.02,0,0,0.12,0.26,0.3,0.06,0.05,-0.06,0,0,0.27,0.15,0.05,0.13,-0.07,0.2,0,0.13,-0.06,-0.02,0.14,0.21,0,0,0.21,0.22,0.21,-0.01,0.06,-0.14,-0.03,0.03,0,0,0.14,0,0,-0.05,-0.03,0,0,0.26,0.28,-0.18,-0.04,0.06,0,0,-0.04,0">The current institutional framework is not likely to </tspan>
<tspan x="340.50" y="441.00" textLength="233.12" dx="0,0.16,-0.07,0.15,0.15,0.05,0.18,0.21,-0.02,0,0,0.15,-0.02,0,0,0.28,0.29,-0.03,0.11,0.18,-0.01,0.27,0.27,-0.03,0,0,-0.03,0,0,0,0,0.15,-0.06,-0.01,-0.03,0,0,-0.11,-0.02,0.34,0.28,-0.03,0.13,0,0,0.09,0.03,0.31,-0.14,0.03,0.05,0">withstand the unleashing of a major con&#59905;ict between </tspan>
<tspan x="340.50" y="455.00" textLength="222.4" dx="0,0.15,-0.02,0,0,-0.03,-0.04,0,0,0.01,-0.11,-0.02,-0.05,-0.02,0.28,-0.03,0,0,-0.07,0.13,0.01,-0.12,0.08,0.18,-0.08,0,0,0.12,0.08,-0.03,-0.05,-0.07,0.01,0,0,0.21,0.28,0,0,0.15,-0.02,0,0,0.01,-0.11,-0.02,-0.05,-0.02,0.28,-0.03,0">the big economic players. Despite all the economic </tspan>
<tspan x="340.50" y="469.00" textLength="235.42" dx="0,0.27,-0.06,0.01,0.03,0.23,0.22,-0.01,0.13,-0.06,-0.02,0,0,-0.03,0.26,0.31,0.27,-0.03,0,0,0.15,-0.02,0,0,0.13,-0.01,0.01,0,0,-0.67,0.17,0.15,0,0,-0.08,0.05,-0.06,0.2,0.26,0.5,0,0,0.19,-0.04,0.28,-0.03,0,0,0.08,0.05,0.09,0,0.04,-0.07,0">integration during the late 19th century Belle Epoque, </tspan>
<tspan x="340.50" y="483.00" textLength="224.84" dx="0,0.15,-0.02,0,0,0.28,0.18,0.05,0,0,0.25,-0.06,-0.01,0.06,0.21,0.26,0.18,0.11,-0.01,0.13,-0.06,-0.02,0,0,-0.03,-0.1,0.26,0.36,0,0,0.04,0.18,0,0,0.28,-0.02,0.03,-0.02,-0.02,0,0,-0.06,0,0,0.15,-0.02,0,0,-0.11,0.26,0.18,0.05,0">the &#59904;rst globalization spurt was undone by the First </tspan>
<tspan x="340.50" y="497.00" textLength="212.46" dx="0,-0.61,-0.03,0.02,-0.03,0,0,-0.5,0.2,0,0,0.21,-0.02,0,0,-0.67,-0.1,0.01,0.19,-0.22,0,0,0.04,0.06,0.11,-0.01,0,0,0.12,0.04,-0.06,0.06,0.08,0.11,0.03,-0.06,-0.02,-0.04,0,0,0.24,0,0,-0.14,-0.13,-0.15,0.28,0">World War and 1930s&#8217; Great Depression. As we&#8217;ll </tspan>
<tspan x="340.50" y="511.00" textLength="230.18" dx="0,-0.01,0.07,-0.07,-0.06,-0.03,0.06,0,0,0.27,0,0,0,0,0.13,-0.01,0.01,0.08,0,0,0.09,0.01,0.13,0.13,-0.06,-0.02,-0.01,0,0,0.27,0,0,0.15,-0.02,0,0,-0.02,-0.01,0.25,0,0,-0.11,-0.08,-0.05,-0.07,-0.03,0,0,0.03,0.01,0.06,0.04,0.03,0.08,0">explore in a later section, in the next couple decades </tspan>
<tspan x="340.50" y="525.00" textLength="227.65" dx="0,-0.11,-0.02,0.34,0.28,-0.03,0.13,0,0,0.27,-0.07,-0.09,-0.04,0.04,0.21,0.27,-0.03,0,0,0.23,0.06,0.11,-0.01,0,0,0.05,-0.11,-0.14,0.08,0.18,0,0,0.14,0,0,-0.05,-0.03,0,0,0.27,-0.05,-0.11,-0.02,-0.05,-0.08,0.08,0.04,0.08,0.04,-0.04,-0.03,-0.07,0">con&#59905;ict involving great powers is not inconceivable, </tspan>
<tspan x="340.50" y="539.00" textLength="223.54" dx="0,-0.08,0,0,0,0.32,0,0,0.06,0.01,0.01,0,0,0,0,-0.11,-0.02,0.34,0.28,-0.03,0.13,0,0,0.03,0.09,0.08,0,0,0.07,-0.09,0.12,0.26,-0.44,0,0,-0.07,0,0,0.21,0.27,-0.04,0.05,0.05,0,0,-0.08,0.08,0.36,0.18,0.2,0.27,0.29,0.06,0">but if such a con&#59905;ict does occur, it almost certainly </tspan>
<tspan x="340.50" y="553.00" textLength="229.36" dx="0,0.16,0.28,0.28,0,0,-0.05,-0.03,0,0,0.09,0,0,-0.02,0,0,0.15,-0.02,0,0,-0.03,0.07,-0.09,-0.04,0,0,-0.03,0,0,0,0,-0.14,-0.03,0.02,-0.03,0,0,0.04,0.2,0,0,0.16,-0.07,0.15,0,0,0.21,0.28,0,0,0.15,-0.06,-0.01,-0.03,0">will not be on the level of a world war with all major </tspan>
<tspan x="340.50" y="567.00" textLength="72.83" dx="0,0.05,-0.11,-0.14,0.07,0.18,0,0,0.05,-0.03,0.08,0.12,-0.06,0.03,0.03">powers engaged.</tspan>
<tspan x="340.50" y="595.00" textLength="231.84" dx="0,-0.11,0.27,0.14,0.21,0.28,0.06,-0.75,0,0,-0.14,0,0,0.2,0.06,0,0,0.18,0.11,0.06,0.28,0.28,0.27,-0.03,0,0,0.15,0.14,-0.01,0,0,0.15,-0.02,0,0,-0.02,0.06,0,0,-0.05,-0.03,0.29,0.15,0.21,-0.13,-0.02,0.22,0.03,0.09,0.08,-0.07,0">Finally, we are assuming that the new normal&#8212;albeit </tspan>
<tspan x="340.50" y="609.00" textLength="224.07" dx="0,-0.04,-0.03,0.06,0,0,0.21,0.22,0.12,0.23,0.28,-0.03,0,0,0.21,-0.02,0,0,-0.09,-0.04,0.13,-0.01,0.13,0.28,-0.03,0,0,0.15,0.14,0.21,0,0,0.15,-0.02,0,0,0.04,0.06,0.11,-0.01,0,0,-0.04,0.09,0.03,0.08,0.22,-0.01,0.13,-0.06,-0.02,0">more fragile and volatile than the Great Moderation </tspan>
<tspan x="340.50" y="623.00" textLength="218.51" dx="0,-0.03,0,0,0.15,-0.02,0,0,-0.06,0.06,0.21,-0.26,0.08,0.27,0.21,0,0,0.07,0.08,0.31,-0.06,0.09,-0.1,-0.38,-0.14,-0.08,0.28,-0.03,0,0,0.09,0,0,0.06,0.18,0.09,0.03,0,0,-0.02,0,0,0.03,0.13,0.13,0.04,-0.09,0">of the pre-2008 period&#8212;would be based on active </tspan>
<tspan x="340.50" y="637.00" textLength="232.89" dx="0,0.06,-0.05,-0.09,0.05,-0.03,0.36,0,0,-0.03,0,0,0.15,-0.02,0,0,0.05,-0.01,0.08,0.16,0.23,0.27,-0.03,0,0,0.05,-0.11,-0.14,0.08,0.18,-0.08,0,0,0.24,0,0,0.03,0.08,0.09,0.07,0.31,0.03,0.09,0.03,0,0,0.04,0.09,-0.11,-0.09,-0.07,0">support of the emerging powers. As described above, </tspan>
<tspan x="340.50" y="651.00" textLength="214.97" dx="0,-0.02,-0.02,0,0,-0.11,-0.08,0.28,-0.03,0,0,0.05,-0.07,0.21,0.14,0.09,0.12,-0.06,0,0,-0.01,0.08,0.03,0.06,0.21,-0.06,0.13,0.28,0.26,0.14,0.05,0,0,0.21,-0.02,0,0,-0.06,0.06,-0.03,0.01,0.01,0.13,0.13,-0.06,-0.02,0.27,0.14,0.05,0">one could envisage mercantilist and protectionist </tspan>
<tspan x="340.50" y="665.00" textLength="208.13" dx="0,-0.06,0.06,0.08,0.11,0.06,0.26,0.06,0.08,0,0,0.23,0.06,-0.11,0.16,0.27,-0.03,0,0,-0.04,0,0,-0.03,0.06,0.11,0.22,0,0,0.03,-0.11,0.16,0,0,0.25,-0.06,-0.01,0.06,0.21,0.26,0.18,0.11,-0.01,0.13,-0.06,-0.02,-0.01,0">pressures growing to break down globalization, </tspan>
<tspan x="340.50" y="679.00" textLength="223.32" dx="0,0.03,0.2,0.36,0.13,-0.03,0.12,0.28,0.13,0.2,0.02,0.06,0,0,0.32,0,0,-0.11,-0.08,-0.05,-0.07,-0.03,0.03,0,0,0.16,-0.07,0.15,0,0,0.31,0.14,0.03,0.27,-0.03,0,0,0.05,-0.04,0.26,-0.07,0.13,-0.03,0.06,0.21,0,0,0.01,0.05,0.15,0.03,-0.06,-0.02,0.15,0">particularly if coupled with rising political tensions </tspan>
<tspan x="340.50" y="693.00" textLength="111.99" dx="0,0.16,-0.07,0.15,0,0,-0.02,0.08,-0.04,0.24,0.04,0.09,-0.03,0.18,0,0,0.21,-0.02,0,0,0.31,0.04,0.08,0.21,0.14,-0.08">with neighbors and rivals.</tspan></text><text class="f1489 f786" font-size="10.00" style="fill:#231f20"><tspan x="75.00" y="91.00" textLength="231.83" dx="0,-0.01,0.11,0.21,0,0,0,0,0.09,0.07,0.22,0.21,0.05,-0.04,-0.03,0,0,-0.09,-0.03,0,0,0.22,-0.02,0,0,0.15,-0.01,0.01,0.08,0.31,0.13,0.21,0.14,0,0,0.21,-0.02,0,0,0.15,0.21,-0.12,0.33,0.08,0.03,0.13,0.2,0.26,0.06,0.03,0">mean a scramble for raw materials and manufactured </tspan>
<tspan x="75.00" y="105.00" textLength="234.32" dx="0,-0.09,0.07,0.09,0.14,-0.08,0,0,0.08,-0.07,0.15,0,0,0.23,0.06,0.11,-0.01,0.01,0.08,0,0,0.03,0.05,0.15,0.21,-0.02,0,0,-0.09,-0.03,0,0,-0.06,0.06,0.09,-0.03,0.01,0.13,0.15,-0.04,0,0,0.01,-0.11,-0.02,-0.05,-0.02,0.28,0.14,0.05,0.15,0">goods. With greater demand for products, economists </tspan>
<tspan x="75.00" y="119.00" textLength="223.06" dx="0,-0.14,-0.03,0.3,0.5,0,0,0.15,0.14,-0.01,0,0,0.15,-0.02,0,0,-0.12,0.28,0.05,0.09,0.08,0,0,-0.03,0,0,0.09,-0.03,0.19,0.15,-0.03,0.05,-0.02,0.01,0.02,0.19,0,0,0.16,0.28,0.28,0,0,0.27,-0.05,0.07,0.06,0.11,0.18,0.09,0">worry that the number of bottlenecks will increase </tspan>
<tspan x="75.00" y="133.00" textLength="232.27" dx="0,0.15,0.2,0.03,-0.18,0.03,0.2,0.06,0,0,0.21,-0.02,0,0,0.15,0.14,-0.01,0,0,0.06,-0.05,-0.09,-0.07,0.06,0,0,-0.03,0,0,0.06,0.08,0.08,-0.08,0.26,0.03,-0.08,0.08,0,0,0.21,-0.02,0,0,-0.09,0.07,0.09,0.14,0,0,0.16,0.28,0.28,0">markedly and that supply of resources and goods will </tspan>
<tspan x="75.00" y="147.00" textLength="227.42" dx="0,0.08,0.03,-0.08,0,0,-0.01,0,0,-0.03,0.11,0.18,0.05,0,0,0.01,0.05,-0.08,0.05,-0.03,0.22,0.2,0.5,0,0,-0.11,-0.02,0.15,0.05,0.14,0.22,0.2,0.27,-0.06,0.15,-0.08,0,0,0.24,0.27,0.14,0,0,-0.11,-0.08,0.28,-0.03,0,0,-0.01,0.11,0.21,0">face at least temporary constraints. This could mean </tspan>
<tspan x="75.00" y="161.00" textLength="214.34" dx="0,0.15,0.14,-0.01,0,0,0.15,-0.02,0,0,-0.03,0.26,0.22,-0.01,0.13,-0.06,-0.02,0.15,0,0,-0.03,0,0,-0.08,0.15,0.03,0.27,-0.02,0.08,0.11,0,0,0.26,-0.17,0.01,-0.03,0.08,0,0,0.16,0.28,0.28,0,0,0.09,0.01,-0.11,-0.02,-0.01,0">that the durations of business cycles will become </tspan>
<tspan x="75.00" y="175.00" textLength="235.66" dx="0,0.03,-0.04,0.24,0.27,0.33,-0.01,0.06,0.21,-0.07,0.15,0.06,0,0,-0.01,-0.05,-0.03,0.36,0.01,0.08,0,0,0.21,-0.02,0,0,0.15,0.14,-0.01,0,0,0.15,-0.02,0.1,0,0,0.16,0.28,0.28,0,0,0.09,0,0,-0.03,0.08,0.11,0,0,0.02,-0.04,0.07,-0.03,0.15,-0.04,0">signi&#59904;cantly shorter and that they will be less smooth. </tspan>
<tspan x="75.00" y="189.00" textLength="228.59" dx="0,0.06,-0.02,-0.08,0.07,0.02,0.13,-0.07,0.13,-0.06,-0.02,0,0,-0.11,-0.09,0.08,0,0,0.06,0.08,0.08,-0.08,0.26,0.03,-0.08,0.08,0,0,0.28,-0.04,0.24,-0.06,0,0,-0.03,0.11,0.04,0,0,-0.09,-0.11,-0.09,0.08,0.29,0.28,-0.01,0.05,-0.07,0.15,0">Competition over resources might lead governments </tspan>
<tspan x="75.00" y="203.00" textLength="225.26" dx="0,-0.04,0,0,0.09,0.01,-0.11,-0.02,-0.01,0,0,0.27,-0.05,0.07,0.06,0.11,0.18,0.03,0.27,-0.03,0.25,0.06,0,0,0.27,-0.07,-0.09,-0.04,0.04,-0.09,0.03,0,0,0.27,0,0,0.15,0.21,0.14,0.12,0.23,0.27,-0.03,0,0,0.15,-0.02,0.05,0,0">to become increasingly involved in managing them, </tspan>
<tspan x="75.00" y="217.00" textLength="239.84" dx="0,0.22,0.21,-0.08,-0.05,0.27,-0.03,0,0,-0.05,0,0,0.01,0.05,0.15,0.03,-0.06,-0.02,0.15,0,0,0.16,-0.07,0.15,0,0,-0.03,0.15,-0.02,0.08,0,0,-0.11,-0.08,0.28,-0.06,0.14,0.31,-0.03,0.08,0,0,0.55,0.18,0.27,-0.03,0,0,-0.09,-0.03,0,0,0.15,-0.02,0">ramping up tensions with other countries vying for the </tspan>
<tspan x="75.00" y="231.00" textLength="68.43" dx="0,0.09,0.21,-0.01,0,0,0.06,0.08,0.08,-0.08,0.26,0.03,-0.08,0.08,-0.08">same resources.</tspan></text><text class="f1549 f829" font-size="12.00" style="fill:#e6910d"><tspan x="75.00" y="264.00" textLength="216.47">&#8220;Up to now less than one billion people </tspan>
<tspan x="81.00" y="281.00" textLength="199.33" dx="0,0,0,0,0,0,0,0,0,0,0,0,0,0,0,0,0,0,0,0,0,0,-0.22,0,0,0,0,0,0,0,0,0,0,0,0,0,0">have accounted for three-quarters of </tspan>
<tspan x="81.00" y="298.01" textLength="221.76">global consumption; during the next two </tspan>
<tspan x="81.00" y="315.01" textLength="198.73">decades, new and expanded middle </tspan>
<tspan x="81.00" y="332.02" textLength="204.23">classes in the developing world could </tspan>
<tspan x="81.00" y="349.02" textLength="213.98" dx="0,0,-0.22,0,0,0,0,0,0,0,0,0,0,0,0,0,0,0,0,0,0,0,0,0,0,0,0,0,0,0,0,0,0,0,0,0,0,0,0,0,0">create as many as two billion additional </tspan>
<tspan x="81.00" y="366.02" textLength="184.93">consumers. Such an explosion will </tspan>
<tspan x="81.00" y="383.03" textLength="209.54">mean a scramble for raw materials and </tspan>
<tspan x="81.00" y="400.03" textLength="124.03" dx="0,0,0,0,0,0,0,0,0,0,-0.22,0,0,0,0,0,0,0,0,0,0">manufactured goods.&#8221; </tspan></text><text class="f1489 f786" font-size="10.00" style="fill:#231f20"><tspan x="75.00" y="427.00" textLength="220.41" dx="0,0.25,0.27,-0.09,0.01,0.13,0.13,0.04,-0.09,0,0,0.25,-0.06,-0.01,0.06,0.21,0,0,-0.09,-0.11,-0.09,0.08,0.29,0.14,0.21,-0.05,-0.08,0,0,-0.14,-0.08,0.28,-0.03,0,0,0.09,0,0,-0.02,0.01,-0.08,0.08,0.11,0.09,0.2,0.5,0,0,-0.04,0">Effective global governance would be necessary to </tspan>
<tspan x="75.00" y="441.00" textLength="226.05" dx="0,-0.02,-0.09,-0.03,-0.03,0,0,0.06,0.01,0.01,0,0,0.01,0.05,0.15,0.03,-0.06,-0.02,0.15,0,0,0.08,0.09,0.06,0.21,0.13,-0.01,0.13,0.27,-0.03,0,0,0.21,-0.02,0,0,-0.04,0,0,0.05,0.15,0.06,0.26,0.06,0,0,0.12,0.08,0.2,0.27,0.15,0.05,0">avoid such tensions escalating and to ensure against </tspan>
<tspan x="75.00" y="455.00" textLength="231.84" dx="0,0.31,0.14,0,0.19,0,0,-0.03,0,0,-0.01,0.08,0.03,0.06,0.21,-0.06,0.13,0.28,0.26,0.14,0.02,0,0,0.21,-0.02,0,0,-0.06,0.06,-0.03,0.01,0.01,0.13,0.13,-0.06,-0.02,0.27,0.14,0.02,0,0,0.27,0.33,-0.09,0.01,0.13,0.13,0.27,-0.03,0,0,0.15,-0.02,0">risks of mercantilism and protectionism infecting the </tspan>
<tspan x="75.00" y="469.00" textLength="233.12" dx="0,0.25,-0.06,-0.01,0.06,0.21,0,0,0.01,-0.11,-0.02,-0.05,-0.02,-0.01,-0.79,0,0,-0.04,0.01,0.01,0,0,0.31,0.14,0,0.19,0,0,0.2,0.06,0,0,0.23,0.06,0.11,-0.01,0.01,0.08,0,0,0.27,0,0,0,0,-0.11,0.28,-0.07,0.13,-0.09,0.05,-0.04,0.13,0.2,0">global economy. Such risks are greater in a multipolar </tspan>
<tspan x="75.00" y="483.00" textLength="233.32" dx="0,-0.14,-0.03,0.02,-0.03,0,0,0.15,0.2,0.03,-0.18,0.03,0,0,-0.06,0,0,0.16,-0.03,0.03,0,0,0.18,0.04,-0.09,0.08,0.16,-0.06,0.05,-0.05,-0.08,0.08,0,0,0.27,0,0,0.03,-0.02,-0.01,0.08,0.05,0.13,-0.03,0,0,-0.09,-0.03,0.29,0.16,0">world marked by wide divergences in domestic forms </tspan>
<tspan x="75.00" y="497.00" textLength="239.21" dx="0,-0.03,0,0,0.06,-0.07,-0.05,-0.07,0.18,0.21,0.26,0.14,0.02,0,0,0.21,-0.02,0,0,0.18,0.32,0.27,-0.09,0.08,0.06,0.05,-0.05,-0.08,0.08,0,0,0.06,0.03,0.08,0.2,0.05,0.18,0.27,-0.03,0,0,-0.05,-0.11,0,0,-0.04,0,0,0.15,0.21,0.14,0.12,-0.06,0">of capitalism and differences regarding how to manage </tspan>
<tspan x="75.00" y="511.00" textLength="228.86" dx="0,0.15,-0.02,0,0,0.27,-0.06,0.01,0.08,0.29,0.14,-0.01,0.13,-0.06,-0.02,0.14,0.21,0,0,0.2,0.07,0.05,0.01,0.05,-0.03,0,0,0.38,-0.04,0,0,0.01,-0.11,-0.02,-0.05,-0.02,0.28,-0.03,0,0,-0.03,0.06,0.11,0.22,-0.17,0.03,-0.11,0.16,0.15,0">the international system. Any economic breakdowns </tspan>
<tspan x="75.00" y="525.00" textLength="235.47" dx="0,0.27,0,0,-0.18,0.1,0,0,-0.11,-0.08,0.28,-0.06,0.14,0.31,-0.03,0.08,0,0,0.06,0.01,0.01,0,0,0.18,0,0,0.05,0.27,0.27,0.14,0,0,-0.14,-0.08,0.28,-0.03,0,0,0.09,0,0,0.26,0.28,-0.18,-0.04,0.06,0,0,-0.04,0,0,-0.03,-0.1,0.26,0">in key countries such as China would be likely to spur </tspan>
<tspan x="75.00" y="539.00" textLength="237.06" dx="0,0.05,-0.04,0.26,-0.07,0.13,-0.03,0.06,0.21,0,0,0.18,0.14,0,0.35,-0.05,-0.05,0.13,-0.06,-0.02,-0.01,0,0,0.02,0.27,-0.03,0.01,0,0,-0.14,-0.08,0.28,-0.03,0,0,-0.11,-0.02,-0.08,-0.07,0.26,-0.03,0.06,-0.01,0.01,0,0,0.06,0.01,-0.11,-0.11,-0.09,0.08,0.5,0">political disruption, which would complicate recovery </tspan>
<tspan x="75.00" y="553.00" textLength="209.26" dx="0,0.21,-0.02,0,0,0.05,-0.03,0.01,0.05,-0.07,0.13,0.13,0.21,0.28,0.06,0,0,0.26,0.27,0.28,-0.07,0,0,0.15,-0.02,0,0,0.04,-0.03,0.28,0.26,-0.07,0.34,0,0,-0.03,0,0,-0.03,0.15,-0.02,0.08,0.18,0,0,-0.04,0,0,-0.02,-0.04,-0.09,-0.31">and potentially limit the ability of others to help.</tspan>
<tspan x="75.00" y="581.00" textLength="231.12" dx="0,0.22,-0.06,0.01,0.08,0.06,0.08,0.05,0,0,0.22,-0.01,0.01,0.08,0,0,0.15,0.01,0,0,0.27,-0.05,0.07,0.06,0.11,0.18,0.09,0,0,0.16,-0.07,0.15,0,0,0.27,0.05,0.06,0.21,0.13,0.21,-0.05,-0.08,0.08,0,0,0.09,0.03,0.31,-0.14,0.03,0.05,0">Interest rates may increase with imbalances between </tspan>
<tspan x="75.00" y="595.00" textLength="228.98" dx="0,0.11,0.18,0.03,0.28,0.06,0,0,-0.02,0.08,0.19,0.28,0.13,0.04,-0.04,-0.03,0,0,0.06,-0.05,-0.09,-0.07,0.26,-0.03,0.08,0,0,0.21,-0.02,0,0,0.23,0.06,-0.11,0.16,0.27,-0.03,0,0,0.03,0.05,0.15,0.21,-0.02,0,0,-0.03,0,0,0.22,-0.02,0">easily available supplies and growing demand of raw </tspan>
<tspan x="75.00" y="609.00" textLength="238.62" dx="0,0.15,-0.01,0.01,0.08,0.31,0.13,0.21,0.14,-0.08,0,0,-0.2,-0.1,0.04,0.2,0.05,0,0,-0.04,-0.11,-0.09,0.05,-0.01,0.05,-0.06,0,0,0.27,0,0,0.27,-0.06,0.01,0.08,0.06,0.08,0.05,0,0,0.22,-0.01,0.01,0.08,0,0,0.15,0.01,0,0,0.21,0.14,0.08,0">materials. Upward movement in interest rates may also </tspan>
<tspan x="75.00" y="623.00" textLength="231.32" dx="0,0.09,0,0,-0.1,0.15,-0.01,-0.02,0.03,0,0,-0.06,0,0,0,0,0.03,0.01,0.01,0.26,0.27,-0.02,0,0,0.27,0,0,0.25,-0.06,-0.01,0.06,0.21,0,0,0.09,-0.02,0.21,0.27,-0.03,0.09,0,0,0.06,-0.07,0.03,0.02,0.07,-0.07,0.13,-0.03,0.08,0,0,0.18,0">be pushed by a decline in global savings capacities as </tspan>
<tspan x="75.00" y="637.00" textLength="238.21" dx="0,0.31,0.14,0.03,0.27,-0.03,0,0,0.28,-0.03,0.03,0.2,-0.03,0,0,0.01,0.13,0.18,0.11,0.09,0.08,0,0,0.27,0,0,0.15,-0.02,0,0,0.03,0.07,-0.09,-0.04,-0.06,-0.07,-0.05,0.27,-0.03,0,0,-0.14,-0.03,0.02,-0.03,0,0,-0.11,-0.02,0.15,0.06,0.28,-0.01,0">rising middle classes in the developing world consume </tspan>
<tspan x="75.00" y="651.00" textLength="225.34" dx="0,-0.04,-0.03,0.06,0,0,0.21,-0.02,0,0,0.12,0.23,0.27,-0.03,0,0,0.05,-0.07,-0.1,0.28,0.13,-0.01,0.13,-0.06,-0.02,0.15,0,0,0.27,0,0,0.15,-0.02,0,0,0.03,0.07,-0.09,-0.04,-0.06,-0.07,0.07,0.03,0,0,-0.14,-0.03,0.02,-0.03,0">more and aging populations in the developed world </tspan>
<tspan x="75.00" y="665.00" textLength="227.08" dx="0,0.09,0.03,0.23,0.27,0,0,-0.04,0,0,0.19,0.22,-0.02,0,0,0.03,-0.11,0.16,0,0,0.15,-0.02,0.08,0.26,0,0,0.09,-0.02,0.2,0.27,-0.03,0.09,-0.08,0,0,0.09,-0.02,-0.01,0,0,0.01,-0.11,-0.02,-0.05,-0.02,0.28,0.14,0.05,0.15,0">begin to draw down their savings. Some economists </tspan>
<tspan x="75.00" y="679.00" textLength="203.98" dx="0,0.21,0.14,0.08,0,0,-0.01,0.07,0.07,0.01,0.13,0,0,0.23,0.06,-0.11,0.16,0.27,-0.03,0,0,0.27,-0.05,-0.08,0.05,-0.06,0.13,0.04,-0.09,0.08,0,0,-0.09,-0.03,0,0,0.27,-0.07,-0.09,0.08,0.05,-0.04,-0.03,0.18,0,0,-0.04,0">also expect growing incentives for investors to </tspan>
<tspan x="75.00" y="693.00" textLength="231.09" dx="0,0.18,0.04,-0.09,0.08,0.18,0.03,0.32,0.48,-0.79,0,0,0.08,-0.07,0.15,0,0,-0.06,-0.02,-0.03,0.01,0.09,0.35,0.28,0,0,0.23,0.06,-0.11,0.36,0.15,0,0,0.14,0.06,0.05,-0.02,0.14,0,0,0.18,0.04,-0.09,0.08,0.16,0.23,0.27,-0.03,0.04,0,0,0.15,-0.02,0">diversify. With long-run growth trends diverging, the </tspan>
<tspan x="75.00" y="707.00" textLength="224.75" dx="0,0.06,-0.04,0.13,-0.01,0.13,0.04,-0.09,0,0,-0.01,0.19,0.14,0.22,0.03,0.13,0.13,0.04,-0.09,0.05,-0.02,0.08,0.11,0,0,-0.03,0,0,-0.61,0.08,0.05,0.01,0.08,0.29,0,0,0.09,-0.02,-0.02,0.14,0,0,0.18,0,0,-0.07,-0.09,0.05,0.05,0.09,0.03,0">relative attractiveness of Western bonds as opposed </tspan>
<tspan x="75.00" y="721.00" textLength="226.44" dx="0,-0.04,0,0,0.05,-0.01,0.08,0.16,0.23,0.27,-0.03,0,0,0.15,0.2,0.03,-0.18,0.03,0.15,0,0,0.16,0.28,0.28,0,0,0.09,0.03,0.23,0.27,0,0,-0.04,0,0,0.03,0.01,0.01,0.26,0.27,-0.02,-0.11,0,0,0.24,0,0,0.27,0,0,0.15,-0.02,0">to emerging markets will begin to decline. As in the </tspan></text><path d="M15 21 l-15 0 M639 21 l15 0 M15 813 l-15 0 M639 813 l15 0 M21 15 l0 -15 M21 819 l0 15 M633 15 l0 -15 M633 819 l0 15 " style="stroke:#ffffff;stroke-width:1.25;"/><path d="M15 21 l-15 0 M639 21 l15 0 M15 813 l-15 0 M639 813 l15 0 M21 15 l0 -15 M21 819 l0 15 M633 15 l0 -15 M633 819 l0 15 " style="stroke:#000000;stroke-width:0.25;"/>
</svg>
