<svg class="crocodoc-2jt6Qd crocodoc-page-svg" version="1.1"
    xmlns="http://www.w3.org/2000/svg"
    xmlns:xlink="http://www.w3.org/1999/xlink"
    xmlns:xhtml="http://www.w3.org/1999/xhtml"
    xml:space="preserve" width="654.0pt" height="834.0pt" viewBox="0 0 654.0 834.0">
<xhtml:link href="stylesheet.css" type="text/css" rel="stylesheet" />
<style>
.crocodoc-2jt6Qd tspan { white-space:pre; }
.crocodoc-2jt6Qd path { fill:transparent; }

</style>
<defs>
<linearGradient id="Grad_15_164_2jt6Qd" x1="44.82%" y1="92.27%" x2="90.53%" y2="92.27%"><stop offset="0.00" style="stop-color:#ffffff" /><stop offset="0.25" style="stop-color:#eeeeee" /><stop offset="0.50" style="stop-color:#bdbdbd" /><stop offset="0.75" style="stop-color:#6d6d6d" /><stop offset="1.00" style="stop-color:#000000" /></linearGradient>
<mask id="Mask_14_164_2jt6Qd">
<g ><path d="M3 831 l648 0 l0 -828 l-648 0 l0 828 " style="fill:url(#Grad_15_164_2jt6Qd);"/></g></mask>
</defs>

<g style="opacity:0.40;" ><path d="M71.97 751.59 c0.77 -0.59 1.54 -1 2.32 -1.22 c0.78 0.14 1.43 0.38 1.9 0.71 c-0.44 0 -0.88 0.01 -1.32 0.05 c-0.96 0.07 -1.93 0.23 -2.9 0.46 M70.58 751.73 c-0.17 -0.35 -0.34 -0.64 -0.48 -0.88 c-0.05 -0.08 -0.1 -0.16 -0.15 -0.23 c0.57 -0.14 1.16 -0.25 1.75 -0.32 c0.08 -0.01 0.17 -0.02 0.26 -0.02 c0.12 -0.01 0.24 -0.02 0.35 -0.02 c-0.59 0.38 -1.17 0.87 -1.73 1.48 M71.79 756.57 c-0.73 0.19 -1.47 0.32 -2.2 0.38 c-0.46 0.03 -0.92 0.04 -1.37 0.01 c0.64 -1.48 1.37 -2.76 2.18 -3.83 c0.42 0.94 0.89 2.1 1.39 3.44 M72.35 752.35 c0.71 -0.14 1.42 -0.24 2.12 -0.29 c0.83 -0.06 1.66 -0.06 2.48 -0.01 c0.16 0.53 0.01 1.14 -0.44 1.76 c-1.37 -0.66 -2.77 -1.15 -4.16 -1.47 M77.8 754.49 c0.53 -0.76 0.75 -1.53 0.63 -2.26 c2.4 0.39 4.61 1.32 6.39 2.7 c0.59 1.34 0.26 2.92 -0.93 4.48 c-1.73 -1.95 -3.83 -3.65 -6.09 -4.92 M77.37 750.55 c1.2 0.27 2.36 0.68 3.46 1.22 c-0.91 -0.28 -1.86 -0.48 -2.85 -0.59 c-0.17 -0.23 -0.37 -0.44 -0.61 -0.63 M82.93 760.48 c-1.62 1.59 -4.03 2.99 -6.82 3.97 c-0.85 -2.48 -1.77 -4.88 -2.67 -6.97 c1.44 -0.53 2.71 -1.27 3.59 -2.11 c2.19 1.34 4.22 3.11 5.9 5.12 M67.37 751.87 c-0.23 0.02 -0.46 0.04 -0.69 0.07 c0.52 -0.33 1.13 -0.63 1.77 -0.88 c0.13 -0.05 0.25 -0.09 0.39 -0.13 c0.23 0.16 0.54 0.51 0.87 0.98 c-0.8 -0.09 -1.59 -0.1 -2.33 -0.05 M71.19 776.65 c2.06 -0.15 4.16 -0.53 6.23 -1.12 c0.37 1.66 0.63 3.04 0.77 4.12 l0.03 0.2 c0.03 0.28 0.06 0.5 0.07 0.71 c-1.08 0.5 -2.22 0.71 -3.36 0.79 c-1.93 0.14 -3.84 -0.05 -5.68 -0.59 c-0.12 -0.13 -0.17 -0.18 -0.22 -0.24 c-0.88 -1.02 -1.56 -2.31 -2.08 -3.9 c1.36 0.12 2.79 0.13 4.25 0.02 M76.89 773.26 c-2.03 0.58 -4.09 0.95 -6.12 1.11 c-1.53 0.12 -3.02 0.1 -4.42 -0.05 c-0.2 -0.98 -0.33 -2.01 -0.41 -3.07 c-0.09 -1.18 -0.1 -2.4 -0.05 -3.65 c1.22 0.12 2.5 0.13 3.81 0.03 c1.79 -0.13 3.61 -0.46 5.41 -0.97 c0.68 2.32 1.28 4.54 1.78 6.61 M69.56 765.83 c-1.22 0.09 -2.41 0.08 -3.54 -0.03 c0.26 -2.62 0.84 -5.21 1.67 -7.5 c0.61 0.05 1.25 0.06 1.91 0.01 c0.88 -0.07 1.78 -0.22 2.67 -0.46 c0.76 2.13 1.57 4.57 2.33 7.08 c-1.67 0.47 -3.36 0.77 -5.03 0.9 M72.89 756.23 c-0.58 -1.27 -1.13 -2.37 -1.64 -3.28 c1.49 0.33 3 0.89 4.5 1.67 c-0.73 0.64 -1.71 1.19 -2.85 1.6 M87.47 770.66 c0.09 1.23 -0.01 2.39 -0.3 3.44 c-0.29 0.45 -0.61 0.89 -0.94 1.31 c-0.24 0.3 -0.5 0.6 -0.77 0.89 c-1.56 1.68 -3.5 3.02 -5.62 3.89 c0 -0.22 -0.01 -0.45 -0.02 -0.7 l-0.02 -0.29 c-0.09 -1.13 -0.32 -2.54 -0.68 -4.22 c3.34 -1.16 6.28 -2.83 8.32 -4.73 c0.01 0.13 0.03 0.26 0.04 0.39 M84.03 761.9 c1.36 1.91 2.34 3.9 2.91 5.92 c-1.96 1.97 -4.92 3.71 -8.36 4.91 c-0.52 -2.08 -1.16 -4.28 -1.9 -6.57 c2.98 -1.04 5.58 -2.55 7.35 -4.26 M88.79 770.78 c0 -0.28 -0.01 -0.57 -0.03 -0.85 c-0.02 -0.31 -0.06 -0.63 -0.11 -0.96 c0.33 -0.4 0.61 -0.8 0.85 -1.2 c-0.13 1.02 -0.37 2.03 -0.71 3.01 M86.57 756.56 c0.09 0.1 0.17 0.2 0.26 0.3 c1.34 1.9 2.22 4.03 2.6 6.32 c-0.07 1.08 -0.52 2.19 -1.36 3.32 c-0.63 -1.97 -1.65 -3.89 -3.03 -5.71 c1.13 -1.42 1.65 -2.87 1.53 -4.24 M66.77 779.83 c-2.34 -1.12 -4.34 -2.78 -5.87 -4.85 c1.18 0.65 2.62 1.13 4.28 1.42 c0.41 1.32 0.95 2.47 1.59 3.43 M64.48 765.59 c-2.38 -0.45 -4.17 -1.41 -5.05 -2.69 c0.95 -2.27 2.48 -4.4 4.41 -6.15 c0.57 0.65 1.47 1.12 2.63 1.38 c-0.95 2.29 -1.63 4.86 -1.98 7.47 M63.32 755.85 c-1.89 1.6 -3.43 3.53 -4.47 5.63 c-0.05 -0.32 -0.06 -0.65 -0.02 -0.98 c0.86 -2.34 2.3 -4.47 4.16 -6.16 c0.13 -0.09 0.28 -0.18 0.42 -0.27 c-0.24 0.62 -0.27 1.22 -0.09 1.79 M68.53 752.69 c-1.42 0.58 -2.76 1.32 -4 2.21 c-0.05 -0.51 0.15 -1.07 0.61 -1.64 c0.83 -0.28 1.73 -0.46 2.67 -0.53 c0.23 -0.02 0.47 -0.03 0.72 -0.03 M64.96 755.8 c1.3 -1.01 2.73 -1.85 4.25 -2.49 c-0.79 1.01 -1.51 2.19 -2.15 3.51 c-0.93 -0.19 -1.67 -0.55 -2.09 -1.02 M58.8 764.68 c1.12 1.29 3.05 2.25 5.49 2.7 c-0.11 1.43 -0.11 2.84 -0.01 4.19 c0.06 0.85 0.17 1.69 0.32 2.49 c-2.65 -0.52 -4.64 -1.52 -5.78 -2.92 c-0.19 -0.51 -0.35 -1.05 -0.49 -1.59 c-0.01 -0.09 -0.02 -0.16 -0.02 -0.23 c-0.11 -1.53 0.05 -3.09 0.49 -4.65 " style="fill:#d3d2d2;"/></g><text class="f5782 f5765" font-size="8.00" style="fill:#231f20"><tspan x="66.59" y="769.34" textLength="15.33" dx="0,0.56,0.56">140</tspan></text>
<g mask="url(#Mask_14_164_2jt6Qd)" ><path d="M295.95 766.5 l292.19 0 " style="stroke:#918f8f;stroke-width:1.00;stroke-dasharray:0.001,1.994;stroke-linecap:round;stroke-linejoin:round;"/><path d="M293.95 766.5 M589.14 766.5 " style="stroke:#918f8f;stroke-width:1.00;stroke-linecap:round;stroke-linejoin:round;"/></g><text class="f1485 f781" font-size="8.00" style="fill:#656263"><tspan x="87.25" y="769.13" textLength="97.51" dx="0,0.56,0.56,0.56,0.56,0.56,0.56,0.56,0.56,0.56,0.56,0.56,0.56,0.56,0.56,0.56,0.56,0.56,0.56">GLOBAL TRENDS 2030:</tspan>
<tspan x="185.32" y="769.13" textLength="100.25" class="f5785 f5766" dx="0,0.56,0.56,0.56,0.56,0.56,0.56,0.56,0.56,0.56,0.56,0.56,0.56,0.56,0.56,0.56,0.56"> ACKNOWLEDGEMENTS</tspan></text><text class="f5785 f5766" font-size="9.00" style="fill:#231f20"><tspan x="75.00" y="86.25" textLength="211.72" dx="0,0.11,0.1,0.16,0.07,0.11,0.03,0.13,0,0,0.03,0.18,0.11,0.05,0.13,0.31,0,0,0.02,0,0,0.05,0.07,-0.04,0.11,0.01,-0.23,0,0,0.06,0.21,0,0,0.12,0.15,0.08,0.03,0.12,0.13,0.1,0.13,0,0,0.25,0.14,0.08,0.23,-0.4,0">compared results of IMEMO&#8217;s own published study, </tspan>
<tspan x="75.00" y="98.25" textLength="86.72" class="f1539 f823" dx="0,0.03,0.05,0.18,0.01,0.09,0,0,0.14,0.04,-0.04,0.05,0.11,0.13,0,0,0.2,0.07,0.32,0.07">Global Outlook 2030,</tspan>
<tspan x="161.72" y="98.25" textLength="37.5" dx="0,0,0.14,0.13,0.14,0,0,0.12,0.1,0"> with our </tspan>
<tspan x="199.23" y="98.25" textLength="78.47" class="f1539 f823" dx="0,0.03,0.05,0.18,0.01,0.09,0,0,-0.57,-0.15,0.14,0.1,0.25,0,0,0.2,0.07,0.32">Global Trends 2030</tspan>
<tspan x="277.71" y="98.25" textLength="24.5" dx="0,0,0.17,0.17,0.08,0.46,0.11"> draft.</tspan>
<tspan x="75.00" y="119.25" textLength="227.21" dx="0,-0.14,0,0,0.14,0.12,0.07,0.14,0.01,0.13,0,0,0.14,0.04,0.02,0.12,0.17,0.06,0,0,0.06,0.2,0.14,0.04,0.25,0.11,0,0,0.11,0.12,0.1,0.08,0.14,0.14,0.04,0.18,0,0,-0.01,0,0,0.12,0.06,0.07,0,0,0.03,0.04,0.09,0.46,0.1,0.05,0.1,0.14,0,0,-0.01,0">We visited several African countries to gain reactions to </tspan>
<tspan x="75.00" y="131.24" textLength="220.67" dx="0,0.14,0.1,0,0,0.17,0.17,0.08,0.46,0.11,0,0,0.07,0,0,0.11,0.12,0.16,0.14,0,0,0.06,0.2,0.14,0.04,0.25,-0.01,0,0,0.07,0,0,0.09,0.16,0.13,0.13,0.1,0.04,0.1,0,0,-0.01,0,0,0.12,0.13,0.09,0.1,0.07,0.05,0.23,0,0,0.14,0.13,0.14,0">the draft. In South Africa, in addition to meetings with </tspan>
<tspan x="75.00" y="143.24" textLength="222.74" dx="0,0.16,0.02,0.02,0.12,0.21,0.1,0.12,0.12,0.08,0,0,0.02,0.42,0.04,0.15,-0.02,0.06,0.12,0.05,0,0,0.09,0,0,0.1,0.09,0.07,0,0,0.12,0.13,0.09,0.1,0.07,0.05,0.23,0,0,0.14,0.13,0.14,0,0,0.14,0.1,0,0,0.11,0.12,0.16,0.14,0">government of&#59905;cials, we held meetings with the South </tspan>
<tspan x="75.00" y="155.24" textLength="218.1" dx="0,0.06,0.2,0.14,0.05,0.25,0,0,0.06,0.14,0.25,0.1,0.14,0.14,0.16,0.01,0,0,0.02,0,0,0.07,0.08,0.01,0.12,0.21,0.04,0.1,0.1,0.04,0.1,0.04,0.06,0,0,0.06,0.44,0.18,0.06,0.07,0.25,0,0,0.11,0.1,0,0,0.06,0.14,0.25,0.1,0.13,0.14,0.16,0.01,0,0,0.02,0">Africa Institute of International Affairs and Institute of </tspan>
<tspan x="75.00" y="167.24" textLength="217.59" dx="0,0.11,0.13,0.22,0.1,0.14,0.14,0.41,0,0,-0.05,0.14,0.08,0.13,0.04,0.18,0.05,0,0,0.07,0,0,0.04,0,0.18,0.12,0.14,-0.02,-0.01,0,0,0.09,0,0,0.12,0.09,0,0,0.14,0.13,0.14,0,0,0.16,0.02,0.02,0.12,0.21,0.1,0.12,0.12,0.08,0">Security Studies. In Nigeria, we met with government </tspan>
<tspan x="75.00" y="179.23" textLength="220.19" dx="0,0.02,0.42,0.04,0.15,-0.02,0.06,0.12,0,0,0.11,0.1,0,0,0.09,0.12,0.03,0,0,0.1,0.13,0.25,0.01,0.13,0,0,0.02,0,0,0.14,0.1,0,0,-0.03,0.12,0,0,0.08,0.04,0.11,0.05,0.11,0.05,0,0,0.16,0.12,0.08,0.14,0.03,-0.11,0">of&#59905;cials and were hosted by the Ken Nnamani Centre, </tspan>
<tspan x="75.00" y="191.23" textLength="201.58" dx="0,0.14,0.1,0,0,0.16,0.12,0.08,0.14,0.03,0,0,0.03,0.1,0,0,0.09,0.12,0.11,0.13,0.21,0.17,0.09,0.38,0,0,0.11,0.1,0,0,0.09,0.04,0.02,0.09,0.07,0.16,0.1,0.12,0.12,0.08,0.1,0,0,0.14,0.1,0">the Centre for Democracy and Development, the </tspan>
<tspan x="75.00" y="203.23" textLength="208.39" dx="0,0.07,0.14,0.25,0.1,0.14,0.14,0.16,0.01,0,0,0.03,0.1,0,0,-0.22,0.04,0.09,0.12,0,0,0.11,0.1,0,0,0.15,0.1,0.04,0.01,0.04,0.46,0,0,-0.04,0.18,0.13,0.08,0.07,0.16,0.1,0.04,0.1,-0.03,0,0,0.11,0.1,0,0,0.14,0.1,0">Institute for Peace and Con&#59904;ict Resolution, and the </tspan>
<tspan x="75.00" y="215.22" textLength="217.11" dx="0,0.16,0.12,0.08,0.14,0.03,0,0,0.03,0.1,0,0,0.14,0.1,0,0,-0.04,0.14,0.08,0.23,0,0,0.02,0,0,-0.07,0.11,0.1,0.1,0.1,0.05,0.04,0.18,0,0,0.02,0,0,0.06,0.2,0.14,0.04,0.25,0.11,0,0,0.4,0.22,-0.01,0.32,0.23,0.19,0">Centre for the Study of Economies of African (CSEA). </tspan>
<tspan x="75.00" y="227.22" textLength="219.03" dx="0,0.07,0,0,-0.03,0.12,0,0.13,-0.01,0,0,0.09,0,0,0.1,0.14,0.04,0.07,0.04,0.13,0,0,0.14,0.1,0,0,0.04,0.03,0.18,0.07,0.04,0.18,0.12,0.08,0.25,-0.23,0,0,0.03,0.1,0.1,0.04,0.1,0.04,0.06,0,0,0.11,0.13,0.22,0.1,0.14,0.13,0.4,0">In Kenya, we briefed the President&#8217;s National Security </tspan>
<tspan x="75.00" y="239.22" textLength="219.89" dx="0,0.05,0.23,0.14,0.12,0.13,0.1,0.46,0,0,0.15,0.1,0.11,0.05,0.13,0.41,0.01,0.13,0,0,0.11,0.1,0,0,0.12,0.09,0,0,0.14,0.13,0.14,0,0,0.14,0.1,0,0,-0.03,0.12,0,0.13,0,0,0.07,0.14,0.25,0.1,0.13,0.14,0.16,0.01,0">Advisory Committee and met with the Kenya Institute </tspan>
<tspan x="75.00" y="251.21" textLength="224.21" dx="0,0.03,0.1,0,0,0.03,0.15,0.08,0.02,0.05,0,0,-0.23,0.08,0.03,0.04,0.38,0,0,-0.04,0.18,0.13,0.04,0.11,0.02,0.19,0,0,0.11,0.1,0,0,0.21,0.04,0.06,0.13,0.19,0.07,0.12,0,0,0.11,0.1,0,0,0.07,0,0,0.03,0.16,0.05,0.13,0.17,0.1,0">for Public Policy Research and Analysis and UN Habitat </tspan>
<tspan x="75.00" y="263.21" textLength="229.66" dx="0,0.02,0.42,0.04,0.12,0.18,0.05,0,0,0.06,0,0,0.1,0.14,0.04,0.04,0.16,0.05,-0.02,-0.01,0,0,0.13,-0.5,0,0,0.06,0.11,0.47,0.1,0.07,0,0,0.23,0.07,0.05,0.06,-0.08,0,0,0.06,0.07,0.03,0.13,0.46,-0.01,0.1,0,0,0.02,0,0,0.15,0.1,0.05,0.01,0.05,0.46,0">of&#59905;ces. In Ethiopia, Dr. Martin Kimai, Director of Con&#59904;ict </tspan>
<tspan x="75.00" y="275.21" textLength="212.54" dx="0,0.08,0.11,0.14,0.13,0,0,-0.13,0.11,0.21,0.04,0.07,0.05,0,0,0.11,0.1,0,0,-0.04,0.18,0.19,0.13,0.1,0.14,0.13,0,0,0.13,0.13,0.19,0.05,0.11,0.05,0.12,0.12,-0.02,0,0,0.1,-0.04,0.12,0.11,0.05,0.08,0.01,0.13,0">Early Warning and Response Mechanism, organized </tspan>
<tspan x="75.00" y="287.20" textLength="213.36" dx="0,0,0,0.13,0.12,0.13,0.22,0.14,0.26,0.07,0.05,0.1,0,0,0.1,0,0,0.14,0.1,0,0,0.17,0.17,0.08,0.46,0.11,0,0,0.17,0.1,0,0,0.03,0.07,0.16,0.07,0.06,0,0,-0.01,0.16,0.14,0.1,0.03,0.18,0,0,0.02,0.1,0.21,0.1,0">a discussion on the draft. The Global Futures Forum </tspan>
<tspan x="75.00" y="299.20" textLength="209.39" dx="0,0.1,0.13,0.25,0.01,0.13,0,0,0,0,0.12,0.13,0.09,0.1,0.07,0.05,0,0,0.07,0,0,0.07,0.04,0.31,0.2,0.14,0.11,0.04,-0.01,0,0,0.18,0.04,0.04,0.19,0,0,0.09,0,0,0.1,0.41,0.01,0.12,0.1,0.18,0.13,0.03,0">hosted a meeting in Botswana, which we attended, </tspan>
<tspan x="75.00" y="311.20" textLength="219.58" dx="0,0.14,0.04,0.1,0,0,0.12,0.1,0.14,0.1,0.12,0.03,0.13,0,0,-0.01,0.1,0.18,0.09,0.14,0.1,0.12,0,0,0.01,0.13,0.19,0.1,0.1,0.08,0.07,0.1,0.23,0,0,0.1,0.17,0.09,0.46,0.1,0.13,0.1,0.04,0.1,0.1,0.12,0.25,0,0,0.2,0.02,0.1,0">that gathered together technology practitioners from </tspan>
<tspan x="75.00" y="323.20" textLength="229.17" dx="0,0.11,0.02,0.12,0.1,0.1,0,0,0.14,0.1,0,0,0.11,0.1,0.08,0.1,0.07,0.1,0.12,0.08,0.11,0,0,0.07,0,0,0.07,0.17,0.17,0.08,0.03,-0.08,0,0,0.09,0,0,0.12,0.09,0,0,0.14,0.13,0.14,0,0,0.14,0.1,0,0,0.06,0.14,0.25,0.1,0.13,0.14,0.16,0.01,0">around the continent. In Brazil, we met with the Institute </tspan>
<tspan x="75.00" y="335.19" textLength="219.7" dx="0,0.03,0.12,0.21,0.05,0.11,0.1,0.16,0,0,0.22,0.11,0.01,0.16,0.13,0.13,-0.13,0,0,0.07,0.14,0.25,0.1,0.13,0.14,0.16,-0.01,0,0,0.18,0,0,-0.22,0.18,0.13,0.17,0.06,0.12,0.13,0,0,0.18,0,0,-0.04,0.09,0.02,0.09,0.11,0.13,0.18,0">Fernando Cardoso, Instituto de Pesquisa de Relacoes </tspan>
<tspan x="75.00" y="347.19" textLength="201.1" dx="0,0.07,0.08,0.01,0.12,0.21,0.05,0.09,0.15,0.05,0.1,0.05,0.05,0.05,0.13,0.05,0,0,0.02,0.04,0,0,-0.04,0.18,0.13,0.04,0.11,0.02,0.19,0,0,0.07,0.17,0.17,0.08,0.03,-0.08,0,0,0.11,0.1,0,0,-0.04,0.16,0.13,0.13,0.18,0">Internacionaios, IBM Research Brazil, and Fapsep </tspan>
<tspan x="75.00" y="359.19" textLength="49.18" dx="0,0.02,0.12,0.1,0.1,0.12,0.1,0.1,0.05,0.1,0.01">Foundation.</tspan>
<tspan x="75.00" y="380.18" textLength="198.13" dx="0,0.17,0.1,0,0,0.02,0,0,0.19,0.13,0.31,0,0,0.08,0.07,0.1,0.06,0,0,0.11,0,0,0.07,0.1,0.1,0.02,0.13,0.1,0.1,0.04,0.1,0,0,0.03,0.1,0,0,0.14,0.04,0.12,0,0,0.13,0.13,0.13,0.1,0.05,0.1,-0.03,0">The GT 2030 blog, an innovation for this edition, </tspan>
<tspan x="75.00" y="392.18" textLength="229.25" dx="0,0.18,0.12,0.1,0.12,0.17,0.1,0.01,0.13,0,0,0.14,0.04,0.18,0.24,0.18,0.17,0.11,0.05,0.13,0.07,0.05,0,0,0.13,0.12,0.13,0.22,0.14,0.26,0.07,0.04,0.1,0.14,0,0,0.1,0,0,-0.05,0.05,0,0,0.14,0.1,0.12,0.12,0.18,0.05,0,0,-0.13,0">generated wide-ranging discussions on key themes. We </tspan>
<tspan x="75.00" y="404.18" textLength="234.47" dx="0,0.03,0.09,0.03,0.05,0.13,0,0,0.1,0,0,0.14,0.1,0,0,0.1,0.09,0.12,0,0,0.02,0,0,0.05,0.11,0,0,0,0.02,0,0,0.12,0.1,0,0,0.07,0.08,0.01,0.09,0.01,0.03,0,0.18,0.12,0.1,0.12,0,0,0.15,0.1,0.11,0.11,0.1,0.05,0.13,0.4,0">relied on the help of many of our Intelligence Community </tspan>
<tspan x="75.00" y="416.17" textLength="232.34" dx="0,0.32,0.26,0.13,0.13,0.15,-0.02,0.1,0.01,0.18,0,0,0.11,0.1,0,0,0.04,0.14,0.1,0.12,0,0,0.05,0.27,0.13,0.12,0.47,0.31,0,0,0.03,0.1,0,0,0.14,0.1,0,0,0.05,0.11,0.04,0.04,0.18,0.12,0.12,0.12,0.08,0,0,0.02,0,0,0.14,0.1,0">Associates and other experts for the management of the </tspan>
<tspan x="75.00" y="428.17" textLength="237.75" dx="0,0.09,0.13,0.13,0.22,0.13,0,0,0.14,0.1,0.12,0.12,0.13,0,0,0.13,0.12,0.13,0.22,0.14,0.26,0.07,0.04,0.1,0.14,0.05,0,0,0.07,0.1,0.15,0.07,0.08,0.13,0.07,0.05,0,0,0.13,0.25,0.05,0,0,0.01,0.11,0.05,0.05,0.09,0,0,-0.58,0.14,0.07,0.05,0.07,0.05,0.06,0">weekly themed discussions, including Drs. Daniel Twining, </tspan>
<tspan x="75.00" y="440.17" textLength="226.28" dx="0,0.32,0.14,0,0,-0.04,0.06,0.07,-0.03,0,0,0.2,0.03,0.01,0.03,-0.02,0.11,0,0,0.07,0.1,0.19,-0.05,0.24,0,0.22,0.04,0.13,0.01,-0.11,0,0,0.17,0.1,0.1,0.05,0.14,0,0,0.06,0.11,0.1,0.1,-0.05,0.12,-0.03,0,0,-0.23,0.09,0.01,0.12,0">Ash Jain, William Burke-White, Thomas Mahnken, Peter </tspan>
<tspan x="75.00" y="452.17" textLength="213.17" dx="0,0.03,0.04,0.02,0.02,0.12,-0.52,0,0,-0.04,0.09,0.19,0.22,0.05,0,0,0.09,0.09,0.21,0.01,0.02,0.12,0,0,0.09,0.04,0.06,-0.08,0,0,-0.04,0.01,0.04,0.02,0,0,-0.13,0.18,0.13,0.12,-0.52,0,0,0.21,0.1,0.17,0.03,0.09,0">Feaver, Jackie Newmyer Deal, Steve Weber, Andrew </tspan>
<tspan x="75.00" y="464.16" textLength="210.19" dx="0,0.03,0.02,0.17,0.05,0.11,0.1,-0.03,0,0,0.2,0.03,0.01,0.03,-0.02,0.11,0,0,0.07,0.16,0.13,0.13,0.18,0.12,-0.03,0,0,0.04,0.04,0.19,0.04,0.11,0.02,0,0,0.08,0.07,0.1,0.11,0.04,0.41,0.17,-0.01,0,0,0,0.06,0.12,0.13,0">Erdmann, William Inboden, Richard Cincotta, Ralph </tspan>
<tspan x="75.00" y="476.16" textLength="206.9" dx="0,0.24,0.19,0.07,0.09,0.19,-0.03,0,0,0.16,0.01,0.02,0.11,0,0,0.01,0.08,0.03,0.13,-0.11,0,0,0.07,0.06,0.14,0.11,0.01,0,0,-0.06,0.14,0.26,0.13,0.09,0.01,-0.08,0,0,0.11,0.1,0,0,0.13,0.1,0.05,0,0,-0.13,0">Espach, Allan Dafoe, Howard Passell, and Cung Vu.</tspan>
<tspan x="75.00" y="497.16" textLength="220.27" dx="0,0.2,0.14,0.14,0.05,0.07,0,0,0.14,0.1,0,0,-0.01,0,0,0.06,0.02,0.02,0.12,0.21,0.1,0.12,0.12,0.08,0.1,0,0,0.19,0.13,0.13,0.15,-0.02,0.06,0,0,0.14,0.04,0.11,0.1,0.26,0,0,0.16,0.13,0.18,0,0,-0.01,0,0,0.13,-0.5,0">Within the US Government, special thanks goes to Dr. </tspan>
<tspan x="75.00" y="509.15" textLength="234.09" dx="0,0.11,0.14,0.14,0.11,0,0,0.09,0.09,0.12,0.13,0.1,-0.03,0,0,0.17,0.05,0,0,0.13,0.1,0.14,0.12,0.25,0.1,0.07,0.04,0,0,0.15,0.1,0.1,0.17,0.03,0.05,-0.41,0,0,0.17,0.05,0,0,0,0.09,0.19,0.1,0.09,0,0,-0.13,0.11,0.21,0.1,0.12,-0.52,0">Susan Nelson, Ms. Christina Condrey, Ms. Rachel Warner, </tspan>
<tspan x="75.00" y="521.15" textLength="214.75" dx="0,0.18,0.05,0,0,0.06,0.08,0.13,0.14,0.14,0,0,-0.22,0.11,0,0,0.19,0.06,0.08,0.12,-0.03,0,0,0.11,0.1,0,0,0.12,-0.5,0,0,0.03,0.1,0.01,0,0,0.04,0.14,0.04,0.12,0,0,0.07,0,0,0.14,0.1,0,0,-0.05,0.17,0.1,0.01,0">Ms. Judith Van Zalen, and Mr. Nate Price in the State </tspan>
<tspan x="75.00" y="533.15" textLength="230.81" dx="0,0.09,0.18,0.07,0.11,0.47,0.14,0.12,0.12,0.08,0.25,-0.23,0,0,0.06,0.1,0.03,0.04,0.08,0,0,0.02,0,0,0.07,0.08,0.01,0.09,0.01,0.03,0,0.18,0.12,0.1,0.12,0,0,0.11,0.1,0,0,-0.04,0.18,0.13,0.04,0.11,0.02,0.19,0.01,0,0,0.17,0.1,0.05,0">Department&#8217;s Bureau of Intelligence and Research. They </tspan>
<tspan x="75.00" y="545.14" textLength="235.67" dx="0,0.19,0.13,0.12,0.08,0,0,0.11,0.12,0.1,0.08,0.1,0.08,0.18,0.26,0,0,0.1,0.12,0.1,0.25,0,0,0.05,0.11,0.22,0.07,0.05,0,0,0.14,0.1,0,0,0.11,0.21,0.17,0.11,0.05,0.18,0.12,0.12,0.12,0.08,0.31,0,0,0.03,0.1,0,0,0.05,0.11,0,0">spent countless hours making the arrangements for many </tspan>
<tspan x="75.00" y="557.14" textLength="226.66" dx="0,0.02,0,0,0.14,0.1,0,0,0.12,0.13,0.09,0.1,0.07,0.05,0.23,0,0,0.14,0.13,0.14,0,0,0.12,0.16,0.31,0.07,0.04,0.18,0,0,0.1,-0.04,0.12,0.11,0.04,0.08,0.17,0.1,0.1,0.04,0.1,0.14,0,0,0.11,0.1,0,0,0.05,0.27,0.13,0.12,0.47,0.31,0.05">of the meetings with outside organizations and experts.</tspan></text><path d="M15 21 l-15 0 M639 21 l15 0 M15 813 l-15 0 M639 813 l15 0 M21 15 l0 -15 M21 819 l0 15 M633 15 l0 -15 M633 819 l0 15 " style="stroke:#ffffff;stroke-width:1.25;"/><path d="M15 21 l-15 0 M639 21 l15 0 M15 813 l-15 0 M639 813 l15 0 M21 15 l0 -15 M21 819 l0 15 M633 15 l0 -15 M633 819 l0 15 " style="stroke:#000000;stroke-width:0.25;"/>
</svg>
