<svg class="crocodoc-2jt6Qd crocodoc-page-svg" version="1.1"
    xmlns="http://www.w3.org/2000/svg"
    xmlns:xlink="http://www.w3.org/1999/xlink"
    xmlns:xhtml="http://www.w3.org/1999/xhtml"
    xml:space="preserve" width="654.0pt" height="834.0pt" viewBox="0 0 654.0 834.0">
<xhtml:link href="stylesheet.css" type="text/css" rel="stylesheet" />
<style>
.crocodoc-2jt6Qd tspan { white-space:pre; }
.crocodoc-2jt6Qd path { fill:transparent; }

</style>
<defs>
<mask id="Mask_15_114_2jt6Qd">
<g ><path d="M3 831 l648 0 l0 -828 l-648 0 l0 828 " style="fill:url(#Grad_16_114_2jt6Qd);"/></g></mask>
<linearGradient id="Grad_16_114_2jt6Qd" x1="44.82%" y1="92.27%" x2="90.53%" y2="92.27%"><stop offset="0.00" style="stop-color:#ffffff" /><stop offset="0.25" style="stop-color:#eeeeee" /><stop offset="0.50" style="stop-color:#bdbdbd" /><stop offset="0.75" style="stop-color:#6d6d6d" /><stop offset="1.00" style="stop-color:#000000" /></linearGradient>
</defs>

<g style="opacity:0.40;" ><path d="M71.97 751.59 c0.77 -0.59 1.54 -1 2.32 -1.22 c0.78 0.14 1.43 0.38 1.9 0.71 c-0.44 0 -0.88 0.01 -1.32 0.05 c-0.96 0.07 -1.93 0.23 -2.9 0.46 M70.58 751.73 c-0.17 -0.35 -0.34 -0.64 -0.48 -0.88 c-0.05 -0.08 -0.1 -0.16 -0.15 -0.23 c0.57 -0.14 1.16 -0.25 1.75 -0.32 c0.08 -0.01 0.17 -0.02 0.26 -0.02 c0.12 -0.01 0.24 -0.02 0.35 -0.02 c-0.59 0.38 -1.17 0.87 -1.73 1.48 M71.79 756.57 c-0.73 0.19 -1.47 0.32 -2.2 0.38 c-0.46 0.03 -0.92 0.04 -1.37 0.01 c0.64 -1.48 1.37 -2.76 2.18 -3.83 c0.42 0.94 0.89 2.1 1.39 3.44 M72.35 752.35 c0.71 -0.14 1.42 -0.24 2.12 -0.29 c0.83 -0.06 1.66 -0.06 2.48 -0.01 c0.16 0.53 0.01 1.14 -0.44 1.76 c-1.37 -0.66 -2.77 -1.15 -4.16 -1.47 M77.8 754.49 c0.53 -0.76 0.75 -1.53 0.63 -2.26 c2.4 0.39 4.61 1.32 6.39 2.7 c0.59 1.34 0.26 2.92 -0.93 4.48 c-1.73 -1.95 -3.83 -3.65 -6.09 -4.92 M77.37 750.55 c1.2 0.27 2.36 0.68 3.46 1.22 c-0.91 -0.28 -1.86 -0.48 -2.85 -0.59 c-0.17 -0.23 -0.37 -0.44 -0.61 -0.63 M82.93 760.48 c-1.62 1.59 -4.03 2.99 -6.82 3.97 c-0.85 -2.48 -1.77 -4.88 -2.67 -6.97 c1.44 -0.53 2.71 -1.27 3.59 -2.11 c2.19 1.34 4.22 3.11 5.9 5.12 M67.37 751.87 c-0.23 0.02 -0.46 0.04 -0.69 0.07 c0.52 -0.33 1.13 -0.63 1.77 -0.88 c0.13 -0.05 0.25 -0.09 0.39 -0.13 c0.23 0.16 0.54 0.51 0.87 0.98 c-0.8 -0.09 -1.59 -0.1 -2.33 -0.05 M71.19 776.65 c2.06 -0.15 4.16 -0.53 6.23 -1.12 c0.37 1.66 0.63 3.04 0.77 4.12 l0.03 0.2 c0.03 0.28 0.06 0.5 0.07 0.71 c-1.08 0.5 -2.22 0.71 -3.36 0.79 c-1.93 0.14 -3.84 -0.05 -5.68 -0.59 c-0.12 -0.13 -0.17 -0.18 -0.22 -0.24 c-0.88 -1.02 -1.56 -2.31 -2.08 -3.9 c1.36 0.12 2.79 0.13 4.25 0.02 M76.89 773.26 c-2.03 0.58 -4.09 0.95 -6.12 1.11 c-1.53 0.12 -3.02 0.1 -4.42 -0.05 c-0.2 -0.98 -0.33 -2.01 -0.41 -3.07 c-0.09 -1.18 -0.1 -2.4 -0.05 -3.65 c1.22 0.12 2.5 0.13 3.81 0.03 c1.79 -0.13 3.61 -0.46 5.41 -0.97 c0.68 2.32 1.28 4.54 1.78 6.61 M69.56 765.83 c-1.22 0.09 -2.41 0.08 -3.54 -0.03 c0.26 -2.62 0.84 -5.21 1.67 -7.5 c0.61 0.05 1.25 0.06 1.91 0.01 c0.88 -0.07 1.78 -0.22 2.67 -0.46 c0.76 2.13 1.57 4.57 2.33 7.08 c-1.67 0.47 -3.36 0.77 -5.03 0.9 M72.89 756.23 c-0.58 -1.27 -1.13 -2.37 -1.64 -3.28 c1.49 0.33 3 0.89 4.5 1.67 c-0.73 0.64 -1.71 1.19 -2.85 1.6 M87.47 770.66 c0.09 1.23 -0.01 2.39 -0.3 3.44 c-0.29 0.45 -0.61 0.89 -0.94 1.31 c-0.24 0.3 -0.5 0.6 -0.77 0.89 c-1.56 1.68 -3.5 3.02 -5.62 3.89 c0 -0.22 -0.01 -0.45 -0.02 -0.7 l-0.02 -0.29 c-0.09 -1.13 -0.32 -2.54 -0.68 -4.22 c3.34 -1.16 6.28 -2.83 8.32 -4.73 c0.01 0.13 0.03 0.26 0.04 0.39 M84.03 761.9 c1.36 1.91 2.34 3.9 2.91 5.92 c-1.96 1.97 -4.92 3.71 -8.36 4.91 c-0.52 -2.08 -1.16 -4.28 -1.9 -6.57 c2.98 -1.04 5.58 -2.55 7.35 -4.26 M88.79 770.78 c0 -0.28 -0.01 -0.57 -0.03 -0.85 c-0.02 -0.31 -0.06 -0.63 -0.11 -0.96 c0.33 -0.4 0.61 -0.8 0.85 -1.2 c-0.13 1.02 -0.37 2.03 -0.71 3.01 M86.57 756.56 c0.09 0.1 0.17 0.2 0.26 0.3 c1.34 1.9 2.22 4.03 2.6 6.32 c-0.07 1.08 -0.52 2.19 -1.36 3.32 c-0.63 -1.97 -1.65 -3.89 -3.03 -5.71 c1.13 -1.42 1.65 -2.87 1.53 -4.24 M66.77 779.83 c-2.34 -1.12 -4.34 -2.78 -5.87 -4.85 c1.18 0.65 2.62 1.13 4.28 1.42 c0.41 1.32 0.95 2.47 1.59 3.43 M64.48 765.59 c-2.38 -0.45 -4.17 -1.41 -5.05 -2.69 c0.95 -2.27 2.48 -4.4 4.41 -6.15 c0.57 0.65 1.47 1.12 2.63 1.38 c-0.95 2.29 -1.63 4.86 -1.98 7.47 M63.32 755.85 c-1.89 1.6 -3.43 3.53 -4.47 5.63 c-0.05 -0.32 -0.06 -0.65 -0.02 -0.98 c0.86 -2.34 2.3 -4.47 4.16 -6.16 c0.13 -0.09 0.28 -0.18 0.42 -0.27 c-0.24 0.62 -0.27 1.22 -0.09 1.79 M68.53 752.69 c-1.42 0.58 -2.76 1.32 -4 2.21 c-0.05 -0.51 0.15 -1.07 0.61 -1.64 c0.83 -0.28 1.73 -0.46 2.67 -0.53 c0.23 -0.02 0.47 -0.03 0.72 -0.03 M64.96 755.8 c1.3 -1.01 2.73 -1.85 4.25 -2.49 c-0.79 1.01 -1.51 2.19 -2.15 3.51 c-0.93 -0.19 -1.67 -0.55 -2.09 -1.02 M58.8 764.68 c1.12 1.29 3.05 2.25 5.49 2.7 c-0.11 1.43 -0.11 2.84 -0.01 4.19 c0.06 0.85 0.17 1.69 0.32 2.49 c-2.65 -0.52 -4.64 -1.52 -5.78 -2.92 c-0.19 -0.51 -0.35 -1.05 -0.49 -1.59 c-0.01 -0.09 -0.02 -0.16 -0.02 -0.23 c-0.11 -1.53 0.05 -3.09 0.49 -4.65 " style="fill:#d3d2d2;"/></g><text class="f5782 f5765" font-size="8.00" style="fill:#231f20"><tspan x="69.24" y="769.34" textLength="10.03" dx="0,0.56">90</tspan></text><text class="f1560 f5766" font-size="8.00" style="fill:#656263"><tspan x="87.25" y="769.13" textLength="97.51" class="f1561 f781" dx="0,0.56,0.56,0.56,0.56,0.56,0.56,0.56,0.56,0.56,0.56,0.56,0.56,0.56,0.56,0.56,0.56,0.56,0.56">GLOBAL TRENDS 2030:</tspan>
<tspan x="185.32" y="769.13" textLength="97.73" dx="0,0.56,0.56,-0.18,0.56,0.56,0.56,0.56,0.02,0.56,0.56,0.56,0.56,0.56,0.56,0.56,0.56,0.56,0.56"> ALTERNATIVE WORLDS</tspan></text>
<g mask="url(#Mask_15_114_2jt6Qd)" ><path d="M295.95 766.5 l292.19 0 " style="stroke:#918f8f;stroke-width:1.00;stroke-dasharray:0.001,1.994;stroke-linecap:round;stroke-linejoin:round;"/><path d="M293.95 766.5 M589.14 766.5 " style="stroke:#918f8f;stroke-width:1.00;stroke-linecap:round;stroke-linejoin:round;"/></g><text class="f1489 f786" font-size="10.00" style="fill:#231f20"><tspan x="340.50" y="91.00" textLength="227.12" dx="0,0.15,0.21,-0.12,0.33,0.08,0.03,0.13,0.2,0.26,0.31,0.27,-0.03,0,0,0.21,-0.02,0,0,-0.09,0,-0.04,-0.02,0.15,-0.01,0.13,-0.06,-0.02,0,0,0.01,0.01,0.01,0.28,-0.05,-0.04,-0.06,0.02,0.23,-0.03,0.08,0,0,0.06,0.01,0.01,0,0,0.18,0">manufacturing and automation technologies such as </tspan>
<tspan x="340.50" y="105.00" textLength="218.78" dx="0,0.04,0.03,0.18,-0.07,0.13,0.04,-0.09,0,0,0.15,0.21,-0.12,0.33,0.08,0.03,0.13,0.2,0.26,0.31,0.27,-0.03,0,0,-0.13,-0.15,0,0,-0.06,0.31,0.27,-0.07,0.13,0.27,-0.03,0.1,0,0,0.21,-0.02,0,0,0.06,-0.01,0.09,-0.03,0.13,-0.03,0.03,0">additive manufacturing (3D printing) and robotics </tspan>
<tspan x="340.50" y="119.00" textLength="238.57" dx="0,0.14,-0.02,-0.09,0,0,0.15,-0.02,0,0,0.05,-0.03,0.01,0.05,-0.06,0.13,0.13,0.21,0,0,-0.04,0,0,0.01,0.14,0.21,-0.03,-0.06,0,0,-0.14,-0.03,0.03,0,0,0.03,-0.01,0.19,0.01,0.08,0.29,0.15,0,0,0.27,0,0,0.09,-0.03,0.15,0,0,0.15,-0.02,0">have the potential to change work patterns in both the </tspan>
<tspan x="340.50" y="133.00" textLength="227.49" dx="0,0.03,0.07,-0.09,-0.04,-0.06,-0.07,-0.05,0.27,-0.03,0,0,0.21,-0.02,0,0,0.03,0.07,-0.09,-0.04,-0.06,-0.07,0.07,0.03,0,0,-0.14,-0.03,0.02,-0.03,0.14,-0.08,0,0,-0.05,-0.11,-0.14,0.07,-0.09,0.07,-0.44,0,0,0.06,-0.04,0.13,-0.01,0.13,0.04,-0.09,0">developing and developed worlds. However, relative </tspan>
<tspan x="340.50" y="147.00" textLength="217.35" dx="0,-0.04,0,0,-0.01,0.28,0.14,0.05,0.13,0.27,-0.03,0,0,0.14,0.06,0.05,-0.02,0.14,-0.04,0,0,0.21,-0.04,0,0,0.14,0.22,0.21,0.15,0.03,-0.07,0.13,-0.06,-0.02,0,0,0.15,0.01,0,0,0.09,0,0,0.06,-0.04,0.13,-0.01,0.13,0.04,-0.09,-0.04,0.06,0">to existing trends, any transition may be relatively </tspan>
<tspan x="340.50" y="161.00" textLength="231.62" dx="0,-0.01,-0.06,-0.11,-0.85,0,0,0.22,0,0,0.03,0.07,-0.09,-0.04,-0.06,-0.07,0.07,0.03,0,0,-0.11,-0.08,0.28,-0.06,0.14,0.31,-0.03,0.08,0,0,0.15,-0.02,0.08,0.09,0,0,0.01,0.01,0.01,0.28,-0.05,-0.04,-0.06,0.02,0.23,-0.03,0.08,0,0,0.14,-0.02,-0.09,0">slow. In developed countries these technologies have </tspan>
<tspan x="340.50" y="175.00" textLength="224.41" dx="0,0.15,-0.02,0,0,0.05,-0.03,0.01,0.05,-0.07,0.13,0.13,0.21,0,0,-0.04,0,0,0.27,-0.08,-0.06,0.06,-0.11,-0.09,0,0,-0.06,0.06,0.09,-0.03,0.01,0.13,0.13,0.04,0.21,-0.07,0.34,-0.75,0,0,0.04,0.03,0.19,0.06,0.08,0.11,0,0,0.13,0.04,0.09,-0.03,0">the potential to improve productivity, address labor </tspan>
<tspan x="340.50" y="189.00" textLength="223.85" dx="0,-0.11,-0.02,0.15,0.05,0.14,0.22,0.2,0.27,-0.06,0.15,-0.04,0,0,0.21,-0.02,0,0,0.18,0.27,0.28,0.27,0.27,0.14,-0.01,0,0,0.15,-0.02,0,0,-0.02,0.03,0.03,0,0,-0.09,-0.03,0,0,-0.08,0,0.15,0.08,-0.08,0.26,0.03,0.07,0.27,-0.03,0.04,0">constraints, and diminish the need for outsourcing, </tspan>
<tspan x="340.50" y="203.00" textLength="213.95" dx="0,0.08,-0.03,0.07,0.01,0.07,0.13,0.21,0.28,0.06,0,0,0.32,0,0,0.06,0.03,-0.03,0.01,0.07,0.27,-0.03,0,0,0.15,-0.02,0,0,-0.03,0.05,-0.03,0.22,0.15,0,0,-0.03,0,0,0.06,-0.05,-0.09,-0.07,0.06,0,0,0.01,0.14,0.2,0.27,0.15,0">especially if reducing the length of supply chains </tspan>
<tspan x="340.50" y="217.00" textLength="233.1" dx="0,-0.03,0.31,0.27,-0.03,0.09,0,0,0.01,-0.03,0.11,0.2,0,0,0.09,0.05,-0.02,0.02,-0.05,0.15,-0.08,0,0,-0.06,0.07,-0.09,0.08,0.36,0.15,-0.02,-0.04,-0.03,0.08,0.11,-0.04,0,0,0.06,0.01,0.01,0,0,0.01,0.01,0.01,0.28,-0.05,-0.04,-0.06,0.02,0.23,-0.03,0.08,0">brings clear bene&#59904;ts. Nevertheless, such technologies </tspan>
<tspan x="340.50" y="231.00" textLength="210.53" dx="0,-0.11,-0.08,0.28,-0.03,0,0,0.05,0.13,0.28,0.28,0,0,0.14,-0.02,-0.09,0,0,0,0,0.03,0.27,0.28,0.28,0.13,0.2,0,0,-0.01,0.27,-0.09,0.01,0.13,0,0,-0.04,0,0,-0.08,0,0.15,0.08,-0.08,0.26,0.03,0.07,0.27,-0.03,0,0,0.27,0">could still have a similar effect to outsourcing in </tspan>
<tspan x="340.50" y="245.00" textLength="218.62" dx="0,0.15,0.22,0.31,0.27,-0.03,0,0,-0.04,-0.03,0.06,0,0,-0.06,-0.11,-0.12,0,0,0.21,-0.02,0,0,0.09,0.05,0.28,0.16,0.24,0,0.31,0.28,0.28,-0.03,0.03,0,0,0.15,0.21,-0.12,0.32,0.08,0.03,0.13,0.2,0.26,0.31,0.27,-0.03,0">making more low- and semi-skilled manufacturing </tspan>
<tspan x="340.50" y="259.00" textLength="194.3" dx="0,-0.14,-0.03,0.03,-0.18,0.08,0.18,0,0,0.27,0,0,0.03,0.07,-0.09,-0.04,-0.06,-0.07,0.07,0.03,0,0,0.01,-0.11,-0.02,-0.05,-0.02,0.28,-0.03,0.08,0,0,0.06,0.03,-0.03,0.28,-0.02,0.17,0.21,-0.06,0,0">workers in developed economies redundant, </tspan>
<tspan x="340.50" y="273.00" textLength="222.25" dx="0,0.02,0.27,-0.03,0.01,0,0,-0.14,-0.08,0.28,-0.03,0,0,-0.01,0.15,0.03,-0.08,0.08,0.08,0.06,-0.01,0.01,0,0,0.03,-0.02,-0.01,0.08,0.05,0.13,-0.03,0,0,0.27,-0.02,0.03,0,0.18,0.21,0.26,-0.07,0.13,-0.03,0.08,-0.08,0,0,-0.13,-0.03,0">which would exacerbate domestic inequalities. For </tspan>
<tspan x="340.50" y="287.00" textLength="221.86" dx="0,0.03,0.07,-0.09,-0.04,-0.06,-0.07,-0.05,0.27,-0.03,0,0,0.01,-0.11,-0.02,-0.05,-0.02,0.28,-0.03,0.08,-0.04,0,0,0.03,0.2,0.36,0.13,-0.03,0.12,0.28,0.13,0.2,0.02,0.06,0,0,0.24,0.03,0.13,0.21,0,0,-0.02,-0.02,0.08,-0.04,0,0,0.15,-0.02,0">developing economies, particularly Asian ones, the </tspan>
<tspan x="340.50" y="301.00" textLength="227.65" dx="0,-0.02,0.06,0,0,0.01,0.01,0.01,0.28,-0.05,-0.04,-0.06,0.02,0.23,-0.03,0.08,0,0,0.16,0.28,0.28,0,0,0.05,0.13,0.27,-0.11,0.28,0.13,-0.01,0.01,0,0,-0.02,0.06,0,0,0.15,0.21,-0.12,0.32,0.08,0.03,0.13,0.2,0.26,0.31,0.27,-0.03,0">new technologies will stimulate new manufacturing </tspan>
<tspan x="340.50" y="315.00" textLength="230.18" dx="0,0.06,-0.07,0.03,0.04,-0.03,0.28,0.26,-0.07,0.13,-0.03,0.08,0,0,0.21,-0.02,0,0,0.34,0.26,0.36,0.15,-0.02,0.08,0,0,0.27,-0.05,0.07,0.06,0.11,0.18,0.09,0,0,0.15,-0.02,0,0,-0.11,-0.02,-0.08,0.07,0.03,0.13,-0.07,0.13,0.04,-0.09,0.05,-0.02,0.08,0.11,0">capabilities and further increase the competitiveness </tspan>
<tspan x="340.50" y="329.00" textLength="136.61" dx="0,-0.03,0,0,0.15,0.21,-0.12,0.33,0.08,0.03,0.13,0.2,0.26,0.06,0.08,0.18,0,0,0.21,-0.02,0,0,0.06,-0.05,-0.09,-0.07,0.26,-0.03,0.08,0.18,-0.08">of manufacturers and suppliers.</tspan>
<tspan x="340.50" y="361.00" textLength="45.8" class="f5782 f5765" font-size="9.00">ROBOTICS</tspan>
<tspan x="340.50" y="385.00" textLength="209.63" dx="0,-0.14,-0.01,0.09,-0.03,0.13,-0.03,0.03,0,0,0.14,0,0,0.27,0,0,0.15,0.09,0,0,0.27,0,0,0,0,0.22,0.21,-0.03,-0.06,0,0,-0.03,0,0,0.07,0.04,0.21,0.28,0,0,0.21,-0.02,0,0,0.28,0.28,0.26,-0.07,0.18,0.2,0.5,0">Robotics is in use in a range of civil and military </tspan>
<tspan x="340.50" y="399.00" textLength="230.53" dx="0,-0.07,-0.09,-0.07,0.26,-0.03,0.06,-0.01,0.13,-0.06,-0.02,0.15,0,0,-0.04,0.09,0.17,0.01,-0.79,0,0,-0.14,-0.01,0.09,-0.03,0.13,-0.03,0,0,0.2,0.07,0.05,0.01,0.05,0.16,0,0,0.07,0.08,0.3,-0.09,-0.03,0.29,0,0,-0.07,-0.04,0.07,0.03,-0.03,0.06,0.21,0">applications today. Robotic systems perform physical </tspan>
<tspan x="340.50" y="413.00" textLength="233.35" dx="0,0.15,0.21,0.27,-0.09,-0.1,0.28,0.13,-0.01,0.13,-0.06,-0.02,0.15,0,0,0.03,0.27,0.28,0.28,0.13,0.2,0,0,-0.04,0,0,-0.12,0.28,0.15,0.21,0.15,0.25,0,0,0.06,0.01,0.01,0,0,0.15,0.21,0.27,-0.09,-0.1,0.28,0.13,-0.01,0.13,-0.06,-0.02,0.15,0">manipulations similar to humans; such manipulations </tspan>
<tspan x="340.50" y="427.00" textLength="181.38" dx="0,0.2,0.06,0,0,-0.06,0.06,0.02,0.23,0.22,0.21,0.29,0.15,0.04,-0.04,-0.03,0,0,0.21,-0.02,0,0,0.06,0.21,0,0,0.09,0,0,0.06,0.2,0.3,0.31,-0.03,0.03,0,0,-0.08,0,0">are programmable and can be carried out </tspan>
<tspan x="340.50" y="441.00" textLength="233.38" dx="0,-0.09,0,-0.04,-0.02,-0.05,-0.02,-0.04,-0.08,0.15,-0.01,0.06,0,0,-0.03,0,0,-0.06,0,0,0.01,-0.04,-0.03,0.03,-0.07,0.07,0.08,0.22,-0.01,0.13,-0.06,-0.02,-0.04,0,0,-0.14,-0.01,0.09,-0.03,0.15,0,0,0.14,-0.02,-0.09,0,0,0.09,0.03,0.19,0.01,0.08,0">autonomously or by teleoperation. Robots have better </tspan>
<tspan x="340.50" y="455.00" textLength="232.06" dx="0,0.09,0.05,0.15,0.08,-0.03,0.49,0,0,0.21,-0.02,0,0,-0.01,0.01,0.01,0.14,0.21,0.27,-0.03,0.06,0.21,0,0,0.06,-0.07,0.03,0.04,-0.03,0.28,0.26,-0.07,0.13,-0.03,0.08,0,0,0.15,0.14,0.21,0,0,-0.12,0.28,0.15,0.21,0.15,0,0,0.03,-0.24,0">sensory and mechanical capabilities than humans do, </tspan>
<tspan x="340.50" y="469.00" textLength="232.1" dx="0,0.15,0.22,0.31,0.27,-0.03,0,0,0.15,-0.02,0.05,0,0,-0.03,0.03,0.11,0.21,0,0,-0.09,-0.03,0,0,0.06,-0.08,0,0.13,0.27,-0.02,0,0,0.18,0.18,0,0.19,-0.08,0,0,0.22,-0.02,-0.03,0.15,0.05,0.14,0.31,0.13,0.21,0,0,0.06,-0.01,0.09,-0.03,0.15,0">making them ideal for routine tasks. Industrial robots </tspan>
<tspan x="340.50" y="483.00" textLength="235.44" dx="0,0.14,-0.02,-0.09,0,0,0.14,0.22,0.21,0.15,0,-0.09,-0.03,0.29,-0.01,0.03,0,0,0.15,0.21,-0.04,0,0,0.15,0.21,-0.12,0.33,0.08,0.03,0.13,0.2,0.26,0.31,0.27,-0.03,0,0,0.05,-0.07,0.21,0.26,0.06,-0.02,0.28,-0.01,0.05,-0.06,0.15,0.25,0">have transformed many manufacturing environments; </tspan>
<tspan x="340.50" y="497.00" textLength="228.34" dx="0,-0.11,-0.09,0.08,0,0,-0.46,-0.07,0,0,0.28,0.28,0.28,0.26,-0.06,-0.02,0,0,0.27,-0.02,-0.03,0.15,0.05,0.14,0.31,0.13,0.21,0,0,0.06,-0.01,0.09,-0.03,0.15,0,0,0.2,0.06,0,0,0.21,0.26,0.06,0.11,0.04,0.11,0,0,0.27,0,0,0.17,0.2,0.28,0.06,0">over 1.2 million industrial robots are already in daily </tspan>
<tspan x="340.50" y="511.00" textLength="219.49" dx="0,-0.07,0.07,0.08,0.22,-0.01,0.13,-0.06,-0.02,0,0,0.2,0.06,-0.08,0.28,-0.02,0,0,0.15,-0.02,0,0,-0.14,-0.03,0.02,-0.03,0.03,0,0,-0.05,-0.02,-0.01,0,0,0.06,-0.01,0.09,-0.03,0.15,0,0,0.08,0.03,0.12,-0.02,0.28,0">operation around the world. Home robots vacuum </tspan>
<tspan x="340.50" y="525.00" textLength="233.28" dx="0,-0.05,-0.02,-0.01,0.08,0,0,0.21,-0.02,0,0,0.12,0,0,0,0.13,-0.02,0.16,0.15,0.25,0,0,-0.05,0.05,-0.03,-0.05,-0.07,0.18,0.21,0,0,0.06,-0.01,0.09,-0.03,0.15,0,0,0.03,-0.01,0.14,0.06,-0.04,0,0,-0.11,-0.03,0.3,0.31,-0.03,0.03,-0.03,0.18,0">homes and cut lawns; hospital robots patrol corridors </tspan>
<tspan x="340.50" y="539.00" textLength="233.96" dx="0,0.21,-0.02,0,0,0.18,0.14,0.05,0.14,0.31,0.03,-0.08,0,0.01,0,0,0.06,-0.05,-0.09,-0.07,0.26,-0.03,0.08,0.25,0,0,0.15,-0.02,0,0,0,0,0,0.28,0.28,0.26,-0.07,0.18,0.2,0.5,0,0,0.14,0.18,0,0,0.15,-0.05,-0.08,0.15,0.09,0.21,-0.02,0.14,0">and distribute supplies; the US military has thousands </tspan>
<tspan x="340.50" y="553.00" textLength="198.21" dx="0,-0.03,0,0,0.06,-0.01,0.09,-0.03,0.15,0,0,-0.07,0.07,0.08,0.22,-0.01,0.13,0.27,-0.03,0,0,-0.02,0,0,0.06,-0.01,0.19,0.15,-0.03,0.02,-0.01,-0.04,-0.03,0.14,0.25,0,0,0.21,-0.02,0,0,0,0,-0.02,0.06,0">of robots operating on battle&#59904;elds; and a new </tspan>
<tspan x="340.50" y="567.00" textLength="219.55" dx="0,-0.06,0.05,-0.02,0.08,0.22,-0.01,0.13,-0.06,-0.02,0,0,-0.03,0,0,0.06,-0.01,0.09,-0.03,0.15,0,0,0.14,0,0,0.05,-0.01,0.08,0.16,0.23,0.27,-0.03,0,0,-0.09,-0.03,0,0,0.09,0.07,0.47,0.21,-0.03,-0.08,0.21,0.24,0.09,0.01,0.13,-0.04,-0.03,0">generation of robots is emerging for service-sector </tspan>
<tspan x="340.50" y="581.00" textLength="214.14" dx="0,-0.07,-0.09,-0.07,0.26,-0.03,0.06,-0.01,0.13,-0.06,-0.02,0.15,-0.04,0,0,0.27,-0.05,0.01,-0.08,0.04,0.18,0.27,-0.03,0,0,0.01,-0.03,0.11,0.21,0.27,0.27,-0.03,0.04,0,0,-0.1,0.02,-0.04,0.26,-0.03,0,0,0.06,-0.04,0.13,-0.01,0.13,-0.06,-0.02,0.15,-0.04,0">applications, including cleaning, public relations, </tspan>
<tspan x="340.50" y="595.00" textLength="76.33" dx="0,0.21,-0.02,0,0,0.15,0.2,0.27,-0.06,0.01,0.05,0.14,0.21,-0.05,-0.08,-0.11">and maintenance.</tspan>
<tspan x="340.50" y="623.00" textLength="225.06" dx="0,0.12,0.07,-0.09,-0.04,-0.06,-0.07,0.07,0.08,0.18,0,0,0.2,0.06,0,0,-0.01,0.25,0.01,0.05,-0.02,0.18,0.27,-0.03,0,0,0.15,-0.02,0,0,0.06,-0.07,0.03,0.04,-0.03,0.28,0.26,-0.07,0.13,-0.03,0.08,0,0,-0.03,0,0,0.06,-0.01,0.09,-0.03,0.15,-0.04,0">Developers are extending the capabilities of robots, </tspan>
<tspan x="340.50" y="637.00" textLength="231.51" dx="0,0.07,0.06,0.05,0.11,0.03,0.27,-0.03,0,0,0.15,-0.02,0,0,0.09,-0.08,0.28,-0.02,0.17,0.2,0.5,0,0,0.09,0.03,0.31,-0.14,0.03,0.05,0,0,0.27,-0.02,-0.03,0.15,0.05,0.14,0.31,0.13,0.21,0,0,0.06,-0.01,0.09,-0.03,0.15,0,0,0.21,-0.02,0">crossing the boundary between industrial robots and </tspan>
<tspan x="340.50" y="651.00" textLength="230.36" dx="0,-0.05,-0.02,0.27,0.27,-0.02,-0.03,0.15,0.05,0.14,0.31,0.13,0.21,0,0,0.06,-0.01,0.09,-0.03,0.15,-0.08,0,0,0.38,-0.07,0.15,-0.05,-0.08,0.03,0.24,0,0,-0.11,0.01,0.01,0,0,0.03,0.07,-0.09,-0.04,-0.06,-0.07,-0.04,-0.01,0.05,-0.06,0,0,0.14,0">nonindustrial robots. Although much development is </tspan>
<tspan x="340.50" y="665.00" textLength="221.14" dx="0,0.05,0.13,0.28,0.28,0,0,0.06,0.03,0,0.26,0.26,0.06,0.03,0,0,-0.04,0,0,0.27,-0.08,-0.06,0.06,-0.11,-0.09,0,0,0.06,-0.01,0.09,-0.03,0.15,-0.22,0,0,-0.11,0.02,0.24,0.27,-0.07,0.13,0.04,-0.09,0,0,0.04,-0.03,0.28,0.26,-0.07,0.13,-0.03,0.08,-0.04,0">still required to improve robots&#8217; cognitive abilities, </tspan>
<tspan x="340.50" y="679.00" textLength="228.01" dx="0,0.15,0.21,-0.04,0,0,-0.03,0,0,0.15,-0.02,0,0,-0.08,0.26,0.28,-0.03,0.18,0.27,-0.03,0,0,-0.04,-0.06,0.07,0.02,0.19,0,0,-0.1,-0.03,0,0,0.34,0,0.2,0.26,0.31,0.14,0.05,0.13,-0.03,0,0,0.21,-0.02,0,0,0.27,-0.04,0.24,0.29,0.06,0">many of the building blocks for futuristic and highly </tspan>
<tspan x="340.50" y="693.00" textLength="221.11" dx="0,0.18,0.14,0,0.35,-0.05,-0.05,0.13,0.04,-0.09,0,0,0.2,0.07,0.05,0.01,0.05,0.16,0,0,-0.11,-0.08,0.28,-0.03,0,0,0.09,0,0,0.27,0,0,-0.07,0.13,0.03,-0.08,0,0,-0.06,0,0,0.08,-0.07,0.01,-0.16,0,0,-0.04,0.01,0.01,0">disruptive systems could be in place by 2030. Such </tspan>
<tspan x="340.50" y="707.00" textLength="219.56" dx="0,0.06,-0.01,0.09,-0.03,0.13,-0.03,0.03,0,0,-0.11,-0.08,0.28,-0.03,0,0,-0.04,0.26,0.27,0.28,0.27,0.14,-0.01,0.01,0,0,0.15,-0.02,0,0,-0.02,0.03,0.03,0,0,-0.09,-0.03,0,0,-0.12,0.28,0.15,0.21,0,0,0.13,0.04,0.09,-0.03,0">robotics could eliminate the need for human labor </tspan>
<tspan x="340.50" y="721.00" textLength="225.48" dx="0,0.05,-0.06,0.13,0.26,0.06,-0.04,0.06,0,0,0.27,0,0,0.08,-0.02,-0.01,0,0,0.15,0.21,-0.12,0.33,0.08,0.03,0.13,0.2,0.26,0.31,0.27,-0.03,0,0,0.05,-0.07,0.21,0.26,0.06,-0.02,0.28,-0.01,0.05,-0.06,0.15,-0.04,0,0,0.16,-0.07,0.15,0">entirely in some manufacturing environments, with </tspan></text><text class="f1549 f829" font-size="12.00" style="fill:#e6910d"><tspan x="75.00" y="88.64" textLength="208.27" dx="0,0,0,0,0,0,0,0,0,0,0,0,0,-0.22,0,0,0,0,0,0,0,0,0,0,0,0,0,0,0,0,0,0,0,0,0,0,0,0">&#8220;Such an approach could allow for the </tspan>
<tspan x="81.00" y="105.64" textLength="208.22" dx="0,0,0,0,0,0,0,-0.22,0,0,0,0,0,0,0,0,0,0,0,0,0,0,0,0,0,0,0,0,0,0,0,0,0,0,0,0,0,0">most effective possible deployment of </tspan>
<tspan x="81.00" y="122.65" textLength="225.56" dx="0,0,0,0,0,0,0,0,0,0,0,0,0,0,0,0,0,0,0,0,0,0,0,0,0,0,0,0,-0.22,0,0,0,0,0,0,0,0,0,0">new urban technologies&#8212;or create urban </tspan>
<tspan x="81.00" y="139.65" textLength="214.67" dx="0,0,0,0,0,0,0,0,-0.22,0,0,0,0,0,0,0,0,0,0,0,0,0,0,0,0,0,0,0,0,0,0,0,0,0,-0.22,0,0,0,0,0">nightmares, if new technologies are not </tspan>
<tspan x="81.00" y="156.66" textLength="116.92" dx="0,0,0,0,0,0,0,0,0,0,0,-0.22,0,0,0,0,0,0,0,0,-1.1,0">deployed effectively.&#8221;</tspan></text><text class="f1489 f786" font-size="10.00" style="fill:#231f20"><tspan x="75.00" y="189.00" textLength="197.44" dx="0,0.2,-0.11,-0.09,0.08,0.29,0.28,-0.01,0.05,-0.06,0.15,0,0,0.2,0.06,-0.08,0.28,-0.02,0,0,0.15,-0.02,0,0,-0.14,-0.03,0.02,-0.03,0.07,0,0,0.08,-0.03,0.07,0.01,0.08,0.13,0.21,0.28,0.06,0,0,0.27,0">Governments around the world, especially in </tspan>
<tspan x="75.00" y="203.00" textLength="218.22" dx="0,0.03,0.07,-0.09,-0.04,-0.06,-0.07,-0.05,0.27,-0.03,0,0,-0.11,-0.08,0.28,-0.06,0.14,0.31,-0.03,0.08,-0.04,0,0,-0.11,-0.08,0.28,-0.03,0,0,-0.03,0.07,0.05,-0.02,0,0,0.18,0,0,-0.11,0.01,0.01,0,0,0.18,0,0,0.09,-0.47,0">developing countries, could spend as much as $35 </tspan>
<tspan x="75.00" y="217.00" textLength="208.32" dx="0,0.14,0.31,0.28,0.28,0.26,-0.06,-0.02,0,0,0.27,0,0,-0.1,0.02,-0.04,0.26,-0.03,0.01,-0.11,-0.14,-0.03,0.03,0.19,0,0,-0.06,0.06,-0.06,0.01,0.01,0.13,0.15,0,0,0.27,0,0,0.15,-0.02,0,0,-0.02,-0.01,0.25,0,0,0.31,-0.14,0">trillion in public-works projects in the next two </tspan>
<tspan x="75.00" y="231.00" textLength="201.37" dx="0,0.03,0.01,0.06,0.04,0.03,0.08,-0.08,0,0,-0.74,0,0,0.02,0,0,0.08,0,0,0.27,0,0,0,0,0.15,0.21,0.28,-0.02,0.07,0,0,0.15,0.14,-0.01,0,0,0.15,0.27,0.28,0.27,0.28,0.18,0.04,0.08,0">decades. To do so in a manner that maximizes </tspan>
<tspan x="75.00" y="245.00" textLength="187.22" dx="0,0.06,0.15,0.05,0.18,0.2,0.27,0.14,0.04,-0.03,0.28,0.26,-0.07,0.34,-0.75,0,0,0,0.18,0.21,0.26,-0.07,0.34,0,0,-0.03,0,0,0.26,0.32,-0.09,-0.07,0,0,0.21,-0.02,0,0,0.01,-0.11,-0.02,-0.05,-0.02,0.28,-0.03,0">sustainability, quality of life, and economic </tspan>
<tspan x="75.00" y="259.00" textLength="200.21" dx="0,-0.11,-0.02,-0.08,0.07,0.03,0.13,-0.07,0.13,0.04,-0.09,0.05,-0.02,0.08,0.11,0,0,0.15,-0.02,0.1,0,0,0.16,0.28,0.28,0,0,-0.02,0.03,0.03,0,0,0,0,0.28,0.32,0,0,-0.03,0,0,-0.05,-0.11,-0.09,-0.04,0">competitiveness they will need a mix of novel </tspan>
<tspan x="75.00" y="273.00" textLength="240.78" dx="0,-0.07,-0.09,-0.06,0.06,0.06,0.03,0.01,-0.02,0.08,0,0,-0.04,0,0,0.09,0.01,0.12,0.26,0.31,-0.07,0.34,-0.75,0,0,0.05,-0.02,0.08,0.16,0.36,0,0,0.21,-0.02,0,0,0.04,-0.01,0.01,0.08,0,0,-0.11,-0.02,0.15,0.09,0.08,0.47,0.08,-0.01,0.13,-0.06,-0.02,-0.01,0">approaches to security, energy and water conservation, </tspan>
<tspan x="75.00" y="287.00" textLength="219.28" dx="0,0.06,0.08,0.08,-0.08,0.26,0.03,-0.08,0,0,0.18,0.14,0.05,0.14,0.31,0.03,-0.08,0,0.13,-0.06,-0.02,-0.01,0,0,0.04,0.18,0.05,0.01,0,0,0.15,0.21,0.14,0.12,-0.06,0.05,-0.01,0.05,-0.07,0,0,0,0.18,0.14,0.09,0.18,0.05,0.01,0.08,0">resource distribution, waste management, disaster </tspan>
<tspan x="75.00" y="301.00" textLength="234.42" dx="0,0.15,0.21,0.14,0.12,-0.06,0.05,-0.01,0.05,-0.06,0,0,0,-0.11,-0.02,0.15,0.05,0.14,0.35,0.01,0.13,0.13,-0.06,-0.02,-0.01,0,0,0.21,-0.02,0,0,0.14,0.22,0.21,0.15,-0.03,0.05,-0.03,0.36,0.18,-0.01,0.13,-0.06,-0.02,-0.04,0,0,0.24,-0.02,0.08,0.09,0">management, construction, and transportation. These </tspan>
<tspan x="75.00" y="315.00" textLength="213.21" dx="0,0.2,0.06,0.11,0.18,0,0,0.06,0.04,-0.06,0.06,0.08,0.09,0.05,-0.06,0,0,0.15,0.18,0.11,0.03,0.04,-0.09,0,0,0.15,0.2,0.03,-0.18,0.03,0,0,-0.07,-0.09,0.05,-0.03,0.35,0.2,0.28,0.27,-0.07,0.13,-0.03,0.08,0,0,-0.09,-0.03,0">areas represent massive market opportunities for </tspan>
<tspan x="75.00" y="329.00" textLength="213.32" dx="0,0.27,0.33,-0.09,-0.03,0.29,0.15,-0.01,0.13,-0.06,-0.02,0,0,0.01,0.01,0.01,0.28,-0.05,-0.04,-0.06,0.02,0.36,-0.75,0,0,0.2,0.07,0.05,0.01,0.05,0.16,0.29,0.12,0.27,-0.07,0.01,0.03,0.23,0.22,-0.01,0.13,-0.06,-0.02,-0.01,0,0,0.21,-0.02,0">information technology, systems-integration, and </tspan>
<tspan x="75.00" y="343.00" textLength="230.85" dx="0,0.06,0.15,0.05,0.18,0.2,0.27,0.14,0.04,-0.04,-0.03,0.21,0.15,0.01,0.01,0.01,0.28,-0.05,-0.04,-0.06,0.02,0.36,0,0,-0.06,0.06,-0.11,0.21,-0.03,0.03,0.08,0.18,0,0,0.21,-0.02,0,0,0.27,-0.06,0.01,0.03,0.23,0.22,-0.01,-0.04,-0.03,0.18,0,-0.1,-0.04,0">sustainable-technology providers and integrators&#8212;to </tspan>
<tspan x="75.00" y="357.00" textLength="241.14" dx="0,0.05,0.15,0.06,0.26,0.06,0,-0.09,0.15,0.14,-0.01,0,-0.09,0.15,-0.02,0,-0.09,-0.01,0.03,0.08,0.03,0.07,-0.07,0.13,-0.03,0.08,0,-0.09,0.03,0.07,-0.09,-0.04,-0.06,-0.07,-0.31,0,-0.09,0.09,-0.02,-0.01,0,-0.09,-0.03,0,-0.09,0.15,-0.02,0,-0.09,-0.14,-0.03,0.02,-0.03,-0.15,-0.51,0">ensure that the megacities develop. Some of the world&#8217;s </tspan>
<tspan x="75.00" y="371.00" textLength="239.4" dx="0,0.34,0,0.2,0.26,0.06,0,0,-0.01,0.03,0.08,0.03,0.07,-0.07,0.13,-0.03,0.08,0,0,0.16,0.28,0.28,0,0,0.08,0.11,0.09,0.05,-0.06,0.13,0.13,0.21,0.28,0.06,0,0,0.09,0,0,-0.08,0.26,0.28,-0.07,0,0,0.21,0.06,-0.02,0,0,0.09,0.07,0.22,-0.01,0.01,0.01,-0.01,0">future megacities will essentially be built from scratch, </tspan>
<tspan x="75.00" y="385.00" textLength="212.06" dx="0,0.05,0.14,0.04,-0.04,0.26,0.27,-0.03,0,0,0,0,-0.04,0.13,0.21,0.29,-0.33,0.24,-0.01,0.13,-0.01,0.01,0,0,-0.07,-0.09,-0.06,0.06,0.06,0.03,0.01,0,0,-0.04,0,0,0.27,0.33,0.21,0.22,0.18,0.05,0.14,0.35,0.01,0.13,0.2,0.26,0.06,0">enabling a blank-slate approach to infrastructure </tspan>
<tspan x="75.00" y="399.00" textLength="227.82" dx="0,0.03,0.08,0.03,-0.04,0.24,0,0,0.21,-0.02,0,0,0.27,-0.08,-0.07,-0.03,0.05,-0.01,0.05,-0.06,0.18,-0.01,0.13,-0.06,-0.02,-0.04,0,0,-0.04,0.01,0.01,0,0,0.21,0,0,-0.07,-0.09,-0.06,0.06,0.06,0.03,0.01,0,0,-0.11,-0.08,0.28,-0.03,0">design and implementation. Such an approach could </tspan>
<tspan x="75.00" y="413.00" textLength="223.07" dx="0,0.21,0.28,-0.06,-0.11,0,0,-0.09,-0.03,0,0,0.15,-0.02,0,0,-0.04,0.05,0.05,0,0,-0.01,0.27,-0.09,0.01,0.13,0.13,0.04,-0.09,0,0,0.05,0.05,0.11,0.03,0.03,-0.04,-0.03,0,0,0.03,0.04,-0.07,-0.06,-0.08,0.18,-0.01,0.05,-0.06,0,0,-0.03,0">allow for the most effective possible deployment of </tspan>
<tspan x="75.00" y="427.00" textLength="236.65" dx="0,-0.02,0.06,0,0,0.26,0.08,0.06,0.21,0,0,0.01,0.01,0.01,0.28,-0.05,-0.04,-0.06,0.02,0.23,-0.03,0.08,0,0.08,-0.03,0,0,0.07,0.06,0.11,-0.01,0.01,0,0,0.26,0.08,0.06,0.21,0,0,0.27,-0.04,0.24,-0.06,0.15,0.15,0.2,0.06,0.08,-0.04,0">new urban technologies&#8212;or create urban nightmares, </tspan>
<tspan x="75.00" y="441.00" textLength="234.26" dx="0,0.32,0,0,-0.02,0.06,0,0,0.01,0.01,0.01,0.28,-0.05,-0.04,-0.06,0.02,0.23,-0.03,0.08,0,0,0.2,0.06,0,0,-0.05,-0.03,0,0,0.03,0.04,-0.07,-0.06,-0.08,-0.12,0.03,0,0,-0.01,0.27,-0.09,0.01,0.13,0.13,0.04,-0.09,-0.04,0.06,-0.79,0,0,-0.04,0.05,0.05,0">if new technologies are not deployed effectively. Most </tspan>
<tspan x="75.00" y="455.00" textLength="221.72" dx="0,-0.01,0.03,0.08,0.03,0.07,-0.07,0.13,-0.03,0.08,0,0,0.16,0.28,0.28,0,0,-0.02,0.03,0.03,0,0,-0.04,0,0,0.27,-0.06,0.01,0.03,0.23,0.22,-0.01,0.01,0,0,-0.02,0.06,0,0,0.01,0.01,0.01,0.28,-0.05,-0.04,-0.06,0.02,0.23,-0.03,0.08,0">megacities will need to integrate new technologies </tspan>
<tspan x="75.00" y="469.00" textLength="215.47" dx="0,0.21,-0.02,0,0,-0.07,-0.09,-0.06,0.06,0.06,0.03,0.01,-0.02,0.08,0,0,0.27,-0.06,-0.04,0,0,-0.01,0.28,0.14,0.05,0.13,0.27,-0.03,0,0,-0.07,-0.04,0.07,0.03,-0.03,0.06,0.21,-0.02,0,0,0.08,0.07,0.07,0.13,0.21,-0.02,0,0,0.21,-0.02,0">and approaches into existing physical, social, and </tspan>
<tspan x="75.00" y="483.00" textLength="223.42" dx="0,-0.09,-0.11,-0.09,0.08,0.29,0.28,-0.01,0.05,-0.06,0,0,0.27,0.33,0.21,0.22,0.18,0.05,0.14,0.35,0.01,0.13,0.2,0.26,0.06,0.08,-0.04,0,0,0,0,-0.06,0.06,0.07,-0.08,0.08,0.11,0,0,0.15,0.14,-0.01,0,0,0.15,0.01,0,0,-0.05,-0.03,0">government infrastructures, a process that may not </tspan>
<tspan x="75.00" y="497.00" textLength="211.24" dx="0,0.21,0.03,0.04,0.01,0.07,0,0,0.18,-0.03,-0.04,-0.03,0,0,-0.09,0.07,0.09,0,0,0.06,0.08,0.06,0.28,-0.07,0.15,0,0.08,-0.03,0,0,0.15,0.01,0,0,-0.05,-0.03,0,0,0.14,-0.07,-0.09,0.07,0.05,0,0,-0.01,0">always yield good results&#8212;or may not happen at </tspan>
<tspan x="75.00" y="511.00" textLength="215.79" dx="0,0.21,0.28,-0.05,0,0,0.22,0,0,0.21,-0.04,0,0,0.07,-0.09,0.05,-0.06,0,0,0,-0.09,-0.03,0,0,0.09,-0.03,0.15,0,0,0.07,-0.07,0.13,-0.03,0.08,0,0,-0.08,0.26,0.28,-0.07,0,0,0.21,0.06,-0.02,0,0,0.09,0.07,0.22,-0.01,0.01,0.01,0">all. In any event, for both cities built from scratch </tspan>
<tspan x="75.00" y="525.00" textLength="211.72" dx="0,0.21,-0.02,0,0,0.07,-0.07,0.13,-0.03,0.08,0,0,-0.02,0.03,0.03,0.18,0.27,-0.03,0,0,-0.04,0,0,0.27,-0.06,0.01,0.03,0.23,0.22,-0.01,0.01,0,0,-0.02,0.06,0,0,0.01,0.01,0.01,0.28,-0.05,-0.04,-0.06,0.02,0.23,-0.03,0.08,0">and cities needing to integrate new technologies </tspan>
<tspan x="75.00" y="539.00" textLength="217.97" dx="0,0.27,-0.06,-0.04,0,0,-0.01,0.28,0.14,0.05,0.13,0.27,-0.03,0,0,0.27,0.33,0.21,0.22,0.18,0.05,0.14,0.35,0.01,0.13,0.2,0.26,0.06,0.08,-0.04,0,0,0.15,-0.02,0,0,0.15,-0.06,-0.01,-0.03,0,0,0.01,0.14,0.21,0.28,-0.03,0.05,-0.03,-0.06,0.08,0">into existing infrastructures, the major challenges </tspan>
<tspan x="75.00" y="553.00" textLength="216.69" dx="0,0.16,0.28,0.28,0,0,0.09,0,0,0.15,-0.02,0,0,0.05,-0.05,-0.03,0.29,-0.04,-0.08,0.15,0,0,0.09,0.06,0.21,-0.03,-0.07,0,0,-0.11,-0.02,-0.08,-0.07,-0.03,-0.01,0.28,-0.07,0.34,-0.75,0,0,0.21,-0.02,0,0,-0.11,0.05,0.05,0.15,0">will be the enormous scale, complexity, and costs </tspan>
<tspan x="75.00" y="567.00" textLength="224.02" dx="0,-0.03,0,0,-0.02,0.06,0,0,0.01,0.01,0.01,0.28,-0.05,-0.04,-0.06,0.02,0.23,-0.03,0.08,-0.08,0,0,0.08,-0.07,0.15,0,0,0.15,0.27,0.14,0,0,-0.02,0.11,-0.02,0.55,0,0,0.27,-0.07,-0.09,0.08,0.05,0.15,-0.01,0.05,-0.06,0,0,0.27,0">of new technologies. With this heavy investment in </tspan>
<tspan x="75.00" y="581.00" textLength="227.43" dx="0,0.02,0.15,0.2,0.36,-0.17,0.35,0.07,-0.07,0.34,0,0,0.27,0.33,0.21,0.22,0.18,0.05,0.14,0.35,0.01,0.13,0.2,0.26,0.06,0,0,0.27,0,0,0.43,0.21,0.31,-0.03,0.06,0.21,-0.01,0,0,0.22,-0.01,0.13,0.27,0,0,0.38,-0.01,0.08,0.31,-0.03,0.06,0.21,-0.01,0">smart-city infrastructure in African, Latin American, </tspan>
<tspan x="75.00" y="595.00" textLength="225.16" dx="0,0.21,-0.02,0,0,0.08,-0.03,0.07,0.01,0.07,0.13,0.21,0.28,0.06,0,0,0.24,0.03,0.13,0.21,0,0,0.26,0.08,0.06,0.21,0,0,-0.08,0.05,-0.06,0.01,0.08,0.18,-0.04,0,0,0.15,-0.02,0,0,0.04,-0.05,-0.03,-0.08,0.05,-0.06,0.01,0.08,0,0,-0.03,0">and especially Asian urban centers, the epicenter of </tspan>
<tspan x="75.00" y="609.00" textLength="238.65" dx="0,0.02,0.15,0.2,0.36,-0.17,0.35,0.07,-0.07,0.34,0,0,0.27,0.28,-0.05,-0.11,0.08,-0.01,0.13,-0.06,-0.02,0,0,0.16,0.28,0.28,0,0,0.09,0.03,0.23,0.27,0,0,-0.06,0,0,0.08,-0.07,0.01,0,0,-0.04,0,0,-0.04,-0.11,-0.09,0,0,-0.02,0.04,0.01,0">smart-city innovation will begin by 2030 to move away </tspan>
<tspan x="75.00" y="623.00" textLength="142.09" dx="0,0.21,0.06,-0.02,0,0,0.04,0.26,0.06,-0.07,0.07,0,0,0.21,-0.02,0,0,-0.06,-0.03,0.36,0.15,0,0,0.38,-0.01,0.08,0.31,-0.03,0.06,0.03">from Europe and North America.</tspan></text><text class="f5782 f5765" font-size="11.00" style="fill:#e6910d"><tspan x="75.00" y="656.00" textLength="211.84" dx="0,0,0,0,0,0,-1.01,0,0,0,0,0,0,0,0,0,0,0,0,0,-0.6,0,0,0,0,0,0,0,0">AUTOMATION AND MANUFACTURING </tspan>
<tspan x="75.00" y="670.00" textLength="87.36">TECHNOLOGIES</tspan></text><text class="f1489 f786" font-size="10.00" style="fill:#231f20"><tspan x="75.00" y="693.00" textLength="213.22" dx="0,0.24,0,0,0.15,0.21,-0.12,0.33,0.08,0.03,0.13,0.2,0.26,0.31,0.27,-0.03,0,0,0.14,0.18,0,0,-0.09,-0.02,-0.02,0,0,0.25,-0.06,-0.01,0.06,0.21,0,0,0.27,0,0,0.15,-0.02,0,0,0.13,0.18,0.05,0,0,0.31,-0.14,0">As manufacturing has gone global in the last two </tspan>
<tspan x="75.00" y="707.00" textLength="202.02" dx="0,0.03,0.01,0.06,0.04,0.03,0.08,-0.04,0,0,0,0,0.25,-0.06,-0.01,0.06,0.21,0,0,0.01,-0.11,0.05,0.2,0.07,0.05,0.01,0.05,0,0,-0.03,0,0,0.15,0.21,-0.12,0.33,0.08,0.03,0.13,0.2,0.26,0.06,0.08,0.18,-0.04,0">decades, a global ecosystem of manufacturers, </tspan>
<tspan x="75.00" y="721.00" textLength="225.42" dx="0,0.06,-0.05,-0.09,-0.07,0.26,-0.03,0.07,0.18,-0.04,0,0,0.21,-0.02,0,0,-0.06,0.02,0.23,0.14,0.05,0.13,-0.03,0.03,0,0,-0.11,-0.02,-0.08,0.03,0.21,0.27,-0.03,0.08,0,0,0.14,0.18,0,0,-0.09,-0.03,0.29,-0.01,0.03,0.03,0,0,-0.06,0.06,0">suppliers, and logistics companies has formed. New </tspan></text><path d="M15 21 l-15 0 M639 21 l15 0 M15 813 l-15 0 M639 813 l15 0 M21 15 l0 -15 M21 819 l0 15 M633 15 l0 -15 M633 819 l0 15 " style="stroke:#ffffff;stroke-width:1.25;"/><path d="M15 21 l-15 0 M639 21 l15 0 M15 813 l-15 0 M639 813 l15 0 M21 15 l0 -15 M21 819 l0 15 M633 15 l0 -15 M633 819 l0 15 " style="stroke:#000000;stroke-width:0.25;"/>
</svg>
