<svg class="crocodoc-2jt6Qd crocodoc-page-svg" version="1.1"
    xmlns="http://www.w3.org/2000/svg"
    xmlns:xlink="http://www.w3.org/1999/xlink"
    xmlns:xhtml="http://www.w3.org/1999/xhtml"
    xml:space="preserve" width="654.0pt" height="834.0pt" viewBox="0 0 654.0 834.0">
<xhtml:link href="stylesheet.css" type="text/css" rel="stylesheet" />
<style>
.crocodoc-2jt6Qd tspan { white-space:pre; }
.crocodoc-2jt6Qd path { fill:transparent; }

</style>
<defs>
<clipPath id="Clip_14_65_2jt6Qd_2"><path d="M3 831 l648 0 l0 -828 l-648 0 l0 828 " /></clipPath>
</defs>
<path d="M21 831 l630 0 l0 -828 l-630 0 l0 828 z " style="fill:#f9dfb4;"/><path d="M174 371.93 l459 0 l0 -114.18 l-459 0 l0 114.18 z " style="fill:#ffffff;"/><text class="f5782 f5765" font-size="15.00" style="fill:#231f20"><tspan x="210.00" y="303.38" textLength="86.56" dx="0,-0.15,-0.15,-0.15,-0.15,-0.15,-0.15,-0.15,-0.15,0">CHAPTER 2 </tspan>
<tspan x="210.00" y="338.18" textLength="290.2" class="f5785 f5766" font-size="29.00" dx="0,3.19,3.19,3.19,3.19,3.19,3.19,3.19,3.19,3.19,3.19,3.19,3.19">GAME-CHANGERS</tspan></text><path d="M482.7 57 c63.13 0 114.3 51.17 114.3 114.3 c0 60.3 -46.7 109.66 -105.91 113.96 l0 0.34 l-122.7 0 l0 -122.7 l0.34 0 c4.3 -59.2 53.66 -105.91 113.96 -105.91 " style="fill:#e6910d;"/><path d="M558.02 167.99 l-22.32 -39.68 c-0.23 -0.41 -0.68 -0.67 -1.15 -0.67 l-52.62 0.8 c-0.74 0.01 -1.29 0.63 -1.29 1.35 l-6.35 13.39 l-17.89 -10.37 c-0.4 -0.23 -0.9 -0.24 -1.31 -0.01 l-43.88 24.59 c-0.56 0.32 -0.8 0.99 -0.58 1.59 l-0.12 52.68 c0 0.47 0.25 0.91 0.66 1.15 l41.62 23.98 c0.1 0.92 1.12 1.46 1.94 1.01 l4.59 -2.58 l0.67 -0.37 l39.18 -22.03 c0.42 -0.23 0.68 -0.67 0.68 -1.15 l-0.01 -5.18 l33.02 -0.06 c0.44 0 0.85 -0.22 1.1 -0.59 l20.56 -31.2 l0.58 -0.88 l2.89 -4.4 c0.27 -0.4 0.29 -0.94 0.05 -1.37 M456.59 175.65 l-0.46 -0.83 l0.3 0.9 c-1.11 0.38 -2.39 0.48 -3.6 0.3 l-0.34 -0.12 l-26.43 -15.54 l-0.2 -0.12 l-0.12 -0.2 c-0.56 -0.91 -0.49 -1.98 0.19 -2.85 l0.29 -0.25 l28.12 -15.75 l0.32 -0.11 c0.61 -0.09 1.21 -0.12 1.82 -0.07 l0.22 0.02 l0.19 0.11 l14.9 8.64 l12.56 7.28 l0.21 0.12 l0.13 0.22 c0.51 0.88 0.45 1.87 -0.17 2.73 l-0.12 0.17 l-0.18 0.1 l-5.52 3.05 c-0.37 0.2 -1.22 0.67 -2.93 1.62 l-6.83 3.78 l-12.33 6.81 z M492.85 205.67 c-0.68 1.87 -1.81 3.35 -3.06 4.11 c0 0 -7.09 4.3 -7.11 4.31 l-21.22 11.93 l-0.39 0.22 l-0.42 -0.17 c-0.22 -0.09 -0.43 -0.21 -0.61 -0.35 l-0.36 -0.28 l0 -0.46 c0 0 -0.08 -30.14 -0.08 -30.17 l0.12 -4.91 c0.06 -2.52 1.79 -5.38 3.93 -6.49 l25.88 -13.5 c0.95 -0.5 1.92 -0.54 2.72 -0.12 l0.51 0.26 l0 0.57 c0 0 0.03 12.79 0.03 12.79 l0.01 0.67 l-0.05 0.31 c-0.01 0.02 0.05 2.15 0.05 2.17 l0.03 11.05 l0.02 7.89 z M544.57 177.06 l-13.23 20.07 l-0.79 -0.52 l0.64 0.7 c-0.95 0.88 -2.3 1.63 -3.78 2.13 l-0.29 0.05 l-27.02 0.04 l-0.92 0 l-0.02 -0.92 l-0.32 -11.89 l-0.01 -0.31 l0.18 -0.25 c0 0 2.75 -3.96 2.76 -3.98 l3.83 -5.22 l0.14 -0.15 c1.24 -1.09 3.04 -1.97 4.94 -2.38 l0.2 -0.02 l31.01 -0.09 l0.21 0.02 c1.31 0.29 2.23 0.95 2.58 1.86 l0.17 0.45 l-0.26 0.4 z M545.79 160.86 c-0.29 1.36 -1.63 2.22 -3.52 2.24 c0 0 -6.82 0.1 -6.83 0.1 l-24.73 0.25 c-2.33 -0.38 -4.33 -1.61 -5.16 -3.08 c0 0 -10.46 -18.45 -10.46 -18.46 l-1.79 -3.22 c-0.59 -1.36 -0.2 -2.64 0.95 -3.35 l0.22 -0.14 l0.26 0 l34.56 -0.53 l0.32 0.05 c0.84 0.29 1.64 0.71 2.3 1.22 l0.25 0.29 l13.53 23.98 l0.17 0.31 l-0.07 0.35 z " style="fill:#ffffff;"/><path d="M453.99 150.85 c-3.43 0.01 -8.78 1.88 -8.34 6.19 c0.39 3.84 5.11 5.34 8.36 5.33 c3.43 -0.01 8.77 -1.88 8.34 -6.19 c-0.39 -3.84 -5.11 -5.34 -8.36 -5.33 " style="fill:#ffffff;"/><path d="M512 140.02 c-2.9 -0.85 -6.8 0.05 -7.76 3.28 c-0.95 3.24 1.86 6.1 4.76 6.95 c2.9 0.85 6.8 -0.05 7.75 -3.28 c0.95 -3.24 -1.86 -6.1 -4.75 -6.95 " style="fill:#ffffff;"/><path d="M525.96 148.64 c-3.02 1.58 -3.32 5.33 -1.11 7.76 c2.11 2.31 5.89 3.2 8.71 1.72 c3.03 -1.57 3.32 -5.33 1.11 -7.76 c-2.11 -2.31 -5.89 -3.2 -8.72 -1.72 " style="fill:#ffffff;"/><path d="M519.34 181.28 c-2.86 -0.05 -5.86 1.82 -6.22 4.83 c-0.42 3.46 2.82 5.98 6.03 6.04 c2.86 0.05 5.86 -1.82 6.22 -4.83 c0.42 -3.46 -2.81 -5.98 -6.02 -6.04 " style="fill:#ffffff;"/><path d="M468.75 186.33 c-7.22 1.13 -7.79 14.92 0.32 13.66 c7.22 -1.13 7.79 -14.93 -0.32 -13.66 " style="fill:#ffffff;"/><path d="M483.04 207.5 c6.65 -1.04 7.12 -13.69 -0.33 -12.53 c-6.65 1.04 -7.11 13.7 0.33 12.53 " style="fill:#ffffff;"/><g clip-path="url(#Clip_14_65_2jt6Qd_2)" >
<g style="opacity:0.40;" ><path d="M217.12 435.1 c-11.49 -8.82 -23.17 -14.97 -34.84 -18.33 c-11.78 2.08 -21.49 5.75 -28.53 10.73 c6.63 -0.02 13.26 0.22 19.8 0.71 c14.4 1.08 29 3.39 43.57 6.89 M238.04 437.19 c2.61 -5.21 5.03 -9.64 7.22 -13.21 c0.78 -1.26 1.51 -2.4 2.2 -3.43 c-8.6 -2.1 -17.41 -3.74 -26.23 -4.89 c-1.25 -0.12 -2.58 -0.25 -3.91 -0.35 c-1.78 -0.14 -3.56 -0.24 -5.34 -0.31 c8.9 5.7 17.62 13.13 26.05 22.19 M219.89 510.03 c11.04 2.91 22.17 4.81 33.15 5.63 c6.94 0.52 13.83 0.58 20.54 0.18 c-9.57 -22.23 -20.58 -41.52 -32.78 -57.47 c-6.35 14.17 -13.37 31.51 -20.91 51.66 M211.43 446.49 c-10.62 -2.08 -21.3 -3.53 -31.87 -4.32 c-12.44 -0.93 -24.95 -0.95 -37.22 -0.09 c-2.45 8.03 -0.17 17.11 6.64 26.46 c20.63 -9.9 41.57 -17.29 62.46 -22.06 M129.55 478.68 c-8.03 -11.43 -11.24 -23.06 -9.4 -33.98 c-36.08 5.92 -69.22 19.89 -96.1 40.55 c-8.85 20.07 -3.89 43.86 13.99 67.33 c26.08 -29.35 57.61 -54.81 91.51 -73.9 M136.03 419.55 c-18.07 4.08 -35.44 10.19 -51.97 18.27 c13.7 -4.23 27.99 -7.18 42.76 -8.81 c2.48 -3.44 5.56 -6.6 9.2 -9.46 M52.4 568.65 c24.37 23.85 60.59 44.92 102.49 59.62 c12.76 -37.23 26.59 -73.34 40.13 -104.78 c-21.69 -7.98 -40.72 -19.16 -54.02 -31.75 c-32.84 20.12 -63.4 46.65 -88.6 76.91 M286.28 439.34 c3.49 0.26 6.96 0.64 10.39 1.11 c-7.89 -4.97 -16.9 -9.46 -26.56 -13.19 c-1.88 -0.67 -3.83 -1.31 -5.79 -1.95 c-3.42 2.4 -8.11 7.69 -13.1 14.73 c12.09 -1.3 23.85 -1.54 35.06 -0.71 M228.82 811.74 c-31.01 -2.32 -62.47 -7.97 -93.55 -16.82 c-5.54 24.93 -9.42 45.77 -11.55 61.97 c-0.13 0.92 -0.25 1.84 -0.35 2.72 l-0.03 0.28 l-0.03 0.25 c-0.47 3.95 -0.82 7.35 -1.04 10.37 c-0.08 0.94 -0.13 1.84 -0.18 2.7 c16.43 4.84 33.47 7.95 50.69 9.24 c28.96 2.16 57.66 -0.79 85.31 -8.79 c0.33 -0.34 0.66 -0.68 0.99 -1.04 c0.8 -0.85 1.58 -1.7 2.36 -2.58 c0.17 -0.19 0.32 -0.38 0.47 -0.56 l0.3 -0.36 c12.38 -14.36 22.62 -33.75 30.49 -57.69 c-20.39 1.84 -41.86 1.95 -63.88 0.3 M143.26 760.83 c30.55 8.74 61.49 14.32 92 16.61 c23.05 1.72 45.4 1.48 66.45 -0.71 c2.93 -14.7 5.03 -30.2 6.21 -46.12 c1.32 -17.67 1.56 -36.12 0.71 -54.88 c-18.27 1.75 -37.54 1.88 -57.3 0.41 c-26.94 -2.02 -54.26 -6.92 -81.25 -14.58 c-10.19 34.81 -19.21 68.18 -26.82 99.27 M253.41 649.04 c18.38 1.37 36.28 1.25 53.24 -0.38 c-3.96 -39.42 -12.61 -78.26 -25.09 -112.63 c-9.17 0.8 -18.79 0.83 -28.64 0.09 c-13.26 -0.99 -26.71 -3.33 -40.05 -6.95 c-11.48 31.97 -23.56 68.64 -35.03 106.36 c25.13 7.1 50.54 11.64 75.57 13.51 M203.27 504.82 c8.67 -19.07 16.96 -35.6 24.69 -49.24 c-22.45 4.98 -45.13 13.42 -67.58 25.15 c11.02 9.55 25.74 17.82 42.89 24.09 M-15.76 721.74 c-1.38 18.49 0.12 35.9 4.45 51.77 c4.37 6.79 9.13 13.4 14.14 19.67 c3.63 4.53 7.52 9.05 11.57 13.41 c23.46 25.23 52.61 45.39 84.49 58.47 c0 -3.24 0.12 -6.75 0.36 -10.5 l0.03 -0.46 l0.03 -0.44 l0.13 -1.89 l0.13 -1.52 c1.37 -16.91 4.8 -38.21 10.19 -63.35 c-50.26 -17.41 -94.35 -42.5 -124.97 -71.06 c-0.22 2.03 -0.4 3.98 -0.55 5.9 M35.88 590.08 c-20.44 28.76 -35.16 58.65 -43.79 88.9 c29.41 29.6 73.87 55.71 125.63 73.79 c7.8 -31.2 17.4 -64.39 28.56 -98.72 c-44.78 -15.66 -83.78 -38.27 -110.4 -63.97 M-35.66 723.54 c0.03 -4.24 0.2 -8.51 0.52 -12.8 c2.14 -6.02 0.89 -9.46 1.61 -14.34 c-4.88 -5.96 -9.18 -11.99 -12.83 -18.05 M-2.25 509.89 c-1.3 1.5 -2.59 3.01 -3.84 4.55 c-20.12 28.5 -33.3 60.52 -39.06 95.02 c1.03 16.19 7.88 32.96 20.36 49.94 c9.53 -29.56 24.85 -58.4 45.58 -85.82 c-16.98 -21.35 -24.84 -43.17 -23.04 -63.69 M295.33 859.43 c35.08 -16.85 65.25 -41.77 88.18 -72.8 c-17.79 9.76 -39.35 16.92 -64.27 21.33 c-6.22 19.86 -14.25 37.12 -23.91 51.48 M329.61 645.44 c35.76 -6.83 62.6 -21.12 75.96 -40.42 c-14.36 -34.17 -37.22 -66.07 -66.26 -92.47 c-8.48 9.71 -22.04 16.83 -39.51 20.73 c14.28 34.34 24.56 73 29.81 112.17 M347.13 499.1 c28.38 23.99 51.5 53.08 67.23 84.56 c0.79 -4.78 0.9 -9.73 0.33 -14.77 c-12.94 -35.11 -34.56 -67.14 -62.53 -92.64 c-2.02 -1.39 -4.14 -2.73 -6.32 -4.03 c3.64 9.25 4.1 18.41 1.29 26.88 M268.83 451.74 c21.31 8.72 41.44 19.83 60.02 33.13 c0.83 -7.68 -2.29 -16.13 -9.16 -24.68 c-12.47 -4.22 -25.96 -6.9 -40.11 -7.96 c-3.52 -0.26 -7.11 -0.43 -10.74 -0.49 M322.46 498.36 c-19.6 -15.22 -41.02 -27.79 -63.83 -37.46 c11.87 15.25 22.73 32.94 32.35 52.75 c14.01 -2.89 25.03 -8.24 31.48 -15.28 M414.97 631.86 c-16.88 19.46 -45.89 33.75 -82.54 40.57 c1.61 21.54 1.66 42.72 0.15 63 c-0.96 12.81 -2.55 25.39 -4.76 37.46 c39.79 -7.77 69.75 -22.88 86.84 -43.84 c2.84 -7.7 5.3 -15.72 7.33 -23.85 l0.02 -0.28 c0.11 -1.07 0.21 -2.15 0.29 -3.23 c1.71 -22.95 -0.75 -46.41 -7.33 -69.83 " style="fill:#e6910d;"/></g></g><path d="M3 813 l18 0 l0 -369 l-18 0 l0 369 z " style="fill:#ffffff;"/><path d="M15 21 l-15 0 M639 21 l15 0 M15 813 l-15 0 M639 813 l15 0 M21 15 l0 -15 M21 819 l0 15 M633 15 l0 -15 M633 819 l0 15 " style="stroke:#ffffff;stroke-width:1.25;"/><path d="M15 21 l-15 0 M639 21 l15 0 M15 813 l-15 0 M639 813 l15 0 M21 15 l0 -15 M21 819 l0 15 M633 15 l0 -15 M633 819 l0 15 " style="stroke:#000000;stroke-width:0.25;"/>
</svg>
