<svg class="crocodoc-2jt6Qd crocodoc-page-svg" version="1.1"
    xmlns="http://www.w3.org/2000/svg"
    xmlns:xlink="http://www.w3.org/1999/xlink"
    xmlns:xhtml="http://www.w3.org/1999/xhtml"
    xml:space="preserve" width="654.0pt" height="834.0pt" viewBox="0 0 654.0 834.0">
<xhtml:link href="stylesheet.css" type="text/css" rel="stylesheet" />
<style>
.crocodoc-2jt6Qd tspan { white-space:pre; }
.crocodoc-2jt6Qd path { fill:transparent; }

</style>
<defs>
<linearGradient id="Grad_16_40_2jt6Qd" x1="44.82%" y1="92.27%" x2="90.53%" y2="92.27%"><stop offset="0.00" style="stop-color:#ffffff" /><stop offset="0.25" style="stop-color:#eeeeee" /><stop offset="0.50" style="stop-color:#bdbdbd" /><stop offset="0.75" style="stop-color:#6d6d6d" /><stop offset="1.00" style="stop-color:#000000" /></linearGradient>
<mask id="Mask_15_40_2jt6Qd">
<g ><path d="M3 831 l648 0 l0 -828 l-648 0 l0 828 " style="fill:url(#Grad_16_40_2jt6Qd);"/></g></mask>
</defs>

<g style="opacity:0.40;" ><path d="M71.97 751.59 c0.77 -0.59 1.54 -1 2.32 -1.22 c0.78 0.14 1.43 0.38 1.9 0.71 c-0.44 0 -0.88 0.01 -1.32 0.05 c-0.96 0.07 -1.93 0.23 -2.9 0.46 M70.58 751.73 c-0.17 -0.35 -0.34 -0.64 -0.48 -0.88 c-0.05 -0.08 -0.1 -0.16 -0.15 -0.23 c0.57 -0.14 1.16 -0.25 1.75 -0.32 c0.08 -0.01 0.17 -0.02 0.26 -0.02 c0.12 -0.01 0.24 -0.02 0.35 -0.02 c-0.59 0.38 -1.17 0.87 -1.73 1.48 M71.79 756.57 c-0.73 0.19 -1.47 0.32 -2.2 0.38 c-0.46 0.03 -0.92 0.04 -1.37 0.01 c0.64 -1.48 1.37 -2.76 2.18 -3.83 c0.42 0.94 0.89 2.1 1.39 3.44 M72.35 752.35 c0.71 -0.14 1.42 -0.24 2.12 -0.29 c0.83 -0.06 1.66 -0.06 2.48 -0.01 c0.16 0.53 0.01 1.14 -0.44 1.76 c-1.37 -0.66 -2.77 -1.15 -4.16 -1.47 M77.8 754.49 c0.53 -0.76 0.75 -1.53 0.63 -2.26 c2.4 0.39 4.61 1.32 6.39 2.7 c0.59 1.34 0.26 2.92 -0.93 4.48 c-1.73 -1.95 -3.83 -3.65 -6.09 -4.92 M77.37 750.55 c1.2 0.27 2.36 0.68 3.46 1.22 c-0.91 -0.28 -1.86 -0.48 -2.85 -0.59 c-0.17 -0.23 -0.37 -0.44 -0.61 -0.63 M82.93 760.48 c-1.62 1.59 -4.03 2.99 -6.82 3.97 c-0.85 -2.48 -1.77 -4.88 -2.67 -6.97 c1.44 -0.53 2.71 -1.27 3.59 -2.11 c2.19 1.34 4.22 3.11 5.9 5.12 M67.37 751.87 c-0.23 0.02 -0.46 0.04 -0.69 0.07 c0.52 -0.33 1.13 -0.63 1.77 -0.88 c0.13 -0.05 0.25 -0.09 0.39 -0.13 c0.23 0.16 0.54 0.51 0.87 0.98 c-0.8 -0.09 -1.59 -0.1 -2.33 -0.05 M71.19 776.65 c2.06 -0.15 4.16 -0.53 6.23 -1.12 c0.37 1.66 0.63 3.04 0.77 4.12 l0.03 0.2 c0.03 0.28 0.06 0.5 0.07 0.71 c-1.08 0.5 -2.22 0.71 -3.36 0.79 c-1.93 0.14 -3.84 -0.05 -5.68 -0.59 c-0.12 -0.13 -0.17 -0.18 -0.22 -0.24 c-0.88 -1.02 -1.56 -2.31 -2.08 -3.9 c1.36 0.12 2.79 0.13 4.25 0.02 M76.89 773.26 c-2.03 0.58 -4.09 0.95 -6.12 1.11 c-1.53 0.12 -3.02 0.1 -4.42 -0.05 c-0.2 -0.98 -0.33 -2.01 -0.41 -3.07 c-0.09 -1.18 -0.1 -2.4 -0.05 -3.65 c1.22 0.12 2.5 0.13 3.81 0.03 c1.79 -0.13 3.61 -0.46 5.41 -0.97 c0.68 2.32 1.28 4.54 1.78 6.61 M69.56 765.83 c-1.22 0.09 -2.41 0.08 -3.54 -0.03 c0.26 -2.62 0.84 -5.21 1.67 -7.5 c0.61 0.05 1.25 0.06 1.91 0.01 c0.88 -0.07 1.78 -0.22 2.67 -0.46 c0.76 2.13 1.57 4.57 2.33 7.08 c-1.67 0.47 -3.36 0.77 -5.03 0.9 M72.89 756.23 c-0.58 -1.27 -1.13 -2.37 -1.64 -3.28 c1.49 0.33 3 0.89 4.5 1.67 c-0.73 0.64 -1.71 1.19 -2.85 1.6 M87.47 770.66 c0.09 1.23 -0.01 2.39 -0.3 3.44 c-0.29 0.45 -0.61 0.89 -0.94 1.31 c-0.24 0.3 -0.5 0.6 -0.77 0.89 c-1.56 1.68 -3.5 3.02 -5.62 3.89 c0 -0.22 -0.01 -0.45 -0.02 -0.7 l-0.02 -0.29 c-0.09 -1.13 -0.32 -2.54 -0.68 -4.22 c3.34 -1.16 6.28 -2.83 8.32 -4.73 c0.01 0.13 0.03 0.26 0.04 0.39 M84.03 761.9 c1.36 1.91 2.34 3.9 2.91 5.92 c-1.96 1.97 -4.92 3.71 -8.36 4.91 c-0.52 -2.08 -1.16 -4.28 -1.9 -6.57 c2.98 -1.04 5.58 -2.55 7.35 -4.26 M88.79 770.78 c0 -0.28 -0.01 -0.57 -0.03 -0.85 c-0.02 -0.31 -0.06 -0.63 -0.11 -0.96 c0.33 -0.4 0.61 -0.8 0.85 -1.2 c-0.13 1.02 -0.37 2.03 -0.71 3.01 M86.57 756.56 c0.09 0.1 0.17 0.2 0.26 0.3 c1.34 1.9 2.22 4.03 2.6 6.32 c-0.07 1.08 -0.52 2.19 -1.36 3.32 c-0.63 -1.97 -1.65 -3.89 -3.03 -5.71 c1.13 -1.42 1.65 -2.87 1.53 -4.24 M66.77 779.83 c-2.34 -1.12 -4.34 -2.78 -5.87 -4.85 c1.18 0.65 2.62 1.13 4.28 1.42 c0.41 1.32 0.95 2.47 1.59 3.43 M64.48 765.59 c-2.38 -0.45 -4.17 -1.41 -5.05 -2.69 c0.95 -2.27 2.48 -4.4 4.41 -6.15 c0.57 0.65 1.47 1.12 2.63 1.38 c-0.95 2.29 -1.63 4.86 -1.98 7.47 M63.32 755.85 c-1.89 1.6 -3.43 3.53 -4.47 5.63 c-0.05 -0.32 -0.06 -0.65 -0.02 -0.98 c0.86 -2.34 2.3 -4.47 4.16 -6.16 c0.13 -0.09 0.28 -0.18 0.42 -0.27 c-0.24 0.62 -0.27 1.22 -0.09 1.79 M68.53 752.69 c-1.42 0.58 -2.76 1.32 -4 2.21 c-0.05 -0.51 0.15 -1.07 0.61 -1.64 c0.83 -0.28 1.73 -0.46 2.67 -0.53 c0.23 -0.02 0.47 -0.03 0.72 -0.03 M64.96 755.8 c1.3 -1.01 2.73 -1.85 4.25 -2.49 c-0.79 1.01 -1.51 2.19 -2.15 3.51 c-0.93 -0.19 -1.67 -0.55 -2.09 -1.02 M58.8 764.68 c1.12 1.29 3.05 2.25 5.49 2.7 c-0.11 1.43 -0.11 2.84 -0.01 4.19 c0.06 0.85 0.17 1.69 0.32 2.49 c-2.65 -0.52 -4.64 -1.52 -5.78 -2.92 c-0.19 -0.51 -0.35 -1.05 -0.49 -1.59 c-0.01 -0.09 -0.02 -0.16 -0.02 -0.23 c-0.11 -1.53 0.05 -3.09 0.49 -4.65 " style="fill:#d3d2d2;"/></g><text class="f5782 f5765" font-size="8.00" style="fill:#231f20"><tspan x="69.24" y="769.34" textLength="10.03" dx="0,0.56">16</tspan></text><text class="f1560 f5766" font-size="8.00" style="fill:#656263"><tspan x="87.25" y="769.13" textLength="97.51" class="f1561 f781" dx="0,0.56,0.56,0.56,0.56,0.56,0.56,0.56,0.56,0.56,0.56,0.56,0.56,0.56,0.56,0.56,0.56,0.56,0.56">GLOBAL TRENDS 2030:</tspan>
<tspan x="185.32" y="769.13" textLength="97.73" dx="0,0.56,0.56,-0.18,0.56,0.56,0.56,0.56,0.02,0.56,0.56,0.56,0.56,0.56,0.56,0.56,0.56,0.56,0.56"> ALTERNATIVE WORLDS</tspan></text>
<g mask="url(#Mask_15_40_2jt6Qd)" ><path d="M295.95 766.5 l292.19 0 " style="stroke:#918f8f;stroke-width:1.00;stroke-dasharray:0.001,1.994;stroke-linecap:round;stroke-linejoin:round;"/><path d="M293.95 766.5 M589.14 766.5 " style="stroke:#918f8f;stroke-width:1.00;stroke-linecap:round;stroke-linejoin:round;"/></g><text class="f1489 f786" font-size="10.00" style="fill:#231f20"><tspan x="340.50" y="91.00" textLength="55.29" dx="0,0.06,0.27,0.27,0.14,-0.32,-0.51,0,0,-0.04,-0.09,-0.87">China&#8217;s GDP,</tspan>
<tspan x="395.57" y="87.67" textLength="2.87" font-size="5.83">c</tspan>
<tspan x="398.45" y="91.00" textLength="163.72" dx="0,0,-0.09,-0.03,0,0,-0.01,0.15,0.21,-0.08,-0.07,-0.03,-0.07,0,0,0.14,0,0,0.26,0.28,-0.18,-0.04,0.06,0,0,-0.04,0,0,0.09,0,0,0.04,0.09,-0.08,0,0,0,-0.73,0.08,0"> for example, is likely to be about 140 </tspan>
<tspan x="340.50" y="105.00" textLength="117.47" dx="0,0.07,0.08,0.03,-0.08,0.05,-0.07,0,0,0.13,0.2,0.16,-0.06,0.08,0,0,0.15,0.14,0.21,0,0,-0.08,-0.07,0.03,0.21,-0.31,-0.51,-0.08">percent larger than Japan&#8217;s.</tspan>
<tspan x="340.50" y="133.00" textLength="209.31" dx="0,0.24,0,0,0.15,-0.02,0,0,-0.14,-0.03,0.02,-0.03,-0.15,-0.51,0,0,0.13,0.2,0.16,-0.06,0.08,0.05,0,0,0.01,-0.11,-0.02,-0.05,-0.02,0.28,-0.03,0,0,0.05,-0.11,-0.14,0.08,-0.44,0,0,0.05,0.27,0.27,0.14,0,0,0.14,0">As the world&#8217;s largest economic power, China is </tspan>
<tspan x="340.50" y="147.00" textLength="231.2" dx="0,-0.01,0.07,0.07,0.01,0.13,0.01,0.03,0,0,-0.04,0,0,0.06,0.05,0.15,0.2,0.27,0,0,0.21,-0.02,0.11,0.04,0,0,-0.03,0,0,0.22,-0.02,0.18,0.13,0.07,0,0,-0.08,0,0,0,0.15,-0.02,0,0,0.08,-0.07,0,0,-0.11,-0.08,0.28,-0.03,0">expected to remain ahead of India, but the gap could </tspan>
<tspan x="340.50" y="161.00" textLength="207.61" dx="0,0.09,0.03,0.23,0.27,0,0,-0.04,0,0,0.01,-0.06,0.05,0.09,0,0,-0.06,0,0,0.08,-0.07,0.01,-0.16,0,0,0.22,-0.02,0.18,0.13,-0.32,-0.51,0,0,0.22,-0.01,0.01,0,0,-0.03,0,0,0.01,-0.11,-0.02,-0.05,-0.02,0.28,-0.03,0">begin to close by 2030. India&#8217;s rate of economic </tspan>
<tspan x="340.50" y="175.00" textLength="224.72" dx="0,0.23,0.06,-0.11,0.36,0.15,0,0,0.14,0,0,0.26,0.28,-0.18,-0.04,0.06,0,0,-0.04,0,0,0.31,0.14,0.09,0,0,0.02,0.27,0.28,-0.03,0,0,0.06,0.27,0.27,0.14,-0.32,-0.51,0,0,-0.01,-0.06,-0.11,0.05,-0.08,0,0,0.22,0,0,0.08,-0.07,0.01,0">growth is likely to rise while China&#8217;s slows. In 2030 </tspan>
<tspan x="340.50" y="189.00" textLength="228.12" dx="0,0.22,-0.02,0.18,0.13,0,0,-0.11,-0.08,0.28,-0.03,0,0,0.09,0,0,0.15,-0.02,0,0,0.31,0.14,0.03,0.27,-0.03,0,0,0.01,-0.11,-0.02,-0.05,-0.02,0.28,-0.03,0,0,0.05,-0.11,-0.14,0.08,0.01,-0.05,-0.08,0.15,0.09,0,0,0.15,0.14,-0.01,0">India could be the rising economic powerhouse that </tspan>
<tspan x="340.50" y="203.00" textLength="226.09" dx="0,0.06,0.27,0.27,0.14,0,0,0.14,0,0,0.09,0.03,0.05,0,0,-0.04,0,0,0.09,0,0,-0.04,0.09,0.17,0.01,-0.79,0,0,0.06,0.27,0.27,0.14,-0.32,-0.51,0,0,0.12,0.26,0.3,0.06,0.05,-0.07,0,0,0.01,-0.11,-0.02,-0.05,-0.02,0.28,-0.03,0">China is seen to be today. China&#8217;s current economic </tspan>
<tspan x="340.50" y="217.00" textLength="215.54" dx="0,0.23,0.06,-0.11,0.36,0.15,0,0,0.22,-0.01,0.01,-0.08,0.14,0,0,-0.04,0,0,-0.46,0,0,0.07,0.08,0.03,-0.08,0.05,-0.06,-0.46,-0.38,0.16,0.28,0.28,0,0,-0.06,0.06,-0.01,0.06,0.04,-0.04,0.06,0,0,0.09,0,0,0">growth rate&#8212;8 to 10 percent&#8212;will probably be a </tspan>
<tspan x="340.50" y="231.00" textLength="106.96" dx="0,0.18,0.14,0.05,0.18,0.21,-0.06,0,0,-0.01,0.05,-0.04,-0.03,0.5,0,0,-0.06,0,0,0.08,-0.07,0.01,-0.16">distant memory by 2030.</tspan>
<tspan x="340.50" y="259.00" textLength="230.4" dx="0,0.24,-0.02,0,0,-0.04,-0.03,0.18,0.21,0,0,0.03,0.18,0.04,0,0,-0.03,0,0,0.15,-0.02,0,0,0.06,0.27,0.27,-0.02,0.08,0.09,0,0,-0.14,-0.03,0.03,0.31,0.27,-0.03,0.01,0.23,0.12,-0.06,0,0,0.05,-0.07,-0.1,0.28,0.13,-0.01,0.13,-0.06,-0.02,0">The total size of the Chinese working-age population </tspan>
<tspan x="340.50" y="273.00" textLength="204.85" dx="0,0.16,0.28,0.28,0,0,0.07,0.11,0.22,0,0,0.27,0,0,0.08,-0.48,-0.47,0,0,0.21,-0.02,0,0,0.03,0.01,0.01,0.26,0.27,-0.02,0,0,0.21,0.06,-0.02,0,0,0.08,0.01,0,0,0.28,0.28,0.28,0.26,-0.06,-0.02,0">will peak in 2016 and decline from 994 million </tspan>
<tspan x="340.50" y="287.00" textLength="209.24" dx="0,-0.04,0,0,0.04,0.09,-0.08,0,0,0,0.14,-0.63,0,0,0.28,0.28,0.28,0.26,-0.06,-0.02,0,0,0.27,0,0,0.08,-0.07,0.01,-0.16,0,0,0.22,0,0,-0.11,-0.02,-0.07,0.14,0.22,0.18,0.05,0,0,0,0.22,-0.02,0.18,0.13,-0.32,-0.51,0">to about 961 million in 2030. In contrast, India&#8217;s </tspan>
<tspan x="340.50" y="301.00" textLength="209.45" dx="0,-0.14,-0.03,0.03,0.31,0.27,-0.03,0.01,0.23,0.12,-0.06,0,0,0.05,-0.07,-0.1,0.28,0.13,-0.01,0.13,-0.06,-0.02,0,0,0.14,0,0,0.28,0.29,0.26,0.28,-0.18,-0.04,0.06,0,0,-0.04,0,0,0.07,0.11,0.22,0,0,0.28,-0.07,0.13,0.28,0">working-age population is unlikely to peak until </tspan>
<tspan x="340.50" y="315.00" textLength="235.18" dx="0,0.04,0.09,-0.08,0,0,0,0.08,-0.06,-0.04,-0.16,0,0,0.38,0.14,0.08,0,0,-0.03,0,0,0.03,-0.04,0.24,0.27,0.33,-0.01,0.06,0.21,-0.05,-0.08,-0.07,0,0,0.22,-0.02,0.18,0.13,0,0,0.16,0.28,0.28,0,0,-0.04,0.05,0.05,0,0,0.26,0.28,-0.18,-0.04,0.06,0">about 2050. Also of signi&#59904;cance, India will most likely </tspan>
<tspan x="340.50" y="329.00" textLength="237.87" dx="0,-0.11,-0.02,-0.06,0.13,0.27,-0.12,0.04,0,0,-0.04,0,0,-0.11,-0.02,0.15,0.08,-0.04,0.26,-0.03,0.17,-0.01,0.01,0,0,-0.07,0.15,0,0,0.04,-0.11,-0.14,0.08,0,0,0.04,0.08,0.08,0.21,-0.06,0.18,0.12,-0.06,0,0,0.06,-0.04,0.13,-0.01,0.13,0.04,-0.09,0,0,-0.04,0">continue to consolidate its power advantage relative to </tspan>
<tspan x="340.50" y="343.00" textLength="236.2" dx="0,0.06,0.22,0.31,0.14,0.05,0.18,0.21,-0.04,0,0,0.22,-0.02,0.18,0.13,-0.32,-0.51,0,0,0.01,-0.11,-0.02,-0.05,-0.02,-0.01,0,0,0.14,0,0,0.21,0.26,0.06,0.11,0.04,0.11,0,0,-0.02,0.11,0.2,0.02,0.06,0,0,0.08,-0.04,0.24,-0.07,0,0,0.13,0.27,-0.01,0.08,0">Pakistan. India&#8217;s economy is already nearly eight times </tspan>
<tspan x="340.50" y="357.00" textLength="238.99" dx="0,0.18,0,0,0.13,0.2,0.16,-0.06,0,0,0.18,0,0,0.06,0.22,0.31,0.14,0.05,0.18,0.21,-0.31,-0.51,0.25,0,0,-0.06,0,0,0.08,-0.07,0.01,0,0,0.15,0.14,-0.01,0,0,0.22,-0.01,0.13,-0.06,0,0,-0.11,-0.08,0.28,-0.03,0,0,0.11,0.18,0.03,0.28,0.06,0,0,0.09,0">as large as Pakistan&#8217;s; by 2030 that ratio could easily be </tspan>
<tspan x="340.50" y="371.00" textLength="78.32" dx="0,-0.04,-0.03,0.06,0,0,0.15,0.14,0.21,0,0,-0.47,0.58,0.15,-0.04,0.36,-0.39,-0.46">more than 16-to-1.</tspan>
<tspan x="340.50" y="399.00" textLength="205.16" dx="0,0.22,0,0,0.43,0.21,0.31,-0.03,0.06,0.07,0,0,0.15,0.36,0.2,-0.05,0,0,0,0.09,0.15,0.27,-0.06,-0.07,-0.05,0.13,0.07,0,0,0.21,-0.02,0,0,-0.05,-0.04,-0.06,0.08,0.31,0.13,0,0,0.14,-0.02,-0.09,0,0,0.15,-0.02,0">In Africa, Egypt, Ethiopia, and Nigeria have the </tspan>
<tspan x="340.50" y="413.00" textLength="208.73" dx="0,0.05,-0.03,0.01,0.05,-0.06,0.13,0.13,0.21,0,0,-0.04,0,0,-0.07,-0.09,-0.06,0.06,0.06,0.03,0.01,0,0,-0.03,0,0,0.06,0.26,0.28,0.03,0.18,0.11,0,0,0.09,-0.08,0,0.15,0,0,0.43,0.21,0.31,-0.03,0.06,0,0,0.27,0">potential to approach or surpass South Africa in </tspan>
<tspan x="340.50" y="427.00" textLength="213.57" dx="0,-0.11,-0.09,0.08,0.22,0.21,0.28,0,0,0.14,-0.01,0.13,-0.06,-0.02,0.14,0.21,0,0,0.05,-0.11,-0.14,0.08,-0.44,0,0,-0.08,0,0,0,0.15,-0.02,0,0,-0.18,0.1,0,0,0.16,0.28,0.28,0,0,0.09,0,0,0.09,0.03,0.19,0.01,0.08,0">overall national power, but the key will be better </tspan>
<tspan x="340.50" y="441.00" textLength="222.11" dx="0,-0.09,-0.11,-0.09,0.08,0.29,0.14,0.21,-0.05,-0.08,0,0,-0.04,0,0,0.34,0.26,0.36,0.15,-0.02,0.08,0,0,0.01,-0.11,-0.02,-0.05,-0.02,0.28,-0.03,0,0,0.23,0.06,-0.11,0.36,0.15,0,0,0.21,-0.02,0,0,0.08,0.07,0.07,0.13,0.21,0">governance to further economic growth and social </tspan>
<tspan x="340.50" y="455.00" textLength="235.13" dx="0,0.21,-0.02,0,0,-0.12,0.28,0.15,0.21,0,0,0.02,0.07,-0.09,-0.04,-0.06,-0.07,-0.04,-0.01,0.05,-0.06,-0.05,0,0,0.22,0,0,0.09,-0.08,0,0.15,-0.02,0.11,0.18,0.05,0,0,0.24,0.03,0.13,0.07,0,0,0.07,-0.03,0.03,0.15,0.14,0.21,-0.3,-0.51,0">and human development. In Southeast Asia, Vietnam&#8217;s </tspan>
<tspan x="340.50" y="469.00" textLength="210.2" dx="0,0.06,0.03,0.23,-0.06,-0.02,0.14,0.21,0,0,0.05,-0.11,-0.14,0.08,0,0,0.16,0.28,0.28,0,0,0.23,0.06,-0.11,-0.77,0,0,-0.07,-0.09,-0.06,0.06,0.06,0.03,0.01,0.27,0.27,-0.03,0,0,-0.06,0,0,0.08,-0.08,0.01,-0.12,0">regional power will grow, approaching by 2030, </tspan>
<tspan x="340.50" y="483.00" textLength="213.02" dx="0,0.24,0.14,0.2,0.28,0.13,0.21,-0.02,0.03,0,0,0.07,-0.03,0.03,0.15,0.14,0.21,0,0,0.09,0.05,-0.02,0.02,-0.05,0.15,0,0,0.21,0.06,-0.02,0,0,0,0,0.05,0.01,0.11,0.04,0.11,0,0,0.23,0.06,-0.11,0.36,0.15,0">Thailand. Vietnam bene&#59904;ts from a steady growth </tspan>
<tspan x="340.50" y="497.00" textLength="220.62" dx="0,0.27,0,0,-0.04,-0.09,0,0,0.07,0.08,0,0,0.06,-0.07,-0.05,-0.07,0.18,0,0,0.02,0.27,0.28,-0.03,0,0,0.24,0.14,0.2,0.28,0.13,0.21,-0.02,0,0,0.14,0.18,0,0,0.09,0.03,0.05,0,0,0.06,0.02,-0.06,0.01,0.01,0.13,0">in GDP per capita while Thailand has been subject </tspan>
<tspan x="340.50" y="511.00" textLength="214.37" dx="0,-0.04,0,0,0.08,0.3,0.22,-0.01,0.13,-0.03,-0.1,0,0,0.19,0.06,-0.07,0.34,0.23,0.21,-0.02,0.19,0.24,0.06,0.26,0.16,-0.06,0,0,-0.04,-0.09,0,0,0.07,0.08,0.14,0.35,0.06,-0.07,-0.05,-0.07,0.18,0.1,0.25,0.23,0.06,-0.11,0.36,0.15,0">to erratic, drop-and-surge GDP per-capita-growth </tspan>
<tspan x="340.50" y="525.00" textLength="234.34" dx="0,0.03,-0.01,0.19,0.01,0.08,0.29,0.15,-0.08,0,0,0.22,0,0,0.22,-0.01,0.13,0.27,0,0,0.38,-0.01,0.08,0.31,-0.03,0.06,0.07,0,0,0.15,-0.02,0,0,-0.02,-0.01,0.25,0,0,-0.85,0,0,-0.12,0.11,0.2,0.18,0,0,-0.06,0.06,-0.01,0.06,0.04,-0.04,0.06,0">patterns. In Latin America, the next 15 years probably </tspan>
<tspan x="340.50" y="539.00" textLength="224.45" dx="0,0.16,0.28,0.28,0,0,-0.11,-0.02,0.34,0.28,0.29,0,0,0.09,0.22,0.17,0.16,0.28,-0.2,-0.51,0,0,0.05,0.05,0.03,-0.07,0.13,-0.06,-0.02,0,0,0.18,0,0,0.15,-0.02,0,0,-0.4,-0.11,-0.04,-0.06,0.05,0.11,0.06,0.15,0,0,-0.03,0,0,0.15,-0.02,0">will con&#59904;rm Brazil&#8217;s position as the &#8220;colossus of the </tspan>
<tspan x="340.50" y="553.00" textLength="228.48" dx="0,0.09,-0.08,0,0.15,-0.01,-0.76,0,0,0.27,-0.05,0.07,0.06,0.11,0.18,0.03,0.27,-0.03,0,0,-0.07,0.15,0,0,0.05,0.05,0.03,-0.07,0.13,-0.06,-0.02,0,0,0.06,-0.04,0.13,-0.01,0.13,0.04,-0.09,0,0,-0.04,0,0,-0.01,-0.01,0.28,-0.03,-0.11,0,0,0.21,-0.02,0">South,&#8221; increasing its position relative to Mexico and </tspan>
<tspan x="340.50" y="567.00" textLength="211.43" dx="0,0.06,-0.04,-0.06,-0.02,0.05,-0.03,0.13,-0.19,0.08,0.03,0.08,-0.03,-0.05,-0.07,0.01,0,0,0.15,-0.02,0.08,0.09,0,0,-0.11,-0.08,0.28,-0.06,0.14,0.31,-0.03,0.08,-0.22,0,0,-0.11,-0.09,0.08,0.22,0.21,0.28,0,0,-0.09,0.07,0.09,0">Colombia&#8212;despite these countries&#8217; overall good </tspan>
<tspan x="340.50" y="581.00" textLength="206.96" dx="0,0.23,0.06,-0.11,0.36,0.15,0,0,-0.06,0.06,0.05,-0.03,0.07,0.01,0.13,0.15,-0.08,0,0,0.22,0,0,0.04,0.26,0.06,-0.07,0.07,-0.07,0,0,0.2,0.08,0.29,0.15,0.21,-0.04,0,0,0.14,0,0,0.26,0.28,-0.18,-0.04,0.06,0">growth prospects. In Europe, Germany is likely </tspan>
<tspan x="340.50" y="595.00" textLength="214.34" dx="0,-0.04,0,0,0.06,0.05,0.15,0.2,0.27,0,0,0.15,-0.02,0,0,-0.03,0.11,0.04,0.03,0.08,0,0,-0.03,0,0,0.15,-0.02,0,0,-0.03,0.15,-0.02,0.08,0,0,0.06,0,0,0.18,0,0,-0.11,-0.08,0.28,-0.07,0.14,0.31,-0.03,0.08,0">to remain the leader of the other 26 EU countries </tspan>
<tspan x="340.50" y="609.00" textLength="223.48" dx="0,0.09,0.01,0.06,-0.09,0.15,0.09,0,0,-0.03,0,0,-0.07,0.15,0,0,0.01,-0.11,-0.02,-0.05,-0.02,0.28,-0.03,0,0,0.23,0.06,-0.11,0.36,0.15,0,0,-0.06,0.06,0.05,-0.03,0.07,0.01,0.13,0.15,-0.04,0,0,-0.08,0,0,0,0.16,0.28,0.28,0">because of its economic growth prospects, but will </tspan>
<tspan x="340.50" y="623.00" textLength="233.41" dx="0,0.09,0,0,0.01,0.14,0.21,0.28,-0.03,0.05,-0.03,-0.06,0.03,0,0,-0.06,0,0,0.21,0,0,0.12,0.23,0.27,-0.03,0,0,0.05,-0.07,-0.1,0.28,0.13,-0.01,0.13,-0.06,-0.02,-0.04,0,0,0.16,0,0,0.08,-0.07,0.01,0,0,-0.11,0.15,0.11,0.03,0.13,0">be challenged by an aging population. By 2030 Russia </tspan>
<tspan x="340.50" y="637.00" textLength="210.03" dx="0,0.08,0.03,-0.08,0.08,0,0,0,0,0.05,0.01,0.03,0.04,0,0,0.05,-0.07,-0.1,0.28,0.13,-0.01,0.13,-0.06,-0.02,0,0,0.19,0.06,-0.07,0.05,-0.02,0.04,0.09,-0.08,0,0,0,-0.46,0,0,0.28,0.28,0.28,0.26,-0.06,-0.02,0">faces a steep population drop&#8212;about 10 million </tspan>
<tspan x="340.50" y="651.00" textLength="215.76" dx="0,0.07,0.03,-0.07,-0.07,-0.03,-0.08,-0.02,0,0,0.23,0.06,0.11,-0.01,0.01,0.08,0,0,0.03,0.01,0.01,0.26,0.27,-0.02,0,0,0.15,0.14,0.21,0,0,0.21,-0.04,0,0,-0.03,0.15,-0.02,0.08,0,0,-0.11,-0.08,0.28,-0.06,0.14,0.5,0">people&#8212;a greater decline than any other country </tspan>
<tspan x="340.50" y="665.00" textLength="221.45" dx="0,-0.03,0.26,0.31,0.27,-0.03,0,0,0.15,0.14,-0.01,0,0,0.13,0.27,-0.01,0,0,0.21,0.22,0.21,-0.01,-0.11,0,0,-0.05,-0.11,-0.14,0.07,-0.09,0.08,-0.44,0,0,0.03,0.04,0.07,0.05,-0.02,0.18,0.27,-0.03,0,0,-0.02,0,0,-0.07,0.15,0">during that time frame. However, depending on its </tspan>
<tspan x="340.50" y="679.00" textLength="235.33" dx="0,0.01,-0.11,-0.02,-0.05,-0.02,0.28,-0.03,0,0,0.23,0.06,-0.11,0.36,0.15,0,0,0.22,-0.01,0.01,0.08,0,0,0.21,-0.02,0,0,0.27,0.29,0.28,-0.04,0.23,0.22,-0.01,0.13,-0.06,-0.02,-0.01,0,0,-0.11,0.15,0.11,0.03,0.13,0,0,-0.11,-0.08,0.28,-0.03,0">economic growth rates and immigration, Russia could </tspan>
<tspan x="340.50" y="693.00" textLength="160.1" dx="0,0.06,0.03,0.18,0.2,0.27,0,0,-0.07,0.15,0,0,0.12,0.26,0.3,0.06,0.05,-0.06,0,0,0.25,-0.06,-0.01,0.06,0.21,0,0,0.05,-0.11,-0.14,0.08,0,0,-0.01,0.14,0.2,0.06,-0.11">retain its current global power share.</tspan></text><path d="M340.5 718.5 l72 0 " style="stroke:#918f8f;stroke-width:0.50;"/><text class="f1489 f786" font-size="7.00" style="fill:#4f4c4d"><tspan x="340.50" y="729.00" textLength="3.45">c</tspan>
<tspan x="343.88" y="732.00" textLength="171.55" font-size="7.50" dx="0,-0.08,-0.08,0.17,0.19,0.1,-0.08,-0.08,0.05,0.04,0.09,0.19,0.11,-0.01,0.01,-0.08,-0.08,0.1,-0.08,-0.08,0.04,0.12,0.07,0.01,-0.08,-0.08,-0.02,-0.08,-0.08,0.1,-0.01,-0.08,-0.08,0.07,0.14,0.02,-0.13,0.01,-0.08,-0.08,0.17,-0.15,0,0.1,0.15,-0.02,-0.05,-0.08,-0.08,0.19,-0.01,0.01,-0.08">  This estimate is based on the Market Exchange Rate.</tspan></text><text class="f1481 f779" font-size="12.00" style="fill:#007eb2"><tspan x="138.00" y="89.01" textLength="87.78" class="f5782 f5765" dx="0,0,0,0,-1.1,0,0,0,0,0,0">MEGATREND 2</tspan>
<tspan x="138.00" y="108.15" textLength="150.07" font-size="14.00">DIFFUSION OF POWER</tspan></text><text class="f1489 f786" font-size="10.00" style="fill:#231f20"><tspan x="75.00" y="147.00" textLength="218.36" dx="0,0.24,-0.02,0,0,0.18,0.32,0.27,0.34,0.15,0.03,-0.06,-0.02,0,0,-0.03,0,0,0.05,-0.11,-0.14,0.08,0,0,0.21,-0.04,-0.02,-0.03,0,0,-0.11,-0.08,0.28,-0.06,0.14,0.31,-0.03,0.08,0,0,0.21,-0.02,0,0,0.21,0.06,-0.02,0">The diffusion of power among countries and from </tspan>
<tspan x="75.00" y="161.00" textLength="226.44" dx="0,-0.11,-0.08,0.28,-0.06,0.14,0.31,-0.03,0.08,0,0,-0.04,0,0,0.27,0.33,-0.09,-0.03,0.29,0.15,0.21,0,0,-0.02,0.02,0.31,-0.14,-0.03,0.03,0.19,0,0,0.16,0.28,0.28,0,0,0.14,-0.02,-0.09,0,0,0,0,0.19,0.22,0.21,0.15,-0.01,0.13,-0.03,0">countries to informal networks will have a dramatic </tspan>
<tspan x="75.00" y="175.00" textLength="226.89" dx="0,0.27,-0.08,0.03,0.03,0.13,0,0,-0.06,0,0,0.08,-0.07,0.01,-0.12,0,0,0.13,0.2,0.16,-0.06,-0.04,0.06,0,0,0.06,0.07,-0.09,0.08,0.18,0.03,0.27,-0.03,0,0,0.15,-0.02,0,0,0.27,0.14,0.05,-0.04,-0.03,0.31,-0.03,0,0,0.31,0.14,0.09,0,0,-0.03,0">impact by 2030, largely reversing the historic rise of </tspan>
<tspan x="75.00" y="189.00" textLength="233.46" dx="0,0.15,-0.02,0,0,-0.61,0.08,0.05,0,0,0.03,0.27,-0.05,-0.08,0,0,-0.75,-0.35,-0.04,0,0,0.21,-0.02,0,0,0.06,0.08,0.05,-0.04,-0.03,0.31,0.27,-0.03,0,0,0.24,0.03,0.13,-0.32,-0.51,0,0,-0.14,0.08,-0.04,0.24,-0.06,0,0,0.27,0,0,0.15,-0.02,0">the West since 1750 and restoring Asia&#8217;s weight in the </tspan>
<tspan x="75.00" y="203.00" textLength="234.8" dx="0,0.25,-0.06,-0.01,0.06,0.21,0,0,0.01,-0.11,-0.02,-0.05,-0.02,-0.01,0,0,0.21,-0.02,0,0,-0.14,-0.03,0.02,-0.03,0,0,0.04,-0.04,0.26,-0.07,0.13,-0.03,0.03,-0.08,0,0,0.22,0,0,0,0,0.01,0.01,0.13,-0.04,-0.02,0.27,-0.03,0,0,-0.01,0.27,0.32,0.33,0,0">global economy and world politics. In a tectonic shift, </tspan>
<tspan x="75.00" y="217.00" textLength="231.87" dx="0,-0.06,0,0,0.08,-0.07,0.01,-0.12,0,0,0.24,0.03,0.13,0,0,0.16,0.28,0.28,0,0,0.14,-0.02,-0.09,0,0,0.06,0.26,0.28,0.03,0.18,0.11,0.09,0.03,0,0,-0.06,-0.03,0.36,0.15,0,0,0.38,-0.01,0.08,0.31,-0.03,0.06,0,0,0.21,-0.02,0">by 2030, Asia will have surpassed North America and </tspan>
<tspan x="75.00" y="231.00" textLength="217.49" dx="0,0.04,0.26,0.06,-0.07,0.07,0,0,-0.11,-0.02,0.05,-0.03,0.27,-0.02,0.03,0,0,0.27,0,0,0.01,0.08,0.29,0.16,0,0,-0.03,0,0,0.25,-0.06,-0.01,0.06,0.21,0,0,0.05,-0.11,-0.14,0.08,-0.44,0,0,0.06,0.18,0.09,0.03,0">Europe combined in terms of global power, based </tspan>
<tspan x="75.00" y="245.00" textLength="219.56" dx="0,-0.05,0.05,-0.02,0,0,-0.04,-0.09,-0.87,0,0,0.04,-0.07,-0.1,0.28,0.13,-0.01,0.13,-0.06,-0.02,0,0,0.03,0.18,0.04,-0.07,0,0,0.28,0.28,0.26,-0.07,0.18,0.2,0.5,0,0,-0.03,0.07,0.05,-0.02,0.18,0.27,-0.03,0.04,0,0,0.21,-0.02,0">upon GDP, population size, military spending, and </tspan>
<tspan x="75.00" y="259.00" textLength="227.51" dx="0,0.01,0.01,0.01,0.28,-0.05,-0.04,-0.06,0.02,0.23,-0.03,0.06,0.21,0,0,0.27,-0.07,-0.09,0.08,0.05,0.15,-0.01,0.05,-0.06,-0.05,0,0,0.06,0.27,0.27,0.14,0,0,0.21,-0.06,-0.02,-0.02,0,0,0.16,0.28,0.28,0,0,-0.06,0.06,-0.01,0.06,0.04,-0.04,0.06,0">technological investment. China alone will probably </tspan>
<tspan x="75.00" y="273.00" textLength="209.53" dx="0,0.14,-0.02,-0.09,0,0,0.15,-0.02,0,0,0.13,0.2,0.16,-0.06,0.08,0.05,0,0,0.01,-0.11,-0.02,-0.05,-0.02,-0.01,-0.75,0,0,0.06,0.26,0.28,0.03,0.18,0.11,0.03,0.27,-0.03,0,0,0.15,0.14,-0.01,0,0,-0.03,0,0,0.15,-0.02,0">have the largest economy, surpassing that of the </tspan>
<tspan x="75.00" y="287.00" textLength="163.18" dx="0,-0.12,0.27,-0.07,0.01,0.03,0,0,0.01,0.18,-0.01,0.01,0.08,0,0,0,0,-0.09,0.06,0,0,-0.12,0.11,0.2,0.18,0,0,0.09,-0.01,-0.09,-0.03,0.06,0,0,0.08,-0.07,0.01,-0.16">United States a few years before 2030.</tspan>
<tspan x="238.16" y="283.67" textLength="2.61" font-size="5.83">a</tspan>
<tspan x="240.77" y="287.00" textLength="72.12" dx="0,0,-0.01,0.11,0.21,-0.07,0.02,0.27,0.28,-0.03,-0.07,0,0,0.15,-0.02,0"> Meanwhile, the </tspan>
<tspan x="75.00" y="301.00" textLength="226.09" dx="0,0.01,-0.11,-0.02,-0.05,-0.02,0.28,-0.03,0.08,0,0,-0.03,0,0,0.04,0.26,0.06,-0.07,0.07,-0.07,0,0,-0.08,-0.07,0.03,0.21,-0.01,0,0,0.21,-0.02,0,0,-0.11,0.15,0.11,0.03,0.13,0,0,0.2,0.06,0,0,0.26,0.28,-0.18,-0.04,0.06,0,0,-0.04,0">economies of Europe, Japan, and Russia are likely to </tspan>
<tspan x="75.00" y="315.00" textLength="158.71" dx="0,-0.11,-0.02,-0.06,0.13,0.27,-0.12,0.04,0,0,0.15,-0.02,0.08,0.26,0,0,-0.01,-0.06,-0.11,0,0,0.06,-0.04,0.13,-0.01,0.13,0.04,-0.09,0,0,0.03,0.01,0.01,0.26,0.27,-0.02,0.08,-0.08">continue their slow relative declines.</tspan>
<tspan x="75.00" y="343.00" textLength="237.31" dx="0,-0.19,0.15,0.05,0,0,0.18,0,0,0.27,-0.08,0.05,-0.03,0.36,0.18,0.21,-0.06,0,0,0,0.15,-0.02,0,0,0.01,-0.11,-0.02,-0.05,-0.02,0.28,-0.03,0.08,0,0,-0.03,0,0,-0.03,0.15,-0.02,0.08,0,0,-0.05,-0.02,0.17,-0.34,-0.61,0.08,0.05,0.01,0.08,0.29,0">Just as important, the economies of other non-Western </tspan>
<tspan x="75.00" y="357.00" textLength="234.12" dx="0,0.05,0.18,-0.01,0.01,0.08,0,0,0.06,0.01,0.01,0,0,0.18,0,0,0.06,-0.04,-0.06,-0.02,0.05,-0.03,0.13,0.07,0,0,0.15,0.36,0.2,-0.05,0,0,0,0.22,-0.02,0.03,-0.02,-0.02,0.08,0.03,0.13,0.07,0,0,0.21,0.22,0.21,-0.01,0,0,0.09,-0.08,0,0.15,0">states such as Colombia, Egypt, Indonesia, Iran, South </tspan>
<tspan x="75.00" y="371.00" textLength="218.05" dx="0,0.43,0.21,0.31,-0.03,0.06,0.07,0,0,-0.01,-0.01,0.28,-0.03,-0.11,-0.24,0,0,-0.8,0.26,0.03,-0.18,0.1,-0.75,0,0,0.21,-0.02,0,0,-0.03,0.15,-0.02,0.08,0.18,0,0,0.15,0.14,-0.01,0,0,0.2,0.06,0,0,0.28,-0.03,0.03,0.2,-0.03,0">Africa, Mexico, Turkey, and others that are middle </tspan>
<tspan x="75.00" y="385.00" textLength="216.28" dx="0,0.13,-0.03,0.08,0,0,-0.04,0.09,0.17,0.01,0,0,-0.11,-0.08,0.28,-0.03,0,0,0.31,0.14,0.09,0,0,-0.06,0,0,0.08,-0.07,0.01,-0.16,0,0,0.22,-0.02,0.18,0.04,0.21,-0.03,-0.03,0.18,0.21,0.28,0.06,0,0,-0.04,0.05,0.05,0,0,-0.03,0">tier today could rise by 2030. Individually most of </tspan>
<tspan x="75.00" y="399.00" textLength="212.73" dx="0,0.15,-0.02,0.08,0.09,0,0,-0.11,-0.08,0.28,-0.06,0.14,0.31,-0.03,0.08,0,0,0.16,0.28,0.28,0,0,0.06,0.05,0.15,0.2,0.27,0,0,0.09,0.01,-0.11,-0.02,-0.02,0.19,0.35,-0.03,0.05,0.03,0.08,0,0,-0.07,0.13,0.01,-0.12,0.08,0.18,0">these countries will remain second-order players </tspan>
<tspan x="75.00" y="413.00" textLength="224.59" dx="0,0.09,0.01,0.06,-0.09,0.15,0.09,0,0,0.05,0.27,0.27,0.14,0,0,0.21,-0.02,0,0,0.22,-0.02,0.18,0.13,0,0,0.2,0.06,0,0,0.08,0,0,0.13,0.2,0.16,-0.06,-0.11,0,0,-0.05,-0.11,-0.14,0.07,-0.09,0.08,-0.44,0,0,0.18,0,0,0">because China and India are so large. However, as a </tspan>
<tspan x="75.00" y="427.00" textLength="224.71" dx="0,-0.11,-0.04,0.28,-0.03,0.01,0.13,0.13,0.04,-0.09,0,0,0.23,0.06,-0.08,-0.05,-0.32,0,0,0.15,-0.02,0.1,0,0,0.16,0.28,0.28,0,0,0.09,0.03,0.23,0.27,0,0,-0.04,0,0,0.06,0.26,0.28,0.03,0.18,0.11,0,0,0.04,0.26,0.06,-0.07,0.07,-0.07,0">collective group, they will begin to surpass Europe, </tspan>
<tspan x="75.00" y="441.00" textLength="224.81" dx="0,-0.08,-0.07,0.03,0.21,-0.01,0,0,0.21,-0.02,0,0,-0.11,0.15,0.11,0.03,0.13,0,0,0.27,0,0,0.01,0.08,0.29,0.16,0,0,-0.03,0,0,0.25,-0.06,-0.01,0.06,0.21,0,0,0.05,-0.11,-0.14,0.08,0,0,-0.06,0,0,0.08,-0.07,0.01,-0.16,0">Japan, and Russia in terms of global power by 2030. </tspan>
<tspan x="75.00" y="455.00" textLength="229.12" dx="0,0.09,0.26,0,0,-0.04,0.09,0.02,-0.04,0.26,0.27,-0.03,0,0,-0.01,-0.05,-0.11,0.05,-0.04,0,0,-0.09,-0.03,0,0,-0.01,0.15,0.21,-0.08,-0.07,-0.03,-0.07,0,0,0.15,0.14,-0.01,0,0,0.15,0.27,0.14,0,0,0.23,0.06,-0.08,-0.05,0,0,-0.03,0">Our modeling shows, for example, that this group of </tspan>
<tspan x="75.00" y="469.00" textLength="241.06" dx="0,0.22,-0.07,-0.05,-0.03,0.2,0.06,0,0,0.03,0.07,-0.09,-0.04,-0.06,-0.07,-0.05,0.27,-0.03,0,0,0.28,-0.03,0.03,0.2,-0.03,0.21,0.15,0.13,-0.03,0.08,0,0,-0.11,-0.08,0.28,-0.06,0.14,0.31,-0.03,0.08,0,-0.1,0.15,-0.02,0,0,0.2,-0.04,-0.03,0.2,0.15,0.21,0">rapidly developing middle-tier countries&#8212;the Goldman </tspan>
<tspan x="75.00" y="483.00" textLength="86.54" dx="0,0.08,0.03,0.01,0.15,0,0,-0.14,-0.06,-0.01,0.25,0,0,0.21,-0.03,0.07,-0.09,0.05,-0.31">Sachs &#8220;Next Eleven&#8221;</tspan>
<tspan x="161.46" y="479.67" textLength="3.24" font-size="5.83">b</tspan>
<tspan x="164.82" y="483.00" textLength="136.78" dx="0,-0.38,0.16,0.28,0.28,0,0,-0.11,-0.04,0.28,-0.03,0.01,0.13,0.13,0.04,-0.09,-0.04,0.06,0,0,-0.11,-0.09,0.08,0.36,0.18,0.22,-0.18,0,0,0.15,-0.02,0">&#8212;will collectively overtake the </tspan>
<tspan x="75.00" y="497.00" textLength="217.32" dx="0,0.18,0.23,-0.26,-0.09,0,0,0.27,0,0,0.25,-0.06,-0.01,0.06,0.21,0,0,0.05,-0.11,-0.14,0.08,0,0,-0.06,0,0,0.08,-0.07,0.01,-0.16,0,0,0.37,-0.02,0.05,0,0,0.15,0.27,0.14,0,0,0.09,0.01,-0.11,-0.02,-0.02,0">EU-27 in global power by 2030. When this second </tspan>
<tspan x="75.00" y="511.00" textLength="207.25" dx="0,0.13,-0.03,0.08,0,0,0.14,0,0,-0.11,-0.02,0.05,-0.03,0.27,-0.02,0.03,0,0,0.16,-0.07,0.15,0,0,0.15,-0.02,0,0,-0.05,-0.02,0.17,-0.34,-0.61,0.08,0.05,0.01,0.08,0.29,0,0,0.23,0.13,0.21,-0.06,0.15,0,0,-0.03,0">tier is combined with the non-Western giants of </tspan>
<tspan x="75.00" y="525.00" textLength="217.38" dx="0,0.06,0.27,0.27,0.14,0,0,0.21,-0.02,0,0,0.22,-0.02,0.18,0.13,0.07,0,0,0.15,-0.02,0,0,-0.01,0.27,0.32,0.33,0,0,-0.03,0,0,0.05,-0.11,-0.14,0.08,0,0,0.21,0.06,-0.02,0,0,0.15,-0.02,0,0,-0.61,0.08,0.05,0">China and India, the shift of power from the West </tspan>
<tspan x="75.00" y="539.00" textLength="224.73" dx="0,-0.04,0,0,0.15,-0.02,0,0,0.05,-0.01,0.08,0.16,0.23,0.27,-0.03,0,0,-0.03,0,0,-0.05,-0.02,0.17,-0.34,-0.61,0.08,0.05,0.01,0.08,0.29,0,0,-0.14,-0.03,0.02,-0.03,0,0,0.14,0,0,0.07,-0.09,0.05,0,0,-0.04,-0.03,0.06,0">to the emerging or non-Western world is even more </tspan>
<tspan x="75.00" y="553.00" textLength="219.26" dx="0,-0.06,0.06,-0.02,-0.05,-0.08,0.28,-0.05,-0.08,0.03,0.03,0,0,0.24,-0.02,0,0,0.05,-0.05,-0.03,0.29,0.28,-0.07,0.34,0,0,-0.03,0,0,0.15,0.27,0.14,0,0,-0.01,0.27,0.32,0.33,0,0,0.27,0,0,0.14,-0.01,0.13,-0.06,-0.02,0.14,0.21,0">pronounced. The enormity of this shift in national </tspan>
<tspan x="75.00" y="567.00" textLength="223.59" dx="0,0.05,-0.11,-0.14,0.08,0,0,0.14,0,0,0.06,0.02,-0.01,0.01,0.13,0.01,0.03,0,0,0.27,0,0,0.15,-0.02,0,0,-0.12,0.28,0.05,0.09,0.08,0,0,-0.03,0,0,0.06,0.03,0.23,-0.06,-0.02,0.14,0.21,0,0,0.05,-0.11,-0.14,0.08,0">power is re&#59905;ected in the number of regional power </tspan>
<tspan x="75.00" y="581.00" textLength="234.66" dx="0,0.14,0.22,0.21,0.15,0.03,-0.07,0.13,-0.06,-0.02,0.15,0,0,0.15,0.14,-0.01,0,0,0.16,0.28,0.28,0,0,0.09,0,0,-0.02,-0.03,-0.09,-0.03,0.27,-0.03,0,0,-0.06,0,0,0.08,-0.07,0.01,0.23,-0.03,0.08,-0.02,-0.01,0,0,-0.03,0,0,0.15,-0.02,0">transitions that will be ongoing by 2030&#8212;some of the </tspan>
<tspan x="75.00" y="595.00" textLength="237.49" dx="0,-0.04,-0.03,0.06,0,0,0.11,0.18,0.14,0.21,0.28,-0.03,0,0,0.16,0.28,0.28,0,0,0.07,-0.09,0.12,0.26,0,0,-0.08,0,0.15,0.03,-0.03,0.03,0,0,-0.03,0,0,0.24,0.03,0.13,0.07,0,0,0.02,-0.02,0.08,0.06,0,0,0.06,0.27,0.27,0.14,0">more dynamic will occur outside of Asia, where China </tspan>
<tspan x="75.00" y="609.00" textLength="214.0" dx="0,0.21,-0.02,0,0,0.22,-0.02,0.18,0.13,0,0,0.2,0.06,0,0,0.21,0.26,0.06,0.11,0.04,0.11,0,0,-0.11,-0.02,0.15,0.08,-0.04,0.26,-0.03,0.17,-0.01,0.13,0.27,-0.03,0,0,0.15,-0.02,0.08,0.26,0,0,0.06,0.03,0.23,-0.06,-0.02,0.14,0.21,0">and India are already consolidating their regional </tspan>
<tspan x="75.00" y="623.00" textLength="79.64" dx="0,0.05,0.05,0.03,-0.07,0.13,-0.06,-0.02,0.15,-0.08,0,0,0.22,0,0,0.08,-0.07,0.01,0">positions. In 2030 </tspan></text><path d="M75 642.5 l72 0 " style="stroke:#918f8f;stroke-width:0.50;"/><text class="f1489 f786" font-size="7.50" style="fill:#4f4c4d"><tspan x="75.00" y="653.00" textLength="3.14" font-size="7.00">a</tspan>
<tspan x="78.07" y="656.00" textLength="218.49" dx="0,-0.08,-0.08,-0.03,0.06,0.02,-0.03,0.18,0.19,-0.02,-0.08,-0.08,0.05,0.02,0.13,-0.04,0.05,0.04,0.11,-0.08,-0.08,0.11,0.1,-0.02,-0.08,-0.08,0.04,0.19,0.2,0.1,-0.08,-0.08,0.1,0.2,0.2,-0.08,-0.08,0.05,0.19,0.2,0.02,0.12,0.08,-0.08,-0.08,0.11,-0.02,-0.08,-0.08,0,-0.08,-0.08,0.2,-0.08,-0.08,0.06,-0.1,-0.08,-0.08,-0.08,0.22,-0.08,-0.08,-0.03,-0.07,-0.08,-0.08,0.1,0">  Modeling suggests that China will surpass the US in 2022 if GDP is </tspan>
<tspan x="75.00" y="665.50" textLength="222.55" dx="0,-0.01,0.08,0.12,0.05,0.19,0.05,0.02,-0.08,-0.08,-0.02,-0.08,-0.08,-0.08,0.19,0.02,0,0.1,0.12,0.02,0.2,-0.02,-0.08,-0.08,0.03,-0.08,-0.11,0.05,-0.08,-0.08,0.02,0.14,0.22,-0.06,0.24,-0.08,-0.08,0.24,-0.06,-0.06,-0.01,-0.08,-0.08,0.15,-0.01,-0.08,-0.08,0.06,-0.01,-0.01,0.02,0.09,0.2,-0.01,-0.08,-0.08,-0.01,0.07,0.14,-0.08,-0.08,0.06,-0.05,0.01,0">measured at purchasing power parity (PPP) and sometime near 2030 </tspan>
<tspan x="75.00" y="675.00" textLength="219.96" dx="0,0.22,-0.08,-0.08,-0.03,-0.07,-0.08,-0.08,0.1,-0.08,-0.08,-0.01,0.08,0.12,0.05,0.19,0.05,0.02,-0.08,-0.08,-0.02,-0.08,-0.08,0.1,0.14,0.02,-0.13,0.02,-0.08,-0.08,-0.01,-0.15,0,0.1,0.15,-0.02,-0.04,-0.08,-0.08,0.16,-0.02,0.01,0.05,-0.08,-0.08,0.19,0.13,0.13,0.19,-0.12,0.09,-0.08,-0.08,0.27,-0.06,0.1,-0.04,-0.06,0.01,0.17,-0.08,-0.08,0.13,0.13,-0.01">if GDP is measured at market exchange rates (MERs). Although MER-</tspan>
<tspan x="75.00" y="684.51" textLength="233.84" dx="0,0.04,0.12,0.07,0.02,-0.08,-0.08,-0.01,0.08,0.12,0.05,0.19,0.05,0.05,-0.08,-0.08,0.14,0.05,-0.08,-0.08,0.2,-0.06,0.03,-0.03,0.25,0.13,0.15,-0.05,-0.08,-0.08,-0.08,-0.03,-0.08,-0.08,0.1,0.16,0.02,0.01,-0.08,-0.08,0.15,-0.01,-0.08,-0.08,0.21,0.1,0.15,-0.04,0.05,0.09,0.15,-0.08,-0.08,0.15,0.1,0.15,0.04,0.04,0.01,0.1,-0.03,-0.08,-0.08,-0.06,-0.06,0.01,0.12,0.04,0.12,0.07,0.01,0">based measures are important for trade and &#59904;nancial analysis, PPP-based </tspan>
<tspan x="75.00" y="694.01" textLength="224.75" dx="0,-0.01,0.08,0.12,0.05,0.19,0.05,0.05,-0.08,-0.08,-0.05,0.05,-0.01,0.04,0.02,-0.04,0.04,-0.08,-0.08,-0.04,0.05,-0.08,0.14,-0.02,0.01,-0.08,-0.08,0.06,0.02,0.14,0.01,0.05,-0.08,-0.08,0.2,0.1,0.02,-0.03,0.17,-0.05,-0.08,-0.08,0.2,-0.05,-0.03,-0.08,-0.08,0.24,0.19,-0.01,0.12,0.15,-0.01,0.03,-0.05,0.13,0.15,-0.08,-0.08,0.01,-0.08,-0.02,-0.04,-0.02,0.19,-0.02,0">measures probably provide better insight into fundamental economic </tspan>
<tspan x="75.00" y="703.51" textLength="28.82" dx="0,0.04,0.1,0.05,0.03,-0.02,0.16,0.11,-0.03">strength.</tspan>
<tspan x="75.00" y="710.00" textLength="3.89" font-size="7.00">b</tspan>
<tspan x="78.81" y="713.00" textLength="231.06" dx="0,-0.08,-0.08,0.14,-0.04,-0.02,0.13,0.11,0.15,-0.08,-0.08,0.05,0.02,0,0.1,-0.16,-0.08,-0.08,-0.04,-0.01,0.18,-0.08,-0.08,0.14,-0.02,0.05,-0.07,0.03,-0.08,-0.08,-0.08,-0.01,0.11,0.02,0.1,0.04,0.11,-0.08,-0.08,-0.02,-0.08,-0.08,0.11,0.15,-0.02,0.17,0.09,0.02,0.01,0.05,-0.01,-0.01,-0.08,-0.08,0.11,0.25,0.13,-0.04,-0.01,-0.08,-0.08,0.16,-0.01,0.01,-0.02,-0.01,0.05,0.01,0.09,0.05,0">  Goldman Sachs&#8217; Next Eleven consists of Bangladesh, Egypt, Indonesia, </tspan>
<tspan x="75.00" y="722.50" textLength="239.03" dx="0,0.15,0.16,0.15,-0.01,-0.08,-0.08,-0.01,-0.01,0.2,-0.02,-0.08,-0.18,-0.08,-0.08,-0.04,-0.03,-0.04,0.05,0.22,0.09,0.04,-0.08,-0.08,0.04,0.16,0.22,0.1,0.04,0.13,0.15,-0.01,-0.08,-0.08,0.17,-0.02,-0.08,-0.08,-0.06,0.19,0.2,0.18,-0.08,-0.07,-0.04,0.2,-0.01,0.05,-0.03,-0.08,-0.08,0.07,-0.06,0,0.11,-0.08,-0.08,-0.1,-0.03,0.05,0.07,0.05,-0.08,-0.08,-0.57,0.19,0.02,-0.13,0.07,-0.54,-0.08,-0.08,0.15,-0.01,0">Iran, Mexico, Nigeria, Pakistan, The Philippines, South Korea, Turkey, and </tspan>
<tspan x="75.00" y="732.00" textLength="28.9" dx="0,0.04,-0.02,0.02,0.11,0.1,0.15,-0.02">Vietnam.</tspan></text><path d="M101.62 55.35 c14.7 0 26.62 11.92 26.62 26.62 c0 14.04 -10.88 25.54 -24.67 26.54 l-28.58 0.08 l0 -28.58 c1.08 -13.79 12.58 -24.66 26.62 -24.66 " style="fill:#007eb2;"/><path d="M113.01 70.17 l-24.67 0 c-0.43 0 -0.78 0.35 -0.78 0.78 l0 13.33 l2.21 -1.78 l-0.65 0 l0 -4.61 l4.6 0 l0 1.43 l1.57 -1.25 l0.22 -0.18 l1.88 -1.51 c0 0 0.47 0.66 1.09 1.51 l1.42 0 l0 1.96 c0.59 0.81 1.1 1.52 1.29 1.78 c0.09 -0.07 0.18 -0.14 0.28 -0.21 l0 -3.54 l4.6 0 c0.71 -0.47 1.44 -1.02 2.16 -1.56 l-0.59 0 l0 -4.6 l4.6 0 l0 1.58 c0.56 -0.42 1.08 -0.82 1.56 -1.18 l0 -1.18 c0 -0.43 -0.35 -0.78 -0.78 -0.78 M93.72 76.34 l-4.6 0 l0 -4.6 l4.6 0 l0 4.6 z M99.89 76.34 l-4.6 0 l0 -4.6 l4.6 0 l0 4.6 z M106.06 76.34 l-4.6 0 l0 -4.6 l4.6 0 l0 4.6 z M112.23 84.07 l0 4.6 l-4.6 0 l0 -1.44 l-1.56 1.18 l0 0.26 l-0.35 0 l-2.07 1.56 l2.42 0 l0 4.6 l-4.6 0 l0 -2.96 l-1.56 1.18 l0 1.78 l-4.6 0 l0 -4.6 l1.81 0 c-0.46 -0.64 -0.87 -1.21 -1.13 -1.56 l-0.55 0 c-0.61 0.49 -1.27 1.02 -1.95 1.56 l0.26 0 l0 4.6 l-4.6 0 l0 -1.12 c-0.58 0.46 -1.11 0.89 -1.56 1.25 l0 0.64 c0 0.43 0.35 0.78 0.78 0.78 l24.67 0 c0.43 0 0.78 -0.35 0.78 -0.78 l0 -13.04 l-1.97 1.49 l0.41 0 z M112.23 94.84 l-4.6 0 l0 -4.6 l4.6 0 l0 4.6 z " style="fill:#ffffff;"/><path d="M100.62 85.33 c-1.05 -1.45 -3.75 -5.18 -3.75 -5.18 l-14.6 11.72 l1.96 2.44 c0 0 9.94 -7.98 12.04 -9.66 c1.06 1.46 3.69 5.11 3.69 5.11 l19.99 -15.07 l-1.89 -2.5 c0 0 -15.23 11.48 -17.44 13.15 " style="fill:#ffffff;"/><path d="M15 21 l-15 0 M639 21 l15 0 M15 813 l-15 0 M639 813 l15 0 M21 15 l0 -15 M21 819 l0 15 M633 15 l0 -15 M633 819 l0 15 " style="stroke:#ffffff;stroke-width:1.25;"/><path d="M15 21 l-15 0 M639 21 l15 0 M15 813 l-15 0 M639 813 l15 0 M21 15 l0 -15 M21 819 l0 15 M633 15 l0 -15 M633 819 l0 15 " style="stroke:#000000;stroke-width:0.25;"/>
</svg>
