<svg class="crocodoc-2jt6Qd crocodoc-page-svg" version="1.1"
    xmlns="http://www.w3.org/2000/svg"
    xmlns:xlink="http://www.w3.org/1999/xlink"
    xmlns:xhtml="http://www.w3.org/1999/xhtml"
    xml:space="preserve" width="654.0pt" height="834.0pt" viewBox="0 0 654.0 834.0">
<xhtml:link href="stylesheet.css" type="text/css" rel="stylesheet" />
<style>
.crocodoc-2jt6Qd tspan { white-space:pre; }
.crocodoc-2jt6Qd path { fill:transparent; }

</style>
<defs>
<linearGradient id="Grad_16_17_2jt6Qd" x1="64.81%" y1="92.15%" x2="11.00%" y2="92.15%"><stop offset="0.00" style="stop-color:#ffffff" /><stop offset="0.25" style="stop-color:#eeeeee" /><stop offset="0.50" style="stop-color:#bdbdbd" /><stop offset="0.75" style="stop-color:#6d6d6d" /><stop offset="1.00" style="stop-color:#000000" /></linearGradient>
<mask id="Mask_15_17_2jt6Qd">
<g ><path d="M3 831 l648 0 l0 -828 l-648 0 l0 828 " style="fill:url(#Grad_16_17_2jt6Qd);"/></g></mask>
</defs>

<g style="opacity:0.40;" ><path d="M577.78 751.59 c-0.76 -0.59 -1.54 -1 -2.32 -1.22 c-0.78 0.14 -1.43 0.38 -1.9 0.71 c0.44 0 0.88 0.01 1.32 0.05 c0.96 0.07 1.93 0.23 2.9 0.46 M579.18 751.73 c0.17 -0.35 0.33 -0.64 0.48 -0.88 c0.05 -0.08 0.1 -0.16 0.15 -0.23 c-0.57 -0.14 -1.16 -0.25 -1.75 -0.32 c-0.08 -0.01 -0.17 -0.02 -0.26 -0.02 c-0.12 -0.01 -0.24 -0.02 -0.36 -0.02 c0.59 0.38 1.17 0.87 1.73 1.48 M577.97 756.57 c0.73 0.19 1.48 0.32 2.21 0.38 c0.46 0.03 0.92 0.04 1.37 0.01 c-0.64 -1.48 -1.37 -2.76 -2.18 -3.83 c-0.42 0.94 -0.89 2.1 -1.39 3.44 M577.41 752.35 c-0.71 -0.14 -1.42 -0.24 -2.12 -0.29 c-0.83 -0.06 -1.66 -0.06 -2.48 -0.01 c-0.16 0.53 -0.01 1.14 0.44 1.76 c1.37 -0.66 2.77 -1.15 4.16 -1.47 M571.96 754.49 c-0.53 -0.76 -0.75 -1.53 -0.63 -2.26 c-2.4 0.39 -4.61 1.32 -6.39 2.7 c-0.59 1.34 -0.26 2.92 0.93 4.48 c1.74 -1.95 3.83 -3.65 6.09 -4.92 M572.39 750.55 c-1.2 0.27 -2.36 0.68 -3.46 1.22 c0.91 -0.28 1.86 -0.48 2.85 -0.59 c0.16 -0.23 0.37 -0.44 0.61 -0.63 M566.82 760.48 c1.62 1.59 4.03 2.99 6.82 3.97 c0.85 -2.48 1.77 -4.88 2.67 -6.97 c-1.44 -0.53 -2.71 -1.27 -3.6 -2.11 c-2.19 1.34 -4.22 3.11 -5.9 5.12 M582.39 751.87 c0.23 0.02 0.46 0.04 0.69 0.07 c-0.52 -0.33 -1.13 -0.63 -1.77 -0.88 c-0.13 -0.05 -0.25 -0.09 -0.38 -0.13 c-0.23 0.16 -0.54 0.51 -0.87 0.98 c0.8 -0.09 1.59 -0.1 2.33 -0.05 M578.56 776.65 c-2.06 -0.15 -4.16 -0.53 -6.23 -1.12 c-0.37 1.66 -0.63 3.04 -0.77 4.12 l-0.03 0.2 c-0.03 0.28 -0.06 0.5 -0.07 0.71 c1.08 0.5 2.22 0.71 3.36 0.79 c1.93 0.14 3.84 -0.05 5.68 -0.59 c0.12 -0.13 0.17 -0.18 0.22 -0.24 c0.88 -1.02 1.56 -2.31 2.08 -3.9 c-1.36 0.12 -2.79 0.13 -4.25 0.02 M572.87 773.26 c2.03 0.58 4.09 0.95 6.12 1.11 c1.53 0.12 3.02 0.1 4.42 -0.05 c0.2 -0.98 0.34 -2.01 0.41 -3.07 c0.09 -1.18 0.1 -2.4 0.05 -3.65 c-1.22 0.12 -2.5 0.13 -3.81 0.03 c-1.79 -0.13 -3.61 -0.46 -5.41 -0.97 c-0.68 2.32 -1.28 4.54 -1.78 6.61 M580.2 765.83 c1.22 0.09 2.41 0.08 3.54 -0.03 c-0.26 -2.62 -0.84 -5.21 -1.67 -7.5 c-0.61 0.05 -1.25 0.06 -1.91 0.01 c-0.88 -0.07 -1.78 -0.22 -2.66 -0.46 c-0.76 2.13 -1.57 4.57 -2.33 7.08 c1.67 0.47 3.36 0.77 5.03 0.9 M576.86 756.23 c0.58 -1.27 1.13 -2.37 1.64 -3.28 c-1.49 0.33 -3 0.89 -4.5 1.67 c0.73 0.64 1.71 1.19 2.85 1.6 M562.29 770.66 c-0.09 1.23 0.01 2.39 0.3 3.44 c0.29 0.45 0.61 0.89 0.94 1.31 c0.24 0.3 0.5 0.6 0.77 0.89 c1.56 1.68 3.5 3.02 5.62 3.89 c0 -0.22 0.01 -0.45 0.02 -0.7 l0.02 -0.29 c0.09 -1.13 0.32 -2.54 0.68 -4.22 c-3.35 -1.16 -6.28 -2.83 -8.32 -4.73 c-0.01 0.13 -0.03 0.26 -0.04 0.39 M565.72 761.9 c-1.36 1.91 -2.34 3.9 -2.91 5.92 c1.96 1.97 4.92 3.71 8.36 4.91 c0.52 -2.08 1.16 -4.28 1.9 -6.57 c-2.98 -1.04 -5.58 -2.55 -7.35 -4.26 M560.96 770.78 c0 -0.28 0.01 -0.57 0.03 -0.85 c0.02 -0.31 0.06 -0.63 0.11 -0.96 c-0.32 -0.4 -0.61 -0.8 -0.85 -1.2 c0.13 1.02 0.37 2.03 0.71 3.01 M563.19 756.56 c-0.09 0.1 -0.17 0.2 -0.26 0.3 c-1.34 1.9 -2.22 4.03 -2.6 6.32 c0.07 1.08 0.52 2.19 1.35 3.32 c0.63 -1.97 1.65 -3.89 3.03 -5.71 c-1.13 -1.42 -1.65 -2.87 -1.53 -4.24 M582.99 779.83 c2.34 -1.12 4.34 -2.78 5.87 -4.85 c-1.18 0.65 -2.62 1.13 -4.28 1.42 c-0.41 1.32 -0.95 2.47 -1.59 3.43 M585.27 765.59 c2.38 -0.45 4.17 -1.41 5.06 -2.69 c-0.96 -2.27 -2.48 -4.4 -4.41 -6.15 c-0.56 0.65 -1.47 1.12 -2.63 1.38 c0.95 2.29 1.63 4.86 1.98 7.47 M586.44 755.85 c1.89 1.6 3.43 3.53 4.47 5.63 c0.05 -0.32 0.06 -0.65 0.02 -0.98 c-0.86 -2.34 -2.3 -4.47 -4.16 -6.16 c-0.13 -0.09 -0.27 -0.18 -0.42 -0.27 c0.24 0.62 0.27 1.22 0.09 1.79 M581.23 752.69 c1.42 0.58 2.76 1.32 4 2.21 c0.05 -0.51 -0.15 -1.07 -0.61 -1.64 c-0.83 -0.28 -1.73 -0.46 -2.67 -0.53 c-0.23 -0.02 -0.47 -0.03 -0.71 -0.03 M584.79 755.8 c-1.3 -1.01 -2.73 -1.85 -4.25 -2.49 c0.79 1.01 1.51 2.19 2.15 3.51 c0.93 -0.19 1.67 -0.55 2.1 -1.02 M590.95 764.68 c-1.12 1.29 -3.06 2.25 -5.49 2.7 c0.11 1.43 0.11 2.84 0.01 4.19 c-0.06 0.85 -0.17 1.69 -0.32 2.49 c2.65 -0.52 4.64 -1.52 5.78 -2.92 c0.19 -0.51 0.35 -1.05 0.49 -1.59 c0.01 -0.09 0.02 -0.16 0.02 -0.23 c0.11 -1.53 -0.05 -3.09 -0.49 -4.65 " style="fill:#d3d2d2;"/></g><text class="f5782 f5765" font-size="8.00" style="fill:#231f20"><tspan x="572.68" y="769.34" textLength="7.09" dx="0,0.56">ix</tspan></text><text class="f1517 f781" font-size="8.00" style="fill:#656263"><tspan x="430.93" y="769.13" textLength="119.7" dx="0,0.56,0.56,0.56,0.56,0.56,0.56,0.56,0.56,0.56,0.56,0.56,0.56,0.56,0.56,0.56,0.56,0.56,0.56,0.56,0.56,0.56,0.56,0.56,0.56,0.56,0.56,0.56,0.56">National Intelligence Council</tspan></text>
<g mask="url(#Mask_15_17_2jt6Qd)" ><path d="M420.5 766.5 l-344.75 0 " style="stroke:#918f8f;stroke-width:1.00;stroke-dasharray:0.001,1.999;stroke-linecap:round;stroke-linejoin:round;"/><path d="M422.5 766.5 M74.75 766.5 " style="stroke:#918f8f;stroke-width:1.00;stroke-linecap:round;stroke-linejoin:round;"/></g><text class="f1489 f786" font-size="10.00" style="fill:#231f20"><tspan x="75.00" y="91.00" textLength="229.25" dx="0,0.16,0.28,0.28,0,0,-0.02,0.03,0.03,0,0,-0.04,0,0,0.09,0.01,-0.11,-0.02,-0.01,0,0,0.27,-0.05,0.07,0.06,0.11,0.18,0.03,0.27,-0.03,0.25,0.06,0,0,0.18,0.04,-0.09,0.08,0.18,0.03,0.33,-0.01,0.03,0.03,0,0,0.02,0,0,0,0.15,-0.02,0">will need to become increasingly diversi&#59904;ed. But the </tspan>
<tspan x="75.00" y="105.00" textLength="220.73" dx="0,0.23,-0.03,0.03,0.2,-0.03,0,0,0.22,0.18,0.05,0.06,-0.51,0,0,0.14,0.22,-0.06,0.01,0.01,0.13,-0.04,-0.03,0.5,0,0,0.16,0.28,0.28,0,0,0.02,0.04,0.07,0.05,-0.02,0,0,-0.02,0,0,-0.07,0.15,0,0,0.05,-0.04,0.26,-0.07,0.13,-0.03,0.06,0.21,0">Middle East&#8217;s trajectory will depend on its political </tspan>
<tspan x="75.00" y="119.00" textLength="225.04" dx="0,0.13,0.21,-0.02,0.14,0.09,0.06,-0.07,0.07,-0.11,0,0,0.07,0,0,0.15,-0.02,0,0,-0.02,-0.02,0,0,0.14,0.21,-0.02,0.07,0,0,0.32,0,0,0.15,-0.02,0,0,0.09,-0.01,0.13,0.21,0.28,-0.03,0,0,-0.08,0.04,-0.1,0.02,-0.04,0.26,-0.03,0">landscape. On the one hand, if the Islamic Republic </tspan>
<tspan x="75.00" y="133.00" textLength="236.8" dx="0,0.15,0.2,0.27,-0.06,0.18,0.2,0.27,0.15,0,0,0.05,-0.11,-0.14,0.08,0,0,0.27,0,0,0.21,0.22,0.21,0,0,0.21,-0.02,0,0,0.14,0,0,0.04,-0.04,-0.03,0,0,-0.04,0,0,0.03,0.07,-0.09,-0.04,-0.06,-0.07,0,0,-0.12,0.01,0.01,-0.03,0.11,0.2,0">maintains power in Iran and is able to develop nuclear </tspan>
<tspan x="75.00" y="147.00" textLength="227.64" dx="0,-0.14,0.11,-0.07,0.05,-0.02,0.15,-0.04,0,0,0.15,-0.02,0,0,0.23,-0.03,0.03,0.2,-0.03,0,0,0.22,0.18,0.05,0,0,0.16,0.28,0.28,0,0,0.08,0.03,-0.08,0,0,0,0,0.27,-0.04,0.24,0.29,0.06,0,0,0.28,0.15,0.05,0.18,0.04,-0.04,-0.03,0">weapons, the Middle East will face a highly unstable </tspan>
<tspan x="75.00" y="161.00" textLength="240.48" dx="0,0.34,0,0.2,0.26,0.06,-0.11,0,0,0.07,0,0,0.15,-0.02,0,0,-0.03,0.15,-0.02,0.08,0,0,0.14,0.21,-0.02,0.07,0,0,0.15,-0.02,0,0,0.05,-0.01,0.08,0.16,-0.06,0.05,-0.05,-0.08,0,0,-0.03,0,0,-0.04,0.09,0.03,0.08,0.22,-0.01,0.01,-0.07,0">future. On the other hand, the emergence of moderate, </tspan>
<tspan x="75.00" y="175.00" textLength="238.56" dx="0,0.03,0.05,-0.04,0.07,0.07,0.22,-0.01,0.13,-0.03,0,0,-0.09,-0.11,-0.09,0.08,0.29,0.28,-0.01,0.05,-0.07,0.15,0,0,-0.03,0,0,0,0,-0.03,0.06,0.11,0.22,0.24,0.15,0.27,0.06,-0.08,0.03,0.24,0,0,0.12,0.23,0.06,0.03,0.05,-0.01,0.05,-0.06,0">democratic governments or a breakthrough agreement </tspan>
<tspan x="75.00" y="189.00" textLength="223.83" dx="0,-0.04,0,0,0.06,0.08,0.08,-0.04,0.04,-0.09,0,0,0.15,-0.02,0,0,0.09,0,0.22,0.03,-0.04,0.26,0.16,0.17,0.06,0.21,-0.03,0.08,0.05,0.13,0.27,0.27,0.13,0.21,0,0,-0.11,-0.02,0.34,0.28,-0.03,0.13,0,0,-0.11,-0.08,0.28,-0.03,0,0,0.14,-0.02,-0.09,0">to resolve the Israeli-Palestinian con&#59905;ict could have </tspan>
<tspan x="75.00" y="203.00" textLength="152.31" dx="0,0.05,-0.05,-0.03,0.29,-0.04,-0.08,0.15,-0.01,0.06,0,0,0.05,0.05,0.03,-0.07,0.13,0.04,-0.09,0,0,-0.11,-0.02,0.15,0.09,0.03,0,0.04,0.05,-0.05,-0.08,0.08,-0.08">enormously positive consequences.</tspan>
<tspan x="75.00" y="231.00" textLength="210.24" dx="0,0.09,-0.08,0,0.15,0,0,0.24,0.03,0.13,0,0,0.08,0.03,-0.08,0.08,0,0,0,0,0.09,0.08,0.31,-0.03,0.08,0,0,-0.03,0,0,0.27,-0.06,0.01,0.08,0.29,0.14,0.21,0,0,0.21,-0.02,0,0,-0.01,0.25,0.01,0.07,0.29,0.14,0.21,0">South Asia faces a series of internal and external </tspan>
<tspan x="75.00" y="245.00" textLength="212.94" dx="0,-0.01,-0.05,0.07,0.02,0.19,0,0,-0.03,0.26,0.31,0.27,-0.03,0,0,0.15,-0.02,0,0,-0.02,-0.01,0.25,0,0,-0.85,0.37,-0.26,0.08,0,0,-0.12,0.11,0.2,0.18,-0.08,0,0,0.19,-0.11,0,0,0.23,0.06,-0.11,0.36,0.15,-0.01,0">shocks during the next 15-20 years. Low growth, </tspan>
<tspan x="75.00" y="259.00" textLength="236.04" dx="0,0.31,0.14,0.03,0.27,-0.03,0,0,-0.09,0.07,0.09,0,0,-0.06,0.31,-0.03,-0.08,0.08,-0.04,0,0,0.21,-0.02,0,0,0.05,-0.02,0.08,0.16,0.36,0,0,-0.01,-0.05,-0.03,0.36,0.18,0.12,-0.06,0.08,0,0,0.16,0.28,0.28,0,0,0.05,0.05,0.09,0,0,0.05,0.13,0.32,0.27,0">rising food prices, and energy shortages will pose stiff </tspan>
<tspan x="75.00" y="273.00" textLength="237.02" dx="0,0.01,0.14,0.21,0.28,-0.03,0.05,-0.03,-0.06,0.08,0,0,-0.04,0,0,-0.09,-0.11,-0.09,0.08,0.29,0.14,0.21,-0.05,-0.08,0,0,0.27,0,0,0.06,0.22,0.31,0.14,0.05,0.18,0.21,0,0,0.21,-0.02,0,0,0.43,0.04,0.24,0.14,0.21,0.27,0.14,0.05,0.18,0.21,-0.04,0">challenges to governance in Pakistan and Afghanistan. </tspan>
<tspan x="75.00" y="287.00" textLength="196.72" dx="0,0.43,0.04,0.24,0.14,0.21,0.27,0.14,0.05,0.18,0.21,-0.31,-0.51,0,0,0.21,-0.02,0,0,0.06,0.22,0.31,0.14,0.05,0.18,0.21,-0.31,-0.51,0,0,-0.12,-0.08,0,0.15,0,0,-0.08,0.28,-0.04,-0.06,0.08,0,0,0.2,0.06,0">Afghanistan&#8217;s and Pakistan&#8217;s youth bulges are </tspan>
<tspan x="75.00" y="301.00" textLength="229.77" dx="0,0.13,0.2,0.16,-0.06,-0.08,-0.03,0.03,0.27,0.28,0.28,0.13,0.2,0,0,0.27,0,0,0.03,0.18,0.04,0,0,-0.04,0,0,0.15,-0.05,0.05,0.09,0,0,-0.09,-0.08,0.28,-0.02,0,0,0.27,0,0,0.15,0.21,-0.04,0,0,0.43,0.21,0.31,-0.03,0.06,0.21,0">large&#8212;similar in size to those found in many African </tspan>
<tspan x="75.00" y="315.00" textLength="218.86" dx="0,-0.11,-0.08,0.28,-0.06,0.14,0.31,-0.03,0.08,-0.08,0,0,0.37,-0.02,0.05,0,0,0.15,-0.02,0.08,0.09,0,0,-0.12,-0.08,0,0.15,0,0,-0.08,0.28,-0.04,-0.06,0.08,0,0,0.2,0.06,0,0,-0.11,-0.02,0.05,-0.03,0.27,-0.02,0.03,0">countries. When these youth bulges are combined </tspan>
<tspan x="75.00" y="329.00" textLength="236.73" dx="0,0.16,-0.07,0.15,0,0,0,0,-0.01,-0.06,-0.11,-0.12,0.25,0.23,0.06,-0.11,0.16,0.27,-0.03,0,0,0.01,-0.11,-0.02,-0.05,-0.02,-0.01,-0.75,0,0,0.15,-0.02,0.1,0,0,0.05,-0.03,0.36,0.01,0.05,-0.02,0,0,0.27,-0.05,0.07,0.06,0.11,0.18,0.09,0.03,0">with a slow-growing economy, they portend increased </tspan>
<tspan x="75.00" y="343.00" textLength="237.44" dx="0,0.27,0.15,0.05,0.18,0.04,-0.03,0.28,0.26,-0.07,0.34,-0.79,0,0,0.22,-0.02,0.18,0.13,0,0,0.14,0,0,0.27,0,0,0,0,0.09,0.02,0.19,0.01,0.08,0,0,0.05,0.05,0.03,-0.07,0.13,-0.06,-0.02,-0.01,0,0,0.09,0.05,-0.02,0.02,-0.05,0.13,0.27,-0.03,0,0,0.21,0.06,-0.02,0">instability. India is in a better position, bene&#59904;ting from </tspan>
<tspan x="75.00" y="357.00" textLength="224.01" dx="0,0.27,-0.04,0.24,-0.02,0.07,0,0,0.23,0.06,-0.11,0.36,0.15,-0.01,0,0,-0.08,0,0,0,-0.07,0,0,0.16,0.28,0.28,0,0,0.05,0.13,0.28,0.28,0,0,0.09,0,0,0.01,0.14,0.21,0.28,-0.03,0.05,-0.03,-0.06,0.03,0,0,-0.04,0,0,0.29,-0.02,0">higher growth, but it will still be challenged to &#59904;nd </tspan>
<tspan x="75.00" y="371.00" textLength="218.65" dx="0,-0.01,-0.01,0.05,0,0,-0.09,-0.03,0,0,-0.07,0.15,0,0,0.13,0.2,0.16,-0.06,0,0,-0.12,-0.08,0,0.15,0,0,0.05,-0.07,-0.1,0.28,0.13,-0.01,0.13,-0.06,-0.02,-0.04,0,0,0.22,-0.02,0.03,0,0.18,0.22,0.26,-0.07,0.34,-0.75,0,0,0.13,0.03,0.02,0">jobs for its large youth population. Inequality, lack </tspan>
<tspan x="75.00" y="385.00" textLength="226.7" dx="0,-0.03,0,0,0.27,0.33,0.21,0.22,0.18,0.05,0.14,0.35,0.01,0.13,0.2,0.26,0.06,-0.07,0,0,0.21,-0.02,0,0,0.03,-0.03,0.01,0.06,-0.01,0.13,-0.06,-0.02,0,0,0.03,0.02,-0.01,0.07,-0.03,0.05,-0.05,0.07,-0.03,0.08,0,0,0.2,0.06,0,0,-0.18,0.1,0">of infrastructure, and education de&#59904;ciencies are key </tspan>
<tspan x="75.00" y="399.00" textLength="223.02" dx="0,-0.14,0.11,0.22,0.33,-0.02,0.08,0.11,0.09,0.08,0,0,0.27,0,0,0.22,-0.02,0.18,0.13,0.03,0,0,0.24,-0.02,0,0,-0.02,0.08,-0.04,0.24,0.04,0.09,-0.03,0.01,-0.05,0.07,0.09,0,0,0.14,0.18,0,0,0.21,0.03,0.04,0.01,0.07,0">weaknesses in India. The neighborhood has always </tspan>
<tspan x="75.00" y="413.00" textLength="226.08" dx="0,0.14,0.04,0,0,0,0,-0.06,0.06,-0.03,-0.09,-0.08,0.28,-0.02,0,0,0.27,0.34,-0.06,0.04,0.05,-0.05,-0.08,0,0,-0.02,0,0,0.27,-0.06,0.01,0.08,0.29,0.14,0.21,0,0,0.03,0.07,-0.09,-0.04,-0.06,-0.07,-0.04,-0.01,0.05,-0.06,0.15,-0.04,0">had a profound in&#59905;uence on internal developments, </tspan>
<tspan x="75.00" y="427.00" textLength="211.46" dx="0,0.27,-0.05,0.07,0.06,0.11,0.18,0.03,0.27,-0.03,0,0,0.15,-0.02,0,0,0.09,0.05,0.15,0.09,0,0,-0.03,0,0,0.27,0.15,0.09,0.01,0.12,0.26,0.31,-0.07,0.34,0,0,0.21,-0.02,0,0,0.09,-0.04,0.14,0.05,0.01,0.08,0.31,0.27,-0.03,0">increasing the sense of insecurity and bolstering </tspan>
<tspan x="75.00" y="441.00" textLength="211.32" dx="0,0.28,0.28,0.26,-0.07,0.18,0.2,0.5,0,0,-0.08,0,0.15,0.13,0.01,0.07,-0.08,0,0,0.06,-0.02,0.34,0.28,-0.03,0.13,0,0,-0.11,-0.08,0.28,-0.03,0,0,0.08,0.35,-0.05,-0.05,0,0,0.21,-0.02,0,0,-0.03,-0.06,0.06,0.11,0.04,0">military outlays. Con&#59905;ict could erupt and spread </tspan>
<tspan x="75.00" y="455.00" textLength="236.64" dx="0,0.28,-0.02,0.03,0.08,0,0,-0.12,0.28,-0.01,0.08,0.06,-0.08,0.15,0,0,0.09,-0.08,0.05,0.14,0.2,0.31,-0.06,0.05,-0.08,0,0,0.06,-0.02,0.34,0.28,-0.03,0.13,0.13,0.27,-0.03,0,0,0.05,0.14,0.22,-0.01,0.01,0.03,0.23,-0.03,0,0,-0.09,0.06,0.21,0.14,-0.04,0">under numerous scenarios. Con&#59905;icting strategic goals, </tspan>
<tspan x="75.00" y="469.00" textLength="231.75" dx="0,0.16,-0.03,0.03,0.08,-0.03,-0.06,0.06,0.11,0.04,0,0,0.18,0.14,0.05,0.14,0.35,0.15,0.05,0,0,0,0.21,-0.02,0,0,0.15,-0.02,0,0,-0.02,0.03,0.09,0.23,0.27,-0.03,0,0,0.05,0.14,0.22,-0.01,0.01,0.03,0.23,-0.03,0.08,0,0,-0.06,0,0,0.21,0.28,0">widespread distrust, and the hedging strategies by all </tspan>
<tspan x="75.00" y="483.00" textLength="233.13" dx="0,0.15,-0.02,0,0,0.03,0.2,0.36,0.13,-0.03,0.08,0,0,0.16,0.28,0.28,0,0,0.15,0.22,-0.18,0,0,-0.07,0,0,0.18,0.32,0.28,-0.01,0.12,0.28,-0.07,0,0,-0.09,-0.03,0,0,0.15,-0.02,0.05,0,0,-0.04,0,0,0.03,0.07,-0.09,-0.04,-0.06,-0.07,0,0,0">the parties will make it dif&#59904;cult for them to develop a </tspan>
<tspan x="75.00" y="497.00" textLength="154.6" dx="0,0.05,0.14,0.06,-0.02,-0.03,0,0,0.06,0.03,0.23,-0.06,-0.02,0.14,0.21,0,0,0.09,0.01,0.12,0.26,0.31,-0.07,0.34,0,0,0.2,0.22,0.21,-0.01,0.06,-0.14,-0.03,0.03,0">strong regional security framework.</tspan>
<tspan x="75.00" y="525.00" textLength="116.82" dx="0,0.38,0,0,0.27,-0.05,0.07,0.06,0.11,0.18,0.03,0.27,-0.03,0.25,0.06,0,0,-0.11,0.28,-0.07,0.13,-0.09,0.05,-0.04,0.13,0.2,0">An increasingly multipolar </tspan>
<tspan x="191.82" y="525.00" textLength="19.74" class="f1486 f791" dx="0,0.2,-0.15,0.09">Asia</tspan>
<tspan x="211.56" y="525.00" textLength="43.63" dx="0,0,0.13,0.03,0.02,0.31,0.27,-0.03,0,0,0"> lacking a </tspan>
<tspan x="75.00" y="539.00" textLength="220.11" dx="0,-0.14,-0.04,0.28,0.16,0.23,0.21,-0.05,0.01,-0.05,-0.03,0.06,0.03,0,0,0.06,0.03,0.23,-0.06,-0.02,0.14,0.21,0,0,0.09,0.01,0.12,0.26,0.31,-0.07,0.34,0,0,0.21,0.22,0.21,-0.01,0.06,-0.14,-0.03,0.03,0,0,0.04,-0.04,-0.03,0,0,-0.04,0">well-anchored regional security framework able to </tspan>
<tspan x="75.00" y="553.00" textLength="235.19" dx="0,0.2,0.08,-0.03,-0.07,0.14,0.22,-0.01,0.01,0,0,0.21,-0.02,0,0,0.28,-0.07,0.13,-0.04,0.08,-0.01,0.01,0,0,0.31,0.14,0.03,0.27,-0.03,0,0,0.01,0.05,0.15,0.03,-0.06,-0.02,0.15,0,0,-0.14,-0.08,0.28,-0.03,0,0,-0.11,-0.02,0.15,0.05,0.13,-0.07,0.2,0,0.01,0">arbitrate and mitigate rising tensions would constitute </tspan>
<tspan x="75.00" y="567.00" textLength="210.75" dx="0,-0.02,-0.02,0,0,-0.03,0,0,0.15,-0.02,0,0,0.13,0.2,0.16,-0.06,0.08,0.05,0,0,0.25,-0.06,-0.01,0.06,0.21,0,0,0.15,0.27,0.06,0.11,-0.01,0.15,-0.08,0,0,-0.13,0.11,0.2,0,0,-0.03,0,0,0.06,0.27,0.27,-0.02,0.08,0.09,0">one of the largest global threats. Fear of Chinese </tspan>
<tspan x="75.00" y="581.00" textLength="237.86" dx="0,0.05,-0.11,-0.14,0.08,-0.44,0,0,0.15,-0.02,0,0,0.26,0.28,-0.18,-0.04,0.26,0.27,-0.05,0.07,0.09,0,0,-0.03,0,0,0.23,0.06,-0.11,0.16,0.27,-0.03,0,0,0.06,0.27,0.27,-0.02,0.08,0.09,0,0,0.14,-0.01,0.13,-0.06,-0.02,0.14,0.21,0.26,0.14,0.02,0,0">power, the likelihood of growing Chinese nationalism, </tspan>
<tspan x="75.00" y="595.00" textLength="203.93" dx="0,0.21,-0.02,0,0,0.05,0.05,0.11,0.03,0.03,-0.04,-0.03,0,0,0,0.04,0.08,0.05,0.13,-0.06,-0.02,0.15,0,0,0.04,0.09,-0.08,0,0,0,0.15,-0.02,0,0,0,0,0,0.06,0.05,0.15,0.2,0.27,0.27,0.27,-0.03,0">and possible questions about the US remaining </tspan>
<tspan x="75.00" y="609.00" textLength="224.62" dx="0,0.27,-0.07,-0.09,-0.04,0.04,-0.09,0.03,0,0,0.27,0,0,0.15,-0.02,0,0,0.06,0.03,0.23,-0.06,-0.02,0,0,0.16,0.28,0.28,0,0,0.27,-0.05,0.07,0.06,0.11,0.18,0.09,0,0,0.27,0.15,0.09,0.01,0.12,0.26,0.31,-0.07,0.13,-0.03,0.08,-0.08,0,0,0.38,0">involved in the region will increase insecurities. An </tspan>
<tspan x="75.00" y="623.00" textLength="226.94" dx="0,0.28,0.15,0.05,0.18,0.04,-0.04,-0.03,0,0,0.24,0.03,0.13,0,0,-0.14,-0.08,0.28,-0.03,0,0,0.06,-0.09,0.15,0.09,0,0,0.13,0.2,0.16,-0.06,0.21,0.24,0.09,0.06,0.21,-0.03,0,0,0.17,0.21,0.15,0.12,-0.06,0,0,-0.04,0,0,0.15,-0.02,0">unstable Asia would cause large-scale damage to the </tspan>
<tspan x="75.00" y="637.00" textLength="69.89" dx="0,0.25,-0.06,-0.01,0.06,0.21,0,0,0.01,-0.11,-0.02,-0.05,-0.02,-0.01,-0.79">global economy.</tspan>
<tspan x="75.00" y="665.00" textLength="208.04" dx="0,0.06,0.14,0.21,-0.03,0.23,0.27,-0.03,0,0,0.11,0.18,0.14,0.21,0.28,-0.03,0.03,0,0,0.27,0,0,-0.03,0.15,-0.02,0.07,0,0,0.06,0.03,0.23,-0.06,-0.02,0.15,0,0,-0.14,-0.08,0.28,-0.03,0,0,0.21,0.14,0.08,0">Changing dynamics in other regions would also </tspan>
<tspan x="75.00" y="679.00" textLength="115.59" dx="0,0.01,0.03,-0.07,0.03,0.2,0.05,0.18,0.18,0.04,0,0,0.25,-0.06,-0.01,0.06,0.21,0,0,0.09,0.01,0.12,0.26,0.31,-0.07,0.34,-0.79,0">jeopardize global security. </tspan>
<tspan x="190.61" y="679.00" textLength="34.16" class="f1486 f791" dx="0,-0.1,0.14,0.03,-0.18,0.07">Europe</tspan>
<tspan x="224.77" y="679.00" textLength="83.04" dx="0,0,0.14,0.18,0,0,0.09,0.03,0.05,0,0,0,0,0.07,0.31,-0.07,0.13,-0.03,0.06,0.21,0"> has been a critical </tspan>
<tspan x="75.00" y="693.00" textLength="212.99" dx="0,0.09,0.01,0.12,0.26,0.31,-0.07,0.34,0,0,-0.06,0.06,-0.11,0.21,-0.03,0.03,0.08,-0.44,0,0,0.05,0.15,0.06,0.26,0.31,0.27,-0.03,0.04,0,0,-0.09,-0.03,0,0,-0.01,0.15,0.21,-0.08,-0.07,-0.03,-0.07,0,0,0.07,0.05,-0.06,0.14,0.22,0.21,0">security provider, ensuring, for example, Central </tspan>
<tspan x="75.00" y="707.00" textLength="226.81" dx="0,0.04,0.26,0.06,-0.07,0.07,-0.13,-0.51,0,0,0.27,-0.06,0.01,0.03,0.23,0.22,-0.01,0.13,-0.06,-0.02,0,0,0.27,-0.06,-0.04,0,0,0.15,-0.02,0,0,0.06,-0.61,0.08,0.05,0.06,0,0,0.28,0.33,0.01,0.08,0,0,0.15,-0.02,0,0,0.05,-0.02,0,0,-0.03,0">Europe&#8217;s integration into the &#8220;West&#8221; after the end of </tspan>
<tspan x="75.00" y="721.00" textLength="235.94" dx="0,0.15,-0.02,0,0,0.06,-0.04,-0.03,0,0,-0.5,0.2,-0.48,0,0,0,0,-0.04,-0.03,0.06,0,0,0.27,-0.07,0.04,0.2,0.05,0.19,0.09,-0.09,0.07,0.12,0.15,0.09,0.03,0,0,0.21,-0.02,0,0,-0.03,0.08,0.11,0,0,0.06,-0.07,0.03,0.04,-0.04,-0.03,0">the Cold War. A more inward-focused and less capable </tspan></text><text class="f1489 f786" font-size="10.00" style="fill:#231f20"><tspan x="340.50" y="91.00" textLength="225.87" dx="0,0.04,0.26,0.06,-0.07,0.07,0,0,-0.14,-0.08,0.28,-0.03,0,0,-0.06,0.06,-0.11,0.21,-0.03,0.03,0,0,0,0,0.02,0.15,0.21,0.28,-0.03,0.08,0,0,0.05,0.18,0.04,-0.03,0.28,0.26,0.18,0.16,0.27,-0.03,0,0,-0.09,-0.03,0.03,-0.08,0,0,-0.09,-0.03,0">Europe would provide a smaller stabilizing force for </tspan>
<tspan x="340.50" y="105.00" textLength="215.71" dx="0,0.07,0.31,0.14,0.09,0.08,0,0,0.27,0,0,-0.02,0.08,-0.04,0.24,0.04,0.09,-0.03,0.31,0.27,-0.03,0,0,0.06,0.03,0.23,-0.06,-0.02,0.15,-0.08,0,0,0.07,0,0,0.15,-0.02,0,0,-0.03,0.15,-0.02,0.08,0,0,0.14,0.21,-0.02,0.07,0">crises in neighboring regions. On the other hand, </tspan>
<tspan x="340.50" y="119.00" textLength="220.82" dx="0,0,0,0.04,0.26,0.06,-0.07,0.07,0,0,0.02,0.27,-0.03,0.01,0,0,-0.11,-0.09,0.08,0.03,-0.11,-0.02,-0.01,0.08,0,0,-0.07,0.15,0,0,0.12,0.26,0.3,0.06,0.05,-0.06,0,0,0.27,-0.06,0.01,0.08,0.36,0.31,0.16,0.27,-0.02,0.03,0">a Europe which overcomes its current intertwined </tspan>
<tspan x="340.50" y="133.00" textLength="212.71" dx="0,0.05,-0.04,0.26,-0.07,0.13,-0.03,0.06,0.21,0,0,0.21,-0.02,0,0,0.01,-0.11,-0.02,-0.05,-0.02,0.28,-0.03,0,0,0.07,0.31,0.14,0.09,0.08,0,0,-0.11,-0.08,0.28,-0.03,0,0,0.09,0.03,0,0,-0.07,0.15,0,0,0.25,-0.06,-0.01,0.06,0.21,0">political and economic crises could see its global </tspan>
<tspan x="340.50" y="147.00" textLength="231.23" dx="0,0.06,-0.04,-0.03,0,0,0.05,0.28,0.14,0.21,-0.05,-0.08,0.03,0.03,0,0,-0.04,0.01,0.01,0,0,0,0,0.04,0.26,0.06,-0.07,0.07,0,0,-0.11,-0.08,0.28,-0.03,0,0,-0.02,-0.04,-0.09,0,0,-0.04,0,0,0.27,-0.06,0.01,0.03,0.23,0.22,-0.01,0.01,0">role enhanced. Such a Europe could help to integrate </tspan>
<tspan x="340.50" y="161.00" textLength="200.48" dx="0,-0.07,0.15,0,0,0.22,-0.07,-0.05,-0.03,0.2,0.06,0,0,0.03,0.07,-0.09,-0.04,-0.06,-0.07,-0.05,0.27,-0.03,0,0,-0.02,0.08,-0.04,0.24,0.04,0.09,-0.03,0.18,0,0,0.27,0,0,0.15,-0.02,0,0,0.23,-0.03,0.03,0.2,-0.03,0">its rapidly developing neighbors in the Middle </tspan>
<tspan x="340.50" y="175.00" textLength="218.16" dx="0,0.22,0.18,0.05,0,0,0,-0.04,0.02,0.36,0.29,0.08,0.21,0.14,0.2,0.22,0.21,0,0,0.43,0.21,0.31,-0.03,0.06,0.07,0,0,0.21,-0.02,0,0,0.07,0.05,-0.06,0.14,0.22,0.21,0,0,0.24,0.03,0.13,0,0,0.27,-0.07,-0.04,0,0,0.15,-0.02,0">East, Sub-Saharan Africa, and Central Asia into the </tspan>
<tspan x="340.50" y="189.00" textLength="226.47" dx="0,0.25,-0.06,-0.01,0.06,0.21,0,0,0.01,-0.11,-0.02,-0.05,-0.02,-0.01,0,0,0.21,-0.02,0,0,-0.03,0.06,0.06,0.04,0.03,0.07,0,0,0.27,-0.06,0.01,0.08,0.29,0.14,-0.01,0.13,-0.06,-0.02,0.14,0.21,0,0,0.2,0.07,0.05,0.01,0.05,-0.03,0,0,0">global economy and broader international system. A </tspan>
<tspan x="340.50" y="203.00" textLength="232.65" dx="0,-0.04,0.09,0.03,0.08,0.29,0.27,0.18,0.16,0.27,-0.03,0,0,-0.11,0.15,0.11,0.03,0.13,0,0,-0.11,-0.08,0.28,-0.03,0,0,0.27,-0.06,0.01,0.03,0.23,0.22,-0.01,0.01,0,0,-0.07,0.15,0.09,-0.04,0.32,0,0,0.27,-0.06,-0.04,0,0,0,0,0.16,-0.03,0.03,0.08,0">modernizing Russia could integrate itself into a wider </tspan>
<tspan x="340.50" y="217.00" textLength="225.3" dx="0,0.27,-0.06,0.01,0.08,0.29,0.14,-0.01,0.13,-0.06,-0.02,0.14,0.21,0,0,-0.11,-0.02,0.29,-0.11,0.28,0.27,-0.07,0.34,0.06,0,0,-0.01,0,0,0.15,-0.02,0,0,0.09,0.21,-0.01,0,0,0.13,0.27,-0.01,-0.07,0,0,0,0,-0.11,0.15,0.11,0.03,0.13,0">international community; at the same time, a Russia </tspan>
<tspan x="340.50" y="231.00" textLength="225.67" dx="0,0.02,0.27,-0.03,0.01,0,0,0.08,0.2,0.28,0.14,0,0,-0.04,0,0,-0.08,0.26,0.28,-0.03,0,0,0,0,-0.04,-0.03,0.06,0,0,0.18,0.04,-0.09,0.08,0.18,0.03,0.33,-0.01,0.03,0,0,0.01,-0.11,-0.02,-0.05,-0.02,-0.01,0,0,0.21,-0.02,0">which fails to build a more diversi&#59904;ed economy and </tspan>
<tspan x="340.50" y="245.00" textLength="233.97" dx="0,-0.04,-0.03,0.06,0,0,0.26,0.03,0.09,0.08,0.22,0.21,0,0,0.03,-0.02,-0.01,0.08,0.05,0.13,-0.03,0,0,-0.03,0.05,0.03,0.08,0,0,-0.11,-0.08,0.28,-0.03,0,0,0.27,-0.05,0.07,0.06,0.11,0.18,0.03,0.27,-0.03,0.25,0.06,0,0,0.05,0.05,0.09,0,0,0">more liberal domestic order could increasingly pose a </tspan>
<tspan x="340.50" y="259.00" textLength="113.15" dx="0,0.06,0.03,0.23,-0.06,-0.02,0.14,0.21,0,0,0.21,-0.02,0,0,0.25,-0.06,-0.01,0.06,0.21,0,0,0.15,0.27,0.06,0.11,-0.01,-0.05">regional and global threat.</tspan>
<tspan x="340.50" y="287.00" textLength="202.66" dx="0,0.15,0.06,0.02,0.23,0.06,0.08,0.11,0,0,-0.04,-0.11,0.04,0.2,0.05,0,0,0.23,0.06,0.11,-0.01,0.01,0.08,0,0,0.06,0.03,0.23,-0.06,-0.02,0.14,0.21,0,0,-0.11,-0.05,-0.02,0.08,0.03,-0.06,-0.02,0,0,0.21,-0.02,0">Progress toward greater regional cohesion and </tspan>
<tspan x="340.50" y="301.00" textLength="60.99" dx="0,0.27,-0.06,0.01,0.03,0.23,0.22,-0.01,0.13,-0.06,-0.02,0,0,0.27,0">integration in </tspan>
<tspan x="401.50" y="301.00" textLength="66.59" class="f1486 f791" dx="0,0.15,-0.05,0.08,0.19,0,0,0.26,-0.03,0.03,0.16,-0.01,0.01">Latin America</tspan>
<tspan x="468.09" y="301.00" textLength="21.01" dx="0,0,0.21,-0.02,0"> and </tspan>
<tspan x="489.10" y="301.00" textLength="62.26" class="f1486 f791" dx="0,-0.07,0.01,0.18,0.05,0,0.11,0.1,0.11,0.09,0.08,0">Sub-Saharan </tspan>
<tspan x="340.50" y="315.00" textLength="28.77" class="f1486 f791" dx="0,0.3,0.11,0.16,-0.01,0.01">Africa</tspan>
<tspan x="369.27" y="315.00" textLength="188.08" dx="0,0,-0.14,-0.08,0.28,-0.03,0,0,-0.06,0.06,-0.02,0.28,0.14,0.09,0,0,0.27,-0.05,0.07,0.06,0.11,0.18,0.09,0.03,0,0,0.05,0.18,0.04,-0.03,0.28,0.26,-0.07,0.34,0,0,0.27,0,0,0.15,-0.05,0.05,0.09,0"> would promise increased stability in those </tspan>
<tspan x="340.50" y="329.00" textLength="204.92" dx="0,0.06,0.03,0.23,-0.06,-0.02,0.15,0,0,0.21,-0.02,0,0,0,0,0.06,0.03,-0.03,0.01,-0.08,0.03,0,0,0.15,0.27,0.06,0.11,-0.01,0,0,-0.04,0,0,0.25,-0.06,-0.01,0.06,0.21,0,0,0.09,0.01,0.12,0.26,0.31,-0.07,0.34,-0.79,0">regions and a reduced threat to global security. </tspan>
<tspan x="340.50" y="343.00" textLength="236.04" dx="0,0.06,-0.08,0.28,-0.06,0.14,0.31,-0.03,0.08,0,0,0.27,0,0,-0.04,0.02,0.36,0.29,0.08,0.21,0.14,0.2,0.22,0.21,0,0,0.43,0.21,0.31,-0.03,0.06,0.07,0,0,0.07,0.05,-0.06,0.14,0.22,0.21,0,0,0.38,-0.01,0.08,0.31,-0.03,0.06,0.07,0,0,0.21,-0.02,0">Countries in Sub-Saharan Africa, Central America, and </tspan>
<tspan x="340.50" y="357.00" textLength="225.94" dx="0,0.15,-0.02,0,0,0.07,0.2,0.31,0.03,-0.01,0.09,0.11,0.21,0,0,0.16,0.28,0.28,0,0,0.06,0.05,0.15,0.2,0.27,0,0,0.41,0.28,0.27,-0.02,0.08,0.22,0.04,-0.04,-0.03,-0.07,0,0,-0.02,0.07,-0.09,0.08,0.36,0.15,-0.02,-0.04,-0.03,0.08,0.11,-0.04,0">the Caribbean will remain vulnerable, nevertheless, </tspan>
<tspan x="340.50" y="371.00" textLength="224.12" dx="0,-0.04,0,0,0.05,0.18,-0.01,0.01,0,0,0.08,0.2,0.28,-0.08,0.26,0.06,0,0,0.15,0.27,0.06,-0.08,0.03,0.24,0,0,0.08,-0.07,0.01,-0.12,0,0,-0.06,0.06,-0.11,0.21,-0.03,0.18,0.27,-0.03,0,0,0.09,0.28,-0.09,0,0,0.14,-0.02,-0.09,0.05,0.15,0">to state failure through 2030, providing safe havens </tspan>
<tspan x="340.50" y="385.00" textLength="222.95" dx="0,-0.09,-0.03,0,0,0.09,-0.03,0.15,0,0,0.25,-0.06,-0.01,0.06,0.21,0,0,0.07,0.31,0.27,0.28,0.27,0.14,0.21,0,0,0.21,-0.02,0,0,0.01,0.08,0.3,0.06,-0.03,0.31,0.14,0.05,0,0,-0.02,0.02,0.31,-0.14,-0.03,0.03,0.19,0,0,0.21,-0.02,0">for both global criminal and terrorist networks and </tspan>
<tspan x="340.50" y="399.00" textLength="70.56" dx="0,-0.06,0.07,0.06,0.21,0,0,0.27,0.15,0.06,0.26,0.16,-0.06,0.05,-0.06,0.15,-0.08">local insurgents.</tspan>
<tspan x="340.50" y="431.00" textLength="161.81" class="f5782 f5765" font-size="9.00" dx="0,0,0,0,0,0,0,0,0,0,0,0,0,0,0,0,0,0,0,0,0,0,0,-0.83,0,0,0,0,0,0">GAME-CHANGER 5: THE IMPACT OF </tspan>
<tspan x="340.50" y="445.00" textLength="96.15" class="f5782 f5765" font-size="9.00">NEW TECHNOLOGIES</tspan>
<tspan x="340.50" y="469.00" textLength="226.61" dx="0,-0.13,-0.08,0.26,0,0,0.01,0.01,0.01,0.28,-0.05,-0.04,-0.06,0.02,0.36,0,0,0.2,0.06,0.05,0.14,0.18,0,0,0.16,0.28,0.28,0,0,-0.01,0.14,-0.07,0.07,0,0,0.25,-0.06,-0.01,0.06,0.21,0,0,0.01,-0.11,-0.02,-0.05,-0.02,0.28,-0.03,-0.1,0">Four technology arenas will shape global economic, </tspan>
<tspan x="340.50" y="483.00" textLength="234.95" dx="0,0.08,0.07,0.07,0.13,0.21,-0.02,0,0,0.21,-0.02,0,0,0.28,0.28,0.26,-0.07,0.18,0.2,0.5,0,0,0.03,0.07,-0.09,-0.04,-0.06,-0.07,-0.04,-0.01,0.05,-0.06,0.15,0,0,0.18,0,0,-0.14,-0.04,0.28,0,0,0.18,0,0,0.15,-0.02,0,0,-0.14,-0.03,0.02,-0.03,0">social, and military developments as well as the world </tspan>
<tspan x="340.50" y="497.00" textLength="225.4" dx="0,-0.11,-0.02,0.29,-0.11,0.28,0.27,-0.07,0.34,0.05,-0.51,0,0,0.03,0.13,0.13,-0.06,-0.02,0.15,0,0,0.07,0.08,0.36,0.18,0.19,0.27,0.27,0.27,-0.03,0,0,-0.04,0,0,0.15,-0.02,0,0,0.05,-0.07,0.21,0.26,0.06,-0.02,0.28,-0.01,0.05,-0.06,0">community&#8217;s actions pertaining to the environment </tspan>
<tspan x="340.50" y="511.00" textLength="36.65" dx="0,-0.06,0,0,0.08,-0.07,0.01,-0.16">by 2030.</tspan>
<tspan x="377.15" y="511.00" textLength="120.22" class="f1486 f791" dx="0,0,0.12,0.23,-0.13,-0.12,0.18,0.11,-0.05,0.08,-0.01,-0.13,0,0,0.03,0.06,-0.05,0.19,-0.08,-0.16,0,-0.02,0.37,0"> Information technology </tspan>
<tspan x="497.37" y="511.00" textLength="80.58" dx="0,0.14,0,0,0.05,-0.06,0.01,0.07,0.31,0.27,-0.03,0,0,0.15,-0.02,0,0,-0.03,-0.04,0">is entering the big </tspan>
<tspan x="340.50" y="525.00" textLength="239.16" dx="0,0.17,-0.01,0.18,0,0,0.08,0.22,0.03,0,0,0.15,0.06,0.07,-0.08,0.08,0.11,0,0,0.05,-0.11,-0.14,0.08,0,0,0.21,-0.02,0,0,0.17,-0.01,0.18,0,0,0.05,-0.04,-0.03,0.22,0.12,-0.06,0,0,0.2,0.06,0,0,0.09,0.01,-0.11,-0.02,0.28,0.27,-0.03,0">data era. Process power and data storage are becoming </tspan>
<tspan x="340.50" y="539.00" textLength="212.77" dx="0,0.21,0.27,-0.04,0.05,0.05,0,0,0.21,0.06,0.03,0.22,0,0,-0.02,0.03,0.31,-0.14,-0.03,0.03,0.19,0,0,0.21,-0.02,0,0,0.15,-0.02,0,0,0.01,-0.06,-0.08,0.04,0,0,0.16,0.28,0.28,0,0,-0.06,0.06,-0.11,0.21,-0.03,0.03,0">almost free; networks and the cloud will provide </tspan>
<tspan x="340.50" y="553.00" textLength="235.22" dx="0,0.25,-0.06,-0.01,0.06,0.21,0,0,0.03,-0.09,-0.08,0.08,0.11,0,0,0.21,-0.02,0,0,0.07,0.08,0.47,0.08,0.18,0.03,0.04,-0.09,0,0,0.09,0.08,0.47,0.21,-0.03,-0.08,0.08,0.25,0,0,0.08,0.07,0.07,0.13,0.21,0,0,-0.01,0.03,0.18,0.13,0,0,0.21,-0.02,0">global access and pervasive services; social media and </tspan>
<tspan x="340.50" y="567.00" textLength="234.4" dx="0,0.26,0.1,0.09,0.08,0.18,0.09,0.01,0.12,0.26,0.31,-0.07,0.34,0,0,0.16,0.28,0.28,0,0,0.09,0,0,0.13,0.2,0.16,-0.06,0,0,-0.02,0.06,0,0,0.15,0.2,0.03,-0.18,0.03,0.15,-0.08,0,0,0.24,0.27,0.14,0,0,0.23,0.06,-0.11,0.36,0.15,0">cybersecurity will be large new markets. This growth </tspan>
<tspan x="340.50" y="581.00" textLength="223.53" dx="0,0.21,-0.02,0,0,0.18,0.32,0.27,0.34,0.15,0.03,-0.06,-0.02,0,0,0.16,0.28,0.28,0,0,-0.06,0.06,0.08,0.09,0.05,-0.07,0,0,0.03,-0.04,0.24,0.27,0.33,-0.01,0.06,0.21,-0.06,0,0,0.01,0.14,0.21,0.28,-0.03,0.05,-0.03,-0.06,0.08,0,0,-0.09,-0.03,0">and diffusion will present signi&#59904;cant challenges for </tspan>
<tspan x="340.50" y="595.00" textLength="227.37" dx="0,-0.09,-0.11,-0.09,0.08,0.29,0.28,-0.01,0.05,-0.06,0.15,0,0,0.21,-0.02,0,0,0.08,0.07,0.07,-0.03,0.02,0.13,-0.03,0.08,-0.04,0,0,0.02,0.27,-0.03,0.01,0,0,-0.11,0.15,0.05,0,0,0.29,-0.02,0,0,0.04,0.01,0.07,0,0,-0.04,0">governments and societies, which must &#59904;nd ways to </tspan>
<tspan x="340.50" y="609.00" textLength="217.4" dx="0,0.06,-0.07,-0.05,0.2,0.26,0.06,0,0,0.15,-0.02,0,0,0.09,0.05,-0.02,0.02,-0.05,0.15,0,0,-0.03,0,0,-0.02,0.06,0,0,0.16,0,0,0.01,0.01,0.01,0.28,-0.05,-0.04,-0.06,0.02,0.23,-0.03,0.08,0,0,0.02,0.27,0.28,-0.03,0">capture the bene&#59904;ts of new IT technologies while </tspan>
<tspan x="340.50" y="623.00" textLength="229.88" dx="0,0.03,0.11,0.21,0.26,0.27,-0.03,0,0,0.16,-0.07,0.15,0,0,0.15,-0.02,0,0,-0.02,0.06,0,0,0.15,0.27,0.06,0.11,-0.01,0.15,0,0,0.15,0.14,-0.01,0,0,0.15,-0.05,0.05,0.09,0,0,0.01,0.01,0.01,0.28,-0.05,-0.04,-0.06,0.02,0.23,-0.03,0.08,0">dealing with the new threats that those technologies </tspan>
<tspan x="340.50" y="637.00" textLength="190.48" dx="0,-0.06,0.06,0.08,0.09,0.05,-0.07,-0.05,0,0,-0.13,0.11,0.2,0,0,-0.03,0,0,0.15,-0.02,0,0,0.23,0.06,-0.11,0.36,0.15,0,0,-0.03,0,0,0.21,0,0,0.09,0.46,-0.14,-0.04,0.28,0.26,0.13,0.21,0">present. Fear of the growth of an Orwellian </tspan>
<tspan x="340.50" y="651.00" textLength="233.77" dx="0,0.06,0.26,0.47,-0.09,0.08,0.28,0.28,0.13,0.21,-0.05,-0.08,0,0,0.05,0.18,-0.01,0.01,0,0,0.15,0.01,0,0,-0.03,0.11,0.04,0,0,0.07,-0.07,0.13,0.18,0.04,0.05,0.15,0,0,0.03,0.2,0.36,0.13,-0.03,0.12,0.28,0.13,0.2,0.02,0.06,0,0,0.27,0,0,0.15,-0.02,0">surveillance state may lead citizens particularly in the </tspan>
<tspan x="340.50" y="665.00" textLength="218.64" dx="0,0.03,0.07,-0.09,-0.04,-0.06,-0.07,0.07,0.03,0,0,-0.14,-0.03,0.02,-0.03,0,0,-0.04,0,0,-0.06,0.06,0.08,0.11,0.06,0.26,0.06,0,0,0.15,-0.02,0.08,0.26,0,0,-0.09,-0.11,-0.09,0.08,0.29,0.28,-0.01,0.05,-0.06,0.15,0,0,-0.04,0">developed world to pressure their governments to </tspan>
<tspan x="340.50" y="679.00" textLength="162.28" dx="0,0.06,0.08,0.05,0.14,0.31,-0.03,0.13,0,0,-0.03,0,0,0.18,0.14,0.02,0.15,0.21,-0.06,0.15,-0.03,0,0,-0.03,-0.04,0,0,0.17,-0.01,0.18,0,0,0.2,0.07,0.05,0.01,0.05,0.16,-0.08">restrict or dismantle big data systems.</tspan>
<tspan x="340.50" y="707.00" textLength="229.57" dx="0,0.22,0.33,-0.09,-0.03,0.29,0.15,-0.01,0.13,-0.06,-0.02,0,0,0.01,0.01,0.01,0.28,-0.05,-0.04,-0.06,0.02,0.36,-0.1,0.17,0.06,0.18,0.09,0.03,0,0,0.08,-0.04,-0.08,0,0.13,-0.06,-0.02,0.15,0,0,-0.04,0,0,0.15,0.27,0.28,0.27,0.28,0.18,0.04,0">Information technology-based solutions to maximize </tspan>
<tspan x="340.50" y="721.00" textLength="200.33" dx="0,0.07,-0.07,0.13,0.18,0.04,0.05,0.15,-0.22,0,0,0.01,-0.11,-0.02,-0.05,-0.02,0.28,-0.03,0,0,-0.06,0.06,0.09,-0.03,0.01,0.13,0.13,0.04,0.21,-0.07,0.34,0,0,0.21,-0.02,0,0,0,0.18,0.21,0.26,-0.07,0.34,0,0,-0.03,0">citizens&#8217; economic productivity and quality of </tspan></text><path d="M15 21 l-15 0 M639 21 l15 0 M15 813 l-15 0 M639 813 l15 0 M21 15 l0 -15 M21 819 l0 15 M633 15 l0 -15 M633 819 l0 15 " style="stroke:#ffffff;stroke-width:1.25;"/><path d="M15 21 l-15 0 M639 21 l15 0 M15 813 l-15 0 M639 813 l15 0 M21 15 l0 -15 M21 819 l0 15 M633 15 l0 -15 M633 819 l0 15 " style="stroke:#000000;stroke-width:0.25;"/>
</svg>
