<svg class="crocodoc-2jt6Qd crocodoc-page-svg" version="1.1"
    xmlns="http://www.w3.org/2000/svg"
    xmlns:xlink="http://www.w3.org/1999/xlink"
    xmlns:xhtml="http://www.w3.org/1999/xhtml"
    xml:space="preserve" width="654.0pt" height="834.0pt" viewBox="0 0 654.0 834.0">
<xhtml:link href="stylesheet.css" type="text/css" rel="stylesheet" />
<style>
.crocodoc-2jt6Qd tspan { white-space:pre; }
.crocodoc-2jt6Qd path { fill:transparent; }

</style>
<defs>
<linearGradient id="Grad_16_21_2jt6Qd" x1="64.81%" y1="92.15%" x2="11.00%" y2="92.15%"><stop offset="0.00" style="stop-color:#ffffff" /><stop offset="0.25" style="stop-color:#eeeeee" /><stop offset="0.50" style="stop-color:#bdbdbd" /><stop offset="0.75" style="stop-color:#6d6d6d" /><stop offset="1.00" style="stop-color:#000000" /></linearGradient>
<mask id="Mask_15_21_2jt6Qd">
<g ><path d="M3 831 l648 0 l0 -828 l-648 0 l0 828 " style="fill:url(#Grad_16_21_2jt6Qd);"/></g></mask>
</defs>

<g style="opacity:0.40;" ><path d="M577.78 751.59 c-0.76 -0.59 -1.54 -1 -2.32 -1.22 c-0.78 0.14 -1.43 0.38 -1.9 0.71 c0.44 0 0.88 0.01 1.32 0.05 c0.96 0.07 1.93 0.23 2.9 0.46 M579.18 751.73 c0.17 -0.35 0.33 -0.64 0.48 -0.88 c0.05 -0.08 0.1 -0.16 0.15 -0.23 c-0.57 -0.14 -1.16 -0.25 -1.75 -0.32 c-0.08 -0.01 -0.17 -0.02 -0.26 -0.02 c-0.12 -0.01 -0.24 -0.02 -0.36 -0.02 c0.59 0.38 1.17 0.87 1.73 1.48 M577.97 756.57 c0.73 0.19 1.48 0.32 2.21 0.38 c0.46 0.03 0.92 0.04 1.37 0.01 c-0.64 -1.48 -1.37 -2.76 -2.18 -3.83 c-0.42 0.94 -0.89 2.1 -1.39 3.44 M577.41 752.35 c-0.71 -0.14 -1.42 -0.24 -2.12 -0.29 c-0.83 -0.06 -1.66 -0.06 -2.48 -0.01 c-0.16 0.53 -0.01 1.14 0.44 1.76 c1.37 -0.66 2.77 -1.15 4.16 -1.47 M571.96 754.49 c-0.53 -0.76 -0.75 -1.53 -0.63 -2.26 c-2.4 0.39 -4.61 1.32 -6.39 2.7 c-0.59 1.34 -0.26 2.92 0.93 4.48 c1.74 -1.95 3.83 -3.65 6.09 -4.92 M572.39 750.55 c-1.2 0.27 -2.36 0.68 -3.46 1.22 c0.91 -0.28 1.86 -0.48 2.85 -0.59 c0.16 -0.23 0.37 -0.44 0.61 -0.63 M566.82 760.48 c1.62 1.59 4.03 2.99 6.82 3.97 c0.85 -2.48 1.77 -4.88 2.67 -6.97 c-1.44 -0.53 -2.71 -1.27 -3.6 -2.11 c-2.19 1.34 -4.22 3.11 -5.9 5.12 M582.39 751.87 c0.23 0.02 0.46 0.04 0.69 0.07 c-0.52 -0.33 -1.13 -0.63 -1.77 -0.88 c-0.13 -0.05 -0.25 -0.09 -0.38 -0.13 c-0.23 0.16 -0.54 0.51 -0.87 0.98 c0.8 -0.09 1.59 -0.1 2.33 -0.05 M578.56 776.65 c-2.06 -0.15 -4.16 -0.53 -6.23 -1.12 c-0.37 1.66 -0.63 3.04 -0.77 4.12 l-0.03 0.2 c-0.03 0.28 -0.06 0.5 -0.07 0.71 c1.08 0.5 2.22 0.71 3.36 0.79 c1.93 0.14 3.84 -0.05 5.68 -0.59 c0.12 -0.13 0.17 -0.18 0.22 -0.24 c0.88 -1.02 1.56 -2.31 2.08 -3.9 c-1.36 0.12 -2.79 0.13 -4.25 0.02 M572.87 773.26 c2.03 0.58 4.09 0.95 6.12 1.11 c1.53 0.12 3.02 0.1 4.42 -0.05 c0.2 -0.98 0.34 -2.01 0.41 -3.07 c0.09 -1.18 0.1 -2.4 0.05 -3.65 c-1.22 0.12 -2.5 0.13 -3.81 0.03 c-1.79 -0.13 -3.61 -0.46 -5.41 -0.97 c-0.68 2.32 -1.28 4.54 -1.78 6.61 M580.2 765.83 c1.22 0.09 2.41 0.08 3.54 -0.03 c-0.26 -2.62 -0.84 -5.21 -1.67 -7.5 c-0.61 0.05 -1.25 0.06 -1.91 0.01 c-0.88 -0.07 -1.78 -0.22 -2.66 -0.46 c-0.76 2.13 -1.57 4.57 -2.33 7.08 c1.67 0.47 3.36 0.77 5.03 0.9 M576.86 756.23 c0.58 -1.27 1.13 -2.37 1.64 -3.28 c-1.49 0.33 -3 0.89 -4.5 1.67 c0.73 0.64 1.71 1.19 2.85 1.6 M562.29 770.66 c-0.09 1.23 0.01 2.39 0.3 3.44 c0.29 0.45 0.61 0.89 0.94 1.31 c0.24 0.3 0.5 0.6 0.77 0.89 c1.56 1.68 3.5 3.02 5.62 3.89 c0 -0.22 0.01 -0.45 0.02 -0.7 l0.02 -0.29 c0.09 -1.13 0.32 -2.54 0.68 -4.22 c-3.35 -1.16 -6.28 -2.83 -8.32 -4.73 c-0.01 0.13 -0.03 0.26 -0.04 0.39 M565.72 761.9 c-1.36 1.91 -2.34 3.9 -2.91 5.92 c1.96 1.97 4.92 3.71 8.36 4.91 c0.52 -2.08 1.16 -4.28 1.9 -6.57 c-2.98 -1.04 -5.58 -2.55 -7.35 -4.26 M560.96 770.78 c0 -0.28 0.01 -0.57 0.03 -0.85 c0.02 -0.31 0.06 -0.63 0.11 -0.96 c-0.32 -0.4 -0.61 -0.8 -0.85 -1.2 c0.13 1.02 0.37 2.03 0.71 3.01 M563.19 756.56 c-0.09 0.1 -0.17 0.2 -0.26 0.3 c-1.34 1.9 -2.22 4.03 -2.6 6.32 c0.07 1.08 0.52 2.19 1.35 3.32 c0.63 -1.97 1.65 -3.89 3.03 -5.71 c-1.13 -1.42 -1.65 -2.87 -1.53 -4.24 M582.99 779.83 c2.34 -1.12 4.34 -2.78 5.87 -4.85 c-1.18 0.65 -2.62 1.13 -4.28 1.42 c-0.41 1.32 -0.95 2.47 -1.59 3.43 M585.27 765.59 c2.38 -0.45 4.17 -1.41 5.06 -2.69 c-0.96 -2.27 -2.48 -4.4 -4.41 -6.15 c-0.56 0.65 -1.47 1.12 -2.63 1.38 c0.95 2.29 1.63 4.86 1.98 7.47 M586.44 755.85 c1.89 1.6 3.43 3.53 4.47 5.63 c0.05 -0.32 0.06 -0.65 0.02 -0.98 c-0.86 -2.34 -2.3 -4.47 -4.16 -6.16 c-0.13 -0.09 -0.27 -0.18 -0.42 -0.27 c0.24 0.62 0.27 1.22 0.09 1.79 M581.23 752.69 c1.42 0.58 2.76 1.32 4 2.21 c0.05 -0.51 -0.15 -1.07 -0.61 -1.64 c-0.83 -0.28 -1.73 -0.46 -2.67 -0.53 c-0.23 -0.02 -0.47 -0.03 -0.71 -0.03 M584.79 755.8 c-1.3 -1.01 -2.73 -1.85 -4.25 -2.49 c0.79 1.01 1.51 2.19 2.15 3.51 c0.93 -0.19 1.67 -0.55 2.1 -1.02 M590.95 764.68 c-1.12 1.29 -3.06 2.25 -5.49 2.7 c0.11 1.43 0.11 2.84 0.01 4.19 c-0.06 0.85 -0.17 1.69 -0.32 2.49 c2.65 -0.52 4.64 -1.52 5.78 -2.92 c0.19 -0.51 0.35 -1.05 0.49 -1.59 c0.01 -0.09 0.02 -0.16 0.02 -0.23 c0.11 -1.53 -0.05 -3.09 -0.49 -4.65 " style="fill:#d3d2d2;"/></g><text class="f5782 f5765" font-size="8.00" style="fill:#231f20"><tspan x="570.04" y="769.34" textLength="12.37" dx="0,0.56,0.56,0.56">xiii</tspan></text><text class="f1538 f781" font-size="8.00" style="fill:#656263"><tspan x="430.93" y="769.13" textLength="119.7" dx="0,0.56,0.56,0.56,0.56,0.56,0.56,0.56,0.56,0.56,0.56,0.56,0.56,0.56,0.56,0.56,0.56,0.56,0.56,0.56,0.56,0.56,0.56,0.56,0.56,0.56,0.56,0.56,0.56">National Intelligence Council</tspan></text>
<g mask="url(#Mask_15_21_2jt6Qd)" ><path d="M420.5 766.5 l-344.75 0 " style="stroke:#918f8f;stroke-width:1.00;stroke-dasharray:0.001,1.999;stroke-linecap:round;stroke-linejoin:round;"/><path d="M422.5 766.5 M74.75 766.5 " style="stroke:#918f8f;stroke-width:1.00;stroke-linecap:round;stroke-linejoin:round;"/></g><text class="f1489 f786" font-size="10.00" style="fill:#231f20"><tspan x="75.00" y="91.00" textLength="228.95" dx="0,-0.04,0,0,0.05,-0.04,-0.07,0,0,0,0,-0.11,-0.02,0.34,0.28,-0.03,0.13,-0.05,0,0,0.22,-0.02,0.03,0.03,0.03,0.07,0,0,0.18,0,0,-0.14,0,0,0.14,-0.02,-0.09,0,0,0.05,0.14,0.06,0.08,0.11,0.09,0.03,0.07,0,0,0.15,-0.06,-0.01,-0.03,0">to stop a con&#59905;ict. Indeed, as we have stressed, major </tspan>
<tspan x="75.00" y="105.00" textLength="212.43" dx="0,0.05,-0.11,-0.14,0.08,0.18,0,0,0.2,0.06,0,0,-0.11,-0.02,0.15,0.09,0.07,-0.06,-0.08,0.15,0,0,-0.03,0,0,0.15,-0.02,0,0,0.26,0.28,-0.18,-0.04,0.06,0,0,0.01,-0.11,-0.02,-0.05,-0.02,0.28,-0.03,0,0,0.21,-0.02,0">powers are conscious of the likely economic and </tspan>
<tspan x="75.00" y="119.00" textLength="220.41" dx="0,0.05,-0.04,0.26,-0.07,0.13,-0.03,0.06,0.21,0,0,0.17,0.21,0.15,0.12,-0.06,0,0,-0.04,0,0,0.05,-0.03,0.08,0.12,0.23,0.27,-0.03,0,0,0.27,0,0,0.21,-0.04,0,0,0.15,-0.06,-0.01,-0.03,0,0,-0.11,-0.02,0.34,0.28,-0.03,0.13,-0.05,0">political damage to engaging in any major con&#59905;ict. </tspan>
<tspan x="75.00" y="133.00" textLength="227.11" dx="0,-0.04,-0.03,0.06,0.03,-0.11,-0.09,0.08,-0.44,0,0,0.28,0.29,0.26,0.28,-0.18,0,0,0.27,0,0,0.15,-0.02,0,0,0.27,-0.06,0.01,0.08,0.46,0.04,0.2,0,0,0.07,0.08,0.31,-0.06,0.09,0.07,0,0,-0.11,-0.02,-0.08,-0.07,-0.03,0.03,0.01,-0.04,0.06,0">Moreover, unlike in the interwar period, completely </tspan>
<tspan x="75.00" y="147.00" textLength="228.54" dx="0,0.28,-0.02,0.03,-0.03,0.27,-0.03,0,0,0.01,-0.11,-0.02,-0.05,-0.02,0.28,-0.03,0,0,0.27,-0.07,0.01,0.08,0.05,0.03,0.04,0.07,0.05,-0.02,0.03,0.05,-0.05,-0.08,0,0,-0.03,0,0,0.25,-0.06,-0.01,0.06,0.21,0.26,0.18,0.11,-0.01,0.13,-0.06,-0.02,0">undoing economic interdependence or globalization </tspan>
<tspan x="75.00" y="161.00" textLength="207.9" dx="0,-0.14,-0.08,0.28,-0.03,0,0,0.09,0.03,0.05,0,0,-0.04,0,0,0.09,0,0,0.14,0.2,0.05,0.03,0.08,0,0,0.27,0,0,0.15,0.27,0.14,0,0,-0.04,-0.03,0.06,0,0,0.04,0.08,0.08,0.21,-0.05,-0.08,0.03,0">would seem to be harder in this more advanced </tspan>
<tspan x="75.00" y="175.00" textLength="203.9" dx="0,0.01,0.01,0.01,0.28,-0.05,-0.04,-0.06,0.02,0.23,-0.03,0.06,0.21,0,0,0.12,-0.06,0,0,0.16,-0.07,0.15,0,0,0.02,-0.03,-0.03,0,0.26,-0.07,-0.04,-0.08,0.15,0,0,-0.11,-0.02,0.28,-0.02,0.01,0.13,0.13,-0.06,-0.02,0.15,-0.08">technological age with ubiquitous connections.</tspan>
<tspan x="75.00" y="203.00" textLength="67.06" class="f1535 f815" dx="0,0.05,0.11,0.11,0.1,0.13,0.06,0,0,-0.01,-0.04,-0.05,0.03,0.1,0.12">Stalled Engines</tspan>
<tspan x="142.05" y="203.00" textLength="167.23" dx="0,0,0.14,0,0,-0.02,0.07,-0.09,0.08,0.36,0.15,-0.02,-0.04,-0.03,0.08,0.11,0,0,0,0,-0.04,-0.03,0.11,0.22,0,0,0.34,0,0.2,0.26,0.06,-0.11,0,0,0.08,0.31,0.04,-0.09,0.08,0.18,0"> is nevertheless a bleak future. Drivers </tspan>
<tspan x="75.00" y="217.00" textLength="224.92" dx="0,0.09,-0.04,0.27,0.27,-0.02,0,0,0.06,0.01,0.01,0,0,0.21,0,0,-0.08,0,0.01,-0.11,-0.02,-0.01,0,0,-0.14,-0.08,0.28,-0.03,0,0,0.09,0,0,0,0,0,0,0,0.21,-0.02,0,0,0.04,0.26,0.06,-0.07,0.07,0">behind such an outcome would be a US and Europe </tspan>
<tspan x="75.00" y="231.00" textLength="223.45" dx="0,0.15,0.14,-0.01,0,0,0.2,0.26,0.29,0,0,0.27,-0.07,0.04,0.2,0.05,0.07,0,0,-0.05,0,0,-0.06,-0.02,-0.03,-0.06,0.08,0,0,0.27,-0.06,0.01,0.08,0.06,0.08,0.05,0.01,0.03,0,0,0.27,0,0,0.06,0.15,0.05,0.18,0.2,0.27,0.27,0.27,-0.03,0">that turn inward, no longer interested in sustaining </tspan>
<tspan x="75.00" y="245.00" textLength="207.24" dx="0,0.15,-0.02,0.08,0.26,0,0,0.25,-0.06,-0.01,0.06,0.21,0,0,-0.03,0.11,0.04,0.03,0.08,0.18,-0.01,0.27,-0.1,-0.31,0,0,-0.12,-0.02,0.03,0.08,0,0,0.15,0.27,0.14,0,0,0.09,-0.08,0.05,0.14,0.2,0.31,-0.06,-0.24,0,0,0.15,-0.02,0">their global leadership. Under this scenario, the </tspan>
<tspan x="75.00" y="259.00" textLength="214.08" dx="0,-0.04,0.26,0.06,0,0,0.01,-0.02,-0.02,0,0,0.28,0.27,0.22,-0.02,-0.09,-0.04,0.14,0,0,0,0.26,-0.03,0.02,0.33,0.06,-0.75,0,0,0.06,-0.09,0.15,0.03,0.27,-0.03,0,0,0.04,0.26,0.06,-0.07,0.07,0,0,-0.04,0,0,0.09,0">euro zone unravels quickly, causing Europe to be </tspan>
<tspan x="75.00" y="273.00" textLength="216.94" dx="0,0.28,0.26,0.06,0.03,0,0,0.27,0,0,0.06,0.01,-0.08,0.08,0.11,0.03,-0.06,-0.02,-0.04,0,0,0.24,-0.02,0,0,0,0,0,0.05,-0.02,0.08,0.16,0.36,0,0,0.06,0.07,-0.09,-0.04,-0.08,0,0.13,-0.06,-0.02,0,0,0.08,0.2,0.28,0.14,0">mired in recession. The US energy revolution fails </tspan>
<tspan x="75.00" y="287.00" textLength="223.07" dx="0,-0.04,0,0,0.15,-0.01,0.01,0.08,0.31,0.13,0.21,0.26,0.18,0.04,-0.07,0,0,0.18,0.27,0.29,0.28,0.27,-0.03,0,0,-0.06,0.06,0.05,-0.03,0.07,0.01,0.13,0.15,0,0,-0.09,-0.03,0,0,0.21,0,0,0.01,-0.11,-0.02,-0.05,-0.02,0.28,-0.03,0">to materialize, dimming prospects for an economic </tspan>
<tspan x="75.00" y="301.00" textLength="232.19" dx="0,0.06,0.01,-0.11,-0.11,-0.09,0.07,0.5,-0.79,0,0,0.22,0,0,0.15,-0.02,0,0,-0.04,0.09,0.03,-0.04,0.26,0.27,-0.03,0,0,0.02,0.27,-0.03,0.01,0,0,-0.04,-0.04,0.37,0.27,0.15,0.09,0.1,0,0,0.06,-0.02,-0.08,0.03,0.21,-0.04,0">recovery. In the modeling which McKinsey Company </tspan>
<tspan x="75.00" y="315.00" textLength="226.07" dx="0,0.18,-0.03,0,0,-0.09,-0.03,0,0,0.15,0,0,-0.1,-0.03,0,0,0.15,0.27,0.14,0,0,0.09,-0.08,0.05,0.14,0.2,0.31,-0.06,-0.24,0,0,0.25,-0.06,-0.01,0.06,0.21,0,0,0.01,-0.11,-0.02,-0.05,-0.02,0.28,-0.03,0,0,0.23,0.06,-0.11,0.36,0.15,0">did for us for this scenario, global economic growth </tspan>
<tspan x="75.00" y="329.00" textLength="178.31" dx="0,0.08,0.21,-0.07,0.01,0.08,0.18,0,0,0.21,-0.02,0,0,0.21,0.28,0,0,-0.07,0.13,0.01,-0.12,0.08,0.18,0,0,0.03,0,0,0.06,-0.04,0.13,-0.01,0.13,0.04,-0.09,-0.04,0.06,0,0,0.05,0.07,-0.03,0.02,0.06,-0.79">falters and all players do relatively poorly.</tspan>
<tspan x="75.00" y="361.00" textLength="34.66" class="f1530 f809" font-size="9.00">FUSION</tspan>
<tspan x="75.00" y="385.00" textLength="30.33" class="f1535 f815" dx="0,-0.01,0.23,0.11,0.03,0.05">Fusion</tspan>
<tspan x="105.33" y="385.00" textLength="187.55" dx="0,0,0.14,0,0,0.15,-0.02,0,0,-0.03,0.15,-0.02,0.08,0,0,0.09,0.07,-0.04,0,0,0.05,-0.02,0.07,0,0,0.02,0.08,0.09,0.07,0.31,0.03,-0.03,0.27,-0.03,0,0,0.02,0.14,-0.01,0,0,-0.14,0"> is the other book end, describing what we </tspan>
<tspan x="75.00" y="399.00" textLength="225.99" dx="0,0.09,0.03,0,0,0.18,0,0,0.15,-0.02,0,0,-0.04,0.05,0.05,0,0,-0.07,0.13,-0.09,0.15,0.03,0.03,-0.04,-0.03,0,0,-0.08,0.09,0.08,0.05,0,0,0.06,0.18,0.09,-0.11,-0.8,0,0,0.24,0.27,0.14,0,0,0.14,0,0,0,0,-0.14,-0.03,0.02,-0.03,0">see as the most plausible &#8220;best case.&#8221; This is a world </tspan>
<tspan x="75.00" y="413.00" textLength="228.69" dx="0,0.27,0,0,0.02,0.27,-0.03,0.01,0,0,0.15,-0.02,0,0,-0.03,0.07,0.01,0.13,0.01,0.08,0,0,-0.03,0,0,0,0,-0.03,-0.06,0.06,0.11,0.04,0.18,0.27,-0.03,0,0,-0.11,-0.02,0.34,0.28,-0.03,0.13,0,0,0.27,0,0,0.09,-0.08,0,0.15,0">in which the specter of a spreading con&#59905;ict in South </tspan>
<tspan x="75.00" y="427.00" textLength="226.69" dx="0,0.24,0.03,0.13,0,0,0.14,0.31,-0.04,0.18,-0.06,0.08,0.18,0,0,-0.01,0.27,-0.09,-0.03,0.36,0.15,0,0,-0.06,0,0,0.15,-0.02,0,0,0,0.01,0,0,0.04,0.26,0.06,-0.07,0.07,-0.07,0,0,0.21,-0.02,0,0,0.05,0.27,0.27,0.14,0,0,-0.04,0">Asia triggers efforts by the US, Europe, and China to </tspan>
<tspan x="75.00" y="441.00" textLength="228.89" dx="0,0.27,-0.06,0.01,0.08,0.47,-0.09,0.05,-0.02,0,0,0.21,-0.02,0,0,0.27,-0.08,0.05,0.05,0.09,0,0,0,0,-0.08,0.11,0.18,0.09,0.02,0.28,0.06,-0.11,0,0,0.06,0.27,0.27,0.14,0.07,0,0,0.15,-0.02,0,0,0,0.01,0,0,0.21,-0.02,0">intervene and impose a cease&#59904;re. China, the US, and </tspan>
<tspan x="75.00" y="455.00" textLength="218.85" dx="0,0.04,0.26,0.06,-0.07,0.07,0,0,0.29,-0.02,0,0,-0.03,0.15,-0.02,0.08,0,0,0.14,0.11,0.06,0.04,0.08,0,0,-0.04,0,0,-0.11,-0.04,0.28,0.13,0.04,0.09,-0.03,0.22,-0.01,0.01,0,0,-0.02,-0.01,0,0,-0.03,0.11,0.04,0.18,0.27,-0.03,0">Europe &#59904;nd other issues to collaborate on, leading </tspan>
<tspan x="75.00" y="469.00" textLength="229.46" dx="0,-0.04,0,0,0,0,0.15,-0.06,-0.01,-0.03,0,0,0.04,0.05,0.03,-0.07,0.13,0.04,-0.09,0,0,0.01,0.14,0.21,-0.03,-0.06,0,0,0.27,0,0,0.15,-0.02,0.08,0.26,0,0,-0.03,0.28,0.13,-0.01,0.01,0.08,0.22,0.21,0,0,0.06,-0.04,0.13,-0.01,0.13,-0.06,-0.02,0.15,-0.04,0">to a major positive change in their bilateral relations, </tspan>
<tspan x="75.00" y="483.00" textLength="227.06" dx="0,0.21,-0.02,0,0,-0.04,-0.03,0.06,0,0,-0.03,0.06,0.06,0.04,0.2,0.06,0,0,-0.03,0.11,0.04,0.18,0.27,-0.03,0,0,-0.04,0,0,-0.14,-0.03,0.02,-0.03,0.07,0.16,-0.03,0.03,0,0,-0.11,0.07,-0.07,0.07,0.08,0.22,-0.01,0.13,-0.06,-0.02,0">and more broadly leading to worldwide cooperation </tspan>
<tspan x="75.00" y="497.00" textLength="219.5" dx="0,-0.04,0,0,0.03,0.11,0.21,0,0,0.16,-0.07,0.15,0,0,0.25,-0.06,-0.01,0.06,0.21,0,0,0.01,0.14,0.21,0.28,-0.03,0.05,-0.03,-0.06,0.08,-0.08,0,0,0.24,0.27,0.14,0,0,0.09,-0.08,0.05,0.14,0.2,0.31,-0.06,0,0,0.06,-0.04,0.26,-0.03,0.08,0">to deal with global challenges. This scenario relies </tspan>
<tspan x="75.00" y="511.00" textLength="213.66" dx="0,-0.02,0,0,0.05,-0.04,0.26,-0.07,0.13,-0.03,0.06,0.21,0,0,-0.03,0.11,0.04,0.03,0.08,0.18,-0.01,0.27,-0.09,-0.32,0,0,0.16,-0.07,0.15,0,0,0.11,0.03,0.01,0,0,0.03,-0.03,0.03,0,0,-0.11,-0.09,0.08,0.3,0.35,0.28,0.26,0.27,-0.03,0">on political leadership, with each side overruling </tspan>
<tspan x="75.00" y="525.00" textLength="225.21" dx="0,-0.07,0.15,0,0,-0.04,-0.03,0.06,0,0,0.06,-0.09,0,0.13,-0.06,-0.08,0.15,0,0,0.03,-0.02,-0.01,0.08,0.05,0.13,-0.03,0,0,-0.11,-0.02,0.15,0.05,0.13,-0.07,0.2,0.04,0.05,-0.05,0.07,-0.03,0.08,0,0,-0.04,0,0,-0.09,-0.03,0.16,-0.06,0,0,0">its more cautious domestic constituencies to forge a </tspan>
<tspan x="75.00" y="539.00" textLength="231.63" dx="0,0.03,0.2,0.36,0.15,-0.02,0.08,0.18,-0.01,0.27,-0.09,-0.31,0,0,0.21,-0.09,0.08,0,0,0.13,0.27,-0.01,-0.07,0,0,0.14,0.35,0.15,0.05,0,0,0.14,0,0,0.21,0.14,0.08,0,0,-0.08,0.26,0.28,-0.07,0,0,-0.05,0,0,0.18,0,0,0.06,0.27,0.27,0.14,0">partnership. Over time, trust is also built up as China </tspan>
<tspan x="75.00" y="553.00" textLength="229.25" dx="0,0.09,0.03,0.23,0.27,0.15,0,0,0,0,-0.06,0.06,0.07,-0.08,0.08,0.11,0,0,-0.03,0,0,0.05,-0.04,0.26,-0.07,0.13,-0.03,0.06,0.21,0,0,0.06,-0.01,-0.09,-0.03,0.29,0,0,0,0.09,-0.04,0.14,0.05,0.01,0.08,0.06,0.03,0,0,-0.06,0,0,0.15,-0.02,0">begins a process of political reform, bolstered by the </tspan>
<tspan x="75.00" y="567.00" textLength="238.41" dx="0,0.27,-0.05,0.07,0.06,0.11,0.18,0.03,0.27,-0.03,0,0,0.06,-0.04,-0.03,0,0,-0.07,0,0,0.14,0,0,-0.07,0.13,0.01,0.18,0.27,-0.03,0,0,0.27,0,0,0.15,-0.02,0,0,0.27,-0.06,0.01,0.08,0.29,0.14,-0.01,0.13,-0.06,-0.02,0.14,0.21,0,0,0.2,0.07,0.05,0.01,0.05,-0.03,0">increasing role it is playing in the international system. </tspan>
<tspan x="75.00" y="581.00" textLength="213.52" dx="0,0.08,-0.07,0.15,0,0,0.15,-0.02,0,0,0.23,0.06,-0.11,0.16,0.27,-0.03,0,0,-0.11,-0.04,0.28,0.13,0.04,0.09,-0.03,0.22,-0.01,0.13,-0.06,-0.02,0,0,0.21,-0.04,-0.02,-0.03,0,0,0.15,-0.02,0,0,0.15,-0.06,-0.01,-0.03,0">With the growing collaboration among the major </tspan>
<tspan x="75.00" y="595.00" textLength="227.29" dx="0,0.05,-0.11,-0.14,0.08,0.18,-0.04,0,0,0.25,-0.06,-0.01,0.06,0.21,0,0,-0.11,0.28,-0.07,0.13,0.28,0.13,-0.01,0.01,0.08,0.22,0.21,0,0,0.27,0.15,0.05,0.13,-0.07,0.2,0,0.13,-0.06,-0.02,0.15,0,0,0.2,0.06,0,0,0.06,-0.01,-0.09,-0.03,0.29,-0.01,0.03,0">powers, global multilateral institutions are reformed </tspan>
<tspan x="75.00" y="609.00" textLength="109.71" dx="0,0.21,-0.02,0,0,0.15,0.04,0.03,0,0,-0.04,-0.03,0.06,0,0,0.27,-0.05,0.01,-0.08,0.15,0.03,0.04,-0.09,-0.11">and made more inclusive.</tspan>
<tspan x="75.00" y="637.00" textLength="230.64" dx="0,0.22,0,0,0.15,0.27,0.14,0,0,0.09,-0.08,0.05,0.14,0.2,0.31,-0.06,-0.24,0,0,0.21,0.28,0,0,0.09,0.06,-0.01,0.15,0,0,0.31,0.14,0.09,0,0,0.06,0.02,0.05,0.05,0.18,0.21,-0.06,0.13,0.13,0.21,0.28,0.06,-0.79,0,0,0.2,-0.01,0.08,0.16,0.23,0.27,-0.03,0">In this scenario, all boats rise substantially. Emerging </tspan>
<tspan x="75.00" y="651.00" textLength="227.72" dx="0,0.01,-0.11,-0.02,-0.05,-0.02,0.28,-0.03,0.08,0,0,-0.11,-0.02,-0.06,0.13,0.27,-0.12,0.04,0,0,-0.04,0,0,0.23,0.06,-0.11,0,0,0.08,0.18,0.05,0.01,0.08,-0.44,0,0,-0.08,0,0,0,-0.04,-0.09,0,0,0.23,0.06,-0.11,0.36,0.15,0">economies continue to grow faster, but GDP growth </tspan>
<tspan x="75.00" y="665.00" textLength="212.42" dx="0,0.27,0,0,0.04,0.08,0.08,0.21,-0.05,-0.08,0.03,0,0,0.01,-0.11,-0.02,-0.05,-0.02,0.28,-0.03,0.08,0,0,0.21,0.14,0.08,0,0,-0.05,-0.03,0.02,0.19,0,0,-0.05,-0.31,0,0,0.24,-0.02,0,0,0.25,-0.06,-0.01,0.06,0.21,0">in advanced economies also picks up. The global </tspan>
<tspan x="75.00" y="679.00" textLength="212.06" dx="0,0.01,-0.11,-0.02,-0.05,-0.02,-0.01,0,0,-0.02,0.11,0.2,0.02,0.06,0,0,0.03,-0.08,0.02,-0.04,-0.03,0.08,0,0,0.27,0,0,0.06,0.11,0.21,0,0,0.01,0.08,0.29,0.16,0,0,-0.06,0,0,0.08,-0.07,0.01,0,0,-0.04,0">economy nearly doubles in real terms by 2030 to </tspan>
<tspan x="75.00" y="693.00" textLength="228.08" dx="0,-0.23,-0.39,-0.33,0,0,0.14,0.31,0.28,0.28,0.26,-0.06,-0.02,0,0,0.27,0,0,-0.04,0.09,0.17,0.01,0.05,-0.51,0,0,0.03,-0.04,0.28,0.13,0.2,0.18,-0.08,0,0,0.24,-0.02,0,0,0.38,-0.01,0.08,0.31,-0.03,0.06,0.21,0,0,0.08,0.06,0.11,0.21,0">$132 trillion in today&#8217;s dollars. The American Dream </tspan>
<tspan x="75.00" y="707.00" textLength="215.21" dx="0,0.06,0.03,0.2,0.26,0.29,0.15,0,0,0.16,-0.07,0.15,0,0,0.07,0.08,0,0,0.06,-0.07,-0.05,-0.07,0.18,0,0,0.27,-0.05,-0.11,-0.02,-0.01,0.08,0,0,0.31,0.14,0.03,0.27,-0.03,0,0,-0.23,-0.46,-0.12,-0.16,0.27,0.27,0,0,0.27,0">returns with per capita incomes rising $10,000 in </tspan>
<tspan x="75.00" y="721.00" textLength="219.64" dx="0,0.01,0.05,0,0,-0.12,0.11,0.2,0.18,-0.08,0,0,0.06,0.27,0.27,-0.02,0.08,0.09,0,0,0.07,0.08,0,0,0.06,-0.07,-0.05,-0.07,0.18,0,0,0.27,-0.05,-0.11,-0.02,-0.01,0,0,0.21,0.14,0.08,0,0,-0.01,0.07,0.03,0.21,-0.02,0.14,0">ten years. Chinese per capita income also expands </tspan></text><text class="f1489 f786" font-size="10.00" style="fill:#231f20"><tspan x="340.50" y="91.00" textLength="235.41" dx="0,0.22,-0.07,-0.05,-0.03,0.2,0.06,-0.75,0,0,0.05,0.15,0.06,0.26,0.31,0.27,-0.03,0,0,0.15,0.14,-0.01,0,0,0.06,0.27,0.27,0.14,0,0,-0.02,-0.09,-0.03,-0.03,0.14,0,0,0.15,-0.02,0,0,0.28,-0.03,0.03,0.2,-0.03,0.21,0.12,0.27,-0.05,-0.11,-0.02,-0.01,0">rapidly, ensuring that China avoids the middle-income </tspan>
<tspan x="340.50" y="105.00" textLength="228.31" dx="0,0.14,0.22,-0.07,-0.31,0,0,-0.69,0.01,0.01,0.28,-0.05,-0.04,-0.06,0.02,0.23,-0.03,0.06,0.21,0,0,0.27,0.28,-0.05,-0.11,0.08,-0.01,0.13,-0.06,-0.02,-0.12,-0.16,0.06,0.07,-0.03,0.01,0.03,0,0,0.27,0,0,-0.01,0.07,0.03,0.21,-0.02,0.03,0.03,0">trap. Technological innovation&#8212;rooted in expanded </tspan>
<tspan x="340.50" y="119.00" textLength="225.85" dx="0,-0.01,-0.2,0.01,0.14,0.21,-0.03,-0.06,0.08,0,0,0.21,-0.02,0,0,-0.01,-0.03,0.27,-0.06,0,0,0.27,-0.06,0.01,0.08,0.29,0.14,-0.01,0.13,-0.06,-0.02,0.14,0.21,0,0,-0.01,0.27,-0.09,-0.03,0.36,0.15,-0.01,-0.16,0.14,0,0,0.07,0.31,-0.07,0.13,-0.03,0.06,0.21,0">exchanges and joint international efforts&#8212;is critical </tspan>
<tspan x="340.50" y="133.00" textLength="228.89" dx="0,-0.04,0,0,0.15,-0.02,0,0,-0.14,-0.03,0.02,-0.03,0,0,0.05,0.18,0.01,0.18,0.27,-0.03,0,0,0.21,-0.02,0.11,0.04,0,0,-0.03,0,0,0.15,-0.02,0,0,0.31,0.14,0.03,0.27,-0.03,0,0,0.29,0.14,0.21,-0.05,0.08,0.13,0.21,0,0,0.21,-0.02,0">to the world staying ahead of the rising &#59904;nancial and </tspan>
<tspan x="340.50" y="147.00" textLength="222.66" dx="0,0.06,0.08,0.08,-0.08,0.26,0.03,-0.08,0,0,-0.11,-0.02,0.15,0.05,0.14,0.22,0.2,0.27,-0.06,0.15,0,0,0.15,0.14,-0.01,0,0,-0.14,-0.08,0.28,-0.03,0,0,0.03,-0.09,-0.11,-0.02,-0.08,0.03,0.21,-0.04,0,0,0,0,0.22,-0.07,-0.05,-0.03,0">resource constraints that would accompany a rapid </tspan>
<tspan x="340.50" y="161.00" textLength="84.2" dx="0,0.09,0.07,0.05,0.05,0,0,0.27,0,0,-0.06,0.06,0.05,-0.03,0.07,0.08,0.31,-0.07,0.34,-0.79">boost in prosperity.</tspan>
<tspan x="340.50" y="193.00" textLength="113.13" class="f1530 f809" font-size="9.00" dx="0,0,0,0,0,0,0,0,-1.16,0,0,0,0,0,0,0,0,0,0,0,0,0">GINI OUT-OF-THE-BOTTLE</tspan>
<tspan x="453.63" y="189.00" textLength="2.82" class="f1530 f809" font-size="5.25">a</tspan>
<tspan x="340.50" y="217.00" textLength="225.99" dx="0,0.24,0.27,0.14,0,0,0.14,0,0,0,0,-0.14,-0.03,0.02,-0.03,0,0,-0.03,0,0,-0.01,0.25,0.14,0.06,0.05,-0.01,0.08,-0.08,0,0,0.08,-0.07,0.15,0.27,0.27,0,0,0.15,0.21,-0.04,0,0,-0.11,-0.08,0.28,-0.06,0.14,0.31,-0.03,0.08,-0.04,0">This is a world of extremes. Within many countries, </tspan>
<tspan x="340.50" y="231.00" textLength="232.49" dx="0,0.27,-0.02,0.03,0,0.18,0.21,0.26,-0.07,0.13,-0.03,0.08,0,0,0.03,-0.02,0.28,0.27,0.14,-0.01,0.01,-0.08,-0.14,-0.03,0.11,0.04,0.18,0.27,-0.03,0,0,-0.04,0,0,0.27,-0.05,0.07,0.06,0.11,0.18,0.03,0.27,-0.03,0,0,0.05,-0.04,0.26,-0.07,0.13,-0.03,0.06,0.21,0">inequalities dominate&#8212;leading to increasing political </tspan>
<tspan x="340.50" y="245.00" textLength="213.81" dx="0,0.21,-0.02,0,0,0.08,0.07,0.07,0.13,0.21,0,0,0.01,0.05,0.15,0.03,-0.06,-0.02,0.15,-0.08,0,0,0.19,0.03,0.31,-0.14,0.03,0.05,0,0,-0.11,-0.08,0.28,-0.06,0.14,0.31,-0.03,0.08,-0.04,0,0,0.15,-0.02,0.08,0.06,0,0,0.2,0.06,0">and social tensions. Between countries, there are </tspan>
<tspan x="340.50" y="259.00" textLength="239.1" dx="0,0.01,-0.03,0.11,0.2,0.14,0.35,0.12,0,0,0,0.16,0.27,0.28,-0.02,0.08,0.18,0,0,0.21,-0.02,0,0,-0.06,0.05,0.09,0.08,0.18,-0.08,0,0,-0.13,-0.03,0,0,-0.01,0.15,0.21,-0.08,-0.07,-0.03,-0.07,0,0,-0.11,-0.08,0.28,-0.06,0.14,0.31,-0.03,0.08,0,0,0.27,0">clear-cut winners and losers. For example, countries in </tspan>
<tspan x="340.50" y="273.00" textLength="233.11" dx="0,0.15,-0.02,0,0,-0.04,0.26,0.06,0,0,0.01,-0.02,-0.02,0,0,-0.11,-0.03,0.06,0,0,0.02,0.27,-0.03,0.01,0,0,0.2,0.06,0,0,0.25,-0.06,-0.01,0.06,0.21,0.28,0.06,0,0,-0.11,-0.02,-0.08,0.07,0.03,0.13,-0.07,0.13,0.04,-0.09,0,0,0.03,0">the euro zone core which are globally competitive do </tspan>
<tspan x="340.50" y="287.00" textLength="237.74" dx="0,-0.14,-0.04,0.28,-0.02,0,0,0.02,0.27,0.28,-0.03,0,0,-0.03,0.15,-0.02,0.08,0.18,0,0,-0.02,0,0,0.15,-0.02,0,0,0.07,0.08,0.31,-0.09,-0.07,-0.02,0.08,0.49,0,0,0.2,0.06,0,0,-0.09,-0.03,0.03,-0.08,0.03,0,0,-0.04,0,0,-0.03,0.11,-0.02,-0.09,0">well, while others on the periphery are forced to leave </tspan>
<tspan x="340.50" y="301.00" textLength="222.86" dx="0,0.15,-0.02,0,0,0.18,-0.29,0,0,0.24,-0.02,0,0,0.18,0,0,0.03,0.27,-0.03,0.25,-0.03,0,0,0.15,0.2,0.03,-0.18,0.03,0,0,0.06,0.2,0.06,-0.04,0.06,0,0,0.34,0.28,-0.05,0.13,0.13,-0.06,-0.02,0.15,-0.08,0,0,0.24,-0.02,0">the EU. The EU single market barely functions. The </tspan>
<tspan x="340.50" y="315.00" textLength="227.7" dx="0,0,0,0,0.06,0.05,0.15,0.2,0.27,0.15,0,0,0.15,-0.02,0,0,-0.06,0.06,0.03,0.05,0.28,0.27,-0.02,0.05,-0.06,0,0,0.05,-0.11,-0.14,0.08,0,0,0.18,0,0,-0.07,0,0,0.08,0.2,0.27,0.15,0,0,0.05,-0.02,0.08,0.16,0.36,0">US remains the preeminent power as it gains energy </tspan>
<tspan x="340.50" y="329.00" textLength="227.21" dx="0,0.27,-0.02,0.03,0.04,0.07,0.05,-0.02,0.03,0.05,-0.05,-0.08,-0.11,0,0,0.08,-0.07,0.15,-0.05,-0.08,0,0,0,-0.11,-0.02,-0.08,-0.07,-0.03,0.03,0.01,-0.04,0.06,0,0,0.18,0.14,0.09,0.05,-0.03,0.08,0.12,0.23,0.27,-0.03,0.04,0,0,0.15,-0.02,0">independence. Without completely disengaging, the </tspan>
<tspan x="340.50" y="343.00" textLength="235.32" dx="0,0,0,0,-0.05,0,0,-0.06,-0.02,-0.03,-0.06,0.08,0,0,0.14,0.31,-0.03,0.08,0,0,-0.04,0,0,-0.07,0.13,0.01,0,0,-0.29,0.25,-0.06,-0.01,0.06,0.21,0,0,0.05,-0.04,0.26,-0.03,-0.08,0.05,0.15,0.21,-0.31,0,0,-0.02,0,0,0.07,-0.09,0.08,0.5,0">US no longer tries to play &#8220;global policeman&#8221; on every </tspan>
<tspan x="340.50" y="357.00" textLength="227.7" dx="0,0.09,0.01,0.12,0.26,0.31,-0.07,0.34,0,0,0.15,0.27,0.06,0.11,-0.01,-0.05,0,0,0.1,0.21,-0.04,0,0,-0.03,0,0,0.15,-0.02,0,0,0.05,-0.02,0.08,0.16,0.36,0,0,-0.06,0.06,0.09,-0.03,0.01,-0.08,0.07,0.18,0,0,0.06,0.33,0.27,-0.09,0.08,0">security threat. Many of the energy producers suffer </tspan>
<tspan x="340.50" y="371.00" textLength="234.2" dx="0,0.21,0.06,-0.02,0,0,0.03,0.01,0.01,0.26,0.27,0.27,0.27,-0.03,0,0,0.05,-0.02,0.08,0.16,0.36,0,0,-0.06,0.31,-0.03,-0.08,0.08,-0.04,0,0,0.08,0.2,0.28,0.26,0.27,-0.03,0,0,-0.04,0,0,0.18,0.04,-0.09,0.08,0.18,0.03,0.32,0.48,0,0,0.15,-0.02,0.08,0.26,0">from declining energy prices, failing to diversify their </tspan>
<tspan x="340.50" y="385.00" textLength="217.55" dx="0,0.01,-0.11,-0.02,-0.05,-0.02,0.28,-0.03,0.08,0,0,0.27,0,0,0.13,0.27,-0.01,-0.07,0,0,0.21,-0.02,0,0,0.2,0.06,0,0,0.15,0.27,0.06,0.11,-0.01,0.01,0.05,-0.02,0.03,0,0,-0.06,0,0,0.27,-0.06,0.01,0.08,0.29,0.14,0.21,0">economies in time, and are threatened by internal </tspan>
<tspan x="340.50" y="399.00" textLength="221.07" dx="0,-0.11,-0.02,0.34,0.28,-0.03,0.13,0.15,-0.08,0,0,0.03,-0.07,0.13,-0.03,0.08,0,0,0.27,0,0,0.06,0.27,0.27,0.14,-0.32,-0.51,0,0,-0.11,0.06,0.18,0.05,0.18,0.21,0,0,0.01,-0.02,-0.02,0,0,-0.11,-0.02,-0.06,0.13,0.27,-0.12,0.04,0,0,-0.04,0">con&#59905;icts. Cities in China&#8217;s coastal zone continue to </tspan>
<tspan x="340.50" y="413.00" textLength="221.38" dx="0,0.15,0.27,0.31,0.04,-0.09,-0.07,0,0,-0.08,0,0,0,0.27,-0.02,0.03,0,0.18,0.21,0.26,-0.07,0.13,-0.03,0.08,0,0,0.27,-0.05,0.07,0.06,0.11,0.18,0.09,0,0,0.21,-0.02,0,0,-0.03,-0.07,0.26,-0.07,0,0,0.15,-0.02,0,0,0.06,0.2,0.36,0.34,-0.79,0">thrive, but inequalities increase and split the Party. </tspan>
<tspan x="340.50" y="427.00" textLength="229.53" dx="0,0.09,0.07,0.07,0.13,0.21,0,0,0.18,0.14,0.09,-0.11,-0.02,-0.06,0.01,0.05,-0.06,0,0,-0.03,-0.05,0.28,-0.18,0.08,0,0,0.18,0,0,0.28,-0.03,0.03,0.2,-0.03,0.21,0.35,0.01,0.13,0.18,0.11,0,0,-0.01,0.07,0.07,0.01,0.13,0.18,-0.01,0.13,-0.06,-0.02,0.15,0">Social discontent spikes as middle-class expectations </tspan>
<tspan x="340.50" y="441.00" textLength="215.43" dx="0,0.2,0.06,0,0,-0.05,-0.03,0,0,-0.01,0.02,0,0,-0.01,-0.2,-0.08,0.04,-0.05,0,0,-0.09,-0.03,0,0,0.15,-0.02,0,0,-0.09,0.08,0.5,0,0,0.04,-0.14,-0.04,0.28,0.16,0.35,-0.11,-0.02,0.28,-0.02,0.01,0.13,0.01,0.03,0.03,-0.8,0">are not met except for the very &#8220;well-connected.&#8221; </tspan>
<tspan x="340.50" y="455.00" textLength="199.29" dx="0,0.24,-0.02,0,0,-0.08,0.05,-0.06,0.14,0.22,0.21,0,0,-0.09,-0.11,-0.09,0.08,0.29,0.28,-0.01,0.05,-0.06,0,0,0.27,0,0,0.19,0.08,-0.09,-0.01,0.27,-0.03,0.04,0,0,0.02,0.27,-0.03,0.01,0,0,0.14,0.18,0">The central government in Beijing, which has </tspan>
<tspan x="340.50" y="469.00" textLength="205.53" dx="0,0,0,0.18,0.32,0.28,-0.01,0.12,0.28,-0.07,0,0,0.13,0.27,-0.01,0,0,-0.09,-0.11,-0.09,0.08,0.29,0.27,0.27,-0.03,0.04,0,0,0.08,0.21,0.28,0.14,0,0,0.06,0.03,0.02,0,0,-0.02,0,0,0.05,0.13,0.26,0.3,0.31,0.27,-0.03,0">a dif&#59904;cult time governing, falls back on stirring </tspan>
<tspan x="340.50" y="483.00" textLength="83.32" dx="0,0.14,-0.01,0.13,-0.06,-0.02,0.14,0.21,0.26,0.14,0.05,0.13,-0.03,0,0,-0.09,0.08,0.47,-0.09,-0.03,-0.48">nationalistic fervor.</tspan>
<tspan x="340.50" y="511.00" textLength="229.33" dx="0,0.22,0,0,0.15,0.27,0.14,0,0,0.09,-0.08,0.05,0.14,0.2,0.31,-0.06,-0.24,0,0,0.01,-0.11,-0.02,-0.05,-0.02,0.28,-0.03,0,0,0.07,0.08,0.3,-0.09,-0.03,0.29,0.15,0.21,-0.05,-0.08,0,0,0.27,0,0,0.05,-0.01,0.08,0.16,0.23,0.27,-0.03,0">In this scenario, economic performance in emerging </tspan>
<tspan x="340.50" y="525.00" textLength="222.65" dx="0,0.21,-0.02,0,0,0.04,0.08,0.08,0.21,-0.05,-0.08,0.03,0,0,0.01,-0.11,-0.02,-0.05,-0.02,0.28,-0.03,0.08,0,0,-0.03,0.11,0.04,0.14,0,0,-0.04,0,0,-0.05,-0.02,0.17,0.24,0.05,0.01,-0.04,0.28,0.13,0.2,0,0,0.25,-0.06,-0.01,0.06,0.21,0">and advanced economies leads to non-stellar global </tspan>
<tspan x="340.50" y="539.00" textLength="128.35" dx="0,0.23,0.06,-0.11,0.36,0.15,-0.01,0,0,0.08,0.2,0,0,0.09,-0.04,-0.06,-0.11,0,0,0.15,0.14,-0.01,0,0,0.27,0,0,-0.08,0.26,0">growth, far below that in our </tspan>
<tspan x="468.87" y="539.00" textLength="30.33" class="f1535 f815" dx="0,-0.01,0.23,0.11,0.03,0.05">Fusion</tspan>
<tspan x="499.20" y="539.00" textLength="60.8" dx="0,0,0.09,-0.08,0.05,0.14,0.2,0.31,-0.06,-0.24,0,0,-0.08,0,0"> scenario, but </tspan>
<tspan x="340.49" y="553.00" textLength="68.69" dx="0,-0.05,-0.03,0,0,0.18,0,0,0.06,0.04,0,0,0.18,0,0,0.27,0">not as bad as in </tspan>
<tspan x="409.17" y="553.00" textLength="69.53" class="f1535 f815" dx="0,0.05,0.11,0.11,0.1,0.13,0.06,0,0,-0.01,-0.04,-0.05,0.03,0.1,0.12,0.23">Stalled Engines.</tspan>
<tspan x="478.69" y="553.00" textLength="88.58" dx="0,0,0.24,-0.02,0,0,0.13,0.03,0.02,0,0,-0.03,0,0,0.08,0.07,0.07,-0.03,0.03,0.18,0.21,0"> The lack of societal </tspan>
<tspan x="340.48" y="567.00" textLength="233.26" dx="0,-0.11,-0.05,-0.02,0.08,0.03,-0.06,-0.02,0,0,0.03,-0.02,-0.01,0.08,0.05,0.13,-0.03,0.06,0.21,0.28,0.06,0,0,0.14,0,0,0.28,0.26,0.3,0.06,-0.03,0.06,0.03,0,0,-0.01,0,0,0.15,-0.02,0,0,0.27,-0.06,0.01,0.08,0.29,0.14,-0.01,0.13,-0.06,-0.02,0.14,0.21,0">cohesion domestically is mirrored at the international </tspan>
<tspan x="340.48" y="581.00" textLength="211.23" dx="0,-0.03,0.07,-0.09,-0.04,-0.05,0,0,0.1,-0.06,-0.01,-0.03,0,0,0.05,-0.11,-0.14,0.08,0.18,0,0,0.2,0.06,0,0,-0.01,0,0,0.09,0.03,0.14,0.25,0,0,0.15,-0.02,0,0,0.05,-0.03,0.01,0.05,-0.07,0.13,0.13,0.21,0,0,-0.09,-0.03,0">level. Major powers are at odds; the potential for </tspan>
<tspan x="340.48" y="595.00" textLength="241.12" dx="0,-0.11,-0.02,0.34,0.28,-0.03,0.13,0.15,0,-0.03,0.31,0.14,0.09,0.08,-0.08,0,-0.03,-0.04,-0.03,0.06,0,-0.03,-0.11,-0.08,0.28,-0.06,0.14,0.31,-0.03,0.08,0,-0.03,0.08,0.2,0.28,-0.02,0,-0.03,0.34,0.04,-0.04,-0.03,0.03,0,-0.03,0.27,0,-0.03,0.03,0.2,0.36,0,-0.03,-0.06,0,-0.03,0.15,-0.02,0">con&#59905;icts rises. More countries fail, fueled in part by the </tspan>
<tspan x="340.48" y="609.00" textLength="231.95" dx="0,0.03,0.11,0.2,0.36,0.15,0,0,-0.03,0,0,0.27,-0.06,0.01,0.08,0.29,0.14,-0.01,0.13,-0.06,-0.02,0.14,0.21,0,0,-0.11,0.07,-0.07,0.07,0.08,0.22,-0.01,0.13,-0.06,-0.02,0,0,-0.02,0,0,0.18,0.11,0.03,0.14,0.05,0.18,0.21,-0.05,-0.08,0,0,0.21,-0.02,0">dearth of international cooperation on assistance and </tspan>
<tspan x="340.48" y="623.00" textLength="236.77" dx="0,0.03,0.07,-0.09,-0.04,-0.06,-0.07,-0.04,-0.01,0.05,-0.06,-0.05,0,0,0.22,0,0,0.06,0.28,0,0,0,0.15,-0.02,0,0,-0.14,-0.03,0.02,-0.03,0,0,0.14,0,0,0.06,0.11,0.18,0.08,-0.02,0.14,0.04,-0.04,0.06,0,0,-0.14,0.11,0.21,-0.07,0.15,-0.04,-0.75,0">development. In sum, the world is reasonably wealthy, </tspan>
<tspan x="340.48" y="637.00" textLength="222.11" dx="0,-0.08,0,0,0,-0.07,0,0,0.14,0,0,-0.03,0.08,0.11,0,0,0.09,0.01,0.12,0.26,0.06,0,0,0.18,0,0,0.15,-0.02,0,0,0.17,0.2,0.03,0,0,0.03,-0.03,0.03,0,0,-0.03,0,0,0.25,-0.06,-0.01,0.06,0.21,0.26,0.18,0.11,-0.01,0.13,-0.06,-0.02,0">but it is less secure as the dark side of globalization </tspan>
<tspan x="340.48" y="651.00" textLength="202.01" dx="0,0.05,0.05,0.09,0.08,0,0,0.21,0,0,0.27,-0.05,0.07,0.06,0.11,0.18,0.03,0.27,-0.03,0,0,0.01,0.14,0.21,0.28,-0.03,0.05,-0.03,-0.06,0,0,0.27,0,0,0.03,-0.02,-0.01,0.08,0.05,0.13,-0.03,0,0,0.21,-0.02,0">poses an increasing challenge in domestic and </tspan>
<tspan x="340.48" y="665.00" textLength="91.97" dx="0,0.27,-0.06,0.01,0.08,0.29,0.14,-0.01,0.13,-0.06,-0.02,0.14,0.21,0,0,0.05,-0.04,0.26,-0.07,0.13,-0.03,0.03,-0.08">international politics.</tspan></text><path d="M340.5 697.84 l72 0 " style="stroke:#918f8f;stroke-width:0.50;"/><text class="f1489 f786" font-size="7.50" style="fill:#4f4c4d"><tspan x="340.50" y="708.34" textLength="3.14" font-size="7.00">a</tspan>
<tspan x="343.57" y="711.34" textLength="145.99" dx="0,-0.08,-0.08,0.17,-0.01,-0.08,-0.08,-0.16,0.04,0.19,0.19,-0.14,-0.08,-0.08,0.19,-0.08,-0.08,0.1,0.19,0.1,-0.08,-0.08,0.07,-0.06,0.03,0.1,0.14,0.22,-0.05,-0.08,-0.08,0.09,-0.06,0.1,-0.02,-0.08,-0.08,0.05,-0.01,-0.07,0.05,0.12,-0.08,-0.08,-0.03,-0.08,-0.08,0.1,-0.01,-0.08">  The &#8220;Gini&#8221; in this scenario title refers to the </tspan>
<tspan x="489.47" y="711.34" textLength="51.98" class="f1535 f815" dx="0,0.07,0.02,0.01,-0.08,-0.08,0.05,0.05,0.02,0.18,0.05,0.11,0.05,0.11,0.02">Gini Coef&#59904;cient</tspan>
<tspan x="541.29" y="711.34" textLength="38.22" dx="0,-0.08,-0.08,0.01,0.19,-0.02,0,-0.08,-0.08,0.1,-0.08,-0.08,0">, which is a </tspan>
<tspan x="340.50" y="720.84" textLength="191.32" dx="0,0.05,0.01,-0.08,0.01,0.17,0.19,0.13,0.02,0.01,-0.08,-0.08,0.04,0.13,-0.01,0.09,0.1,0.04,0.09,-0.02,0.05,0.15,-0.08,-0.08,-0.01,0.07,0.12,0.05,0.19,0.05,0.03,-0.01,0.03,-0.05,-0.08,-0.08,-0.02,-0.08,-0.08,0.19,-0.01,0.01,-0.01,0.12,0.15,0.18,-0.06,0.24,-0.08,-0.08,-0.02,-0.08,-0.08,0.19,-0.04,-0.08,-0.02,-0.01,-0.08">recognized statistical measurement of inequality of income.</tspan></text><path d="M15 21 l-15 0 M639 21 l15 0 M15 813 l-15 0 M639 813 l15 0 M21 15 l0 -15 M21 819 l0 15 M633 15 l0 -15 M633 819 l0 15 " style="stroke:#ffffff;stroke-width:1.25;"/><path d="M15 21 l-15 0 M639 21 l15 0 M15 813 l-15 0 M639 813 l15 0 M21 15 l0 -15 M21 819 l0 15 M633 15 l0 -15 M633 819 l0 15 " style="stroke:#000000;stroke-width:0.25;"/>
</svg>
