<svg class="crocodoc-2jt6Qd crocodoc-page-svg" version="1.1"
    xmlns="http://www.w3.org/2000/svg"
    xmlns:xlink="http://www.w3.org/1999/xlink"
    xmlns:xhtml="http://www.w3.org/1999/xhtml"
    xml:space="preserve" width="654.0pt" height="834.0pt" viewBox="0 0 654.0 834.0">
<xhtml:link href="stylesheet.css" type="text/css" rel="stylesheet" />
<style>
.crocodoc-2jt6Qd tspan { white-space:pre; }
.crocodoc-2jt6Qd path { fill:transparent; }

</style>
<defs>
<mask id="Mask_14_162_2jt6Qd">
<g ><path d="M3 831 l648 0 l0 -828 l-648 0 l0 828 " style="fill:url(#Grad_15_162_2jt6Qd);"/></g></mask>
<linearGradient id="Grad_15_162_2jt6Qd" x1="44.82%" y1="92.27%" x2="90.53%" y2="92.27%"><stop offset="0.00" style="stop-color:#ffffff" /><stop offset="0.25" style="stop-color:#eeeeee" /><stop offset="0.50" style="stop-color:#bdbdbd" /><stop offset="0.75" style="stop-color:#6d6d6d" /><stop offset="1.00" style="stop-color:#000000" /></linearGradient>
</defs>

<g style="opacity:0.40;" ><path d="M71.97 751.59 c0.77 -0.59 1.54 -1 2.32 -1.22 c0.78 0.14 1.43 0.38 1.9 0.71 c-0.44 0 -0.88 0.01 -1.32 0.05 c-0.96 0.07 -1.93 0.23 -2.9 0.46 M70.58 751.73 c-0.17 -0.35 -0.34 -0.64 -0.48 -0.88 c-0.05 -0.08 -0.1 -0.16 -0.15 -0.23 c0.57 -0.14 1.16 -0.25 1.75 -0.32 c0.08 -0.01 0.17 -0.02 0.26 -0.02 c0.12 -0.01 0.24 -0.02 0.35 -0.02 c-0.59 0.38 -1.17 0.87 -1.73 1.48 M71.79 756.57 c-0.73 0.19 -1.47 0.32 -2.2 0.38 c-0.46 0.03 -0.92 0.04 -1.37 0.01 c0.64 -1.48 1.37 -2.76 2.18 -3.83 c0.42 0.94 0.89 2.1 1.39 3.44 M72.35 752.35 c0.71 -0.14 1.42 -0.24 2.12 -0.29 c0.83 -0.06 1.66 -0.06 2.48 -0.01 c0.16 0.53 0.01 1.14 -0.44 1.76 c-1.37 -0.66 -2.77 -1.15 -4.16 -1.47 M77.8 754.49 c0.53 -0.76 0.75 -1.53 0.63 -2.26 c2.4 0.39 4.61 1.32 6.39 2.7 c0.59 1.34 0.26 2.92 -0.93 4.48 c-1.73 -1.95 -3.83 -3.65 -6.09 -4.92 M77.37 750.55 c1.2 0.27 2.36 0.68 3.46 1.22 c-0.91 -0.28 -1.86 -0.48 -2.85 -0.59 c-0.17 -0.23 -0.37 -0.44 -0.61 -0.63 M82.93 760.48 c-1.62 1.59 -4.03 2.99 -6.82 3.97 c-0.85 -2.48 -1.77 -4.88 -2.67 -6.97 c1.44 -0.53 2.71 -1.27 3.59 -2.11 c2.19 1.34 4.22 3.11 5.9 5.12 M67.37 751.87 c-0.23 0.02 -0.46 0.04 -0.69 0.07 c0.52 -0.33 1.13 -0.63 1.77 -0.88 c0.13 -0.05 0.25 -0.09 0.39 -0.13 c0.23 0.16 0.54 0.51 0.87 0.98 c-0.8 -0.09 -1.59 -0.1 -2.33 -0.05 M71.19 776.65 c2.06 -0.15 4.16 -0.53 6.23 -1.12 c0.37 1.66 0.63 3.04 0.77 4.12 l0.03 0.2 c0.03 0.28 0.06 0.5 0.07 0.71 c-1.08 0.5 -2.22 0.71 -3.36 0.79 c-1.93 0.14 -3.84 -0.05 -5.68 -0.59 c-0.12 -0.13 -0.17 -0.18 -0.22 -0.24 c-0.88 -1.02 -1.56 -2.31 -2.08 -3.9 c1.36 0.12 2.79 0.13 4.25 0.02 M76.89 773.26 c-2.03 0.58 -4.09 0.95 -6.12 1.11 c-1.53 0.12 -3.02 0.1 -4.42 -0.05 c-0.2 -0.98 -0.33 -2.01 -0.41 -3.07 c-0.09 -1.18 -0.1 -2.4 -0.05 -3.65 c1.22 0.12 2.5 0.13 3.81 0.03 c1.79 -0.13 3.61 -0.46 5.41 -0.97 c0.68 2.32 1.28 4.54 1.78 6.61 M69.56 765.83 c-1.22 0.09 -2.41 0.08 -3.54 -0.03 c0.26 -2.62 0.84 -5.21 1.67 -7.5 c0.61 0.05 1.25 0.06 1.91 0.01 c0.88 -0.07 1.78 -0.22 2.67 -0.46 c0.76 2.13 1.57 4.57 2.33 7.08 c-1.67 0.47 -3.36 0.77 -5.03 0.9 M72.89 756.23 c-0.58 -1.27 -1.13 -2.37 -1.64 -3.28 c1.49 0.33 3 0.89 4.5 1.67 c-0.73 0.64 -1.71 1.19 -2.85 1.6 M87.47 770.66 c0.09 1.23 -0.01 2.39 -0.3 3.44 c-0.29 0.45 -0.61 0.89 -0.94 1.31 c-0.24 0.3 -0.5 0.6 -0.77 0.89 c-1.56 1.68 -3.5 3.02 -5.62 3.89 c0 -0.22 -0.01 -0.45 -0.02 -0.7 l-0.02 -0.29 c-0.09 -1.13 -0.32 -2.54 -0.68 -4.22 c3.34 -1.16 6.28 -2.83 8.32 -4.73 c0.01 0.13 0.03 0.26 0.04 0.39 M84.03 761.9 c1.36 1.91 2.34 3.9 2.91 5.92 c-1.96 1.97 -4.92 3.71 -8.36 4.91 c-0.52 -2.08 -1.16 -4.28 -1.9 -6.57 c2.98 -1.04 5.58 -2.55 7.35 -4.26 M88.79 770.78 c0 -0.28 -0.01 -0.57 -0.03 -0.85 c-0.02 -0.31 -0.06 -0.63 -0.11 -0.96 c0.33 -0.4 0.61 -0.8 0.85 -1.2 c-0.13 1.02 -0.37 2.03 -0.71 3.01 M86.57 756.56 c0.09 0.1 0.17 0.2 0.26 0.3 c1.34 1.9 2.22 4.03 2.6 6.32 c-0.07 1.08 -0.52 2.19 -1.36 3.32 c-0.63 -1.97 -1.65 -3.89 -3.03 -5.71 c1.13 -1.42 1.65 -2.87 1.53 -4.24 M66.77 779.83 c-2.34 -1.12 -4.34 -2.78 -5.87 -4.85 c1.18 0.65 2.62 1.13 4.28 1.42 c0.41 1.32 0.95 2.47 1.59 3.43 M64.48 765.59 c-2.38 -0.45 -4.17 -1.41 -5.05 -2.69 c0.95 -2.27 2.48 -4.4 4.41 -6.15 c0.57 0.65 1.47 1.12 2.63 1.38 c-0.95 2.29 -1.63 4.86 -1.98 7.47 M63.32 755.85 c-1.89 1.6 -3.43 3.53 -4.47 5.63 c-0.05 -0.32 -0.06 -0.65 -0.02 -0.98 c0.86 -2.34 2.3 -4.47 4.16 -6.16 c0.13 -0.09 0.28 -0.18 0.42 -0.27 c-0.24 0.62 -0.27 1.22 -0.09 1.79 M68.53 752.69 c-1.42 0.58 -2.76 1.32 -4 2.21 c-0.05 -0.51 0.15 -1.07 0.61 -1.64 c0.83 -0.28 1.73 -0.46 2.67 -0.53 c0.23 -0.02 0.47 -0.03 0.72 -0.03 M64.96 755.8 c1.3 -1.01 2.73 -1.85 4.25 -2.49 c-0.79 1.01 -1.51 2.19 -2.15 3.51 c-0.93 -0.19 -1.67 -0.55 -2.09 -1.02 M58.8 764.68 c1.12 1.29 3.05 2.25 5.49 2.7 c-0.11 1.43 -0.11 2.84 -0.01 4.19 c0.06 0.85 0.17 1.69 0.32 2.49 c-2.65 -0.52 -4.64 -1.52 -5.78 -2.92 c-0.19 -0.51 -0.35 -1.05 -0.49 -1.59 c-0.01 -0.09 -0.02 -0.16 -0.02 -0.23 c-0.11 -1.53 0.05 -3.09 0.49 -4.65 " style="fill:#d3d2d2;"/></g><text class="f5782 f5765" font-size="8.00" style="fill:#231f20"><tspan x="66.59" y="769.34" textLength="15.33" dx="0,0.56,0.56">138</tspan></text>
<g mask="url(#Mask_14_162_2jt6Qd)" ><path d="M295.95 766.5 l292.19 0 " style="stroke:#918f8f;stroke-width:1.00;stroke-dasharray:0.001,1.994;stroke-linecap:round;stroke-linejoin:round;"/><path d="M293.95 766.5 M589.14 766.5 " style="stroke:#918f8f;stroke-width:1.00;stroke-linecap:round;stroke-linejoin:round;"/></g><text class="f1485 f781" font-size="8.00" style="fill:#656263"><tspan x="87.25" y="769.13" textLength="97.51" dx="0,0.56,0.56,0.56,0.56,0.56,0.56,0.56,0.56,0.56,0.56,0.56,0.56,0.56,0.56,0.56,0.56,0.56,0.56">GLOBAL TRENDS 2030:</tspan>
<tspan x="185.32" y="769.13" textLength="100.25" class="f5785 f5766" dx="0,0.56,0.56,0.56,0.56,0.56,0.56,0.56,0.56,0.56,0.56,0.56,0.56,0.56,0.56,0.56,0.56"> ACKNOWLEDGEMENTS</tspan></text><text class="f5785 f5766" font-size="9.00" style="fill:#231f20"><tspan x="75.00" y="278.75" textLength="174.47" dx="0,0.17,0.1,0,0,0.03,0.12,0.25,0,0,0.02,0,0,0.14,0.1,0.13,0.13,0,0,0.18,0.1,0,0,0.1,0.09,0.12,0.13,0.13,0,0,0.14,0,0,-0.01,0,0,0.11,0.1,0.16,0.05,0.03,0.08,0">The list of those who helped us to compile </tspan>
<tspan x="249.48" y="278.75" textLength="62.42" class="f1524 f810" dx="0,0.17,0.13,0.15,0.13,0.17,0,0,-0.46,-0.06,0.18,0.13,0.22,0">Global Trends </tspan>
<tspan x="75.00" y="290.75" textLength="21.52" class="f1524 f810" dx="0,0.08,0.01,0.12">2030</tspan>
<tspan x="96.52" y="290.75" textLength="187.52" dx="0,0,0.12,0,0,0.07,0.1,0.05,0,0,0.11,0.1,0,0,0.05,0.35,0.01,0.12,0.14,0.07,0.13,0.02,-0.1,0,0,0.2,0.13,0.14,0,0,0.04,0.09,0.19,0,0,0.1,0.09,0,0,0.13,0.13,0.13,0.1,0.05,0.1,-0.03,0"> is long and extensive. With each new edition, </tspan>
<tspan x="75.00" y="302.74" textLength="213.07" dx="0,0.09,0,0,0.05,0.02,0.02,0,0,0.13,0.12,0.1,0.05,0.13,0.01,0.13,0,0,0.2,0.02,0.1,0,0,0,0,0.1,0.02,0.06,0.09,0.18,0.12,0,0,0.11,0.1,0,0,0.11,0.1,0.03,0,0,0.13,0.13,0.02,0.12,0.25,0.13,0">we have bene&#59905;ted from a broader and more diverse </tspan>
<tspan x="75.00" y="314.74" textLength="220.44" dx="0,0.11,0.21,0.17,0.02,0,0,0.02,0,0,0.11,0.1,0.08,0.14,0.14,0.12,0.12,0.16,-0.01,0.1,0.25,0,0,0.2,0.01,0.11,0,0,0.11,0.02,0.12,0.1,0.1,0,0,0.14,0.1,0,0,0.09,0.1,0.14,0.07,0.03,0,0,0.07,0.1,0.15,0.07,0.08,0.13,0.07,0.05,0">array of contributors from around the world, including </tspan>
<tspan x="75.00" y="326.74" textLength="229.19" dx="0,0.07,0.1,0.13,0.13,0.14,0.05,0.17,0.03,0.06,0,0,0.13,0.19,0.1,0.08,0.02,0.11,0.25,0,0,0.11,0.1,0,0,0.05,0.27,0.13,0.12,0.47,0.31,0.05,0,0,0.1,0.04,0.13,0.02,0.12,0.25,0.07,0.13,0.1,0.04,0.18,0.05,0,0,0.14,0.05,0.07,0.1,0,0,0.17,0.11,0.1,0.26,0.05,0">individual scholars and experts, universities, think tanks, </tspan>
<tspan x="75.00" y="338.74" textLength="222.18" dx="0,0.13,0.15,0.05,0.12,0.1,0.12,0,0,0.02,0.16,0.13,0.05,0,0,0.12,0.14,0.07,0.07,0.1,0.18,0.26,0.13,0.18,0.05,0,0,0.11,0.1,0,0,0.16,0.02,0.02,0.12,0.21,0.1,0.12,0.12,0.08,0,0,0.07,0.14,0.25,0.1,0.13,0.14,0.16,0.1,0.05,0.1,0.14,0.05,0">science labs, businesses, and government institutions. </tspan>
<tspan x="75.00" y="350.73" textLength="229.62" dx="0,0.01,0.13,0.02,0.12,0,0,0.14,0.1,0,0,0.07,0.16,0.13,0.13,0.26,0.07,0.12,0.05,0.03,0.03,0.13,0.41,0,0,0.02,0,0,0.12,0.12,0.08,0.1,0.04,0.1,0.04,0.07,0.05,0,0,0.04,0.02,0.12,0.46,0.02,0.1,0.1,0,0,0.18,0.1,0,0,0.05,0.14,0">Given the impossibility of mentioning everyone who has </tspan>
<tspan x="75.00" y="362.73" textLength="232.13" dx="0,0.07,0.11,0.47,0.1,0.05,0.15,0.12,0.07,0.1,0.01,0.13,0,0,0.07,0,0,0.14,0.1,0,0,0.11,0.05,0.13,0.1,0.13,0.14,0.08,0.18,0,0,0.02,0,0,0.11,0.1,0.06,0.04,0.12,0.03,0.12,0.1,0.12,0.18,0.05,0,0,0.09,0.1,0.19,0.26,0.13,0.1,0.16,0.13,0.05,0">participated in the multitude of conferences, workshops, </tspan>
<tspan x="75.00" y="374.73" textLength="229.35" dx="0,0.07,0.1,0.13,0.13,0.14,0.05,0.17,0.03,0.06,0,0,0.12,0.13,0.09,0.1,0.07,0.05,0.23,0.05,0,0,0.11,0.1,0,0,0.04,0.14,0.1,0.12,0,0,0.09,0.46,0.1,0.13,0.13,0.13,0.1,0.04,0.18,0,0,0.14,0.26,0.13,0.13,0.15,-0.02,0.1,0.01,0.13,0,0,0.14,0.13,0.14,0">individual meetings, and other activities associated with </tspan>
<tspan x="75.00" y="386.72" textLength="236.3" dx="0,0.1,0.02,0.13,0.17,0.08,0.15,0.07,0.05,0,0,0.14,0.05,0.12,0,0,0.03,0.18,0.13,0.1,0.47,0.1,0,0,0.09,0,0,0.09,0.12,0.05,0.07,0,0,0.03,0.06,-0.05,0,0,-0.01,0,0,0.12,0.12,0.07,0.1,0.05,0.1,0,0,0,0,0.1,0.1,0.16,0.13,0.12,0">producing this report, we would like to mention a number </tspan>
<tspan x="75.00" y="398.72" textLength="237.36" dx="0,0.02,0,0,0.1,-0.04,0.12,0.11,0.04,0.08,0.17,0.1,0.1,0.05,0.1,0.14,0,0,0.11,0.1,0,0,0.07,0.1,0.13,0.13,0.13,0.05,0.17,0.03,0.06,0.12,0,0,0.18,0.1,0.13,0.13,0,0,0.11,0.1,0.08,0.14,0.14,0.12,0.12,0.16,0.1,0.04,0.1,0.14,0,0,0.09,0.12,0.03,0">of organizations and individuals whose contributions were </tspan>
<tspan x="75.00" y="410.72" textLength="81.52" dx="0,0.07,0.11,0.47,0.1,0.05,0.22,0.05,0.02,0.11,0.14,0.13,0,0,0.1,0.04,0.17,0.16,0.08,0.08,0.26">particularly notable:</tspan>
<tspan x="75.00" y="431.71" textLength="215.71" dx="0,0.17,0.1,0,0,-0.01,0.1,0.02,0.11,0.08,0.1,0.05,0,0,0.15,0.12,0.1,0.1,0.15,0.03,0,0,0.02,0,0,0.14,0.1,0,0,0.08,0.04,0.13,0.01,0.13,0,0,-0.04,0.17,0.1,0.01,0.18,0,0,0.22,-0.13,0.01,-0.01,0.32,0,0,0.14,0.14,0">The Atlantic Council of the United States (ACUS) was </tspan>
<tspan x="75.00" y="443.71" textLength="232.61" dx="0,0.03,0.1,0.03,0.12,0.11,0.13,0.25,0,0,0.07,0,0,0.1,-0.04,0.12,0.11,0.04,0.08,0.08,0.07,0.05,0,0,0,0,0.13,0.09,0,0,0.02,0,0,0.09,0.1,0.19,0.26,0.13,0.1,0.16,0.13,0,0,0.1,0,0,-0.05,0.05,0,0,0.14,0.1,0.12,0.12,0.18,0">foremost in organizing a set of workshops on key themes </tspan>
<tspan x="75.00" y="455.71" textLength="205.86" dx="0,0.11,0.1,0,0,0.06,0.12,0.13,0,0,0.11,0.1,0.06,0.04,0.12,0.03,0.12,0.1,0.12,0.18,0,0,0.07,0,0,0.05,0.03,0.03,0.04,0.11,0.1,0,0,-0.22,0.06,0.01,0.08,0.05,0,0,0.11,0.1,0,0,0.11,0.05,0.13,0.1,0.12,0.08,0.08,0">and also conferences in Silicon Valley and multiple </tspan>
<tspan x="75.00" y="467.70" textLength="234.48" dx="0,0.11,0.12,0.1,0.08,0.14,0.14,0.05,0.18,0,0,0.02,0.02,0.12,0.25,0.13,0.04,0.14,0.05,0,0,0.12,-0.5,0,0,-0.02,0.03,0.13,0,0,-0.03,0.12,0.16,0.13,-0.11,0,0,-0.13,0.01,-0.01,0,0,0.04,0.03,0.18,0.07,0.05,0.18,0.12,0.08,0,0,0.11,0.1,0">countries overseas. Mr. Fred Kempe, ACUS President and </tspan>
<tspan x="75.00" y="479.70" textLength="233.18" dx="0,0.04,-0.04,0.31,0,0,0.12,-0.5,0,0,0,0.11,0.21,0.46,0,0,-0.06,0.02,0.02,0.09,-0.08,0,0,0.06,0.07,0.03,0.13,0.46,-0.01,0.1,0,0,0.02,0,0,-0.13,0.01,-0.01,-0.16,0,0,0.07,0.03,0.12,0.07,0,0,0.11,0.21,0.02,0.06,0.09,0.21,0.02,0.02,0.46,0">CEO; Mr. Barry Pavel, Director of ACUS&#8217; Brent Scrowcroft </tspan>
<tspan x="75.00" y="491.70" textLength="236.83" dx="0,0.16,0.12,0.08,0.01,0.12,0,0,0.03,0.1,0,0,0.06,0.08,0.01,0.12,0.21,0.04,0.1,0.1,0.04,0.1,0.04,0.06,0,0,0.11,0.13,0.22,0.1,0.14,0.13,0.41,0.17,0,0,0.13,-0.5,0,0,0,0.11,0.1,0.04,0.07,0.05,0,0,-0.01,0.11,0.21,0.03,0.09,0.4,0.17,0,0,0.11,0.1,0">Center for International Security; Dr. Banning Garrett; and </tspan>
<tspan x="75.00" y="503.70" textLength="239.06" dx="0,0.12,-0.5,0,0,0.22,0.11,0.14,0.08,0.17,0,0,0.22,0.14,0.25,0.01,0.09,0.01,0.07,0.26,0.3,0.22,0.1,-0.01,0.19,0.1,0.04,0,0,0.16,0.13,0.12,0.1,0.13,0,0,0.16,0.13,0.1,0.25,0,0,-0.01,0,0,0,0,0.13,0.13,0.02,0.12,0.25,0.13,0,0,0.13,0.09,0">Mr. Carles Castello-Catchot opened doors to a diverse set </tspan>
<tspan x="75.00" y="515.69" textLength="233.01" dx="0,0.02,0,0,0.05,0.27,0.13,0.12,0.47,0,0,0.17,0.02,0.12,0.15,0.13,0,0,0.09,0,0,0.09,0.12,0.05,0.07,0,0,0.1,0.04,0,0,0.04,0.02,0.02,0,0,0.04,0.09,0,0,0.14,0.1,0,0,0.16,0.18,0.13,0.1,0.47,0.14,0.1,0.05,0.13,0.4,0">of expert groups we would not have had the opportunity </tspan>
<tspan x="75.00" y="527.69" textLength="224.12" dx="0,-0.01,0,0,0.12,0.05,0.12,0.05,0.18,0,0,0.14,0.14,0.14,0,0,0.04,0.14,0.1,0.12,0.46,0.14,0.12,0.13,-0.1,0,0,0.18,0.05,0,0,-0.02,0.01,0.08,0.12,0,0,0.25,0.06,0.12,0.13,0.13,0.1,-0.03,0,0,0.04,0.03,0.18,0.07,0.05,0.18,0.12,0.08,0">to engage with otherwise. Ms. Ellen Laipson, President </tspan>
<tspan x="75.00" y="539.69" textLength="217.92" dx="0,0.02,0,0,0.14,0.1,0,0,-0.05,0.1,0.07,0.15,0.13,0.1,0,0,0.16,0.12,0.08,0.01,0.12,-0.52,0,0,0.1,0.13,0.25,0.01,0.13,0,0,0.14,0.1,0,0,0.07,0.04,0.13,0.1,-0.02,0.06,0,0,0.09,0.1,0.19,0.26,0.13,0.1,0.16,0,0,0.1,0">of the Stimson Center, hosted the initial workshop on </tspan>
<tspan x="75.00" y="551.68" textLength="227.23" dx="0,0.14,0.1,0,0,0.14,0.17,0.09,0.19,0,0,0.03,0.13,0.11,0.1,0.02,0,0,0.02,0,0,0.1,0.03,0.04,0.13,0.04,0.12,0.14,0,0,0.03,0.07,0.16,0.07,0.06,0,0,-0.58,0.03,0.12,0.1,0.23,0,0,0.09,0.1,0.19,0.26,0.05,0,0,0.18,0.05,0.05,0.19,0">the track record of previous Global Trends works, which </tspan>
<tspan x="75.00" y="563.68" textLength="230.1" dx="0,0.1,0.09,0.12,0.13,0.13,0,0,0.14,0,0,-0.01,0,0,0.02,0.02,0.05,0.04,0,0,0.13,0.1,0.12,0,0,0.07,0.14,0.25,0,0,0.05,0.13,0.39,0.18,0.06,0.01,0.12,0.05,0,0,0.12,-0.5,0,0,0.01,0.02,0.13,0.05,0,0,0.07,0.05,0.19,0.1,0.09,0.11,-0.23,0">helped us to avoid some past pitfalls. Mr. David Michel&#8217;s </tspan>
<tspan x="75.00" y="575.68" textLength="224.5" dx="0,0.09,0.1,0.19,0,0,0.1,0,0,-0.05,0.1,0.07,0.15,0.13,0.1,0,0,0.1,0,0,0.05,0.11,0.14,0.13,0.1,0.07,0.12,0,0,0.11,0.1,0,0,0.12,0,0.13,0.07,0.02,0.1,0.1,0.12,0.12,0.08,0.17,0.06,0,0,0.14,0.03,0.12,0.1,0.23,0">work at Stimson on maritime and environmental trends </tspan>
<tspan x="75.00" y="587.67" textLength="99.19" dx="0,0.06,0.12,0.13,0,0,0.14,0.14,0,0,0.02,0,0,0.21,0.14,0.13,0.1,0.04,0.25,0.06,0,0,0.13,0.06,0.07,0.1,-0.1">also was of critical value.</tspan>
<tspan x="75.00" y="608.67" textLength="239.99" dx="0,0.17,0.1,0,0,0.07,0.08,0.01,0.12,0.21,0.05,0.1,0.1,0.05,0.1,0.04,0.06,0,0,-0.01,0.16,0.14,0.1,0.03,0.18,0,0,0.11,0.13,0.18,0.09,0,0,0.02,0,0,0.14,0.1,0,0,-0.02,0.03,0.13,0.18,0.12,0.14,0.05,0.19,0,0,0.05,0,0,-0.06,0.11,0.02,0.18,0.13,0">The International Futures model of the Frederick S. Pardee </tspan>
<tspan x="75.00" y="620.67" textLength="217.05" dx="0,0.16,0.12,0.08,0.01,0.12,0,0,0.1,0,0,0.14,0.1,0,0,0.08,0.04,0.13,0.02,0.12,0.25,0.07,0.13,0.41,0,0,0.02,0,0,0.09,0.12,0,0.02,0.12,-0.52,0,0,0.14,0.13,0.14,0,0,0.11,0.15,0.18,0.13,0.1,0.47,0,0,0.2,0.02,0.1,0">Center at the University of Denver, with support from </tspan>
<tspan x="75.00" y="632.67" textLength="238.39" dx="0,0.04,0.02,0.02,0.04,0.18,0.26,0.13,0.1,0,0,0,0.11,0.21,0.46,0,0,0.08,0.04,0.16,0.1,0.18,0,0,0.11,0.1,0,0,0.13,-0.5,0,0,0.05,0.1,0.04,0.1,0.14,0.04,0.11,0,0,0.11,0.02,0.02,0.12,-0.52,0,0,0.1,0.01,0.02,0.13,0.05,0.18,0.13,0">Professor Barry Hughes and Dr. Jonathan Moyer, provided </tspan>
<tspan x="75.00" y="644.66" textLength="232.69" dx="0,0.11,0,0,0.02,0.02,0.12,0.17,0.06,0.01,0,0,0.2,0.17,0.11,0.12,0.09,0.09,0.1,0.19,0,0,0.14,0.04,0.1,0,0,0.12,0.04,0.16,0.08,0.08,0.13,0,0,0.14,0,0,-0.01,0,0,0.05,0.27,0.08,0.07,0.1,0.03,0,0,0.13,0.13,0.26,0.07,0.12,0.08,0.08,0">an overall framework that enabled us to explore possible </tspan>
<tspan x="75.00" y="656.66" textLength="232.72" dx="0,0.2,0.16,0.14,0.1,0.03,0.18,0,0,0.09,0.21,0.02,0.13,0.26,0,0,0,0,0.14,0.04,0.18,0,0,0.17,0.11,0.05,0.18,0,0,0.02,0,0,0.16,0.1,0.05,0.06,0.07,0.14,0.05,0,0,0.2,0.02,0.1,0,0,0.18,0.13,0.16,0.13,0.08,0.03,0.13,0.1,0.05,0.4,0">futures across a wide range of domains, from geopolitics </tspan>
<tspan x="75.00" y="668.66" textLength="210.68" dx="0,-0.01,0,0,0.1,0.04,0.06,0.14,0.14,0,0,0.11,0.1,0,0,0.13,0.17,0.08,0.25,0.1,0.1,0.04,0.1,0.01,0,0,0.11,0.1,0.23,0.07,0.14,0.13,0.05,0,0,0,0,0.15,0.1,0.16,0.07,0.11,0,0,0,0.14,0.14,0">to health and education. McKinsey &amp; Company was </tspan>
<tspan x="75.00" y="680.65" textLength="220.25" dx="0,0.07,0.14,0.25,0.14,0.21,0.1,0.12,0.12,0.08,0.16,0.06,0,0,0.07,0,0,0.1,0.09,0.12,0.05,0.07,0.05,0,0,0.14,0,0,0.14,0.04,0.07,0.1,0,0,0.14,0.1,0.02,0.12,0.04,0.16,0,0,0.14,0.1,0,0,0.13,0.12,0.12,0.05,0.11,0.14,0.05,0.13,0">instrumental in helping us think through the scenarios </tspan>
<tspan x="75.00" y="692.65" textLength="215.11" dx="0,0.11,0.1,0,0,0.11,0.13,0.18,0.09,0,0,0.14,0.1,0,0,0.13,0.13,0.26,0.07,0.12,0.08,0.08,0,0,0.13,0.11,0.1,0.1,0.1,0.05,0.04,0,0,0.14,0.17,0.07,0.04,0.13,0.46,-0.01,0.1,0.14,0.04,0.18,0,0,0.02,0,0,0.12,0.1,0">and model the possible economic trajectories of our </tspan>
<tspan x="75.00" y="704.65" textLength="230.71" dx="0,0.06,0.14,0.01,0.12,0.21,0.05,0.1,0.1,0.13,0.03,0,0,0.2,0.16,0.14,0.1,0.03,0.18,0,0,0.14,0.13,0.14,0,0,0.14,0.1,0,0,0.1,0.09,0.12,0,0,0.02,0,0,0.13,0.31,0,0,0.1,0.02,0.16,0.1,0.14,0.04,0.09,0.17,0.11,0.46,0,0,0.03,0.07,0.16,0.07,0.06,0">alternative futures with the help of its proprietary Global </tspan>
<tspan x="75.00" y="716.64" textLength="61.6" dx="0,0.06,0.02,0.06,0.47,0.14,0,0,0.11,0.13,0.18,0.09,-0.04">Growth Model.</tspan></text><text class="f5785 f5766" font-size="9.00" style="fill:#231f20"><tspan x="340.50" y="278.64" textLength="214.72" dx="0,0.04,0.14,0.07,0.1,0.12,0.09,-0.01,0.1,0,0,0.04,0.02,0.02,0.04,0.18,0.26,0.13,0.1,0,0,0.05,0.11,0.1,0,0,0.06,-0.05,0.12,0.16,0.13,0.12,0.21,0.46,0,0,0.05,0.14,0,0,0.08,0.13,0,0,0.17,0.03,0.11,0.47,0.01,0.12,0.14,0.13,0">Princeton Professor John Ikenberry has led quarterly </tspan>
<tspan x="340.50" y="290.64" textLength="229.65" dx="0,0.12,0.13,0.09,0.1,0.07,0.05,0.23,0,0,0.02,0,0,0.07,0.08,0.01,0.12,0.21,0.05,0.1,0.1,0.05,0.1,0.05,0.06,0,0,0.03,0.09,0.02,0.1,0.1,0.05,0.1,0.14,0,0,0.13,0.19,0.1,0.08,0.02,0.11,0.25,0,0,0.14,0.13,0.14,0,0,0.14,0.1,0,0,0.04,0.06,0">meetings of international relations scholars with the NIC </tspan>
<tspan x="340.50" y="302.64" textLength="226.39" dx="0,0.03,0.1,0,0,0.14,0.1,0,0,0.07,0.14,0.25,0,0,0.18,0.13,0.25,0.09,0.18,-0.11,0,0,0.1,0.02,0.02,0.13,0.05,0.13,0.07,0.05,0,0,0.1,0.1,0.12,0.12,0.02,0.12,0.14,0,0,0.16,0.18,0.13,0.1,0.47,0.14,0.1,0.04,0.13,0.1,0.04,0.18,0">for the past decade, providing numerous opportunities </tspan>
<tspan x="340.50" y="314.63" textLength="200.02" dx="0,-0.01,0,0,0.05,0.27,0.08,0.07,0.11,0.03,0,0,0.05,0.11,0,0,0,0.02,0,0,0.14,0.1,0,0,0.05,0.18,0.04,0.14,0,0,0.16,0.13,0.12,0.16,0,0,0.14,0.1,0,0,0.19,0.05,0.11,0.05,0.13,0.07,0.05,0">to explore many of the ideas about the changing </tspan>
<tspan x="340.50" y="326.63" textLength="211.41" dx="0,0.07,0.08,0.01,0.12,0.21,0.05,0.1,0.1,0.05,0.1,0.05,0.06,0,0,0.18,0.19,0.25,0.01,0.12,0,0,0.04,0.04,0.1,0.14,0.1,0.03,0.13,0,0,0.07,0,0,0.03,0.07,0.16,0.07,0.06,0,0,-0.58,0.03,0.12,0.1,0.23,0,0,0.19,0.13,0.31,0">international system featured in Global Trends 2030 </tspan>
<tspan x="340.50" y="338.63" textLength="214.78" dx="0,0.11,0.1,0,0,0.13,0.31,0,0,0.1,0.03,0.13,0.18,0.13,0.12,0.18,0.26,0.13,0.1,0,0,0.02,0.08,0.07,0.1,0.12,0.18,0.05,0,0,0.13,-0.5,0,0,0.06,0.03,0.1,0.16,0.1,0.46,0,0,-0.58,0.03,0.04,0.02,0.12,0.47,-0.01,0.1,-0.03,0">and its predecessor volumes. Dr. Gregory Treverton, </tspan>
<tspan x="340.50" y="350.62" textLength="217.25" dx="0,0.39,0.12,0.07,0,0,0.15,0.1,0.24,0.13,0.1,0.17,0.1,0.1,0.04,0.1,-0.03,0,0,0.1,-0.04,0.12,0.11,0.05,0.08,0.01,0.13,0,0,0,0,0.05,0.13,0.02,0.04,0.17,0.06,0,0,0.09,0.1,0.19,0.26,0.14,0.1,0.16,0,0,0.1,0">RAND Corporation, organized a pivotal workshop on </tspan>
<tspan x="340.50" y="362.62" textLength="229.9" dx="0,0.14,0.1,0,0,0.19,0.05,0.11,0.05,0.13,0.07,0.05,0,0,0.05,0.1,0.14,0.1,0.03,0,0,0.02,0,0,0.13,0.06,0.09,0.12,0,0,0.03,0.1,0,0,0.14,0.05,0.12,0,0,0.25,0.14,0.08,0.23,-0.36,0,0,0.13,0.25,0.05,0,0,0.2,0.03,0.01,0.03,-0.02,0.11,0">the changing nature of power for this study. Drs. William </tspan>
<tspan x="340.50" y="374.62" textLength="218.98" dx="0,0,0.06,0.12,0.25,-0.01,0.1,0,0,0.11,0.1,0,0,0.04,0.05,0.19,0,0,0.05,0.13,0.11,0.14,0,0,0.02,0,0,-0.05,0.14,0.17,0.1,0.01,0.1,0.13,0.05,0,0,0.07,0.14,0.07,0.07,0.1,0.18,0.25,0,0,0.07,0.14,0.07,0,0.16,0.08,0.32,0.05,0">Ralston and Nick Evans of Strategic Business Insights, </tspan>
<tspan x="340.50" y="386.61" textLength="233.82" dx="0,0.07,0.1,0.15,0,0,0.1,0.02,0.02,0.13,0.05,0.18,0.13,0,0,0.21,0.14,0.13,0.1,0.05,0.25,0.06,0,0,0.14,0.05,0.07,0.1,0.22,0.07,0.05,0,0,0.11,0.1,0,0,0.05,0.27,0.13,0.12,0.47,0.1,0.12,0.13,0,0,0.1,0,0,0.13,0.12,0.12,0.21,0.15,0.04,0.1,0.13,0.02,0">Inc. provided critical thinking and expertise on disruptive </tspan>
<tspan x="340.50" y="398.61" textLength="203.54" dx="0,0.01,0.13,0.19,0.1,0.1,0.08,0.07,0.1,0.13,0.05,0.18,0.05,0,0,0.13,-0.5,0,0,0.07,0.12,0.21,0.05,0.05,0.12,0,0,0.12,0.13,0,0,0.11,0.1,0,0,0.1,0.12,0,0,0.01,0.04,0.11,0,0,0.1,0,0,0.14,0.1,0">technologies. Dr. Bernice Lee and her team at the </tspan>
<tspan x="340.50" y="410.61" textLength="225.62" dx="0,-0.04,0.02,0.13,0.06,0,0,0.06,0.14,0.25,0.1,0.13,0.14,0.16,0.01,0,0,0.02,0,0,0.07,0.08,0.01,0.12,0.21,0.05,0.1,0.1,0.05,0.1,0.05,0.06,0,0,0.06,0.44,0.18,0.06,0.07,0.25,0,0,0.4,0.13,0.05,0.1,0.14,0.04,0.11,0,0,0.07,0.12,0.14,0.13,0.31,0">Royal Institute of International Affairs (Chatham House) </tspan>
<tspan x="340.50" y="422.61" textLength="223.22" dx="0,0.1,0.02,0.02,0.13,0.05,0.18,0.13,0,0,0.05,0.35,0.01,0.12,0.14,0.07,0.13,0.02,0,0,0.03,0.18,0.13,0.04,0.11,0.02,0.19,0,0,0.1,0,0,0.03,0.18,0.13,0.12,0.1,0.02,0.12,0,0,0.13,0.25,0.11,0.02,0.15,0.13,0.1,0.04,0.18,0.05,0,0,0.13,-0.5,0">provided extensive research on resource scarcities. Dr. </tspan>
<tspan x="340.50" y="434.60" textLength="230.51" dx="0,-0.05,0.01,0.05,0.02,0,0,0.05,0.17,0.16,0.13,0,0,0.1,0.13,0.25,0.01,0.13,0,0,0.13,0.05,0.02,0.12,0.17,0.06,0,0,0.12,0.13,0.09,0.1,0.07,0.05,0.23,0,0,0.1,0,0,0.03,0.18,0.13,0.12,0.1,0.02,0.12,0,0,0.12,0.26,0.11,0.1,0.18,0">Steve Szabo hosted several meetings on resource issues </tspan>
<tspan x="340.50" y="446.60" textLength="221.11" dx="0,0.1,0,0,0.07,0.12,0.21,0.05,0.11,0,0,0.06,0.11,0.25,0.13,0.05,0.06,0.01,0,0,-0.01,0.1,0.1,0.23,-0.23,0,0,-0.58,0.17,0.11,0.14,0.13,0.1,0.1,0.02,0.11,0.08,0.1,0.05,0,0,0.05,0.25,0.09,0.18,0.12,0.01,-0.36,0,0,0.13,-0.5,0">at German Marshall Fund&#8217;s Transatlantic Academy. Dr. </tspan>
<tspan x="340.50" y="458.60" textLength="224.09" dx="0,-0.04,0.12,0.05,-0.02,0,0,0.09,0.1,0.21,0.05,0.11,0.1,0.23,0,0,0.02,0,0,0.13,0.05,0.1,0.14,0.05,0.11,0,0,0.07,0.12,0.14,0.13,0,0,0.13,0.05,0.11,0.03,0.13,0,0,0.14,0.13,0.14,0,0,0.14,0,0,0.1,0.12,0">Xenia Dormandy of Chatham House shared with us her </tspan>
<tspan x="340.50" y="470.59" textLength="231.28" dx="0,0.03,0.18,0.13,0.04,0.11,0.02,0.19,0,0,0.1,0,0,0.1,0.1,0.14,0.25,0.17,0.1,0.01,0,0,0.09,0.46,-0.01,0.1,0.25,0.05,0,0,0.12,-0.5,0,0,0.01,0.02,0.13,0.05,0,0,0.1,0.06,0,0,0.11,0.1,0,0,0.04,0.12,0,0,0.01,0.04,0.11,0">research on nonstate actors. Mr. David Low and his team </tspan>
<tspan x="340.50" y="482.59" textLength="228.38" dx="0,0.1,0,0,0.16,0.33,0.03,0.1,0.02,0,0,0.21,0.05,0.06,0.13,0.46,0.1,0.05,0.25,0,0,0.1,-0.04,0.12,0.11,0.05,0.08,0.01,0.13,0,0,0,0,0.09,0.1,0.19,0.26,0.13,0.1,0.16,0,0,0.1,0,0,0.14,0.1,0,0,0.2,0.16,0.14,0.1,0.03,0">at Oxford Analytica organized a workshop on the future </tspan>
<tspan x="340.50" y="494.59" textLength="236.83" dx="0,0.02,0,0,0.01,0.12,0.21,0.02,0.1,0.14,0.12,0.12,-0.02,0,0,0.18,0.05,0.05,0.19,0,0,0.1,0.02,0.02,0.13,0.05,0.18,0.13,0,0,0.14,0.1,0,0,0.07,0.14,0.07,0.12,0,0,0.03,0.1,0,0,0.14,0.1,0,0,0.14,0.03,0.04,0.1,0.14,0.12,0.12,0.08,0,0,0.02,0">of terrorism, which provided the basis for the treatment of </tspan>
<tspan x="340.50" y="506.58" textLength="233.02" dx="0,0.01,0.12,0.21,0.02,0.1,0.14,0.12,0.12,0,0,0.07,0,0,0.14,0.1,0,0,0.01,0.05,0.35,0.11,0,0,0.12,-0.5,0,0,0.05,0.1,0.05,0.1,0.14,0.05,0.11,0,0,-0.06,0.11,0.14,0.12,0.05,0,0,0,0,0.1,0.1,0.1,0.16,0.1,0.19,0.24,0.07,0.14,0.13,0.13,0">terrorism in the text. Mr. Jonathan Paris, a London-based </tspan>
<tspan x="340.50" y="518.58" textLength="221.12" dx="0,0.11,0.05,0.06,0.13,0.19,0.25,0.1,0,0,0.12,0.12,0.16,0.13,0.12,0,0,0.02,0,0,0.13,0.05,0.1,0.14,0.05,0.11,0,0,0.07,0.12,0.14,0.13,-0.11,0,0,0.11,0.1,0,0,0.07,0.1,0.1,0.03,0.18,0.07,0.04,0.18,0.12,0.08,0">analyst, member of Chatham House, and Nonresident </tspan>
<tspan x="340.50" y="530.58" textLength="220.02" dx="0,0.11,0.12,0.05,0.05,0.1,0,0,0.03,0.09,0.01,0.07,0.06,0,0,0.14,0.13,0.14,0,0,0.14,0.1,0,0,-0.01,0.1,0.02,0.11,0.08,0.1,0.05,0,0,0.15,0.12,0.1,0.1,0.15,0.03,-0.08,0,0,0.1,0.02,0.02,0.13,0.04,0.18,0.13,0,0,0.1,0.09,0.12,0">Senior Fellow with the Atlantic Council, provided help </tspan>
<tspan x="340.50" y="542.58" textLength="229.98" dx="0,0.14,0.13,0.14,0,0,0.07,0.05,0.16,0.12,0.08,0,0,0.08,0.14,0.25,0,0,0.2,0.16,0.14,0.1,0.03,0.18,0,0,0.11,0.1,0,0,0.1,-0.04,0.12,0.11,0.05,0.08,0.01,0.13,0,0,0.13,0.05,0.02,0.12,0.17,0.06,0,0,0.02,0.02,0.12,0.25,0.13,0.04,0.14,0">with Middle East futures and organized several overseas </tspan>
<tspan x="340.50" y="554.57" textLength="65.15" dx="0,0.12,0.13,0.09,0.1,0.07,0.05,0.23,0,0,0.03,0.1,0,0,0.14,0.05">meetings for us.</tspan>
<tspan x="340.50" y="575.57" textLength="203.51" dx="0,0.17,0.1,0,0,0.09,0.18,0.07,0.11,0.47,0.14,0.12,0.12,0.08,0,0,0.02,0,0,0.03,0.1,0.12,-0.04,0.23,0,0,0.02,0.16,0.13,0.1,0.17,0.1,-0.01,0.1,0.14,0.05,0.18,0,0,0.09,0.12,0.03,0,0,0.02,0.12,0.46,0">The Department of Energy laboratories were very </tspan>
<tspan x="340.50" y="587.57" textLength="197.88" dx="0,0.18,0.12,0.1,0.12,0.02,0.12,0.14,0,0,0.14,0.13,0.14,0,0,0.14,0.1,0.07,0.07,0,0,0.1,0.09,0.12,0.23,0,0,0.13,0.25,0.05,0,0,0.16,0.13,0.13,0.07,0,0,0.08,0.11,0.1,0.18,0.12,0.25,0,0,0.11,0.1,0">generous with their help: Drs. Alvin Sanders and </tspan>
<tspan x="340.50" y="599.56" textLength="220.72" dx="0,0.05,0.05,0.19,0.05,0.11,0.02,0,0,0.11,0.1,0.04,0.09,0,0,0.1,0,0,0.01,0.11,0,0,0.05,0.05,0.13,0.18,0,0,0.1,-0.04,0.12,0.11,0.05,0.08,0.01,0.13,0,0,0,0,0.09,0.1,0.19,0.26,0.13,0.1,0.16,0,0,0.1,0">Richard Snead at Oak Ridge organized a workshop on </tspan>
<tspan x="340.50" y="611.56" textLength="215.78" dx="0,0.05,0.1,0.14,0.1,0.17,0.06,0,0,0.13,0.12,0.13,0.14,0.25,0.01,0.12,0.25,0,0,0.11,0.1,0.03,0,0,0.1,0,0,0.08,0.11,0.1,0.13,-0.02,-0.01,0,0,0.13,0.25,0.05,0,0,0.07,0.06,0.14,0.11,0.02,0,0,-0.06,0.14,0.26,0.13,0.09,0.01,-0.08,0">natural disasters and, at Sandia, Drs. Howard Passell, </tspan>
<tspan x="340.50" y="623.56" textLength="223.77" dx="0,-0.02,0.14,0.26,0,0,0.12,-0.06,0.13,0.38,0.23,0.13,0.13,0.07,0,0,-0.61,0.1,0.11,0.01,0,0,-0.13,0.13,0.13,0.12,0.06,0.01,0,0,0.11,0.1,0,0,0.04,0.14,0.1,0.12,0.25,0,0,0.1,0.1,0.18,0.12,0.47,-0.01,0.13,0.11,0">Russ Skocypec, Tommy Woodall and others undertook </tspan>
<tspan x="340.50" y="635.55" textLength="228.12" dx="0,0.05,0.35,0.01,0.12,0.14,0.07,0.13,0.02,0,0,0.09,0.1,0.19,0,0,0.1,0,0,0.03,0.18,0.13,0.12,0.1,0.02,0.12,0,0,0.11,0.14,0.25,0.16,0.06,0.07,0.05,0.16,0.05,0.03,0.03,0.13,0.4,0,0,0.11,0.1,0,0,0.13,0.32,0,0,0.07,0.16,0.07,0.09,0.46,0">extensive work on resource sustainability and its impact </tspan>
<tspan x="340.50" y="647.55" textLength="209.55" dx="0,0.1,0,0,0.25,0.17,0.1,0.01,0,0,0.2,0.17,0.05,0.13,0.03,0.03,0.13,0.4,-0.36,0,0,0,0,0.1,0.1,0.16,0.13,0.12,0,0,0.02,0,0,0.05,0.27,0.13,0.12,0.47,0.31,0,0,0.11,0.1,0,0,0.13,0.19,0.1,0.08,0.02,0.11,0.25,0">on state fragility. A number of experts and scholars </tspan>
<tspan x="340.50" y="659.55" textLength="210.57" dx="0,0.1,0.02,0.02,0.13,0.05,0.18,0.13,0,0,0.21,0.14,0.13,0.1,0.05,0.25,0.06,0,0,0.07,0.16,0.12,0.16,0.31,0,0,0.11,0.1,0,0,0.03,0.05,0.13,0.05,0.09,0.23,0,0,0.02,0,0,0.14,0.1,0,0,0.17,0.17,0.08,0.46,0.23,0,0,0.13,-0.5,0">provided critical inputs and reviews of the draft: Dr. </tspan>
<tspan x="340.50" y="671.55" textLength="238.21" dx="0,0.01,0.11,0.05,0.05,0.09,0,0,-0.58,0.14,0.07,0.05,0.07,0.05,0.06,0,0,0.07,0.12,0.21,0.05,0.11,0,0,0.06,0.11,0.25,0.13,0.05,0.06,0.01,0,0,-0.01,0.1,0.1,0.34,0,0,0.04,0.02,0.02,0.04,0.18,0.26,0.13,0.1,0.25,0,0,0.2,0.03,0.01,0.03,-0.02,0.11,0">Daniel Twining, German Marshall Fund; Professors William </tspan>
<tspan x="340.50" y="683.54" textLength="224.83" dx="0,0.07,0.16,0.13,0.13,0.18,0.12,0,0,0.11,0.1,0,0,0.05,0.12,0.03,0.12,0.05,0,0,0.11,0.1,0.14,-0.08,0,0,0.08,0.05,0.13,0.02,0.12,0.25,0.07,0.13,0.4,0,0,0.02,0,0,-0.61,0.05,0.11,0.14,0.27,0,0,0.12,-0.5,0,0,0.04,0.04,0.03,0.03,0.12,0">Inboden and Jeremi Suri, University of Texas; Mr. Philip </tspan>
<tspan x="340.50" y="695.54" textLength="229.72" dx="0,-0.05,0.01,0.18,0.13,0.1,0.12,0.14,0.05,0,0,0.1,0.07,0.05,0.11,0.1,0.15,-0.02,0.06,0,0,0.2,0.07,0.12,0.18,0.27,0,0,0.04,0.01,0.02,0.04,0.18,0.26,0.13,0.1,0,0,0.13,0.1,0.14,0.12,0.25,-0.01,0.16,0.13,0.1,0.12,0,0,0.25,0.02,0.2,0.1,-0.11,0">Stephens, Financial Times; Professor Christopher Layne, </tspan>
<tspan x="340.50" y="707.54" textLength="209.0" dx="0,-0.61,0.05,0.11,0.14,0,0,0,0,0,0,0.33,0,0,0.13,-0.5,0,0,0.05,0.05,0.19,0.05,0.11,0.02,0,0,0.08,0.07,0.1,0.11,0.04,0.4,0.17,-0.01,0,0,-0.05,0.1,0.07,0.15,0.13,0.1,0,0,0.16,0.12,0.08,0.01,0.12,0.14,0">Texas A &amp; M; Dr. Richard Cincotta, Stimson Center; </tspan>
<tspan x="340.50" y="719.53" textLength="237.01" dx="0,0.04,0.02,0.02,0.04,0.18,0.26,0.13,0.11,0.25,0,0,-0.61,0.1,0,0,0.1,0.07,0.05,0.12,0.11,-0.52,0,0,-0.06,0.09,0.05,0,0,0.08,0.08,0.44,0.03,0,0,0.11,0.1,0,0,0.03,0.11,0,0,0.11,0.1,0.21,0.14,0.12,0.05,0,0,-0.04,0.17,0.11,0.06,0.03,0.1,0.02,0">Professors Tom Fingar, Paul Saffo and Ian Morris, Stanford </tspan>
<tspan x="340.50" y="731.53" textLength="223.26" dx="0,0.08,0.05,0.13,0.02,0.12,0.25,0.07,0.13,0.4,0.17,0,0,0.04,0.02,0.02,0.04,0.18,0.26,0.13,0.1,0.25,0,0,0.05,0.11,0.1,0,0,-0.03,0.09,0.06,0.12,0.09,0.03,0.12,0,0,0.11,0.1,0,0,0.01,0.11,0.21,0.46,0.13,0,0,-0.04,0.11,0.24,0.13,0.12,-0.52,0">University; Professors John Kelmelis and Darryl Farber, </tspan></text><text class="f1479 f777" font-size="16.00" style="fill:#231f20"><tspan x="223.89" y="143.00" textLength="206.22" dx="0,1.06,1.55,1.68,1.57,1.33,1.62,1.49,1.57,1.58,1.55,1.54,1.54,1.57,1.55,1.66">ACKNOWLEDGEMENTS</tspan></text><path d="M223 149 l206 0 " style="stroke:#231f20;stroke-width:0.50;"/><path d="M15 21 l-15 0 M639 21 l15 0 M15 813 l-15 0 M639 813 l15 0 M21 15 l0 -15 M21 819 l0 15 M633 15 l0 -15 M633 819 l0 15 " style="stroke:#ffffff;stroke-width:1.25;"/><path d="M15 21 l-15 0 M639 21 l15 0 M15 813 l-15 0 M639 813 l15 0 M21 15 l0 -15 M21 819 l0 15 M633 15 l0 -15 M633 819 l0 15 " style="stroke:#000000;stroke-width:0.25;"/>
</svg>
