<svg class="crocodoc-2jt6Qd crocodoc-page-svg" version="1.1"
    xmlns="http://www.w3.org/2000/svg"
    xmlns:xlink="http://www.w3.org/1999/xlink"
    xmlns:xhtml="http://www.w3.org/1999/xhtml"
    xml:space="preserve" width="654.0pt" height="834.0pt" viewBox="0 0 654.0 834.0">
<xhtml:link href="stylesheet.css" type="text/css" rel="stylesheet" />
<style>
.crocodoc-2jt6Qd tspan { white-space:pre; }
.crocodoc-2jt6Qd path { fill:transparent; }

</style>
<defs>
<mask id="Mask_15_23_2jt6Qd">
<g ><path d="M3 831 l648 0 l0 -828 l-648 0 l0 828 " style="fill:url(#Grad_16_23_2jt6Qd);"/></g></mask>
<linearGradient id="Grad_16_23_2jt6Qd" x1="64.81%" y1="92.15%" x2="11.00%" y2="92.15%"><stop offset="0.00" style="stop-color:#ffffff" /><stop offset="0.25" style="stop-color:#eeeeee" /><stop offset="0.50" style="stop-color:#bdbdbd" /><stop offset="0.75" style="stop-color:#6d6d6d" /><stop offset="1.00" style="stop-color:#000000" /></linearGradient>
</defs>

<g style="opacity:0.40;" ><path d="M577.78 751.59 c-0.76 -0.59 -1.54 -1 -2.32 -1.22 c-0.78 0.14 -1.43 0.38 -1.9 0.71 c0.44 0 0.88 0.01 1.32 0.05 c0.96 0.07 1.93 0.23 2.9 0.46 M579.18 751.73 c0.17 -0.35 0.33 -0.64 0.48 -0.88 c0.05 -0.08 0.1 -0.16 0.15 -0.23 c-0.57 -0.14 -1.16 -0.25 -1.75 -0.32 c-0.08 -0.01 -0.17 -0.02 -0.26 -0.02 c-0.12 -0.01 -0.24 -0.02 -0.36 -0.02 c0.59 0.38 1.17 0.87 1.73 1.48 M577.97 756.57 c0.73 0.19 1.48 0.32 2.21 0.38 c0.46 0.03 0.92 0.04 1.37 0.01 c-0.64 -1.48 -1.37 -2.76 -2.18 -3.83 c-0.42 0.94 -0.89 2.1 -1.39 3.44 M577.41 752.35 c-0.71 -0.14 -1.42 -0.24 -2.12 -0.29 c-0.83 -0.06 -1.66 -0.06 -2.48 -0.01 c-0.16 0.53 -0.01 1.14 0.44 1.76 c1.37 -0.66 2.77 -1.15 4.16 -1.47 M571.96 754.49 c-0.53 -0.76 -0.75 -1.53 -0.63 -2.26 c-2.4 0.39 -4.61 1.32 -6.39 2.7 c-0.59 1.34 -0.26 2.92 0.93 4.48 c1.74 -1.95 3.83 -3.65 6.09 -4.92 M572.39 750.55 c-1.2 0.27 -2.36 0.68 -3.46 1.22 c0.91 -0.28 1.86 -0.48 2.85 -0.59 c0.16 -0.23 0.37 -0.44 0.61 -0.63 M566.82 760.48 c1.62 1.59 4.03 2.99 6.82 3.97 c0.85 -2.48 1.77 -4.88 2.67 -6.97 c-1.44 -0.53 -2.71 -1.27 -3.6 -2.11 c-2.19 1.34 -4.22 3.11 -5.9 5.12 M582.39 751.87 c0.23 0.02 0.46 0.04 0.69 0.07 c-0.52 -0.33 -1.13 -0.63 -1.77 -0.88 c-0.13 -0.05 -0.25 -0.09 -0.38 -0.13 c-0.23 0.16 -0.54 0.51 -0.87 0.98 c0.8 -0.09 1.59 -0.1 2.33 -0.05 M578.56 776.65 c-2.06 -0.15 -4.16 -0.53 -6.23 -1.12 c-0.37 1.66 -0.63 3.04 -0.77 4.12 l-0.03 0.2 c-0.03 0.28 -0.06 0.5 -0.07 0.71 c1.08 0.5 2.22 0.71 3.36 0.79 c1.93 0.14 3.84 -0.05 5.68 -0.59 c0.12 -0.13 0.17 -0.18 0.22 -0.24 c0.88 -1.02 1.56 -2.31 2.08 -3.9 c-1.36 0.12 -2.79 0.13 -4.25 0.02 M572.87 773.26 c2.03 0.58 4.09 0.95 6.12 1.11 c1.53 0.12 3.02 0.1 4.42 -0.05 c0.2 -0.98 0.34 -2.01 0.41 -3.07 c0.09 -1.18 0.1 -2.4 0.05 -3.65 c-1.22 0.12 -2.5 0.13 -3.81 0.03 c-1.79 -0.13 -3.61 -0.46 -5.41 -0.97 c-0.68 2.32 -1.28 4.54 -1.78 6.61 M580.2 765.83 c1.22 0.09 2.41 0.08 3.54 -0.03 c-0.26 -2.62 -0.84 -5.21 -1.67 -7.5 c-0.61 0.05 -1.25 0.06 -1.91 0.01 c-0.88 -0.07 -1.78 -0.22 -2.66 -0.46 c-0.76 2.13 -1.57 4.57 -2.33 7.08 c1.67 0.47 3.36 0.77 5.03 0.9 M576.86 756.23 c0.58 -1.27 1.13 -2.37 1.64 -3.28 c-1.49 0.33 -3 0.89 -4.5 1.67 c0.73 0.64 1.71 1.19 2.85 1.6 M562.29 770.66 c-0.09 1.23 0.01 2.39 0.3 3.44 c0.29 0.45 0.61 0.89 0.94 1.31 c0.24 0.3 0.5 0.6 0.77 0.89 c1.56 1.68 3.5 3.02 5.62 3.89 c0 -0.22 0.01 -0.45 0.02 -0.7 l0.02 -0.29 c0.09 -1.13 0.32 -2.54 0.68 -4.22 c-3.35 -1.16 -6.28 -2.83 -8.32 -4.73 c-0.01 0.13 -0.03 0.26 -0.04 0.39 M565.72 761.9 c-1.36 1.91 -2.34 3.9 -2.91 5.92 c1.96 1.97 4.92 3.71 8.36 4.91 c0.52 -2.08 1.16 -4.28 1.9 -6.57 c-2.98 -1.04 -5.58 -2.55 -7.35 -4.26 M560.96 770.78 c0 -0.28 0.01 -0.57 0.03 -0.85 c0.02 -0.31 0.06 -0.63 0.11 -0.96 c-0.32 -0.4 -0.61 -0.8 -0.85 -1.2 c0.13 1.02 0.37 2.03 0.71 3.01 M563.19 756.56 c-0.09 0.1 -0.17 0.2 -0.26 0.3 c-1.34 1.9 -2.22 4.03 -2.6 6.32 c0.07 1.08 0.52 2.19 1.35 3.32 c0.63 -1.97 1.65 -3.89 3.03 -5.71 c-1.13 -1.42 -1.65 -2.87 -1.53 -4.24 M582.99 779.83 c2.34 -1.12 4.34 -2.78 5.87 -4.85 c-1.18 0.65 -2.62 1.13 -4.28 1.42 c-0.41 1.32 -0.95 2.47 -1.59 3.43 M585.27 765.59 c2.38 -0.45 4.17 -1.41 5.06 -2.69 c-0.96 -2.27 -2.48 -4.4 -4.41 -6.15 c-0.56 0.65 -1.47 1.12 -2.63 1.38 c0.95 2.29 1.63 4.86 1.98 7.47 M586.44 755.85 c1.89 1.6 3.43 3.53 4.47 5.63 c0.05 -0.32 0.06 -0.65 0.02 -0.98 c-0.86 -2.34 -2.3 -4.47 -4.16 -6.16 c-0.13 -0.09 -0.27 -0.18 -0.42 -0.27 c0.24 0.62 0.27 1.22 0.09 1.79 M581.23 752.69 c1.42 0.58 2.76 1.32 4 2.21 c0.05 -0.51 -0.15 -1.07 -0.61 -1.64 c-0.83 -0.28 -1.73 -0.46 -2.67 -0.53 c-0.23 -0.02 -0.47 -0.03 -0.71 -0.03 M584.79 755.8 c-1.3 -1.01 -2.73 -1.85 -4.25 -2.49 c0.79 1.01 1.51 2.19 2.15 3.51 c0.93 -0.19 1.67 -0.55 2.1 -1.02 M590.95 764.68 c-1.12 1.29 -3.06 2.25 -5.49 2.7 c0.11 1.43 0.11 2.84 0.01 4.19 c-0.06 0.85 -0.17 1.69 -0.32 2.49 c2.65 -0.52 4.64 -1.52 5.78 -2.92 c0.19 -0.51 0.35 -1.05 0.49 -1.59 c0.01 -0.09 0.02 -0.16 0.02 -0.23 c0.11 -1.53 -0.05 -3.09 -0.49 -4.65 " style="fill:#d3d2d2;"/></g><text class="f5782 f5765" font-size="8.00" style="fill:#231f20"><tspan x="571.50" y="769.34" textLength="9.46" dx="0,0.56">xv</tspan></text><text class="f1538 f781" font-size="8.00" style="fill:#656263"><tspan x="430.93" y="769.13" textLength="119.7" dx="0,0.56,0.56,0.56,0.56,0.56,0.56,0.56,0.56,0.56,0.56,0.56,0.56,0.56,0.56,0.56,0.56,0.56,0.56,0.56,0.56,0.56,0.56,0.56,0.56,0.56,0.56,0.56,0.56">National Intelligence Council</tspan></text>
<g mask="url(#Mask_15_23_2jt6Qd)" ><path d="M420.5 766.5 l-344.75 0 " style="stroke:#918f8f;stroke-width:1.00;stroke-dasharray:0.001,1.999;stroke-linecap:round;stroke-linejoin:round;"/><path d="M422.5 766.5 M74.75 766.5 " style="stroke:#918f8f;stroke-width:1.00;stroke-linecap:round;stroke-linejoin:round;"/></g>
<g style="blend-mode:screen;" ><path d="M284.91 127.75 c0 14.5 11.75 26.25 26.25 26.25 c14.5 0 26.25 -11.75 26.25 -26.25 c0 -14.5 -11.75 -26.25 -26.25 -26.25 c-14.5 0 -26.25 11.75 -26.25 26.25 " style="fill:#007eb2;"/></g>
<g style="blend-mode:screen;" ><path d="M318.73 127.75 c0 14.5 11.75 26.25 26.25 26.25 c14.5 0 26.25 -11.75 26.25 -26.25 c0 -14.5 -11.75 -26.25 -26.25 -26.25 c-14.5 0 -26.25 11.75 -26.25 26.25 " style="fill:#e6910d;"/></g><path d="M328.05 147.81 c5.71 -4.81 9.34 -12.02 9.34 -20.07 c0 -8.05 -3.63 -15.26 -9.34 -20.07 c-5.71 4.82 -9.34 12.02 -9.34 20.07 c0 8.05 3.63 15.26 9.34 20.07 " style="fill:#758b0d;"/>
<g style="blend-mode:soft-light;" ><path d="M348.32 103.8 c-1.29 -0.99 -2.6 -1.68 -3.91 -2.06 c-1.32 0.23 -2.41 0.64 -3.2 1.2 c0.75 0 1.49 0.03 2.22 0.08 c1.62 0.12 3.26 0.38 4.89 0.77 M350.67 104.03 c0.29 -0.58 0.56 -1.08 0.81 -1.48 c0.09 -0.14 0.17 -0.27 0.25 -0.39 c-0.97 -0.23 -1.96 -0.42 -2.94 -0.55 c-0.14 -0.01 -0.29 -0.03 -0.44 -0.04 c-0.2 -0.02 -0.4 -0.03 -0.6 -0.04 c1 0.64 1.98 1.47 2.93 2.49 M348.63 112.21 c1.24 0.33 2.49 0.54 3.72 0.63 c0.78 0.06 1.55 0.07 2.31 0.02 c-1.07 -2.5 -2.31 -4.66 -3.68 -6.45 c-0.71 1.59 -1.5 3.54 -2.35 5.8 M347.68 105.08 c-1.19 -0.23 -2.39 -0.4 -3.58 -0.48 c-1.4 -0.1 -2.8 -0.11 -4.18 -0.01 c-0.27 0.9 -0.02 1.92 0.75 2.97 c2.32 -1.11 4.67 -1.94 7.01 -2.48 M338.48 108.69 c-0.9 -1.28 -1.26 -2.59 -1.06 -3.82 c-4.05 0.67 -7.77 2.23 -10.79 4.55 c-0.99 2.25 -0.44 4.93 1.57 7.56 c2.93 -3.3 6.47 -6.16 10.28 -8.3 M339.21 102.05 c-2.03 0.46 -3.98 1.14 -5.83 2.05 c1.54 -0.48 3.14 -0.81 4.8 -0.99 c0.28 -0.39 0.62 -0.74 1.03 -1.06 M329.82 118.8 c2.74 2.68 6.8 5.05 11.51 6.7 c1.43 -4.18 2.99 -8.24 4.51 -11.77 c-2.44 -0.9 -4.57 -2.15 -6.07 -3.57 c-3.69 2.26 -7.12 5.24 -9.95 8.64 M356.08 104.28 c0.39 0.03 0.78 0.07 1.17 0.13 c-0.89 -0.56 -1.9 -1.06 -2.98 -1.48 c-0.21 -0.07 -0.43 -0.15 -0.65 -0.22 c-0.38 0.27 -0.91 0.86 -1.47 1.65 c1.36 -0.15 2.68 -0.17 3.94 -0.08 M349.63 146.1 c-3.48 -0.26 -7.02 -0.89 -10.5 -1.89 c-0.62 2.8 -1.06 5.14 -1.3 6.96 c-0.01 0.1 -0.03 0.21 -0.04 0.31 c-0.06 0.5 -0.1 0.88 -0.12 1.22 c-0.01 0.11 -0.01 0.21 -0.02 0.3 c1.84 0.54 3.76 0.89 5.69 1.04 c3.25 0.24 6.47 -0.09 9.58 -0.99 c0.2 -0.21 0.29 -0.31 0.38 -0.41 c1.48 -1.72 2.63 -3.89 3.51 -6.58 c-2.29 0.21 -4.7 0.22 -7.17 0.03 M340.02 140.38 c3.43 0.98 6.91 1.61 10.33 1.86 c2.59 0.19 5.1 0.17 7.46 -0.08 c0.33 -1.65 0.56 -3.39 0.7 -5.18 c0.15 -1.99 0.18 -4.06 0.08 -6.16 c-2.05 0.2 -4.22 0.21 -6.44 0.05 c-3.03 -0.23 -6.09 -0.78 -9.12 -1.64 c-1.14 3.91 -2.16 7.66 -3.01 11.15 M352.39 127.82 c2.06 0.15 4.07 0.14 5.98 -0.04 c-0.44 -4.43 -1.42 -8.79 -2.82 -12.65 c-1.03 0.09 -2.11 0.09 -3.22 0.01 c-1.49 -0.11 -3 -0.37 -4.5 -0.78 c-1.29 3.59 -2.65 7.71 -3.93 11.94 c2.82 0.8 5.68 1.31 8.49 1.52 M346.76 111.63 c0.97 -2.14 1.9 -4 2.77 -5.53 c-2.52 0.56 -5.07 1.51 -7.59 2.82 c1.24 1.07 2.89 2 4.82 2.71 M322.17 135.99 c-0.16 2.08 0.01 4.03 0.5 5.81 c0.49 0.76 1.02 1.51 1.59 2.21 c0.41 0.51 0.84 1.02 1.3 1.51 c2.63 2.83 5.91 5.1 9.49 6.57 c0 -0.36 0.01 -0.76 0.04 -1.18 l0.02 -0.31 c0.17 -2.07 0.55 -4.46 1.16 -7.28 c-5.64 -1.96 -10.59 -4.77 -14.03 -7.98 c-0.02 0.23 -0.05 0.45 -0.06 0.66 M327.97 121.2 c-2.3 3.23 -3.95 6.59 -4.92 9.98 c3.3 3.32 8.29 6.26 14.11 8.29 c0.88 -3.5 1.95 -7.23 3.21 -11.09 c-5.03 -1.76 -9.41 -4.3 -12.4 -7.19 M319.93 136.19 c0 -0.48 0.02 -0.96 0.06 -1.44 c0.04 -0.52 0.1 -1.06 0.18 -1.61 c-0.55 -0.67 -1.03 -1.35 -1.44 -2.03 c0.23 1.73 0.63 3.42 1.2 5.07 M323.68 112.2 c-0.15 0.17 -0.29 0.34 -0.43 0.51 c-2.26 3.2 -3.74 6.8 -4.39 10.67 c0.12 1.82 0.88 3.7 2.29 5.61 c1.07 -3.32 2.79 -6.56 5.12 -9.64 c-1.91 -2.4 -2.79 -4.85 -2.59 -7.15 M357.1 151.45 c3.94 -1.89 7.33 -4.69 9.9 -8.18 c-2 1.1 -4.42 1.9 -7.22 2.39 c-0.7 2.23 -1.6 4.17 -2.69 5.78 M360.95 127.42 c4.02 -0.77 7.03 -2.37 8.53 -4.54 c-1.61 -3.84 -4.18 -7.42 -7.44 -10.38 c-0.95 1.09 -2.47 1.89 -4.44 2.33 c1.6 3.86 2.76 8.2 3.35 12.6 M362.92 110.99 c3.19 2.69 5.78 5.96 7.55 9.5 c0.09 -0.54 0.1 -1.09 0.04 -1.66 c-1.45 -3.94 -3.88 -7.54 -7.02 -10.4 c-0.23 -0.16 -0.46 -0.31 -0.71 -0.45 c0.41 1.04 0.46 2.07 0.14 3.02 M354.13 105.67 c2.39 0.98 4.65 2.23 6.74 3.72 c0.09 -0.86 -0.26 -1.81 -1.03 -2.77 c-1.4 -0.47 -2.91 -0.77 -4.5 -0.89 c-0.4 -0.03 -0.8 -0.05 -1.21 -0.06 M360.15 110.9 c-2.2 -1.71 -4.61 -3.12 -7.17 -4.21 c1.33 1.71 2.55 3.7 3.63 5.92 c1.57 -0.32 2.81 -0.92 3.54 -1.72 M370.54 125.9 c-1.9 2.18 -5.15 3.79 -9.27 4.56 c0.18 2.42 0.19 4.8 0.02 7.07 c-0.11 1.44 -0.29 2.85 -0.53 4.21 c4.47 -0.87 7.83 -2.57 9.75 -4.92 c0.32 -0.86 0.59 -1.77 0.82 -2.68 c0.01 -0.15 0.03 -0.27 0.03 -0.39 c0.19 -2.58 -0.08 -5.21 -0.82 -7.84 " style="fill:#ffffff;fill-opacity:0.40;"/></g><path d="M327.95 147.81 c5.71 -4.81 9.34 -12.02 9.34 -20.07 c0 -8.05 -3.63 -15.26 -9.34 -20.07 c-5.71 4.82 -9.34 12.02 -9.34 20.07 c0 8.05 3.63 15.26 9.34 20.07 " style="fill:#758b0d;"/>
<g style="blend-mode:soft-light;" ><path d="M307.55 103.8 c1.29 -0.99 2.6 -1.68 3.91 -2.06 c1.32 0.23 2.41 0.64 3.2 1.2 c-0.75 0 -1.49 0.03 -2.22 0.08 c-1.62 0.12 -3.26 0.38 -4.89 0.77 M305.2 104.03 c-0.29 -0.58 -0.56 -1.08 -0.81 -1.48 c-0.09 -0.14 -0.17 -0.27 -0.25 -0.39 c0.97 -0.23 1.96 -0.42 2.94 -0.55 c0.14 -0.01 0.29 -0.03 0.44 -0.04 c0.2 -0.02 0.4 -0.03 0.6 -0.04 c-1 0.64 -1.98 1.47 -2.93 2.49 M307.24 112.21 c-1.24 0.33 -2.49 0.54 -3.72 0.63 c-0.78 0.06 -1.55 0.07 -2.31 0.02 c1.07 -2.5 2.31 -4.66 3.68 -6.45 c0.71 1.59 1.5 3.54 2.35 5.8 M308.19 105.08 c1.19 -0.23 2.39 -0.4 3.58 -0.48 c1.4 -0.1 2.8 -0.11 4.18 -0.01 c0.27 0.9 0.02 1.92 -0.75 2.97 c-2.32 -1.11 -4.67 -1.94 -7.01 -2.48 M317.39 108.69 c0.9 -1.28 1.26 -2.59 1.06 -3.82 c4.05 0.67 7.77 2.23 10.79 4.55 c0.99 2.25 0.44 4.93 -1.57 7.56 c-2.93 -3.3 -6.47 -6.16 -10.28 -8.3 M316.66 102.05 c2.03 0.46 3.98 1.14 5.83 2.05 c-1.54 -0.48 -3.14 -0.81 -4.8 -0.99 c-0.28 -0.39 -0.62 -0.74 -1.03 -1.06 M326.05 118.8 c-2.74 2.68 -6.8 5.05 -11.51 6.7 c-1.43 -4.18 -2.99 -8.24 -4.51 -11.77 c2.44 -0.9 4.57 -2.15 6.07 -3.57 c3.69 2.26 7.12 5.24 9.95 8.64 M299.79 104.28 c-0.39 0.03 -0.78 0.07 -1.17 0.13 c0.89 -0.56 1.9 -1.06 2.98 -1.48 c0.21 -0.07 0.43 -0.15 0.65 -0.22 c0.38 0.27 0.91 0.86 1.47 1.65 c-1.36 -0.15 -2.68 -0.17 -3.94 -0.08 M306.24 146.1 c3.48 -0.26 7.02 -0.89 10.5 -1.89 c0.62 2.8 1.06 5.14 1.3 6.96 c0.01 0.1 0.03 0.21 0.04 0.31 c0.06 0.5 0.1 0.88 0.12 1.22 c0.01 0.11 0.01 0.21 0.02 0.3 c-1.84 0.54 -3.76 0.89 -5.69 1.04 c-3.25 0.24 -6.47 -0.09 -9.58 -0.99 c-0.2 -0.21 -0.29 -0.31 -0.38 -0.41 c-1.48 -1.72 -2.63 -3.89 -3.51 -6.58 c2.29 0.21 4.7 0.22 7.17 0.03 M315.85 140.38 c-3.43 0.98 -6.91 1.61 -10.33 1.86 c-2.59 0.19 -5.1 0.17 -7.46 -0.08 c-0.33 -1.65 -0.56 -3.39 -0.7 -5.18 c-0.15 -1.99 -0.18 -4.06 -0.08 -6.16 c2.05 0.2 4.22 0.21 6.44 0.05 c3.03 -0.23 6.09 -0.78 9.12 -1.64 c1.14 3.91 2.16 7.66 3.01 11.15 M303.48 127.82 c-2.06 0.15 -4.07 0.14 -5.98 -0.04 c0.44 -4.43 1.42 -8.79 2.82 -12.65 c1.03 0.09 2.11 0.09 3.22 0.01 c1.49 -0.11 3 -0.37 4.5 -0.78 c1.29 3.59 2.65 7.71 3.93 11.94 c-2.82 0.8 -5.68 1.31 -8.49 1.52 M309.11 111.63 c-0.97 -2.14 -1.9 -4 -2.77 -5.53 c2.52 0.56 5.07 1.51 7.59 2.82 c-1.24 1.07 -2.89 2 -4.82 2.71 M333.71 135.99 c0.16 2.08 -0.01 4.03 -0.5 5.81 c-0.49 0.76 -1.02 1.51 -1.59 2.21 c-0.41 0.51 -0.84 1.02 -1.3 1.51 c-2.63 2.83 -5.91 5.1 -9.49 6.57 c0 -0.36 -0.01 -0.76 -0.04 -1.18 l-0.02 -0.31 c-0.17 -2.07 -0.55 -4.46 -1.16 -7.28 c5.64 -1.96 10.59 -4.77 14.03 -7.98 c0.02 0.23 0.05 0.45 0.06 0.66 M327.91 121.2 c2.3 3.23 3.95 6.59 4.92 9.98 c-3.3 3.32 -8.29 6.26 -14.11 8.29 c-0.88 -3.5 -1.95 -7.23 -3.21 -11.09 c5.03 -1.76 9.41 -4.3 12.4 -7.19 M335.94 136.19 c0 -0.48 -0.02 -0.96 -0.06 -1.44 c-0.04 -0.52 -0.1 -1.06 -0.18 -1.61 c0.55 -0.67 1.03 -1.35 1.44 -2.03 c-0.23 1.73 -0.63 3.42 -1.2 5.07 M332.19 112.2 c0.15 0.17 0.29 0.34 0.43 0.51 c2.26 3.2 3.74 6.8 4.39 10.67 c-0.12 1.82 -0.88 3.7 -2.29 5.61 c-1.07 -3.32 -2.79 -6.56 -5.12 -9.64 c1.91 -2.4 2.79 -4.85 2.59 -7.15 M298.77 151.45 c-3.94 -1.89 -7.33 -4.69 -9.9 -8.18 c2 1.1 4.42 1.9 7.22 2.39 c0.7 2.23 1.6 4.17 2.69 5.78 M294.92 127.42 c-4.02 -0.77 -7.03 -2.37 -8.53 -4.54 c1.61 -3.84 4.18 -7.42 7.44 -10.38 c0.95 1.09 2.47 1.89 4.44 2.33 c-1.6 3.86 -2.76 8.2 -3.35 12.6 M292.96 110.99 c-3.19 2.69 -5.78 5.96 -7.55 9.5 c-0.09 -0.54 -0.1 -1.09 -0.04 -1.66 c1.45 -3.94 3.88 -7.54 7.02 -10.4 c0.23 -0.16 0.46 -0.31 0.71 -0.45 c-0.41 1.04 -0.46 2.07 -0.14 3.02 M301.75 105.67 c-2.39 0.98 -4.65 2.23 -6.74 3.72 c-0.09 -0.86 0.26 -1.81 1.03 -2.77 c1.4 -0.47 2.91 -0.77 4.5 -0.89 c0.4 -0.03 0.8 -0.05 1.21 -0.06 M295.73 110.9 c2.2 -1.71 4.61 -3.12 7.17 -4.21 c-1.33 1.71 -2.55 3.7 -3.63 5.92 c-1.57 -0.32 -2.81 -0.92 -3.54 -1.72 M285.34 125.9 c1.9 2.18 5.15 3.79 9.27 4.56 c-0.18 2.42 -0.19 4.8 -0.02 7.07 c0.11 1.44 0.29 2.85 0.53 4.21 c-4.47 -0.87 -7.83 -2.57 -9.75 -4.92 c-0.32 -0.86 -0.59 -1.77 -0.82 -2.68 c-0.01 -0.15 -0.03 -0.27 -0.03 -0.39 c-0.19 -2.58 0.08 -5.21 0.82 -7.84 " style="fill:#ffffff;fill-opacity:0.40;"/></g><path d="M357.38 227.5 c9.32 0 16.88 7.56 16.88 16.88 c0 8.91 -6.9 16.19 -15.64 16.83 l-18.12 0.05 l0 -18.12 c0.69 -8.74 7.98 -15.64 16.88 -15.64 " style="fill:#e6910d;"/><path d="M368.5 243.89 l-3.3 -5.86 l-7.94 0.02 c-0.11 0 -0.19 0.09 -0.19 0.2 l-0.94 1.98 l-2.64 -1.53 l-6.67 3.63 c-0.08 0.05 -0.12 0.15 -0.09 0.24 l-0.02 7.78 l6.24 3.71 c0.01 0.14 0.17 0.22 0.29 0.15 l0.68 -0.38 l5.88 -3.31 l0.1 -0.94 l4.88 -0.01 l3.2 -4.7 l0.51 -0.78 c0.04 -0.06 0.04 -0.14 0.01 -0.2 M353.52 245.02 c-0.19 0.07 -0.38 0.08 -0.55 0.06 l-3.95 -2.31 c-0.13 -0.18 -0.12 -0.34 -0.02 -0.47 l4.2 -2.36 c0.14 -0.03 0.22 -0.03 0.32 -0.03 l2.26 1.3 l1.86 1.07 c0.13 0.18 0.12 0.33 0.02 0.46 l-0.86 0.49 c-0.06 0.03 -0.18 0.1 -0.43 0.24 l-1.01 0.56 l-1.82 1.01 z M358.88 249.46 c-0.1 0.28 -0.27 0.49 -0.45 0.61 c0 0 -1.05 0.63 -1.05 0.64 l-3.13 1.76 c-0.15 0 -0.18 -0.02 -0.21 -0.04 c-0.05 -0.11 -0.06 -4.56 -0.06 -4.56 l0.02 -0.72 c0.01 -0.37 0.26 -0.79 0.58 -0.96 l3.82 -1.99 c0.14 -0.07 0.28 -0.08 0.4 -0.02 c0.07 0.12 0.08 2.01 0.08 2.01 c-0.01 0.15 0 0.46 0 0.47 l0 1.63 l0 1.17 z M366.52 245.23 l-1.95 2.97 c-0.16 0.16 -0.36 0.27 -0.58 0.34 l-4.03 0.01 l-0.19 -1.89 c0.03 -0.08 0.43 -0.67 0.43 -0.67 l0.57 -0.77 c0.2 -0.18 0.47 -0.31 0.75 -0.38 l4.61 -0.02 c0.22 0.05 0.36 0.14 0.41 0.28 z M366.7 242.84 c-0.04 0.2 -0.24 0.33 -0.52 0.33 c0 0 -1.01 0.02 -1.01 0.02 l-3.65 0.04 c-0.34 -0.06 -0.64 -0.24 -0.76 -0.45 c0 0 -1.55 -2.73 -1.55 -2.73 l-0.26 -0.47 c-0.09 -0.2 -0.03 -0.39 0.14 -0.5 l5.18 -0.1 c0.17 0.05 0.29 0.11 0.39 0.19 l2.03 3.58 z " style="fill:#ffffff;"/><path d="M353.14 241.36 c-0.51 0 -1.3 0.28 -1.23 0.91 c0.06 0.57 0.75 0.79 1.24 0.79 c0.51 0 1.3 -0.28 1.23 -0.91 c-0.06 -0.57 -0.75 -0.79 -1.24 -0.79 " style="fill:#ffffff;"/><path d="M361.71 239.76 c-0.43 -0.13 -1 0.01 -1.14 0.49 c-0.14 0.48 0.27 0.9 0.7 1.03 c0.43 0.13 1 -0.01 1.14 -0.48 c0.14 -0.48 -0.27 -0.9 -0.7 -1.03 " style="fill:#ffffff;"/><path d="M363.77 241.03 c-0.45 0.23 -0.49 0.79 -0.16 1.15 c0.31 0.34 0.87 0.47 1.29 0.25 c0.45 -0.23 0.49 -0.79 0.16 -1.15 c-0.31 -0.34 -0.87 -0.47 -1.29 -0.25 " style="fill:#ffffff;"/><path d="M362.79 245.85 c-0.42 -0.01 -0.87 0.27 -0.92 0.71 c-0.06 0.51 0.42 0.88 0.89 0.89 c0.42 0.01 0.87 -0.27 0.92 -0.71 c0.06 -0.51 -0.42 -0.88 -0.89 -0.89 " style="fill:#ffffff;"/><path d="M355.32 246.6 c-1.07 0.17 -1.15 2.2 0.05 2.02 c1.07 -0.17 1.15 -2.21 -0.05 -2.02 " style="fill:#ffffff;"/><path d="M357.43 249.73 c0.98 -0.15 1.05 -2.02 -0.05 -1.85 c-0.98 0.15 -1.05 2.02 0.05 1.85 " style="fill:#ffffff;"/><text class="f1479 f777" font-size="10.00" style="fill:#231f20"><tspan x="197.04" y="184.86" textLength="259.93" class="f5785 f5766" font-size="22.00" dx="0,0.7,2.2,2.2,2.2,2.2,2.2,2.2,2.2,2.2,2.2,2.2,2.2,2.2,2.2,2.2,2.2">TABLE OF CONTENTS</tspan>
<tspan x="75.00" y="237.00" textLength="80.54">INTRODUCTION </tspan>
<tspan x="291.00" y="237.00" textLength="5.92">1</tspan></text><text class="f5782 f5765" font-size="13.00" style="fill:#007eb2"><tspan x="75.00" y="314.50" textLength="94.86" dx="0,0,0,0,-1.2,0,0,0,0,0,0">MEGATRENDS </tspan>
<tspan x="290.99" y="314.50" textLength="7.7">7</tspan></text><text class="f1485 f781" font-size="10.00" style="fill:#231f20"><tspan x="75.00" y="339.00" textLength="142.38">INDIVIDUAL EMPOWERMENT </tspan>
<tspan x="291.00" y="339.00" textLength="5.56">9</tspan></text><text class="f5785 f5766" font-size="8.50" style="fill:#444141"><tspan x="88.50" y="356.12" textLength="90.29" dx="0,0,0,0,0,0.05,0,0,0,0,0,0,0,0,0,0,0,0">POVERTY REDUCTION </tspan>
<tspan x="291.00" y="356.12" textLength="4.42">9</tspan>
<tspan x="88.50" y="373.24" textLength="162.68" dx="0,0,0,0,0,0,-0.63,0,0,0,0,0,0,0,0,0,0,0,0,0,0,0,0,0,0,0,0,0,0,0,0,0,0">AN EXPANDING GLOBAL MIDDLE CLASS </tspan>
<tspan x="291.00" y="373.24" textLength="4.42">9</tspan>
<tspan x="88.50" y="390.36" textLength="146.97" dx="0,0,0,0,0,-0.58,0,0,0,0,0,0,0,0,0,0,0,0,0,0,0,0,0,0,0,0,0,0,0">EDUCATION AND THE GENDER GAP </tspan>
<tspan x="291.00" y="390.36" textLength="8.84">11</tspan>
<tspan x="88.50" y="407.48" textLength="211.34" dx="0,0,0,0,0,0,0,0,0,0,0,0,0,0,0,0,0,-0.58,0,0,0,0,0,0,0,0,0,0,0,0,0,0,0,0,0,0,15.19,0">ROLE OF COMMUNICATIONS TECHNOLOGIES 12</tspan>
<tspan x="88.50" y="424.60" textLength="83.16" dx="0,0,0,0,0,0,0,0,0,0,0,0,0,0,-0.78,0,0">IMPROVING HEALTH </tspan>
<tspan x="291.00" y="424.60" textLength="8.84">12</tspan>
<tspan x="88.50" y="441.72" textLength="151.53">A MORE CONFLICTED IDEOLOGICAL  </tspan>
<tspan x="88.50" y="452.72" textLength="51.65">LANDSCAPE </tspan>
<tspan x="291.00" y="452.72" textLength="8.84">13</tspan></text><text class="f1485 f781" font-size="10.00" style="fill:#231f20"><tspan x="75.00" y="471.28" textLength="111.82">DIFFUSION OF POWER </tspan>
<tspan x="291.00" y="471.28" textLength="11.12">16</tspan></text><text class="f5785 f5766" font-size="8.50" style="fill:#444141"><tspan x="88.50" y="488.40" textLength="147.28" dx="0,0,0,0,0,0,0,0,0,0,0,0,0,0,-0.47,0,0,0,0,0,0,0,0,0,0,0,0,0,0,0,0,0,0">THE RISE AND FALL OF COUNTRIES:  </tspan>
<tspan x="88.50" y="499.40" textLength="18.58" class="f1539 f823">NOT</tspan>
<tspan x="107.08" y="499.40" textLength="94.39" dx="0,0,0,0,0,0,0,0,0,0,0,0,0,0,0,0,0,0,-0.11,0"> THE SAME OLD STORY </tspan>
<tspan x="291.00" y="499.40" textLength="8.84">18</tspan>
<tspan x="88.50" y="516.52" textLength="149.63">THE LIMITS OF HARD POWER IN THE  </tspan>
<tspan x="88.50" y="527.52" textLength="66.83">WORLD OF 2030 </tspan>
<tspan x="291.00" y="527.52" textLength="8.84">19</tspan></text><text class="f1485 f781" font-size="10.00" style="fill:#231f20"><tspan x="75.00" y="546.08" textLength="129.08" dx="0,0,0,0,0,0,0,0,0,0,0,0,0,-0.74,-0.92,0,0,0,0,0,0">DEMOGRAPHIC PATTERNS </tspan>
<tspan x="291.00" y="546.08" textLength="11.12">21</tspan></text><text class="f5785 f5766" font-size="8.50" style="fill:#444141"><tspan x="88.50" y="563.20" textLength="85.67">WIDESPREAD AGING </tspan>
<tspan x="291.00" y="563.20" textLength="8.84">21</tspan>
<tspan x="88.50" y="580.32" textLength="147.23">SHRINKING NUMBER OF YOUTHFUL  </tspan>
<tspan x="88.50" y="591.32" textLength="49.61">COUNTRIES </tspan>
<tspan x="291.00" y="591.32" textLength="8.84">23</tspan>
<tspan x="88.50" y="608.44" textLength="113.3" dx="0,0,0,0,0,0,0,0,0,0,0,0,0,0,0,0,0,0,-0.58,0,0,0,0">A NEW AGE OF MIGRATION </tspan>
<tspan x="291.00" y="608.44" textLength="8.84">24</tspan>
<tspan x="88.50" y="625.56" textLength="94.79">THE WORLD AS URBAN </tspan>
<tspan x="291.00" y="625.56" textLength="8.84">27</tspan></text><text class="f1485 f781" font-size="10.00" style="fill:#231f20"><tspan x="75.00" y="644.12" textLength="127.5" dx="0,0,0,0,0,0,0,0,0,0,0,0,0,0,0,-0.24,-0.92,0,0,0,0">GROWING FOOD, WATER, </tspan>
<tspan x="75.00" y="655.12" textLength="104.09">AND ENERGY NEXUS </tspan>
<tspan x="291.00" y="655.12" textLength="11.12">31</tspan></text><text class="f5785 f5766" font-size="8.50" style="fill:#444141"><tspan x="88.50" y="672.24" textLength="120.44" dx="0,0,0,0,0,0,0,-0.15,-0.58,0,0,0,0,0,0,0,0,0,0,0,0,0,-0.58,0,0">FOOD, WATER, AND CLIMATE </tspan>
<tspan x="291.00" y="672.24" textLength="8.84">31</tspan>
<tspan x="88.50" y="689.36" textLength="129.61">A BRIGHTER ENERGY OUTLOOK </tspan>
<tspan x="291.00" y="689.36" textLength="8.84">35</tspan></text><text class="f5782 f5765" font-size="13.00" style="fill:#e6910d"><tspan x="340.50" y="276.80" textLength="121.1">GAME-CHANGERS </tspan>
<tspan x="556.50" y="276.80" textLength="15.39">41</tspan></text><text class="f1485 f781" font-size="10.00" style="fill:#231f20"><tspan x="340.50" y="301.30" textLength="92.24">THE CRISIS-PRONE </tspan>
<tspan x="340.50" y="312.30" textLength="98.31">GLOBAL ECONOMY </tspan>
<tspan x="556.50" y="312.30" textLength="11.12">43</tspan></text><text class="f5785 f5766" font-size="8.50" style="fill:#444141"><tspan x="354.00" y="329.42" textLength="106.62">THE PLIGHT OF THE WEST </tspan>
<tspan x="556.50" y="329.42" textLength="8.84">43</tspan>
<tspan x="354.00" y="346.54" textLength="100.01">CRUNCH TIME TOO FOR </tspan>
<tspan x="354.00" y="357.54" textLength="102.21">THE EMERGING POWERS </tspan>
<tspan x="556.50" y="357.54" textLength="8.84">46</tspan>
<tspan x="354.00" y="374.66" textLength="144.73" dx="0,0,0,0,0,-0.78,0,0,0,0,0,0,0,0,0,0,0,0,0,0,0,0,0,0,0,0,0,-0.78,0">A MULTIPOLAR GLOBAL ECONOMY: </tspan>
<tspan x="354.00" y="385.66" textLength="118.75" dx="0,0,0,0,0,0,0,0,0,-0.94,0,0,0,0,0,0,0,0,0,0,0,0,0,0,0">INHERENTLY MORE FRAGILE? </tspan>
<tspan x="556.50" y="385.66" textLength="8.84">49</tspan></text><text class="f1485 f781" font-size="10.00" style="fill:#231f20"><tspan x="340.50" y="410.16" textLength="119.08">THE GOVERNANCE GAP </tspan>
<tspan x="556.50" y="410.16" textLength="11.12">51</tspan></text><text class="f5785 f5766" font-size="8.50" style="fill:#444141"><tspan x="354.00" y="427.28" textLength="137.65" dx="0,0,0,0,0,0,0,0,0,0,0,0,0,-0.58,0,0.05,0,0,0,-0.58,0,0,0,0,0,0,0,0">GOVERNANCE STARTS AT HOME:  </tspan>
<tspan x="354.00" y="438.28" textLength="112.66" dx="0,0,0,0,0,0,0,0,0,0,0,0,0,0,0,0.05,0,0,0,0,0,0,0,0">RISKS AND OPPORTUNITIES </tspan>
<tspan x="556.50" y="438.28" textLength="8.84">51</tspan>
<tspan x="354.00" y="455.40" textLength="139.85">INCREASED FOCUS ON EQUALITY  </tspan>
<tspan x="354.00" y="466.40" textLength="67.88">AND OPENNESS </tspan>
<tspan x="556.50" y="466.40" textLength="8.84">56</tspan>
<tspan x="354.00" y="483.52" textLength="126.68" dx="0,0,0,0,0,0,0,0,0,0,0,0,0,0,-0.58,0,0,0,0,0,0,0,0,0">NEW GOVERNMENTAL FORMS  </tspan>
<tspan x="556.50" y="483.52" textLength="8.84">57</tspan>
<tspan x="354.00" y="500.64" textLength="109.46">A NEW REGIONAL ORDER? </tspan>
<tspan x="556.50" y="500.64" textLength="8.84">58</tspan>
<tspan x="354.00" y="517.76" textLength="159.62" dx="0,0,0,0,0,0,0,0,0,0,-0.78,0,0,0,-0.58,0,0,0,0,0,0,0,0,0,0,0,0,-0.58,0,0,0,0">GLOBAL MULTILATERAL COOPERATION </tspan>
<tspan x="556.50" y="517.76" textLength="8.84">58</tspan></text><text class="f1485 f781" font-size="10.00" style="fill:#231f20"><tspan x="340.50" y="542.26" textLength="102.58">THE POTENTIAL FOR </tspan>
<tspan x="340.50" y="553.26" textLength="111.49">INCREASED CONFLICT </tspan>
<tspan x="556.50" y="553.26" textLength="11.12">62</tspan></text><text class="f5785 f5766" font-size="8.50" style="fill:#444141"><tspan x="354.00" y="570.38" textLength="148.93" dx="0,0,0,0,0,0,0,-0.58,-0.58,0,0,0,0,0,0,0,0,0,0,-0.94,0,0,0,0,0,0,0,0,0,0,0">INTRASTATE CONFLICT: CONTINUED </tspan>
<tspan x="354.00" y="581.38" textLength="37.65">DECLINE </tspan>
<tspan x="556.50" y="581.38" textLength="8.84">62</tspan>
<tspan x="354.00" y="598.50" textLength="167.53" dx="0,0,0,0,0,0,0,-0.58,-0.58,0,0,0,0,0,0,0,0,0,0,-0.94,0,0,0,0,0,0,0,0,0,0,0,0,0,0,0,0">INTERSTATE CONFLICT: CHANCES RISING </tspan>
<tspan x="556.50" y="598.50" textLength="8.84">64</tspan></text><text class="f1485 f781" font-size="10.00" style="fill:#231f20"><tspan x="340.50" y="617.06" textLength="87.39">WIDER SCOPE OF </tspan>
<tspan x="340.50" y="628.06" textLength="113.92" dx="0,0,0,0,0,0,0,0,0,0,0,0,0,-0.92,0,0,0,0,0,0,0">REGIONAL INSTABILITY </tspan>
<tspan x="556.50" y="628.06" textLength="11.12">73</tspan></text><text class="f5785 f5766" font-size="8.50" style="fill:#444141"><tspan x="354.00" y="645.18" textLength="158.81" dx="0,0,0,0,0,0,0,0,0,0,0,0,0,0,0,-0.94,0,0,-0.58,0,0,0,0,0,0,0,0,0,0,0,0,0,0,0,0,0">THE MIDDLE EAST: AT A TIPPING POINT </tspan>
<tspan x="556.50" y="645.18" textLength="8.84">73</tspan>
<tspan x="354.00" y="662.30" textLength="165.21">SOUTH ASIA: SHOCKS ON THE HORIZON </tspan>
<tspan x="556.50" y="662.30" textLength="8.84">78</tspan>
<tspan x="354.00" y="679.42" textLength="171.06" dx="0,0,0,0,0,0,0,0,0,0,0,0,0,0,-0.78,0,0,0,0,0,0,0,0,0,-0.58,0,0,0,0,0,0,0,0,0,0,0,0,0">EAST ASIA: MULTIPLE STRATEGIC FUTURES </tspan>
<tspan x="556.50" y="679.42" textLength="8.84">79</tspan>
<tspan x="354.00" y="696.54" textLength="134.5">EUROPE: TRANSFORMING ITSELF </tspan>
<tspan x="556.50" y="696.54" textLength="8.84">81</tspan>
<tspan x="354.00" y="713.66" textLength="134.94">SUB-SAHARAN AFRICA: TURNING </tspan>
<tspan x="354.00" y="724.66" textLength="81.32">A CORNER BY 2030? </tspan>
<tspan x="556.50" y="724.66" textLength="8.84">82</tspan></text><path d="M91.88 265.25 c9.32 0 16.88 7.56 16.88 16.88 c0 8.9 -6.9 16.19 -15.64 16.83 l-18.12 0.05 l0 -18.12 c0.69 -8.74 7.97 -15.64 16.88 -15.64 " style="fill:#007eb2;"/><path d="M99.1 274.65 l-15.64 0 c-0.27 0 -0.5 0.22 -0.5 0.5 l0 8.45 l1.41 -1.13 l-0.41 0 l0 -2.92 l2.92 0 l0 0.91 l0.99 -0.79 l1.33 -1.07 c0 0 0.3 0.42 0.69 0.95 l0.9 0 l0 1.24 c0.37 0.52 0.7 0.97 0.82 1.13 c0.06 -0.04 0.12 -0.09 0.18 -0.13 l0 -2.24 l2.92 0 c0.45 -0.3 0.91 -0.65 1.37 -0.99 l-0.38 0 l0 -2.92 l2.92 0 l0 1 c0.35 -0.27 0.69 -0.52 0.99 -0.75 l0 -0.75 c0 -0.27 -0.22 -0.5 -0.5 -0.5 M86.87 278.56 l-2.92 0 l0 -2.92 l2.92 0 l0 2.92 z M90.78 278.56 l-2.92 0 l0 -2.92 l2.92 0 l0 2.92 z M94.69 278.56 l-2.92 0 l0 -2.92 l2.92 0 l0 2.92 z M98.6 283.46 l0 2.92 l-2.92 0 l0 -0.91 l-0.99 0.75 l-0.22 0.17 l-1.31 0.99 l1.53 0 l0 2.92 l-2.92 0 l0 -1.88 l-0.99 0.75 l0 1.13 l-2.92 0 l0 -2.92 l1.15 0 c-0.29 -0.4 -0.55 -0.77 -0.72 -0.99 l-0.35 0 c-0.39 0.31 -0.8 0.65 -1.24 0.99 l0.16 2.92 l-2.92 0 l0 -0.71 c-0.37 0.29 -0.7 0.56 -0.99 0.8 l0 0.41 c0 0.27 0.22 0.5 0.5 0.5 l15.64 0 c0.27 0 0.5 -0.22 0.5 -0.5 l0 -8.27 l-1.25 0.94 l0.26 0 z M98.6 290.29 l-2.92 0 l0 -2.92 l2.92 0 l0 2.92 z " style="fill:#ffffff;"/><path d="M91.25 284.26 c-0.66 -0.92 -2.38 -3.29 -2.38 -3.29 l-9.26 7.43 l1.24 1.55 c0 0 6.3 -5.06 7.63 -6.12 c0.67 0.93 2.34 3.24 2.34 3.24 l12.68 -9.56 l-1.19 -1.58 c0 0 -9.66 7.28 -11.06 8.34 " style="fill:#ffffff;"/><path d="M15 21 l-15 0 M639 21 l15 0 M15 813 l-15 0 M639 813 l15 0 M21 15 l0 -15 M21 819 l0 15 M633 15 l0 -15 M633 819 l0 15 " style="stroke:#ffffff;stroke-width:1.25;"/><path d="M15 21 l-15 0 M639 21 l15 0 M15 813 l-15 0 M639 813 l15 0 M21 15 l0 -15 M21 819 l0 15 M633 15 l0 -15 M633 819 l0 15 " style="stroke:#000000;stroke-width:0.25;"/>
</svg>
