<svg class="crocodoc-2jt6Qd crocodoc-page-svg" version="1.1"
    xmlns="http://www.w3.org/2000/svg"
    xmlns:xlink="http://www.w3.org/1999/xlink"
    xmlns:xhtml="http://www.w3.org/1999/xhtml"
    xml:space="preserve" width="654.0pt" height="834.0pt" viewBox="0 0 654.0 834.0">
<xhtml:link href="stylesheet.css" type="text/css" rel="stylesheet" />
<style>
.crocodoc-2jt6Qd tspan { white-space:pre; }
.crocodoc-2jt6Qd path { fill:transparent; }

</style>
<defs>

</defs>
<path d="M66 750 l522 0 l0 -684 l-522 0 l0 684 z " style="fill:#f2f5e3;"/><text class="f1539 f823" font-size="11.00" style="fill:#2e2a2b"><tspan x="124.50" y="132.75" textLength="387.51" dx="0,0.22,0.22,0.22,0.22,0.22,0.22,0.22,0.22,0.22,0.22,0.22,0.22,0.22,0.22,0.22,0.22,0.22,0.22,0.22,0.22,0.22,0.22,0.22,0.22,0.22,0.22,0.22,0.22,0.22,0.22,0.22,0.22,0.22,0.22,0.22,0.22,0.22,0.22,0.22,0.22,0.22,0.22,0.22,0.22,0.22,0.22,0.22,0.22,0.22,0.22,0.22,0.22,0.22,0.22,0.22,0.22,0.22,0.22,0.22,0.22,0.22,0.22,0.22,0.22,0.22,0.22,0.22,0.22,0.22,0">The substantial number of game-changers and complex interactions among </tspan>
<tspan x="124.50" y="151.25" textLength="232.87" dx="0,0.22,0.22,0.22,0.22,0.22,0.22,0.22,0.22,0.22,0.22,0.22,0.22,0.22,0.22,0.22,0.22,0.22,0.22,0.22,0.22,0.22,0.22,0.22,0.22,0.22,0.22,0.22,0.22,0.22,0.22,0.22,0.22,0.22,0.22,0.22,0.22,0.22,0.22,0.22,0.22,0.22,0.22,0.22,0.22,0.22">them suggest an endless variety of scenarios. </tspan>
<tspan x="357.59" y="151.25" textLength="132.91" class="f1530 f809" style="fill:#7a9014" dx="0,0.02,0.22,0.22,0.22,0.22,0.22,0.22,0.22,0.22,0.22,0.22,0.22,0.22,0.22,0.22,0.22,0.22,0.02,0.22,0.22,0.22,0">We have sought here to </tspan>
<tspan x="124.50" y="169.75" textLength="380.58" class="f1530 f809" style="fill:#7a9014" dx="0,0.22,0.22,0.22,0.22,0.22,0.22,0.22,0.22,0.22,0.22,0.22,0.22,0.22,0.22,0.22,0.22,0.02,0.22,0.22,0.22,0.22,0.22,0.22,0.22,0.22,0.22,0.22,0.22,0.22,0.22,0.02,0.22,0.22,0.22,0.22,0.22,0.22,0.22,0.22,0.02,0.22,0.22,0.02,0.22,0.22,0.22,0.22,0.22,0.22,0.22,0.22,0.22,0.22,0.22,0.22,0.22,0.22,0.22,0.22,0.22,0.22,0.22,0.22,0.22,0.22,0.22,0.22,0.22,0.22,0">delineate four archetypal futures that represent distinct pathways for </tspan>
<tspan x="124.50" y="188.26" textLength="183.55" class="f1530 f809" style="fill:#7a9014" dx="0,0.22,0.22,0.22,0.22,0.02,0.22,0.22,0.22,0.22,0.22,0.22,0.22,0.22,0.22,0.22,0.22,0.22,0.22,0.22,0.22,0.22,0.22,0.22,0.22,0.22,0.22,0.22,0.22,0.22,0.22,0.22">future developments out to 2030.</tspan>
<tspan x="308.27" y="188.26" textLength="2.86"> </tspan>
<tspan x="311.35" y="188.26" textLength="185.14" class="f1530 f809" style="fill:#7a9014" dx="0,0.22,0.22,0.22,0.02,0.22,0.22,0.22,0.22,0.22,-0.79,0.22,0.22,0.22,0.22,0.22,0.22,0.22,0.22,0.22,0.22,0.02,0.22,0.22,0.22,0.02,0.22,0.22,0.22,0.22,0.22,0.22,0.22,0.22,0.22,0.22,0">In reality, the future probably will </tspan>
<tspan x="124.50" y="206.76" textLength="275.97" class="f1530 f809" style="fill:#7a9014" dx="0,0.22,0.22,0.22,0.22,0.22,0.22,0.22,0.22,0.22,0.22,0.22,0.22,0.22,0.22,0.22,0.22,0.22,0.22,0.22,0.22,0.22,0.02,0.22,0.22,0.22,0.22,0.22,0.22,0.22,0.22,0.22,0.22,0.22,0.22,0.22,0.22,0.22,0.42,0.22,0.22,0.22,0.22,0.22,0.22,0.22,0.22,0.22,0.22,0.22,0.22,0.22">consist of elements from all the alternative worlds.</tspan>
<tspan x="124.50" y="234.26" textLength="397.06" dx="0,0.22,0.22,0.22,0.22,0.22,0.22,0.22,0.22,0.22,0.22,0.22,0.22,0.22,0.22,0.22,0.22,0.22,0.22,0.22,0.22,0.22,0.22,0.22,0.22,0.22,0.22,0.22,0.22,0.22,0.22,0.22,0.22,0.22,0.22,0.22,0.22,0.22,0.22,0.22,0.22,0.22,0.22,0.22,0.22,0.22,0.22,0.22,0.22,0.02,0.22,0.22,0.22,0.22,0.22,0.02,0.22,0.22,0.22,0.22,0.22,0.22,0.22,0.22,0.22,0.22,0.22,0.22,0.22,0.22,0.22,0.22,0.22,0.22,0.22,0">The graphic on the top of that page shows US share of real global GDP under </tspan>
<tspan x="124.50" y="252.76" textLength="383.18" dx="0,0.22,0.22,0.22,0.22,0.22,0.22,0.22,0.22,0.22,0.22,0.22,0.22,0.22,0.22,0.22,0.22,0.22,0.22,0.22,0.22,0.22,0.22,0.22,0.22,0.22,0.22,0.22,0.22,0.22,0.22,0.22,0.22,0.22,0.22,0.22,0.22,0.22,0.22,0.22,0.22,0.22,0.22,0.22,0.22,0.22,0.22,0.22,0.22,0.22,0.22,0.22,0.22,0.22,0.22,0.22,0.22,0.22,0.22,0.22,0.22,0.22,0.22,0.22,0.22,0.22,0.22,0.22,0.22,0.22,0.22,0.22,0.22,0.22,0.22,0.22,0.22,0">the four scenarios. The graphic on the bottom of the page at left illustrates </tspan>
<tspan x="124.50" y="271.26" textLength="406.03" dx="0,0.22,0.22,0.22,0.22,0.22,0.42,0.22,0.22,0.22,0.22,0.22,0.22,0.22,0.22,0.22,0.22,0.22,0.22,0.22,0.22,0.22,0.22,0.22,0.22,0.22,0.22,0.22,0.22,0.22,0.22,0.22,0.22,0.22,0.22,0.22,0.22,0.22,0.22,0.22,0.22,0.22,0.22,0.22,0.22,0.22,0.22,0.22,0.22,0.22,0.02,0.22,0.22,0.22,0.22,0.02,0.22,0.22,0.22,0.22,0.22,0.22,0.22,0.22,0.22,0.22,0.22,0.22,0.22,0.02,0.22,0.22,0.22,0.22,0.22,0.22,0.22,0.22,0.22,0.22,0">patterns in the shift in global economic clout across regions (measured in terms </tspan>
<tspan x="124.50" y="289.76" textLength="404.77" dx="0,0.22,0.22,0.22,0.02,0.22,0.22,0.22,0.22,0.22,0.22,0.22,0.22,0.22,0.22,0.22,0.22,0.22,0.22,0.22,0.22,0.22,0.22,0.22,0.22,0.22,0.22,0.02,0.22,0.22,0.22,0.22,0.22,0.22,0.22,0.22,0.22,0.22,0.22,0.22,0.22,0.22,0.22,0.22,0.22,0.22,0.22,0.22,0.22,0.22,0.22,0.22,0.22,0.22,0.22,0.22,0.22,0.22,0.22,0.22,0.22,0.22,0.22,0.22,0.22,0.22,0.22,0.22,0.22,0.22,0.22,0.22,0.22,0.22,0.22,0.22,0.22,0.22,0.22,0.22,0.22,0">of regions&#8217;/countries&#8217; share of global GDP) in 2010 and in our four scenarios for </tspan>
<tspan x="124.50" y="308.27" textLength="145.05" dx="0,0.22,0.22,0.22,0.22,0.22,0.22,0.22,0.22,0.22,0.22,0.22,0.22,0.22,0.22,0.22,0.22,0.22,0.22,0.22,0.22,0.22,0.22,0.22,0.22,0.22,0.22,0.02,0.22">2030. The four scenarios are:</tspan>
<tspan x="124.50" y="335.77" textLength="82.14" class="f1479 f777" dx="0,0.22,0.22,0.22,0.22,0.22,0.22,0.22,0.22,0.22,0.22,0.22,0.22,0.22,0.22">Stalled Engines</tspan>
<tspan x="206.86" y="335.77" textLength="286.0" dx="0,0.22,0.22,0.22,0.22,0.22,0.22,0.22,0.22,0.22,0.22,0.22,0.22,0.22,0.22,0.22,0.22,0.22,0.22,0.22,0.22,0.22,0.22,0.22,0.22,0.22,0.22,0.22,0.22,0.22,0.22,0.22,0.22,0.22,0.22,0.02,0.22,0.22,0.22,0.22,0.22,0.22,0.42,0.22,0.22,0.22,0.22,0.22,0.22,0.02,0.22,0.22,0.22,0.22,0">&#8211;a scenario in which the US and Europe turn inward and </tspan>
<tspan x="124.50" y="354.27" textLength="97.1" dx="0,0.22,0.22,0.22,0.22,0.22,0.22,0.22,0.22,0.22,0.22,0.22,0.22,0.22,0.22,0.22,0.22,0.22,0.22,0.22,0.22">globalization stalls.</tspan>
<tspan x="124.50" y="381.77" textLength="34.5" class="f1479 f777" dx="0,0.22,0.22,0.22,0.22,0.22">Fusion</tspan>
<tspan x="159.22" y="381.77" textLength="350.79" dx="0,0.22,0.22,0.22,0.22,0.22,0.22,0.22,0.22,0.22,0.22,0.22,0.22,0.22,0.22,0.22,0.22,0.22,0.22,0.22,0.22,0.22,0.22,0.22,0.22,0.22,0.22,0.22,0.22,0.22,0.22,0.22,0.22,0.22,0.22,0.22,0.22,0.22,0.22,0.22,0.22,0.22,0.22,0.22,0.22,0.22,0.22,0.22,0.22,0.22,0.22,0.22,0.22,0.22,0.22,0.22,0.22,0.22,0.22,0.22,0.22,0.22,0.22,0.22,0.22,0.22,0">&#8211;a world in which the US and China cooperate, leading to worldwide </tspan>
<tspan x="124.50" y="400.27" textLength="173.77" dx="0,0.22,0.22,0.22,0.22,0.22,0.22,0.22,0.22,0.22,0.22,0.22,0.22,0.22,0.22,0.22,0.22,0.22,0.22,0.22,0.22,0.22,0.22,0.22,0.22,0.22,0.22,0.22,0.22,0.22,0.22,0.22,0.22">cooperation on global challenges.</tspan>
<tspan x="124.50" y="427.77" textLength="117.89" class="f1479 f777" dx="0,0.22,0.22,0.22,0.22,0.22,0.22,0.22,0.22,0.22,0.22,0.22,0.22,0.22,0.22,0.22,0.22,0.22,0.22,0.22,0.22,0.22">Gini-Out-of-the-Bottle</tspan>
<tspan x="242.61" y="427.77" textLength="256.32" dx="0,0.22,0.22,0.22,0.22,0.22,0.22,0.22,0.22,0.22,0.22,0.22,0.22,0.22,0.22,0.22,0.22,0.22,0.22,0.22,0.22,0.22,0.22,0.22,0.22,0.22,0.22,0.22,0.22,0.22,0.22,0.22,0.22,0.22,0.22,0.22,0.22,0.22,0.22,0.22,0.22,0.22,0.22,0.22,0.22,0.22,0.22,0.22,0.22">&#8211;a world in which economic inequalities dominate.</tspan>
<tspan x="124.50" y="455.27" textLength="84.93" class="f1479 f777" dx="0,0.22,0.22,0.22,0.22,0.22,0.22,0.22,0.22,0.22,0.02,0.22,0.22,0.22">Nonstate World</tspan>
<tspan x="209.65" y="455.27" textLength="306.48" dx="0,0.22,0.22,0.22,0.22,0.22,0.22,0.22,0.22,0.22,0.22,0.22,0.22,0.22,0.22,0.22,0.22,0.22,0.22,0.22,0.22,0.22,0.22,0.22,0.22,0.22,0.22,0.22,0.22,0.22,0.22,0.22,0.22,0.22,0.22,0.22,0.22,0.22,0.22,0.22,0.22,0.22,0.22,0.22,0.22,0.22,0.22,0.22,0.22,0.22,0.22,0.22,0.22,0.22,0.22,0.22,0.22,0.22,0.22,0.22,0.22,0">&#8211;a scenario in which nonstate actors take the lead in solving </tspan>
<tspan x="124.50" y="473.77" textLength="92.58" dx="0,0.22,0.22,0.22,0.22,0.22,0.22,0.22,0.22,0.22,0.22,0.22,0.22,0.22,0.22,0.22,0.22,0.22">global challenges.</tspan></text>
<g style="blend-mode:multiply;" ><path d="M122.06 651.47 l22.57 -22.57 l22.56 22.57 l15.06 -15.02 l-22.57 -22.6 l22.57 -22.57 l-15.06 -15.06 l-22.56 22.61 l-22.57 -22.61 l-15.06 15.06 l22.57 22.57 l-22.57 22.6 l15.06 15.02 z M332.75 624.72 l-15.06 -15.05 l-22.56 22.6 l-22.57 -22.6 l-15.05 15.05 l22.56 22.57 l-22.56 22.6 l15.05 15.02 l22.57 -22.57 l22.56 22.57 l15.06 -15.02 l-22.56 -22.6 l22.56 -22.57 z M248 538.59 l-32.3 37.62 l24.66 0 c-4.34 65.26 -58.66 117.06 -124.99 117.06 l0 16.72 c75.56 0 137.36 -59.3 141.71 -133.78 l23.25 0 l-32.32 -37.62 z M173.89 567.87 c23.09 0 41.8 -18.72 41.8 -41.81 c0 -23.09 -18.72 -41.8 -41.8 -41.8 c-23.09 0 -41.81 18.71 -41.81 41.8 c0 23.1 18.72 41.81 41.81 41.81 M173.89 505.15 c11.53 0 20.9 9.38 20.9 20.9 c0 11.53 -9.37 20.9 -20.9 20.9 c-11.53 0 -20.91 -9.37 -20.91 -20.9 c0 -11.53 9.38 -20.9 20.91 -20.9 " style="fill:#eff2dd;fill-opacity:0.60;"/></g><path d="M15 21 l-15 0 M639 21 l15 0 M15 813 l-15 0 M639 813 l15 0 M21 15 l0 -15 M21 819 l0 15 M633 15 l0 -15 M633 819 l0 15 " style="stroke:#ffffff;stroke-width:1.25;"/><path d="M15 21 l-15 0 M639 21 l15 0 M15 813 l-15 0 M639 813 l15 0 M21 15 l0 -15 M21 819 l0 15 M633 15 l0 -15 M633 819 l0 15 " style="stroke:#000000;stroke-width:0.25;"/>
</svg>
