<svg class="crocodoc-2jt6Qd crocodoc-page-svg" version="1.1"
    xmlns="http://www.w3.org/2000/svg"
    xmlns:xlink="http://www.w3.org/1999/xlink"
    xmlns:xhtml="http://www.w3.org/1999/xhtml"
    xml:space="preserve" width="654.0pt" height="834.0pt" viewBox="0 0 654.0 834.0">
<xhtml:link href="stylesheet.css" type="text/css" rel="stylesheet" />
<style>
.crocodoc-2jt6Qd tspan { white-space:pre; }
.crocodoc-2jt6Qd path { fill:transparent; }

</style>
<defs>

</defs>

<g style="blend-mode:screen;" ><path d="M247.84 246.65 c0 26.87 21.78 48.65 48.65 48.65 c26.87 0 48.65 -21.78 48.65 -48.65 c0 -26.87 -21.78 -48.65 -48.65 -48.65 c-26.87 0 -48.65 21.78 -48.65 48.65 " style="fill:#007eb2;"/></g>
<g style="blend-mode:screen;" ><path d="M310.53 246.65 c0 26.87 21.78 48.65 48.65 48.65 c26.87 0 48.65 -21.78 48.65 -48.65 c0 -26.87 -21.78 -48.65 -48.65 -48.65 c-26.87 0 -48.65 21.78 -48.65 48.65 " style="fill:#e6910d;"/></g><path d="M327.8 283.83 c10.58 -8.93 17.31 -22.28 17.31 -37.21 c0 -14.93 -6.72 -28.28 -17.31 -37.21 c-10.58 8.93 -17.31 22.28 -17.31 37.21 c0 14.93 6.72 28.28 17.31 37.21 " style="fill:#758b0d;"/>
<g style="blend-mode:soft-light;" ><path d="M365.38 202.26 c-2.39 -1.84 -4.82 -3.12 -7.25 -3.81 c-2.45 0.43 -4.47 1.2 -5.94 2.23 c1.38 0 2.76 0.05 4.12 0.15 c3 0.22 6.04 0.71 9.07 1.44 M369.73 202.7 c0.54 -1.08 1.05 -2.01 1.5 -2.75 c0.16 -0.26 0.31 -0.5 0.46 -0.72 c-1.79 -0.44 -3.62 -0.78 -5.46 -1.02 c-0.26 -0.03 -0.54 -0.05 -0.81 -0.07 c-0.37 -0.03 -0.74 -0.05 -1.11 -0.06 c1.85 1.19 3.67 2.73 5.42 4.62 M365.95 217.86 c2.3 0.61 4.62 1 6.9 1.17 c1.44 0.11 2.88 0.12 4.27 0.04 c-1.99 -4.63 -4.28 -8.64 -6.82 -11.96 c-1.32 2.95 -2.78 6.56 -4.35 10.75 M364.19 204.63 c-2.21 -0.43 -4.43 -0.73 -6.63 -0.9 c-2.59 -0.19 -5.19 -0.2 -7.75 -0.02 c-0.51 1.67 -0.04 3.56 1.38 5.51 c4.29 -2.06 8.65 -3.6 13 -4.59 M347.15 211.33 c-1.67 -2.38 -2.34 -4.8 -1.96 -7.07 c-7.51 1.23 -14.41 4.14 -20 8.44 c-1.84 4.18 -0.81 9.13 2.91 14.02 c5.43 -6.11 11.99 -11.41 19.05 -15.38 M348.5 199.03 c-3.76 0.85 -7.38 2.12 -10.82 3.8 c2.85 -0.88 5.83 -1.49 8.9 -1.83 c0.52 -0.72 1.16 -1.37 1.92 -1.97 M331.09 230.06 c5.07 4.96 12.61 9.35 21.33 12.41 c2.66 -7.75 5.54 -15.27 8.35 -21.81 c-4.51 -1.66 -8.48 -3.99 -11.25 -6.61 c-6.84 4.19 -13.2 9.71 -18.44 16.01 M379.77 203.15 c0.73 0.05 1.45 0.13 2.16 0.23 c-1.64 -1.03 -3.52 -1.97 -5.53 -2.75 c-0.39 -0.14 -0.8 -0.27 -1.2 -0.41 c-0.71 0.5 -1.69 1.6 -2.73 3.07 c2.52 -0.27 4.97 -0.32 7.3 -0.15 M367.81 280.66 c-6.46 -0.48 -13 -1.66 -19.47 -3.5 c-1.15 5.19 -1.96 9.53 -2.4 12.9 c-0.03 0.19 -0.05 0.38 -0.07 0.56 c-0.11 0.93 -0.18 1.64 -0.23 2.27 c-0.02 0.2 -0.03 0.38 -0.04 0.56 c3.42 1.01 6.97 1.66 10.55 1.92 c6.03 0.45 12 -0.16 17.76 -1.83 c0.07 -0.07 0.14 -0.14 0.2 -0.22 c0.17 -0.18 0.33 -0.35 0.49 -0.54 l0.16 -0.19 c2.58 -2.99 4.71 -7.02 6.34 -12.01 c-4.25 0.38 -8.71 0.41 -13.3 0.06 M350 270.07 c6.36 1.82 12.8 2.98 19.15 3.46 c4.8 0.36 9.45 0.31 13.83 -0.15 c0.61 -3.06 1.05 -6.29 1.29 -9.6 c0.28 -3.68 0.32 -7.52 0.15 -11.42 c-3.8 0.37 -7.81 0.39 -11.93 0.09 c-5.61 -0.42 -11.3 -1.44 -16.91 -3.03 c-2.12 7.25 -4 14.19 -5.58 20.66 M372.93 246.79 c3.83 0.29 7.55 0.26 11.08 -0.08 c-0.83 -8.21 -2.63 -16.29 -5.22 -23.44 c-1.91 0.17 -3.91 0.17 -5.96 0.02 c-2.76 -0.21 -5.56 -0.69 -8.34 -1.45 c-2.39 6.65 -4.9 14.29 -7.29 22.14 c5.23 1.48 10.52 2.42 15.73 2.81 M362.49 216.78 c1.81 -3.97 3.53 -7.41 5.14 -10.25 c-4.67 1.04 -9.39 2.79 -14.07 5.23 c2.29 1.99 5.36 3.71 8.93 5.02 M316.9 261.93 c-0.29 3.85 0.02 7.47 0.93 10.78 c0.91 1.41 1.9 2.79 2.94 4.09 c0.75 0.94 1.56 1.88 2.41 2.79 c4.88 5.25 10.95 9.45 17.59 12.17 c0 -0.67 0.03 -1.41 0.07 -2.19 l0.04 -0.58 l0.03 -0.32 c0.28 -3.52 1 -7.95 2.12 -13.19 c-10.46 -3.62 -19.64 -8.85 -26.01 -14.79 c-0.05 0.42 -0.08 0.83 -0.11 1.23 M327.65 234.52 c-4.25 5.99 -7.32 12.21 -9.11 18.51 c6.12 6.16 15.38 11.6 26.15 15.36 c1.62 -6.5 3.62 -13.4 5.94 -20.55 c-9.32 -3.26 -17.44 -7.97 -22.98 -13.32 M312.76 262.3 c0 -0.88 0.04 -1.77 0.11 -2.66 c0.07 -0.97 0.19 -1.97 0.34 -2.98 c-1.02 -1.24 -1.91 -2.5 -2.67 -3.76 c0.42 3.2 1.17 6.35 2.23 9.41 M319.71 217.83 c-0.27 0.31 -0.54 0.63 -0.8 0.95 c-4.19 5.93 -6.93 12.6 -8.13 19.78 c0.22 3.37 1.64 6.86 4.24 10.39 c1.98 -6.15 5.17 -12.16 9.49 -17.86 c-3.53 -4.44 -5.17 -8.99 -4.8 -13.26 M381.66 290.59 c7.3 -3.51 13.58 -8.69 18.36 -15.15 c-3.7 2.03 -8.19 3.52 -13.38 4.44 c-1.3 4.13 -2.97 7.73 -4.98 10.72 M388.79 246.05 c7.44 -1.42 13.03 -4.4 15.81 -8.41 c-2.99 -7.11 -7.75 -13.75 -13.79 -19.25 c-1.77 2.02 -4.59 3.5 -8.23 4.31 c2.97 7.15 5.11 15.19 6.21 23.35 M392.44 215.59 c5.91 4.99 10.72 11.05 13.99 17.6 c0.17 -1 0.19 -2.03 0.07 -3.08 c-2.69 -7.31 -7.19 -13.97 -13.02 -19.28 c-0.42 -0.29 -0.86 -0.57 -1.32 -0.84 c0.76 1.93 0.85 3.83 0.27 5.59 M376.14 205.73 c4.44 1.81 8.63 4.13 12.49 6.9 c0.17 -1.6 -0.48 -3.36 -1.91 -5.14 c-2.6 -0.88 -5.4 -1.44 -8.35 -1.66 c-0.73 -0.05 -1.48 -0.09 -2.24 -0.1 M387.3 215.43 c-4.08 -3.17 -8.54 -5.79 -13.29 -7.8 c2.47 3.17 4.73 6.86 6.73 10.98 c2.92 -0.6 5.21 -1.72 6.55 -3.18 M406.56 243.22 c-3.51 4.05 -9.55 7.03 -17.18 8.44 c0.33 4.48 0.35 8.89 0.03 13.11 c-0.2 2.67 -0.53 5.29 -0.99 7.8 c8.28 -1.62 14.52 -4.76 18.07 -9.13 c0.59 -1.6 1.1 -3.27 1.53 -4.96 c0.03 -0.28 0.05 -0.51 0.07 -0.73 c0.36 -4.78 -0.16 -9.66 -1.53 -14.53 " style="fill:#ffffff;fill-opacity:0.40;"/></g><path d="M327.62 283.83 c10.58 -8.93 17.31 -22.28 17.31 -37.21 c0 -14.93 -6.72 -28.28 -17.31 -37.21 c-10.58 8.93 -17.31 22.28 -17.31 37.21 c0 14.93 6.72 28.28 17.31 37.21 " style="fill:#758b0d;"/>
<g style="blend-mode:soft-light;" ><path d="M289.82 202.26 c2.39 -1.84 4.82 -3.12 7.25 -3.81 c2.45 0.43 4.47 1.2 5.94 2.23 c-1.38 0 -2.76 0.05 -4.12 0.15 c-3 0.22 -6.04 0.71 -9.07 1.44 M285.46 202.7 c-0.54 -1.08 -1.05 -2.01 -1.5 -2.75 c-0.16 -0.26 -0.31 -0.5 -0.46 -0.72 c1.79 -0.44 3.62 -0.78 5.46 -1.02 c0.26 -0.03 0.54 -0.05 0.81 -0.07 c0.37 -0.03 0.74 -0.05 1.11 -0.06 c-1.85 1.19 -3.67 2.73 -5.42 4.62 M289.24 217.86 c-2.3 0.61 -4.62 1 -6.9 1.17 c-1.44 0.11 -2.88 0.12 -4.27 0.04 c1.99 -4.63 4.28 -8.64 6.82 -11.96 c1.32 2.95 2.78 6.56 4.35 10.75 M291 204.63 c2.21 -0.43 4.43 -0.73 6.63 -0.9 c2.59 -0.19 5.19 -0.2 7.75 -0.02 c0.51 1.67 0.04 3.56 -1.38 5.51 c-4.29 -2.06 -8.65 -3.6 -13 -4.59 M308.05 211.33 c1.67 -2.38 2.34 -4.8 1.96 -7.07 c7.51 1.23 14.41 4.14 20 8.44 c1.84 4.18 0.81 9.13 -2.91 14.02 c-5.43 -6.11 -11.99 -11.41 -19.05 -15.38 M306.7 199.03 c3.76 0.85 7.38 2.12 10.82 3.8 c-2.85 -0.88 -5.83 -1.49 -8.9 -1.83 c-0.52 -0.72 -1.16 -1.37 -1.92 -1.97 M324.11 230.06 c-5.07 4.96 -12.61 9.35 -21.33 12.41 c-2.66 -7.75 -5.54 -15.27 -8.35 -21.81 c4.51 -1.66 8.48 -3.99 11.25 -6.61 c6.84 4.19 13.2 9.71 18.44 16.01 M275.42 203.15 c-0.73 0.05 -1.45 0.13 -2.16 0.23 c1.64 -1.03 3.52 -1.97 5.53 -2.75 c0.39 -0.14 0.8 -0.27 1.2 -0.41 c0.71 0.5 1.69 1.6 2.73 3.07 c-2.52 -0.27 -4.97 -0.32 -7.3 -0.15 M287.38 280.66 c6.46 -0.48 13 -1.66 19.47 -3.5 c1.15 5.19 1.96 9.53 2.4 12.9 c0.03 0.19 0.05 0.38 0.07 0.56 c0.11 0.93 0.18 1.64 0.23 2.27 c0.02 0.2 0.03 0.38 0.04 0.56 c-3.42 1.01 -6.97 1.66 -10.55 1.92 c-6.03 0.45 -12 -0.16 -17.76 -1.83 c-0.07 -0.07 -0.14 -0.14 -0.2 -0.22 c-0.17 -0.18 -0.33 -0.35 -0.49 -0.54 l-0.16 -0.19 c-2.58 -2.99 -4.71 -7.02 -6.34 -12.01 c4.25 0.38 8.71 0.41 13.3 0.06 M305.19 270.07 c-6.36 1.82 -12.8 2.98 -19.15 3.46 c-4.8 0.36 -9.45 0.31 -13.83 -0.15 c-0.61 -3.06 -1.05 -6.29 -1.29 -9.6 c-0.28 -3.68 -0.32 -7.52 -0.15 -11.42 c3.8 0.37 7.81 0.39 11.93 0.09 c5.61 -0.42 11.3 -1.44 16.91 -3.03 c2.12 7.25 4 14.19 5.58 20.66 M282.26 246.79 c-3.83 0.29 -7.55 0.26 -11.08 -0.08 c0.83 -8.21 2.63 -16.29 5.22 -23.44 c1.91 0.17 3.91 0.17 5.96 0.02 c2.76 -0.21 5.56 -0.69 8.34 -1.45 c2.39 6.65 4.9 14.29 7.29 22.14 c-5.23 1.48 -10.52 2.42 -15.73 2.81 M292.7 216.78 c-1.81 -3.97 -3.53 -7.41 -5.14 -10.25 c4.67 1.04 9.39 2.79 14.07 5.23 c-2.29 1.99 -5.36 3.71 -8.93 5.02 M338.29 261.93 c0.29 3.85 -0.02 7.47 -0.93 10.78 c-0.91 1.41 -1.9 2.79 -2.94 4.09 c-0.75 0.94 -1.56 1.88 -2.41 2.79 c-4.88 5.25 -10.95 9.45 -17.59 12.17 c0 -0.67 -0.03 -1.41 -0.07 -2.19 l-0.04 -0.58 l-0.03 -0.32 c-0.29 -3.52 -1 -7.95 -2.12 -13.19 c10.46 -3.62 19.64 -8.85 26.01 -14.79 c0.05 0.42 0.08 0.83 0.11 1.23 M327.54 234.52 c4.25 5.99 7.32 12.21 9.11 18.51 c-6.12 6.16 -15.38 11.6 -26.15 15.36 c-1.62 -6.5 -3.62 -13.4 -5.94 -20.55 c9.32 -3.26 17.44 -7.97 22.98 -13.32 M342.44 262.3 c0 -0.88 -0.04 -1.77 -0.11 -2.66 c-0.07 -0.97 -0.19 -1.97 -0.34 -2.98 c1.02 -1.24 1.91 -2.5 2.67 -3.76 c-0.42 3.2 -1.17 6.35 -2.23 9.41 M335.48 217.83 c0.27 0.31 0.54 0.63 0.8 0.95 c4.19 5.93 6.93 12.6 8.13 19.78 c-0.22 3.37 -1.64 6.86 -4.24 10.39 c-1.98 -6.15 -5.17 -12.16 -9.49 -17.86 c3.53 -4.44 5.17 -8.99 4.8 -13.26 M273.54 290.59 c-7.3 -3.51 -13.58 -8.69 -18.36 -15.15 c3.7 2.03 8.19 3.52 13.38 4.44 c1.29 4.13 2.97 7.73 4.98 10.72 M266.4 246.05 c-7.44 -1.42 -13.03 -4.4 -15.81 -8.41 c2.99 -7.11 7.75 -13.75 13.79 -19.25 c1.77 2.02 4.59 3.5 8.23 4.31 c-2.97 7.15 -5.11 15.19 -6.21 23.35 M262.76 215.59 c-5.91 4.99 -10.72 11.05 -13.99 17.6 c-0.16 -1 -0.19 -2.03 -0.07 -3.08 c2.69 -7.31 7.19 -13.97 13.02 -19.28 c0.42 -0.29 0.86 -0.57 1.32 -0.84 c-0.76 1.93 -0.85 3.83 -0.27 5.59 M279.05 205.73 c-4.44 1.81 -8.63 4.13 -12.49 6.9 c-0.17 -1.6 0.48 -3.36 1.91 -5.14 c2.6 -0.88 5.4 -1.44 8.35 -1.66 c0.73 -0.05 1.48 -0.09 2.24 -0.1 M267.89 215.43 c4.08 -3.17 8.54 -5.79 13.29 -7.8 c-2.47 3.17 -4.73 6.86 -6.73 10.98 c-2.92 -0.6 -5.21 -1.72 -6.55 -3.18 M248.63 243.22 c3.51 4.05 9.55 7.03 17.18 8.44 c-0.33 4.48 -0.35 8.89 -0.03 13.11 c0.2 2.67 0.53 5.29 0.99 7.8 c-8.28 -1.62 -14.52 -4.76 -18.07 -9.13 c-0.59 -1.6 -1.1 -3.27 -1.53 -4.96 c-0.03 -0.28 -0.05 -0.51 -0.07 -0.73 c-0.36 -4.78 0.16 -9.66 1.53 -14.53 " style="fill:#ffffff;fill-opacity:0.40;"/></g><text class="f1489 f786" font-size="12.00" style="fill:#5a5758"><tspan x="183.82" y="335.42" textLength="289.54" dx="0,0,0,0,0,0,0,0,0,0,0,0,0,0,0,0,0,-0.1,0,0,0,0,-0.11,0,0,0,-0.11,0,0,0,0,0,0,0,0,0,0,0,0,0,0,0,0,0,0,0,0,0,0,0,0,0,0,0,0">This assessment was prepared under the auspices of the </tspan>
<tspan x="223.62" y="353.42" textLength="208.21" dx="0,0,0,0,0,0,0,0,0,-0.96,-1.44,0,0,0,0,0,0,0,0,0,0,0,0,0,0,0,0,0,-0.28,0,0,0,0,0,0,0,0,0,0,0,0">Counselor, National Intelligence Council.</tspan>
<tspan x="159.96" y="375.92" textLength="337.28" dx="0,0,0,0,0,0,0,0,0,0,0,0.1,0,0,0,0,0,0,0,0,0,0,0,0,0,0,0,0,0,0,0,-0.11,0,0,0,0,0,0,0,0,-0.28,0,0,0,0,0,0,0,0,0,0,0,0,0,0,0,0,0,0,0,-0.11,0,0,0,0,0">Questions about this paper or requests for copies can be directed </tspan>
<tspan x="184.17" y="393.92" textLength="285.66" dx="0,0,0,0,0,0,0,0,0,0,0,0,0,0,0,0,-0.96,-1.44,0,0,-0.96,-1.44,0,0,0,0,0,-0.12,0,0,0,0,0.19,-0.07,-0.07,0,0,0,0,0,0,0,0,0,0,0,0,0,0,0,0,0,0">to the Counselor, Dr. Mathew Burrows on 703-482-0741.</tspan>
<tspan x="163.72" y="434.12" textLength="326.56" class="f1479 f777" font-size="11.00" style="fill:#758b0d" dx="0,0,0,0,0,0,0,0,0,0,0,0,0,0,0,0,0,0,0,0,0,0,0,0,0,0,0,0,0,0,0,0,0,0,0,0,-0.81,0,0,0,0,0,0,0,0,0,0,0,0,0,0,0,0,0,0,0,0,-0.2,0,0,0">This publication can be found on www.dni.gov/nic/globaltrends</tspan></text><path d="M15 21 l-15 0 M639 21 l15 0 M15 813 l-15 0 M639 813 l15 0 M21 15 l0 -15 M21 819 l0 15 M633 15 l0 -15 M633 819 l0 15 " style="stroke:#ffffff;stroke-width:1.25;"/><path d="M15 21 l-15 0 M639 21 l15 0 M15 813 l-15 0 M639 813 l15 0 M21 15 l0 -15 M21 819 l0 15 M633 15 l0 -15 M633 819 l0 15 " style="stroke:#000000;stroke-width:0.25;"/>
</svg>
