<svg class="crocodoc-2jt6Qd crocodoc-page-svg" version="1.1"
    xmlns="http://www.w3.org/2000/svg"
    xmlns:xlink="http://www.w3.org/1999/xlink"
    xmlns:xhtml="http://www.w3.org/1999/xhtml"
    xml:space="preserve" width="654.0pt" height="834.0pt" viewBox="0 0 654.0 834.0">
<xhtml:link href="stylesheet.css" type="text/css" rel="stylesheet" />
<style>
.crocodoc-2jt6Qd tspan { white-space:pre; }
.crocodoc-2jt6Qd path { fill:transparent; }

</style>
<defs>
<mask id="Mask_15_102_2jt6Qd">
<g ><path d="M3 831 l648 0 l0 -828 l-648 0 l0 828 " style="fill:url(#Grad_16_102_2jt6Qd);"/></g></mask>
<linearGradient id="Grad_16_102_2jt6Qd" x1="44.82%" y1="92.27%" x2="90.53%" y2="92.27%"><stop offset="0.00" style="stop-color:#ffffff" /><stop offset="0.25" style="stop-color:#eeeeee" /><stop offset="0.50" style="stop-color:#bdbdbd" /><stop offset="0.75" style="stop-color:#6d6d6d" /><stop offset="1.00" style="stop-color:#000000" /></linearGradient>
</defs>

<g style="opacity:0.40;" ><path d="M71.97 751.59 c0.77 -0.59 1.54 -1 2.32 -1.22 c0.78 0.14 1.43 0.38 1.9 0.71 c-0.44 0 -0.88 0.01 -1.32 0.05 c-0.96 0.07 -1.93 0.23 -2.9 0.46 M70.58 751.73 c-0.17 -0.35 -0.34 -0.64 -0.48 -0.88 c-0.05 -0.08 -0.1 -0.16 -0.15 -0.23 c0.57 -0.14 1.16 -0.25 1.75 -0.32 c0.08 -0.01 0.17 -0.02 0.26 -0.02 c0.12 -0.01 0.24 -0.02 0.35 -0.02 c-0.59 0.38 -1.17 0.87 -1.73 1.48 M71.79 756.57 c-0.73 0.19 -1.47 0.32 -2.2 0.38 c-0.46 0.03 -0.92 0.04 -1.37 0.01 c0.64 -1.48 1.37 -2.76 2.18 -3.83 c0.42 0.94 0.89 2.1 1.39 3.44 M72.35 752.35 c0.71 -0.14 1.42 -0.24 2.12 -0.29 c0.83 -0.06 1.66 -0.06 2.48 -0.01 c0.16 0.53 0.01 1.14 -0.44 1.76 c-1.37 -0.66 -2.77 -1.15 -4.16 -1.47 M77.8 754.49 c0.53 -0.76 0.75 -1.53 0.63 -2.26 c2.4 0.39 4.61 1.32 6.39 2.7 c0.59 1.34 0.26 2.92 -0.93 4.48 c-1.73 -1.95 -3.83 -3.65 -6.09 -4.92 M77.37 750.55 c1.2 0.27 2.36 0.68 3.46 1.22 c-0.91 -0.28 -1.86 -0.48 -2.85 -0.59 c-0.17 -0.23 -0.37 -0.44 -0.61 -0.63 M82.93 760.48 c-1.62 1.59 -4.03 2.99 -6.82 3.97 c-0.85 -2.48 -1.77 -4.88 -2.67 -6.97 c1.44 -0.53 2.71 -1.27 3.59 -2.11 c2.19 1.34 4.22 3.11 5.9 5.12 M67.37 751.87 c-0.23 0.02 -0.46 0.04 -0.69 0.07 c0.52 -0.33 1.13 -0.63 1.77 -0.88 c0.13 -0.05 0.25 -0.09 0.39 -0.13 c0.23 0.16 0.54 0.51 0.87 0.98 c-0.8 -0.09 -1.59 -0.1 -2.33 -0.05 M71.19 776.65 c2.06 -0.15 4.16 -0.53 6.23 -1.12 c0.37 1.66 0.63 3.04 0.77 4.12 l0.03 0.2 c0.03 0.28 0.06 0.5 0.07 0.71 c-1.08 0.5 -2.22 0.71 -3.36 0.79 c-1.93 0.14 -3.84 -0.05 -5.68 -0.59 c-0.12 -0.13 -0.17 -0.18 -0.22 -0.24 c-0.88 -1.02 -1.56 -2.31 -2.08 -3.9 c1.36 0.12 2.79 0.13 4.25 0.02 M76.89 773.26 c-2.03 0.58 -4.09 0.95 -6.12 1.11 c-1.53 0.12 -3.02 0.1 -4.42 -0.05 c-0.2 -0.98 -0.33 -2.01 -0.41 -3.07 c-0.09 -1.18 -0.1 -2.4 -0.05 -3.65 c1.22 0.12 2.5 0.13 3.81 0.03 c1.79 -0.13 3.61 -0.46 5.41 -0.97 c0.68 2.32 1.28 4.54 1.78 6.61 M69.56 765.83 c-1.22 0.09 -2.41 0.08 -3.54 -0.03 c0.26 -2.62 0.84 -5.21 1.67 -7.5 c0.61 0.05 1.25 0.06 1.91 0.01 c0.88 -0.07 1.78 -0.22 2.67 -0.46 c0.76 2.13 1.57 4.57 2.33 7.08 c-1.67 0.47 -3.36 0.77 -5.03 0.9 M72.89 756.23 c-0.58 -1.27 -1.13 -2.37 -1.64 -3.28 c1.49 0.33 3 0.89 4.5 1.67 c-0.73 0.64 -1.71 1.19 -2.85 1.6 M87.47 770.66 c0.09 1.23 -0.01 2.39 -0.3 3.44 c-0.29 0.45 -0.61 0.89 -0.94 1.31 c-0.24 0.3 -0.5 0.6 -0.77 0.89 c-1.56 1.68 -3.5 3.02 -5.62 3.89 c0 -0.22 -0.01 -0.45 -0.02 -0.7 l-0.02 -0.29 c-0.09 -1.13 -0.32 -2.54 -0.68 -4.22 c3.34 -1.16 6.28 -2.83 8.32 -4.73 c0.01 0.13 0.03 0.26 0.04 0.39 M84.03 761.9 c1.36 1.91 2.34 3.9 2.91 5.92 c-1.96 1.97 -4.92 3.71 -8.36 4.91 c-0.52 -2.08 -1.16 -4.28 -1.9 -6.57 c2.98 -1.04 5.58 -2.55 7.35 -4.26 M88.79 770.78 c0 -0.28 -0.01 -0.57 -0.03 -0.85 c-0.02 -0.31 -0.06 -0.63 -0.11 -0.96 c0.33 -0.4 0.61 -0.8 0.85 -1.2 c-0.13 1.02 -0.37 2.03 -0.71 3.01 M86.57 756.56 c0.09 0.1 0.17 0.2 0.26 0.3 c1.34 1.9 2.22 4.03 2.6 6.32 c-0.07 1.08 -0.52 2.19 -1.36 3.32 c-0.63 -1.97 -1.65 -3.89 -3.03 -5.71 c1.13 -1.42 1.65 -2.87 1.53 -4.24 M66.77 779.83 c-2.34 -1.12 -4.34 -2.78 -5.87 -4.85 c1.18 0.65 2.62 1.13 4.28 1.42 c0.41 1.32 0.95 2.47 1.59 3.43 M64.48 765.59 c-2.38 -0.45 -4.17 -1.41 -5.05 -2.69 c0.95 -2.27 2.48 -4.4 4.41 -6.15 c0.57 0.65 1.47 1.12 2.63 1.38 c-0.95 2.29 -1.63 4.86 -1.98 7.47 M63.32 755.85 c-1.89 1.6 -3.43 3.53 -4.47 5.63 c-0.05 -0.32 -0.06 -0.65 -0.02 -0.98 c0.86 -2.34 2.3 -4.47 4.16 -6.16 c0.13 -0.09 0.28 -0.18 0.42 -0.27 c-0.24 0.62 -0.27 1.22 -0.09 1.79 M68.53 752.69 c-1.42 0.58 -2.76 1.32 -4 2.21 c-0.05 -0.51 0.15 -1.07 0.61 -1.64 c0.83 -0.28 1.73 -0.46 2.67 -0.53 c0.23 -0.02 0.47 -0.03 0.72 -0.03 M64.96 755.8 c1.3 -1.01 2.73 -1.85 4.25 -2.49 c-0.79 1.01 -1.51 2.19 -2.15 3.51 c-0.93 -0.19 -1.67 -0.55 -2.09 -1.02 M58.8 764.68 c1.12 1.29 3.05 2.25 5.49 2.7 c-0.11 1.43 -0.11 2.84 -0.01 4.19 c0.06 0.85 0.17 1.69 0.32 2.49 c-2.65 -0.52 -4.64 -1.52 -5.78 -2.92 c-0.19 -0.51 -0.35 -1.05 -0.49 -1.59 c-0.01 -0.09 -0.02 -0.16 -0.02 -0.23 c-0.11 -1.53 0.05 -3.09 0.49 -4.65 " style="fill:#d3d2d2;"/></g><text class="f5782 f5765" font-size="8.00" style="fill:#231f20"><tspan x="69.24" y="769.34" textLength="10.03" dx="0,0.56">78</tspan></text><text class="f1560 f5766" font-size="8.00" style="fill:#656263"><tspan x="87.25" y="769.13" textLength="97.51" class="f1561 f781" dx="0,0.56,0.56,0.56,0.56,0.56,0.56,0.56,0.56,0.56,0.56,0.56,0.56,0.56,0.56,0.56,0.56,0.56,0.56">GLOBAL TRENDS 2030:</tspan>
<tspan x="185.32" y="769.13" textLength="97.73" dx="0,0.56,0.56,-0.18,0.56,0.56,0.56,0.56,0.02,0.56,0.56,0.56,0.56,0.56,0.56,0.56,0.56,0.56,0.56"> ALTERNATIVE WORLDS</tspan></text>
<g mask="url(#Mask_15_102_2jt6Qd)" ><path d="M295.95 766.5 l292.19 0 " style="stroke:#918f8f;stroke-width:1.00;stroke-dasharray:0.001,1.994;stroke-linecap:round;stroke-linejoin:round;"/><path d="M293.95 766.5 M589.14 766.5 " style="stroke:#918f8f;stroke-width:1.00;stroke-linecap:round;stroke-linejoin:round;"/></g><text class="f1489 f786" font-size="10.00" style="fill:#231f20"><tspan x="340.50" y="91.00" textLength="223.29" dx="0,0.21,-0.02,0,0,0.09,-0.04,0.14,0.05,0.01,0.08,0.31,0.27,-0.03,0,0,0.28,0.28,0.26,-0.07,0.18,0.2,0.5,0,0,-0.08,0,0.15,0.13,0.01,0.07,-0.08,0,0,0.06,0.22,0.31,0.14,0.05,0.18,0.21,-0.31,-0.51,0,0,0.13,0.2,0.16,-0.06,0,0,0.21,-0.02,0">and bolstering military outlays. Pakistan&#8217;s large and </tspan>
<tspan x="340.50" y="105.00" textLength="235.84" dx="0,0.08,0.18,0.05,-0.17,0.25,0.23,0.06,-0.11,0.16,0.27,-0.03,0,0,-0.12,0.01,0.01,-0.03,0.11,0.2,0,0,0.2,0.18,0.09,0.05,0.14,0.21,0,0,0.27,0,0,0.04,0.03,0.18,-0.07,0.13,-0.06,-0.02,0,0,-0.04,0,0,-0.07,0.15,0,0,0.03,0.07,0.13,0.14,0.31,0.27,-0.02,0">fast-growing nuclear arsenal in addition to its doctrine </tspan>
<tspan x="340.50" y="119.00" textLength="229.18" dx="0,-0.03,0,0,-0.14,0.28,0.18,0.05,0,0,0.15,0.09,-0.13,0,0,0.14,0,0,0.27,-0.06,0.01,0.05,-0.02,0.03,0.03,0,0,-0.04,0,0,0.02,0.03,0.01,0.08,0,0,0.21,-0.02,0,0,0.06,0.21,0.13,0.21,-0.05,-0.08,0,0,0.12,0.08,0.2,0.27,0.15,0.05,0">of &#8220;&#59904;rst use&#8221; is intended to deter and balance against </tspan>
<tspan x="340.50" y="133.00" textLength="237.26" dx="0,0.22,-0.02,0.18,0.13,-0.32,-0.51,0,0,-0.11,-0.02,-0.07,-0.09,0.05,-0.06,0.13,-0.06,-0.02,0.14,0.21,0,0,0.28,0.28,0.26,-0.07,0.18,0.2,0.5,0,0,0.04,0.08,0.08,0.21,-0.06,0.18,0.12,-0.06,0.08,-0.08,0,0,0.22,-0.02,0.18,0.13,0,0,-0.14,-0.03,0.3,0.31,-0.03,0.08,0">India&#8217;s conventional military advantages. India worries </tspan>
<tspan x="340.50" y="147.00" textLength="216.77" dx="0,0.04,0.09,-0.08,0,0,0,0,0,0.09,0.01,-0.11,-0.02,-0.02,0,0,-0.12,0.28,0.05,0.06,0.2,0.16,0.24,0.05,0.34,0.04,-0.03,0,0,0.01,0.08,0.3,0.06,-0.03,0.31,0.14,0.05,0,0,-0.01,0.19,0.18,0.03,0.02,0,0,0.2,0.07,-0.02,0">about a second Mumbai-style terrorist attack from </tspan>
<tspan x="340.50" y="161.00" textLength="224.13" dx="0,0.28,0.28,0.26,-0.07,0.18,0.21,-0.06,0.15,0,0,0.06,0.03,0.02,-0.18,0.03,0,0,-0.06,0,0,0.06,0.22,0.31,0.14,0.05,0.18,0.21,-0.04,0,0,0,0,0.15,-0.06,-0.01,-0.03,0,0,0.27,-0.05,0.07,-0.03,0.03,0.05,-0.06,0,0,0.16,-0.07,0.15,0">militants backed by Pakistan. A major incident with </tspan>
<tspan x="340.50" y="175.00" textLength="230.37" dx="0,0.15,0.21,-0.04,0,0,0.06,0.18,0.06,0.18,0.21,-0.07,0.13,-0.03,0.08,0,0,0.21,-0.02,0,0,0.06,0.22,0.31,0.14,0.05,0.18,0.21,0.27,0,0,0.29,-0.03,-0.06,0.08,0.28,-0.06,0.31,0.27,-0.06,0.15,0,0,-0.14,-0.08,0.28,-0.03,0,0,-0.1,0,0">many casualties and Pakistani &#59904;ngerprints would put </tspan>
<tspan x="340.50" y="189.00" textLength="222.52" dx="0,0,0,-0.14,0.11,0.22,-0.18,0.05,-0.02,0.03,0,0,0.22,-0.02,0.18,0.13,0.21,0,0,0.2,-0.11,-0.09,0.08,0.29,0.28,-0.01,0.05,-0.06,0,0,0.28,-0.02,0.03,0.08,0,0,0.14,0.06,0.05,-0.01,0.05,-0.02,0.03,-0.08,0.15,0">a weakened Indian Government under tremendous </tspan>
<tspan x="340.50" y="203.00" textLength="238.8" dx="0,-0.06,0.06,0.08,0.11,0.06,0.26,0.06,0,0,-0.04,0,0,0.06,0.08,-0.03,0.05,-0.02,-0.02,0,0,0.16,-0.07,0.15,0,0,-0.09,-0.03,0.03,-0.08,-0.07,0,0,0.16,-0.07,0.15,0,0,0.15,-0.02,0,0,-0.01,0.19,0.01,0.05,-0.02,0.17,0.21,-0.06,0,0,0.31,0.14,0,0">pressure to respond with force, with the attendant risk </tspan>
<tspan x="340.50" y="217.00" textLength="231.12" dx="0,-0.03,0,0,-0.12,0.01,0.01,-0.03,0.11,0.2,0,0,0.28,0.14,0.09,0.06,0.21,-0.03,0.12,0.28,0.13,-0.01,0.13,-0.06,-0.02,-0.04,0,0,0.43,0.04,0.24,0.14,0.21,0.27,0.14,0.05,0.18,0.21,0,0,-0.11,-0.08,0.28,-0.03,0,0,0.09,0.01,-0.11,-0.02,-0.01,0">of nuclear miscalculation. Afghanistan could become </tspan>
<tspan x="340.50" y="231.00" textLength="212.1" dx="0,0.15,-0.02,0,0,-0.09,0.07,0.12,0.15,0,0,-0.03,0,0,0.34,0,0.2,0.26,0.06,0,0,0.22,-0.02,0.18,0.13,0.21,0.17,0.17,0.06,0.23,0.31,0.14,0.05,0.18,0.21,0.27,0,0,-0.11,-0.02,-0.08,0.07,0.03,0.13,-0.07,0.13,-0.06,-0.02,-0.01,0">the focus of future Indian-Pakistani competition, </tspan>
<tspan x="340.50" y="245.00" textLength="213.54" dx="0,0.03,0.2,0.36,0.13,-0.03,0.12,0.28,0.13,0.2,0.02,0.06,0,0,0.28,0.33,0.01,0.08,0,0,0.15,-0.02,0,0,0.19,0.22,-0.02,-0.15,0.03,-0.11,0.16,0,0,0.27,0,0,0,0,0,0.21,-0.02,0,0,0.04,-0.31,-0.05,0">particularly after the drawdown in US and NATO </tspan>
<tspan x="340.50" y="259.00" textLength="228.26" dx="0,-0.09,-0.03,0.03,-0.08,0.08,0,0,0.05,0.05,0.05,-0.17,-0.26,0.08,-0.48,-0.73,-0.12,0,0,0.17,-0.03,0.15,0,0,-0.11,-0.08,0.28,-0.06,0.14,0.31,-0.03,0.08,0,0,0.04,0.21,-0.06,0,0,-0.04,0,0,0.03,0.05,-0.04,0,0,0.23,0.04,0.21,0.27,-0.03,0">forces post-2014. Both countries want to deny giving </tspan>
<tspan x="340.50" y="273.00" textLength="206.9" dx="0,0.15,-0.02,0,0,-0.03,0.15,-0.02,0.08,0,0,0,0,0.05,0.14,0.22,-0.01,0.01,0.03,0.36,0,0,0.04,0.08,0.08,0.21,-0.06,0.18,0.12,-0.06,-0.07,0,0,0.15,0.22,0.31,0.27,-0.03,0,0,0.06,0.03,0.23,-0.06,-0.02,0.14,0.21,0">the other a strategy advantage, making regional </tspan>
<tspan x="340.50" y="287.00" textLength="204.64" dx="0,-0.11,0.07,-0.07,0.07,0.08,0.22,-0.01,0.13,-0.06,-0.02,0,0,0.18,0.32,0.28,-0.01,0.12,0.28,-0.07,-0.05,0,0,-0.04,-0.03,0.06,0,0,-0.03,0.06,0.06,0.04,0.2,0.06,-0.75,0,0,-0.11,-0.02,0.34,0.28,-0.03,0.13,0.13,0.27,-0.03,0">cooperation dif&#59904;cult. More broadly, con&#59905;icting </tspan>
<tspan x="340.50" y="301.00" textLength="212.52" dx="0,0.05,0.14,0.22,-0.01,0.01,0.03,0.23,-0.03,0,0,-0.09,0.06,0.21,0.14,-0.04,0,0,0.16,-0.03,0.03,0.08,-0.03,-0.06,0.06,0.11,0.04,0,0,0.18,0.14,0.05,0.14,0.35,0.15,0.05,0,0,0,0.21,-0.02,0,0,-0.02,0.03,0.09,0.23,0.27,-0.03,0">strategic goals, widespread distrust, and hedging </tspan>
<tspan x="340.50" y="315.00" textLength="239.62" dx="0,0.05,0.14,0.22,-0.01,0.01,0.03,0.23,-0.03,0.08,0,0,-0.03,0,0,0.21,0.28,0,0,0.43,0.04,0.24,0.14,0.21,0.27,0.14,0.05,0.18,0.21,-0.31,-0.51,0,0,-0.02,0.08,-0.04,0.24,0.04,0.09,-0.03,0.18,-0.01,-0.15,-0.05,-0.03,0,0,-0.01,0.15,0.05,0,0,0.22,-0.02,0.18,0.13,0">strategies of all Afghanistan&#8217;s neighbors&#8212;not just India </tspan>
<tspan x="340.50" y="329.00" textLength="238.68" dx="0,0.21,-0.02,0,0,0.06,0.22,0.31,0.14,0.05,0.18,0.21,-0.12,-0.38,0.16,0.28,0.28,0,0,0.15,0.22,-0.18,0,0,-0.07,0,0,0.18,0.32,0.28,-0.01,0.12,0.28,-0.07,0,0,-0.04,0,0,0.02,0.07,-0.09,-0.04,-0.06,-0.07,0,0,0,0,0.05,0.14,0.06,-0.02,-0.03,0">and Pakistan&#8212;will make it dif&#59904;cult to develop a strong </tspan>
<tspan x="340.50" y="343.00" textLength="124.86" dx="0,0.06,0.03,0.23,-0.06,-0.02,0.14,0.21,0,0,0.09,0.01,0.12,0.26,0.31,-0.07,0.34,0,0,0.21,0.22,0.21,-0.01,0.06,-0.14,-0.03,0.03,0">regional security framework.</tspan>
<tspan x="340.50" y="371.00" textLength="198.7" dx="0,0.22,-0.05,0.07,0.06,0.11,0.18,0.03,0.27,-0.03,0.25,0.06,0,0,0.06,0.27,0.27,0.14,0,0,0.14,0,0,0.21,0.14,0.08,0,0,0.19,0.31,0.04,0.21,0.27,-0.03,0,0,0.22,-0.02,0.18,0.13,0,0,0.15,0.27,0.06,0.11,-0.01,0">Increasingly China is also driving India threat </tspan>
<tspan x="340.50" y="385.00" textLength="197.21" dx="0,0.07,0.08,0.03,-0.08,0.04,-0.05,0.13,-0.06,-0.02,0.15,-0.04,0,0,0.03,0.2,0.36,0.15,0.06,0,0,0.09,0.01,0.06,-0.09,0.15,0.09,0,0,-0.03,0,0,0.06,0.27,0.27,0.14,-0.32,-0.51,0,0,0.06,-0.04,-0.03,0,0,0.27,0">perceptions, partly because of China&#8217;s role in </tspan>
<tspan x="340.50" y="399.00" textLength="221.71" dx="0,0.06,-0.05,-0.09,0.05,-0.03,0.36,0.13,0.27,-0.03,0,0,0.06,0.22,0.31,0.14,0.05,0.18,0.21,-0.01,0,0,-0.08,0,0,0,-0.04,0.05,0.05,0.15,0.06,0,0,0.09,0.01,0.06,-0.09,0.15,0.09,0,0,-0.03,0,0,0.06,0.27,0.27,0.14,-0.32,-0.51,0">supporting Pakistan, but mostly because of China&#8217;s </tspan>
<tspan x="340.50" y="413.00" textLength="220.6" dx="0,0.27,-0.05,0.07,0.06,0.11,0.18,0.03,0.27,-0.03,0,0,0.25,-0.06,-0.01,0.06,0.21,0,0,0.21,-0.02,0,0,0.06,0.03,0.23,-0.06,-0.02,0.14,0.21,0,0,-0.06,0.06,-0.02,0.3,-0.03,-0.11,0,0,0.22,-0.02,0.18,0.13,0.21,0,0,-0.04,0.26,-0.07,0.01,0.08,0">increasing global and regional pro&#59904;le. Indian elites </tspan>
<tspan x="340.50" y="427.00" textLength="223.41" dx="0,-0.14,-0.03,0.3,0.5,0,0,0.04,0.09,-0.08,0,0,0,0.15,-0.02,0,0,0.05,-0.03,0.01,0.05,-0.06,0.13,0.13,0.21,0,0,-0.1,-0.03,0,0,0,0,0.16,-0.03,0.03,0.05,0.27,0.27,-0.03,0,0,0.01,-0.11,-0.02,-0.05,-0.02,0.28,-0.03,0">worry about the potential for a widening economic </tspan>
<tspan x="340.50" y="441.00" textLength="225.15" dx="0,0.08,-0.07,0,0,0.09,0.03,0.31,-0.14,0.03,0.05,0,0,0.06,0.27,0.27,0.14,0,0,0.21,-0.02,0,0,0.22,-0.02,0.18,0.13,0,0,0.32,0,0,0.22,-0.02,0.18,0.13,0.21,0,0,0.23,0.06,-0.11,0.36,0.15,0,0,0.03,0.09,0.08,0">gap between China and India if Indian growth does </tspan>
<tspan x="340.50" y="455.00" textLength="211.44" dx="0,-0.05,-0.03,0,0,0.06,0,0.09,-0.08,0.28,-0.02,0,0,0.21,0.06,-0.02,0,0,-0.07,0.15,0,0,0.06,0.01,-0.08,0.05,-0.06,0,0,-0.01,-0.06,-0.11,-0.15,0.03,-0.11,0.16,0,0,0.21,-0.02,0,0,0.22,-0.02,0.18,0.13,0">not rebound from its recent slowdown and India </tspan>
<tspan x="340.50" y="469.00" textLength="225.76" dx="0,0.03,0.09,0.08,0,0,-0.05,-0.03,0,0,-0.1,0,0,0,-0.04,-0.03,0.06,0,0,0.05,-0.08,-0.07,0.14,0.18,0.03,0.14,0,0,-0.02,0,0,0.22,-0.07,-0.05,-0.03,0,0,0.01,-0.11,-0.02,-0.05,-0.02,0.28,-0.03,0,0,0.21,-0.02,0">does not put more emphasis on rapid economic and </tspan>
<tspan x="340.50" y="483.00" textLength="231.05" dx="0,0.01,0.01,0.01,0.28,-0.05,-0.04,-0.06,0.02,0.23,-0.03,0.06,0.21,0,0,0.03,0.07,-0.09,-0.04,-0.06,-0.07,-0.04,-0.01,0.05,-0.07,-0.05,0,0,0.22,-0.06,0.01,0.05,0.15,0.03,0.32,0.48,0.18,0.27,-0.03,0,0,-0.11,-0.02,-0.08,0.07,0.03,0.13,-0.07,0.13,-0.06,-0.02,0">technological development. Intensifying competition </tspan>
<tspan x="340.50" y="497.00" textLength="223.56" dx="0,0.09,0.03,0.31,-0.14,0.03,0.05,0,0,0.22,-0.02,0.18,0.13,0,0,0.21,-0.02,0,0,0.06,0.27,0.27,0.14,0,0,-0.11,-0.08,0.28,-0.03,0,0,-0.03,0.11,0.04,0,0,-0.04,0,0,0.23,0.06,0.11,-0.01,-0.17,0.08,0.05,-0.11,-0.14,0.08,0">between India and China could lead to great-power </tspan>
<tspan x="340.50" y="511.00" textLength="228.98" dx="0,-0.11,-0.02,0.34,0.28,-0.03,0.13,0,0,0.15,0.14,-0.01,0,0,-0.14,-0.08,0.28,-0.03,0,0,-0.05,-0.03,0,0,0.09,0,0,0.26,0.27,0.28,-0.07,0.01,0.03,0,0,-0.04,0,0,0.15,-0.02,0,0,0.09,-0.08,0,0.15,0,0,0.24,0.03,0.13,0.21,0">con&#59905;ict that would not be limited to the South Asian </tspan>
<tspan x="340.50" y="525.00" textLength="163.94" dx="0,0.15,-0.02,0.11,-0.01,0.14,0.06,-0.07,0,0,0.19,0.22,-0.02,0.16,0.27,-0.03,0,0,0.27,0,0,0.15,-0.02,0,0,0,0,0,0.21,-0.02,0,0,-0.03,0.15,-0.02,0.08,0.18,-0.08">theatre, drawing in the US and others.</tspan>
<tspan x="340.50" y="553.00" textLength="143.56" dx="0,0.24,0.27,0.06,0.03,0,0,0.05,0.05,0.11,0.03,0.03,-0.04,-0.03,0,0,0.09,-0.08,0.05,0.14,0.2,0.31,-0.06,0.05,0,0,0.27,-0.05,0.01,-0.08,0.04,0.03,0.18">Three possible scenarios include:</tspan>
<tspan x="340.50" y="581.00" textLength="18.75" dx="0,0.22,0,0,0">In a </tspan>
<tspan x="359.25" y="581.00" textLength="74.98" class="f1535 f815" dx="0,-0.59,0.06,0.26,0.22,0.24,0.06,0.08,0.3,0.49,0.08,0.1,0.26,0.1,0.18,0">Turn-the-Corner </tspan>
<tspan x="434.23" y="581.00" textLength="129.42" dx="0,0.09,-0.08,0.05,0.14,0.2,0.31,-0.06,-0.24,0,0,0.06,0.15,0.05,0.18,0.2,0.27,-0.02,0.03,0,0,0.01,-0.11,-0.02,-0.05,-0.02,0.28,-0.03,0">scenario, sustained economic </tspan>
<tspan x="340.50" y="595.00" textLength="238.94" dx="0,0.23,0.06,-0.11,0.36,0.15,0,0,0.27,0,0,0.06,0.22,0.31,0.14,0.05,0.18,0.21,0,0,0.06,0.18,0.09,0.03,0,0,-0.02,0,0,0.15,-0.02,0,0,0.23,0.22,0.04,-0.03,0.18,0.21,0,0,-0.05,-0.03,0.29,0.15,0.21,0.26,0.18,0.11,-0.01,0.13,-0.06,-0.02,0">growth in Pakistan based on the gradual normalization </tspan>
<tspan x="340.50" y="609.00" textLength="199.34" dx="0,-0.03,0,0,0.14,0.22,0.04,0.03,0,0,0.16,-0.07,0.15,0,0,0,0,0.31,0.14,0.03,0.27,-0.03,0,0,0.22,-0.02,0.18,0.13,0,0,-0.14,-0.08,0.28,-0.03,0,0,0.09,0,0,0,0,0.07,0.31,-0.07,0.13,-0.03,0.06,0.21,0">of trade with a rising India would be a critical </tspan>
<tspan x="340.50" y="623.00" textLength="221.07" dx="0,0.08,0.03,0.13,-0.04,-0.03,-0.48,0,0,0.38,0,0,0.27,-0.08,-0.06,0.06,-0.11,-0.09,0.03,0,0,0.01,-0.11,-0.02,-0.05,-0.02,0.28,-0.03,0,0,0.05,-0.07,0.21,0.26,0.06,-0.02,0.28,-0.01,0.05,-0.06,0,0,-0.14,-0.08,0.28,-0.03,0">factor. An improved economic environment would </tspan>
<tspan x="340.50" y="637.00" textLength="222.21" dx="0,-0.06,0.06,0.09,-0.03,0.01,-0.08,0,0,-0.04,-0.03,0.06,0,0,-0.07,-0.09,0.05,-0.03,0.36,0.2,0.28,0.27,-0.07,0.13,-0.03,0.08,0,0,-0.09,-0.03,0,0,-0.12,-0.08,0,0.15,0,0,0.05,-0.07,0.01,0.08,0.31,0.27,-0.03,0,0,0.15,-0.02,0">produce more opportunities for youth entering the </tspan>
<tspan x="340.50" y="651.00" textLength="224.8" dx="0,-0.14,-0.03,0.03,0.37,-0.09,-0.03,0.03,-0.08,-0.07,0,0,-0.03,0.08,0.11,0.09,0.05,0.27,0.27,-0.03,0,0,0.15,-0.02,0,0,-0.01,0.19,0.14,0.22,0.03,0.13,0.13,0.04,-0.09,0.05,-0.02,0.08,0.11,0,0,-0.03,0,0,0.28,0.28,0.26,-0.07,0.18,0.21,-0.05,0.26,0">workforce, lessening the attractiveness of militancy </tspan>
<tspan x="340.50" y="665.00" textLength="200.33" dx="0,0.21,-0.02,0,0,-0.11,-0.02,-0.06,0.18,0.2,0.27,0.27,0.27,-0.03,0,0,0.15,-0.02,0,0,-0.03,-0.06,0.06,0.11,0.04,0,0,-0.03,0,0,0.09,-0.01,0.13,0.21,0.28,-0.03,0,0,0.21,-0.06,-0.04,-0.03,0.05,-0.05,-0.08,-0.11,0">and containing the spread of Islamic violence. </tspan>
<tspan x="340.50" y="679.00" textLength="204.93" dx="0,0.22,-0.06,0.14,0.22,0.1,0.09,0.06,0.03,0.23,-0.06,-0.02,0.14,0.21,0,0,0.14,0.22,0.04,0.03,0,0,-0.14,-0.08,0.28,-0.03,0,0,0.21,0.14,0.08,0,0,0.09,0,0,0.27,-0.08,0.05,-0.03,0.36,0.18,0.21,-0.06,0,0,0.27,0">Intra-regional trade would also be important in </tspan>
<tspan x="340.50" y="693.00" textLength="215.77" dx="0,-0.08,0.26,0.28,-0.03,0.18,0.27,-0.03,0,0,0.14,0.35,0.15,0.05,0,0,0.09,0.03,0.31,-0.14,0.03,0.05,0,0,0.22,-0.02,0.18,0.13,0,0,0.21,-0.02,0,0,0.06,0.22,0.31,0.14,0.05,0.18,0.21,-0.01,0,0,-0.01,-0.06,-0.11,0.02,0.06,0">building trust between India and Pakistan, slowly </tspan>
<tspan x="340.50" y="707.00" textLength="222.35" dx="0,0.01,0.14,0.21,-0.03,0.23,0.27,-0.03,0,0,0.15,0.27,0.06,0.11,-0.01,0,0,0.07,0.08,0.03,-0.08,0.04,-0.05,0.13,-0.06,-0.02,0.15,0,0,0.21,-0.02,0,0,0.21,-0.05,0.01,-0.05,-0.03,0.31,0.27,-0.03,0,0,0.09,0.01,0.13,-0.04,-0.03,0.18,0">changing threat perceptions and anchoring sectors </tspan>
<tspan x="340.50" y="721.00" textLength="197.24" dx="0,0.16,-0.07,0.15,0,0,-0.09,0.08,0.05,0.01,0.03,0,0,0.27,-0.06,0.01,0.08,0.06,0.08,0.05,0.15,0,0,0.27,0,0,-0.11,-0.02,-0.06,0.13,0.27,-0.12,0.26,0.27,-0.03,0,0,0.01,-0.11,-0.02,-0.05,-0.02,0.28,-0.03,0">with vested interests in continuing economic </tspan></text><text class="f1489 f786" font-size="10.00" style="fill:#231f20"><tspan x="75.00" y="91.00" textLength="238.77" dx="0,0.05,-0.04,0.26,-0.07,0.13,-0.03,0.06,0.21,0,0,0.06,-0.01,-0.09,-0.03,0.29,0.16,0,0,-0.03,0,0,0.08,0.03,-0.08,0,0,0,0,0.03,0.27,0.28,0.28,0.13,0.2,0,0,-0.05,-0.06,0.31,0.14,0.03,0.27,-0.03,0,0,0.27,0,0,0.15,-0.02,0.08,0.26,0,0,-0.11,0.16,0">political reforms or face a similar uprising in their own </tspan>
<tspan x="75.00" y="105.00" textLength="238.15" dx="0,-0.11,-0.08,0.28,-0.06,0.14,0.31,-0.03,0.08,-0.08,0,0,0.22,0,0,0.21,0,0.06,0.21,-0.05,-0.02,-0.01,0,0,0.15,-0.02,0,0,0.06,0.21,-0.03,0.08,0.05,0.13,0.27,0.27,0.13,0.21,0,0,-0.69,0.08,0.3,0.31,-0.07,-0.04,-0.03,0.31,-0.03,0.08,-0.04,0,0,0.21,0.22,0.03,-0.1,0">countries. In Lebanon, the Palestinian Territories, Iraq, </tspan>
<tspan x="75.00" y="119.00" textLength="218.18" dx="0,0.21,-0.02,0,0,-0.03,0.15,-0.02,0.07,0,0,-0.07,0.13,0.03,-0.08,0.08,0,0,0.02,-0.02,0.08,0.06,0,0,0.15,-0.02,0,0,0.08,-0.09,0.04,0.18,0.14,0,0,0.14,-0.02,-0.09,0,0,0.15,0.09,0.03,0,0,0.15,-0.02,0.08,0.26,0">and other places where the Saudis have used their </tspan>
<tspan x="75.00" y="133.00" textLength="240.5" dx="0,0.27,0.34,-0.06,0.04,0.05,-0.05,-0.08,0,0,-0.04,0,0,0.06,-0.05,-0.09,0.05,-0.03,0.36,0,0,-0.04,0.28,0.28,0.27,0,0,0.21,0.28,0.26,-0.03,0.08,-0.04,0,0,0.23,0.06,-0.08,-0.05,0.03,0,0,0.15,0.14,-0.01,0,0,0.14,-0.02,-0.09,0,0,-0.06,-0.02,-0.03,0">in&#59905;uence to support Sunni allies, groups that have long </tspan>
<tspan x="75.00" y="147.00" textLength="239.42" dx="0,0.06,-0.04,0.26,-0.03,0.03,0,0,-0.02,0,0,0.06,0.01,0.01,0,0,0.06,-0.05,-0.09,0.05,-0.03,0.35,0,0,0.15,0.01,0,0,0.09,0,0,-0.11,-0.02,0.15,0.03,-0.03,0.03,0.08,0.22,0.04,-0.04,0.06,0,0,-0.14,0.11,0.22,-0.18,0.05,-0.02,0.03,0.07,0">relied on such support may be considerably weakened, </tspan>
<tspan x="75.00" y="161.00" textLength="230.44" dx="0,0.07,0.08,0.01,0.14,-0.07,0.03,0,0,-0.04,0,0,0.15,-0.02,0,0,0.09,0.05,-0.02,0.02,-0.05,0,0,-0.03,0,0,-0.01,0.27,0.26,-0.07,0.01,0,0,0.21,-0.02,0,0,-0.06,0.06,0.36,0.17,0.21,0.22,0.21,0.27,0.13,0.21,0,0,0.31,0.04,0.08,0.21,0.14,-0.08">perhaps to the bene&#59904;t of Shiite and pro-Iranian rivals.</tspan>
<tspan x="75.00" y="189.00" textLength="239.43" dx="0,0.27,0,0,0.15,-0.02,0,0,0.21,-0.01,0,0,-0.04,-0.02,0.14,0.2,0.03,0.01,0.27,-0.03,0.08,0,0,0.2,0.06,0,0,0.04,-0.04,-0.03,0,0,-0.04,0,0,0.06,0.01,-0.09,-0.08,0.08,0.11,0,0.34,0.28,0.28,0.06,0,0,0.31,-0.03,0.03,0,0,-0.08,0,0">If the GCC monarchies are able to successfully ride out </tspan>
<tspan x="75.00" y="203.00" textLength="228.58" dx="0,0.15,-0.02,0,0,0.37,0.22,0.04,0,0,-0.03,-0.06,0.31,0.27,-0.03,0.04,0,0,0.15,-0.02,0,0,0.23,0.06,0.11,-0.01,0.01,0.08,0.05,0,0,0.09,0.05,-0.02,0.02,-0.01,0.07,0.13,0.2,0.31,-0.03,0.08,0,0,0.06,0.03,0.23,-0.06,-0.02,0.14,0.21,0.28,0.06,0">the Arab Spring, the greatest bene&#59904;ciaries regionally </tspan>
<tspan x="75.00" y="217.00" textLength="226.75" dx="0,0.28,-0.04,0.24,-0.06,0,0,0.09,0,0,-0.12,-0.03,0.05,0.17,0.21,0,0,0.21,-0.02,0,0,-0.04,-0.03,0.06,0.07,-0.09,-0.11,0.07,-0.1,0.15,-0.02,0,0,-0.04,0.05,0.05,0,0,0.41,0.28,0.27,-0.02,0.08,0.22,0.04,-0.04,-0.03,0">might be Jordan and Morocco&#8212;the most vulnerable </tspan>
<tspan x="75.00" y="231.00" textLength="221.04" dx="0,-0.04,0.28,0.28,0.27,0,0,-0.04,-0.02,0.14,0.2,0.03,0.01,0.27,-0.03,0.08,-0.08,0,0,-0.04,0.01,0.01,0,0,0,0,0.06,0.08,0.06,0.28,-0.07,0,0,-0.14,-0.08,0.28,-0.03,0,0,0.21,0.14,0.08,0,0,0.05,0.15,0.06,0.26,0.06,0">Sunni monarchies. Such a result would also ensure </tspan>
<tspan x="75.00" y="245.00" textLength="214.59" dx="0,0.22,-0.01,0,0,0.06,0.03,0.23,-0.06,-0.02,0.14,0.21,0,0,0.27,0.34,-0.06,0.04,0.05,-0.05,-0.08,-0.07,0,0,-0.06,0.06,-0.11,0.21,-0.03,0.18,0.27,-0.03,0,0,-0.02,0.28,0.32,0,0,-0.11,-0.08,0.28,-0.06,0.14,0.31,-0.03,0.08,0">GCC regional in&#59905;uence, providing Gulf countries </tspan>
<tspan x="75.00" y="259.00" textLength="229.1" dx="0,0.16,-0.07,0.15,0,0,-0.11,-0.02,-0.07,0.13,0.27,-0.12,0.04,0.03,0,0,0.01,-0.11,-0.02,-0.05,-0.02,0.28,-0.03,0,0,-0.03,0.07,-0.09,0.08,0.22,0.12,-0.06,0,0,0.27,0,0,0.36,0.22,0.04,0,0,-0.11,-0.08,0.28,-0.06,0.14,0.31,-0.03,0.08,0">with continued economic leverage in Arab countries </tspan>
<tspan x="75.00" y="273.00" textLength="221.53" dx="0,0.27,0,0,0.14,0.22,0.21,0.15,0.03,-0.07,0.13,-0.06,-0.02,-0.01,0,0,0.27,-0.05,0.01,-0.08,0.04,0.18,0.27,-0.03,0,0,0.15,0.36,0.2,-0.05,0,0,0.21,-0.02,0,0,0.05,-0.03,0.01,0.05,-0.06,0.13,0.13,0.21,0.28,0.06,0,0,-0.04,0.18,0.31,0.13,0.03,0">in transition, including Egypt and potentially Syria. </tspan>
<tspan x="75.00" y="287.00" textLength="223.27" dx="0,-0.11,0.27,0.14,0.21,0.28,0.06,-0.75,0,0,0.15,-0.02,0,0,0.05,0.18,-0.01,0.2,0.15,0,0,0,0.01,0,0,0.09,-0.08,0.05,0.14,0.2,0.31,-0.06,0,0,-0.14,-0.08,0.28,-0.03,0,0,-0.06,0.06,0.08,0.09,0.07,0.47,-0.09,0,0,0.21,-0.02,0">Finally, the status quo scenario would preserve and </tspan>
<tspan x="75.00" y="301.00" textLength="224.59" dx="0,0.07,0.08,0.01,0.14,-0.07,0.03,0,0,0.03,0.03,0.04,0.07,0.05,0,0,0.15,-0.02,0,0,-0.11,-0.04,-0.03,0,0,0.04,0.2,0,0,0.11,0.18,0.14,0.21,0.28,-0.03,0,0,0.09,0.03,0.31,-0.14,0.03,0.05,0,0,0.15,-0.02,0">perhaps deepen the cold war dynamic between the </tspan>
<tspan x="75.00" y="315.00" textLength="208.14" dx="0,-0.02,0.28,0.32,0,0,0.05,0.18,-0.01,0.01,0.08,0,0,0.21,-0.02,0,0,0.21,0.22,0.21,-0.01,0,0,0.08,-0.03,0.07,0.01,0.07,0.13,0.21,0.28,0.06,0,0,0.18,0,0,0.21,0.22,0.21,0,0,-0.02,0.11,0.2,0.18,0,0,0.15,-0.02,0">Gulf states and Iran, especially as Iran nears the </tspan>
<tspan x="75.00" y="329.00" textLength="78.16" dx="0,-0.12,0.01,0.01,-0.03,0.11,0.2,0,0,0.15,0.27,0.06,0.08,-0.01,-0.05,-0.04,-0.03,0.03">nuclear threshold.</tspan></text><text class="f5782 f5765" font-size="11.00" style="fill:#e6910d"><tspan x="75.00" y="362.00" textLength="221.94">SOUTH ASIA: SHOCKS ON THE HORIZON</tspan></text><text class="f1489 f786" font-size="10.00" style="fill:#231f20"><tspan x="75.00" y="385.00" textLength="224.33" dx="0,0.25,0.28,-0.18,0,0,0.15,-0.02,0,0,0.23,-0.03,0.03,0.2,-0.03,0,0,0.22,0.18,0.05,0,0,0,0.09,-0.08,0,0.15,0,0,0.24,0.03,0.13,0,0,0.16,0.28,0.28,0,0,0.08,0.03,-0.08,0,0,0,0,0.09,0.07,0.31,-0.03,0.08,0,0,-0.03,0">Like the Middle East, South Asia will face a series of </tspan>
<tspan x="75.00" y="399.00" textLength="220.57" dx="0,0.27,-0.06,0.01,0.08,0.29,0.14,0.21,0,0,0.21,-0.02,0,0,-0.01,0.25,0.01,0.08,0.29,0.14,0.21,0,0,-0.01,-0.05,0.07,0.02,0.19,0,0,-0.03,0.26,0.31,0.27,-0.03,0,0,0.15,-0.02,0,0,-0.02,-0.01,0.25,0,0,-0.85,0.37,-0.26,0.08,0">internal and external shocks during the next 15-20 </tspan>
<tspan x="75.00" y="413.00" textLength="228.39" dx="0,-0.12,0.11,0.2,0.18,-0.08,0,0,0.22,-0.08,0.03,0.03,0.13,0.15,0,0,0.21,0.06,-0.02,0,0,0.01,0.26,0.27,0.15,-0.01,0.01,0,0,0.01,0.14,0.21,-0.03,-0.06,-0.07,0,0,0.27,-0.05,0.01,-0.08,0.04,0.18,0.27,-0.03,0,0,0.04,-0.01,0.01,0.08,0">years. Impacts from climate change, including water </tspan>
<tspan x="75.00" y="427.00" textLength="216.89" dx="0,0.05,0.14,0.06,0.08,0.11,-0.04,0,0,0.27,0,0,0.04,0.03,0.18,-0.07,0.13,-0.06,-0.02,0,0,-0.04,0,0,-0.06,-0.11,0,0,0.01,-0.11,-0.02,-0.05,-0.02,0.28,-0.03,0,0,0.23,0.06,-0.11,0.36,0.15,-0.01,0,0,0.31,0.14,0.03,0.27,-0.03,0">stress, in addition to low economic growth, rising </tspan>
<tspan x="75.00" y="441.00" textLength="209.16" dx="0,-0.09,0.07,0.09,0,0,-0.06,0.31,-0.03,-0.08,0.08,-0.04,0,0,0.21,-0.02,0,0,0.05,-0.02,0.08,0.16,0.36,0,0,-0.01,-0.05,-0.03,0.36,0.18,0.12,-0.06,0.08,0,0,0.16,0.28,0.28,0,0,0.05,0.05,0.09,0,0,0.05,0.13,0.32,0.27,0">food prices, and energy shortages will pose stiff </tspan>
<tspan x="75.00" y="455.00" textLength="237.02" dx="0,0.01,0.14,0.21,0.28,-0.03,0.05,-0.03,-0.06,0.08,0,0,-0.04,0,0,-0.09,-0.11,-0.09,0.08,0.29,0.14,0.21,-0.05,-0.08,0,0,0.27,0,0,0.06,0.22,0.31,0.14,0.05,0.18,0.21,0,0,0.21,-0.02,0,0,0.43,0.04,0.24,0.14,0.21,0.27,0.14,0.05,0.18,0.21,-0.04,0">challenges to governance in Pakistan and Afghanistan. </tspan>
<tspan x="75.00" y="469.00" textLength="196.72" dx="0,0.43,0.04,0.24,0.14,0.21,0.27,0.14,0.05,0.18,0.21,-0.31,-0.51,0,0,0.21,-0.02,0,0,0.06,0.22,0.31,0.14,0.05,0.18,0.21,-0.31,-0.51,0,0,-0.12,-0.08,0,0.15,0,0,-0.08,0.28,-0.04,-0.06,0.08,0,0,0.2,0.06,0">Afghanistan&#8217;s and Pakistan&#8217;s youth bulges are </tspan>
<tspan x="75.00" y="483.00" textLength="229.77" dx="0,0.13,0.2,0.16,-0.06,-0.08,-0.03,0.03,0.27,0.28,0.28,0.13,0.2,0,0,0.27,0,0,0.03,0.18,0.04,0,0,-0.04,0,0,0.15,-0.05,0.05,0.09,0,0,-0.09,-0.08,0.28,-0.02,0,0,0.27,0,0,0.15,0.21,-0.04,0,0,0.43,0.21,0.31,-0.03,0.06,0.21,0">large&#8212;similar in size to those found in many African </tspan>
<tspan x="75.00" y="497.00" textLength="224.47" dx="0,-0.11,-0.08,0.28,-0.06,0.14,0.31,-0.03,0.08,0,-0.02,0.21,-0.02,0,0,0.02,-0.02,0.05,0,0,-0.11,-0.02,0.05,-0.03,0.27,-0.02,0.03,0,0,0.16,-0.07,0.15,0,0,-0.01,-0.06,-0.11,-0.12,0.25,0.23,0.06,-0.11,0.16,0.27,-0.03,0">countries&#8212;and when combined with slow-growing </tspan>
<tspan x="75.00" y="511.00" textLength="229.0" dx="0,0.01,-0.11,-0.02,-0.05,-0.02,0.28,-0.03,0.08,0,0,0.05,-0.03,0.36,0.01,0.05,-0.02,0,0,0.27,-0.05,0.07,0.06,0.11,0.18,0.09,0.03,0,0,0.08,0.07,0.07,0.13,0.21,0,0,0.27,0.15,0.05,0.18,0.04,-0.03,0.28,0.26,-0.07,0.34,-0.79,0,0,0.22,-0.02,0.18,0.13,0">economies portend increased social instability. India </tspan>
<tspan x="75.00" y="525.00" textLength="233.49" dx="0,0.14,0,0,0.27,0,0,0,0,0.09,0.03,0.19,0.01,0.08,0,0,0.05,0.05,0.03,-0.07,0.13,-0.06,-0.02,-0.01,0,0,0.09,0.05,-0.02,0.02,-0.05,0.13,0.27,-0.03,0,0,0.21,0.06,-0.02,0,0,0.27,-0.04,0.24,-0.02,0.08,0,0,0.23,0.06,-0.11,0.36,0.15,-0.01,0">is in a better position, bene&#59904;ting from higher growth, </tspan>
<tspan x="75.00" y="539.00" textLength="216.92" dx="0,-0.08,0,0,0,-0.06,0.06,0,0,0.12,-0.04,0.27,0.27,0,0,0.16,0.28,0.28,0,0,0.05,0.13,0.28,0.28,0,0,0.09,0,0,0.01,0.14,0.21,0.28,-0.03,0.05,-0.03,-0.06,0.03,0,0,-0.04,0,0,0.29,-0.02,0,0,-0.01,-0.01,0.05,0">but New Delhi will still be challenged to &#59904;nd jobs </tspan>
<tspan x="75.00" y="553.00" textLength="221.72" dx="0,-0.09,-0.03,0,0,-0.07,0.15,0,0,0.13,0.2,0.16,-0.06,0,0,-0.12,-0.08,0,0.15,0.33,0.34,0.28,0,0,0.05,-0.07,-0.1,0.28,0.13,-0.01,0.13,-0.06,-0.02,-0.04,0,0,0.22,-0.02,0.03,0,0.18,0.21,0.26,-0.07,0.34,-0.75,0,0,0.13,0.02,0.02,0,0,-0.03,0">for its large youthful population. Inequality, lack of </tspan>
<tspan x="75.00" y="567.00" textLength="222.99" dx="0,0.27,0.33,0.21,0.22,0.18,0.05,0.14,0.35,0.01,0.13,0.2,0.26,0.06,-0.07,0,0,0.21,-0.02,0,0,0.03,-0.03,0.01,0.06,-0.01,0.13,-0.06,-0.02,0.14,0.21,0,0,0.03,0.02,-0.01,0.07,-0.03,0.05,-0.05,0.07,-0.03,0.08,0,0,0.2,0.06,0,0,-0.18,0.1,0">infrastructure, and educational de&#59904;ciencies are key </tspan>
<tspan x="75.00" y="581.00" textLength="226.71" dx="0,-0.14,0.11,0.22,0.33,-0.02,0.08,0.11,0.09,0.08,0,0,0.27,0,0,0.22,-0.02,0.18,0.13,0.03,0,0,0.22,-0.02,0.18,0.13,0,0,0.21,0.14,0.08,0,0,0.08,0.03,-0.08,0.08,0,0,0.21,0,0,0.27,-0.06,0.14,0.22,0.21,0.15,0.03,-0.04,-0.06,0.05,-0.06,0">weaknesses in India. India also faces an intransigent </tspan>
<tspan x="75.00" y="595.00" textLength="226.31" dx="0,0.35,0.26,0.22,0.21,0,0,0.27,0.15,0.06,0.26,0.16,-0.06,0.05,-0.05,0.26,-0.39,-0.1,0.15,-0.02,0,0,-0.01,0.27,0.15,0.22,0.26,-0.07,0.01,0.08,0,-0.38,0.02,0.27,-0.03,0.01,0,0,-0.11,-0.02,0.15,0.05,0.13,-0.07,0.2,0,0.01,0.08,0">rural insurgency&#8212;the Naxalites&#8212;which constitutes </tspan>
<tspan x="75.00" y="609.00" textLength="228.41" dx="0,0.21,0,0,0.27,-0.06,0.01,0.08,0.29,0.14,0.21,0,0,0.09,0.01,0.12,0.26,0.31,-0.07,0.34,0,0,0.01,0.14,0.21,0.28,-0.03,0.05,-0.03,-0.06,-0.11,0,0,0.26,-0.07,-0.05,-0.03,0,0,0.26,0.08,0.06,0.21,0.27,0.18,0.11,-0.01,0.13,-0.06,-0.02,0,0,0.27,0">an internal security challenge. Rapid urbanization in </tspan>
<tspan x="75.00" y="623.00" textLength="240.9" dx="0,0.22,-0.02,0.18,0.13,0,0,0.21,-0.02,0,0,0.06,0.22,0.31,0.14,0.05,0.18,0.21,0,0,0.21,0.27,-0.04,0.05,0.05,0,0,-0.08,0.08,0.36,0.18,0.19,0.27,0.29,0.06,0,0,0.16,0.28,0.28,0,0,0.14,0.22,0.21,0.15,0,-0.09,-0.03,0.29,0,0,0.15,-0.02,0.08,0.26,0">India and Pakistan almost certainly will transform their </tspan>
<tspan x="75.00" y="637.00" textLength="228.78" dx="0,0.05,-0.04,0.26,-0.07,0.13,-0.03,0.06,0.21,0,0,0.13,0.21,-0.02,0.14,0.09,0.06,-0.07,0.07,0.08,0,0,0.21,0.06,-0.02,0,0,-0.04,-0.03,0.06,0,0,0.14,0.22,0.04,0.18,-0.07,0.13,-0.06,-0.02,0.14,0.21,0,0,-0.11,-0.02,-0.06,0.14,0.06,-0.04,0,0,-0.06,0">political landscapes from more traditional control by </tspan>
<tspan x="75.00" y="651.00" textLength="231.63" dx="0,0.35,0.26,0.22,0.21,0,0,-0.04,0.26,-0.07,0.01,0.08,0,0,-0.04,0,0,-0.02,-0.02,0,0,-0.01,0.14,-0.07,0.07,0.03,0,0,-0.06,0,0,0,0,0.23,0.06,-0.11,0.16,0.27,-0.03,0,0,0.05,0.07,-0.04,0,0,-0.03,0,0,0.26,0.08,0.06,0.21,0">rural elites to one shaped by a growing pool of urban </tspan>
<tspan x="75.00" y="665.00" textLength="96.77" dx="0,0.05,0.07,-0.03,0,0,0.21,-0.02,0,0,0.28,-0.03,0.03,0.2,-0.03,0,0,0.01,0.13,0.18,0.11,-0.08">poor and middle class.</tspan>
<tspan x="75.00" y="693.00" textLength="199.59" dx="0,0.24,-0.02,0,0,-0.02,0.08,-0.04,0.24,0.04,0.09,-0.03,0.01,-0.05,0.07,0.09,0,0,0.14,0.18,0,0,0.21,0.03,0.04,0.01,0.07,0,0,0.14,0.04,0,0,0,0,-0.06,0.06,-0.03,-0.1,-0.08,0.28,-0.02,0">The neighborhood has always had a profound </tspan>
<tspan x="75.00" y="707.00" textLength="238.78" dx="0,0.27,0.34,-0.06,0.04,0.05,-0.05,-0.08,0,0,-0.02,0,0,0.27,-0.06,0.01,0.08,0.29,0.14,0.21,0,0,0.03,0.07,-0.09,-0.04,-0.06,-0.07,-0.04,-0.01,0.05,-0.06,0.15,0,0,0.27,0,0,0.21,0.28,0,0,0.15,-0.02,0,0,-0.11,-0.08,0.28,-0.06,0.14,0.31,-0.03,0.08,0">in&#59905;uence on internal developments in all the countries </tspan>
<tspan x="75.00" y="721.00" textLength="207.52" dx="0,0.27,0,0,0.15,-0.02,0,0,0.06,0.03,0.23,-0.06,-0.02,-0.01,0,0,0.27,-0.05,0.07,0.06,0.11,0.18,0.03,0.27,-0.03,0,0,0.15,-0.02,0,0,0.09,0.05,0.15,0.09,0,0,-0.03,0,0,0.27,0.15,0.09,0.01,0.12,0.26,0.31,-0.07,0.34,0">in the region, increasing the sense of insecurity </tspan></text><path d="M15 21 l-15 0 M639 21 l15 0 M15 813 l-15 0 M639 813 l15 0 M21 15 l0 -15 M21 819 l0 15 M633 15 l0 -15 M633 819 l0 15 " style="stroke:#ffffff;stroke-width:1.25;"/><path d="M15 21 l-15 0 M639 21 l15 0 M15 813 l-15 0 M639 813 l15 0 M21 15 l0 -15 M21 819 l0 15 M633 15 l0 -15 M633 819 l0 15 " style="stroke:#000000;stroke-width:0.25;"/>
</svg>
