<svg class="crocodoc-2jt6Qd crocodoc-page-svg" version="1.1"
    xmlns="http://www.w3.org/2000/svg"
    xmlns:xlink="http://www.w3.org/1999/xlink"
    xmlns:xhtml="http://www.w3.org/1999/xhtml"
    xml:space="preserve" width="654.0pt" height="834.0pt" viewBox="0 0 654.0 834.0">
<xhtml:link href="stylesheet.css" type="text/css" rel="stylesheet" />
<style>
.crocodoc-2jt6Qd tspan { white-space:pre; }
.crocodoc-2jt6Qd path { fill:transparent; }

</style>
<defs>
<linearGradient id="Grad_16_86_2jt6Qd" x1="44.82%" y1="92.27%" x2="90.53%" y2="92.27%"><stop offset="0.00" style="stop-color:#ffffff" /><stop offset="0.25" style="stop-color:#eeeeee" /><stop offset="0.50" style="stop-color:#bdbdbd" /><stop offset="0.75" style="stop-color:#6d6d6d" /><stop offset="1.00" style="stop-color:#000000" /></linearGradient>
<mask id="Mask_15_86_2jt6Qd">
<g ><path d="M3 831 l648 0 l0 -828 l-648 0 l0 828 " style="fill:url(#Grad_16_86_2jt6Qd);"/></g></mask>
</defs>

<g style="opacity:0.40;" ><path d="M71.97 751.59 c0.77 -0.59 1.54 -1 2.32 -1.22 c0.78 0.14 1.43 0.38 1.9 0.71 c-0.44 0 -0.88 0.01 -1.32 0.05 c-0.96 0.07 -1.93 0.23 -2.9 0.46 M70.58 751.73 c-0.17 -0.35 -0.34 -0.64 -0.48 -0.88 c-0.05 -0.08 -0.1 -0.16 -0.15 -0.23 c0.57 -0.14 1.16 -0.25 1.75 -0.32 c0.08 -0.01 0.17 -0.02 0.26 -0.02 c0.12 -0.01 0.24 -0.02 0.35 -0.02 c-0.59 0.38 -1.17 0.87 -1.73 1.48 M71.79 756.57 c-0.73 0.19 -1.47 0.32 -2.2 0.38 c-0.46 0.03 -0.92 0.04 -1.37 0.01 c0.64 -1.48 1.37 -2.76 2.18 -3.83 c0.42 0.94 0.89 2.1 1.39 3.44 M72.35 752.35 c0.71 -0.14 1.42 -0.24 2.12 -0.29 c0.83 -0.06 1.66 -0.06 2.48 -0.01 c0.16 0.53 0.01 1.14 -0.44 1.76 c-1.37 -0.66 -2.77 -1.15 -4.16 -1.47 M77.8 754.49 c0.53 -0.76 0.75 -1.53 0.63 -2.26 c2.4 0.39 4.61 1.32 6.39 2.7 c0.59 1.34 0.26 2.92 -0.93 4.48 c-1.73 -1.95 -3.83 -3.65 -6.09 -4.92 M77.37 750.55 c1.2 0.27 2.36 0.68 3.46 1.22 c-0.91 -0.28 -1.86 -0.48 -2.85 -0.59 c-0.17 -0.23 -0.37 -0.44 -0.61 -0.63 M82.93 760.48 c-1.62 1.59 -4.03 2.99 -6.82 3.97 c-0.85 -2.48 -1.77 -4.88 -2.67 -6.97 c1.44 -0.53 2.71 -1.27 3.59 -2.11 c2.19 1.34 4.22 3.11 5.9 5.12 M67.37 751.87 c-0.23 0.02 -0.46 0.04 -0.69 0.07 c0.52 -0.33 1.13 -0.63 1.77 -0.88 c0.13 -0.05 0.25 -0.09 0.39 -0.13 c0.23 0.16 0.54 0.51 0.87 0.98 c-0.8 -0.09 -1.59 -0.1 -2.33 -0.05 M71.19 776.65 c2.06 -0.15 4.16 -0.53 6.23 -1.12 c0.37 1.66 0.63 3.04 0.77 4.12 l0.03 0.2 c0.03 0.28 0.06 0.5 0.07 0.71 c-1.08 0.5 -2.22 0.71 -3.36 0.79 c-1.93 0.14 -3.84 -0.05 -5.68 -0.59 c-0.12 -0.13 -0.17 -0.18 -0.22 -0.24 c-0.88 -1.02 -1.56 -2.31 -2.08 -3.9 c1.36 0.12 2.79 0.13 4.25 0.02 M76.89 773.26 c-2.03 0.58 -4.09 0.95 -6.12 1.11 c-1.53 0.12 -3.02 0.1 -4.42 -0.05 c-0.2 -0.98 -0.33 -2.01 -0.41 -3.07 c-0.09 -1.18 -0.1 -2.4 -0.05 -3.65 c1.22 0.12 2.5 0.13 3.81 0.03 c1.79 -0.13 3.61 -0.46 5.41 -0.97 c0.68 2.32 1.28 4.54 1.78 6.61 M69.56 765.83 c-1.22 0.09 -2.41 0.08 -3.54 -0.03 c0.26 -2.62 0.84 -5.21 1.67 -7.5 c0.61 0.05 1.25 0.06 1.91 0.01 c0.88 -0.07 1.78 -0.22 2.67 -0.46 c0.76 2.13 1.57 4.57 2.33 7.08 c-1.67 0.47 -3.36 0.77 -5.03 0.9 M72.89 756.23 c-0.58 -1.27 -1.13 -2.37 -1.64 -3.28 c1.49 0.33 3 0.89 4.5 1.67 c-0.73 0.64 -1.71 1.19 -2.85 1.6 M87.47 770.66 c0.09 1.23 -0.01 2.39 -0.3 3.44 c-0.29 0.45 -0.61 0.89 -0.94 1.31 c-0.24 0.3 -0.5 0.6 -0.77 0.89 c-1.56 1.68 -3.5 3.02 -5.62 3.89 c0 -0.22 -0.01 -0.45 -0.02 -0.7 l-0.02 -0.29 c-0.09 -1.13 -0.32 -2.54 -0.68 -4.22 c3.34 -1.16 6.28 -2.83 8.32 -4.73 c0.01 0.13 0.03 0.26 0.04 0.39 M84.03 761.9 c1.36 1.91 2.34 3.9 2.91 5.92 c-1.96 1.97 -4.92 3.71 -8.36 4.91 c-0.52 -2.08 -1.16 -4.28 -1.9 -6.57 c2.98 -1.04 5.58 -2.55 7.35 -4.26 M88.79 770.78 c0 -0.28 -0.01 -0.57 -0.03 -0.85 c-0.02 -0.31 -0.06 -0.63 -0.11 -0.96 c0.33 -0.4 0.61 -0.8 0.85 -1.2 c-0.13 1.02 -0.37 2.03 -0.71 3.01 M86.57 756.56 c0.09 0.1 0.17 0.2 0.26 0.3 c1.34 1.9 2.22 4.03 2.6 6.32 c-0.07 1.08 -0.52 2.19 -1.36 3.32 c-0.63 -1.97 -1.65 -3.89 -3.03 -5.71 c1.13 -1.42 1.65 -2.87 1.53 -4.24 M66.77 779.83 c-2.34 -1.12 -4.34 -2.78 -5.87 -4.85 c1.18 0.65 2.62 1.13 4.28 1.42 c0.41 1.32 0.95 2.47 1.59 3.43 M64.48 765.59 c-2.38 -0.45 -4.17 -1.41 -5.05 -2.69 c0.95 -2.27 2.48 -4.4 4.41 -6.15 c0.57 0.65 1.47 1.12 2.63 1.38 c-0.95 2.29 -1.63 4.86 -1.98 7.47 M63.32 755.85 c-1.89 1.6 -3.43 3.53 -4.47 5.63 c-0.05 -0.32 -0.06 -0.65 -0.02 -0.98 c0.86 -2.34 2.3 -4.47 4.16 -6.16 c0.13 -0.09 0.28 -0.18 0.42 -0.27 c-0.24 0.62 -0.27 1.22 -0.09 1.79 M68.53 752.69 c-1.42 0.58 -2.76 1.32 -4 2.21 c-0.05 -0.51 0.15 -1.07 0.61 -1.64 c0.83 -0.28 1.73 -0.46 2.67 -0.53 c0.23 -0.02 0.47 -0.03 0.72 -0.03 M64.96 755.8 c1.3 -1.01 2.73 -1.85 4.25 -2.49 c-0.79 1.01 -1.51 2.19 -2.15 3.51 c-0.93 -0.19 -1.67 -0.55 -2.09 -1.02 M58.8 764.68 c1.12 1.29 3.05 2.25 5.49 2.7 c-0.11 1.43 -0.11 2.84 -0.01 4.19 c0.06 0.85 0.17 1.69 0.32 2.49 c-2.65 -0.52 -4.64 -1.52 -5.78 -2.92 c-0.19 -0.51 -0.35 -1.05 -0.49 -1.59 c-0.01 -0.09 -0.02 -0.16 -0.02 -0.23 c-0.11 -1.53 0.05 -3.09 0.49 -4.65 " style="fill:#d3d2d2;"/></g><text class="f5782 f5765" font-size="8.00" style="fill:#231f20"><tspan x="69.24" y="769.34" textLength="10.03" dx="0,0.56">62</tspan></text><text class="f1560 f5766" font-size="8.00" style="fill:#656263"><tspan x="87.25" y="769.13" textLength="97.51" class="f1561 f781" dx="0,0.56,0.56,0.56,0.56,0.56,0.56,0.56,0.56,0.56,0.56,0.56,0.56,0.56,0.56,0.56,0.56,0.56,0.56">GLOBAL TRENDS 2030:</tspan>
<tspan x="185.32" y="769.13" textLength="97.73" dx="0,0.56,0.56,-0.18,0.56,0.56,0.56,0.56,0.02,0.56,0.56,0.56,0.56,0.56,0.56,0.56,0.56,0.56,0.56"> ALTERNATIVE WORLDS</tspan></text>
<g mask="url(#Mask_15_86_2jt6Qd)" ><path d="M295.95 766.5 l292.19 0 " style="stroke:#918f8f;stroke-width:1.00;stroke-dasharray:0.001,1.994;stroke-linecap:round;stroke-linejoin:round;"/><path d="M293.95 766.5 M589.14 766.5 " style="stroke:#918f8f;stroke-width:1.00;stroke-linecap:round;stroke-linejoin:round;"/></g><text class="f5782 f5765" font-size="11.00" style="fill:#e6910d"><tspan x="340.50" y="88.21" textLength="200.73" dx="0,0,0,0,0,0,0,-1.01,-1.01,0,0,0,0,0,0,0,0,0,0,-0.91,0,0,0,0,0,0,0,0,0,0,0">INTRASTATE CONFLICT: CONTINUED </tspan>
<tspan x="340.50" y="102.22" textLength="47.87">DECLINE</tspan></text><text class="f1489 f786" font-size="10.00" style="fill:#231f20"><tspan x="340.50" y="133.00" textLength="237.17" dx="0,0.24,0,0,-0.14,0,0,0.14,-0.02,-0.09,0,0,-0.05,-0.03,0.01,0.03,0.07,0,0,0.03,0.27,-0.05,-0.08,0,0,0.15,-0.02,0,0,-0.67,-0.1,-0.28,0.19,-0.04,0,0,0.06,-0.08,0.03,0.24,0.29,0.06,0,0,0.22,0,0,0.07,0.07,0.03,-0.08,0.05,-0.06,0">As we have noted, since the 1970s, roughly 80 percent </tspan>
<tspan x="340.50" y="147.00" textLength="213.33" dx="0,-0.03,0,0,0.21,0.28,0,0,0.2,0.29,-0.01,0.03,0,0,0.07,0.04,0.21,0.28,0,0,0.21,-0.02,0,0,0.03,0.15,0.28,0.27,-0.03,0,0,-0.11,-0.02,0.34,0.28,-0.03,0.13,0.15,0,0,-0.46,0.16,-0.07,0.15,0,0,-0.27,0,0,-0.03,0">of all armed civil and ethnic con&#59905;icts (with 25 or </tspan>
<tspan x="340.50" y="161.00" textLength="236.01" dx="0,-0.04,-0.03,0.06,0,0,0.06,-0.01,0.19,0.15,-0.03,0.21,0.09,0.06,-0.04,0.13,-0.01,0.01,0.03,0,0,0.03,0.11,-0.01,0.15,0.15,0,0,0.07,0.08,0,0,-0.12,0.11,0.2,-0.46,0,0,0.14,-0.02,-0.09,0,0,-0.03,0.31,-0.04,0.23,0.27,0.14,-0.01,0.01,0.03,0,0,0.27,0">more battle-related deaths per year) have originated in </tspan>
<tspan x="340.50" y="175.00" textLength="232.27" dx="0,-0.11,-0.08,0.28,-0.06,0.14,0.31,-0.03,0.08,0,0,0.16,-0.07,0.15,0,0,-0.12,-0.08,0,0.15,0.33,0.34,0.28,0,0,0.12,-0.06,0,0,0.05,0.14,0.35,0.01,0.13,0.2,0.26,0.06,0.08,0,-0.02,0,0,0.05,-0.07,-0.1,0.28,0.13,-0.01,0.13,-0.06,-0.02,0">countries with youthful age structures&#8212;a population </tspan>
<tspan x="340.50" y="189.00" textLength="228.8" dx="0,0.16,-0.07,0.15,0,0,0,0,-0.01,0.03,0.18,0.13,0.21,0,0,0.12,-0.06,0,0,-0.03,0,0,-0.27,0,0,-0.12,0.11,0.2,0.18,0,0,-0.03,0,0,-0.03,0.08,0.11,-0.08,0,0,0.37,-0.02,0.08,0.06,0.07,-0.09,0.08,0,0,0.07,0.04,0.21,0.28,0">with a median age of 25 years or less. Wherever civil </tspan>
<tspan x="340.50" y="203.00" textLength="224.9" dx="0,0.21,-0.02,0,0,0.03,0.15,0.28,0.27,-0.03,0,0,0.04,0.2,0.18,0,0,0.14,-0.02,-0.09,0,0,0.05,-0.01,0.08,0.16,-0.06,0.03,0.07,0,0,0.15,-0.02,0.1,0,0,0.14,-0.02,-0.09,0,0,0.01,0.05,-0.02,0.03,0.03,0,0,-0.04,0">and ethnic wars have emerged, they have tended to </tspan>
<tspan x="340.50" y="217.00" textLength="215.12" dx="0,0.07,0.08,0.18,0.03,0.14,0.05,-0.05,0,0,0.24,-0.02,0,0,-0.02,-0.09,0.08,0.22,0.12,-0.06,0,0,0.27,-0.07,0.14,0.22,0.18,0.05,0.18,-0.01,0.01,0,0,-0.11,-0.02,0.34,0.28,-0.03,0.13,0,0,0.15,0.14,-0.01,0,0,0.09,0.03,0.08,0.21,0">persist. The average intrastate con&#59905;ict that began </tspan>
<tspan x="340.50" y="231.00" textLength="233.29" dx="0,0.09,0.03,0.31,-0.14,0.03,0.05,0,0,-0.67,-0.1,-0.28,0,0,0.21,-0.02,0,0,-0.67,0.08,0.08,0,0,-0.11,-0.02,-0.06,0.13,0.27,-0.12,0.04,0.03,0,0,0.16,-0.07,0.15,-0.05,-0.08,0,0,0,0,0,-0.02,-0.02,0.21,-0.07,-0.12,0.11,0.2,0">between 1970 and 1999 continued without a one-year </tspan>
<tspan x="340.50" y="245.00" textLength="234.46" dx="0,-0.03,0.06,0.11,0.22,0,0,0.27,0,0,0.06,-0.01,0.19,0.15,-0.03,0.21,0.23,0.18,0.11,0.08,0.07,0.07,0.13,-0.01,0.01,0.03,0,0,0.09,-0.01,0.18,0.21,0.26,-0.07,0.13,-0.03,0.08,0,0,-0.09,-0.03,0,0,0.04,0.09,-0.08,0,0,0,0.03,0.32,0,0,-0.12,0.11,0.2,0.18,-0.08,0">break in battle-associated fatalities for about six years. </tspan>
<tspan x="340.50" y="259.00" textLength="215.98" dx="0,0.09,-0.02,-0.01,-0.08,-0.16,0.27,-0.05,0.01,-0.08,0.04,0.18,0.27,-0.03,0,0,0.15,-0.02,0,0,0.38,-0.03,-0.09,-0.04,0.13,0.21,0,0,0.07,0.04,0.21,0.28,0,0,0.04,0.2,-0.44,0,0,-0.06,-0.03,0.36,0.15,-0.02,0.08,0.29,0">Some&#8212;including the Angolan civil war, Northern </tspan>
<tspan x="340.50" y="273.00" textLength="232.31" dx="0,0.21,0.06,-0.04,0.13,0.21,-0.02,0,0,-0.2,0.06,-0.08,0.02,-0.04,-0.03,0.08,-0.04,0,0,-0.09,0.08,0.35,-0.25,-0.51,0,0,0.04,0.2,0,0,0.12,0.08,0.2,0.27,0.15,0.05,0,0,0.15,-0.02,0,0,-0.01,0.27,0.27,0.27,0.27,-0.03,0,0,0.06,-0.01,0.15,-0.01,0">Ireland Troubles, Peru&#8217;s war against the Shining Path, </tspan>
<tspan x="340.50" y="287.00" textLength="220.31" dx="0,0.21,-0.02,0,0,0.15,-0.02,0,0,0.43,0.04,0.24,0.14,0.21,0,0,0.07,0.04,0.21,0.28,0,0,0.04,0.2,-0.15,0.08,0.05,-0.02,-0.03,0.26,0.06,0.03,0,0,-0.09,-0.03,0,0,0.03,0.01,0.06,0.04,0.03,0.08,-0.08,0,0,0.22,0">and the Afghan civil war&#8212;endured for decades. In </tspan>
<tspan x="340.50" y="301.00" textLength="233.97" dx="0,-0.11,-0.02,-0.06,0.14,0.22,0.18,0.05,0,0,0,0.27,-0.06,0.01,0.08,0.18,0.05,0.18,-0.01,0.01,0,0,-0.11,-0.02,0.34,0.28,-0.03,0.13,0.15,0,0,0.15,0.14,-0.01,0,0,0.09,0.03,0.08,0.21,0,0,0.09,0.03,0.31,-0.14,0.03,0.05,0,0,-0.67,-0.1,-0.28,0">contrast, interstate con&#59905;icts that began between 1970 </tspan>
<tspan x="340.50" y="315.00" textLength="208.16" dx="0,0.21,-0.02,0,0,-0.67,0.08,0.08,0,0,0.13,0.18,0.05,0.01,0.03,0.07,0,0,-0.02,0,0,-0.02,-0.09,0.08,0.22,0.12,-0.06,-0.07,0,0,-0.03,0.08,0.11,0,0,0.15,0.14,0.21,0,0,0.31,-0.14,0,0,-0.12,0.11,0.2,0.18,-0.08">and 1999 lasted, on average, less than two years.</tspan>
<tspan x="340.50" y="343.00" textLength="214.94" dx="0,0.19,0.03,0.23,0.27,0.28,0.27,0.27,-0.03,0,0,0.27,0,0,0.15,-0.02,0,0,0.11,0.2,0.02,0.06,0,0,-0.67,0.08,0.17,0.19,-0.04,0,0,0.15,-0.02,0.08,0.06,0,0,0.04,0.18,0,0,0,0,0.15,0.2,0.03,-0.18,0.03,0">Beginning in the early 1990s, there was a marked </tspan>
<tspan x="340.50" y="357.00" textLength="207.15" dx="0,-0.01,0.07,0.03,0.21,0.15,0.03,-0.06,-0.02,0,0,0.27,0,0,0.03,0.18,0.04,0,0,0.21,-0.02,0,0,-0.12,0.28,0.05,0.09,0.08,0,0,-0.03,0,0,0.07,0.11,0.03,-0.08,0,0,0.06,-0.05,-0.09,0.05,-0.03,0.36,0">expansion in size and number of peace support </tspan>
<tspan x="340.50" y="371.00" textLength="205.61" dx="0,-0.07,0.07,0.08,0.22,-0.01,0.13,-0.06,-0.02,0.15,0,0,0.34,0.1,0.06,0.11,-0.16,0,0,0.03,0.04,-0.07,-0.06,-0.08,-0.12,0.03,0,0,0.27,0,0,0.15,-0.02,0,0,0.28,0.33,0.01,0.08,0.29,0.15,-0.01,0.15,0,0,-0.03,0">operations (PSOs) deployed in the aftermath of </tspan>
<tspan x="340.50" y="385.00" textLength="197.43" dx="0,0.27,-0.06,0.14,0.22,0.18,0.05,0.18,-0.01,0.01,0,0,-0.11,-0.02,0.34,0.28,-0.03,0.13,0.15,-0.08,0,0,0.24,-0.02,0,0,0.1,0.06,0.11,-0.04,0,0,-0.07,-0.09,0.07,0.11,0.2,0,0,-0.04,0,0,0.14,-0.02,-0.09,0">intrastate con&#59905;icts. The PSOs, appear to have </tspan>
<tspan x="340.50" y="399.00" textLength="210.42" dx="0,0.17,0.21,-0.08,0.07,0.05,-0.02,0.03,0,0,0.15,-0.02,0,0,0.07,0.08,0.18,0.03,0.14,0.05,0.01,0.05,-0.05,-0.08,0,0,-0.03,0,0,0.08,-0.02,-0.01,0,0,-0.11,-0.02,0.34,0.28,-0.03,0.13,0.15,0,0,0.21,-0.02,0">dampened the persistence of some con&#59905;icts and </tspan>
<tspan x="340.50" y="413.00" textLength="233.9" dx="0,-0.06,0.06,0.07,-0.09,0.05,-0.06,0.01,0.03,0,0,0.15,-0.02,0,0,0.06,0.03,0.05,-0.01,0.08,0.16,-0.06,0.05,-0.05,-0.08,0,0,-0.03,0,0,-0.03,0.15,-0.02,0.08,0.18,-0.08,0,0,0.24,-0.02,0,0,-0.06,0.06,-0.07,0.05,-0.03,0.35,0.13,-0.06,-0.02,0">prevented the reemergence of others. The proportion </tspan>
<tspan x="340.50" y="427.00" textLength="208.41" dx="0,-0.03,0,0,-0.12,-0.08,0,0.15,0.33,0.34,0.28,0,0,-0.11,-0.08,0.28,-0.06,0.14,0.31,-0.03,0.08,0,0,-0.01,0.07,0.07,0.08,0.31,-0.03,0.05,-0.05,0.07,0.27,-0.03,0,0,-0.02,-0.02,0,0,-0.03,0,0,-0.04,-0.03,0.06,0">of youthful countries experiencing one or more </tspan>
<tspan x="340.50" y="441.00" textLength="226.41" dx="0,0.21,-0.06,-0.04,-0.03,0.05,-0.07,0,0,0.27,-0.06,0.14,0.22,0.18,0.05,0.18,-0.01,0.01,0,0,-0.11,-0.02,0.34,0.28,-0.03,0.13,0.15,0,0,0.03,0.01,0.01,0.26,0.27,-0.02,0.03,0,0,0.21,0.06,-0.02,0,0,-0.27,0,0,0.07,0.08,0.03,-0.08,0.05,-0.06,0">violent intrastate con&#59905;icts declined from 25 percent </tspan>
<tspan x="340.50" y="455.00" textLength="209.33" dx="0,0.27,0,0,-0.67,0.08,-0.05,0,0,-0.04,0,0,-0.85,0,0,0.07,0.08,0.03,-0.08,0.05,-0.06,0,0,0.27,0,0,0.08,0.27,-0.06,-0.29,0,0,-0.09,0.11,0.03,-0.08,0.05,0.15,0.22,0.31,0.27,-0.03,0,0,0.21,-0.02,0">in 1995 to 15 percent in 2005. Peacemaking and </tspan>
<tspan x="340.50" y="469.00" textLength="221.84" dx="0,0.14,-0.01,0.13,-0.06,-0.02,0.17,0.17,-0.08,0.26,0.28,-0.03,0.18,0.27,-0.03,-0.28,0.08,0.03,0.08,-0.03,-0.05,-0.07,0.01,0,0,-0.1,0.02,-0.04,0.26,-0.03,0,0,0.21,0.05,-0.03,0.04,0.08,0.21,-0.03,0.05,-0.05,-0.08,0,0,0.04,0.09,-0.08,0,0">nation-building&#8212;despite public ambivalence about </tspan>
<tspan x="340.50" y="483.00" textLength="234.96" dx="0,0.06,0.01,0.01,0,0,-0.01,0.27,-0.09,-0.03,0.35,0.15,0,-0.15,0.14,0.18,0,0,0.21,0.14,0.08,0,0,-0.02,-0.04,-0.09,0.07,0.03,0,0,-0.04,0,0,-0.18,0.03,0.04,0,0,0.03,-0.11,0.16,0,0,0.06,0.18,0.06,0.18,0.21,-0.07,0.13,-0.03,0.08,-0.08">such efforts&#8212;has also helped to keep down casualties.</tspan>
<tspan x="340.50" y="511.00" textLength="233.36" dx="0,0.19,0.07,-0.04,0.31,0.27,-0.03,0,0,-0.09,-0.03,0.46,0.04,0.2,0.05,0.07,0,0,0.15,-0.02,0,0,0.31,0.14,0,0,0,-0.03,0,0,0.27,-0.06,0.14,0.22,0.18,0.05,0.18,-0.01,0.01,0,0,-0.11,-0.02,0.34,0.28,-0.03,0.13,0,0,0.21,0.27,-0.04,0.05,0.05,0">Looking forward, the risk of intrastate con&#59905;ict almost </tspan>
<tspan x="340.50" y="525.00" textLength="218.76" dx="0,-0.08,0.08,0.36,0.18,0.2,0.27,0.29,0.06,0,0,0.16,0.28,0.28,0,0,-0.11,-0.02,-0.06,0.13,0.27,-0.12,0.04,0,0,-0.04,0,0,0.02,0.01,0.01,0.26,0.27,-0.02,0,0,0.27,0,0,-0.11,-0.08,0.28,-0.06,0.14,0.31,-0.03,0.08,0,0,0.21,-0.02,0">certainly will continue to decline in countries and </tspan>
<tspan x="340.50" y="539.00" textLength="217.43" dx="0,0.06,0.03,0.23,-0.06,-0.02,0.15,0,0,0.16,-0.07,0.15,0,0,0.15,-0.01,0.2,0.26,0.31,0.27,-0.03,0,0,0.12,-0.06,0,0,0.05,0.14,0.35,0.01,0.13,0.2,0.26,0.06,0.08,0,0,-0.21,-0.01,0.03,0.18,0.13,0.21,0,0,0.12,-0.06,0">regions with maturing age structures (median age </tspan>
<tspan x="340.50" y="553.00" textLength="218.23" dx="0,0.04,0.09,-0.11,-0.09,0,0,-0.27,0,0,-0.12,0.11,0.2,0.18,-0.16,0.13,0,0,0.22,-0.01,0.13,0.27,0,0,0.38,-0.01,0.07,0.31,-0.03,0.06,0.21,0,0,-0.11,-0.08,0.28,-0.06,0.14,0.31,-0.03,0.08,0,0,0.21,-0.02,0,0,0.15,-0.02,0">above 25 years). Latin American countries and the </tspan>
<tspan x="340.50" y="567.00" textLength="235.09" dx="0,0.07,0.2,0.31,0.03,-0.01,0.09,0.11,0.21,-0.12,-0.38,0.16,-0.07,0.15,0,0,0.15,-0.02,0,0,-0.01,-0.2,-0.08,0.04,-0.05,0.13,-0.06,-0.02,0,0,-0.03,0,0,0.17,-0.04,0.26,0.04,0.21,0.13,0.07,0,0,-0.02,0.18,-0.01,0.01,0.05,0.15,0.21,0.13,0.07,0">Caribbean&#8212;with the exception of Bolivia, Guatemala, </tspan>
<tspan x="340.50" y="581.00" textLength="200.6" dx="0,0.09,0.2,-0.07,0.13,-0.02,0,0,0.21,-0.02,0,0,0.06,0.2,0.22,0.12,0.22,0.18,0.01,-0.39,-0.38,0.16,0.28,0.28,0,0,0.09,0,0,-0.06,0.03,0.19,0.13,0.27,-0.03,0,0,-0.04,-0.03,0.03,0.08,0,0,0.21,-0.02,0">Haiti, and Paraguay&#8212;will be getting older and </tspan>
<tspan x="340.50" y="595.00" textLength="219.98" dx="0,0.15,-0.02,0.08,0.06,-0.01,-0.09,-0.03,0.06,0,0,-0.06,-0.11,-0.14,0.08,0.31,0.27,-0.03,0,0,0.15,-0.02,0.08,0.26,0,0,0.31,0.14,0,0.19,-0.08,0,0,0.01,0.27,0.28,0.28,0.13,0.2,0.02,0.06,-0.75,0,0,0.15,-0.02,0,0,0.31,0.14,0,0,0,-0.03,0">therefore lowering their risks. Similarly, the risk of </tspan>
<tspan x="340.50" y="609.00" textLength="239.31" dx="0,0.27,-0.06,0.14,0.22,0.18,0.05,0.18,-0.01,0.01,0,0,-0.11,-0.02,0.34,0.28,-0.03,0.13,0.15,0,0,0.16,0.28,0.28,0,0,-0.06,0.06,-0.01,0.06,0.04,-0.04,0.06,0,0,0.03,0.01,0.01,0.26,0.27,-0.02,0,0,0.27,0,0,-0.11,-0.02,-0.06,0.13,0.27,-0.02,0.05,-0.06,0.18,0.21,0">intrastate con&#59905;icts will probably decline in continental </tspan>
<tspan x="340.50" y="623.00" textLength="224.44" dx="0,0.22,0.18,0.05,0,0,0.24,0.03,0.13,-0.19,-0.38,0.02,-0.02,0.08,0.06,0,0,0.15,0.21,-0.04,0,0,-0.11,-0.08,0.28,-0.06,0.14,0.31,-0.03,0.08,0,0,0.2,0.06,0,0,0.12,0.23,0.27,-0.03,0,0,0,0.26,-0.03,0.02,0.33,0.06,-0.79,0">East Asia&#8212;where many countries are aging quickly. </tspan>
<tspan x="340.50" y="637.00" textLength="222.94" dx="0,-0.05,-0.11,-0.14,0.07,-0.09,0.07,-0.44,0,0,0.15,-0.02,0,0,0.31,0.14,0,0,0,0.16,0.28,0.28,0,0,0.06,0.05,0.15,0.2,0.27,0,0,0.27,-0.04,0.24,0,0,-0.03,0.26,0.31,0.27,-0.03,0,0,0.15,-0.02,0,0,-0.02,-0.01,0.25,0">However, the risk will remain high during the next </tspan>
<tspan x="340.50" y="651.00" textLength="234.17" dx="0,0.31,-0.14,0,0,0.03,0.01,0.06,0.04,0.03,0.08,0,0,0.27,0,0,-0.14,0.08,0.05,0.01,0.08,0.29,-0.01,0,0,-0.08,0.05,-0.07,0.14,0.22,0.21,-0.02,0,0,0.21,-0.02,0,0,0.11,0.18,0.05,0.01,0.08,0.29,0,0,0.04,-0.03,0.36,0.13,-0.06,-0.02,0.15,0">two decades in western, central, and eastern portions </tspan>
<tspan x="340.50" y="665.00" textLength="231.56" dx="0,-0.03,0,0,-0.04,0.02,0.36,0.29,0.08,0.21,0.14,0.2,0.22,0.21,0,0,0.43,0.21,0.31,-0.03,0.06,0.21,0,0,0.27,0,0,0.03,0.2,0.35,0.15,0,0,-0.03,0,0,0.15,-0.02,0,0,0.23,-0.03,0.03,0.2,-0.03,0,0,0.22,0.18,0.05,0,0,0.21,-0.02,0">of Sub-Saharan Africa; in parts of the Middle East and </tspan>
<tspan x="340.50" y="679.00" textLength="239.69" dx="0,0.09,-0.08,0,0.15,0,0,0.24,0.03,0.13,0.21,0,0,0.21,-0.02,0,0,0.27,0,0,0.09,0.07,-0.09,0.08,0.22,0.21,0,0,0.24,0.03,0.13,0.21,0.17,0.17,0.06,0.03,0.07,0.33,-0.01,0,0,0.14,-0.01,0.13,0.21,-0.02,0,0,-0.05,-0.03,0.15,-0.03,0.05,-0.03,0.15,0.21,0">South Asia; and in several Asian-Paci&#59904;c island hotspots: </tspan>
<tspan x="340.50" y="693.00" textLength="215.73" dx="0,-0.06,0.27,-0.04,-0.03,0,0,0.21,0.08,0.05,0.01,-0.07,0,0,0.06,-0.07,-0.1,0.18,0,0,-0.06,0.06,0,0,-0.02,0.26,0.27,-0.02,0.11,0.07,0,0,-0.08,0.27,0.28,0.26,-0.09,-0.09,-0.05,0.27,-0.02,0.08,-0.04,0,0,0.21,-0.02,0">Timor Leste, Papua New Guinea, Philippines, and </tspan>
<tspan x="340.50" y="707.00" textLength="170.19" dx="0,0.09,-0.04,-0.06,-0.02,-0.04,-0.02,0,0,0.09,-0.01,0.13,0.21,-0.02,0.14,-0.08,0,0,0.1,0.12,0.03,0,0,0.15,-0.07,0,0,-0.02,0,0,0.03,0.12,-0.06,0,0,-0.12,0.05,-0.29">Solomon Islands. (See map on page 22.)</tspan></text><text class="f1481 f779" font-size="14.00" style="fill:#e6910d"><tspan x="138.00" y="89.01" textLength="112.0" class="f5782 f5765" font-size="12.00">GAME-CHANGER 3</tspan>
<tspan x="138.00" y="108.15" textLength="141.16">THE POTENTIAL FOR </tspan>
<tspan x="138.00" y="124.95" textLength="149.8">INCREASED CONFLICT</tspan></text><text class="f1489 f786" font-size="10.00" style="fill:#231f20"><tspan x="75.00" y="161.00" textLength="214.38" dx="0,0.22,0.14,0.05,-0.04,-0.03,0.31,-0.03,0.06,0.21,0,0,0.14,0.06,0.05,-0.02,0.14,0,0,-0.11,-0.09,0.08,0,0,0.15,-0.02,0,0,0.03,0.18,0.05,0,0,0.31,-0.14,0,0,0.03,0.01,0.06,0.04,0.03,0.08,0,0,-0.01,-0.05,-0.11,0">Historical trends over the past two decades show </tspan>
<tspan x="75.00" y="175.00" textLength="214.36" dx="0,-0.09,0.06,-0.14,0.08,0,0,0.15,-0.06,-0.01,-0.03,0,0,0.2,0.29,-0.01,0.03,0,0,-0.11,-0.02,0.34,0.28,-0.03,0.13,0.15,0,0,0.21,-0.02,0.07,0,0,0.02,-0.02,0.08,0.06,0,0,-0.11,-0.02,0.34,0.28,-0.03,0.13,0.15,0">fewer major armed con&#59905;icts and, where con&#59905;icts </tspan>
<tspan x="75.00" y="189.00" textLength="240.48" dx="0,0.06,0.05,0.15,0.2,0.27,-0.01,0,0,-0.09,0.06,-0.14,0.08,0,0,0.07,0.04,0.21,0.28,0.26,0.13,0.21,0,0,0.21,-0.02,0,0,0.28,0.28,0.26,-0.07,0.18,0.2,0.5,0,0,0.06,0.18,0.06,0.18,0.21,-0.07,0.13,-0.03,0.08,-0.08,0,0,0.1,-0.01,0.2,0.26,0.31,0.27,-0.03,0">remain, fewer civilian and military casualties. Maturing </tspan>
<tspan x="75.00" y="203.00" textLength="230.84" dx="0,0.12,-0.06,0,0,0.05,0.14,0.35,0.01,0.13,0.2,0.26,0.06,0.08,0,0,0.27,0,0,0.15,0.21,-0.04,0,0,0.03,0.07,-0.09,-0.04,-0.06,-0.07,-0.05,0.27,-0.03,0,0,0.05,0.18,-0.01,0.01,0.08,0,0,0.05,-0.03,0.27,-0.06,0,0,-0.04,0,0,0.15,-0.02,0">age structures in many developing states point to the </tspan>
<tspan x="75.00" y="217.00" textLength="220.39" dx="0,0.26,0.28,-0.18,-0.04,0.26,0.27,-0.05,0.07,0.09,0,0,-0.03,0,0,-0.11,-0.02,-0.06,0.13,0.27,-0.12,0.26,0.27,-0.03,0,0,0.03,0.01,0.01,0.26,0.27,-0.02,0.08,0,0,0.27,0,0,0.15,-0.02,0,0,-0.12,0.28,0.05,0.09,0.08,0,0,-0.03,0">likelihood of continuing declines in the number of </tspan>
<tspan x="75.00" y="231.00" textLength="241.13" dx="0,0.27,-0.06,0.14,0.22,0.18,0.05,0.18,-0.01,0.01,0,0,-0.11,-0.02,0.34,0.28,-0.03,0.13,0.15,-0.08,0,0,0.22,0,0,-0.11,-0.02,-0.06,0.14,0.22,0.18,0.05,0,0,0,0.15,-0.02,0,0,0.01,0.14,0.21,-0.05,-0.08,0,0,-0.03,0,0,0.27,-0.06,0.01,0.08,0.18,0.05,0.18,-0.01,0.01,0">intrastate con&#59905;icts. In contrast, the chance of interstate </tspan>
<tspan x="75.00" y="245.00" textLength="222.81" dx="0,-0.11,-0.02,0.34,0.28,-0.03,0.13,0,0,0,0.27,-0.05,0.01,-0.08,0.04,0.18,0.27,-0.03,0,0,-0.02,-0.02,0,0,0.15,0.14,-0.01,0,0,-0.11,-0.08,0.28,-0.03,0,0,0.19,0.22,-0.02,0,0,0.27,0,0,0.15,-0.02,0,0,0.23,0.06,0.11,-0.01,0">con&#59905;ict, including one that could draw in the great </tspan>
<tspan x="75.00" y="259.00" textLength="206.91" dx="0,0.05,-0.11,-0.14,0.08,0.18,-0.04,0,0,0.21,-0.07,0.15,-0.05,-0.08,0.03,0.24,0,0,0.27,0.14,0.05,-0.04,-0.03,0.31,-0.03,0.06,0.21,0.28,0.06,0,0,-0.06,-0.11,-0.77,0,0,0.14,0,0,0.31,0.14,0.03,0.27,-0.03,-0.1,0,0,0.24,-0.02,0">powers, although historically low, is rising. The </tspan>
<tspan x="75.00" y="273.00" textLength="227.93" dx="0,0.23,0.06,0.11,-0.01,0,0,0.05,-0.11,-0.14,0.07,0.18,0,0,-0.14,-0.08,0.28,-0.03,0,0,-0.05,-0.03,0,0,0.04,0.21,-0.06,0,0,-0.04,0,0,0.05,-0.03,0.08,0.12,-0.06,0,0,0.27,0,0,0.27,-0.06,0.01,0.07,0.18,0.05,0.18,-0.01,0.01,0">great powers would not want to engage in interstate </tspan>
<tspan x="75.00" y="287.00" textLength="222.77" dx="0,-0.11,-0.02,0.34,0.28,-0.03,0.13,0,0,0.09,0.01,0.06,-0.09,0.15,0.09,0,0,-0.04,0.07,0,0,-0.11,0.01,0.01,0,0,-0.14,-0.08,0.28,-0.03,0,0,0.09,0,0,-0.01,0,0,0.05,0.18,0.22,-0.18,-0.11,0,0,0.24,-0.02,0.08,0.26,0">con&#59905;ict because too much would be at stake. Their </tspan>
<tspan x="75.00" y="301.00" textLength="221.25" dx="0,0.15,0.2,0.27,0,0,-0.01,-0.06,0.01,0.01,0.13,0.13,0.04,-0.09,0,0,0.14,0,0,0.01,-0.11,-0.02,-0.05,-0.02,0.28,-0.03,0,0,0.03,0.07,-0.09,-0.04,-0.06,-0.07,-0.04,-0.01,0.05,-0.06,0,0,0,0.21,-0.02,0,0,0.15,-0.02,0.1,0">main objective is economic development, and they </tspan>
<tspan x="75.00" y="315.00" textLength="238.52" dx="0,0.33,-0.05,-0.11,0,0,0.15,0.14,-0.01,0,0,-0.11,-0.02,0.34,0.28,-0.03,0.13,0,0,-0.11,-0.08,0.28,-0.03,0,0,0.11,0.18,0.03,0.28,0.06,0,0,0.03,0.08,0.22,0.2,0.28,0,0,0.15,0.14,-0.01,-0.05,0,0,0.24,-0.02,0,0,-0.12,0.01,0.01,-0.03,0.11,0.2,0">know that con&#59905;ict could easily derail that. The nuclear </tspan>
<tspan x="75.00" y="329.00" textLength="233.86" dx="0,-0.11,-0.02,-0.06,0.01,-0.01,0.25,0,0,0.21,0.14,0.08,0,0,0.15,0.22,-0.18,0.08,0,0,0.15,-0.02,0,0,-0.11,0.05,0.05,0,0,-0.03,0,0,0.04,0.2,0,0,-0.06,0.06,-0.05,0.27,0.03,-0.03,-0.07,0.13,0.04,-0.09,-0.04,0.06,0,0,0.27,-0.04,0.24,-0.04,0">context also makes the cost of war prohibitively high. </tspan>
<tspan x="75.00" y="343.00" textLength="240.97" dx="0,-0.06,0.07,-0.09,0.08,0.35,0.15,-0.02,-0.04,-0.03,0.08,0.11,-0.04,0,0,0.28,0.14,0.09,0.06,0.21,-0.03,0.12,0.28,0.13,-0.01,0.13,-0.06,-0.02,0,0,-0.06,0,0,0.21,-0.04,0,0,-0.02,-0.02,0,0,-0.07,0.13,0.01,-0.12,0.08,0,0,0.06,0.05,0.15,0.2,0.27,0.15,0">Nevertheless, miscalculation by any one player remains </tspan>
<tspan x="75.00" y="357.00" textLength="53.25" dx="0,0,0,0.05,0.05,0.11,0.03,0.03,-0.03,0.28,0.26,-0.07,0.34,-0.79">a possibility.</tspan>
<tspan x="75.00" y="385.00" textLength="218.49" dx="0,0.24,-0.02,0,0,0.25,-0.06,-0.01,0.06,0.21,0.26,0.18,0.16,0.27,-0.03,0,0,0.05,-0.07,0.21,0.26,0.06,-0.02,0.28,-0.01,0.05,-0.06,0,0,-0.11,-0.09,0.08,0,0,0.15,-0.02,0,0,0.03,0.18,0.05,0,0,0.09,0.07,-0.09,0.08,0.22,0.21,0">The globalizing environment over the past several </tspan>
<tspan x="75.00" y="399.00" textLength="225.67" dx="0,0.03,0.01,0.06,0.04,0.03,0.08,0,0,0.01,0.14,0.2,0.22,0.03,0.13,0.01,0.08,0.31,0.18,0.04,0.03,0,0,-0.06,0,0,0.23,0.06,-0.11,0.16,0.27,-0.03,0,0,0.27,-0.06,0.01,0.08,0.05,0.03,0.04,0.07,0.05,-0.02,0.03,0.05,-0.05,-0.08,0">decades characterized by growing interdependence </tspan>
<tspan x="75.00" y="413.00" textLength="232.27" dx="0,-0.11,-0.08,0.28,-0.03,0,0,0.01,0.14,0.21,-0.03,-0.06,-0.07,0,0,0.03,0.2,0.36,0.13,-0.03,0.12,0.28,0.13,0.2,0.02,0.06,0,0,0.18,0,0,0.01,-0.11,-0.02,-0.05,-0.02,0.28,-0.03,0,0,0.23,0.06,-0.11,0.36,0.15,0,0,-0.01,-0.06,-0.11,0.05,0">could change, particularly as economic growth slows </tspan>
<tspan x="75.00" y="427.00" textLength="226.49" dx="0,0.27,0,0,0.15,0.21,-0.04,0,0,-0.11,-0.08,0.28,-0.06,0.14,0.31,-0.03,0.08,0,0,0.21,-0.02,0,0,0.15,-0.02,0,0,0.25,-0.06,-0.01,0.06,0.21,0,0,0.01,-0.11,-0.02,-0.05,-0.02,-0.01,0,0,0.09,0.01,-0.11,-0.02,-0.01,0.08,0">in many countries and the global economy becomes </tspan>
<tspan x="75.00" y="441.00" textLength="225.16" dx="0,-0.04,-0.03,0.06,0,0,-0.1,-0.04,0.13,-0.01,0.13,0.28,-0.03,0,0,0.21,-0.02,0,0,0.05,-0.03,0.01,0.05,-0.07,0.13,0.13,0.21,0.28,0.06,0,0,0.07,0.31,0.14,0.03,0.14,0.29,0.08,-0.06,0.06,-0.02,-0.02,-0.11,0,0,0.22,0,0,0,0,-0.04,-0.03,0.06,0">more volatile and potentially crisis-prone. In a more </tspan>
<tspan x="75.00" y="455.00" textLength="219.85" dx="0,-0.11,-0.02,-0.08,0.07,0.03,0.13,-0.07,0.13,0.04,-0.09,0,0,-0.01,0.15,-0.04,0.05,-0.03,-0.07,-0.02,0.08,0.06,-0.07,0,0,0.23,0.06,0.11,-0.01,0,0,0.05,-0.11,-0.14,0.08,0,0,-0.11,-0.02,0.34,0.28,-0.03,0.13,0,0,0.15,0.01,0">competitive atmosphere, great power con&#59905;ict may </tspan>
<tspan x="75.00" y="469.00" textLength="218.13" dx="0,-0.05,-0.03,0,0,0.09,0,0,0.27,-0.05,-0.11,-0.02,-0.05,-0.08,0.08,0.04,0.08,0.04,-0.04,-0.03,-0.11,0,0,0.12,0.07,-0.09,0.08,0.22,0.21,0,0,0.06,0.03,0.23,-0.06,-0.02,0.15,-0.01,-0.1,0.15,-0.02,0,0,0.23,-0.03,0.03,0.2,-0.03,0">not be inconceivable. Several regions&#8212;the Middle </tspan>
<tspan x="75.00" y="483.00" textLength="228.44" dx="0,0.22,0.18,0.05,0,0,0.21,-0.02,0,0,0.09,-0.08,0,0.15,0,0,0.24,0.03,0.13,-0.19,-0.02,-0.07,-0.09,0.07,0.11,0.2,0,0,0.03,0.2,0.36,0.13,-0.03,0.12,0.28,0.13,0.2,0.02,0.06,0,0,0.06,0.15,0.09,-0.08,0.04,-0.05,0.13,0.03,-0.04,-0.03,0">East and South Asia&#8212;appear particularly susceptible </tspan>
<tspan x="75.00" y="497.00" textLength="227.98" dx="0,-0.04,0,0,-0.08,0,0.01,-0.03,0.06,0.11,0.22,0.19,0,0,-0.03,0,0,0.13,0.2,0.16,-0.06,0.21,0.24,0.09,0.06,0.21,-0.03,0,0,0.21,-0.06,-0.04,-0.03,0.05,-0.05,-0.08,0,0,0.03,0.08,-0.03,-0.05,-0.07,0.01,0,0,0.15,-0.02,0,0,-0.11,0.05,0.05,0.15,0">to outbreaks of large-scale violence despite the costs </tspan>
<tspan x="75.00" y="511.00" textLength="215.78" dx="0,-0.04,0,0,0.15,-0.02,0.05,0.16,0.09,-0.04,0.04,-0.09,0.08,0,0,0.21,-0.02,0,0,-0.03,0.15,-0.02,0.08,0.18,-0.08,0,0,0.1,0.21,-0.04,0,0,-0.01,0.07,0.07,0.08,0.36,0.15,0,0,0.21,0.14,0.08,0,0,0.14,-0.02,-0.09,0">to themselves and others. Many experts also have </tspan>
<tspan x="75.00" y="525.00" textLength="208.63" dx="0,-0.04,0.2,0.05,-0.03,0.15,-0.02,0.08,0.03,0.18,0.04,0.03,0,0,0.15,0.14,-0.01,0,0,0.23,0.06,-0.11,0.16,0.27,-0.03,0,0,0.06,0.08,0.08,-0.08,0.26,0.03,-0.08,0,0,-0.11,-0.02,0.15,0.05,0.14,0.22,0.2,0.27,-0.06,0.15,0">hypothesized that growing resource constraints </tspan>
<tspan x="75.00" y="539.00" textLength="189.62" dx="0,-0.11,-0.02,0.05,-0.03,0.27,-0.02,0.03,0,0,0.16,-0.07,0.15,0,0,0.15,-0.02,0,0,0.05,0.05,0.11,0.03,0.03,-0.03,0.28,0.26,-0.07,0.34,0,0,-0.03,0,0,0.27,-0.05,0.07,0.06,0.11,0.18,0.03,0.27,-0.03,0">combined with the possibility of increasing </tspan>
<tspan x="75.00" y="553.00" textLength="219.18" dx="0,0.05,-0.07,0.21,0.26,0.06,-0.02,0.28,-0.01,0.05,-0.06,0.18,0.21,0,0,0.03,0.03,0.23,0.22,0.04,0.17,-0.01,0.13,-0.06,-0.02,0,0,0.15,0.01,0,0,0.09,0,0,0,0,0.13,-0.09,-0.09,-0.05,0.27,-0.03,0,0,0.04,-0.03,0.27,-0.06,0">environmental degradation may be a tipping point </tspan>
<tspan x="75.00" y="567.00" textLength="217.5" dx="0,-0.09,-0.03,0,0,0.08,0.07,0.07,-0.03,0.03,0.13,-0.03,0.08,0,0,0.21,0.26,0.06,0.11,0.04,0.11,0,0,0.05,0.14,0.35,0.03,0.19,0.25,0.26,0.27,-0.03,0,0,0.21,-0.02,0,0,-0.03,0.11,0.04,0,0,-0.04,0,0,0.23,0.06,0.11,-0.01,0.01,0.08,0">for societies already struggling and lead to greater </tspan>
<tspan x="75.00" y="581.00" textLength="212.52" dx="0,0.27,-0.06,0.14,0.22,0.1,0,0,-0.03,0,0,0.27,-0.06,0.01,0.08,0.18,0.05,0.18,-0.01,0.01,0,0,-0.11,-0.02,0.34,0.28,-0.03,0.13,-0.05,0,0,-0.11,0.27,0.14,0.21,0.28,0.06,-0.75,0,0,0.28,0.29,0.26,0.28,-0.18,0,0,-0.03,0.26,0.31,0.27,-0.03,0">intra- or interstate con&#59905;ict. Finally, unlike during </tspan>
<tspan x="75.00" y="595.00" textLength="227.81" dx="0,-0.06,0.06,0.07,0.21,-0.06,-0.08,0.15,0,0,0.07,0.08,0.31,-0.06,0.09,0.14,-0.04,0,0,0.13,0.2,0.16,-0.06,0.21,0.24,0.09,0.06,0.21,-0.03,0,0,0.21,-0.06,-0.04,-0.03,0.05,-0.05,-0.08,0,0,0.14,0,0,0.27,-0.05,0.07,0.06,0.11,0.18,0.03,0.27,-0.03,0.25,0.06,0">previous periods, large-scale violence is increasingly </tspan>
<tspan x="75.00" y="609.00" textLength="227.31" dx="0,-0.05,0,0,-0.06,-0.02,-0.03,-0.06,0.08,0,0,0.15,-0.02,0,0,-0.04,-0.02,-0.05,-0.07,0.05,-0.04,0.06,0,0,-0.03,0,0,0.15,-0.02,0,0,0.05,0.18,-0.01,0.01,-0.11,0,0,0.22,-0.02,0.18,0.04,0.2,-0.03,-0.03,0.18,0.21,0.14,0,0,0.21,-0.02,0">no longer the monopoly of the state. Individuals and </tspan>
<tspan x="75.00" y="623.00" textLength="213.48" dx="0,0.02,0.15,0.21,0.28,0,0,0.23,0.06,-0.08,-0.05,0.03,0,0,0.16,0.28,0.28,0,0,0.14,-0.02,-0.09,0,0,0.03,-0.09,-0.08,0.08,0.11,0,0,-0.04,0,0,0.32,0.22,0,0,0.21,-0.02,0,0,0.26,0.1,0.09,0.08,0">small groups will have access to WMD and cyber </tspan>
<tspan x="75.00" y="637.00" textLength="215.92" dx="0,0.27,0.15,0.05,0.14,0.35,0.28,-0.01,0.05,-0.06,0.15,0,0,0.06,-0.07,0.03,0.04,-0.04,-0.03,0,0,-0.03,0,0,0.06,-0.09,0.15,0.03,0.27,-0.03,0,0,0.15,0.18,0.11,0.03,0.04,-0.09,0,0,0.14,0.2,0.29,0,0,0.21,-0.02,0">instruments capable of causing massive harm and </tspan>
<tspan x="75.00" y="651.00" textLength="99.43" dx="0,0.16,-0.03,0.03,0.08,-0.03,-0.06,0.06,0.11,0.04,0,0,0.18,0.14,0,0.35,-0.05,-0.05,0.13,-0.06,-0.02,-0.04">widespread disruption.</tspan></text><path d="M101.62 72.81 c14.7 0 26.62 11.92 26.62 26.62 c0 14.05 -10.88 25.54 -24.67 26.54 l-28.58 0.08 l0 -28.58 c1.08 -13.79 12.58 -24.67 26.62 -24.67 " style="fill:#e6910d;"/><path d="M119.16 98.66 l-5.2 -9.24 c-0.06 -0.1 -0.16 -0.16 -0.27 -0.16 l-12.26 0.19 c-0.17 0 -0.3 0.15 -0.3 0.31 l-1.48 3.12 l-4.17 -2.42 c-0.09 -0.05 -0.21 -0.06 -0.3 0 l-10.22 5.73 c-0.13 0.07 -0.19 0.23 -0.14 0.37 l-0.03 12.27 c0 0.11 0.06 0.21 0.15 0.27 l9.69 5.59 c0.02 0.22 0.26 0.34 0.45 0.23 l1.07 -0.6 l9.28 -5.22 c0.1 -0.05 0.16 -0.16 0.16 -0.27 l0 -1.2 l7.69 -0.01 c0.1 0 0.2 -0.05 0.26 -0.14 l4.79 -7.27 l0.13 -0.2 l0.67 -1.02 c0.06 -0.09 0.07 -0.22 0.01 -0.32 M95.54 100.44 l-0.11 -0.19 l0.07 0.21 c-0.26 0.09 -0.56 0.11 -0.84 0.07 l-6.23 -3.65 c-0.21 -0.29 -0.19 -0.53 -0.03 -0.74 l6.61 -3.73 c0.22 -0.05 0.36 -0.05 0.5 -0.04 l3.56 2.04 l2.92 1.69 c0.2 0.28 0.19 0.52 0.04 0.72 l-1.36 0.77 c-0.09 0.05 -0.28 0.16 -0.68 0.38 l-1.59 0.88 l-2.87 1.59 z M103.99 107.43 c-0.16 0.44 -0.42 0.78 -0.71 0.96 c0 0 -1.65 1 -1.66 1 l-4.94 2.78 c-0.24 -0.01 -0.29 -0.03 -0.33 -0.07 c-0.08 -0.17 -0.1 -7.19 -0.1 -7.2 l0.03 -1.14 c0.02 -0.59 0.42 -1.25 0.92 -1.51 l6.03 -3.14 c0.22 -0.12 0.45 -0.13 0.63 -0.03 l0.12 0.19 c0 0 0.01 2.98 0.01 2.98 l-0.01 0.23 c0 0 0.01 0.5 0.01 0.5 l0.01 2.57 l0 1.84 z M116.03 100.77 l-3.08 4.68 l-0.18 -0.12 l0.15 0.16 c-0.22 0.2 -0.54 0.38 -0.88 0.5 l-6.36 0.02 l-0.21 0 l-0.01 -0.21 l-0.07 -2.77 c0.04 -0.13 0.68 -1.05 0.68 -1.06 l0.89 -1.21 c0.32 -0.29 0.74 -0.49 1.18 -0.59 l7.27 -0.03 c0.35 0.07 0.57 0.23 0.65 0.44 l-0.02 0.2 z M116.32 97 c-0.07 0.32 -0.38 0.52 -0.82 0.52 c0 0 -1.59 0.02 -1.59 0.02 l-5.76 0.06 c-0.54 -0.09 -1.01 -0.38 -1.2 -0.72 c0 0 -2.44 -4.3 -2.44 -4.3 l-0.42 -0.75 c-0.14 -0.32 -0.05 -0.62 0.22 -0.78 l8.16 -0.16 c0.27 0.08 0.46 0.18 0.61 0.3 l3.21 5.65 z " style="fill:#ffffff;"/><path d="M94.94 94.67 c-0.8 0 -2.04 0.44 -1.94 1.44 c0.09 0.9 1.19 1.24 1.95 1.24 c0.8 0 2.04 -0.44 1.94 -1.44 c-0.09 -0.89 -1.19 -1.24 -1.95 -1.24 " style="fill:#ffffff;"/><path d="M108.45 92.14 c-0.68 -0.2 -1.58 0.01 -1.81 0.77 c-0.22 0.76 0.43 1.42 1.11 1.62 c0.67 0.2 1.58 -0.01 1.81 -0.76 c0.22 -0.75 -0.43 -1.42 -1.11 -1.62 " style="fill:#ffffff;"/><path d="M111.7 94.15 c-0.7 0.37 -0.77 1.24 -0.26 1.81 c0.49 0.54 1.37 0.74 2.03 0.4 c0.71 -0.37 0.77 -1.24 0.26 -1.81 c-0.49 -0.54 -1.37 -0.74 -2.03 -0.4 " style="fill:#ffffff;"/><path d="M110.16 101.75 c-0.67 -0.01 -1.36 0.42 -1.45 1.13 c-0.1 0.81 0.66 1.39 1.4 1.41 c0.67 0.01 1.36 -0.42 1.45 -1.13 c0.1 -0.81 -0.66 -1.39 -1.4 -1.41 " style="fill:#ffffff;"/><path d="M98.37 102.93 c-1.68 0.26 -1.81 3.47 0.08 3.18 c1.68 -0.26 1.81 -3.48 -0.08 -3.18 " style="fill:#ffffff;"/><path d="M101.7 107.86 c1.55 -0.24 1.66 -3.19 -0.08 -2.92 c-1.55 0.24 -1.66 3.19 0.08 2.92 " style="fill:#ffffff;"/><path d="M15 21 l-15 0 M639 21 l15 0 M15 813 l-15 0 M639 813 l15 0 M21 15 l0 -15 M21 819 l0 15 M633 15 l0 -15 M633 819 l0 15 " style="stroke:#ffffff;stroke-width:1.25;"/><path d="M15 21 l-15 0 M639 21 l15 0 M15 813 l-15 0 M639 813 l15 0 M21 15 l0 -15 M21 819 l0 15 M633 15 l0 -15 M633 819 l0 15 " style="stroke:#000000;stroke-width:0.25;"/>
</svg>
