<svg class="crocodoc-2jt6Qd crocodoc-page-svg" version="1.1"
    xmlns="http://www.w3.org/2000/svg"
    xmlns:xlink="http://www.w3.org/1999/xlink"
    xmlns:xhtml="http://www.w3.org/1999/xhtml"
    xml:space="preserve" width="654.0pt" height="834.0pt" viewBox="0 0 654.0 834.0">
<xhtml:link href="stylesheet.css" type="text/css" rel="stylesheet" />
<style>
.crocodoc-2jt6Qd tspan { white-space:pre; }
.crocodoc-2jt6Qd path { fill:transparent; }

</style>
<defs>
<mask id="Mask_15_70_2jt6Qd">
<g ><path d="M3 831 l648 0 l0 -828 l-648 0 l0 828 " style="fill:url(#Grad_16_70_2jt6Qd);"/></g></mask>
<linearGradient id="Grad_16_70_2jt6Qd" x1="44.82%" y1="92.27%" x2="90.53%" y2="92.27%"><stop offset="0.00" style="stop-color:#ffffff" /><stop offset="0.25" style="stop-color:#eeeeee" /><stop offset="0.50" style="stop-color:#bdbdbd" /><stop offset="0.75" style="stop-color:#6d6d6d" /><stop offset="1.00" style="stop-color:#000000" /></linearGradient>
</defs>

<g style="opacity:0.40;" ><path d="M71.97 751.59 c0.77 -0.59 1.54 -1 2.32 -1.22 c0.78 0.14 1.43 0.38 1.9 0.71 c-0.44 0 -0.88 0.01 -1.32 0.05 c-0.96 0.07 -1.93 0.23 -2.9 0.46 M70.58 751.73 c-0.17 -0.35 -0.34 -0.64 -0.48 -0.88 c-0.05 -0.08 -0.1 -0.16 -0.15 -0.23 c0.57 -0.14 1.16 -0.25 1.75 -0.32 c0.08 -0.01 0.17 -0.02 0.26 -0.02 c0.12 -0.01 0.24 -0.02 0.35 -0.02 c-0.59 0.38 -1.17 0.87 -1.73 1.48 M71.79 756.57 c-0.73 0.19 -1.47 0.32 -2.2 0.38 c-0.46 0.03 -0.92 0.04 -1.37 0.01 c0.64 -1.48 1.37 -2.76 2.18 -3.83 c0.42 0.94 0.89 2.1 1.39 3.44 M72.35 752.35 c0.71 -0.14 1.42 -0.24 2.12 -0.29 c0.83 -0.06 1.66 -0.06 2.48 -0.01 c0.16 0.53 0.01 1.14 -0.44 1.76 c-1.37 -0.66 -2.77 -1.15 -4.16 -1.47 M77.8 754.49 c0.53 -0.76 0.75 -1.53 0.63 -2.26 c2.4 0.39 4.61 1.32 6.39 2.7 c0.59 1.34 0.26 2.92 -0.93 4.48 c-1.73 -1.95 -3.83 -3.65 -6.09 -4.92 M77.37 750.55 c1.2 0.27 2.36 0.68 3.46 1.22 c-0.91 -0.28 -1.86 -0.48 -2.85 -0.59 c-0.17 -0.23 -0.37 -0.44 -0.61 -0.63 M82.93 760.48 c-1.62 1.59 -4.03 2.99 -6.82 3.97 c-0.85 -2.48 -1.77 -4.88 -2.67 -6.97 c1.44 -0.53 2.71 -1.27 3.59 -2.11 c2.19 1.34 4.22 3.11 5.9 5.12 M67.37 751.87 c-0.23 0.02 -0.46 0.04 -0.69 0.07 c0.52 -0.33 1.13 -0.63 1.77 -0.88 c0.13 -0.05 0.25 -0.09 0.39 -0.13 c0.23 0.16 0.54 0.51 0.87 0.98 c-0.8 -0.09 -1.59 -0.1 -2.33 -0.05 M71.19 776.65 c2.06 -0.15 4.16 -0.53 6.23 -1.12 c0.37 1.66 0.63 3.04 0.77 4.12 l0.03 0.2 c0.03 0.28 0.06 0.5 0.07 0.71 c-1.08 0.5 -2.22 0.71 -3.36 0.79 c-1.93 0.14 -3.84 -0.05 -5.68 -0.59 c-0.12 -0.13 -0.17 -0.18 -0.22 -0.24 c-0.88 -1.02 -1.56 -2.31 -2.08 -3.9 c1.36 0.12 2.79 0.13 4.25 0.02 M76.89 773.26 c-2.03 0.58 -4.09 0.95 -6.12 1.11 c-1.53 0.12 -3.02 0.1 -4.42 -0.05 c-0.2 -0.98 -0.33 -2.01 -0.41 -3.07 c-0.09 -1.18 -0.1 -2.4 -0.05 -3.65 c1.22 0.12 2.5 0.13 3.81 0.03 c1.79 -0.13 3.61 -0.46 5.41 -0.97 c0.68 2.32 1.28 4.54 1.78 6.61 M69.56 765.83 c-1.22 0.09 -2.41 0.08 -3.54 -0.03 c0.26 -2.62 0.84 -5.21 1.67 -7.5 c0.61 0.05 1.25 0.06 1.91 0.01 c0.88 -0.07 1.78 -0.22 2.67 -0.46 c0.76 2.13 1.57 4.57 2.33 7.08 c-1.67 0.47 -3.36 0.77 -5.03 0.9 M72.89 756.23 c-0.58 -1.27 -1.13 -2.37 -1.64 -3.28 c1.49 0.33 3 0.89 4.5 1.67 c-0.73 0.64 -1.71 1.19 -2.85 1.6 M87.47 770.66 c0.09 1.23 -0.01 2.39 -0.3 3.44 c-0.29 0.45 -0.61 0.89 -0.94 1.31 c-0.24 0.3 -0.5 0.6 -0.77 0.89 c-1.56 1.68 -3.5 3.02 -5.62 3.89 c0 -0.22 -0.01 -0.45 -0.02 -0.7 l-0.02 -0.29 c-0.09 -1.13 -0.32 -2.54 -0.68 -4.22 c3.34 -1.16 6.28 -2.83 8.32 -4.73 c0.01 0.13 0.03 0.26 0.04 0.39 M84.03 761.9 c1.36 1.91 2.34 3.9 2.91 5.92 c-1.96 1.97 -4.92 3.71 -8.36 4.91 c-0.52 -2.08 -1.16 -4.28 -1.9 -6.57 c2.98 -1.04 5.58 -2.55 7.35 -4.26 M88.79 770.78 c0 -0.28 -0.01 -0.57 -0.03 -0.85 c-0.02 -0.31 -0.06 -0.63 -0.11 -0.96 c0.33 -0.4 0.61 -0.8 0.85 -1.2 c-0.13 1.02 -0.37 2.03 -0.71 3.01 M86.57 756.56 c0.09 0.1 0.17 0.2 0.26 0.3 c1.34 1.9 2.22 4.03 2.6 6.32 c-0.07 1.08 -0.52 2.19 -1.36 3.32 c-0.63 -1.97 -1.65 -3.89 -3.03 -5.71 c1.13 -1.42 1.65 -2.87 1.53 -4.24 M66.77 779.83 c-2.34 -1.12 -4.34 -2.78 -5.87 -4.85 c1.18 0.65 2.62 1.13 4.28 1.42 c0.41 1.32 0.95 2.47 1.59 3.43 M64.48 765.59 c-2.38 -0.45 -4.17 -1.41 -5.05 -2.69 c0.95 -2.27 2.48 -4.4 4.41 -6.15 c0.57 0.65 1.47 1.12 2.63 1.38 c-0.95 2.29 -1.63 4.86 -1.98 7.47 M63.32 755.85 c-1.89 1.6 -3.43 3.53 -4.47 5.63 c-0.05 -0.32 -0.06 -0.65 -0.02 -0.98 c0.86 -2.34 2.3 -4.47 4.16 -6.16 c0.13 -0.09 0.28 -0.18 0.42 -0.27 c-0.24 0.62 -0.27 1.22 -0.09 1.79 M68.53 752.69 c-1.42 0.58 -2.76 1.32 -4 2.21 c-0.05 -0.51 0.15 -1.07 0.61 -1.64 c0.83 -0.28 1.73 -0.46 2.67 -0.53 c0.23 -0.02 0.47 -0.03 0.72 -0.03 M64.96 755.8 c1.3 -1.01 2.73 -1.85 4.25 -2.49 c-0.79 1.01 -1.51 2.19 -2.15 3.51 c-0.93 -0.19 -1.67 -0.55 -2.09 -1.02 M58.8 764.68 c1.12 1.29 3.05 2.25 5.49 2.7 c-0.11 1.43 -0.11 2.84 -0.01 4.19 c0.06 0.85 0.17 1.69 0.32 2.49 c-2.65 -0.52 -4.64 -1.52 -5.78 -2.92 c-0.19 -0.51 -0.35 -1.05 -0.49 -1.59 c-0.01 -0.09 -0.02 -0.16 -0.02 -0.23 c-0.11 -1.53 0.05 -3.09 0.49 -4.65 " style="fill:#d3d2d2;"/></g><text class="f5782 f5765" font-size="8.00" style="fill:#231f20"><tspan x="69.24" y="769.34" textLength="10.03" dx="0,0.56">46</tspan></text><text class="f1560 f5766" font-size="8.00" style="fill:#656263"><tspan x="87.25" y="769.13" textLength="97.51" class="f1561 f781" dx="0,0.56,0.56,0.56,0.56,0.56,0.56,0.56,0.56,0.56,0.56,0.56,0.56,0.56,0.56,0.56,0.56,0.56,0.56">GLOBAL TRENDS 2030:</tspan>
<tspan x="185.32" y="769.13" textLength="97.73" dx="0,0.56,0.56,-0.18,0.56,0.56,0.56,0.56,0.02,0.56,0.56,0.56,0.56,0.56,0.56,0.56,0.56,0.56,0.56"> ALTERNATIVE WORLDS</tspan></text>
<g mask="url(#Mask_15_70_2jt6Qd)" ><path d="M295.95 766.5 l292.19 0 " style="stroke:#918f8f;stroke-width:1.00;stroke-dasharray:0.001,1.994;stroke-linecap:round;stroke-linejoin:round;"/><path d="M293.95 766.5 M589.14 766.5 " style="stroke:#918f8f;stroke-width:1.00;stroke-linecap:round;stroke-linejoin:round;"/></g><text class="f1489 f786" font-size="10.00" style="fill:#231f20"><tspan x="340.50" y="91.00" textLength="94.85" dx="0,0.12,0.05,-0.04,0.02,0.23,0.22,-0.07,-0.07,0.27,-0.03,0.06,0.21,0.28,0.06,-0.75,0,0,0.15,-0.02,0">Demographically, the </tspan>
<tspan x="435.37" y="91.00" textLength="61.38" class="f1486 f791" dx="0,-0.2,0.17,-0.07,0.03,0.08,0,0,-0.09,0.15,-0.05,0.03,0.13">United States</tspan>
<tspan x="496.76" y="91.00" textLength="60.2" dx="0,0,0.14,0,0,0.27,0,0,0.15,-0.02,0,0,0.09,0.08,0.05,0"> is in the best </tspan>
<tspan x="340.50" y="105.00" textLength="233.68" dx="0,0.05,0.05,0.03,-0.07,0.13,-0.06,-0.02,0,0,-0.03,0,0,0.21,0.28,0,0,0.15,-0.02,0,0,0.15,-0.06,-0.01,-0.03,0,0,0.02,0.07,-0.09,-0.04,-0.06,-0.07,0.07,0.03,0,0,0.05,-0.11,-0.14,0.07,0.18,0,0,-0.14,0.21,-0.02,0,0,0.08,-0.02,-0.01,0">position of all the major developed powers (and some </tspan>
<tspan x="340.50" y="119.00" textLength="219.91" dx="0,0.03,0.07,-0.09,-0.04,-0.06,-0.07,-0.05,0.27,-0.03,0,0,-0.02,-0.02,0.08,0,0,0.26,0.28,-0.18,0,0,0.05,0.27,0.27,0.14,-0.2,0,0,0.16,-0.07,0.15,0,0,0,0,-0.03,0.26,0.35,0.15,0,0,0.22,-0.01,0.01,0,0,0.01,-0.06,0.05,0.09,0">developing ones like China) with a birth rate close </tspan>
<tspan x="340.50" y="133.00" textLength="216.47" dx="0,-0.04,0,0,0.06,0.04,-0.07,0.13,0.03,-0.08,0.05,-0.01,0.05,-0.06,0,0,-0.03,0.07,-0.09,-0.04,-0.05,0,0,-0.05,-0.11,-0.14,0.07,-0.09,0.08,-0.44,0,0,0.15,-0.02,0,0,-0.08,0.26,0.05,0.03,0.05,0,0,-0.02,0,0,0.15,-0.02,0">to replacement level. However, the burden on the </tspan>
<tspan x="340.50" y="147.00" textLength="213.46" dx="0,0,0,0,-0.04,0,0,0.34,0.28,-0.02,0,0,0.05,-0.06,0.13,-0.07,0.15,-0.03,0.05,-0.01,0.05,-0.06,0,0,-0.06,0.06,0.02,0.23,0.22,0.21,0.16,0,0,0.1,0.09,0.07,0.07,0.13,0.21,0,0,0.12,0.01,0.12,0.26,0.31,-0.07,0.34,0">US to fund entitlement programs (Social Security </tspan>
<tspan x="340.50" y="161.00" textLength="218.59" dx="0,0.21,-0.02,0,0,-0.01,0.03,0.18,-0.03,0.06,0.2,0.06,-0.19,0,0,0.16,0.28,0.28,0,0,0.27,-0.05,0.07,0.06,0.11,0.18,0.09,0,0,0.15,0.2,0.03,-0.18,0.03,0.2,0.06,-0.75,0,0,0.03,0.2,0.36,0.13,-0.03,0.12,0.28,0.13,0.2,0.02,0.06,0">and Medicare) will increase markedly, particularly </tspan>
<tspan x="340.50" y="175.00" textLength="226.2" dx="0,0.16,-0.07,0.15,-0.05,-0.08,0,0,0,0,0,-0.01,-0.06,-0.11,-0.15,0.03,-0.11,0.16,0,0,0.27,0,0,0.15,-0.02,0,0,0.22,-0.01,0.01,0,0,-0.03,0,0,0.15,-0.02,0,0,-0.12,0.27,-0.07,0.01,0.03,0,0,0.01,0.18,-0.01,0.01,0.08,-0.22,0">without a slowdown in the rate of the United States&#8217; </tspan>
<tspan x="340.50" y="189.00" textLength="224.09" dx="0,0.31,0.14,0.03,0.27,-0.03,0,0,-0.02,0.11,0.21,-0.07,0.15,0.17,0.35,0.06,0.2,0.06,0,0,-0.11,0.05,0.05,0.15,-0.08,0,0,0.15,-0.11,-0.02,-0.05,-0.02,0.28,0.14,0.05,0.15,0,0,0.21,0.14,0.08,0,0,-0.14,-0.03,0.3,0.5,0,0,0.15,0.14,-0.01,0">rising health-care costs. Economists also worry that </tspan>
<tspan x="340.50" y="203.00" textLength="212.3" dx="0,0.15,-0.02,0,0,-0.07,-0.09,-0.06,0.06,0.06,0.03,0.01,0.27,0.27,-0.03,0,0,0.14,0.22,0.21,0.15,0.03,-0.07,0.13,-0.06,-0.02,0,0,-0.03,0,0,0.15,-0.02,0,0,-0.08,0.06,0.04,-0.06,0,0,0.09,0.07,-0.02,-0.01,0.08,0.07,0">the approaching transition of the &#8220;baby boomer&#8221; </tspan>
<tspan x="340.50" y="217.00" textLength="232.93" dx="0,-0.06,0.05,-0.02,0.08,0.22,-0.01,0.13,-0.06,-0.02,0,0,0.21,0.06,-0.02,0,0,-0.14,-0.03,0.03,-0.18,0.08,0.18,0,0,-0.04,0,0,0.06,0.03,0.13,0.26,0.06,0.03,0.08,0,0,0.16,0.28,0.28,0,0,0.06,0.05,-0.04,-0.11,-0.09,0,0,0.21,0.06,-0.02,0">generation from workers to retirees will remove from </tspan>
<tspan x="340.50" y="231.00" textLength="214.28" dx="0,0.15,-0.02,0,0,0,0,0,0.13,0.04,0.09,-0.03,0,0,-0.09,-0.03,0.03,-0.08,0,0,0.15,-0.02,0,0,0.06,0.03,0.19,0.06,0,0,-0.03,0,0,-0.07,0.15,0,0,-0.04,0.05,0.05,0,0,0.03,-0.03,0.01,0.06,-0.01,0.01,0.03,0.07,0">the US labor force the cadre of its most educated, </tspan>
<tspan x="340.50" y="245.00" textLength="228.82" dx="0,0,0.31,0.28,0.28,-0.03,0.03,0.07,0,0,0.21,-0.02,0,0,-0.01,0.07,0.07,0.08,0.31,-0.03,0.05,-0.05,-0.08,0.03,0,0,-0.14,-0.03,0.03,-0.18,0.08,0.18,-0.08,0,0,0.24,-0.02,0,0,-0.12,0.27,-0.07,0.01,0.03,0,0,0.01,0.18,-0.01,0.01,0.08,-0.22,0">skilled, and experienced workers. The United States&#8217; </tspan>
<tspan x="340.50" y="259.00" textLength="225.76" dx="0,0.03,0.01,0.01,0.26,0.27,0.27,0.27,-0.03,0,0,0.03,-0.03,0.01,0.06,-0.01,0.13,-0.06,-0.02,0.14,0.21,0,0,0.06,0.18,0.09,0,0,0.14,0,0,-0.05,-0.03,0,0,0.09,0.03,0.05,0,0,0.18,0,0,0.04,0.02,0.03,0,0.18,-0.01,0.01,-0.04,0.06,0">declining educational base is not seen as adequately </tspan>
<tspan x="340.50" y="273.00" textLength="213.02" dx="0,-0.06,0.06,0.04,0.03,0.2,0.31,0.27,-0.03,0,0,-0.12,-0.08,0.28,-0.03,-0.06,0.08,0,0,-0.14,-0.03,0.03,-0.18,0.07,0.18,0,0,-0.09,-0.03,0,0,0.15,-0.02,0,0,-0.04,-0.03,0.06,0,0,0.25,-0.06,-0.01,0.06,0.21,0.28,0.06,0">preparing younger workers for the more globally </tspan>
<tspan x="340.50" y="287.00" textLength="235.06" dx="0,-0.11,-0.02,-0.08,0.07,0.03,0.13,-0.07,0.13,0.04,-0.09,0,0,0.05,-0.07,0.21,0.26,0.06,-0.02,0.28,-0.01,0.05,-0.06,-0.05,0,0,-0.04,-0.03,0.06,0.03,-0.11,-0.09,0.08,-0.44,0,0,-0.04,0.05,0.05,0,0,0.01,-0.11,-0.02,-0.05,-0.02,0.28,0.14,0.05,0.15,0">competitive environment. Moreover, most economists </tspan>
<tspan x="340.50" y="301.00" textLength="204.43" dx="0,0.09,-0.04,0.26,-0.03,0.07,-0.09,0,0,0.15,0.14,-0.01,0,0,0,-0.25,0,0,0.34,0.28,-0.02,0.17,0.21,-0.01,0.05,-0.06,0.18,0.21,0,0,0.06,0,0.06,0.21,0.13,0.21,-0.05,0.07,0.27,-0.03,0,0,-0.03,0,0,0.15,-0.02,0">believe that, &#8220;a fundamental rebalancing of the </tspan>
<tspan x="340.50" y="315.00" textLength="215.6" dx="0,-0.11,-0.02,-0.08,0.05,0.05,0.03,-0.07,0.13,-0.06,-0.02,0,0,-0.03,0,0,0.15,-0.02,0,0,0,0,0,0.01,-0.11,-0.02,-0.05,-0.02,-0.01,0,0,0.16,0.28,0.28,0,0,0.09,0,0,0.06,0.03,0,0.26,0.26,0.06,0.03,-0.15,0">composition of the US economy will be required&#8221; </tspan>
<tspan x="340.50" y="329.00" textLength="228.84" dx="0,-0.09,-0.03,0,0,0.15,-0.02,0,0,0,0,0,-0.04,0,0,0.06,0.01,-0.11,-0.11,-0.09,0.08,0,0,-0.07,0.15,0,0,-0.09,-0.03,0.29,-0.01,0.08,0,0,0.03,-0.01,0.15,0,0,-0.03,0,0,-0.08,-0.08,0.01,-0.08,0.06,0.21,-0.06,0,0,0.21,-0.02,0">for the US to recover its former path of &#8220;buoyant and </tspan>
<tspan x="340.50" y="343.00" textLength="91.88" dx="0,-0.01,-0.01,0.36,0.35,0.07,0.06,0.11,-0.01,0.13,0.27,-0.03,0,0,0.23,0.06,-0.11,0.36,0.15,-0.04,-0.8">job-creating growth.&#8221;</tspan>
<tspan x="431.73" y="339.67" textLength="2.87" font-size="5.83">c</tspan></text><text class="f5782 f5765" font-size="11.00" style="fill:#e6910d"><tspan x="340.50" y="371.00" textLength="159.84">CRUNCH TIME TOO FOR THE </tspan>
<tspan x="340.50" y="385.00" textLength="111.42">EMERGING POWERS</tspan></text><text class="f1489 f786" font-size="10.00" style="fill:#231f20"><tspan x="340.50" y="413.00" textLength="232.54" dx="0,-0.04,0.05,0.05,0,0,-0.03,0,0,0.15,-0.02,0,0,0.05,-0.01,0.08,0.16,0.23,0.27,-0.03,0,0,0.01,-0.11,-0.02,-0.05,-0.02,0.28,-0.03,0.08,0,0,-0.14,0.11,-0.01,0.15,-0.02,0.07,0.06,0.03,0,0,0.15,-0.02,0,0,0.08,0.27,0.21,0">Most of the emerging economies weathered the 2008 </tspan>
<tspan x="340.50" y="427.00" textLength="221.4" dx="0,0.29,0.14,0.21,-0.05,0.07,0.13,0.21,0,0,0.07,0.31,0.14,0.03,0.14,0,0,-0.14,-0.04,0.28,-0.05,0,0,0.22,0,0,0.15,-0.02,0,0,-0.11,-0.02,0.28,0.27,-0.03,0,0,0.03,0.01,0.06,0.04,0.03,-0.07,0,0,-0.14,0,0,0.16,0.28,0.28,0">&#59904;nancial crisis well. In the coming decade, we will </tspan>
<tspan x="340.50" y="441.00" textLength="218.37" dx="0,-0.06,0.06,-0.01,0.06,0.04,-0.04,0.06,0,0,0.16,-0.07,0.15,-0.02,0.08,0.11,0,0,-0.05,-0.03,0,0,-0.02,0.29,0.06,0,0,0.06,-0.04,0.13,-0.01,0.13,0.04,-0.09,0,0,0.01,-0.11,-0.02,-0.05,-0.02,0.28,-0.03,0,0,0.08,0.2,0.27,0.15,0">probably witness not only relative economic gains </tspan>
<tspan x="340.50" y="455.00" textLength="219.14" dx="0,-0.06,0,0,0.06,0.27,0.27,0.14,0.07,0,0,0.22,-0.02,0.18,0.13,0.07,0,0,0.21,-0.02,0,0,0.09,0.22,0.17,0.16,0.28,-0.02,0,0,-0.08,0,0,0,0.21,0.14,0.08,0,0,0.15,-0.02,0,0,0.27,-0.05,0.07,0.06,0.11,0.18,0.03,0.27,-0.03,0">by China, India, and Brazil, but also the increasing </tspan>
<tspan x="340.50" y="469.00" textLength="211.7" dx="0,0.27,-0.08,0.05,-0.03,0.35,0.18,0.21,-0.05,-0.08,0,0,-0.03,0,0,0.05,-0.01,0.08,0.16,0.23,0.27,-0.03,0,0,0.06,0.03,0.23,-0.06,-0.02,0.14,0.21,0,0,-0.07,0.13,0.01,-0.12,0.08,0.18,0,0,0.06,0.01,0.01,0,0,0.18,0">importance of emerging regional players such as </tspan>
<tspan x="340.50" y="483.00" textLength="215.4" dx="0,0.06,-0.04,-0.06,-0.02,0.05,-0.03,0.13,0.07,0,0,0.22,-0.02,0.03,-0.02,-0.02,0.08,0.03,0.13,0.07,0,0,-0.05,-0.04,-0.06,0.07,0.31,0.13,0.07,0,0,0.09,-0.08,0,0.15,0,0,0.43,0.21,0.31,-0.03,0.06,0.07,0,0,0.09,-0.08,0,0.15,0">Colombia, Indonesia, Nigeria, South Africa, South </tspan>
<tspan x="340.50" y="497.00" textLength="213.37" dx="0,-0.14,-0.03,0.06,0.11,0.07,0,0,-0.01,-0.01,0.28,-0.03,-0.11,-0.24,0,0,0.21,-0.02,0,0,-0.8,0.26,0.03,-0.18,0.1,-0.79,0,0,-0.05,-0.11,-0.14,0.07,-0.09,0.08,-0.44,0,0,0.03,0.07,-0.09,-0.04,-0.06,-0.07,-0.05,0.27,-0.03,0">Korea, Mexico, and Turkey. However, developing </tspan>
<tspan x="340.50" y="511.00" textLength="234.2" dx="0,-0.11,-0.08,0.28,-0.06,0.14,0.31,-0.03,0.08,0,0,0.16,0.28,0.28,0,0,0.08,0.03,-0.08,0,0,0.15,-0.02,0.08,0.26,0,0,-0.11,0.16,0,0,0.01,0.14,0.21,0.28,-0.03,0.05,-0.03,-0.06,0.08,-0.04,0,0,0.08,-0.03,0.07,0.01,0.07,0.13,0.21,0.28,0.06,0,0,0.27,0">countries will face their own challenges, especially in </tspan>
<tspan x="340.50" y="525.00" textLength="233.78" dx="0,-0.11,-0.02,-0.06,0.13,0.27,-0.12,0.26,0.27,-0.03,0,0,0.15,-0.02,0,0,-0.04,-0.02,-0.01,0.05,-0.06,0.2,0.28,0,0,0.09,-0.04,0.27,0.27,-0.02,0,0,0.15,-0.02,0.08,0.26,0,0,0.22,-0.07,-0.05,-0.03,0,0,0.23,0.06,-0.11,0.36,0.15,-0.04">continuing the momentum behind their rapid growth.</tspan>
<tspan x="340.50" y="553.00" textLength="234.4" dx="0,0.24,-0.02,0,0,-0.02,0.11,0.21,-0.07,0.15,0,0,-0.03,0,0,0.15,-0.02,0,0,0.25,-0.06,-0.01,0.06,0.21,0,0,0.01,-0.11,-0.02,-0.05,-0.02,-0.01,0,0,0.16,0.28,0.28,0,0,0.09,0,0,0.27,-0.05,0.07,0.06,0.11,0.18,0.03,0.27,-0.03,0.25,0.06,0">The health of the global economy will be increasingly </tspan>
<tspan x="340.50" y="567.00" textLength="232.51" dx="0,0.26,0.27,0.29,-0.18,0.03,0,0,-0.04,0,0,-0.05,-0.11,0,0,-0.14,-0.04,0.28,0,0,0.15,-0.02,0,0,0.03,0.07,-0.09,-0.04,-0.06,-0.07,-0.05,0.27,-0.03,0,0,-0.14,-0.03,0.02,-0.03,0,0,0.03,0.09,0.08,0,-0.15,-0.04,-0.03,0.06,0">linked to how well the developing world does&#8212;more </tspan>
<tspan x="340.50" y="581.00" textLength="220.93" dx="0,0.08,0,0,0.15,0.14,0.21,0,0,0.15,-0.02,0,0,0.14,0.22,0.04,0.18,-0.07,0.13,-0.06,-0.02,0.14,0.21,0,0,-0.61,0.08,0.05,-0.05,0,0,0.24,-0.02,0,0,0.03,0.07,-0.09,-0.04,-0.06,-0.07,-0.05,0.27,-0.03,0,0,-0.14,-0.03,0.02,-0.03,0">so than the traditional West. The developing world </tspan>
<tspan x="340.50" y="595.00" textLength="209.43" dx="0,0.21,0.26,0.06,0.11,0.04,0.11,0,0,-0.06,0.06,-0.11,0.21,-0.03,0.03,0.08,0,0,-0.04,-0.03,0.06,0,0,0.15,0.14,0.21,0,0,-0.04,0,0,0.07,0.08,0.03,-0.08,0.05,-0.06,0,0,-0.03,0,0,0.25,-0.06,-0.01,0.06,0.21,0">already provides more than 50 percent of global </tspan>
<tspan x="340.50" y="609.00" textLength="207.6" dx="0,0.23,0.06,-0.11,0.36,0.15,0,0,0.21,-0.02,0,0,0.08,0,0,0.07,0.08,0.03,-0.08,0.05,-0.06,0,0,-0.03,0,0,0.25,-0.06,-0.01,0.06,0.21,0,0,0.27,-0.07,-0.09,0.08,0.05,0.15,-0.01,0.05,-0.06,-0.05,0,0,-0.12,0.15,0">growth and 40 percent of global investment. Its </tspan>
<tspan x="340.50" y="623.00" textLength="215.32" dx="0,-0.11,-0.02,-0.06,0.14,0.31,0.03,-0.08,0,0.13,-0.06,-0.02,0,0,-0.04,0,0,0.25,-0.06,-0.01,0.06,0.21,0,0,0.27,-0.07,-0.09,0.08,0.05,0.15,-0.01,0.05,-0.06,0,0,0.23,0.06,-0.11,0.36,0.15,0,0,0.14,0,0,-0.04,-0.03,0.06,0">contribution to global investment growth is more </tspan>
<tspan x="340.50" y="637.00" textLength="73.44" dx="0,0.15,0.14,0.21,0,0,-0.28,0,0,0.07,0.08,0.03,-0.08,0.05,-0.06,-0.05,0">than 70 percent. </tspan>
<tspan x="413.93" y="637.00" textLength="35.19" class="f1486 f791" dx="0,-0.02,0.2,0.19,0.06,-0.24,-0.4">China&#8217;s</tspan>
<tspan x="449.12" y="637.00" textLength="108.51" dx="0,0,-0.11,-0.02,-0.06,0.14,0.31,0.03,-0.08,0,0.13,-0.06,-0.02,0,0,0.14,0,0,-0.05,-0.11,0,0,-0.02,-0.02,0"> contribution is now one </tspan>
<tspan x="340.49" y="651.00" textLength="234.91" dx="0,0.21,-0.02,0,0,0,0,0.14,0.21,0.32,0,0,0.13,0.27,-0.01,0.08,0,0,0.15,-0.02,0,0,0.03,0.18,0.04,0,0,-0.03,0,0,0.15,-0.02,0,0,0,0,0,-0.11,-0.02,-0.06,0.14,0.31,0.03,-0.08,0,0.13,-0.06,-0.02,-0.04,0,0,0.22,0,0,0.15,-0.02,0">and a half times the size of the US contribution. In the </tspan>
<tspan x="340.49" y="665.00" textLength="225.56" dx="0,-0.61,-0.03,0.02,-0.03,0,0,0.15,0.21,0.29,0.01,-0.51,0,0,0.06,0.18,0.09,-0.04,0.26,0.27,-0.02,0,0,-0.04,0.09,0.03,-0.04,0.26,0.27,-0.03,0,0,-0.03,0,0,0.34,0,0.2,0.26,0.06,0,0,0.01,-0.11,-0.02,-0.05,-0.02,0.28,-0.03,0">World Bank&#8217;s baseline modeling of future economic </tspan>
<tspan x="340.49" y="679.00" textLength="241.16" dx="0,-0.11,0.28,-0.07,0.13,-0.09,0.05,-0.04,0.13,0.2,0.31,-0.07,0.34,-0.75,0,-0.01,0.06,0.27,0.27,0.14,-0.19,0.08,0.03,0.08,-0.03,-0.05,-0.07,0.01,0,-0.01,0,-0.01,-0.01,-0.06,-0.11,0.16,0.27,-0.03,0,-0.01,-0.03,0,-0.01,-0.07,0.15,0,-0.01,0.01,-0.11,-0.02,-0.05,-0.02,0.28,-0.03,0">multipolarity, China&#8212;despite a slowing of its economic </tspan></text><path d="M340.5 690 l72 0 " style="stroke:#918f8f;stroke-width:0.50;"/><text class="f1489 f786" font-size="7.50" style="fill:#4f4c4d"><tspan x="340.50" y="700.50" textLength="3.45" font-size="7.00">c</tspan>
<tspan x="343.88" y="703.50" textLength="229.43" dx="0,-0.08,-0.08,0.17,0.19,0.1,-0.08,-0.08,0.15,0.1,0.15,0.04,0.04,0.01,0.1,-0.08,-0.08,0.1,-0.08,-0.08,0.14,0.05,-0.02,-0.08,-0.08,0.19,-0.07,0.21,0.25,-0.08,-0.02,0.2,0.19,0.1,0.07,0.01,-0.05,-0.02,-0.01,0.01,-0.08,-0.08,-0.1,-0.03,0.02,0.13,-0.01,-0.04,-0.05,0.01,-0.08,-0.08,0.15,-0.02,-0.08,-0.08,-0.08,-0.08,0.04,0.02,0.03,-0.03,0.25,-0.08,-0.08,0.14,0.04,-0.02,0">  This analysis is from NIC-commissioned workshops and a report from </tspan>
<tspan x="340.50" y="713.00" textLength="229.67" dx="0,-0.03,-0.03,0.26,0.19,0.11,0.07,0.07,-0.08,-0.08,-0.08,-0.08,0.04,-0.17,-0.08,-0.08,0.01,-0.05,-0.01,0.04,0.15,-0.08,-0.08,0.11,-0.08,-0.02,-0.04,-0.02,0.19,-0.02,-0.08,-0.08,0.08,-0.06,0.03,0.1,0.14,0.22,-0.05,0.04,-0.08,-0.08,0.19,0.08,0.01,-0.06,0.03,0.03,0.06,0.05,-0.32,-0.08,-0.08,0.06,-0.35,-0.33,0.09,0.1,-0.08,-0.08,0.09,-0.08,-0.08,-0.09,0.04,0.01,0">McKinsey &amp; Co, Global Economic Scenarios (December, 2010); C. Fred </tspan>
<tspan x="340.50" y="722.50" textLength="234.53" dx="0,0.13,0.05,0.11,0.06,0.04,0.01,0.03,-0.01,-0.08,-0.08,0.17,-0.01,-0.08,-0.08,-0.09,0.19,-0.06,0.01,0.01,-0.08,-0.08,0.01,0.13,-0.01,0.01,0.05,-0.08,-0.08,0.19,-0.08,-0.08,0.1,-0.01,-0.08,-0.08,-0.44,-0.03,0.01,-0.02,-0.08,-0.08,0.11,-0.08,-0.02,-0.04,-0.02,-0.01,-0.54,-0.08,-0.08,-0.07,0.01,0.01,0.05,0.12,0.06,-0.02,-0.08,-0.08,0.16,0.1,0.04,0.09,-0.06,0.14,0,0.01,-0.08,-0.08,-0.07,-0.03,0">Bergsten, The United States in the World Economy, Peterson Institute for </tspan>
<tspan x="340.50" y="732.01" textLength="134.72" dx="0,0.16,-0.05,0.01,0.05,0.2,0.1,-0.01,0.09,-0.05,-0.02,0.1,0.15,-0.08,-0.08,0.11,-0.08,-0.02,-0.04,-0.02,0.19,-0.02,0.01,-0.03,-0.08,-0.08,-0.1,0.01,0.16,0.11,0.04,-0.08,-0.08,-0.24,0.07,-0.08,-0.08,0.06,-0.35,-0.5,-0.34">International Economics, August 12, 2011.</tspan></text><text class="f1489 f786" font-size="10.00" style="fill:#231f20"><tspan x="75.00" y="91.00" textLength="219.7" dx="0,-0.11,-0.02,-0.08,-0.07,0.26,-0.03,0.06,-0.01,0.13,0.27,-0.03,0,0,0.21,-0.02,0,0,-0.03,0.05,-0.03,0.22,0.15,-0.02,0.05,0.27,0.27,-0.03,0,0,-0.01,0.27,-0.09,-0.03,0.36,0.15,0,0,-0.04,0,0,0.28,-0.02,0.03,0.08,0.36,0.18,0.22,-0.18,0">complicating and lengthening efforts to undertake </tspan>
<tspan x="75.00" y="105.00" textLength="239.58" dx="0,0.05,0.14,0.35,0.01,0.13,0.2,0.26,0.22,0.21,0,0,0.01,-0.11,-0.02,-0.05,-0.02,0.28,-0.03,0,0,0.06,-0.01,-0.09,-0.03,0.29,-0.03,0,0,0.07,0,0,0.15,-0.02,0,0,-0.03,0.15,-0.02,0.07,0,0,0.14,0.21,-0.02,0.07,0,0,0.08,0.2,0.28,-0.08,0.26,0.06,0">structural economic reform. On the other hand, failure </tspan>
<tspan x="75.00" y="119.00" textLength="228.78" dx="0,-0.04,0,0,0.18,0.22,-0.18,0,0,-0.08,0.04,0.09,-0.06,0.03,0.18,0.2,0.5,0,0,0.03,0.13,0.13,-0.06,-0.02,0,0,0.31,0.14,0,0.19,0,0,0.15,-0.02,0,0,0.26,0.28,-0.18,-0.04,0.26,0.27,-0.05,0.07,0.09,0,0,-0.03,0,0,-0.04,-0.03,0.06,0">to take budgetary action risks the likelihood of more </tspan>
<tspan x="75.00" y="133.00" textLength="237.84" dx="0,0.04,-0.03,0.35,-0.05,-0.05,0,0,0.31,0.14,0.09,0.08,0,0,0.27,0,0,-0.09,-0.11,-0.09,0.08,0.29,0.28,-0.01,0.05,-0.06,0,0,0.09,-0.02,-0.02,0,0,0.18,-0.03,-0.04,-0.03,0.14,0,0,-0.01,0,0,-0.01,0.03,0.18,-0.08,0.28,0,0,0.21,-0.02,0">abrupt rises in government bond yields at medium and </tspan>
<tspan x="75.00" y="147.00" textLength="67.25" dx="0,-0.06,-0.02,-0.03,0,0,0.15,-0.01,0.2,0.26,0.31,-0.07,0.13,-0.03,0.08,-0.08">long maturities.</tspan>
<tspan x="75.00" y="175.00" textLength="34.16" class="f1486 f791" dx="0,-0.1,0.14,0.03,-0.18,0.07">Europe</tspan>
<tspan x="109.16" y="175.00" textLength="206.92" dx="0,-0.05,0.14,0,-0.05,0,-0.05,-0.03,0.07,0.01,0.07,0.13,0.21,0,-0.05,0.06,0.18,0.09,0.18,0,-0.05,0.01,-0.11,-0.02,-0.05,-0.02,0.28,-0.03,0,-0.05,0.21,-0.02,0,-0.05,0.16,0.09,0.06,0.21,0,-0.05,0.14,0.11,0.06,0.04,0.08,0,-0.05,0.2,0.06,0"> is a special case: economic and &#59904;scal issues are </tspan>
<tspan x="75.00" y="189.00" textLength="233.54" dx="0,0.05,-0.06,0.31,0.16,0.27,-0.02,0.03,0,0,0.16,-0.07,0.15,0,0,0.05,-0.04,0.26,-0.07,0.13,-0.03,0.06,0.21,0,0,0.03,0.01,0.08,0.14,0.03,-0.06,-0.02,0.15,0,0,-0.02,0,0,0.15,-0.02,0,0,0.34,0,0.2,0.26,0.06,0,0,-0.03,0,0,0.15,-0.02,0">entwined with political decisions on the future of the </tspan>
<tspan x="75.00" y="203.00" textLength="239.53" dx="0,0.18,-0.25,0,0,0.27,-0.05,0.01,-0.08,0.04,0.18,0.27,-0.03,0,0,-0.04,-0.03,0.06,0,0,-0.08,0.05,-0.06,0.14,0.22,0.21,0.26,0.18,0.04,0.03,0,0,0.05,-0.11,-0.14,0.08,0.18,0,0,-0.09,-0.03,0,0,0.18,0,0,0.29,0.14,0.21,-0.05,0.07,0.13,0.21,0">EU, including more centralized powers for EU &#59904;nancial </tspan>
<tspan x="75.00" y="217.00" textLength="225.91" dx="0,0.15,0.21,0.14,0.12,-0.06,0.05,-0.01,0.05,-0.06,-0.05,0,0,0.18,0,0,-0.03,0.11,0.04,0.03,0.08,0.18,0,0,0.04,0.21,-0.06,0,0,-0.04,0,0,-0.02,-0.09,-0.03,-0.03,0,0,0,0,-0.03,0.06,0.11,0.22,0.25,-0.05,0,0,-0.03,0">management. EU leaders want to avoid a breakup of </tspan>
<tspan x="75.00" y="231.00" textLength="220.65" dx="0,0.15,-0.02,0,0,-0.04,0.26,0.06,0,0,0.01,-0.02,-0.02,0,0,0.07,-0.09,0.05,0,0,0.15,-0.05,-0.08,0.03,0.24,0,0,0.12,0.26,0.3,0.06,0.05,-0.06,0,0,-0.01,0.27,-0.09,-0.03,0.36,0.15,0,0,-0.04,0,0,-0.02,-0.09,-0.03,-0.03,0">the euro zone even though current efforts to avoid </tspan>
<tspan x="75.00" y="245.00" textLength="234.78" dx="0,0.06,0.01,0.01,0,0,0.21,0,0,-0.08,0,0.01,-0.11,-0.02,-0.01,0,0,0.14,-0.02,-0.09,0,0,0.06,0.08,0.06,0.28,-0.07,0.01,0.03,0,0,0.27,0,0,0,0,0.07,0.31,0.14,0.03,0.14,0,0,-0.01,0.15,-0.04,0.05,-0.03,-0.07,-0.02,0.08,0.06,-0.07,0">such an outcome have resulted in a crisis atmosphere, </tspan>
<tspan x="75.00" y="259.00" textLength="211.1" dx="0,0.08,-0.11,0.16,0.27,-0.03,0,0,0.28,-0.05,-0.08,0.08,0.36,0.18,0.2,0.27,-0.06,0.34,0,0,0.04,0.09,-0.08,0,0,0,0.04,0.26,0.06,-0.07,0.07,-0.13,-0.51,0,0,0.34,0,0.2,0.26,0.06,0,0,0.25,-0.06,-0.01,0.06,0.21,0">sowing uncertainty about Europe&#8217;s future global </tspan>
<tspan x="75.00" y="273.00" textLength="223.76" dx="0,0.15,0.2,0.03,-0.18,0.03,0.15,-0.08,0,0,0.24,-0.02,0,0,0.12,0.26,0.3,0.06,0.05,-0.06,0,0,-0.04,0.09,0.03,0,0,-0.03,0,0,0.07,0.31,0.14,0.03,0.14,0,0,0.15,0.21,0.14,0.12,-0.06,0.05,-0.01,0.05,-0.06,0,0,0.14,0">markets. The current mode of crisis management is </tspan>
<tspan x="75.00" y="287.00" textLength="225.29" dx="0,0.28,0.15,0.06,0.15,0.05,0.18,0.2,0.27,0.14,0.04,-0.04,-0.03,0,0,-0.11,-0.09,0.08,0,0,0.15,-0.02,0,0,-0.06,-0.02,-0.03,0,0,0.01,0.08,0.29,-0.03,0,0,-0.09,0.05,0.11,0.03,0.03,-0.04,-0.03,0,0,0.08,-0.04,-0.08,0,0.13,-0.06,-0.02,0.15,0">unsustainable over the long term. Possible solutions </tspan>
<tspan x="75.00" y="301.00" textLength="218.63" dx="0,0.06,0.01,0.01,0,0,0.18,0,0,0,0,-0.11,0.28,-0.07,0.13,0.14,-0.03,0.07,0.03,0.03,0,0,0.04,0.26,0.06,-0.07,0.07,0,0,0.16,0.28,0.28,0,0,-0.03,0.03,-0.02,0.16,0,0,0,0.04,0.08,0.05,0.13,-0.06,-0.02,0.15,0">such as a multispeed Europe will spawn questions </tspan>
<tspan x="75.00" y="315.00" textLength="222.81" dx="0,0.04,0.09,-0.08,0,0,0,0.04,0.26,0.06,-0.07,0.07,-0.13,-0.51,0,0,0.06,-0.07,0.03,0.03,0.07,-0.07,0.34,0,0,-0.09,-0.03,0,0,0.28,0.27,-0.07,0.18,0.2,0.5,0,0,0.05,-0.04,0.26,-0.07,0.13,-0.03,0.06,0.21,0,0,0.03,0.13,0.13,-0.06,-0.02,-0.04,0">about Europe&#8217;s capacity for unitary political action. </tspan>
<tspan x="75.00" y="329.00" textLength="228.07" dx="0,0.15,-0.11,-0.02,-0.05,-0.02,0.28,-0.03,0,0,0.18,0.04,-0.09,0.08,0.16,-0.06,0.05,-0.05,-0.08,0,0,0.21,-0.02,0,0,0.15,0.2,0.03,-0.18,0.03,0,0,-0.09,-0.04,0.13,-0.01,0.13,0.28,0.26,-0.07,0.34,0,0,0.2,0.06,0,0,0.26,0.28,-0.18,-0.04,0.06,0">Economic divergence and market volatility are likely </tspan>
<tspan x="75.00" y="343.00" textLength="228.94" dx="0,-0.04,0,0,-0.11,-0.02,-0.06,0.13,0.27,-0.12,0.04,0,0,-0.04,0,0,0.01,0.14,0.2,0.22,0.03,0.13,0.01,0.08,0.31,0.18,0.04,0,0,0.15,-0.02,0,0,0.18,0,0,0.15,0.27,0.06,-0.08,0.03,0.24,-0.05,-0.08,0,0,0,-0.11,0.01,0.01,0">to continue to characterize the EU throughout much </tspan>
<tspan x="75.00" y="357.00" textLength="221.74" dx="0,-0.03,0,0,0.15,0.27,0.14,0,0,0.07,0.08,0.31,-0.06,0.09,0,0,0.07,-0.09,0.05,0,0,0.32,-0.34,-0.02,0.18,0,0,0.08,-0.02,-0.01,0,0,-0.01,0.07,0.07,0.01,0.13,-0.46,-0.47,-0.16,0.04,0.26,0.06,-0.07,0.07,0,0,0.14,0">of this period even if&#8212;as some expect&#8212;&#8220;Europe is </tspan>
<tspan x="75.00" y="371.00" textLength="219.21" dx="0,-0.14,-0.04,0.28,0,0,-0.02,0,0,-0.07,0.15,0,0,0.04,0.01,0,0,-0.04,0,0,-0.11,-0.02,-0.08,-0.07,-0.03,0.03,0.13,0.27,-0.03,0,0,0.15,-0.02,0,0,-0.03,0.31,-0.04,0.23,0.27,0.14,0.21,0,0,-0.11,-0.02,-0.05,-0.08,0.04,-0.05,0">well on its way to completing the original concept </tspan>
<tspan x="75.00" y="385.00" textLength="221.39" dx="0,-0.03,0,0,0,0,-0.11,-0.02,-0.08,-0.06,0.06,-0.04,-0.02,0.05,0.15,0.03,0.04,-0.09,0,0,0.01,-0.11,-0.02,-0.05,-0.02,0.28,-0.03,0,0,0.21,-0.02,0,0,-0.04,-0.02,-0.02,0.03,0.18,0.2,0.5,0,0,0.28,0.27,-0.06,-0.02,0">of a comprehensive economic and monetary union </tspan>
<tspan x="75.00" y="399.00" textLength="209.26" dx="0,0.11,0.21,-0.02,0.1,0,0,0,0,0,0,0,0,0.16,0.28,0.28,0,0,0.05,-0.01,0.08,0.16,-0.06,0,0,-0.11,0.01,0.01,0,0,0.05,0.14,0.06,-0.02,-0.03,-0.06,0.08,0,0,0.18,0,0,0,0,0.06,0.08,0.06,0.28,-0.07,-0.05,-0.8">[and] . . . will emerge much stronger as a result.&#8221;</tspan>
<tspan x="283.79" y="395.67" textLength="2.61" font-size="5.83">a</tspan></text><text class="f1489 f786" font-size="10.00" style="fill:#231f20"><tspan x="75.00" y="427.00" textLength="154.14" dx="0,-0.04,-0.03,0.06,0,0,0.15,0.14,0.21,0,0,-0.04,0.05,0.05,0,0,-0.61,0.08,0.05,0.01,0.08,0.29,0,0,-0.11,-0.08,0.28,-0.06,0.14,0.31,-0.03,0.08,-0.04,0">More than most Western countries, </tspan>
<tspan x="229.15" y="427.00" textLength="33.63" class="f1486 f791" dx="0,-0.17,-0.16,0.01,0.07,-0.32,-0.4">Japan&#8217;s</tspan>
<tspan x="262.78" y="427.00" textLength="35.08" dx="0,0,0.22,-0.07,-0.05,-0.03,0.2,0.06,0"> rapidly </tspan>
<tspan x="75.00" y="441.00" textLength="200.8" dx="0,0.12,0.23,0.27,-0.03,0,0,0.21,-0.02,0,0,0.07,0.16,0.27,-0.02,0.2,0.26,0.27,-0.03,0,0,0.05,-0.07,-0.1,0.28,0.13,-0.01,0.13,-0.06,-0.02,0,0,0.14,0,0,-0.1,0,0.19,0.13,0.27,-0.03,0,0,0.15,-0.02,0">aging and dwindling population is putting the </tspan>
<tspan x="75.00" y="455.00" textLength="229.2" dx="0,0.08,0.07,0.07,-0.03,0.03,0.34,0,0,0.27,0,0,0,0,-0.03,0.27,-0.02,0.07,0,0,0.09,0.07,-0.09,0.08,0.06,-0.04,0.06,0,0,0.28,-0.02,0.03,0.08,0.03,0.12,0,0.19,0.13,0.27,-0.03,0,0,-0.07,0.15,0,0,-0.06,-0.02,-0.03,0.01,0.15,0.01,0.08,0.29,0">society in a bind, severely undercutting its long-term </tspan>
<tspan x="75.00" y="469.00" textLength="216.42" dx="0,0.23,0.06,-0.11,0.36,0.15,0,0,0.05,-0.03,0.01,0.05,-0.06,0.13,0.13,0.21,-0.05,0,0,0.24,-0.02,0,0,-0.11,-0.02,0.04,-0.03,0.27,0.14,-0.01,0.13,-0.06,-0.02,0,0,-0.03,0,0,0,0,-0.06,-0.02,-0.03,0.01,0.15,0.01,0.08,0.29,0">growth potential. The combination of a long-term </tspan>
<tspan x="75.00" y="483.00" textLength="234.06" dx="0,0.03,0.03,0.01,0.08,0.31,-0.06,-0.03,0.22,-0.01,0.13,0.27,-0.03,0,0,0.16,0.09,0.06,0.21,0,0,0.03,-0.07,0.2,0.18,-0.01,0.13,-0.06,-0.02,0,0,0.16,-0.07,0.15,0,0,0,0,0.19,0.22,0.21,0.15,-0.01,0.13,-0.03,0.06,0.21,0.28,0.06,0,0,0.12,0.23,0.27,-0.03,0">deteriorating &#59904;scal situation with a dramatically aging </tspan>
<tspan x="75.00" y="497.00" textLength="236.79" dx="0,0.21,-0.02,0,0,0.03,0.01,0.01,0.26,0.27,0.27,0.27,-0.03,0,0,0.05,-0.07,-0.1,0.28,0.13,-0.01,0.13,-0.06,-0.02,-0.12,-0.16,0.06,-0.08,0.03,0.24,0.29,0.06,0,0,-0.02,-0.02,0,0,-0.04,-0.03,0.03,0.08,0.02,0.06,0,0,0.07,0.08,0.18,0.08,-0.02,0">and declining population&#8212;roughly one elderly person </tspan>
<tspan x="75.00" y="511.00" textLength="226.46" dx="0,0.07,0.08,0,0,0.31,-0.14,0,0,-0.14,-0.03,0.03,0.31,0.27,-0.03,0.01,0.23,0.12,-0.06,0,0,0.07,0.03,-0.07,-0.07,-0.03,0,0,-0.06,0,0,0.08,-0.13,-0.27,0.08,-0.38,0.16,0.28,0.28,0,0,0.26,0.27,0.28,-0.07,0,0,0.15,-0.02,0">per two working-age people by 2025&#8212;will limit the </tspan>
<tspan x="75.00" y="525.00" textLength="220.91" dx="0,-0.09,-0.11,-0.09,0.08,0.29,0.28,-0.01,0.05,-0.06,0.06,-0.51,0,0,0.15,0.21,-0.02,-0.04,0.09,-0.09,0.07,0.31,0.27,-0.03,0,0,0.06,0.07,-0.02,0,0,-0.04,0,0,-0.11,-0.02,0.15,0.08,-0.04,0.26,-0.03,0.17,-0.01,0.01,0,0,-0.07,0.15,0">government&#8217;s maneuvering room to consolidate its </tspan>
<tspan x="75.00" y="539.00" textLength="237.9" dx="0,0.16,0.09,0.06,0.21,0,0,0.03,-0.07,0.2,0.18,-0.01,0.13,-0.06,-0.02,-0.04,0,0,0.34,0.22,0,0,0.2,0.08,0.29,0.15,0.21,-0.04,0,0,0.15,-0.02,0,0,0.05,-0.07,-0.1,0.28,0.13,-0.01,0.13,-0.06,-0.02,0,0,0.12,-0.06,0.08,0,0,-0.85,0.37,0.57,-0.21,0">&#59904;scal situation. (In Germany the population ages 15-65 </tspan>
<tspan x="75.00" y="553.00" textLength="229.15" dx="0,0.16,0.28,0.28,0,0,0.03,0.01,0.01,0.26,0.27,-0.02,0,0,0.21,0.06,-0.02,0,0,-0.04,0,0,-0.04,0,0,-0.37,0,0,0.28,0.28,0.28,0.26,-0.06,-0.02,0,0,0.09,0.03,0.31,-0.14,0.03,0.05,0,0,0.08,-0.48,-0.46,0,0,0.21,-0.02,0">will decline from 54 to 47 million between 2010 and </tspan>
<tspan x="75.00" y="567.00" textLength="218.74" dx="0,0.08,-0.07,0.01,0,0,0.21,-0.02,0.07,0,0,0.27,0,0,-0.08,-0.07,0.03,0.21,-0.01,0,0,0.21,0.06,-0.02,0,0,-0.38,-0.46,-0.67,0,0,-0.04,0,0,0.16,0.01,-0.69,0,0,0.28,0.28,0.28,0.26,-0.06,-0.02,-0.04,-0.29,0,0,0.24,-0.02,0">2030 and, in Japan, from 81.5 to 68.7 million.) The </tspan>
<tspan x="75.00" y="581.00" textLength="221.96" dx="0,0.23,0.23,0,0,0.14,0.18,0,0,0.06,0.03,0.19,-0.06,0.08,0.05,0.01,0.03,0,0,0.15,0.14,-0.01,0,0,-0.27,0.05,0.14,0.06,-0.02,-0.03,0,0,0.05,-0.04,0.26,-0.03,0.26,0,0,0.04,-0.02,-0.01,0.15,0.05,0.15,-0.01,0.05,-0.07,0.15,-0.22,0">IMF has suggested that &#8220;strong policy adjustments&#8221; </tspan>
<tspan x="75.00" y="595.00" textLength="229.67" dx="0,0.16,-0.07,0.15,0,0,0.04,0.08,-0.09,0.08,0.18,0.09,0,0,0.05,-0.04,0.26,-0.07,0.13,-0.03,0.06,0.21,0,0,0.06,0.04,0.07,0.08,0.03,0.12,0.15,0.11,0.03,-0.06,-0.02,0.15,0,0,0.16,0.28,0.28,0,0,0.09,0,0,0.06,0.03,0,0.26,0.26,0.06,0.03,0">with adverse political repercussions will be required </tspan>
<tspan x="75.00" y="609.00" textLength="226.67" dx="0,-0.04,0,0,-0.1,0,0,0,-0.24,-0.1,0.02,-0.04,0.26,-0.03,0,0,0.29,0.14,0.21,-0.05,-0.08,0.08,0,0,0.06,0.03,0.02,0,0,-0.02,0,0,0.06,0.15,0.05,0.18,0.2,0.27,0.14,0.04,-0.04,-0.03,0,0,-0.09,0.07,-0.03,0.13,0.27,-0.03,-0.1,-0.8,0">to put &#8220;public &#59904;nances back on sustainable footing.&#8221; </tspan>
<tspan x="75.00" y="623.00" textLength="222.04" dx="0,0.38,0.05,-0.03,-0.07,0.13,-0.06,-0.08,0.15,0,0,0.03,0,-0.03,0,0,0.05,0.18,0.04,-0.03,0.28,0.26,0.18,0.11,-0.01,0.13,-0.06,-0.02,0,0,0.06,0.21,0.28,-0.05,-0.03,0,0,0.09,0,0,-0.1,0,0,0,0.27,0,0,-0.07,0.13,0.03,-0.08,0">Ambitious debt stabilization cannot be put in place </tspan>
<tspan x="75.00" y="637.00" textLength="213.97" dx="0,0.16,-0.07,0.15,-0.05,-0.08,0,0,0,0.15,-0.02,0,0,0.31,0.14,0,0,0,-0.03,0,0,-0.27,0.06,0.02,0.05,0.05,0.18,0.21,-0.06,0.13,0.13,0.21,0,0,-0.01,-0.05,-0.03,0.36,-0.17,0.15,0.01,0.08,0.29,0,0,-0.08,0,0.08,-0.1,0,0">without the risk of &#8220;substantial short-term output </tspan>
<tspan x="75.00" y="651.00" textLength="183.05" dx="0,-0.11,0.05,0.05,0.15,-0.04,-0.76,0,0,0.05,0.05,0.03,0.27,-0.03,0,0,0,0,0.31,0.14,0,0,0,-0.04,0,0,0.01,-0.11,-0.02,-0.05,-0.02,0.28,-0.03,0,0,0.06,0.01,-0.11,-0.11,-0.09,0.07,0.5,-0.79">costs,&#8221; posing a risk to economic recovery.</tspan>
<tspan x="257.92" y="647.67" textLength="3.24" font-size="5.83">b</tspan></text><path d="M75 671 l72 0 " style="stroke:#918f8f;stroke-width:0.50;"/><text class="f1489 f786" font-size="7.50" style="fill:#4f4c4d"><tspan x="75.00" y="681.50" textLength="3.14" font-size="7.00">a</tspan>
<tspan x="78.07" y="684.50" textLength="218.29" dx="0,-0.08,-0.08,-0.1,-0.03,-0.08,-0.08,-0.03,-0.03,0.05,-0.08,-0.08,0.13,0.1,0.07,0.08,0.1,0.08,0.02,-0.04,-0.01,-0.01,-0.08,-0.08,0.07,0.02,-0.08,-0.08,-0.01,0.17,-0.02,-0.08,-0.08,0.04,-0.01,0.19,0.2,-0.02,-0.08,-0.08,-0.06,0.05,0.06,-0.04,-0.06,0,0.09,-0.04,-0.01,-0.08,-0.08,-0.02,-0.08,-0.08,0.11,-0.01,-0.08,-0.08,0.03,0.19,0.05,-0.05,0.05,0.07,0.15,0">  For more discussion, see &#8220;The Coming Resolution of the European </tspan>
<tspan x="75.00" y="694.00" textLength="233.5" dx="0,0.02,0.22,0.1,0.02,0.1,-0.03,-0.55,-0.08,-0.08,0.09,-0.08,-0.08,-0.09,0.05,0.02,-0.08,-0.08,0.14,0.05,0.11,0.06,0.04,0.01,0.03,-0.08,-0.08,0.15,-0.01,-0.08,-0.08,-0.06,0.01,-0.08,-0.01,-0.08,-0.08,0.02,0.19,0.2,-0.08,-0.08,0.26,0.18,0.02,-0.13,0.02,0.05,0.15,0.14,0.04,0.04,-0.08,-0.08,-0.07,-0.04,0.18,-0.02,0.18,-0.08,-0.08,0.06,0.22,-0.02,-0.01,-0.08,-0.08,0.01,-0.34,-0.24,0.13,-0.28,-0.31,0">Crisis,&#8221; C. Fred Bergsten and Jacob Funk Kirkegaard, Policy Brief PB12-1, </tspan>
<tspan x="75.00" y="703.50" textLength="156.63" dx="0,-0.07,0.02,0.01,0.05,0.12,0.06,-0.02,-0.08,-0.08,0.16,0.11,0.04,0.09,-0.06,0.14,0,0.09,-0.04,-0.02,-0.07,-0.08,-0.07,-0.03,-0.07,-0.08,0.16,-0.05,0.01,0.05,0.2,0.1,-0.02,0.09,-0.04,-0.02,0.1,0.15,-0.07,-0.08,0.1,-0.08,-0.02,-0.04,-0.02,0.19,-0.02,0.02,-0.06">Peterson Institution for International Economics.</tspan>
<tspan x="75.00" y="710.00" textLength="3.89" font-size="7.00">b</tspan>
<tspan x="78.81" y="713.00" textLength="16.66" dx="0,-0.08,-0.08,0.08,0.02,-0.08">  See </tspan>
<tspan x="95.40" y="713.00" textLength="167.42" class="f1535 f815" dx="0,-0.13,0.03,0.02,0.03,0.24,-0.08,-0.08,-0.02,0.02,0.07,0.07,0.13,0.05,0.05,0.02,0.04,-0.08,-0.08,0.08,-0.1,0.05,0.02,-0.08,-0.08,0.03,0.11,-0.08,-0.08,0.05,0.05,-0.08,-0.08,-0.01,0.13,0.08,0.1,0.08,-0.08,-0.08,0.06,0.01,0.08,0.08,0.09,0.11,-0.02,-0.05,0.06">Japan: Population Again and the Fiscal Challenge,</tspan>
<tspan x="262.75" y="713.00" textLength="18.01" dx="0,-0.08,0.17,0.17,-0.4,0"> IMF, </tspan>
<tspan x="75.00" y="722.50" textLength="218.7" dx="0,-0.15,-0.08,0.25,0.16,-0.07,0,0.11,-0.04,-0.03,0.05,0.02,-0.08,-0.08,-0.04,-0.08,-0.08,0.08,0.14,0.25,0.09,0.2,-0.08,-0.08,-0.09,0.19,0.2,-0.02,0.05,0.1,0.07,0.03,-0.08,-0.08,0.15,-0.01,-0.08,-0.08,0.07,0.15,0.19,-0.02,-0.08,-0.08,-0.1,0.14,0.25,0.02,-0.03,0.02,-0.13,-0.08,-0.08,-0.08,0.19,0.1,0.15,-0.04,-0.06,-0.08,-0.08,0.15,-0.01,0">(co-authored by Martin Muhleisen and Hamid Faruqee) Finance and </tspan>
<tspan x="75.00" y="732.00" textLength="160.52" dx="0,0.08,0.05,-0.07,-0.03,-0.05,-0.05,-0.04,-0.01,0.03,-0.05,-0.01,-0.08,-0.08,-0.41,-0.04,-0.06,0.19,-0.01,-0.08,-0.08,0,0.04,-0.08,-0.08,-0.1,0.19,0.03,0.06,0.05,-0.08,-0.08,-0.31,-0.08,-0.08,0.07,0.14,0.02,0,-0.08,-0.08,0.06,0.2,-0.34,-0.34">Development, Volume 38, Number 1, March 2001.</tspan></text><path d="M15 21 l-15 0 M639 21 l15 0 M15 813 l-15 0 M639 813 l15 0 M21 15 l0 -15 M21 819 l0 15 M633 15 l0 -15 M633 819 l0 15 " style="stroke:#ffffff;stroke-width:1.25;"/><path d="M15 21 l-15 0 M639 21 l15 0 M15 813 l-15 0 M639 813 l15 0 M21 15 l0 -15 M21 819 l0 15 M633 15 l0 -15 M633 819 l0 15 " style="stroke:#000000;stroke-width:0.25;"/>
</svg>
