<svg class="crocodoc-2jt6Qd crocodoc-page-svg" version="1.1"
    xmlns="http://www.w3.org/2000/svg"
    xmlns:xlink="http://www.w3.org/1999/xlink"
    xmlns:xhtml="http://www.w3.org/1999/xhtml"
    xml:space="preserve" width="654.0pt" height="834.0pt" viewBox="0 0 654.0 834.0">
<xhtml:link href="stylesheet.css" type="text/css" rel="stylesheet" />
<style>
.crocodoc-2jt6Qd tspan { white-space:pre; }
.crocodoc-2jt6Qd path { fill:transparent; }

</style>
<defs>
<linearGradient id="Grad_16_27_2jt6Qd" x1="64.81%" y1="92.15%" x2="11.00%" y2="92.15%"><stop offset="0.00" style="stop-color:#ffffff" /><stop offset="0.25" style="stop-color:#eeeeee" /><stop offset="0.50" style="stop-color:#bdbdbd" /><stop offset="0.75" style="stop-color:#6d6d6d" /><stop offset="1.00" style="stop-color:#000000" /></linearGradient>
<mask id="Mask_15_27_2jt6Qd">
<g ><path d="M3 831 l648 0 l0 -828 l-648 0 l0 828 " style="fill:url(#Grad_16_27_2jt6Qd);"/></g></mask>
</defs>

<g style="opacity:0.40;" ><path d="M577.78 751.59 c-0.76 -0.59 -1.54 -1 -2.32 -1.22 c-0.78 0.14 -1.43 0.38 -1.9 0.71 c0.44 0 0.88 0.01 1.32 0.05 c0.96 0.07 1.93 0.23 2.9 0.46 M579.18 751.73 c0.17 -0.35 0.33 -0.64 0.48 -0.88 c0.05 -0.08 0.1 -0.16 0.15 -0.23 c-0.57 -0.14 -1.16 -0.25 -1.75 -0.32 c-0.08 -0.01 -0.17 -0.02 -0.26 -0.02 c-0.12 -0.01 -0.24 -0.02 -0.36 -0.02 c0.59 0.38 1.17 0.87 1.73 1.48 M577.97 756.57 c0.73 0.19 1.48 0.32 2.21 0.38 c0.46 0.03 0.92 0.04 1.37 0.01 c-0.64 -1.48 -1.37 -2.76 -2.18 -3.83 c-0.42 0.94 -0.89 2.1 -1.39 3.44 M577.41 752.35 c-0.71 -0.14 -1.42 -0.24 -2.12 -0.29 c-0.83 -0.06 -1.66 -0.06 -2.48 -0.01 c-0.16 0.53 -0.01 1.14 0.44 1.76 c1.37 -0.66 2.77 -1.15 4.16 -1.47 M571.96 754.49 c-0.53 -0.76 -0.75 -1.53 -0.63 -2.26 c-2.4 0.39 -4.61 1.32 -6.39 2.7 c-0.59 1.34 -0.26 2.92 0.93 4.48 c1.74 -1.95 3.83 -3.65 6.09 -4.92 M572.39 750.55 c-1.2 0.27 -2.36 0.68 -3.46 1.22 c0.91 -0.28 1.86 -0.48 2.85 -0.59 c0.16 -0.23 0.37 -0.44 0.61 -0.63 M566.82 760.48 c1.62 1.59 4.03 2.99 6.82 3.97 c0.85 -2.48 1.77 -4.88 2.67 -6.97 c-1.44 -0.53 -2.71 -1.27 -3.6 -2.11 c-2.19 1.34 -4.22 3.11 -5.9 5.12 M582.39 751.87 c0.23 0.02 0.46 0.04 0.69 0.07 c-0.52 -0.33 -1.13 -0.63 -1.77 -0.88 c-0.13 -0.05 -0.25 -0.09 -0.38 -0.13 c-0.23 0.16 -0.54 0.51 -0.87 0.98 c0.8 -0.09 1.59 -0.1 2.33 -0.05 M578.56 776.65 c-2.06 -0.15 -4.16 -0.53 -6.23 -1.12 c-0.37 1.66 -0.63 3.04 -0.77 4.12 l-0.03 0.2 c-0.03 0.28 -0.06 0.5 -0.07 0.71 c1.08 0.5 2.22 0.71 3.36 0.79 c1.93 0.14 3.84 -0.05 5.68 -0.59 c0.12 -0.13 0.17 -0.18 0.22 -0.24 c0.88 -1.02 1.56 -2.31 2.08 -3.9 c-1.36 0.12 -2.79 0.13 -4.25 0.02 M572.87 773.26 c2.03 0.58 4.09 0.95 6.12 1.11 c1.53 0.12 3.02 0.1 4.42 -0.05 c0.2 -0.98 0.34 -2.01 0.41 -3.07 c0.09 -1.18 0.1 -2.4 0.05 -3.65 c-1.22 0.12 -2.5 0.13 -3.81 0.03 c-1.79 -0.13 -3.61 -0.46 -5.41 -0.97 c-0.68 2.32 -1.28 4.54 -1.78 6.61 M580.2 765.83 c1.22 0.09 2.41 0.08 3.54 -0.03 c-0.26 -2.62 -0.84 -5.21 -1.67 -7.5 c-0.61 0.05 -1.25 0.06 -1.91 0.01 c-0.88 -0.07 -1.78 -0.22 -2.66 -0.46 c-0.76 2.13 -1.57 4.57 -2.33 7.08 c1.67 0.47 3.36 0.77 5.03 0.9 M576.86 756.23 c0.58 -1.27 1.13 -2.37 1.64 -3.28 c-1.49 0.33 -3 0.89 -4.5 1.67 c0.73 0.64 1.71 1.19 2.85 1.6 M562.29 770.66 c-0.09 1.23 0.01 2.39 0.3 3.44 c0.29 0.45 0.61 0.89 0.94 1.31 c0.24 0.3 0.5 0.6 0.77 0.89 c1.56 1.68 3.5 3.02 5.62 3.89 c0 -0.22 0.01 -0.45 0.02 -0.7 l0.02 -0.29 c0.09 -1.13 0.32 -2.54 0.68 -4.22 c-3.35 -1.16 -6.28 -2.83 -8.32 -4.73 c-0.01 0.13 -0.03 0.26 -0.04 0.39 M565.72 761.9 c-1.36 1.91 -2.34 3.9 -2.91 5.92 c1.96 1.97 4.92 3.71 8.36 4.91 c0.52 -2.08 1.16 -4.28 1.9 -6.57 c-2.98 -1.04 -5.58 -2.55 -7.35 -4.26 M560.96 770.78 c0 -0.28 0.01 -0.57 0.03 -0.85 c0.02 -0.31 0.06 -0.63 0.11 -0.96 c-0.32 -0.4 -0.61 -0.8 -0.85 -1.2 c0.13 1.02 0.37 2.03 0.71 3.01 M563.19 756.56 c-0.09 0.1 -0.17 0.2 -0.26 0.3 c-1.34 1.9 -2.22 4.03 -2.6 6.32 c0.07 1.08 0.52 2.19 1.35 3.32 c0.63 -1.97 1.65 -3.89 3.03 -5.71 c-1.13 -1.42 -1.65 -2.87 -1.53 -4.24 M582.99 779.83 c2.34 -1.12 4.34 -2.78 5.87 -4.85 c-1.18 0.65 -2.62 1.13 -4.28 1.42 c-0.41 1.32 -0.95 2.47 -1.59 3.43 M585.27 765.59 c2.38 -0.45 4.17 -1.41 5.06 -2.69 c-0.96 -2.27 -2.48 -4.4 -4.41 -6.15 c-0.56 0.65 -1.47 1.12 -2.63 1.38 c0.95 2.29 1.63 4.86 1.98 7.47 M586.44 755.85 c1.89 1.6 3.43 3.53 4.47 5.63 c0.05 -0.32 0.06 -0.65 0.02 -0.98 c-0.86 -2.34 -2.3 -4.47 -4.16 -6.16 c-0.13 -0.09 -0.27 -0.18 -0.42 -0.27 c0.24 0.62 0.27 1.22 0.09 1.79 M581.23 752.69 c1.42 0.58 2.76 1.32 4 2.21 c0.05 -0.51 -0.15 -1.07 -0.61 -1.64 c-0.83 -0.28 -1.73 -0.46 -2.67 -0.53 c-0.23 -0.02 -0.47 -0.03 -0.71 -0.03 M584.79 755.8 c-1.3 -1.01 -2.73 -1.85 -4.25 -2.49 c0.79 1.01 1.51 2.19 2.15 3.51 c0.93 -0.19 1.67 -0.55 2.1 -1.02 M590.95 764.68 c-1.12 1.29 -3.06 2.25 -5.49 2.7 c0.11 1.43 0.11 2.84 0.01 4.19 c-0.06 0.85 -0.17 1.69 -0.32 2.49 c2.65 -0.52 4.64 -1.52 5.78 -2.92 c0.19 -0.51 0.35 -1.05 0.49 -1.59 c0.01 -0.09 0.02 -0.16 0.02 -0.23 c0.11 -1.53 -0.05 -3.09 -0.49 -4.65 " style="fill:#d3d2d2;"/></g><text class="f5782 f5765" font-size="8.00" style="fill:#231f20"><tspan x="573.86" y="769.34" textLength="4.74">3</tspan></text><text class="f1538 f781" font-size="8.00" style="fill:#656263"><tspan x="430.93" y="769.13" textLength="119.7" dx="0,0.56,0.56,0.56,0.56,0.56,0.56,0.56,0.56,0.56,0.56,0.56,0.56,0.56,0.56,0.56,0.56,0.56,0.56,0.56,0.56,0.56,0.56,0.56,0.56,0.56,0.56,0.56,0.56">National Intelligence Council</tspan></text>
<g mask="url(#Mask_15_27_2jt6Qd)" ><path d="M420.5 766.5 l-344.75 0 " style="stroke:#918f8f;stroke-width:1.00;stroke-dasharray:0.001,1.999;stroke-linecap:round;stroke-linejoin:round;"/><path d="M422.5 766.5 M74.75 766.5 " style="stroke:#918f8f;stroke-width:1.00;stroke-linecap:round;stroke-linejoin:round;"/></g><text class="f5782 f5765" font-size="11.00" style="fill:#758b0d"><tspan x="75.00" y="91.00" textLength="89.79">INTRODUCTION </tspan></text><text class="f1489 f786" font-size="10.00" style="fill:#231f20"><tspan x="75.00" y="119.00" textLength="221.39" dx="0,0.24,0.27,0.14,0,0,0.06,0.04,0.05,-0.03,0.36,0,0,0.14,0,0,0.27,-0.06,0.01,0.05,-0.02,0.03,0.03,0,0,-0.04,0,0,0.05,0.13,0.27,-0.11,0.28,0.13,-0.01,0.01,0,0,0.15,0.27,0.27,0.29,0.31,0.27,-0.03,0,0,0.04,0.09,-0.08,0,0">This report is intended to stimulate thinking about </tspan>
<tspan x="75.00" y="133.00" textLength="204.2" dx="0,0.15,0.27,0.14,0,0,0.22,-0.07,-0.05,-0.03,0.07,0,0,0.08,0.18,0.05,0,0,0.2,0.3,0.22,0.01,0,0,-0.03,0,0,-0.06,0.03,-0.07,0.05,-0.04,0.26,-0.07,0.13,-0.03,0.06,0.21,-0.02,0,0,0.01,-0.11,-0.02,-0.05,-0.02,0.28,-0.03,-0.1,0">this rapid, vast array of geopolitical, economic, </tspan>
<tspan x="75.00" y="147.00" textLength="220.48" dx="0,0.21,-0.02,0,0,0.01,0.01,0.01,0.28,-0.05,-0.04,-0.06,0.02,0.23,-0.03,0.06,0.21,0,0,0.01,0.14,0.21,-0.03,-0.06,0.08,0,0,0.14,0.22,0.21,0.15,0,-0.09,-0.03,0.29,0.28,0.27,-0.03,0,0,-0.08,0.26,0,0,-0.14,-0.03,0.02,-0.03,0">and technological changes transforming our world </tspan>
<tspan x="75.00" y="161.00" textLength="220.05" dx="0,-0.04,0.09,0.17,0.01,0,0,0.21,-0.02,0,0,0.15,-0.02,0.08,0.26,0,0,0.05,-0.03,0.01,0.05,-0.06,0.13,0.13,0.21,0,0,0.14,0.22,-0.06,0.01,0.01,0.13,-0.04,-0.03,0.31,-0.03,0.08,0,0,-0.11,-0.09,0.07,0,0,0.15,-0.02,0,0,-0.02,-0.01,0.25,0">today and their potential trajectories over the next </tspan>
<tspan x="75.00" y="175.00" textLength="50.11" dx="0,-0.85,0.37,-0.26,0.08,0,0,-0.12,0.11,0.2,0.18,-0.08">15-20 years.</tspan>
<tspan x="75.00" y="203.00" textLength="213.33" dx="0,-0.61,0,0,0.09,0.03,0.23,0.27,0,0,-0.06,0,0,-0.03,0.03,0.05,-0.06,0.13,0.32,0.48,0.18,0.27,-0.03,0,0,0.02,0.14,-0.01,0,0,-0.14,0,0,0.09,0.03,0,0,0.18,0,0,0.15,-0.02,0,0,-0.04,0.05,0.05,0">We begin by identifying what we see as the most </tspan>
<tspan x="75.00" y="217.00" textLength="45.86" dx="0,0.27,-0.08,0.05,-0.03,0.36,0.18,0.21,-0.06,0">important </tspan>
<tspan x="120.85" y="217.00" textLength="56.42" class="f1496 f789" dx="0,0.1,-0.06,-0.2,0.1,0,0.01,0.12,0.07,0.08">megatrends</tspan>
<tspan x="177.26" y="217.00" textLength="124.81" dx="0,0,-0.03,0,0,-0.08,0.26,0,0,0.14,0.22,0.21,0.15,0,-0.09,-0.03,0.29,0.28,0.27,-0.03,0,0,-0.14,-0.03,0.02,-0.03,-0.1"> of our transforming world&#8212;</tspan>
<tspan x="75.00" y="231.00" textLength="224.55" dx="0,0.27,-0.02,0.18,0.04,0.21,-0.03,-0.03,0.18,0.21,0,0,0.05,-0.08,0.05,-0.11,-0.14,0.08,0.29,-0.01,0.05,-0.06,0,0,0,0.15,-0.02,0,0,0.18,0.32,0.27,0.34,0.15,0.03,-0.06,-0.02,0,0,-0.03,0,0,0.05,-0.11,-0.14,0.08,0,0,-0.04,0">individual empowerment, the diffusion of power to </tspan>
<tspan x="75.00" y="245.00" textLength="214.36" dx="0,-0.11,0.28,-0.07,0.13,0.32,0.08,0.03,-0.08,0.03,0.01,0.03,0,0,-0.02,0.03,0.31,-0.14,-0.03,0.03,0.19,0,0,0.21,-0.02,0,0,0.21,0.06,-0.02,0,0,-0.61,0.08,0.05,0,0,-0.04,0,0,0.22,0.18,0.05,0,0,0.21,-0.02,0">multifaceted networks and from West to East and </tspan>
<tspan x="75.00" y="259.00" textLength="218.93" dx="0,0.09,-0.08,0,0.15,-0.01,0,0,0.03,0.05,-0.04,0.02,0.23,0.22,-0.07,-0.07,0.27,-0.03,0,0,0.03,-0.01,0.19,0.01,0.08,0.29,0.15,0,0,0.27,-0.04,0.24,0.29,0.26,-0.04,0.24,-0.06,0.01,0.03,0,0,-0.06,0,0,0.12,0.23,0.27,-0.03,0">South, demographic patterns highlighted by aging </tspan>
<tspan x="75.00" y="273.00" textLength="236.66" dx="0,0.05,-0.07,-0.1,0.28,0.13,-0.01,0.13,-0.06,-0.02,0.15,0,0,0.21,-0.02,0,0,-0.01,0.07,-0.07,-0.06,0.09,0.18,0.27,-0.03,0,0,0.28,-0.03,0.03,0.2,-0.03,0,0,0.01,0.13,0.18,0.11,0.09,0.08,-0.04,0,0,0.21,-0.02,0,0,0.14,-0.01,0.2,0.26,0.22,0.21,0">populations and exploding middle classes, and natural </tspan>
<tspan x="75.00" y="287.00" textLength="234.6" dx="0,0.06,0.08,0.08,-0.08,0.26,0.03,-0.08,0,0,0.01,0.14,0.21,0.28,-0.03,0.05,-0.03,-0.06,0.08,-0.08,0,0,0.24,-0.02,0.08,0.09,0,0,-0.01,0.03,0.08,-0.01,0.14,0.06,0.05,-0.02,0.14,0,0,0.2,0.06,0,0,0.33,-0.05,-0.11,0.04,0.04,-0.04,-0.03,-0.11,0">resource challenges. These megatrends are knowable. </tspan>
<tspan x="75.00" y="301.00" textLength="231.61" dx="0,0.16,0,0,0.15,-0.02,0.05,0.16,0.09,-0.04,0.04,-0.09,0.08,0,0,0.15,-0.02,0.1,0,0,0.05,-0.03,0.27,-0.06,0,0,-0.04,0,0,0,0,0.14,0.22,0.21,0.15,0,-0.09,-0.03,0.29,-0.01,0.03,0,0,-0.14,-0.03,0.02,-0.03,0.07,0,0,-0.08,0,0">By themselves they point to a transformed world, but </tspan>
<tspan x="75.00" y="315.00" textLength="229.64" dx="0,0.15,-0.02,0,0,-0.14,-0.03,0.02,-0.03,0,0,-0.11,-0.08,0.28,-0.03,0,0,0.14,0.22,0.21,0.15,0,-0.09,-0.03,0.29,0,0,-0.07,0.15,0.09,-0.04,0.32,0,0,0.27,0,0,0.22,0.04,0.18,-0.03,0.06,0.21,0.28,0.06,0,0,0.18,0.32,0.27,-0.09,0.08,0.06,0.05,-0.06,0">the world could transform itself in radically different </tspan>
<tspan x="75.00" y="329.00" textLength="193.67" dx="0,0.04,0.01,0.07,-0.08,0,0,-0.61,0,0,0.2,0.06,0,0,-0.02,0.11,0.04,0.18,0.27,-0.03,0,0,0.27,-0.06,-0.04,0,0,0.28,-0.05,0.01,0.14,0.2,0.36,0.01,0.03,0,0,0.04,-0.01,0.01,0.08,0.18,-0.08">ways. We are heading into uncharted waters.</tspan>
<tspan x="75.00" y="357.00" textLength="208.14" dx="0,-0.61,0,0,-0.11,-0.02,-0.06,0.01,0.05,-0.02,0,0,0.15,0.14,-0.01,0,0,0.15,-0.02,0,0,-0.01,0.03,0.08,-0.01,0.14,0.06,0.05,-0.02,0.14,0,0,0.2,0.06,0,0,0.27,-0.06,0.01,0.08,0.22,0.03,0.13,0.13,0.27,-0.03,0">We contend that the megatrends are interacting </tspan>
<tspan x="75.00" y="371.00" textLength="89.89" dx="0,0.16,-0.07,0.15,0,0,0.03,0.32,0,0,0.08,0.2,0.31,0.13,0.04,-0.04,-0.03,0.08,0,0,-0.03,0">with six variables or </tspan>
<tspan x="164.88" y="371.00" textLength="72.63" class="f1496 f789" dx="0,-0.2,0.04,0.1,0.03,0.24,-0.11,-0.17,0.04,-0.01,-0.17,0.1,-0.06">game-changers</tspan>
<tspan x="237.52" y="371.00" textLength="41.37" dx="0,0,0.15,0.14,-0.01,0,0,0.16,0.28,0.28,0"> that will </tspan>
<tspan x="75.01" y="385.00" textLength="222.19" dx="0,0.03,0.03,0.01,0.08,0.29,0.28,0.27,-0.02,0,0,0.02,0.14,-0.01,0,0,0.31,0.27,-0.02,0,0,-0.03,0,0,0.14,0.22,0.21,0.15,0,-0.09,-0.03,0.29,-0.01,0.03,0,0,-0.14,-0.03,0.02,-0.03,0,0,-0.14,0,0,0.16,0.28,0.28,0">determine what kind of transformed world we will </tspan>
<tspan x="75.01" y="399.00" textLength="217.11" dx="0,0.27,0.28,0.14,0.04,-0.03,-0.07,0,0,0.27,0,0,0.08,-0.07,0.01,-0.16,0,0,0.24,-0.02,0.08,0.09,0,0,0.08,0.21,-0.01,0.21,0.35,0.01,0.14,0.21,-0.03,-0.06,0.08,0.18,0,0.08,0,0.04,0.08,0.05,0.13,-0.06,-0.02,0.15,0">inhabit in 2030. These game-changers&#8212;questions </tspan>
<tspan x="75.01" y="413.00" textLength="200.45" dx="0,0.04,0.09,-0.08,0,0,0,0.15,-0.02,0,0,0.25,-0.06,-0.01,0.06,0.21,0,0,0.01,-0.11,-0.02,-0.05,-0.02,-0.01,-0.75,0,0,0.14,-0.01,0.13,-0.06,-0.02,0.14,0.21,0,0,0.21,-0.02,0,0,0.25,-0.06,-0.01,0.06,0.21,0">about the global economy, national and global </tspan>
<tspan x="75.01" y="427.00" textLength="230.86" dx="0,-0.09,-0.11,-0.09,0.08,0.29,0.14,0.21,-0.05,-0.08,-0.07,0,0,0.15,-0.02,0,0,0.14,-0.01,0.2,0.26,0.06,0,0,-0.03,0,0,-0.11,-0.02,0.34,0.28,-0.03,0.13,0,0,0,0.06,0.03,0.23,-0.06,-0.02,0.14,0.21,0,0,-0.03,-0.05,0.28,0.28,-0.06,-0.11,-0.09,0.08,-0.44,0">governance, the nature of con&#59905;ict, regional spillover, </tspan>
<tspan x="75.01" y="441.00" textLength="221.81" dx="0,0.04,0.08,0.08,0.21,-0.05,0.07,0.27,-0.03,0,0,0.01,0.01,0.01,0.28,-0.05,-0.04,-0.06,0.02,0.23,-0.03,0.08,-0.04,0,0,0.21,-0.02,0,0,0.15,-0.02,0,0,-0.12,0.27,-0.07,0.01,0.03,0,0,0.01,0.18,-0.01,0.01,0.08,-0.22,0,0,0.06,-0.04,-0.03,0">advancing technologies, and the United States&#8217; role </tspan>
<tspan x="75.01" y="455.00" textLength="211.6" dx="0,0.27,0,0,0.15,-0.02,0,0,0.27,-0.06,0.01,0.08,0.29,0.14,-0.01,0.13,-0.06,-0.02,0.14,0.21,0,0,0.2,0.06,0.05,0.14,-0.19,-0.02,0.2,0.06,0,0,0.15,-0.02,0,0,0.22,-0.02,0,0,-0.04,-0.03,0.05,-0.01,0.05,-0.06,0.15,0">in the international arena&#8212;are the raw elements </tspan>
<tspan x="75.01" y="469.00" textLength="207.69" dx="0,0.15,0.14,-0.01,0,0,-0.11,-0.08,0.28,-0.03,0,0,0.08,-0.11,0,0,0.15,-0.02,0,0,0.09,0.03,0.03,0.14,0,0,-0.03,0,0,0.25,-0.06,-0.01,0.06,0.21,0,0,0.18,0.14,0,0.35,-0.05,-0.05,0.13,-0.06,-0.02,0,0,-0.03,0">that could sow the seeds of global disruption or </tspan>
<tspan x="75.01" y="483.00" textLength="87.69" dx="0,0.27,-0.05,0.07,0.06,0.03,0.18,0.03,-0.04,-0.03,0,0,0.04,0.08,0.08,0.21,-0.05,-0.08,0.08,-0.08">incredible advances.</tspan>
<tspan x="75.01" y="511.00" textLength="225.05" dx="0,0.15,0.18,0.09,0.03,0,0,-0.02,0,0,0.02,0.14,-0.01,0,0,-0.14,0,0,0.33,-0.05,-0.11,0,0,0.04,0.09,-0.08,0,0,0,0.15,-0.02,0,0,-0.01,0.03,0.08,-0.01,0.14,0.06,0.05,-0.02,0.14,-0.04,0,0,0.21,-0.02,0">Based on what we know about the megatrends, and </tspan>
<tspan x="75.01" y="525.00" textLength="215.1" dx="0,-0.06,0,0,0.05,0.05,0.03,-0.07,0.13,0.27,-0.03,0,0,0.15,-0.02,0,0,0.05,0.05,0.11,0.03,0.03,-0.04,-0.03,0,0,0.27,-0.06,0.01,0.08,0.22,0.03,0.13,0.13,-0.06,-0.02,0.15,0,0,0.09,0.02,0.31,-0.14,0.03,0.05,0,0,0.15,-0.02,0">by positing the possible interactions between the </tspan>
<tspan x="75.01" y="539.00" textLength="231.65" dx="0,-0.01,0.03,0.08,-0.01,0.14,0.06,0.05,-0.02,0.14,0,0,0.21,-0.02,0,0,0.15,-0.02,0,0,0.08,0.21,-0.01,0.21,0.35,0.01,0.14,0.21,-0.03,-0.06,0.08,0.18,-0.04,0,0,-0.14,0,0,0.05,-0.07,0.2,0.14,0.03,-0.06,-0.02,0,0,-0.09,-0.08,0.26,0">megatrends and the game-changers, we envision four </tspan>
<tspan x="75.01" y="553.00" textLength="81.67" class="f1496 f789" dx="0,-0.01,0.06,-0.05,0.12,0.14,0.02,0.04,0.03,0,0,-0.14,0.04,0.04,0.17,0.08,0.13">potential worlds.</tspan>
<tspan x="156.70" y="553.00" textLength="139.86" dx="0,0,-0.03,0,0,-0.02,-0.02,0,0,0.05,-0.02,0,0,-0.03,0,0,0.15,-0.02,0,0,-0.03,0.07,0.01,0.13,0.14,0.35,0.28,0,0,0.14,0,0,0"> At one end of the spectrum is a </tspan>
<tspan x="75.01" y="567.00" textLength="71.97" class="f1496 f789" dx="0,0.06,-0.06,0.03,0.14,0.17,-0.1,0,0,-0.04,-0.01,-0.03,0.04,0.07,-0.1">Stalled Engines</tspan>
<tspan x="146.99" y="567.00" textLength="164.79" dx="0,0,-0.14,-0.03,0.02,-0.03,0,0,0.27,0,0,0.02,0.27,-0.03,0.01,0,0,0.15,-0.02,0,0,0.31,0.14,0,0.19,0,0,-0.03,0,0,0.27,-0.06,0.01,0.08,0.18,0.05,0.18,-0.01,0.01,0"> world in which the risks of interstate </tspan>
<tspan x="75.01" y="581.00" textLength="228.2" dx="0,-0.11,-0.02,0.34,0.28,-0.03,0.13,0,0,0.27,-0.05,0.07,0.06,0.11,0.18,0.09,0,0,0.21,-0.02,0,0,0.15,-0.02,0,0,0,0,0,0.06,0.03,0.14,0.06,0.05,-0.05,0.01,-0.02,0.08,-0.08,0,0,-0.03,0,0,0.15,-0.02,0,0,-0.03,0.15,-0.02,0.08,0">con&#59905;ict increase and the US retrenches. At the other </tspan>
<tspan x="75.01" y="595.00" textLength="151.94" dx="0,-0.01,0.25,0.14,0.06,0.05,-0.01,0,0,0.14,0,0,0,0,-0.02,0.06,0.02,0.06,0,0,0.06,0,0.06,0.21,0.13,0.21,-0.05,-0.08,0.03,0,0,0.21,-0.02,0">extreme is a newly rebalanced and </tspan>
<tspan x="226.97" y="595.00" textLength="28.46" class="f1496 f789" dx="0,-0.12,-0.01,-0.11,-0.1">Fused</tspan>
<tspan x="255.43" y="595.00" textLength="41.48" dx="0,0,-0.14,-0.03,0.02,-0.03,0,0,0.27,0"> world in </tspan>
<tspan x="75.01" y="609.00" textLength="226.52" dx="0,0.02,0.27,-0.03,0.01,0,0,0.08,0.07,0.07,0.13,0.21,-0.02,0,0,0.01,-0.11,-0.02,-0.05,-0.02,0.28,-0.03,-0.1,0,0,0.01,0.01,0.01,0.28,-0.05,-0.04,-0.06,0.02,0.23,-0.03,0.06,0.21,-0.02,0,0,0.21,-0.02,0,0,0.05,-0.04,0.26,-0.07,0.13,-0.03,0.06,0.21,0">which social, economic, technological, and political </tspan>
<tspan x="75.01" y="623.00" textLength="225.74" dx="0,-0.06,0.06,0.02,0.23,0.06,0.08,0.11,0,0,0.14,0,0,0.16,-0.03,0.03,0.08,-0.03,-0.06,0.06,0.11,0.03,0.03,0,0,0.22,0,0,0.15,-0.02,0,0,0.28,-0.03,0.03,0.2,-0.03,0,0,0.2,0.06,0,0,0.31,-0.14,0,0,-0.03,0.15,-0.02,0.08,0">progress is widespread. In the middle are two other </tspan>
<tspan x="75.01" y="637.00" textLength="63.43" dx="0,0.05,0.05,0.11,0.03,0.03,-0.03,0.28,0.26,-0.07,0.13,-0.03,0.08,0.21,0,0,0">possibilities: a </tspan>
<tspan x="138.44" y="637.00" textLength="101.81" class="f1496 f789" dx="0,0.14,0.04,0.1,-0.01,0.27,0.21,0.05,-0.14,0.25,-0.13,-0.32,0.11,-0.2,-0.11,0.03,-0.04,0.17,0.06,0.23,-0.07,0.17">Gini-Out-of-the-Bottle</tspan>
<tspan x="240.26" y="637.00" textLength="71.3" dx="0,0,-0.14,-0.03,0.02,-0.03,0,0,0.27,0,0,0.02,0.27,-0.03,0.01,0"> world in which </tspan>
<tspan x="75.01" y="651.00" textLength="114.47" dx="0,0.27,-0.02,0.03,0,0.18,0.21,0.26,-0.07,0.13,-0.03,0.08,0,0,0.03,-0.02,0.28,0.27,0.14,-0.01,0.01,0,0,-0.03,0,0,0">inequalities dominate or a </tspan>
<tspan x="189.48" y="651.00" textLength="73.81" class="f1496 f789" dx="0,-0.31,0.08,0.06,0,-0.06,0.1,-0.05,0,0,-0.46,0.04,0.04,0.17">Nonstate World</tspan>
<tspan x="263.29" y="651.00" textLength="43.62" dx="0,0,0.27,0,0,0.02,0.27,-0.03,0.01,0"> in which </tspan>
<tspan x="75.01" y="665.00" textLength="194.44" dx="0,-0.05,-0.02,0.15,0.05,0.18,-0.01,0.01,0,0,0.02,0.13,-0.04,-0.03,0.18,0,0,-0.04,-0.08,0.26,0.31,0.14,-0.01,0,0,0.09,-0.03,0.15,0,0,-0.09,-0.03,0,0,-0.09,0.07,0.09,0,0,0.21,-0.02,0,0,0.28,0.28,-0.05">nonstate actors &#59905;ourish both for good and ill.</tspan>
<tspan x="75.01" y="693.00" textLength="211.87" dx="0,-0.06,-0.02,-0.02,0,0,-0.03,0,0,0.15,-0.02,0.08,0.09,0,0,-0.08,0,0.01,-0.11,-0.02,-0.01,0.08,0,0,0.14,0,0,0.27,-0.02,0.07,0.21,-0.07,0.18,0.04,-0.04,-0.03,-0.11,0,0,0.24,-0.02,0,0,0.34,0,0.2,0.26,0.06,0">None of these outcomes is inevitable. The future </tspan>
<tspan x="75.01" y="707.00" textLength="208.66" dx="0,-0.14,-0.03,0.02,-0.03,0,0,-0.03,0.05,0.03,0.08,0,0,0.16,0.28,0.28,0,0,0.09,0,0,-0.01,0.14,-0.07,0.07,0.03,0,0,-0.06,0,0,-0.12,0.28,0.15,0.21,0,0,0.12,-0.06,0.05,-0.05,0.26,0,0,0.18,0">world order will be shaped by human agency as </tspan>
<tspan x="75.01" y="721.00" textLength="225.3" dx="0,-0.11,0.01,0.01,0,0,0.18,0,0,0.28,0.33,-0.09,-0.04,-0.03,0.18,0.27,-0.03,0,0,0.14,0.06,0.05,-0.02,0.14,0,0,0.21,-0.02,0,0,0.28,0.14,0.21,-0.06,0.13,-0.03,0.07,-0.09,0.03,-0.01,0.01,0.03,0,0,0.07,-0.09,0.05,-0.07,0.15,-0.08,0">much as unfolding trends and unanticipated events. </tspan></text><text class="f1489 f786" font-size="10.00" style="fill:#231f20"><tspan x="340.51" y="91.00" textLength="231.73" dx="0,0.22,0,0,0.03,0.08,0.09,0.07,0.31,0.03,-0.03,0.27,-0.03,0,0,0.05,-0.03,0.01,0.05,-0.06,0.13,0.13,0.21,0,0,0.34,0,0.2,0.26,0.06,0.08,-0.04,0,0,-0.14,0,0,-0.03,0.03,0.05,-0.06,0.13,0.32,0.48,0,0,0.27,0.34,-0.01,0.01,0.13,0.13,-0.06,-0.02,0">In describing potential futures, we identify in&#59905;ection </tspan>
<tspan x="340.51" y="105.00" textLength="208.39" dx="0,0.05,-0.03,0.27,-0.06,0.15,0,0,0.18,0,0,-0.14,-0.04,0.28,0,0,0.18,0,0,-0.07,-0.09,0.05,-0.03,0.36,0.2,0.28,0.27,-0.07,0.13,-0.03,0.08,0,0,0.21,-0.02,0,0,0.31,0.14,0,0.19,0,0,-0.04,0,0,-0.02,-0.04,-0.09,0">points as well as opportunities and risks to help </tspan>
<tspan x="340.51" y="119.00" textLength="213.06" dx="0,0.06,0.11,0.04,0.03,0.08,0.18,0,0,0.15,0.27,0.27,0.29,0,0,0.04,0.09,-0.08,0,0,0,0.05,0.14,0.22,-0.01,0.01,0.03,0.23,-0.03,0.08,0,0,-0.09,-0.03,0,0,0.27,0.34,-0.06,0.04,0.05,-0.05,0.07,0.27,-0.03,0,0,0.15,-0.02,0">readers think about strategies for in&#59905;uencing the </tspan>
<tspan x="340.51" y="133.00" textLength="77.26" dx="0,-0.14,-0.03,0.02,-0.03,-0.15,-0.51,0,0,0.14,0.22,-0.06,0.01,0.01,0.13,-0.04,-0.03,0.5,-0.79">world&#8217;s trajectory.</tspan></text><text class="f1549 f829" font-size="12.00" style="fill:#758b0d"><tspan x="340.50" y="166.00" textLength="210.72" dx="0,0,0,0,0,0,0,0,0,0,0,0,0,0,0,0,0,0,0,0,0,0,0,0,0,0,0,0,0,-0.22,0,0,0,0,0,0,0,0,0">&#8220;These game-changers . . . are the raw </tspan>
<tspan x="346.50" y="183.00" textLength="202.68">elements that could sow the seeds of </tspan>
<tspan x="346.50" y="200.00" textLength="224.42" dx="0,0,0,0,0,0,0,0,0,0,0,0,0,0,0,0,0,0,0,0,0,0,0,0,0,-0.22,0,0,0,0,0,0,0,0,0,0,0,0,0,0,0,0">global disruption or incredible advances.&#8221;</tspan></text><text class="f1489 f786" font-size="10.00" style="fill:#231f20"><tspan x="340.50" y="231.00" textLength="214.14" dx="0,0.22,0,0,-0.06,0.07,-0.04,0.31,0.27,-0.03,0,0,-0.08,0,0,0,-0.85,0.37,-0.26,0.08,0,0,-0.12,0.11,0.2,0.18,-0.04,0,0,-0.14,0,0,0.14,-0.02,-0.09,0,0,0.08,-0.08,0.03,0.24,-0.06,0,0,-0.05,-0.03,0,0,-0.04,0">In looking out 15-20 years, we have sought not to </tspan>
<tspan x="340.50" y="245.00" textLength="222.23" dx="0,0.09,0,0,-0.11,-0.09,0.07,0.02,0.06,0,0,0.27,0.34,-0.06,0.04,0.05,-0.05,-0.08,0.03,0,0,-0.06,0,0,0.02,0.14,-0.01,0,0,0.14,0.18,0,0,0.09,0.03,0.05,0,0,0.27,0,0,0.15,-0.02,0,0,-0.61,0.08,0.05,0,0">be overly in&#59905;uenced by what has been in the West, </tspan>
<tspan x="340.50" y="259.00" textLength="217.07" dx="0,-0.01,0,0,-0.03,0.11,0.18,0.05,0,0,0,0,0,0.25,-0.06,0.07,-0.02,-0.01,0,0,-0.08,0,0.15,-0.06,0.07,-0.04,0,0,0.06,0.08,0.06,0.28,-0.07,0.13,0.27,-0.03,0,0,0.21,0.06,-0.02,0,0,0.15,-0.02,0,0,0.08,0.27,0.21,0">at least, a gloomy outlook resulting from the 2008 </tspan>
<tspan x="340.50" y="273.00" textLength="222.67" dx="0,0.29,0.14,0.21,-0.05,0.07,0.13,0.21,0,0,0.07,0.31,0.14,0.03,0.14,-0.08,0,0,0.26,-0.01,0.15,-0.02,0.08,-0.44,0,0,-0.14,0,0,0.14,-0.02,-0.09,0,0,0.18,0.22,-0.18,0.05,0,0,0,0,-0.03,0.06,0.06,0.04,0,0,0.2,-0.03,0.06,0">&#59904;nancial crisis. Rather, we have taken a broad view </tspan>
<tspan x="340.50" y="287.00" textLength="231.97" dx="0,-0.03,0,0,0.25,-0.06,-0.01,0.06,0.21,0,0,0.02,0.07,-0.09,-0.04,-0.06,-0.07,-0.04,-0.01,0.05,-0.06,0.15,0,0,-0.01,0,0,0.15,0.27,0.14,0,0,0.27,0.14,0.05,-0.04,-0.03,0.31,-0.03,0.06,0.21,0,0,-0.01,0.28,-0.05,0.13,0.2,0.26,0.06,0,0,0.21,-0.02,0">of global developments at this historical juncture and </tspan>
<tspan x="340.50" y="301.00" textLength="220.34" dx="0,-0.03,0,0,0.15,-0.02,0,0,-0.09,-0.03,0.03,-0.08,0.08,0,0,0.15,0.14,-0.01,0,0,0.2,0.06,0,0,-0.14,-0.03,0.03,0.31,0.27,-0.03,0,0,-0.04,0,0,0.17,0.04,0.01,0,0,0.15,-0.02,0.05,0,0,0.27,0,0,-0.02,-0.02,0">of the forces that are working to sway them in one </tspan>
<tspan x="340.50" y="315.00" textLength="89.09" dx="0,0.18,0.26,0.06,0.01,0.13,0.13,-0.06,-0.02,0,0,-0.03,0,0,0.21,-0.05,-0.03,0.15,-0.02,0.08,-0.48">direction or another.</tspan>
<tspan x="340.50" y="343.00" textLength="216.82" dx="0,0.24,0,0,0.16,-0.07,0.15,0,0,0.15,-0.02,0,0,0.28,-0.09,0.03,-0.51,0,0,-0.06,0.06,0.07,0.21,-0.06,-0.08,0.15,0,0,0.02,-0.06,-0.01,0.06,0.21,0,0,-0.2,0.06,0.05,-0.02,0.14,0,0,0.06,0.04,0.05,-0.03,0.36,0.15,-0.04,0">As with the NIC&#8217;s previous Global Trends reports, </tspan>
<tspan x="340.50" y="357.00" textLength="227.3" dx="0,-0.14,0,0,0.03,0,0,-0.05,-0.03,0,0,0.09,0.03,-0.03,0,0,-0.04,0,0,-0.06,0.06,0.03,0.18,-0.03,0.13,0,0,0.15,-0.02,0,0,0.34,0,0.2,0.26,0.06,-0.08,-0.02,0.21,0,0,0.27,-0.08,0.05,0.05,0.11,0.03,0.03,-0.04,-0.03,0">we do not seek to predict the future&#8212;an impossible </tspan>
<tspan x="340.50" y="371.00" textLength="222.56" dx="0,-0.09,0.11,-0.01,-0.46,-0.08,-0.08,0,0,0,0.27,0.15,0.05,0.01,0.11,0.04,0,0,-0.06,0.06,-0.11,0.21,-0.03,0.03,0,0,0,0,0.21,0.22,0.21,-0.01,0.06,-0.14,-0.03,0.03,0,0,-0.09,-0.03,0,0,0.15,0.27,0.27,0.29,0.31,0.27,-0.03,0">feat&#8212;but instead provide a framework for thinking </tspan>
<tspan x="340.50" y="385.00" textLength="214.31" dx="0,0.04,0.09,-0.08,0,0,0,0.05,-0.03,0.01,0.05,-0.07,0.13,0.13,0.21,0,0,-0.08,0,0.01,-0.11,-0.02,-0.01,0.08,-0.04,0,0,0.15,-0.02,0.08,0.26,0,0,0.27,-0.08,-0.07,0.26,-0.03,0.06,-0.01,0.13,-0.06,-0.02,0.15,-0.04,0,0,0.21,-0.02,0">about potential outcomes, their implications, and </tspan>
<tspan x="340.50" y="399.00" textLength="204.83" dx="0,-0.07,-0.09,0.05,-0.03,0.36,0.2,0.28,0.27,-0.07,0.13,-0.03,0.08,0,0,-0.04,0,0,0.27,0.34,-0.06,0.04,0.05,-0.05,-0.08,0,0,0.15,-0.02,0,0,-0.11,-0.08,0.26,0.18,0.09,0,0,-0.03,0,0,0.07,-0.09,0.05,-0.06,0.15,-0.08">opportunities to in&#59905;uence the course of events.</tspan></text><path d="M15 21 l-15 0 M639 21 l15 0 M15 813 l-15 0 M639 813 l15 0 M21 15 l0 -15 M21 819 l0 15 M633 15 l0 -15 M633 819 l0 15 " style="stroke:#ffffff;stroke-width:1.25;"/><path d="M15 21 l-15 0 M639 21 l15 0 M15 813 l-15 0 M639 813 l15 0 M21 15 l0 -15 M21 819 l0 15 M633 15 l0 -15 M633 819 l0 15 " style="stroke:#000000;stroke-width:0.25;"/>
</svg>
