<svg class="crocodoc-2jt6Qd crocodoc-page-svg" version="1.1"
    xmlns="http://www.w3.org/2000/svg"
    xmlns:xlink="http://www.w3.org/1999/xlink"
    xmlns:xhtml="http://www.w3.org/1999/xhtml"
    xml:space="preserve" width="654.0pt" height="834.0pt" viewBox="0 0 654.0 834.0">
<xhtml:link href="stylesheet.css" type="text/css" rel="stylesheet" />
<style>
.crocodoc-2jt6Qd tspan { white-space:pre; }
.crocodoc-2jt6Qd path { fill:transparent; }

</style>
<defs>
<linearGradient id="Grad_16_9_2jt6Qd" x1="64.81%" y1="92.15%" x2="11.00%" y2="92.15%"><stop offset="0.00" style="stop-color:#ffffff" /><stop offset="0.25" style="stop-color:#eeeeee" /><stop offset="0.50" style="stop-color:#bdbdbd" /><stop offset="0.75" style="stop-color:#6d6d6d" /><stop offset="1.00" style="stop-color:#000000" /></linearGradient>
<mask id="Mask_15_9_2jt6Qd">
<g ><path d="M3 831 l648 0 l0 -828 l-648 0 l0 828 " style="fill:url(#Grad_16_9_2jt6Qd);"/></g></mask>
</defs>

<g style="opacity:0.40;" ><path d="M577.78 751.59 c-0.76 -0.59 -1.54 -1 -2.32 -1.22 c-0.78 0.14 -1.43 0.38 -1.9 0.71 c0.44 0 0.88 0.01 1.32 0.05 c0.96 0.07 1.93 0.23 2.9 0.46 M579.18 751.73 c0.17 -0.35 0.33 -0.64 0.48 -0.88 c0.05 -0.08 0.1 -0.16 0.15 -0.23 c-0.57 -0.14 -1.16 -0.25 -1.75 -0.32 c-0.08 -0.01 -0.17 -0.02 -0.26 -0.02 c-0.12 -0.01 -0.24 -0.02 -0.36 -0.02 c0.59 0.38 1.17 0.87 1.73 1.48 M577.97 756.57 c0.73 0.19 1.48 0.32 2.21 0.38 c0.46 0.03 0.92 0.04 1.37 0.01 c-0.64 -1.48 -1.37 -2.76 -2.18 -3.83 c-0.42 0.94 -0.89 2.1 -1.39 3.44 M577.41 752.35 c-0.71 -0.14 -1.42 -0.24 -2.12 -0.29 c-0.83 -0.06 -1.66 -0.06 -2.48 -0.01 c-0.16 0.53 -0.01 1.14 0.44 1.76 c1.37 -0.66 2.77 -1.15 4.16 -1.47 M571.96 754.49 c-0.53 -0.76 -0.75 -1.53 -0.63 -2.26 c-2.4 0.39 -4.61 1.32 -6.39 2.7 c-0.59 1.34 -0.26 2.92 0.93 4.48 c1.74 -1.95 3.83 -3.65 6.09 -4.92 M572.39 750.55 c-1.2 0.27 -2.36 0.68 -3.46 1.22 c0.91 -0.28 1.86 -0.48 2.85 -0.59 c0.16 -0.23 0.37 -0.44 0.61 -0.63 M566.82 760.48 c1.62 1.59 4.03 2.99 6.82 3.97 c0.85 -2.48 1.77 -4.88 2.67 -6.97 c-1.44 -0.53 -2.71 -1.27 -3.6 -2.11 c-2.19 1.34 -4.22 3.11 -5.9 5.12 M582.39 751.87 c0.23 0.02 0.46 0.04 0.69 0.07 c-0.52 -0.33 -1.13 -0.63 -1.77 -0.88 c-0.13 -0.05 -0.25 -0.09 -0.38 -0.13 c-0.23 0.16 -0.54 0.51 -0.87 0.98 c0.8 -0.09 1.59 -0.1 2.33 -0.05 M578.56 776.65 c-2.06 -0.15 -4.16 -0.53 -6.23 -1.12 c-0.37 1.66 -0.63 3.04 -0.77 4.12 l-0.03 0.2 c-0.03 0.28 -0.06 0.5 -0.07 0.71 c1.08 0.5 2.22 0.71 3.36 0.79 c1.93 0.14 3.84 -0.05 5.68 -0.59 c0.12 -0.13 0.17 -0.18 0.22 -0.24 c0.88 -1.02 1.56 -2.31 2.08 -3.9 c-1.36 0.12 -2.79 0.13 -4.25 0.02 M572.87 773.26 c2.03 0.58 4.09 0.95 6.12 1.11 c1.53 0.12 3.02 0.1 4.42 -0.05 c0.2 -0.98 0.34 -2.01 0.41 -3.07 c0.09 -1.18 0.1 -2.4 0.05 -3.65 c-1.22 0.12 -2.5 0.13 -3.81 0.03 c-1.79 -0.13 -3.61 -0.46 -5.41 -0.97 c-0.68 2.32 -1.28 4.54 -1.78 6.61 M580.2 765.83 c1.22 0.09 2.41 0.08 3.54 -0.03 c-0.26 -2.62 -0.84 -5.21 -1.67 -7.5 c-0.61 0.05 -1.25 0.06 -1.91 0.01 c-0.88 -0.07 -1.78 -0.22 -2.66 -0.46 c-0.76 2.13 -1.57 4.57 -2.33 7.08 c1.67 0.47 3.36 0.77 5.03 0.9 M576.86 756.23 c0.58 -1.27 1.13 -2.37 1.64 -3.28 c-1.49 0.33 -3 0.89 -4.5 1.67 c0.73 0.64 1.71 1.19 2.85 1.6 M562.29 770.66 c-0.09 1.23 0.01 2.39 0.3 3.44 c0.29 0.45 0.61 0.89 0.94 1.31 c0.24 0.3 0.5 0.6 0.77 0.89 c1.56 1.68 3.5 3.02 5.62 3.89 c0 -0.22 0.01 -0.45 0.02 -0.7 l0.02 -0.29 c0.09 -1.13 0.32 -2.54 0.68 -4.22 c-3.35 -1.16 -6.28 -2.83 -8.32 -4.73 c-0.01 0.13 -0.03 0.26 -0.04 0.39 M565.72 761.9 c-1.36 1.91 -2.34 3.9 -2.91 5.92 c1.96 1.97 4.92 3.71 8.36 4.91 c0.52 -2.08 1.16 -4.28 1.9 -6.57 c-2.98 -1.04 -5.58 -2.55 -7.35 -4.26 M560.96 770.78 c0 -0.28 0.01 -0.57 0.03 -0.85 c0.02 -0.31 0.06 -0.63 0.11 -0.96 c-0.32 -0.4 -0.61 -0.8 -0.85 -1.2 c0.13 1.02 0.37 2.03 0.71 3.01 M563.19 756.56 c-0.09 0.1 -0.17 0.2 -0.26 0.3 c-1.34 1.9 -2.22 4.03 -2.6 6.32 c0.07 1.08 0.52 2.19 1.35 3.32 c0.63 -1.97 1.65 -3.89 3.03 -5.71 c-1.13 -1.42 -1.65 -2.87 -1.53 -4.24 M582.99 779.83 c2.34 -1.12 4.34 -2.78 5.87 -4.85 c-1.18 0.65 -2.62 1.13 -4.28 1.42 c-0.41 1.32 -0.95 2.47 -1.59 3.43 M585.27 765.59 c2.38 -0.45 4.17 -1.41 5.06 -2.69 c-0.96 -2.27 -2.48 -4.4 -4.41 -6.15 c-0.56 0.65 -1.47 1.12 -2.63 1.38 c0.95 2.29 1.63 4.86 1.98 7.47 M586.44 755.85 c1.89 1.6 3.43 3.53 4.47 5.63 c0.05 -0.32 0.06 -0.65 0.02 -0.98 c-0.86 -2.34 -2.3 -4.47 -4.16 -6.16 c-0.13 -0.09 -0.27 -0.18 -0.42 -0.27 c0.24 0.62 0.27 1.22 0.09 1.79 M581.23 752.69 c1.42 0.58 2.76 1.32 4 2.21 c0.05 -0.51 -0.15 -1.07 -0.61 -1.64 c-0.83 -0.28 -1.73 -0.46 -2.67 -0.53 c-0.23 -0.02 -0.47 -0.03 -0.71 -0.03 M584.79 755.8 c-1.3 -1.01 -2.73 -1.85 -4.25 -2.49 c0.79 1.01 1.51 2.19 2.15 3.51 c0.93 -0.19 1.67 -0.55 2.1 -1.02 M590.95 764.68 c-1.12 1.29 -3.06 2.25 -5.49 2.7 c0.11 1.43 0.11 2.84 0.01 4.19 c-0.06 0.85 -0.17 1.69 -0.32 2.49 c2.65 -0.52 4.64 -1.52 5.78 -2.92 c0.19 -0.51 0.35 -1.05 0.49 -1.59 c0.01 -0.09 0.02 -0.16 0.02 -0.23 c0.11 -1.53 -0.05 -3.09 -0.49 -4.65 " style="fill:#d3d2d2;"/></g><text class="f5782 f5765" font-size="8.00" style="fill:#231f20"><tspan x="575.19" y="769.34" textLength="2.08">i</tspan></text><text class="f1517 f781" font-size="8.00" style="fill:#656263"><tspan x="430.93" y="769.13" textLength="119.7" dx="0,0.56,0.56,0.56,0.56,0.56,0.56,0.56,0.56,0.56,0.56,0.56,0.56,0.56,0.56,0.56,0.56,0.56,0.56,0.56,0.56,0.56,0.56,0.56,0.56,0.56,0.56,0.56,0.56">National Intelligence Council</tspan></text>
<g mask="url(#Mask_15_9_2jt6Qd)" ><path d="M420.5 766.5 l-344.75 0 " style="stroke:#918f8f;stroke-width:1.00;stroke-dasharray:0.001,1.999;stroke-linecap:round;stroke-linejoin:round;"/><path d="M422.5 766.5 M74.75 766.5 " style="stroke:#918f8f;stroke-width:1.00;stroke-linecap:round;stroke-linejoin:round;"/></g><text class="f1509 f797" font-size="16.00" style="fill:#231f20"><tspan x="216.08" y="259.00" textLength="213.62" dx="0,2.54,-3.7,2.54,-4.06,2.54,2.54,2.54,-4.16,2.54,-4.19,2.54,-4.03,2.54,-4.02,2.54,-4.11,2.88,2.62,2.54,-4.18,2.54,-4.16,2.54,-4.13,2.54,-4.14,2.62">E X ECU T I V E  SU M M A RY</tspan></text><text class="f5785 f5766" font-size="11.00" style="fill:#444141"><tspan x="143.25" y="301.00" textLength="338.4" dx="0,0.44,0.29,0.37,0.33,0.33,0.25,0.45,0.38,0.35,0.81,0.33,0.33,0.37,0.33,0.33,0.31,0.32,0.23,0.37,0.34,0.45,0.38,0.33,0.33,0.21,0.33,0.33,0.54,0.35,0.31,0.35,0.29,0.24,0.34,0.23,0.33,0.33,0.41,0.29,0.31,0.35,0.5,0.31,0.3,0.33,0.33,0.43,0.38,0.37,0.43,0.33,0.33,0.41,0.34,0.33,0.33,0.44,0.43,0.29,0.28,0.33,0.33,0.36,0.34,0">This report is intended to stimulate thinking about the rapid and </tspan>
<tspan x="143.25" y="329.00" textLength="319.45" dx="0,0.39,0.41,0.54,0.33,0.33,0.45,0.38,0.43,0.38,0.32,0.25,0.39,0.35,0.28,0.54,0.31,0.33,0.33,0.46,0.27,0.36,0.3,0.45,0.44,0.33,0.33,0.46,0.28,0.36,0.44,0.33,0.8,0.23,0.37,0.41,0.32,0.33,0.31,0.3,0.33,0.33,0.41,0.34,0.33,0.33,0.34,0.35,0.41,0.31,0.33,0.33,0.21,0.38,0.37,0.24,0.33,0.33,0.36,0.34,0">vast geopolitical changes characterizing the world today and </tspan>
<tspan x="143.25" y="356.99" textLength="354.0" dx="0,0.38,0.39,0.55,0.31,0.37,0.32,0.33,0.33,0.33,0.37,0.31,0.43,0.31,0.31,0.33,0.33,0.41,0.44,0.31,0.28,0.38,0.8,0.21,0.35,0.41,0.28,0.44,0.33,0.33,0.44,0.34,0.41,0.31,0.3,0.33,0.33,0.41,0.34,0.33,0.33,0.34,0.29,0.67,0.33,0.33,-0.28,0.71,0.14,0.46,0.33,0.33,0.25,0.26,0.36,0.54,0.3,0.33,0.33,0.63,0.33,0.33,0.4,0.39,0.41,0.33,0.33,0.41,0.34,0">possible global trajectories during the next 15-20 years. As with the </tspan>
<tspan x="143.25" y="384.99" textLength="355.51" dx="0,0.26,0.3,0.3,-0.08,0.33,0.33,0.35,0.25,0.29,0.4,0.28,0.37,0.41,0.33,0.33,0.25,0.31,0.43,0.31,0.31,0.33,0.33,-0.51,0.25,0.37,0.34,0.52,0.33,0.33,0.25,0.45,0.38,0.35,0.81,0.62,0.29,0.33,0.33,0.34,0.33,0.33,0.43,0.33,0.33,0.34,0.26,0.33,0.33,0.39,0.39,0.37,0.33,0.33,0.21,0.33,0.33,0.35,0.25,0.39,0.37,0.28,0.8,0.33,0.33,0.41,0.34,0">NIC&#8217;s previous Global Trends reports, we do not seek to predict the </tspan>
<tspan x="143.25" y="412.98" textLength="348.16" dx="0,0.47,0.43,0.41,0.34,0.25,0.77,0.68,0.45,0.29,0.28,0.46,0.33,0.33,0.34,0.37,0.29,0.31,0.33,0.33,0.39,0.33,0.33,0.36,0.33,0.33,0.31,0.43,0.38,0.38,0.55,0.31,0.37,0.32,0.33,0.33,0.33,0.28,0.26,0.34,0.25,0.79,0.37,0.43,0.33,0.33,0.31,0.41,0.54,0.23,0.26,0.33,0.33,0.33,0.35,0.24,0.24,0.4,0.28,0.45,0.33,0.33,0">future&#8212;which would be an impossible feat&#8212;but instead provide a </tspan>
<tspan x="143.25" y="440.98" textLength="356.66" dx="0,0.47,0.44,0.36,0.37,0.34,0.34,0.35,0.46,0.33,0.33,0.25,0.35,0.33,0.33,0.41,0.29,0.31,0.35,0.5,0.31,0.3,0.33,0.33,0.43,0.38,0.37,0.43,0.33,0.33,0.38,0.38,0.55,0.31,0.37,0.32,0.33,0.33,0.33,0.47,0.43,0.41,0.34,0.25,0.44,0.33,0.33,0.36,0.34,0.33,0.33,0.41,0.34,0.31,0.31,0.33,0.33,0.31,0.43,0.32,0.25,0.28,0.54,0.35,0.35,0.28,0.35,0.41,0.3">framework for thinking about possible futures and their implications.</tspan></text><text class="f1486 f791" font-size="12.00" style="fill:#758b0d"><tspan x="147.00" y="553.00" textLength="338.52" dx="0,0,0,0,0,0,0,0,0,0.04,-0.13,0,0,-0.1,0.01,0,0,0,-0.23,0,0,0.04,-0.13,0,0,0.36,-0.14,0.25,0.1,-0.02,0,0,0.05,-0.07,0.16,-0.19,0,0,0.04,0.24,0.17,-0.23,-0.05,-0.02,-0.08,-0.25,0,0,0.05,-0.05,-0.2,0,0,0.04,-0.13,0,0,-0.2,-0.02,0.08,-0.08,-0.08,-0.25,0">&#8220; . . . the idea of the future being different from the present </tspan>
<tspan x="147.00" y="581.00" textLength="333.37" dx="0,0.11,0,0,-0.08,0,0,-0.02,-0.12,-0.19,-0.05,0.08,0,0.01,-0.25,0,0,-0.01,0,0,-0.22,0.1,0,0,-0.16,-0.24,-0.23,-0.25,-0.08,-0.25,0.01,-0.1,-0.24,0,0.1,0,0,-0.11,0.02,0.01,0.08,0,0,-0.23,0,0,0.04,-0.13,-0.22,-0.05,0.12,-0.2,0,0,0.01,-0.13,0">is so repugnant to our conventional modes of thought and </tspan>
<tspan x="147.00" y="609.00" textLength="351.34" dx="0,0.05,-0.22,0.04,-0.1,0,-0.1,-0.23,0,0,0.04,0.04,-0.14,0,0,-0.3,-0.04,0,0,-0.11,-0.02,-0.17,0,0,-0.23,0,0,0.07,-0.19,0,0,-0.23,0.17,-0.23,-0.05,0,0,0,0,0.13,-0.02,0,-0.14,0,0,-0.02,0.08,-0.26,0.11,-0.17,0.11,0.01,-0.17,-0.16,0,0,-0.01,0,0,0.01,0.05,0.01,0.16,-0.19,0">behavior that we, most of us, offer a great resistance to acting </tspan>
<tspan x="147.00" y="636.99" textLength="97.61" dx="0,-0.24,0,0,-0.17,0,0,0.16,0,0,-0.2,0.02,0.01,0.05,0.01,-0.08,-0.16,-0.04,-0.88">on it in practice.&#8221;</tspan>
<tspan x="147.00" y="679.00" textLength="151.05" class="f1496 f789" font-size="11.00" style="fill:#a0b04a" dx="0,-0.01,0.14,0.28,0.33,0.33,-0.04,0.21,0.34,0.37,0.3,0.22,0.33,0.33,-0.09,0.45,0.34,0.37,0.19,0.43,0.33,0.33,-0.62,-0.1,-0.23">John Maynard Keynes, 1937</tspan></text><path d="M15 21 l-15 0 M639 21 l15 0 M15 813 l-15 0 M639 813 l15 0 M21 15 l0 -15 M21 819 l0 15 M633 15 l0 -15 M633 819 l0 15 " style="stroke:#ffffff;stroke-width:1.25;"/><path d="M15 21 l-15 0 M639 21 l15 0 M15 813 l-15 0 M639 813 l15 0 M21 15 l0 -15 M21 819 l0 15 M633 15 l0 -15 M633 819 l0 15 " style="stroke:#000000;stroke-width:0.25;"/>
</svg>
