
<?xml-stylesheet href="css/stylesheet.css" type="text/css"?>
<svg class="crocodoc-zYVf6P crocodoc-page-svg" version="1.1"
    xmlns="http://www.w3.org/2000/svg"
    xmlns:xlink="http://www.w3.org/1999/xlink"
    xml:space="preserve" width="792pt" height="612pt" viewBox="0 0 792 612">
<defs>
<mask id="Mask_481_9_zYVf6P">
<g ><image x="128.42" y="33.47" width="69.12" height="59.04" preserveAspectRatio="none" xlink:href="images/532.jpeg" /></g></mask>
<clipPath id="Clip_494_9_zYVf6P"><path d="M181.77 40.03 c-1.93 0.63 -5.22 1.48 -5.22 1.48 c0 0 -7.32 1.36 -8.78 1.73 c-1.46 0.37 -4.15 1.08 -5.81 2.44 c-0.5 -0.02 -0.6 0.07 -0.6 0.07 c0 0 -3.14 -1.03 -5.49 -1.07 c-2.35 -0.04 -8.53 0.11 -8.53 0.11 l-9.34 -0.44 l-0.41 0.54 c0 0 0.01 0.23 0.07 0.79 c0.25 4.52 1.79 20.74 2.38 24.51 c0.4 3.09 0.88 7.67 0.88 7.67 l0.91 5.96 l0.9 -0.24 l1.84 -0.76 c0 0 0.36 0.03 0.78 -0.01 c0.42 -0.04 1.35 0 1.35 0 l0.63 -0.07 l0.42 -0.05 l0.84 -0.16 c0 0 6.13 -1.29 8.75 -2.13 c2.62 -0.84 5.75 -2.17 6.51 -3.11 c0.76 -0.93 0.71 -1.36 0.71 -1.36 c0 0 1.79 2.8 9.15 3.03 c7.36 0.22 8.07 0.22 8.07 0.22 c0 0 2.25 -0.24 3.02 -0.39 c0.77 -0.15 1.61 -0.24 1.61 -0.24 l1.97 0.43 c0 0 -1.4 -17.5 -1.69 -20.25 c-0.29 -2.75 -2.21 -19.33 -2.21 -19.33 c0 0 -0.87 0.05 -2.72 0.6 " /></clipPath>
</defs>
<text class="f1468" font-size="14.85" style="fill:#918f8f" transform="matrix(1,0,0,0.7407,0,0)"><tspan x="431.72" y="803.51" textLength="14.85">&#59904;</tspan></text><text class="f1489" font-size="12.00" style="fill:#231f20"><tspan x="448.06" y="595.19" textLength="9.68" class="f1468" font-size="11.00" dx="0,3.52,-2.75">&#59905; &#59905;</tspan>
<tspan x="457.13" y="596.19" textLength="7.2" class="f520">8</tspan>
<tspan x="464.33" y="596.19" textLength="2.7"> </tspan>
<tspan x="468.05" y="596.19" textLength="10.22" class="f1492" style="fill:#918f8f">of</tspan>
<tspan x="477.68" y="596.19" textLength="21.06" dx="0,1.8,0,3.3,-1.2"> 8   </tspan>
<tspan x="497.53" y="596.19" textLength="7.21" class="f1490" font-size="16.70" dx="0,-0.83">| </tspan>
<tspan x="501.66" y="596.19" textLength="7.2" dx="0,-1.2,-1.2,-1.2">    </tspan>
<tspan x="507.66" y="596.19" textLength="88.82" class="f1492" style="fill:#918f8f" dx="0,-0.07,0,0,0,0,0,0,0,0,0,0,0,0,0,0">Printing formats</tspan>
<tspan x="596.48" y="596.19" textLength="10.2" dx="0,3.3,-1.2">   </tspan></text><text class="f1468" font-size="14.85" style="fill:#918f8f" transform="matrix(1,0,0,0.7407,0,0)"><tspan x="605.48" y="803.51" textLength="14.85">&#57513;</tspan></text><path d="M20 36 c0 0 -8 0 -8 8 l0 26 c0 0 0 8 8 8 l124.25 0 c0 0 8 0 8 -8 l0 -26 c0 0 0 -8 -8 -8 l-124.25 0 z " style="fill:#231f20;"/><path d="M325.75 36 c0 0 -8 0 -8 8 l0 26 c0 0 0 8 8 8 l446.25 0 c0 0 8 0 8 -8 l0 -26 c0 0 0 -8 -8 -8 l-446.25 0 z " style="fill:#9c9a9b;"/><text class="f1484" font-size="12.50" style="fill:#f4f4f4"><tspan x="48.92" y="61.13" textLength="41.49" dx="0,-0.31,-0.31,-0.31,-0.31,-0.31">Before</tspan>
<tspan x="90.09" y="61.13" textLength="9.95" style="fill:#a665b9">&amp;</tspan>
<tspan x="99.72" y="61.13" textLength="9.49" style="fill:#ef2c3c">A</tspan>
<tspan x="108.89" y="61.13" textLength="5.09" style="fill:#f36717">f</tspan>
<tspan x="113.67" y="61.13" textLength="5.55" style="fill:#fcd205">t</tspan>
<tspan x="118.91" y="61.13" textLength="7.88" style="fill:#179f50">e</tspan>
<tspan x="126.47" y="61.13" textLength="9.25" style="fill:#44aae4">r </tspan></text><path d="M141.5 69 l0 -33 " style="stroke:#ffffff;stroke-width:1.00;"/><text class="f1477" font-size="18.00" style="fill:#f4f4f4"><tspan x="131.71" y="61.47" textLength="3.2" class="f1486" font-size="4.00">&#174;</tspan>
<tspan x="720.67" y="59.99" textLength="17.5" style="fill:#ffffff">X</tspan></text><path d="M689.89 45.91 l0 15.99 " style="stroke:#ffffff;stroke-width:0.83;stroke-linecap:round;"/><path d="M716.22 45.91 l0 15.99 " style="stroke:#ffffff;stroke-width:0.83;stroke-linecap:round;"/><path d="M742.97 45.91 l0 15.99 " style="stroke:#ffffff;stroke-width:0.83;stroke-linecap:round;"/><path d="M769.71 45.91 l0 15.99 " style="stroke:#ffffff;stroke-width:0.83;stroke-linecap:round;"/><path d="M664.06 45.91 l0 15.99 " style="stroke:#ffffff;stroke-width:0.83;stroke-linecap:round;"/><text class="f1488" font-size="7.94" style="fill:#ffffff"><tspan x="672.74" y="59.47" textLength="5.89" font-size="18.00">i</tspan>
<tspan x="585.75" y="56.94" textLength="69.59" class="f1484" dx="0,-0.08,-0.08,-0.08,-0.08,-0.08,-0.08,-0.08,-0.08,-0.08,-0.48,-0.08,-0.08,-0.08">BAmagazine.com</tspan>
<tspan x="693.26" y="60.47" textLength="19.32" class="f1477" font-size="20.00">U</tspan></text><path d="M752.84 47.33 l0 5.36 l0 2.56 l6.27 0 l3.86 0 l0 -7.92 l-10.13 0 z " style="stroke:#ffffff;stroke-width:0.48;"/><path d="M752.88 48.84 l10.08 0 l0 -1.42 l-10.08 0 l0 1.42 z " style="fill:#ffffff;"/><path d="M749.25 53.59 l10.03 0 l0 -1.42 l-10.03 0 l0 1.42 z " style="fill:#ffffff;"/><path d="M749.2 60 l10.13 0 l0 -7.92 l-10.13 0 l0 7.92 z " style="fill:#9c9a9b;"/><path d="M749.2 60 l10.13 0 l0 -7.92 l-10.13 0 l0 7.92 z " style="stroke:#ffffff;stroke-width:0.48;"/><path d="M635.33 584.88 l0 8.23 c0 0 0 6.9 6.9 6.9 l130.87 0 c0 0 6.9 0 6.9 -6.9 l0 -8.23 " style="fill:#7c7ea4;"/><text class="f1484" font-size="9.50" style="fill:#ffffff"><tspan x="643.63" y="595.57" textLength="130.08" dx="0,0,0,0,0,0,0,0,0,0,0,0,0,0,0,0,0,0,0,0,0,7.64,0,0,0">Selecting text type  0269</tspan></text><path d="M141.75 78 l210.75 0 l0 -42 l-210.75 0 l0 42 z " style="fill:#9a97b6;"/><text class="f1489" font-size="12.00" style="fill:#231f20"><tspan x="192.87" y="61.22" textLength="117.49" dx="0,-0.14,0,0,0,0,0,0,0,0,0,0,0,0,0,0,0,0,0,0,0,0,0,0,0,0">Selecting text type       </tspan>
<tspan x="310.36" y="61.22" textLength="7.2" class="f520" style="fill:#ffffff">8</tspan>
<tspan x="317.56" y="61.22" textLength="2.7"> </tspan>
<tspan x="320.26" y="61.22" textLength="10.22" class="f1492">of</tspan>
<tspan x="330.49" y="61.22" textLength="10.62" dx="0,1.56"> 8</tspan></text><path d="M301.69 45.91 l0 15.99 " style="stroke:#ffffff;stroke-width:0.83;stroke-linecap:round;"/><path d="M352.65 36 l0 32 " style="stroke:#ffffff;stroke-width:1.10;"/><path d="M11.5 82.75 l771.5 0 l0 -14.75 l-771.5 0 l0 14.75 z " style="fill:#ffffff;"/><path d="M12 579 l768 0 l0 -510 l-768 0 l0 510 z " style="fill:#cdc4a8;"/><path d="M498.48 367.19 l119.24 0 " style="stroke:#176fc0;stroke-width:0.48;"/><path d="M495.28 380.19 l130.6 0 " style="stroke:#176fc0;stroke-width:0.48;"/><path d="M516.17 449.19 l20.07 0 " style="stroke:#176fc0;stroke-width:0.48;"/><path d="M465.84 488.19 l51.38 0 " style="stroke:#176fc0;stroke-width:0.48;"/><path d="M570.48 501.19 l130.82 0 " style="stroke:#176fc0;stroke-width:0.48;"/><path d="M582.89 514.19 l79.27 0 " style="stroke:#176fc0;stroke-width:0.48;"/><text class="f1491" font-size="9.50" style="fill:#231f20"><tspan x="465.82" y="171.24" textLength="132.49" class="f1484" dx="0,0.23,0.23,0.23,0.23,0.23,0.23,0.23,0.23,-0.12,0.23,0.23,0.23,0.23,0.23,0.23,0.23,0.23,0.23,0.23,0.23,0.23,0.23,0,0.46">Before &amp; After magazine  </tspan>
<tspan x="465.74" y="184.23" textLength="246.95" dx="0,0.22,0.22,0.22,0.22,0.22,0.22,0.22,0.22,-0.13,0.22,0.22,0.22,0.22,0.22,0.22,0.22,0.22,0.22,0.22,0.22,0.22,0.22,0.22,0.22,0.22,0.22,0.22,0.22,0.22,0.22,0.22,0.22,0.22,0.22,0.22,0.22,0.22,0.13,0.22,0.22,0.22,0.22,0.22,0.22,0.22,0.22,0.22,0.22,0.22,0.22,0.22,0.22,0.22,0">Before &amp; After has been sharing its practical approach </tspan>
<tspan x="465.53" y="197.23" textLength="258.91" dx="0,0.22,0.22,0.22,0.22,0.12,0.22,0.22,0.22,0.22,0.22,0.22,0.22,0.22,0.22,0.22,0.22,0.22,0.22,0.22,0.22,0.22,0.22,0.22,0.22,0.22,0.22,0.22,0.22,-0.13,0.22,0.22,0.22,0.22,0.22,0.22,0.22,0.22,0.22,0.22,0.22,0.22,0.22,0.22,0.22,0.22,0.22,0.22,0.22,0.22,0.22,0.22,0.22,0.22,0">to graphic design since 1990. Because our modern world </tspan>
<tspan x="465.78" y="210.23" textLength="239.23" dx="0,0.22,0.22,0.22,0.22,0.22,0.22,0.22,0.22,0.22,0.22,0.22,0.22,0.22,0.22,0.22,0.22,0.22,0.22,0.22,0.22,0.22,0.22,0.22,0.22,0.22,0.22,0.22,0.22,0.22,0.22,0.22,0.22,0.22,0.22,0.22,0.22,0.22,0.22,0.22,0.22,0.22,0.22,0.22,-0.13,0.22,0.22,0.22,0.22,0.22,0.22,0.22,0.22,0">has made designers of us all (ready or not), Before &amp; </tspan>
<tspan x="465.14" y="223.22" textLength="253.51" dx="0,0.22,0.22,0.22,0.22,0.22,0.22,0.22,0.22,0.22,0.22,0.22,0.22,0.22,0.22,0.22,0.22,0.22,0.22,0.22,0.22,0.22,0.22,0.22,0.22,0.22,0.22,0.22,0.22,0.22,0.22,0.13,0.22,0.22,0.22,0.22,0.22,0.22,0.22,0.22,0.22,0.22,0.22,0.22,0.22,0.22,0.22,0.22,0.22,0.22,0.22,0.22,0.22,0.22,0.22">After is dedicated to making graphic design understand-</tspan>
<tspan x="465.57" y="236.22" textLength="180.34" dx="0,0.22,0.22,0.22,-0.13,-0.13,0.22,0.22,0.22,0.22,0.22,0.22,0.22,0.22,0.22,0.22,0.22,0.22,0.22,0.22,0.22,0.22,0.22,0.22,0.22,0.22,0.22,0.22,0.22,0.22,0.22,0.22,0.22,0.22,0.22,0.22,0.22,0.22,-0.13,-0.35,0.45">able, useful and even fun for everyone.  </tspan>
<tspan x="465.15" y="262.22" textLength="73.88" class="f1484" dx="0,0.23,0.23,0.23,0.23,0.23,0.23,0.23,-0.01,0.23,0.23,0.23">John McWade </tspan>
<tspan x="539.25" y="262.22" textLength="138.74" dx="0,0.22,0.22,0.22,0.22,0.22,0.22,0.22,0.22,0.22,0.22,0.22,0.22,0.22,0.22,0.22,0.22,0.22,0.22,0.22,0.22,0.22,0.22,0.22,0.22,0.22,0.22,0.22,0.22,0.22,0.22">Publisher and creative director</tspan>
<tspan x="465.56" y="275.22" textLength="75.12" class="f1484" dx="0,0.23,0.23,0.23,0.23,0.23,0.23,0.23,-0.01,0.23,0.23,0.23">Gaye McWade </tspan>
<tspan x="540.91" y="275.22" textLength="88.24" dx="0,0.22,0.22,0.22,0.22,0.22,0.22,0.22,0.22,0.22,0.22,0.22,0.22,0.22,0.22,0.22,0.22,0.22,0.22">Associate publisher</tspan>
<tspan x="465.83" y="288.21" textLength="113.47" class="f1484" dx="0,0.23,0.23,0.23,0.23,0.23,0.23,0.23,0.23,0.23,0.23,0.23,-0.12,0.23,0.23,0.23,0.23,0.23,0.23,0.23,0.23">Dexter Mark Abellera </tspan>
<tspan x="579.53" y="288.21" textLength="62.15" dx="0,0.22,0.22,0.22,0.22,0.22,0.22,0.22,0.22,0.22,0.22,0.22,0.22,0.22">Staff designer</tspan>
<tspan x="465.26" y="301.21" textLength="2.81" class="f1484"> </tspan>
<tspan x="465.83" y="314.20" textLength="126.41" class="f1484" dx="0,0.23,0.23,0.23,0.23,0.23,0.23,0.23,0.23,-0.12,0.23,0.23,0.23,0.23,0.23,0.23,0.23,0.23,0.23,0.23,0.23,0.23,0.23">Before &amp; After magazine</tspan>
<tspan x="465.43" y="327.20" textLength="177.5" dx="0,0.22,0.22,0.22,0.22,0.22,0.22,0.22,0.22,0.22,0.22,0.22,0.22,0.22,0.22,0.22,0.22,0.22,0.22,-0.13,0.22,0.22,0.22,0.22,0.22,0.22,0.22,0.22,0.22,-0.13,-0.13,0.22,0.22,0.22,0.22,0.22,0.22,0.22,0.22,0">323 Lincoln Street, Roseville, CA 95678 </tspan>
<tspan x="465.24" y="340.20" textLength="52.91" class="f1486" dx="0,-0.29,0.23,0.23,0.23,0.23,0.23,0.23,0.23,0.23">Telephone </tspan>
<tspan x="518.37" y="340.20" textLength="64.19" dx="0,0.22,0.22,0.22,0.22,0.22,0.22,0.22,0.22,0.22,0.22,0.22,0">916-784-3880 </tspan>
<tspan x="465.75" y="353.19" textLength="19.62" class="f1486" dx="0,-0.01,0.23,0.23">Fax </tspan>
<tspan x="485.60" y="353.19" textLength="61.55" dx="0,0.22,0.22,0.22,0.22,0.22,0.22,0.22,0.22,0.22,0.22,0.22">916-784-3995</tspan>
<tspan x="465.75" y="366.19" textLength="32.51" class="f1486" dx="0,0.23,0.23,0.23,0.23,0.23,0.23">E-mail </tspan>
<tspan x="498.49" y="366.19" textLength="124.95" style="fill:#176fc0" dx="0,0.22,0.22,0.22,0.22,0.22,0.22,0.22,0.22,0.22,0.22,0.22,0.22,0.22,0.22,0.22,0.22,0.22,-0.13,0.22,0.22,0.22,0.06,0.45">mailbox@bamagazine.com  </tspan>
<tspan x="465.71" y="379.18" textLength="29.35" class="f1486" dx="0,0.23,0.23,0.23">www </tspan>
<tspan x="495.28" y="379.18" textLength="130.52" style="fill:#176fc0" dx="0,0.22,0.22,0.22,0.22,0.22,0.22,0.22,0.22,0.22,-0.65,0.22,0.22,0.22,0.22,0.22,0.22,0.22,0.22,0.22,0.22,-0.13,0.22,0.22,0.22">http://www.bamagazine.com</tspan>
<tspan x="465.55" y="405.19" textLength="217.59" class="f1484" dx="0,0.23,0.23,0.23,0.23,0.23,0.23,0.23,0.23,0.23,0.23,0.7,0.23,0.23,0.23,0.23,0.23,0.23,0.23,0.23,0.23,0.23,0.23,0.23,0.23,-0.12,0.23,0.23,0.23,0.23,0.23,0.23,0.23,0.23,0.23,0.23,0.23,0.23,0.23,-0.05">Copyright &#169;2009 Before &amp; After magazine </tspan>
<tspan x="465.77" y="418.18" textLength="180.67" class="f1484" dx="0,0.23,0.23,0.23,0.23,0.23,0.23,0.23,0.23,0.23,0.23,0.23,0.23,0.23,0.23,-0.12,-0.12,0.23,0.23,0.23,0.23,0.23,0.23,0.23,0.23,0.23,0.23,0.23,0.23,0.23,0.23,0.23,0.23,0.23,0.23,0">ISSN 1049-0035. All rights reserved </tspan>
<tspan x="464.93" y="435.18" textLength="251.15" dx="0,-0.48,0.22,0.22,0.22,0.22,0.22,0.22,0.22,0.22,0.22,0.22,0.22,0.22,0.22,0.22,0.22,0.22,0.22,0.22,0.22,0.22,0.22,0.22,0.22,0.22,0.22,0.22,0.22,0.22,0.22,0.22,0.22,0.22,0.22,0.22,0.22,0.22,0.22,0.22,0.22,0.22,0.22,0.22,0.22,0.22,0.22,0.22,0.22,0.22,0.22,0.22,0.22,0.22,0.22,0.22,0">You may pass along a free copy of this article to others </tspan>
<tspan x="465.77" y="448.17" textLength="50.13" dx="0,0.22,0.22,0.22,0.22,0.22,0.22,0.22,0.22,0.22,0.22,0.22">by clicking </tspan>
<tspan x="516.12" y="448.17" textLength="20.19" style="fill:#176fc0" dx="0,0.22,0.22,0.22">here</tspan>
<tspan x="536.22" y="448.17" textLength="2.64">.</tspan>
<tspan x="538.73" y="448.17" textLength="2.64" style="fill:#176fc0"> </tspan>
<tspan x="541.24" y="448.17" textLength="173.55" dx="0,-0.48,0.22,0.22,0.22,0.22,0.22,0.22,0.22,0.22,0.22,0.22,0.22,0.22,0.22,0.22,0.22,0.22,0.22,0.22,0.22,0.22,0.22,0.22,0.22,0.22,0.22,0.22,0.22,0.22,-0.13,-0.13,0.22,0.22,0.22,0.22,0.22,0.22,0.22,0">You may not alter this article, and you </tspan>
<tspan x="465.63" y="461.17" textLength="236.76" dx="0,0.22,0.22,0.22,0.22,0.22,0.22,0.22,0.22,0.22,0.22,0.22,0.22,0.22,0.22,0.22,0.22,0.22,0.22,0.22,0.22,0.22,-0.13,-0.13,-0.48,0.22,0.22,0.22,0.22,0.22,0.22,0.22,0.22,0.22,0.22,0.22,0.22,0.22,0.22,0.22,0.22,0.22,0.22,0.22,0.22,0.22,0.22,0.22,0.22,0.22,0.22,0,0.61">may not charge for it. You may quote brief sections  </tspan>
<tspan x="465.71" y="474.17" textLength="249.78" dx="0,0.22,0.22,0.22,0.22,0.22,0.22,0.22,0.22,0.22,0.22,-0.13,0.22,0.22,0.22,0.22,0.22,0.22,0.22,0.22,0.22,0.22,0.22,0.22,0.22,0.22,0.22,0.22,0.22,0.22,0.22,0.22,0.22,0.22,0.22,-0.13,0.22,0.22,0.22,0.22,0.22,0.22,0.22,0.22,0.22,0.22,0.22,0.22,0.22,-0.13,-0.13,0.22,0.22,0.22,0,0.62">for review; please credit Before &amp; After magazine, and  </tspan>
<tspan x="465.82" y="487.16" textLength="51.99" style="fill:#176fc0" dx="0,0.22,0.22,0.22,0.22,0.22,0.22,0.22,0.22,0.22,0.22">let us know</tspan>
<tspan x="517.21" y="487.16" textLength="184.39" dx="0,-0.13,-0.13,-0.48,0.22,0.22,0.22,0.22,0.22,0.22,0.22,0.22,0.22,0.22,0.22,0.22,0.22,0.22,0.22,-0.13,0.22,0.22,0.22,0.22,0.22,0.22,0.22,0.22,0.22,0.22,0.22,0.22,0.22,0.22,0.22,0.22,0.22,0.22,0.22,0.22,0.22,0">. To link Before &amp; After magazine to your </tspan>
<tspan x="465.69" y="500.16" textLength="104.48" dx="0,0.05,0.22,0.22,0.22,0.22,0.22,0.22,-0.13,-0.13,0.22,0.22,0.22,0.22,0.22,0.22,0.22,0.22,0.22,0.22,0.22,0.22,0.22,-0.13">Web site, use this URL: </tspan>
<tspan x="570.39" y="500.16" textLength="130.52" style="fill:#176fc0" dx="0,0.22,0.22,0.22,0.22,0.22,0.22,0.22,0.22,0.22,-0.65,0.22,0.22,0.22,0.22,0.22,0.22,0.22,0.22,0.22,0.22,-0.13,0.22,0.22,0.22">http://www.bamagazine.com</tspan>
<tspan x="701.13" y="500.16" textLength="4.93" dx="0,-0.35">. </tspan>
<tspan x="465.73" y="513.15" textLength="116.84" dx="0,-0.02,0.22,0.22,0.22,0.22,0.22,0.22,0.22,0.22,0.22,0.22,0.22,0.22,0.22,0.22,0.22,0.22,0.22,0.22,0.22,0.22,0.22,0.22,0.22,-0.13,-0.13">For all other permissions, </tspan>
<tspan x="582.79" y="513.15" textLength="79.34" style="fill:#176fc0" dx="0,0.22,0.22,0.22,0.22,0.22,0.22,0.22,0.22,0.22,0.22,0.22,0.22,0.22,0.22,0.22,0.22">please contact us</tspan>
<tspan x="662.15" y="513.15" textLength="2.64">.</tspan></text><path d="M141.5 248.43 l218.94 0 " style="stroke:#176fc0;stroke-width:0.60;"/><path d="M181.67 322.43 l51.54 0 " style="stroke:#176fc0;stroke-width:0.60;"/><path d="M141.5 414.93 l195.87 0 " style="stroke:#176fc0;stroke-width:0.60;"/><text class="f1489" font-size="12.00" style="fill:#231f20"><tspan x="141.50" y="173.23" textLength="171.76" class="f1484" dx="0,0,0,0,0,0,0,0,0,0,0,0,0,0,0,0,0,0,0,0,0,0,-0.44,0,0,0,0">Subscribe to Before &amp; After</tspan>
<tspan x="141.50" y="191.74" textLength="229.25" dx="0,-0.29,0,0,0,0,0.1,0,0,0,0,0,0,0,-0.07,0,0,0,-0.24,0,0,0,0,0,0,0,0,-0.72,0,0,0,0,0,0,0,0,0,0,0,0,0,0">Subscribe to Before &amp; After, and become a </tspan>
<tspan x="141.50" y="210.24" textLength="247.96" dx="0,0,0,-0.24,0,0,0,0,0,0,0,0,-0.24,0,0,0,0,0,0,0,0,0,0,0,0,0,0,0,0,0,0,0,0,0,0,0,0,0,0,0,0,0,0,0">more capable, con&#64257;dent designer for pennies </tspan>
<tspan x="141.50" y="228.74" textLength="173.28" dx="0,0,0,0,0,0,0.1,0,0,0,0,-0.24,0,-0.43,-1.2,0,0,0,0,0,0.1,0,0,0,0,-0.24,-0.24,0,0,0,0,0,0,0,0">per article. To learn more, go to  </tspan>
<tspan x="141.50" y="247.25" textLength="218.94" style="fill:#176fc0" dx="0,0,0,0,0,0,0,0,0,0,-0.96,0,0,0,0,0,0,0,0,0,0,-0.24,0,0,0,0,0,-0.29,0,0,0,0,0.1,0,0">http://www.bamagazine.com/Subscribe</tspan>
<tspan x="141.50" y="284.24" textLength="108.73" class="f1484">E-mail this article</tspan>
<tspan x="141.50" y="302.75" textLength="223.31" dx="0,-1.2,0,0,0,0,0,0,0,0,0,0,0,0,0,0,0,0,-0.24,0,0,0,0,0,-0.3,0,0,0,0,0,0,0,0,0,0,0,0.1,0,0,0,0,0,0,0,0">To pass along a free copy of this article to </tspan>
<tspan x="141.50" y="321.25" textLength="40.16" dx="0,0,0,0,0,0,-0.12,0">others, </tspan>
<tspan x="181.66" y="321.25" textLength="51.78" style="fill:#176fc0" dx="0,0,0,0,0,0,0,0,0,-0.24">click here</tspan>
<tspan x="233.20" y="321.25" textLength="3.18">.</tspan>
<tspan x="141.49" y="358.25" textLength="83.81" class="f1484">Join our e-list</tspan>
<tspan x="141.49" y="376.75" textLength="228.6" dx="0,-1.2,0,0,0,0,0,0,0,0,0,0,0,0,0,-0.3,0,0,0,0,0,0,0,0,0,0,0,0,0,0,0,0,0,0.1,0,0,0,0,0,0,0,0,0,0">To be noti&#64257;ed by e-mail of new articles as  </tspan>
<tspan x="141.49" y="395.26" textLength="158.81" dx="0,0,0,0,0,0,0,0,0,0,0,0,0,0,-0.07,0,0,0,0,0,0,-0.24,0,0,0,0,0,0,0,0">they become available, go to  </tspan>
<tspan x="141.49" y="413.76" textLength="195.86" style="fill:#176fc0" dx="0,0,0,0,0,0,0,0,0,0,-0.96,0,0,0,0,0,0,0,0,0,0,-0.24,0,0,0,0,0,0,0,0,0">http://www.bamagazine.com/email</tspan></text>
<g mask="url(#Mask_481_9_zYVf6P)" ><path d="M134.18 37.43 l69.12 0 l0 59.04 l-69.12 0 l0 -59.04 z " style="fill:#231f20;fill-opacity:0.45;blend-mode:multiply;"/></g>
<g clip-path="url(#Clip_494_9_zYVf6P)" ><image x="0.00" y="0.00" width="114.00" height="93.00" transform="matrix(0.4739,-0.0498,0.0498,0.4741,133.2,42.4285)" xlink:href="images/512.jpeg" /></g>
</svg>
