
<?xml-stylesheet href="css/stylesheet.css" type="text/css"?>
<svg class="crocodoc-zYVf6P crocodoc-page-svg" version="1.1"
    xmlns="http://www.w3.org/2000/svg"
    xmlns:xlink="http://www.w3.org/1999/xlink"
    xml:space="preserve" width="792pt" height="612pt" viewBox="0 0 792 612">
<defs>

</defs>
<text class="f1468" font-size="14.85" style="fill:#918f8f" transform="matrix(1,0,0,0.7407,0,0)"><tspan x="539.67" y="803.83" textLength="14.85">&#59904;</tspan></text><text class="f885" font-size="12.00" style="fill:#231f20"><tspan x="556.00" y="595.43" textLength="9.68" class="f1468" font-size="11.00" dx="0,0,0.77">&#59905; &#59905;</tspan>
<tspan x="565.08" y="596.43" textLength="7.2" class="f899">2</tspan>
<tspan x="572.28" y="596.43" textLength="2.7"> </tspan>
<tspan x="576.00" y="596.43" textLength="10.22" class="f914" style="fill:#918f8f">of</tspan>
<tspan x="585.62" y="596.43" textLength="21.06" dx="0,1.8,0,3.3,-1.2"> 8   </tspan></text><text class="f1468" font-size="14.85" style="fill:#918f8f" transform="matrix(1,0,0,0.7407,0,0)"><tspan x="605.48" y="803.83" textLength="14.85">&#57513;</tspan></text><path d="M116.25 36 c0 0 -8 0 -8 8 c0 0 0 26 0 26 c0 0 0 8 8 8 c0 0 655.75 0 655.75 0 c0 0 8 0 8 -8 c0 0 0 -26 0 -26 c0 0 0 -8 -8 -8 c0 0 -655.75 0 -655.75 0 z " style="fill:#9c9a9b;"/><path d="M141.5 36 c0 0 -121.5 0 -121.5 0 c0 0 -8 0 -8 8 c0 0 0 26 0 26 c0 0 0 8 8 8 c0 0 121.5 0 121.5 0 " style="fill:#231f20;"/><text class="f835" font-size="12.50" style="fill:#f4f4f4"><tspan x="48.81" y="61.13" textLength="41.49" dx="0,-0.31,-0.31,-0.31,-0.31,-0.31">Before</tspan>
<tspan x="89.97" y="61.13" textLength="9.95" style="fill:#a665b9">&amp;</tspan>
<tspan x="99.61" y="61.13" textLength="9.49" style="fill:#ef2c3c">A</tspan>
<tspan x="108.78" y="61.13" textLength="5.09" style="fill:#f36717">f</tspan>
<tspan x="113.56" y="61.13" textLength="5.55" style="fill:#fcd205">t</tspan>
<tspan x="118.80" y="61.13" textLength="7.88" style="fill:#179f50">e</tspan>
<tspan x="126.36" y="61.13" textLength="7.72" style="fill:#44aae4" dx="0,-0.95">r </tspan></text><path d="M141.5 69 l0 -33 " style="stroke:#ffffff;stroke-width:1.00;"/><text class="f1477" font-size="18.00" style="fill:#f4f4f4"><tspan x="131.72" y="61.47" textLength="3.2" class="f851" font-size="4.00">&#174;</tspan>
<tspan x="720.67" y="59.99" textLength="17.5" style="fill:#ffffff">X</tspan></text><path d="M689.88 45.91 l0 15.99 " style="stroke:#ffffff;stroke-width:0.83;stroke-linecap:round;"/><path d="M716.22 45.91 l0 15.99 " style="stroke:#ffffff;stroke-width:0.83;stroke-linecap:round;"/><path d="M742.97 45.91 l0 15.99 " style="stroke:#ffffff;stroke-width:0.83;stroke-linecap:round;"/><path d="M769.7 45.91 l0 15.99 " style="stroke:#ffffff;stroke-width:0.83;stroke-linecap:round;"/><path d="M664.06 45.91 l0 15.99 " style="stroke:#ffffff;stroke-width:0.83;stroke-linecap:round;"/><text class="f1477" font-size="18.00" style="fill:#ffffff"><tspan x="672.73" y="59.47" textLength="5.89" class="f897">i</tspan>
<tspan x="585.74" y="56.95" textLength="69.59" class="f835" font-size="7.94" dx="0,-0.08,-0.08,-0.08,-0.08,-0.08,-0.08,-0.08,-0.08,-0.08,-0.48,-0.08,-0.08,-0.08">BAmagazine.com</tspan>
<tspan x="693.25" y="60.47" textLength="19.32" font-size="20.00">U</tspan></text><path d="M752.83 47.33 l0 5.36 l0 2.56 l6.27 0 l3.86 0 l0 -7.92 l-10.13 0 z " style="stroke:#ffffff;stroke-width:0.47;"/><path d="M752.88 47.41 l0 1.42 l10.08 0 l0 -1.42 l-10.08 0 z " style="fill:#ffffff;"/><path d="M749.25 52.16 l0 1.42 l10.03 0 l0 -1.42 l-10.03 0 z " style="fill:#ffffff;"/><path d="M749.19 52.08 l0 7.92 l10.13 0 l0 -7.92 l-10.13 0 z " style="fill:#9c9a9b;"/><path d="M749.19 52.08 l0 7.92 l10.13 0 l0 -7.92 l-10.13 0 z " style="stroke:#ffffff;stroke-width:0.47;"/><path d="M635.33 584.87 c0 0 0 8.22 0 8.22 c0 0 0 6.9 6.9 6.9 c0 0 130.87 0 130.87 0 c0 0 6.9 0 6.9 -6.9 c0 0 0 -8.22 0 -8.22 " style="fill:#7c7ea4;"/><text class="f835" font-size="9.50" style="fill:#ffffff"><tspan x="643.62" y="595.57" textLength="130.08" dx="0,0,0,0,0,0,0,0,0,0,0,0,0,0,0,0,0,0,0,0,0,8.08,0,0,0">Selecting text type  0269</tspan></text><path d="M8.24 68 l0 14.75 l775.5 0 l0 -14.75 l-775.5 0 z " style="fill:#ffffff;"/><path d="M11.99 579 l0 -376.5 l768 0 l0 376.5 l-768 0 z " style="fill:#cdc4a8;"/><text class="f835" font-size="150.00" style="fill:#e9e5d8"><tspan x="48.25" y="340.06" textLength="86.1">T</tspan></text><text class="f885" font-size="14.00" style="fill:#231f20"><tspan x="89.49" y="255.80" textLength="229.29" dx="0,-1.4,0,0,0,0,0,0,0,0,0,0,0,0,0,0,-0.28,0,0,0,0,0,0,0,0,0,0,0,0,0,0,0,0,0">Text type is more common than any </tspan>
<tspan x="89.49" y="274.30" textLength="238.36" dx="0,0,0,0,0,-0.84,0,-0.5,-1.4,0,0,0,0,0,0,0,0,0,0,0,0,0,0,0,0,0,0,0,-0.28,0,0,0,0,0,0,0,-0.14,0,0">other. Text makes up the acres of gray </tspan>
<tspan x="89.49" y="292.79" textLength="214.56" dx="0,0,0,0,0,0,0,0,-0.14,0,0,0,0,0,0,0,0,0,0,-0.14,0,0,-0.28,0,0,0,0.11,0,-0.14,0,0,0,0,0">in books, magazines, reports, and </tspan>
<tspan x="89.49" y="311.28" textLength="234.88" dx="0,0,0,0,0,-0.28,0,0,0,0,0,0,0,0,0,0,0,0,0,0,0,0,0,0,0,0,0,-0.28,0,-0.84,0,0,0,0">hundreds of other documents. When </tspan>
<tspan x="89.49" y="329.78" textLength="47.75" class="f914" dx="0,-0.36,0,0,0,0,0">reading</tspan>
<tspan x="137.24" y="329.78" textLength="171.81" dx="0,0,0,0,0,0,0,0,0,0,0.11,0,0,0,0.25,0,0,0,0,0,0,0,0,0,-0.25,-1.54,0,0,0,0,0"> is the primary goal, it&#8217;s the </tspan>
<tspan x="89.49" y="348.27" textLength="230.23" dx="0,0,0,0,0,0,0,0,-0.28,-1.54,0,0,0,0,0,0,0,0,0,0,0,0,0,-0.28,0,0,0,0,0,0,0,0,0,0,0,0,0,0,0">designer&#8217;s job to ensure that the text </tspan>
<tspan x="89.49" y="366.77" textLength="219.35" dx="0,0,0,0,0,0,0,0,0,0,0,0,0,-0.42,0,0,0,0,0,0,0,0,0,0,0,0,0,0,0,0,0,0,0,0">is smooth, &#64258;owing and pleasant to </tspan>
<tspan x="89.49" y="385.26" textLength="235.97" dx="0,-0.28,0,0,0,0,-0.5,0,0,0,0,0,0,0,0,0,0,-0.08,0,0,0,0,0,0,0,0,0,0,0,0,0,0,0,0,0,0,0,0">read. The hallmarks of good text type </tspan>
<tspan x="89.49" y="403.75" textLength="22.83" dx="0,0,-0.28,0">are </tspan>
<tspan x="112.32" y="403.75" textLength="54.36" class="f914">legibility</tspan>
<tspan x="166.69" y="403.75" textLength="30.66"> and </tspan>
<tspan x="197.35" y="403.75" textLength="67.84" class="f914" dx="0,-0.36,0,0,0,0,0,0,0,0,0">readability</tspan>
<tspan x="265.19" y="403.75" textLength="68.84">. Legibility </tspan>
<tspan x="89.49" y="422.25" textLength="5.45">r</tspan>
<tspan x="94.66" y="422.30" textLength="219.97" dx="0,0,0,0,0,0,0,0,0,0,0,0,0,0.11,0,0,0.14,0,0,0,-0.25,-1.54,0,0,0,-0.42,0,0,-0.28,0,0,0,0,0,0,0,0,0,0">efers to clarity; it&#8217;s how readily one </tspan>
<tspan x="89.49" y="440.79" textLength="222.85" dx="0,0,0,0,0,0,0,0,0,0,0,0,0,0,0,0,0,0,0,0,0,0,0,0,0,0,0,0,0,0,-0.08,0,0,0,0,0,0">letter can be distinguished from all </tspan>
<tspan x="89.49" y="459.28" textLength="234.79" dx="0,0,0,0,0,0,-0.28,0,0,-0.28,0,0,0,0,0,0,0,0,0,0,0,-0.28,0,0,0,0,0,0,0,0,0,0,-0.42,0,0,-0.08,0,0,0">others. Readability refers to how well </tspan>
<tspan x="89.49" y="477.78" textLength="217.14" dx="0,0,0,0,0,0,0,0,0,0,0,0,0,-0.14,0,0,0,0,0,0,0,0,0,0,0,0,0,0,0,0,0,-0.28,0,-0.14,0">letters interact to compose words, </tspan>
<tspan x="89.49" y="496.27" textLength="211.44" dx="0,0,0,0,0,0,0,0,0,0,0,0,0,0,0,0,0,-0.14,0,0,-0.14,0,0,0,-0.28,0,-0.84,0,0,0,0">sentences and paragraphs. When </tspan>
<tspan x="89.49" y="514.77" textLength="233.7" dx="0,0,-0.08,0,0,0,0,0,0,0,0,0,0,0,0,0,0,0,0,0,0,0,-0.14,0,0,0,0,0,0,0,0,0,-0.14,0,0,0,-0.07,0">evaluating the choices, the operative </tspan>
<tspan x="89.49" y="533.26" textLength="48.85" dx="0,0,0,-0.28,0,0,0,0">word is </tspan>
<tspan x="138.34" y="533.26" textLength="53.19" class="f914">medium</tspan>
<tspan x="191.52" y="533.26" textLength="6.86">. </tspan></text><text class="f9" font-size="17.00" style="fill:#231f20"><tspan x="141.49" y="118.30" textLength="549.45" class="f835" font-size="33.00" dx="0,-1.35,-1.22,-1.32,0,-2.38,-0.99,-1.42,-0.66,-1.35,-0.99,-1.42,-1.06,-1.45,-1.32,-1.39,-0.99,-1.42,-0.5,-1.25,-1.22,-1.02,-0.86,-1.29,-1.15,-0.99,-1.42,-0.89,-1.22,-0.99,-1.42,-0.99,-1.88,-0.92,-0.66">What&#8217;s the right typeface for text?</tspan>
<tspan x="141.49" y="142.30" textLength="473.7" dx="0,-0.31,0,0,0,0,0,0,0,0,0,0,0,0,-0.94,0,0,0,0,0,0,0,0,-0.63,0,0,0,0,0,0,0,0,0,0,0,-0.31,0,0,0,0,0,0,-0.94,-0.63,0,0,0,0,0,0,0,0,-0.31,0,0,0,0,0,0,0,0,-0.31,0,0,0,0">For text that&#8217;s smooth, clear and readable, the operative word is </tspan>
<tspan x="615.38" y="142.30" textLength="60.78" class="f15">medium</tspan></text><path d="M512.58 257.52 l35.68 0 " style="stroke:#176fc0;stroke-width:0.48;"/><text class="f835" font-size="9.50" style="fill:#231f20"><tspan x="380.90" y="256.57" textLength="75.23" dx="0,0.1,0.1,0.53,0.1,0.1,0.1,0.1,0.1,0.1,0.1,0.53,0.1,0.1">An example of </tspan>
<tspan x="456.67" y="256.57" textLength="40.58" class="f21" dx="0,0.1,0.1,0.1,0.1,0.1">medium</tspan>
<tspan x="498.06" y="256.57" textLength="13.76" dx="0,0.53,0.1,0.1"> is </tspan>
<tspan x="512.58" y="256.57" textLength="35.94" style="fill:#176fc0" dx="0,0.1,0.1,0.1,0.1,0.1,0.1">Utopia.</tspan></text><path d="M497.2 422.5 l0 17.75 " style="stroke:#0994dc;stroke-width:0.50;"/><path d="M497.2 275 l0 57 " style="stroke:#0994dc;stroke-width:0.50;"/><path d="M349.49 426.4 l430.4 0 " style="stroke:#0994dc;stroke-width:0.50;"/>
<g style="blend-mode:multiply;" ><text class="f885" font-size="200.00" style="fill:#231f20"><tspan x="377.51" y="426.19" textLength="345.2" dx="0,-36.6,-8.6,-2.6">Text</tspan></text></g><text class="f833" font-size="9.50" style="fill:#ffffff"><tspan x="666.99" y="448.87" textLength="74.19" dx="0,0.1,0.1,0.1,0.1,0.1,0.1,0.36,0.1,0.1,0.1,0.1,0.1,0.1,0.1">Medium x-height</tspan></text><path d="M349.49 287.75 l430.4 0 " style="stroke:#0994dc;stroke-width:0.50;"/><text class="f833" font-size="9.50" style="fill:#ffffff"><tspan x="381.49" y="459.37" textLength="129.0" dx="0,0.1,0.1,0.1,0.1,0.1,0.1,0.36,0.1,0.1,0.1,0.1,0.1,0.1,0.1,0.1,0.1,0.1,0.1,0.1,0.1,0.1,0.1,0.36,0,0.1,0.1,0.1">Medium height-to-width ratio</tspan></text><path d="M381.6 275 l0 165.25 " style="stroke:#0994dc;stroke-width:0.50;"/><path d="M531.19 354.52 c7.3 11.19 5.8 14.19 2.8 25.23 " style="stroke:#ffffff;stroke-width:0.50;"/><path d="M528.6 350.56 l5.38 4.04 l-2.8 -0.08 l-1.06 2.59 l-1.53 -6.56 " style="fill:#ffffff;"/><text class="f833" font-size="9.50" style="fill:#ffffff"><tspan x="507.49" y="391.37" textLength="77.16" dx="0,0.1,0.1,0.1,0.1,0.1,0.1,0.36,0.1,0.1,0.1,0.1,0.1,0.1,0.1">Medium counters</tspan></text><path d="M373.49 292.75 l0 129 " style="stroke:#ffffff;stroke-width:0.50;"/><path d="M373.49 288.02 l-2.3 6.32 l2.3 -1.59 l2.3 1.59 l-2.3 -6.32 " style="fill:#ffffff;"/><path d="M373.49 426.48 l2.3 -6.32 l-2.3 1.59 l-2.3 -1.59 l2.3 6.32 " style="fill:#ffffff;"/><path d="M386.99 433.43 l105.75 0 " style="stroke:#ffffff;stroke-width:0.50;"/><path d="M382.26 433.43 l6.32 2.3 l-1.59 -2.3 l1.59 -2.3 l-6.32 2.3 " style="fill:#ffffff;"/><path d="M497.47 433.43 l-6.32 -2.3 l1.59 2.3 l-1.59 2.3 l6.32 -2.3 " style="fill:#ffffff;"/><path d="M727.69 333 l0 88.73 " style="stroke:#ffffff;stroke-width:0.50;"/><path d="M727.69 328.27 l-2.3 6.32 l2.3 -1.59 l2.3 1.59 l-2.3 -6.32 " style="fill:#ffffff;"/><path d="M727.69 426.46 l2.3 -6.32 l-2.3 1.59 l-2.3 -1.59 l2.3 6.32 " style="fill:#ffffff;"/><text class="f833" font-size="9.50" style="fill:#ffffff"><tspan x="578.78" y="448.87" textLength="68.53" dx="0,0.1,0.1,0.1,0.1,0.1,0.1,0.36,0.1,0.1,0.1,0.1,0.1,0.1">Medium stroke </tspan>
<tspan x="578.72" y="461.87" textLength="65.58" dx="0,0.1,0.1,0.1,0.1,0.1,0.36,0.1,0.1,0.1,0.1,0.1,0.1,0.1,0.1">width variation</tspan></text><path d="M595.83 400.48 l12.14 36.23 l15 -39.3 " style="stroke:#ffffff;stroke-width:0.50;"/><path d="M594.32 396 l-0.17 6.73 l1.68 -2.24 l2.69 0.78 l-4.19 -5.27 " style="fill:#ffffff;"/><path d="M624.66 393 l-4.41 5.09 l2.72 -0.67 l1.58 2.31 l0.11 -6.73 " style="fill:#ffffff;"/><path d="M382.7 327.9 l397.29 0 " style="stroke:#0994dc;stroke-width:0.50;stroke-dasharray:1.996,1.996;"/>
</svg>
