
<?xml-stylesheet href="css/stylesheet.css" type="text/css"?>
<svg class="crocodoc-zYVf6P crocodoc-page-svg" version="1.1"
    xmlns="http://www.w3.org/2000/svg"
    xmlns:xlink="http://www.w3.org/1999/xlink"
    xml:space="preserve" width="792pt" height="612pt" viewBox="0 0 792 612">
<defs>
<clipPath id="Clip_1187_12_zYVf6P"><path d="M735.11 599.51 l17.71 0 l0 -11.81 l-17.71 0 l0 11.81 " /></clipPath>
<clipPath id="Clip_1200_12_zYVf6P"><path d="M760.89 599.27 l17.67 0 l0 -11.78 l-17.67 0 l0 11.78 " /></clipPath>
</defs>
<text class="f835" font-size="6.50" style="fill:#231f20" transform="matrix(0,1,-1,0,0,0)"><tspan x="245.60" y="-26.43" textLength="22.97" dx="0,0.12,0.12,0.12,0.12,0.12">Before</tspan>
<tspan x="268.68" y="-26.43" textLength="5.17" style="fill:#7a1d90">&amp;</tspan>
<tspan x="273.97" y="-26.43" textLength="4.93" style="fill:#ed1834">A</tspan>
<tspan x="279.02" y="-26.43" textLength="2.65" style="fill:#f36717">f</tspan>
<tspan x="281.79" y="-26.43" textLength="2.89" style="fill:#fcd205">t</tspan>
<tspan x="284.79" y="-26.43" textLength="4.1" style="fill:#179f50">e</tspan>
<tspan x="289.00" y="-26.43" textLength="2.89" style="fill:#0994dc">r</tspan>
<tspan x="292.00" y="-26.43" textLength="1.63"> </tspan>
<tspan x="294.04" y="-26.43" textLength="72.4" class="f833" dx="0,0.1,0.29,0.11,0.11,-0.48,0.11,0.11,0.11,0.11,0.11,0.11,0.11,0.11,0.11,0.11,-0.13,0.11,0.11,0.11">&#59915; www.bamagazine.com</tspan>
<tspan x="293.67" y="-12.05" textLength="6.88" font-size="8.00" dx="0,0.14">2 </tspan>
<tspan x="302.68" y="-12.05" textLength="15.97" class="f833" font-size="8.00" dx="0,0.14,0.14,2.14">of 4</tspan>
<tspan x="493.67" y="-26.67" textLength="67.27" style="fill:#7b7979" dx="0,0.06,0.06,0.06,0.06,0.06,0.06,0.06,0.06,0.06,0.36,0.06,0.06,0.06,0.06,0.36,0.06,0.06,0.06,0.06">Selecting text type </tspan>
<tspan x="562.61" y="-26.67" textLength="19.16" font-size="8.00" dx="0,0.07,0.07,0.07">0269</tspan>
<tspan x="30.77" y="-26.62" textLength="19.16" font-size="8.00" dx="0,0.07,0.07,0.07">0269</tspan>
<tspan x="50.00" y="-26.62" textLength="70.58" style="fill:#7b7979" dx="0,1.68,0.06,0.06,0.06,0.06,0.06,0.06,0.06,0.06,0.06,0.36,0.06,0.06,0.06,0.06,0.36,0.06,0.06,0.06,0.06"> Selecting text type </tspan></text><text class="f1011" font-size="7.90" style="fill:#231f20" transform="matrix(0,1,-1,0,0,0)"><tspan x="347.68" y="-130.88" textLength="94.44" dx="0,0,0,0,0,0,0,0,0,0,0,0,0,0,0,0,-0.73,0,0,0,0,-0.08,0,0,0,0,0">Bauer Bodoni | Texture and </tspan>
<tspan x="347.45" y="-121.91" textLength="104.45">&#64258;asp net exating end mist of it </tspan>
<tspan x="347.52" y="-112.94" textLength="78.57">snooling. Spaff forl isn&#8217;</tspan>
<tspan x="425.72" y="-112.94" textLength="20.19">t cub-</tspan>
<tspan x="347.63" y="-103.96" textLength="100.42" dx="0,0,0,0,0,0,0,0,0,0,0,0,0,0,0,0,0,0,0,0,0,0,0,0,-0.08,0,0,0,0,0,0">ular but quastic, leam restart </tspan>
<tspan x="347.68" y="-94.99" textLength="101.3" dx="0,0,0,0,0,0,0,0,0,-0.37,0,0,0,0,0,0,0,0,0,0,0,-0.58,0,0,0,0,0,0,0,0,0,0,0,0">that can&#8217;t prast. It&#8217;s tope, this </tspan>
<tspan x="347.45" y="-86.02" textLength="107.68" dx="0,-0.08,-0.08,-0.08,-0.08,-0.08,-0.08,-0.08,-0.08,-0.08,-0.08,-0.08,-0.08,-0.08,-0.08,-0.08,-0.08,-0.08,-0.08,-0.08,-0.08,-0.08,-0.08,-0.08,-0.08,-0.08,-0.08,-0.08,-0.08,-0.08,-0.08,-0.08,-0.08,-0.08,-0.77">&#64258;uant chasible. Silk, shast, lape  </tspan>
<tspan x="347.43" y="-77.05" textLength="96.56">and behast the thin chack. I </tspan>
<tspan x="347.66" y="-68.08" textLength="48.71">have lot to say</tspan>
<tspan x="395.64" y="-68.06" textLength="52.13" dx="0,0.79,0,0,0,0,0,0,0,0,0,0,0,0">.Why? Elesara </tspan>
<tspan x="73.91" y="-103.51" textLength="46.16" class="f833" font-size="80.42" style="fill:#a6a29d">n</tspan>
<tspan x="127.55" y="-103.51" textLength="49.78" class="f885" font-size="80.42" style="fill:#a6a29d">n</tspan>
<tspan x="184.72" y="-103.51" textLength="42.78" class="f988" font-size="80.42" style="fill:#a6a29d">n</tspan>
<tspan x="235.79" y="-103.51" textLength="26.54" class="f995" font-size="80.42" style="fill:#a6a29d">n</tspan></text><path d="M103.5 72.49 l0 207.32 " style="stroke:#0994dc;stroke-width:0.36;"/><path d="M151.12 72.49 l0 207.32 " style="stroke:#0994dc;stroke-width:0.36;stroke-dasharray:1.4295425793,1.4295425793;"/>
<g style="blend-mode:multiply;" ><path d="M95.15 80.03 l-19.92 0 l0 44.7 l19.92 0 l0 -44.7 z " style="fill:#ffffff;fill-opacity:0.00;"/><path d="M89.35 80.15 l0 24.08 " style="stroke:#176fc0;stroke-width:0.34;"/><text class="f833" font-size="6.82" style="fill:#176fc0" transform="matrix(0,1,-1,0,0,0)"><tspan x="80.15" y="-90.03" textLength="24.02" dx="0,-0.2,0.05,0.05,0.05,0.05,-0.01">&#59913;ectora</tspan></text></g><path d="M122.91 232.04 l0 47.77 " style="stroke:#0994dc;stroke-width:0.36;stroke-dasharray:1.4474926368,1.4474926368;"/>
<g style="blend-mode:multiply;" ><path d="M95.15 132.24 l-19.92 0 l0 38.77 l19.92 0 l0 -38.77 z " style="fill:#ffffff;fill-opacity:0.00;"/><path d="M89.35 132.51 l0 20.44 " style="stroke:#176fc0;stroke-width:0.34;"/><text class="f833" font-size="6.82" style="fill:#176fc0" transform="matrix(0,1,-1,0,0,0)"><tspan x="132.51" y="-90.03" textLength="20.37" dx="0,0.05,0.05,0.05,0.05,0.05">Utopia</tspan></text></g>
<g style="blend-mode:multiply;" ><path d="M95.15 187.89 l-19.92 0 l0 38.77 l19.92 0 l0 -38.77 z " style="fill:#ffffff;fill-opacity:0.00;"/><path d="M89.35 187.81 l0 22.33 " style="stroke:#176fc0;stroke-width:0.34;"/><path d="M80.02 188.08 l0 21.19 " style="stroke:#176fc0;stroke-width:0.34;"/><text class="f833" font-size="6.82" style="fill:#176fc0" transform="matrix(0,1,-1,0,0,0)"><tspan x="187.81" y="-90.03" textLength="22.07" dx="0,0.05,0.05,0.05,0.05,0.05">Adobe </tspan></text><text class="f833" font-size="6.82" style="fill:#176fc0" transform="matrix(0,1,-1,0,0,0)"><tspan x="188.08" y="-80.70" textLength="21.12" dx="0,0.05,0.05,0.05,0.05,0.05">Caslon</tspan></text></g>
<g style="blend-mode:multiply;" ><path d="M95.15 239.58 l-18.49 0 l0 44.52 l18.49 0 l0 -44.52 z " style="fill:#ffffff;fill-opacity:0.00;"/><path d="M89.35 239.77 l0 39.91 " style="stroke:#176fc0;stroke-width:0.34;"/><path d="M80.02 239.95 l0 24.28 " style="stroke:#176fc0;stroke-width:0.34;"/><text class="f833" font-size="6.82" style="fill:#176fc0" transform="matrix(0,1,-1,0,0,0)"><tspan x="239.77" y="-90.03" textLength="41.61" dx="0,0.05,0.05,0.25,0.05,0.05,0.05,0.05,0.05,0.05,0.05,0.08">CG Bernhard </tspan></text><text class="f833" font-size="6.82" style="fill:#176fc0" transform="matrix(0,1,-1,0,0,0)"><tspan x="239.95" y="-80.70" textLength="24.21" dx="0,-0.2,0.05,0.05,0.05,0.05,0.05">Fashion</tspan></text></g><path d="M137.03 184.42 l0 95.4 " style="stroke:#0994dc;stroke-width:0.36;stroke-dasharray:1.4237985609,1.4237985609;"/><path d="M143.13 126.26 l0 153.56 " style="stroke:#0994dc;stroke-width:0.36;stroke-dasharray:1.4352865977,1.4352865977;"/><text class="f1004" font-size="80.42" style="fill:#444141" transform="matrix(0,1,-1,0,0,0)"><tspan x="73.03" y="-215.34" textLength="20.1" class="f988"> </tspan>
<tspan x="69.95" y="-215.69" textLength="89.73" font-size="81.13" dx="0,-1.87">Be</tspan>
<tspan x="158.30" y="-215.34" textLength="20.1"> </tspan>
<tspan x="166.18" y="-215.34" textLength="85.47" class="f932" dx="0,-3.86">Be</tspan></text><text class="f885" font-size="8.62" style="fill:#231f20" transform="matrix(0,1,-1,0,0,0)"><tspan x="347.10" y="-377.24" textLength="180.95" class="f835" font-size="7.90" dx="0,0,-0.29,0,0,0,0,0,0,0,0,0,0,0,0,0,0,0,0,0,0,0,0,0,0,0,0,0,0,0,0,0,0,0,0,0,0,0,0,0,0,0,0,0,0">4. Look for small variations in stroke weight</tspan>
<tspan x="528.05" y="-377.24" textLength="2.33" class="f835" font-size="9.33"> </tspan>
<tspan x="347.10" y="-365.75" textLength="187.67" dx="0,0,0,0,0,0,0,0,0,0,0,0,0,0,0,0,0,0,0,0,0,0,0,-0.04,0,0,0,0,-0.05,0,0,0,0,-0.05,0,0,0,0,0,0,0,0,0,0,0,0,-0.05,0,0.16,0">The best text faces have stroke weights that vary </tspan>
<tspan x="347.10" y="-354.27" textLength="196.34" dx="0,0,0,0,0,0,0,0,0,0,0,0,0,0,0,0,0,0,0,0,0,0,0,0,0,-0.04,0,-0.05,0,0,0,0,0,0,0,0,0,0,0,0,0,0,0,0,0,0,0,0">somewhat, which make converging lines that help </tspan>
<tspan x="347.10" y="-342.78" textLength="199.66" dx="0,0,0,0,0,0,-0.05,0,0,0,-0.26,0,0,0,0,0,0,0,0,0,-0.82,0,0,-0.1,0,0,0,0,-0.04,0,0,0,0,0,0,0,-0.17,0,0,0,-0.17,0,0,-0.26,0,0,0,0.07,0">the eye &#64258;ow smoothly. But avoid extremes. Modern </tspan>
<tspan x="347.10" y="-331.30" textLength="187.49" dx="0,0,0,0,0,0,0,0,0,0,0,0,-0.26,-0.65,0,0,0,0,0,0,0,0,-0.05,0,0.16,0,0,0,0,0,0,0,0,0,0,0,0,0,0,0,0,0,0,0,0,-0.17,0,0,0,0,0">styles (below, left) vary too much; at high resolu-</tspan>
<tspan x="347.10" y="-319.81" textLength="99.51">tion their beautiful, super</tspan>
<tspan x="446.68" y="-319.80" textLength="98.01" dx="0,0,0,0,0,0,0,0,-0.05,0,0,0,0,0,0,0,0,0,0,0,0,0,0,0,0,0">thin strokes disappear in </tspan>
<tspan x="347.10" y="-308.32" textLength="194.51" dx="0,0,0,0,0,0,0,0,-0.17,0,0,-0.16,0,0,0,0,0,0,0,0,0,0,0,0.07,0,0,0,0,0,0,0,0,0,0,0,0,0,0,-0.26,-0.65,0,0,0.07,0,0,0,0,0,0,-0.05,0,0.16,0">a dazzle. Sleek geometric styles (below, right) vary </tspan>
<tspan x="347.10" y="-296.83" textLength="142.03" dx="0,0,0,0,0,0,0,0,0,0,0,0,0,0,0,0,0,0,0,0,0,0,0,0,0,0,0,-0.17,0,0,0,0,0,0,0,0,0,0,0,0.07,0">little or not at all, so are too uniform.</tspan></text>
<g style="blend-mode:multiply;" ><path d="M180.41 413.34 l-17.23 0 l0 71.98 l17.23 0 l0 -71.98 z " style="fill:#ffffff;fill-opacity:0.00;"/><path d="M164.96 413.12 l0 58.72 " style="stroke:#176fc0;stroke-width:0.34;"/><text class="f835" font-size="6.82" style="fill:#231f20" transform="matrix(0,1,-1,0,0,0)"><tspan x="413.71" y="-174.97" textLength="71.82" dx="0,0.06,0.06,0.06,0.06,0.06,0.06,0.38,0.06,0.06,0.06,0.06,0.06,0.06,0.06,0.06,0.06,0.06,-0.23">Medium difference  </tspan></text><text class="f833" font-size="6.82" style="fill:#176fc0" transform="matrix(0,1,-1,0,0,0)"><tspan x="413.12" y="-165.64" textLength="58.63" dx="0,0.05,0.05,0.05,0.05,0.05,0.25,0.05,0.05,0.05,0.25,0.05,0.05,0.05,0.05">Times &#59911;ew Roman</tspan></text></g>
<g style="blend-mode:multiply;" ><path d="M180.41 493.22 l-16.46 0 l0 58.16 l16.46 0 l0 -58.16 z " style="fill:#ffffff;fill-opacity:0.00;"/><path d="M164.96 493.58 l0 48.04 " style="stroke:#176fc0;stroke-width:0.34;"/><text class="f835" font-size="6.82" style="fill:#231f20" transform="matrix(0,1,-1,0,0,0)"><tspan x="493.63" y="-174.97" textLength="53.08" dx="0,0.06,0.06,0.38,0.06,0.06,0.06,0.06,0.06,0.06,0.06,0.06,0.06,0.06,0.36">No difference  </tspan></text><text class="f833" font-size="6.82" style="fill:#176fc0" transform="matrix(0,1,-1,0,0,0)"><tspan x="493.58" y="-165.64" textLength="47.97" dx="0,0.05,0.05,0.05,0.05,-0.01,0.05,0.25,0.05,0.05,0.05,0.05,0.05">Futura Medium</tspan></text></g><text class="f1048" font-size="7.61" style="fill:#231f20" transform="matrix(0,1,-1,0,0,0)"><tspan x="462.31" y="-130.94" textLength="93.33" dx="0,0,0,0,0,0,0,0,0,0,0,0,0,0,0,0,0,-0.76,0,0,0,0,0,0,0,0,0,0">Futura Medium | Texture the </tspan>
<tspan x="462.38" y="-121.97" textLength="100.1">net exating end mist of it snool-</tspan>
<tspan x="462.26" y="-113.00" textLength="29.18">ing. Spaf</tspan>
<tspan x="491.59" y="-112.99" textLength="70.2" dx="0,0,0,0,0,0,0,0,0,0,0,-0.15,0,0,0,0,0,0,0,0,0,0,0,0,0">f forl isn&#8217;t cubular but </tspan>
<tspan x="462.36" y="-104.02" textLength="98.3" dx="0,0,0,0,0,0,0,0,0,0,0,0,0,0,0,0,0,0,0,0,0.15,0,0,0,0,0,0,0,0,0,0,-0.15,0">quastic, leam restart that can&#8217;t </tspan>
<tspan x="462.43" y="-95.05" textLength="89.35" dx="0,0,0,0,0,0,0,0,0,0,0,0,-0.76,0,0,0,0,0,0,0,0,0,0,0,0,0,0,0,0,0,0">prebast. It&#8217;s tope, this &#64258;uant </tspan>
<tspan x="462.26" y="-86.08" textLength="97.07">chasible. Silk, shast, lape and </tspan>
<tspan x="462.43" y="-77.10" textLength="102.89">behast the thin chack. I have lot </tspan>
<tspan x="462.36" y="-68.13" textLength="18.97">to say</tspan>
<tspan x="480.73" y="-68.12" textLength="85.39">. Why? Elesara and order </tspan></text><path d="M384.68 305.81 l-326.02 0 " style="stroke:#918f8f;stroke-width:0.25;"/><text class="f885" font-size="8.62" style="fill:#231f20" transform="matrix(0,1,-1,0,0,0)"><tspan x="76.98" y="-377.24" textLength="78.71" class="f835" font-size="7.90" dx="0,0,-0.29,0,0,0,0,0,0,0,0,0,0,0,0,0,0,0">3. Medium x-height</tspan>
<tspan x="155.69" y="-377.24" textLength="2.33" class="f835" font-size="9.33"> </tspan>
<tspan x="76.98" y="-365.75" textLength="174.6">The x-height of a typestyle is the height of its </tspan>
<tspan x="76.98" y="-354.26" textLength="191.59" dx="0,0,-0.26,-0.05,0,-0.17,0,0,0,0,0,0,0,0,-0.09,0,0,0,0,0,-0.17,0,-0.31,0,0,0,0,0,0,-0.05,0,0,0,0,0,0,0,0,0,0,0,0,0,0,0,0,0,0,0,0,0">lowercase characters. The larger the x-height, the </tspan>
<tspan x="76.98" y="-342.78" textLength="145.99" dx="0,0,0,0,0,0,0,0,0,0,0,0,0,0,0,0,0,0,0,0,0,0,0,0,0,0,0,-0.52,0,-0.52,-0.78,0,0,0,0,0,0,0">denser the type will appear. You want </tspan>
<tspan x="222.97" y="-342.78" textLength="36.7" class="f914" dx="0,0,0,0,0,0,0,-0.26">medium; </tspan></text><text class="f885" font-size="8.62" style="fill:#231f20" transform="matrix(0,1,-1,0,0,0)"><tspan x="76.98" y="-331.29" textLength="190.47" dx="0,0,0,0,0,0,0,0,0,0,0,0,0,0,0,0,0,0,0,0,0,0,0.07,0,0,0,0,0,0,0,0,0,0,0,0,0,-0.17,0,0,0,0,0,0,0,0,0,0,0,0,0,0,0">unusually tall or short x-heights are better suited </tspan>
<tspan x="76.98" y="-319.81" textLength="82.84" dx="0,0,0,0,0,0,0,0,0,0,0,0,0,0,0,0,-0.05,0,0,0,0,0,-0.17">for specialty projects.</tspan></text>
<g style="blend-mode:multiply;" ><path d="M250.77 241.58 l-6.83 0 l0 38.77 l6.83 0 l0 -38.77 z " style="fill:#ffffff;fill-opacity:0.00;"/><text class="f833" font-size="6.82" style="fill:#231f20" transform="matrix(0,1,-1,0,0,0)"><tspan x="254.56" y="-245.65" textLength="25.53" dx="0,0.05,0.05,0.05,0.05,0.05,0.05,0.05">x-height</tspan></text></g>
<g style="blend-mode:multiply;" ><path d="M206.9 77.88 l-10.34 0 l0 78.41 l10.34 0 l0 -78.41 z " style="fill:#ffffff;fill-opacity:0.00;"/><path d="M201.1 78.07 l0 21.7 " style="stroke:#176fc0;stroke-width:0.34;"/><text class="f833" font-size="6.82" style="fill:#176fc0" transform="matrix(0,1,-1,0,0,0)"><tspan x="78.07" y="-201.78" textLength="21.63" dx="0,0.05,0.05,0.05,0.05,0.05">Cochin</tspan></text></g>
<g style="blend-mode:multiply;" ><path d="M206.9 170.5 l-12.85 0 l0 109.29 l12.85 0 l0 -109.29 z " style="fill:#ffffff;fill-opacity:0.00;"/><path d="M201.1 170.5 l0 58.72 " style="stroke:#176fc0;stroke-width:0.34;"/><text class="f833" font-size="6.82" style="fill:#176fc0" transform="matrix(0,1,-1,0,0,0)"><tspan x="170.50" y="-201.78" textLength="58.63" dx="0,0.05,0.05,0.05,0.05,0.05,0.25,0.05,0.05,0.05,0.25,0.05,0.05,0.05,0.05">Times &#59911;ew Roman</tspan></text></g><path d="M268.65 72.5 l0 207.32 " style="stroke:#0994dc;stroke-width:0.36;"/><path d="M215.52 72.5 l0 207.32 " style="stroke:#0994dc;stroke-width:0.36;"/><path d="M246.01 72.5 l0 84.88 " style="stroke:#0994dc;stroke-width:0.36;stroke-dasharray:1.4388461484,1.4388461484;"/>
<g style="blend-mode:multiply;" ><path d="M180.41 77.88 l-18.13 0 l0 209.09 l18.13 0 l0 -209.09 z " style="fill:#ffffff;fill-opacity:0.00;"/><text class="f833" font-size="6.82" style="fill:#231f20" transform="matrix(0,1,-1,0,0,0)"><tspan x="78.14" y="-174.97" textLength="71.67" class="f835" dx="0,0.06,0.06,0.06,0.06,0.06,0.06,0.06,0.06,0.38,0.06,0.06,0.06,0.06,0.06,0.06,0.06,0.06,0.06,0.06,0.38">x-height variations  </tspan>
<tspan x="150.17" y="-174.97" textLength="134.8" dx="0,0.05,0.05,0.05,0.05,0.05,0.05,0.05,0.05,0.05,-0.57,-0.2,0.25,0.05,0.05,0.05,0.25,0.05,0.05,0.05,0.05,0.25,0.05,0.05,0.05,0.05,0.05,0.05,0.05,0.05,0.05,0.25,0.05,0.05,0.05,0.05,0.05,0.25,0.05,0.05,0.05,0.25,0.05,0.05,0.05">Incredibly, all four typefaces below are the </tspan></text><text class="f833" font-size="6.82" style="fill:#231f20" transform="matrix(0,1,-1,0,0,0)"><tspan x="78.19" y="-165.64" textLength="199.19" dx="0,0.05,0.05,0.05,0.05,0.25,0.05,0.05,0.05,0.05,-0.2,0.25,0.05,0.05,0.05,0.25,0.05,0.05,0.05,0.05,0.05,-0.2,-0.2,0.25,-0.12,0.05,0.05,0.25,0.05,0.05,0.05,0.05,-0.2,0.25,0.05,0.05,0.05,0.05,0.05,0.25,0.05,0.05,0.05,0.25,0.05,0.05,0.05,0.05,0.05,0.05,0.05,0.25,0.05,0.05,0.25,0.05,0.05,0.05,0.05,0.25,0.05,0.05,0.05">same size: 112 points. For text, avoid the extreme on each end.</tspan></text></g><path d="M251.67 218.4 l0 61.41 " style="stroke:#0994dc;stroke-width:0.36;stroke-dasharray:1.4280763419,1.4280763419;"/><text class="f932" font-size="120.93" style="fill:#96906a" transform="matrix(0,1,-1,0,0,0)"><tspan x="345.92" y="-189.55" textLength="69.39" class="f1011" font-size="113.57">P</tspan>
<tspan x="419.66" y="-189.55" textLength="67.26">P</tspan>
<tspan x="490.85" y="-189.55" textLength="52.57" class="f1048" font-size="106.20">P</tspan></text><path d="M260.73 495.37 l0 49.9 " style="stroke:#0994dc;stroke-width:0.36;"/><path d="M269.62 495.37 l0 49.9 " style="stroke:#0994dc;stroke-width:0.36;"/><path d="M226 542.03 l46.49 0 " style="stroke:#0994dc;stroke-width:0.36;"/><path d="M226 533.15 l46.49 0 " style="stroke:#0994dc;stroke-width:0.36;"/><path d="M226 482.44 l46.49 0 " style="stroke:#0994dc;stroke-width:0.36;"/><path d="M226 469.28 l46.49 0 " style="stroke:#0994dc;stroke-width:0.36;"/><path d="M269.62 419.8 l0 65.93 " style="stroke:#0994dc;stroke-width:0.36;"/><path d="M263.99 419.8 l0 65.93 " style="stroke:#0994dc;stroke-width:0.36;"/><path d="M226 410.1 l46.49 0 " style="stroke:#0994dc;stroke-width:0.36;"/><path d="M226 398.08 l46.49 0 " style="stroke:#0994dc;stroke-width:0.36;"/><path d="M269.62 347.46 l0 65.93 " style="stroke:#0994dc;stroke-width:0.36;"/><path d="M267.82 347.46 l0 65.93 " style="stroke:#0994dc;stroke-width:0.36;"/>
<g style="blend-mode:multiply;" ><path d="M284.52 77.88 l-8.26 0 l0 83.08 l8.26 0 l0 -83.08 z " style="fill:#ffffff;fill-opacity:0.00;"/><text class="f835" font-size="6.82" style="fill:#231f20" transform="matrix(0,1,-1,0,0,0)"><tspan x="78.26" y="-279.08" textLength="64.87" dx="0,0.06,0.06,0.06,0.06,0.06,0.06,0.38,0.06,0.06,0.06,0.06,0.06,0.06,0.06,0.06">Medium x-heights</tspan></text></g>
<g style="blend-mode:multiply;" ><path d="M180.41 347.1 l-26.57 0 l0 58.16 l26.57 0 l0 -58.16 z " style="fill:#ffffff;fill-opacity:0.00;"/><path d="M164.96 347.46 l0 42.12 " style="stroke:#176fc0;stroke-width:0.34;"/><text class="f835" font-size="6.82" style="fill:#231f20" transform="matrix(0,1,-1,0,0,0)"><tspan x="347.23" y="-174.97" textLength="48.35" dx="0,-0.31,0.06,0.06,0.38,0.06,0.06,0.06,0.06,0.06,0.06,0.06,0.06,0.05">Too different </tspan></text><text class="f833" font-size="6.82" style="fill:#176fc0" transform="matrix(0,1,-1,0,0,0)"><tspan x="347.46" y="-165.64" textLength="42.04" dx="0,0.05,0.05,0.05,0.05,0.05,0.25,0.05,0.05,0.05,0.05,0.05">Bauer Bodoni</tspan></text></g><text class="f885" font-size="8.62" style="fill:#231f20" transform="matrix(0,1,-1,0,0,0)"><tspan x="76.78" y="-742.92" textLength="196.3" class="f835" font-size="7.90" dx="0,0,-0.29,0,0,0,0,0,0,0,0,0,0,0,0,0,0,0,0,0,0,0,0,0,0,0,0,0,0,0,0,0,0,0,0,0,0,0,0,0,0,0,0,0,0,0,0,0">1. Pick a typeface with similar character widths</tspan>
<tspan x="273.08" y="-742.92" textLength="2.33" class="f835" font-size="9.33"> </tspan>
<tspan x="76.78" y="-731.43" textLength="204.85" dx="0,-0.31,0,0,0,0,0,0,0,0,0,0,0,0,0,0,0,0,0,0,0,0,0,0,-0.09,0,0,0,-0.17,0,0,0,0,0,0,0,0,0,0,0,0,-0.16,-0.95,0,0,0,0,0,-0.09,0,0.01">For the smoothest appearance, an alphabet&#8217;s charac-</tspan>
<tspan x="76.78" y="-719.95" textLength="196.49" dx="0,0,0,0,0,0,0,0,0,0,0,0,0,0,0,-0.05,0,0,0,0,0,0,0,0,0,0,0,0,0,0,0,-0.17,0,0,-0.17,0,0,0,0,0,0,0,0,0,0,0,0,0,0,0,0">ters should have similar widths. Reading has a nat-</tspan>
<tspan x="76.78" y="-708.46" textLength="8.57">ur</tspan>
<tspan x="85.27" y="-708.46" textLength="197.02" dx="0,0,0,0,0.05,0,0,0,0,0,0,0,0,0,0,0,0,0,0,0,0,0,0,0,0,0,0,0,0,0,0,0,-0.1,0,0,0,-0.09,0,0,0,0,0,0,-0.26,-0.65,0,0,0,0,0,0">al rhythm; an alphabet such as Futura (below, top) </tspan>
<tspan x="76.78" y="-696.97" textLength="186.2" dx="0,0,0,0,0,0,0,0,0,0,0,0,0,-0.05,0,0.16,0,0,0,0,0,0,0,0,-0.09,0,0,0,0,0,0,0,0,0,0,0,0,0,0,0,0,0.07,0,0,0,0,0,0,0">with widely varying character widths disrupts it.</tspan></text><path d="M750.36 305.81 l-316.02 0 " style="stroke:#918f8f;stroke-width:0.25;"/><path d="M627.95 219.48 l-77.85 0 l0 38.35 l77.85 0 l0 -38.35 z " style="fill:#e1dbc9;"/><path d="M635.84 219.66 l-6.82 0 " style="stroke:#231f20;stroke-width:0.36;"/><path d="M635.84 257.71 l-6.82 0 " style="stroke:#231f20;stroke-width:0.36;"/><path d="M632.61 219.84 l0 37.69 " style="stroke:#231f20;stroke-width:0.36;"/><path d="M635.84 201.53 l-6.82 0 " style="stroke:#231f20;stroke-width:0.36;"/><path d="M635.84 214.09 l-6.82 0 " style="stroke:#231f20;stroke-width:0.36;"/><path d="M632.61 201.89 l0 12.21 " style="stroke:#231f20;stroke-width:0.36;"/><path d="M635.84 165.09 l-6.82 0 " style="stroke:#231f20;stroke-width:0.36;"/><path d="M635.84 171.02 l-6.82 0 " style="stroke:#231f20;stroke-width:0.36;"/><path d="M632.61 164.91 l0 6.1 " style="stroke:#231f20;stroke-width:0.36;"/><path d="M627.95 111.42 l-77.85 0 l0 30.03 l77.85 0 l0 -30.03 z " style="fill:#e1dbc9;"/><path d="M627.89 145.65 l-77.85 0 l0 14.77 l77.85 0 l0 -14.77 z " style="fill:#e1dbc9;"/><path d="M627.95 164.91 l-77.85 0 l0 6.26 l77.85 0 l0 -6.26 z " style="fill:#e1dbc9;"/><path d="M627.67 175.68 l-77.85 0 l0 21.14 l77.85 0 l0 -21.14 z " style="fill:#e1dbc9;"/><path d="M627.95 201.35 l-77.85 0 l0 13.22 l77.85 0 l0 -13.22 z " style="fill:#e1dbc9;"/><path d="M627.95 77.09 l-77.85 0 l0 30.11 l77.85 0 l0 -30.11 z " style="fill:#e1dbc9;"/><text class="f938" font-size="66.11" style="fill:#212c53" transform="matrix(0,1,-1,0,0,0)"><tspan x="75.10" y="-569.74" textLength="187.67" dx="0,-2.38,0.93,0.26,-1.72,-2.05,-0.53">aefjsrm</tspan></text>
<g style="blend-mode:multiply;" ><path d="M535.92 162.06 l0 37.63 " style="stroke:#176fc0;stroke-width:0.34;"/><text class="f833" font-size="6.82" style="fill:#231f20" transform="matrix(0,1,-1,0,0,0)"><tspan x="77.38" y="-536.60" textLength="84.32" class="f835" dx="0,0.06,0.06,0.06,0.06,0.06,0.06,0.38,0.06,0.06,0.06,0.06,0.06,0.06,0.06,0.38,0.06,0.06,0.06,0.06,0.06,0.06,0.38">Widely varying widths  </tspan>
<tspan x="162.06" y="-536.60" textLength="37.56" style="fill:#176fc0" dx="0,0.05,0.05,0.05,0.05,-0.01,0.05,0.25,0.05,0.05,0.05,0.05">Futura Light</tspan></text></g><path d="M519.73 194.36 l-55.89 0 l0 17.86 l55.89 0 l0 -17.86 z " style="fill:#e1dbc9;"/><path d="M519.73 216.69 l-55.89 0 l0 41.3 l55.89 0 l0 -41.3 z " style="fill:#e1dbc9;"/><path d="M519.73 173.51 l-55.89 0 l0 16.74 l55.89 0 l0 -16.74 z " style="fill:#e1dbc9;"/><path d="M519.73 154.85 l-55.89 0 l0 14.9 l55.89 0 l0 -14.9 z " style="fill:#e1dbc9;"/><path d="M519.73 129.38 l-55.89 0 l0 21.18 l55.89 0 l0 -21.18 z " style="fill:#e1dbc9;"/><path d="M519.73 104.03 l-55.89 0 l0 20.81 l55.89 0 l0 -20.81 z " style="fill:#e1dbc9;"/><path d="M519.73 77.64 l-55.89 0 l0 22.66 l55.89 0 l0 -22.66 z " style="fill:#e1dbc9;"/><text class="f932" font-size="53.80" style="fill:#212c53" transform="matrix(0,1,-1,0,0,0)"><tspan x="76.42" y="-482.58" textLength="181.66" dx="0,1.73,1.19,0,0.65,-3.38,1.77,4.95">aef jsrm</tspan></text>
<g style="blend-mode:multiply;" ><path d="M448.33 133.89 l0 58.72 " style="stroke:#176fc0;stroke-width:0.34;"/><text class="f833" font-size="6.82" style="fill:#231f20" transform="matrix(0,1,-1,0,0,0)"><tspan x="77.32" y="-449.01" textLength="56.21" class="f835" dx="0,0.06,0.06,0.06,0.06,0.06,0.06,0.06,0.38,0.06,0.06,0.06,0.06,0.06,0.06,0.38">Similar widths  </tspan>
<tspan x="133.89" y="-449.01" textLength="58.63" style="fill:#176fc0" dx="0,0.05,0.05,0.05,0.05,0.05,0.25,0.05,0.05,0.05,0.25,0.05,0.05,0.05,0.05">Times &#59911;ew Roman</tspan></text></g><text class="f885" font-size="8.62" style="fill:#231f20" transform="matrix(0,1,-1,0,0,0)"><tspan x="349.25" y="-742.91" textLength="130.77" class="f835" font-size="7.90" dx="0,0,-0.29,0,0,0,0,0,0,0,0,0,0,0,0,0,0,0,0,0,0,0,0,0,0,0,0,0,0,0,0">2. Medium height-to-width ratio</tspan>
<tspan x="480.02" y="-742.91" textLength="2.33" class="f835" font-size="9.33"> </tspan>
<tspan x="349.25" y="-731.43" textLength="203.19" dx="0,-0.56,0,0,0,0,0,0,0,0,0,0,0,0,0,0,0,0,0,0,0,-0.22,0,0,0,0,0,0,0,0,0,0,0,0,0,0,0,0,0,0,0,0,-0.09,0,0,0,0,0.07,0,0,0,0,0,0">We identify letters by their physical characteristics&#8212;</tspan>
<tspan x="349.25" y="-719.94" textLength="185.99" dx="0,0,0,0,0,-0.09,0,0,0,0,0,-0.09,0,0,0,0,0,0,-0.09,0,0,0,0,0.16,-0.04,0,0,0,0,0,0,0,0,0,0,0,0,0,0,0,0,0,0,0,0,0,0,-0.17,0,0">stems, bars, loops, curves and so on; the clearer </tspan>
<tspan x="349.25" y="-708.46" textLength="188.0" dx="0,0,0,0,0,0,0,-0.17,0,0,0,0,0,0,0,0,-0.17,0,0,0,0,0,0,0,0,0,0,0,0,0,0,0,0,0,0,0,-0.52,0,0,0,0,0,0,0,0,0,0,0,0,0,0,-0.17,0">they are the more legible the letter. As letters are </tspan>
<tspan x="349.25" y="-696.97" textLength="192.54" dx="0,0,0,0,0,-0.17,0,0,0,0,0,0,0,0,0,0,0,0,0,0,0,0,0,0,0,0,0,0,0,0,0,0,0,0,0,0,0,0,-0.17,0,0,0,0,0,0,0,0,0,0">compressed (or expanded), these features get dis-</tspan>
<tspan x="349.25" y="-685.49" textLength="11.29">tor</tspan>
<tspan x="360.61" y="-685.48" textLength="194.28" dx="0,0,0,0,0,0,0,0,0,0,0,0,0,0,0,0,-0.05,0,0,0,-0.09,0,0,0,0,0,0,0,0,0,0,0,0,-0.17,0,0,0,0,0,0,0,0,0,0,0,0,0,0">ted&#8212;diagonal strokes, for example, become quite </tspan>
<tspan x="349.25" y="-673.99" textLength="150.13" dx="0,-0.04,0,0.07,0,0,0,0,0,0,0,0,0,0,0,0,0,0,-0.17,0,0,0,0,-0.17,0,0,0,0,0,0,0,0,0,0,0,0,0,0,-0.82,0">vertical&#8212;and so are harder to identify. </tspan></text><path d="M593.95 368.28 l0 131.93 " style="stroke:#0994dc;stroke-width:0.36;"/><path d="M490.57 368.28 l0 131.93 " style="stroke:#0994dc;stroke-width:0.36;"/><path d="M486.68 368.46 l107.46 0 l0 -19.39 l-107.46 0 l0 19.39 z " style="fill:#d3d1cb;"/><path d="M490.53 349.07 l0 19.21 " style="stroke:#231f20;stroke-width:0.36;"/><path d="M496.06 365.11 l0 3.17 " style="stroke:#231f20;stroke-width:0.36;"/><path d="M501.23 362.71 l0 5.56 " style="stroke:#231f20;stroke-width:0.36;"/><path d="M506.4 365.11 l0 3.17 " style="stroke:#231f20;stroke-width:0.36;"/><path d="M511.57 358.41 l0 9.87 " style="stroke:#231f20;stroke-width:0.36;"/><path d="M516.74 365.11 l0 3.17 " style="stroke:#231f20;stroke-width:0.36;"/><path d="M521.91 362.71 l0 5.56 " style="stroke:#231f20;stroke-width:0.36;"/><path d="M527.07 365.11 l0 3.17 " style="stroke:#231f20;stroke-width:0.36;"/><path d="M532.24 358.41 l0 9.87 " style="stroke:#231f20;stroke-width:0.36;"/><path d="M537.41 365.11 l0 3.17 " style="stroke:#231f20;stroke-width:0.36;"/><path d="M542.58 362.71 l0 5.56 " style="stroke:#231f20;stroke-width:0.36;"/><path d="M547.75 365.11 l0 3.17 " style="stroke:#231f20;stroke-width:0.36;"/><path d="M552.92 358.41 l0 9.87 " style="stroke:#231f20;stroke-width:0.36;"/><path d="M558.09 365.11 l0 3.17 " style="stroke:#231f20;stroke-width:0.36;"/><path d="M563.26 362.71 l0 5.56 " style="stroke:#231f20;stroke-width:0.36;"/><path d="M568.43 365.11 l0 3.17 " style="stroke:#231f20;stroke-width:0.36;"/><path d="M573.6 358.41 l0 9.87 " style="stroke:#231f20;stroke-width:0.36;"/><path d="M578.77 365.11 l0 3.17 " style="stroke:#231f20;stroke-width:0.36;"/><path d="M583.94 362.71 l0 5.56 " style="stroke:#231f20;stroke-width:0.36;"/><path d="M589.11 365.11 l0 3.17 " style="stroke:#231f20;stroke-width:0.36;"/><path d="M486.56 383.18 l120.38 0 " style="stroke:#0994dc;stroke-width:0.36;"/><path d="M486.56 443.97 l120.38 0 " style="stroke:#0994dc;stroke-width:0.36;"/><path d="M486.56 464.55 l120.38 0 " style="stroke:#0994dc;stroke-width:0.36;"/><path d="M486.56 496.38 l120.38 0 " style="stroke:#0994dc;stroke-width:0.36;"/><path d="M606.94 447.79 l0 -64.86 l19.39 0 l0 64.86 l-19.39 0 z " style="fill:#d3d1cb;"/><path d="M626.32 444.04 l-19.21 0 " style="stroke:#231f20;stroke-width:0.36;"/><path d="M610.29 438.77 l-3.17 0 " style="stroke:#231f20;stroke-width:0.36;"/><path d="M612.68 433.75 l-5.56 0 " style="stroke:#231f20;stroke-width:0.36;"/><path d="M610.29 428.72 l-3.17 0 " style="stroke:#231f20;stroke-width:0.36;"/><path d="M616.99 423.69 l-9.87 0 " style="stroke:#231f20;stroke-width:0.36;"/><path d="M610.29 418.67 l-3.17 0 " style="stroke:#231f20;stroke-width:0.36;"/><path d="M612.68 413.64 l-5.56 0 " style="stroke:#231f20;stroke-width:0.36;"/><path d="M610.29 408.62 l-3.17 0 " style="stroke:#231f20;stroke-width:0.36;"/><path d="M616.99 403.59 l-9.87 0 " style="stroke:#231f20;stroke-width:0.36;"/><path d="M610.29 398.57 l-3.17 0 " style="stroke:#231f20;stroke-width:0.36;"/><path d="M612.68 393.54 l-5.56 0 " style="stroke:#231f20;stroke-width:0.36;"/><path d="M610.29 388.51 l-3.17 0 " style="stroke:#231f20;stroke-width:0.36;"/><path d="M606.94 500.21 l0 -35.9 l19.39 0 l0 35.9 l-19.39 0 z " style="fill:#d3d1cb;"/><path d="M612.68 496.38 l-5.56 0 " style="stroke:#231f20;stroke-width:0.36;"/><path d="M610.29 490.85 l-3.17 0 " style="stroke:#231f20;stroke-width:0.36;"/><path d="M626.32 485.61 l-19.21 0 " style="stroke:#231f20;stroke-width:0.36;"/><path d="M610.29 480.37 l-3.17 0 " style="stroke:#231f20;stroke-width:0.36;"/><path d="M612.68 475.13 l-5.56 0 " style="stroke:#231f20;stroke-width:0.36;"/><path d="M610.29 469.88 l-3.17 0 " style="stroke:#231f20;stroke-width:0.36;"/>
<g style="blend-mode:multiply;" ><path d="M453.63 382.26 l0 45.99 " style="stroke:#176fc0;stroke-width:0.34;"/><text class="f835" font-size="6.82" style="fill:#231f20" transform="matrix(0,1,-1,0,0,0)"><tspan x="382.29" y="-472.98" textLength="58.41" dx="0,0.06,0.06,0.06,0.06,0.06,0.06,0.38,0.06,0.06,0.06,0.06,0.06,0.06,0.05">Medium height- </tspan></text><text class="f835" font-size="6.82" style="fill:#231f20" transform="matrix(0,1,-1,0,0,0)"><tspan x="382.22" y="-463.64" textLength="51.81" dx="0,0.06,0.06,0.06,0.06,0.06,0.06,0.06,0.06,0.38,0.06,0.06,0.06,0.06,0.05">to-width ratio </tspan></text><text class="f833" font-size="6.82" style="fill:#176fc0" transform="matrix(0,1,-1,0,0,0)"><tspan x="382.26" y="-454.31" textLength="45.9" dx="0,0.05,0.05,0.05,0.25,0.05,0.05,0.05,0.05,0.05,0.25,0.05,0.05,0.05,0.05">ITC Stone Serif</tspan></text></g>
<g style="blend-mode:multiply;" ><text class="f835" font-size="6.82" style="fill:#231f20" transform="matrix(0,1,-1,0,0,0)"><tspan x="463.22" y="-472.98" textLength="46.54" dx="0,0.06,0.06,0.06,0.06,0.06,0.06,0.06,0.06,0.06,0.06">Compressed </tspan></text><text class="f835" font-size="6.82" style="fill:#231f20" transform="matrix(0,1,-1,0,0,0)"><tspan x="463.40" y="-463.65" textLength="57.96" dx="0,0.06,0.06,0.06,0.06,0.06,0.06,0.06,0.06,0.06,0.06,0.06,0.06,0.06,0.06,0.06">height-to-width </tspan></text><text class="f833" font-size="6.82" style="fill:#231f20" transform="matrix(0,1,-1,0,0,0)"><tspan x="463.40" y="-454.31" textLength="20.89" class="f835" dx="0,0.06,0.06,0.06,0.06,0.06,0.38">ratio  </tspan>
<tspan x="484.66" y="-454.31" textLength="17.78" dx="0,0.05,0.05,0.05,0.05">Racer</tspan></text></g><text class="f851" font-size="7.54" style="fill:#231f20" transform="matrix(0,1,-1,0,0,0)"><tspan x="352.13" y="-492.72" textLength="4.46">5</tspan></text><text class="f851" font-size="7.54" style="fill:#231f20" transform="matrix(0,1,-1,0,0,0)"><tspan x="437.49" y="-617.64" textLength="4.46">3</tspan>
<tspan x="480.49" y="-617.64" textLength="4.46">1</tspan></text><text class="f942" font-size="143.59" style="fill:#872647" transform="matrix(0,1,-1,0,0,0)"><tspan x="377.81" y="-491.67" textLength="71.8">S</tspan></text><text class="f925" font-size="148.34" style="fill:#872647" transform="matrix(0,1,-1.0309,0,0,0)"><tspan x="463.05" y="-475.88" textLength="37.09">S</tspan></text><path d="M414.16 30.01 l0 551.98 " style="stroke:#918f8f;stroke-width:0.25;"/><path d="M38.01 30.01 l0 551.97 " style="stroke:#918f8f;stroke-width:0.35;"/>
<g clip-path="url(#Clip_1187_12_zYVf6P)" ><text class="f885" font-size="11.81" style="fill:#231f20" transform="matrix(-1,0,0,-1,0,0)"><tspan x="-751.19" y="-589.63" textLength="2.66"> </tspan></text><text class="f1468" font-size="14.61" style="fill:#918f8f" transform="matrix(-1,0,0,-0.7407,0,0)"><tspan x="-749.72" y="-797.32" textLength="14.61">&#57513;</tspan></text></g>
<g clip-path="url(#Clip_1200_12_zYVf6P)" ><text class="f885" font-size="11.78" style="fill:#231f20"><tspan x="762.51" y="597.35" textLength="2.65"> </tspan></text><text class="f1468" font-size="14.58" style="fill:#918f8f" transform="matrix(1,0,0,0.7407,0,0)"><tspan x="763.98" y="805.10" textLength="14.58">&#57513;</tspan></text></g>
</svg>
