
<?xml-stylesheet href="css/stylesheet.css" type="text/css"?>
<svg class="crocodoc-zYVf6P crocodoc-page-svg" version="1.1"
    xmlns="http://www.w3.org/2000/svg"
    xmlns:xlink="http://www.w3.org/1999/xlink"
    xml:space="preserve" width="792pt" height="612pt" viewBox="0 0 792 612">
<defs>
<mask id="Mask_107_4_zYVf6P">
<g ><image x="133.74" y="37.36" width="58.32" height="51.36" preserveAspectRatio="none" xlink:href="images/959.jpeg" /></g></mask>
<clipPath id="Clip_119_4_zYVf6P"><path d="M133.2 42.44 l4.63 44.09 l54.03 -5.68 l-4.63 -44.09 l-54.03 5.68 z " /></clipPath>
<clipPath id="Clip_120_4_zYVf6P"><path d="M138 44.36 l-0.41 0.54 c0 0 0.01 0.23 0.07 0.79 c0.25 4.52 1.79 20.74 2.38 24.51 c0.4 3.09 0.88 7.67 0.88 7.67 l0.91 5.96 l0.9 -0.24 l1.84 -0.76 c0 0 0.36 0.03 0.78 -0.01 c0.42 -0.04 1.35 0 1.35 0 l0.63 -0.07 l0.42 -0.04 l0.84 -0.16 c0 0 6.13 -1.29 8.75 -2.13 c2.62 -0.84 5.75 -2.17 6.51 -3.11 c0.76 -0.93 0.71 -1.36 0.71 -1.36 c0 0 1.79 2.8 9.15 3.03 c7.36 0.22 8.07 0.22 8.07 0.22 c0 0 2.25 -0.24 3.02 -0.39 c0.77 -0.15 1.61 -0.24 1.61 -0.24 l1.97 0.43 c0 0 -1.4 -17.5 -1.69 -20.25 c-0.29 -2.75 -2.21 -19.32 -2.21 -19.32 c0 0 -0.87 0.05 -2.72 0.6 c-1.93 0.63 -5.22 1.48 -5.22 1.48 c0 0 -7.32 1.36 -8.78 1.72 c-1.46 0.37 -4.15 1.08 -5.81 2.44 c-0.5 -0.02 -0.6 0.07 -0.6 0.07 c0 0 -3.14 -1.03 -5.49 -1.07 c-2.35 -0.04 -8.53 0.11 -8.53 0.11 l-9.34 -0.44 z " /></clipPath>
<clipPath id="Clip_121_4_zYVf6P"><path d="M133.2 42.44 l4.63 44.09 l54.02 -5.68 l-4.63 -44.09 l-54.02 5.68 z " /></clipPath>
<clipPath id="Clip_121_4_zYVf6P_2"><path d="M137.59 83.83 l50.8 0 l0 -44.4 l-50.8 0 l0 44.4 " /></clipPath>
</defs>
<path d="M20 36 c0 0 -8 0 -8 8 c0 0 0 26 0 26 c0 0 0 8 8 8 c0 0 124.25 0 124.25 0 c0 0 8 0 8 -8 c0 0 0 -26 0 -26 c0 0 0 -8 -8 -8 c0 0 -124.25 0 -124.25 0 z " style="fill:#231f20;"/><path d="M325.75 36 c0 0 -8 0 -8 8 c0 0 0 26 0 26 c0 0 0 8 8 8 c0 0 446.25 0 446.25 0 c0 0 8 0 8 -8 c0 0 0 -26 0 -26 c0 0 0 -8 -8 -8 c0 0 -446.25 0 -446.25 0 z " style="fill:#9c9a9b;"/><text class="f835" font-size="12.50" style="fill:#f4f4f4"><tspan x="48.81" y="61.13" textLength="41.49" dx="0,-0.31,-0.31,-0.31,-0.31,-0.31">Before</tspan>
<tspan x="89.97" y="61.13" textLength="9.95" style="fill:#a665b9">&amp;</tspan>
<tspan x="99.61" y="61.13" textLength="9.49" style="fill:#ef2c3c">A</tspan>
<tspan x="108.78" y="61.13" textLength="5.09" style="fill:#f36717">f</tspan>
<tspan x="113.56" y="61.13" textLength="5.55" style="fill:#fcd205">t</tspan>
<tspan x="118.80" y="61.13" textLength="7.88" style="fill:#179f50">e</tspan>
<tspan x="126.36" y="61.13" textLength="7.72" style="fill:#44aae4" dx="0,-0.95">r </tspan></text><path d="M141.5 69 l0 -33 " style="stroke:#ffffff;stroke-width:1.00;"/><text class="f851" font-size="4.00" style="fill:#f4f4f4"><tspan x="131.72" y="61.47" textLength="3.2">&#174;</tspan></text><path d="M141.75 36 l0 42 l210.75 0 l0 -42 l-210.75 0 z " style="fill:#9a97b6;"/><text class="f885" font-size="12.00" style="fill:#231f20"><tspan x="192.87" y="61.22" textLength="117.49" dx="0,-0.14,0,0,0,0,0,0,0,0,0,0,0,0,0,0,0,0,0,0,0,0,0,0,0,0">Selecting text type       </tspan>
<tspan x="310.36" y="61.22" textLength="7.2" class="f899" style="fill:#ffffff">4</tspan>
<tspan x="317.56" y="61.22" textLength="2.7"> </tspan>
<tspan x="320.26" y="61.22" textLength="10.22" class="f914">of</tspan>
<tspan x="330.49" y="61.22" textLength="10.62" dx="0,1.56"> 8</tspan></text><path d="M301.68 45.91 l0 15.99 " style="stroke:#ffffff;stroke-width:0.83;stroke-linecap:round;"/><path d="M352.65 36 l0 32 " style="stroke:#ffffff;stroke-width:1.10;"/><text class="f1477" font-size="18.00" style="fill:#ffffff"><tspan x="720.66" y="59.99" textLength="17.5">X</tspan></text><path d="M689.87 45.91 l0 15.99 " style="stroke:#ffffff;stroke-width:0.83;stroke-linecap:round;"/><path d="M716.2 45.91 l0 15.99 " style="stroke:#ffffff;stroke-width:0.83;stroke-linecap:round;"/><path d="M742.95 45.91 l0 15.99 " style="stroke:#ffffff;stroke-width:0.83;stroke-linecap:round;"/><path d="M769.69 45.91 l0 15.99 " style="stroke:#ffffff;stroke-width:0.83;stroke-linecap:round;"/><path d="M664.04 45.91 l0 15.99 " style="stroke:#ffffff;stroke-width:0.83;stroke-linecap:round;"/><text class="f1477" font-size="20.00" style="fill:#ffffff"><tspan x="672.73" y="59.48" textLength="5.89" class="f897" font-size="18.00">i</tspan>
<tspan x="585.74" y="56.95" textLength="69.59" class="f835" font-size="7.94" dx="0,-0.08,-0.08,-0.08,-0.08,-0.08,-0.08,-0.08,-0.08,-0.08,-0.48,-0.08,-0.08,-0.08">BAmagazine.com</tspan>
<tspan x="693.24" y="60.47" textLength="19.32">U</tspan></text><path d="M752.82 47.34 l0 5.36 l0 2.56 l6.27 0 l3.86 0 l0 -7.92 l-10.13 0 z " style="stroke:#ffffff;stroke-width:0.47;"/><path d="M752.87 47.42 l0 1.42 l10.08 0 l0 -1.42 l-10.08 0 z " style="fill:#ffffff;"/><path d="M749.24 52.17 l0 1.42 l10.03 0 l0 -1.42 l-10.03 0 z " style="fill:#ffffff;"/><path d="M749.18 52.09 l0 7.92 l10.13 0 l0 -7.92 l-10.13 0 z " style="fill:#9c9a9b;"/><path d="M749.18 52.09 l0 7.92 l10.13 0 l0 -7.92 l-10.13 0 z " style="stroke:#ffffff;stroke-width:0.47;"/><text class="f1468" font-size="14.85" style="fill:#918f8f" transform="matrix(1,0,0,0.7407,0,0)"><tspan x="539.66" y="803.57" textLength="14.85">&#59904;</tspan></text><text class="f885" font-size="12.00" style="fill:#231f20"><tspan x="555.99" y="595.24" textLength="9.68" class="f1468" font-size="11.00" dx="0,0,0.77">&#59905; &#59905;</tspan>
<tspan x="565.07" y="596.24" textLength="7.2" class="f899">4</tspan>
<tspan x="572.27" y="596.24" textLength="2.7"> </tspan>
<tspan x="575.99" y="596.24" textLength="10.22" class="f914" style="fill:#918f8f">of</tspan>
<tspan x="585.61" y="596.24" textLength="21.06" dx="0,1.8,0,3.3,-1.2"> 8   </tspan></text><text class="f1468" font-size="14.85" style="fill:#918f8f" transform="matrix(1,0,0,0.7407,0,0)"><tspan x="605.47" y="803.57" textLength="14.85">&#57513;</tspan></text><path d="M635.33 584.88 c0 0 0 8.22 0 8.22 c0 0 0 6.9 6.9 6.9 c0 0 130.86 0 130.86 0 c0 0 6.9 0 6.9 -6.9 c0 0 0 -8.22 0 -8.22 " style="fill:#7c7ea4;"/><text class="f835" font-size="9.50" style="fill:#ffffff"><tspan x="643.61" y="595.57" textLength="130.08" dx="0,0,0,0,0,0,0,0,0,0,0,0,0,0,0,0,0,0,0,0,0,8.07,0,0,0">Selecting text type  0269</tspan></text><path d="M8.25 68.01 l0 14.75 l774.74 0 l0 -14.75 l-774.74 0 z " style="fill:#ffffff;"/>
<g mask="url(#Mask_107_4_zYVf6P)" ><path d="M133.74 37.36 l58.32 0 l0 51.36 l-58.32 0 l0 -51.36 " style="fill:#231f20;fill-opacity:0.45;blend-mode:multiply;"/></g>
<g clip-path="url(#Clip_119_4_zYVf6P)" >
<g clip-path="url(#Clip_120_4_zYVf6P)" >
<g clip-path="url(#Clip_121_4_zYVf6P)" ><g clip-path="url(#Clip_121_4_zYVf6P_2)" ><image x="0.00" y="0.00" width="114.00" height="93.00" transform="matrix(0.4739,-0.0498,0.0498,0.4741,133.1997,42.4376)" xlink:href="images/967.jpeg" /></g></g></g></g><text class="f833" font-size="112.00" style="fill:#a6a29d"><tspan x="72.75" y="502.60" textLength="64.29">n</tspan>
<tspan x="147.46" y="502.60" textLength="69.33" class="f885">n</tspan>
<tspan x="227.09" y="502.60" textLength="59.58" class="f988">n</tspan>
<tspan x="298.21" y="502.60" textLength="36.96" class="f995">n</tspan></text><path d="M70.78 502.62 l288.75 0 " style="stroke:#0994dc;stroke-width:0.50;"/><path d="M70.78 436.29 l288.75 0 " style="stroke:#0994dc;stroke-width:0.50;stroke-dasharray:1.9909695377,1.9909695377;"/>
<g style="blend-mode:multiply;" ><path d="M81.29 514.25 l0 27.75 l62.25 0 l0 -27.75 l-62.25 0 z " style="fill:#ffffff;fill-opacity:0.00;"/><path d="M81.45 522.32 l33.54 0 " style="stroke:#176fc0;stroke-width:0.47;"/><text class="f833" font-size="9.50" style="fill:#176fc0"><tspan x="81.45" y="521.37" textLength="33.45" dx="0,-0.28,0.08,0.08,0.08,0.08,-0.01">&#59913;ectora</tspan></text></g><path d="M293 475.58 l66.53 0 " style="stroke:#0994dc;stroke-width:0.50;stroke-dasharray:2.0159691552,2.0159691552;"/>
<g style="blend-mode:multiply;" ><path d="M154 514.25 l0 27.75 l54 0 l0 -27.75 l-54 0 z " style="fill:#ffffff;fill-opacity:0.00;"/><path d="M154.37 522.32 l28.47 0 " style="stroke:#176fc0;stroke-width:0.47;"/><text class="f833" font-size="9.50" style="fill:#176fc0"><tspan x="154.37" y="521.37" textLength="28.38" dx="0,0.08,0.08,0.08,0.08,0.08">Utopia</tspan></text></g>
<g style="blend-mode:multiply;" ><path d="M231.5 514.25 l0 27.75 l54 0 l0 -27.75 l-54 0 z " style="fill:#ffffff;fill-opacity:0.00;"/><path d="M231.39 522.32 l31.09 0 " style="stroke:#176fc0;stroke-width:0.47;"/><path d="M231.76 535.32 l29.51 0 " style="stroke:#176fc0;stroke-width:0.47;"/><text class="f833" font-size="9.50" style="fill:#176fc0"><tspan x="231.39" y="521.37" textLength="30.73" dx="0,0.08,0.08,0.08,0.08,0.08">Adobe </tspan>
<tspan x="231.76" y="534.37" textLength="29.41" dx="0,0.08,0.08,0.08,0.08,0.08">Caslon</tspan></text></g>
<g style="blend-mode:multiply;" ><path d="M303.5 514.25 l0 25.75 l62 0 l0 -25.75 l-62 0 z " style="fill:#ffffff;fill-opacity:0.00;"/><path d="M303.76 522.32 l55.58 0 " style="stroke:#176fc0;stroke-width:0.47;"/><path d="M304 535.32 l33.81 0 " style="stroke:#176fc0;stroke-width:0.47;"/><text class="f833" font-size="9.50" style="fill:#176fc0"><tspan x="303.76" y="521.37" textLength="57.96" dx="0,0.08,0.08,0.34,0.08,0.08,0.08,0.08,0.08,0.08,0.08,0.11">CG Bernhard </tspan>
<tspan x="304.00" y="534.37" textLength="33.71" dx="0,-0.28,0.08,0.08,0.08,0.08,0.08">Fashion</tspan></text></g><path d="M226.66 455.92 l132.87 0 " style="stroke:#0994dc;stroke-width:0.50;stroke-dasharray:1.9829696601,1.9829696601;"/><path d="M145.66 447.42 l213.87 0 " style="stroke:#0994dc;stroke-width:0.50;stroke-dasharray:1.9989694153,1.9989694153;"/><text class="f1004" font-size="112.00" style="fill:#444141"><tspan x="71.54" y="346.86" textLength="28.0" class="f988"> </tspan>
<tspan x="67.24" y="346.36" textLength="124.98" font-size="113.00" dx="0,-2.6">Be</tspan>
<tspan x="190.29" y="346.86" textLength="28.0"> </tspan>
<tspan x="201.27" y="346.86" textLength="119.04" class="f932" dx="0,-5.38">Be</tspan></text><text class="f885" font-size="12.00" style="fill:#231f20"><tspan x="453.24" y="121.37" textLength="252.02" class="f835" font-size="11.00" dx="0,0,-0.41,0,0,0,0,0,0,0,0,0,0,0,0,0,0,0,0,0,0,0,0,0,0,0,0,0,0,0,0,0,0,0,0,0,0,0,0,0,0,0,0,0,0">4. Look for small variations in stroke weight</tspan>
<tspan x="705.26" y="121.37" textLength="3.25" class="f835" font-size="13.00"> </tspan>
<tspan x="453.24" y="137.37" textLength="261.38" dx="0,0,0,0,0,0,0,0,0,0,0,0,0,0,0,0,0,0,0,0,0,0,0,-0.06,0,0,0,0,-0.07,0,0,0,0,-0.07,0,0,0,0,0,0,0,0,0,0,0,0,-0.07,0,0.22,0">The best text faces have stroke weights that vary </tspan>
<tspan x="453.24" y="153.36" textLength="273.45" dx="0,0,0,0,0,0,0,0,0,0,0,0,0,0,0,0,0,0,0,0,0,0,0,0,0,-0.06,0,-0.07,0,0,0,0,0,0,0,0,0,0,0,0,0,0,0,0,0,0,0,0">somewhat, which make converging lines that help </tspan>
<tspan x="453.24" y="169.36" textLength="278.07" dx="0,0,0,0,0,0,-0.07,0,0,0,-0.36,0,0,0,0,0,0,0,0,0,-1.14,0,0,-0.14,0,0,0,0,-0.06,0,0,0,0,0,0,0,-0.24,0,0,0,-0.24,0,0,-0.36,0,0,0,0.1,0">the eye &#64258;ow smoothly. But avoid extremes. Modern </tspan>
<tspan x="453.24" y="185.36" textLength="261.13" dx="0,0,0,0,0,0,0,0,0,0,0,0,-0.36,-0.9,0,0,0,0,0,0,0,0,-0.07,0,0.22,0,0,0,0,0,0,0,0,0,0,0,0,0,0,0,0,0,0,0,0,-0.24,0,0,0,0,0">styles (below, left) vary too much; at high resolu-</tspan>
<tspan x="453.24" y="201.35" textLength="138.58">tion their beautiful, super</tspan>
<tspan x="591.92" y="201.36" textLength="136.5" dx="0,0,0,0,0,0,0,0,-0.07,0,0,0,0,0,0,0,0,0,0,0,0,0,0,0,0,0">thin strokes disappear in </tspan>
<tspan x="453.24" y="217.36" textLength="270.91" dx="0,0,0,0,0,0,0,0,-0.24,0,0,-0.22,0,0,0,0,0,0,0,0,0,0,0,0.1,0,0,0,0,0,0,0,0,0,0,0,0,0,0,-0.36,-0.9,0,0,0.1,0,0,0,0,0,0,-0.07,0,0.22,0">a dazzle. Sleek geometric styles (below, right) vary </tspan>
<tspan x="453.24" y="233.35" textLength="197.8" dx="0,0,0,0,0,0,0,0,0,0,0,0,0,0,0,0,0,0,0,0,0,0,0,0,0,0,0,-0.24,0,0,0,0,0,0,0,0,0,0,0,0.1,0">little or not at all, so are too uniform.</tspan></text>
<g style="blend-mode:multiply;" ><path d="M545.49 395.5 l0 24 l100.25 0 l0 -24 l-100.25 0 z " style="fill:#ffffff;fill-opacity:0.00;"/><path d="M545.19 417.02 l81.78 0 " style="stroke:#176fc0;stroke-width:0.47;"/><text class="f833" font-size="9.50" style="fill:#231f20"><tspan x="546.02" y="403.07" textLength="100.03" class="f835" dx="0,0.09,0.09,0.09,0.09,0.09,0.09,0.52,0.09,0.09,0.09,0.09,0.09,0.09,0.09,0.09,0.09,0.09,-0.33">Medium difference  </tspan>
<tspan x="545.19" y="416.07" textLength="81.66" style="fill:#176fc0" dx="0,0.08,0.08,0.08,0.08,0.08,0.34,0.08,0.08,0.08,0.34,0.08,0.08,0.08,0.08">Times &#59911;ew Roman</tspan></text></g>
<g style="blend-mode:multiply;" ><path d="M656.74 395.5 l0 22.93 l81 0 l0 -22.93 l-81 0 z " style="fill:#ffffff;fill-opacity:0.00;"/><path d="M657.25 417.02 l66.91 0 " style="stroke:#176fc0;stroke-width:0.47;"/><text class="f833" font-size="9.50" style="fill:#231f20"><tspan x="657.32" y="403.07" textLength="73.93" class="f835" dx="0,0.09,0.09,0.52,0.09,0.09,0.09,0.09,0.09,0.09,0.09,0.09,0.09,0.09,0.51">No difference  </tspan>
<tspan x="657.25" y="416.07" textLength="66.8" style="fill:#176fc0" dx="0,0.08,0.08,0.08,0.08,-0.01,0.08,0.34,0.08,0.08,0.08,0.08,0.08">Futura Medium</tspan></text></g><text class="f1011" font-size="11.00" style="fill:#231f20"><tspan x="453.51" y="464.48" textLength="131.52" dx="0,0,0,0,0,0,0,0,0,0,0,0,0,0,0,0,-1.01,0,0,0,0,-0.11,0,0,0,0,0">Bauer Bodoni | Texture and </tspan>
<tspan x="453.23" y="476.97" textLength="145.47">&#64258;asp net exating end mist of it </tspan>
<tspan x="453.78" y="489.47" textLength="109.43">snooling. Spaff forl isn&#8217;</tspan>
<tspan x="562.68" y="489.47" textLength="28.12">t cub-</tspan>
<tspan x="453.57" y="501.97" textLength="139.86" dx="0,0,0,0,0,0,0,0,0,0,0,0,0,0,0,0,0,0,0,0,0,0,0,0,-0.11,0,0,0,0,0,0">ular but quastic, leam restart </tspan>
<tspan x="453.50" y="514.46" textLength="141.08" dx="0,0,0,0,0,0,0,0,0,-0.52,0,0,0,0,0,0,0,0,0,0,0,-0.81,0,0,0,0,0,0,0,0,0,0,0,0">that can&#8217;t prast. It&#8217;s tope, this </tspan>
<tspan x="453.23" y="526.96" textLength="149.07" dx="0,-0.11,-0.11,-0.11,-0.11,-0.11,-0.11,-0.11,-0.11,-0.11,-0.11,-0.11,-0.11,-0.11,-0.11,-0.11,-0.11,-0.11,-0.11,-0.11,-0.11,-0.11,-0.11,-0.11,-0.11,-0.11,-0.11,-0.11,-0.11,-0.11,-0.11,-0.11,-0.11,-0.11,-1.97">&#64258;uant chasible. Silk, shast, lape  </tspan>
<tspan x="453.58" y="539.46" textLength="134.48">and behast the thin chack. I </tspan>
<tspan x="453.61" y="551.95" textLength="67.84">have lot to say</tspan>
<tspan x="520.44" y="551.98" textLength="72.61" dx="0,1.1,0,0,0,0,0,0,0,0,0,0,0,0">.Why? Elesara </tspan></text><text class="f1048" font-size="10.60" style="fill:#231f20"><tspan x="613.69" y="464.39" textLength="129.99" dx="0,0,0,0,0,0,0,0,0,0,0,0,0,0,0,0,0,-1.06,0,0,0,0,0,0,0,0,0,0">Futura Medium | Texture the </tspan>
<tspan x="613.79" y="476.89" textLength="139.41">net exating end mist of it snool-</tspan>
<tspan x="613.62" y="489.39" textLength="40.64">ing. Spaf</tspan>
<tspan x="654.48" y="489.39" textLength="97.77" dx="0,0,0,0,0,0,0,0,0,0,0,-0.21,0,0,0,0,0,0,0,0,0,0,0,0,0">f forl isn&#8217;t cubular but </tspan>
<tspan x="613.77" y="501.89" textLength="136.91" dx="0,0,0,0,0,0,0,0,0,0,0,0,0,0,0,0,0,0,0,0,0.21,0,0,0,0,0,0,0,0,0,0,-0.21,0">quastic, leam restart that can&#8217;t </tspan>
<tspan x="613.86" y="514.39" textLength="124.44" dx="0,0,0,0,0,0,0,0,0,0,0,0,-1.06,0,0,0,0,0,0,0,0,0,0,0,0,0,0,0,0,0,0">prebast. It&#8217;s tope, this &#64258;uant </tspan>
<tspan x="613.62" y="526.88" textLength="135.2">chasible. Silk, shast, lape and </tspan>
<tspan x="613.86" y="539.38" textLength="143.3">behast the thin chack. I have lot </tspan>
<tspan x="613.77" y="551.88" textLength="26.43">to say</tspan>
<tspan x="639.35" y="551.89" textLength="118.93">. Why? Elesara and order </tspan></text><path d="M395.73 111.01 l0 467.99 " style="stroke:#7b7979;stroke-width:0.50;stroke-linecap:round;"/><text class="f885" font-size="12.00" style="fill:#231f20"><tspan x="77.04" y="121.37" textLength="109.62" class="f835" font-size="11.00" dx="0,0,-0.41,0,0,0,0,0,0,0,0,0,0,0,0,0,0,0">3. Medium x-height</tspan>
<tspan x="186.66" y="121.37" textLength="3.25" class="f835" font-size="13.00"> </tspan>
<tspan x="77.04" y="137.37" textLength="243.17">The x-height of a typestyle is the height of its </tspan>
<tspan x="77.04" y="153.36" textLength="266.84" dx="0,0,-0.36,-0.07,0,-0.24,0,0,0,0,0,0,0,0,-0.12,0,0,0,0,0,-0.24,0,-0.43,0,0,0,0,0,0,-0.07,0,0,0,0,0,0,0,0,0,0,0,0,0,0,0,0,0,0,0,0,0">lowercase characters. The larger the x-height, the </tspan>
<tspan x="77.04" y="169.36" textLength="203.32" dx="0,0,0,0,0,0,0,0,0,0,0,0,0,0,0,0,0,0,0,0,0,0,0,0,0,0,0,-0.72,0,-0.72,-1.08,0,0,0,0,0,0,0">denser the type will appear. You want </tspan>
<tspan x="280.36" y="169.36" textLength="51.11" class="f914" dx="0,0,0,0,0,0,0,-0.36">medium; </tspan>
<tspan x="77.04" y="185.36" textLength="265.28" dx="0,0,0,0,0,0,0,0,0,0,0,0,0,0,0,0,0,0,0,0,0,0,0.1,0,0,0,0,0,0,0,0,0,0,0,0,0,-0.24,0,0,0,0,0,0,0,0,0,0,0,0,0,0,0">unusually tall or short x-heights are better suited </tspan>
<tspan x="77.04" y="201.35" textLength="115.38" dx="0,0,0,0,0,0,0,0,0,0,0,0,0,0,0,0,-0.07,0,0,0,0,0,-0.24">for specialty projects.</tspan></text>
<g style="blend-mode:multiply;" ><path d="M306.28 297.5 l0 9.51 l54 0 l0 -9.51 l-54 0 z " style="fill:#ffffff;fill-opacity:0.00;"/><text class="f833" font-size="9.50" style="fill:#231f20"><tspan x="324.35" y="304.63" textLength="35.56" dx="0,0.08,0.08,0.08,0.08,0.08,0.08,0.08">x-height</tspan></text></g>
<g style="blend-mode:multiply;" ><path d="M78.29 358.6 l0 14.4 l109.21 0 l0 -14.4 l-109.21 0 z " style="fill:#ffffff;fill-opacity:0.00;"/><path d="M78.55 366.68 l30.22 0 " style="stroke:#176fc0;stroke-width:0.47;"/><text class="f833" font-size="9.50" style="fill:#176fc0"><tspan x="78.55" y="365.73" textLength="30.12" dx="0,0.08,0.08,0.08,0.08,0.08">Cochin</tspan></text></g>
<g style="blend-mode:multiply;" ><path d="M207.28 358.6 l0 17.9 l152.21 0 l0 -17.9 l-152.21 0 z " style="fill:#ffffff;fill-opacity:0.00;"/><path d="M207.28 366.68 l81.78 0 " style="stroke:#176fc0;stroke-width:0.47;"/><text class="f833" font-size="9.50" style="fill:#176fc0"><tspan x="207.28" y="365.73" textLength="81.66" dx="0,0.08,0.08,0.08,0.08,0.08,0.34,0.08,0.08,0.08,0.34,0.08,0.08,0.08,0.08">Times &#59911;ew Roman</tspan></text></g><path d="M70.78 272.61 l288.75 0 " style="stroke:#0994dc;stroke-width:0.50;"/><path d="M70.78 346.6 l288.75 0 " style="stroke:#0994dc;stroke-width:0.50;"/><path d="M70.78 304.14 l118.21 0 " style="stroke:#0994dc;stroke-width:0.50;stroke-dasharray:2.0039693388,2.0039693388;"/>
<g style="blend-mode:multiply;" ><path d="M78.29 395.5 l0 25.25 l291.21 0 l0 -25.25 l-291.21 0 z " style="fill:#ffffff;fill-opacity:0.00;"/><text class="f833" font-size="9.50" style="fill:#231f20"><tspan x="78.65" y="403.07" textLength="99.82" class="f835" dx="0,0.09,0.09,0.09,0.09,0.09,0.09,0.09,0.09,0.52,0.09,0.09,0.09,0.09,0.09,0.09,0.09,0.09,0.09,0.09,0.52">x-height variations  </tspan>
<tspan x="178.97" y="403.07" textLength="187.75" dx="0,0.08,0.08,0.08,0.08,0.08,0.08,0.08,0.08,0.08,-0.79,-0.28,0.34,0.08,0.08,0.08,0.34,0.08,0.08,0.08,0.08,0.34,0.08,0.08,0.08,0.08,0.08,0.08,0.08,0.08,0.08,0.34,0.08,0.08,0.08,0.08,0.08,0.34,0.08,0.08,0.08,0.34,0.08,0.08,0.08">Incredibly, all four typefaces below are the </tspan>
<tspan x="78.72" y="416.07" textLength="277.42" dx="0,0.08,0.08,0.08,0.08,0.34,0.08,0.08,0.08,0.08,-0.28,0.34,0.08,0.08,0.08,0.34,0.08,0.08,0.08,0.08,0.08,-0.28,-0.28,0.34,-0.16,0.08,0.08,0.34,0.08,0.08,0.08,0.08,-0.28,0.34,0.08,0.08,0.08,0.08,0.08,0.34,0.08,0.08,0.08,0.34,0.08,0.08,0.08,0.08,0.08,0.08,0.08,0.34,0.08,0.08,0.34,0.08,0.08,0.08,0.08,0.34,0.08,0.08,0.08">same size: 112 points. For text, avoid the extreme on each end.</tspan></text></g><path d="M274 296.26 l85.53 0 " style="stroke:#0994dc;stroke-width:0.50;stroke-dasharray:1.9889695683,1.9889695683;"/><text class="f932" font-size="147.91" style="fill:#96906a"><tspan x="451.59" y="382.76" textLength="96.64" class="f1011" font-size="158.17">P</tspan>
<tspan x="554.30" y="382.76" textLength="93.67" font-size="168.43">P</tspan>
<tspan x="653.44" y="382.76" textLength="73.22" class="f1048">P</tspan></text><path d="M659.74 283.63 l69.5 0 " style="stroke:#0994dc;stroke-width:0.50;"/><path d="M659.74 271.25 l69.5 0 " style="stroke:#0994dc;stroke-width:0.50;"/><path d="M724.74 332 l0 -64.75 " style="stroke:#0994dc;stroke-width:0.50;"/><path d="M712.36 332 l0 -64.75 " style="stroke:#0994dc;stroke-width:0.50;"/><path d="M641.74 332 l0 -64.75 " style="stroke:#0994dc;stroke-width:0.50;"/><path d="M623.41 332 l0 -64.75 " style="stroke:#0994dc;stroke-width:0.50;"/><path d="M554.49 271.25 l91.83 0 " style="stroke:#0994dc;stroke-width:0.50;"/><path d="M554.49 279.09 l91.83 0 " style="stroke:#0994dc;stroke-width:0.50;"/><path d="M540.99 332 l0 -64.75 " style="stroke:#0994dc;stroke-width:0.50;"/><path d="M524.24 332 l0 -64.75 " style="stroke:#0994dc;stroke-width:0.50;"/><path d="M453.74 271.25 l91.83 0 " style="stroke:#0994dc;stroke-width:0.50;"/><path d="M453.74 273.75 l91.83 0 " style="stroke:#0994dc;stroke-width:0.50;"/>
<g style="blend-mode:multiply;" ><path d="M78.29 250.5 l0 11.5 l115.71 0 l0 -11.5 l-115.71 0 z " style="fill:#ffffff;fill-opacity:0.00;"/><text class="f835" font-size="9.50" style="fill:#231f20"><tspan x="78.81" y="258.07" textLength="90.34" dx="0,0.09,0.09,0.09,0.09,0.09,0.09,0.52,0.09,0.09,0.09,0.09,0.09,0.09,0.09,0.09">Medium x-heights</tspan></text></g>
<g style="blend-mode:multiply;" ><path d="M453.25 395.5 l0 37 l81 0 l0 -37 l-81 0 z " style="fill:#ffffff;fill-opacity:0.00;"/><path d="M453.75 417.02 l58.66 0 " style="stroke:#176fc0;stroke-width:0.47;"/><text class="f833" font-size="9.50" style="fill:#231f20"><tspan x="453.42" y="403.07" textLength="67.34" class="f835" dx="0,-0.44,0.09,0.09,0.52,0.09,0.09,0.09,0.09,0.09,0.09,0.09,0.09,0.07">Too different </tspan>
<tspan x="453.75" y="416.07" textLength="58.55" style="fill:#176fc0" dx="0,0.08,0.08,0.08,0.08,0.08,0.34,0.08,0.08,0.08,0.08,0.08">Bauer Bodoni</tspan></text></g>
</svg>
