
<?xml-stylesheet href="css/stylesheet.css" type="text/css"?>
<svg class="crocodoc-zYVf6P crocodoc-page-svg" version="1.1"
    xmlns="http://www.w3.org/2000/svg"
    xmlns:xlink="http://www.w3.org/1999/xlink"
    xml:space="preserve" width="792pt" height="612pt" viewBox="0 0 792 612">
<defs>
<mask id="Mask_83_10_zYVf6P">
<g ><image x="543.47" y="313.40" width="177.12" height="226.08" preserveAspectRatio="none" xlink:href="images/572.jpeg" /></g></mask>
<mask id="Mask_106_10_zYVf6P">
<g ><image x="136.92" y="313.40" width="226.08" height="177.12" preserveAspectRatio="none" xlink:href="images/579.jpeg" /></g></mask>
</defs>
<path d="M141 100 l0 -64 " style="stroke:#ffffff;stroke-width:1.00;"/><path d="M271 36 l0 64 " style="stroke:#ffffff;stroke-width:1.10;"/><path d="M20 36 c0 0 -8 0 -8 8 l0 26 c0 0 0 8 8 8 l113.5 0 c0 0 8 0 8 -8 l0 -26 c0 0 0 -8 -8 -8 l-113.5 0 z " style="fill:#231f20;"/><path d="M140.5 36 c0 0 -8 0 -8 8 l0 26 c0 0 0 8 8 8 l631.5 0 c0 0 8 0 8 -8 l0 -26 c0 0 0 -8 -8 -8 l-631.5 0 z " style="fill:#9c9a9b;"/><path d="M106.33 68 l34.17 0 l0 -32 l-34.17 0 l0 32 z " style="fill:#231f20;"/><text class="f1484" font-size="12.50" style="fill:#f4f4f4"><tspan x="48.42" y="61.13" textLength="41.49" dx="0,-0.31,-0.31,-0.31,-0.31,-0.31">Before</tspan>
<tspan x="89.59" y="61.13" textLength="9.95" style="fill:#a665b9">&amp;</tspan>
<tspan x="99.22" y="61.13" textLength="9.49" style="fill:#ef2c3c">A</tspan>
<tspan x="108.39" y="61.13" textLength="5.09" style="fill:#f36717">f</tspan>
<tspan x="113.17" y="61.13" textLength="5.55" style="fill:#fcd205">t</tspan>
<tspan x="118.41" y="61.13" textLength="7.88" style="fill:#179f50">e</tspan>
<tspan x="125.97" y="61.13" textLength="9.25" style="fill:#44aae4">r </tspan>
<tspan x="131.64" y="61.62" textLength="3.6" class="f1491" font-size="4.50">&#174;</tspan></text><path d="M141.5 69 l0 -33 " style="stroke:#ffffff;stroke-width:1.00;"/><text class="f1468" font-size="14.85" style="fill:#918f8f" transform="matrix(1,0,0,0.7407,0,0)"><tspan x="582.77" y="803.51" textLength="14.85">&#59904;</tspan></text><text class="f1489" font-size="12.00" style="fill:#231f20"><tspan x="599.10" y="595.19" textLength="9.68" class="f1468" font-size="11.00" dx="0,3.52,-2.75">&#59905; &#59905;</tspan>
<tspan x="608.18" y="596.19" textLength="36.32" dx="0,-0.14,0,0,0,3.3,-1.2">Back   </tspan>
<tspan x="643.30" y="596.19" textLength="7.21" class="f1490" font-size="16.70" dx="0,-0.84">| </tspan>
<tspan x="647.43" y="596.19" textLength="7.2" dx="0,-1.2,-1.2,-1.2">    </tspan>
<tspan x="653.43" y="596.19" textLength="102.72" class="f1492" style="fill:#918f8f" dx="0,-0.29,0,0,0,-0.36,0,0,0,-0.07,0,0,0,0,0,0,0,0">Paper-saver format</tspan>
<tspan x="756.15" y="596.19" textLength="10.2" dx="0,3.3,-1.2">   </tspan></text><text class="f1468" font-size="14.85" style="fill:#918f8f" transform="matrix(1,0,0,0.7407,0,0)"><tspan x="765.15" y="803.51" textLength="14.85">&#57513;</tspan></text><text class="f1477" font-size="18.00" style="fill:#ffffff"><tspan x="720.67" y="59.99" textLength="17.5">X</tspan></text><path d="M689.89 45.91 l0 15.99 " style="stroke:#ffffff;stroke-width:0.83;stroke-linecap:round;"/><path d="M716.22 45.91 l0 15.99 " style="stroke:#ffffff;stroke-width:0.83;stroke-linecap:round;"/><path d="M742.97 45.91 l0 15.99 " style="stroke:#ffffff;stroke-width:0.83;stroke-linecap:round;"/><path d="M769.71 45.91 l0 15.99 " style="stroke:#ffffff;stroke-width:0.83;stroke-linecap:round;"/><path d="M664.06 45.91 l0 15.99 " style="stroke:#ffffff;stroke-width:0.83;stroke-linecap:round;"/><text class="f1488" font-size="7.94" style="fill:#ffffff"><tspan x="672.74" y="59.47" textLength="5.89" font-size="18.00">i</tspan>
<tspan x="585.75" y="56.94" textLength="69.59" class="f1484" dx="0,-0.08,-0.08,-0.08,-0.08,-0.08,-0.08,-0.08,-0.08,-0.08,-0.48,-0.08,-0.08,-0.08">BAmagazine.com</tspan>
<tspan x="693.26" y="60.47" textLength="19.32" class="f1477" font-size="20.00">U</tspan></text><path d="M752.84 47.33 l0 5.36 l0 2.56 l6.27 0 l3.86 0 l0 -7.92 l-10.13 0 z " style="stroke:#ffffff;stroke-width:0.48;"/><path d="M752.88 48.84 l10.08 0 l0 -1.42 l-10.08 0 l0 1.42 z " style="fill:#ffffff;"/><path d="M749.25 53.59 l10.03 0 l0 -1.42 l-10.03 0 l0 1.42 z " style="fill:#ffffff;"/><path d="M749.2 60 l10.13 0 l0 -7.92 l-10.13 0 l0 7.92 z " style="fill:#9c9a9b;"/><path d="M749.2 60 l10.13 0 l0 -7.92 l-10.13 0 l0 7.92 z " style="stroke:#ffffff;stroke-width:0.48;"/><path d="M12 82.75 l768 0 l0 -14.75 l-768 0 l0 14.75 z " style="fill:#ffffff;"/><path d="M12 579 l768 0 l0 -510 l-768 0 l0 510 z " style="fill:#e1dbc9;"/>
<g mask="url(#Mask_83_10_zYVf6P)" ><path d="M544.91 314.84 l173.52 0 l0 222.84 l-173.52 0 l0 -222.84 z " style="fill:#231f20;fill-opacity:0.60;blend-mode:multiply;"/></g><image x="548.25" y="316.18" width="166.86" height="216.00" preserveAspectRatio="none" xlink:href="images/544.jpeg" /><path d="M548.6 302.41 l27.7 0 " style="stroke:#264a95;stroke-width:0.65;"/><text class="f1484" font-size="13.00" style="fill:#231f20"><tspan x="548.70" y="282.61" textLength="162.96" dx="0,0,0,0,0,0,0,0,0,-0.48,0,0,0,0,0,0,0,0,0,0,0,0,0,0">For paper-saver format  </tspan>
<tspan x="548.60" y="301.11" textLength="161.63" class="f1491" style="fill:#264a95" dx="0,0,0,0,0,0,-0.48,0,0,0,0,0,0,0,0,0,0,0,0,0,0,0,0,0,0,0,0,0">Print: (Specify pages 11&#8211;14)</tspan></text>
<g mask="url(#Mask_106_10_zYVf6P)" ><path d="M138.36 314.84 l222.84 0 l0 173.52 l-222.84 0 l0 -173.52 z " style="fill:#231f20;fill-opacity:0.60;blend-mode:multiply;"/></g><image x="141.70" y="316.18" width="216.00" height="166.80" preserveAspectRatio="none" xlink:href="images/545.jpeg" /><path d="M141.85 302.41 l27.7 0 " style="stroke:#264a95;stroke-width:0.65;"/><text class="f1484" font-size="13.00" style="fill:#231f20"><tspan x="141.95" y="282.61" textLength="170.91">For presentation format  </tspan>
<tspan x="141.85" y="301.11" textLength="147.17" class="f1491" style="fill:#264a95" dx="0,0,0,0,0,0,-0.48,0,0,0,0,0,0,0,0,0,0,0,0,0,0,0,0,0,0,0">Print: (Specify pages 1&#8211;8)</tspan></text><path d="M321.79 211.43 l51.54 0 " style="stroke:#264a95;stroke-width:0.60;"/><text class="f1489" font-size="12.00" style="fill:#231f20"><tspan x="142.01" y="173.23" textLength="251.99" class="f1484" dx="0,0,0,0,0,0,0,0,0,-0.44,0,0,0,0,0,0,0,0,0,0,0,0,0,0,0,0,0,0,0,0,0,0,0,0,0,0,0,0,0,0">Before &amp; After is made to &#64257;t your binder</tspan>
<tspan x="141.54" y="191.74" textLength="486.38" dx="0,-0.07,0,0,0,-0.24,0,0,0,0,0,0,0,0,0,0,0,0.1,0,0,0,0,0,0,0,0,-0.24,0,0,0,0,0,0,0,0,0,0,0,0,0,0,0,0,0,0.1,0,0,0,0,0,0,0,-0.24,0,0,0,-0.24,0,0,0,-0.24,0,0,0,0,0,0,0,-0.24,0,0,0,0,0,0,0,0,0,0,0,0,0,0,0,0,0,0,-0.24,0,0,0,0">Before &amp; After articles are intended for permanent reference. All are titled and numbered.  </tspan>
<tspan x="141.54" y="210.24" textLength="180.24" dx="0,-0.43,0,0,0,0,0,0,0,0,0,0,-0.24,0,0,0,0,0,0,0,0,0,0,0,0,0,0,0,0,0,0,0,0,-0.12,0">For the current table of contents, </tspan>
<tspan x="321.78" y="210.24" textLength="51.78" style="fill:#264a95" dx="0,0,0,0,0,0,0,0,0,-0.24">click here</tspan>
<tspan x="373.33" y="210.24" textLength="327.62" dx="0,0,-0.43,-1.2,0,0,0,0,-0.06,0,0,0,0,0,0,0,0,0,0,0,0,0,0,0,-0.72,0,0,0,0,0,0,0,0,-0.24,0,0,0,-0.06,0,0,0,0,0,0.1,0,0,0,0,0,0,0,0,0,0,0,0,0,0.1,0,0,0,0,-0.24,0">. To save time and paper, a paper-saver format of this article, </tspan>
<tspan x="141.97" y="228.74" textLength="400.39" dx="0,0,0,0,0,0,0,0,0,0,0,0,0,0,0,0,0,0,0,0,0,0,0,0,0,0,0,0,0,0,0,0,0,0.08,0,0,0,0,0,0,0,0,0,0,0,0,-0.07,-0.36,0,0,0,0,0,0,0,0,0,0,0,0,0,0,0,0,0,-0.36,0,0,0,0,0,0,0,0,0,-0.24">suitable for one- or two-sided printing, is provided on the following pages.</tspan></text><text class="f1491" font-size="9.50" style="fill:#231f20"><tspan x="439.93" y="383.03" textLength="28.07" class="f1484" dx="0,0.33,0.33,0.33,0.33,0">Print </tspan>
<tspan x="409.18" y="396.02" textLength="92.81" dx="0,0.09,0.32,0.32,0.32,0.32,0.32,-0.03,0.32,0.32,0.32,0.32,0.32,0.32,0.32,0.32,0.32,0,0.63">Format: Landscape  </tspan>
<tspan x="403.29" y="409.02" textLength="98.69" dx="0,0.15,0.32,0.32,0.32,0.32,0.32,0.32,0.32,0.32,-0.03,0.32,0.32,0.32,0.32,0.32,0.32,0.32,0.32,0.15,0.32,0.32">Page Size: Fit to Page</tspan></text><image x="417.60" y="311.40" width="77.88" height="58.08" preserveAspectRatio="none" xlink:href="images/548.png" /><text class="f1491" font-size="9.50" style="fill:#231f20"><tspan x="440.28" y="504.19" textLength="24.58" class="f1484" dx="0,0.33,0.33,0.33">Save</tspan>
<tspan x="400.72" y="517.69" textLength="110.51" dx="0,0.32,0.32,0.32,0.32,0.32,0.32,0.32,0.32,0.32,0.32,0.32,0.32,0.32,0.32,0.32,0.32,0.32,0.32,0.32,0.32,0.32,0,0.63">Presentation format or  </tspan>
<tspan x="408.98" y="531.19" textLength="87.46" dx="0,0.15,0.32,0.32,0.32,-0.39,0.32,0.32,0.32,0.32,0.32,0.32,0.32,0.32,0.32,0.32,0.32,0.32">Paper-saver format</tspan></text><image x="455.94" y="423.90" width="66.53" height="73.92" preserveAspectRatio="none" xlink:href="images/551.png" /><image x="382.79" y="436.22" width="69.70" height="48.58" preserveAspectRatio="none" xlink:href="images/554.png" />
</svg>
