
<?xml-stylesheet href="css/stylesheet.css" type="text/css"?>
<svg class="crocodoc-zYVf6P crocodoc-page-svg" version="1.1"
    xmlns="http://www.w3.org/2000/svg"
    xmlns:xlink="http://www.w3.org/1999/xlink"
    xml:space="preserve" width="792pt" height="612pt" viewBox="0 0 792 612">
<defs>
<mask id="Mask_107_5_zYVf6P">
<g ><image x="133.74" y="37.36" width="58.32" height="51.36" preserveAspectRatio="none" xlink:href="images/959.jpeg" /></g></mask>
<clipPath id="Clip_119_5_zYVf6P"><path d="M133.2 42.44 l4.63 44.09 l54.03 -5.68 l-4.63 -44.09 l-54.03 5.68 z " /></clipPath>
<clipPath id="Clip_120_5_zYVf6P"><path d="M138 44.36 l-0.41 0.54 c0 0 0.01 0.23 0.07 0.79 c0.25 4.52 1.79 20.74 2.38 24.51 c0.4 3.09 0.88 7.67 0.88 7.67 l0.91 5.96 l0.9 -0.24 l1.84 -0.76 c0 0 0.36 0.03 0.78 -0.01 c0.42 -0.04 1.35 0 1.35 0 l0.63 -0.07 l0.42 -0.04 l0.84 -0.16 c0 0 6.13 -1.29 8.75 -2.13 c2.62 -0.84 5.75 -2.17 6.51 -3.11 c0.76 -0.93 0.71 -1.36 0.71 -1.36 c0 0 1.79 2.8 9.15 3.03 c7.36 0.22 8.07 0.22 8.07 0.22 c0 0 2.25 -0.24 3.02 -0.39 c0.77 -0.15 1.61 -0.24 1.61 -0.24 l1.97 0.43 c0 0 -1.4 -17.5 -1.69 -20.25 c-0.29 -2.75 -2.21 -19.32 -2.21 -19.32 c0 0 -0.87 0.05 -2.72 0.6 c-1.93 0.63 -5.22 1.48 -5.22 1.48 c0 0 -7.32 1.36 -8.78 1.72 c-1.46 0.37 -4.15 1.08 -5.81 2.44 c-0.5 -0.02 -0.6 0.07 -0.6 0.07 c0 0 -3.14 -1.03 -5.49 -1.07 c-2.35 -0.04 -8.53 0.11 -8.53 0.11 l-9.34 -0.44 z " /></clipPath>
<clipPath id="Clip_121_5_zYVf6P"><path d="M133.2 42.44 l4.63 44.09 l54.02 -5.68 l-4.63 -44.09 l-54.02 5.68 z " /></clipPath>
<clipPath id="Clip_121_5_zYVf6P_2"><path d="M137.59 83.83 l50.8 0 l0 -44.4 l-50.8 0 l0 44.4 " /></clipPath>
</defs>
<path d="M20 36 c0 0 -8 0 -8 8 c0 0 0 26 0 26 c0 0 0 8 8 8 c0 0 124.25 0 124.25 0 c0 0 8 0 8 -8 c0 0 0 -26 0 -26 c0 0 0 -8 -8 -8 c0 0 -124.25 0 -124.25 0 z " style="fill:#231f20;"/><path d="M325.75 36 c0 0 -8 0 -8 8 c0 0 0 26 0 26 c0 0 0 8 8 8 c0 0 446.25 0 446.25 0 c0 0 8 0 8 -8 c0 0 0 -26 0 -26 c0 0 0 -8 -8 -8 c0 0 -446.25 0 -446.25 0 z " style="fill:#9c9a9b;"/><text class="f835" font-size="12.50" style="fill:#f4f4f4"><tspan x="48.81" y="61.13" textLength="41.49" dx="0,-0.31,-0.31,-0.31,-0.31,-0.31">Before</tspan>
<tspan x="89.97" y="61.13" textLength="9.95" style="fill:#a665b9">&amp;</tspan>
<tspan x="99.61" y="61.13" textLength="9.49" style="fill:#ef2c3c">A</tspan>
<tspan x="108.78" y="61.13" textLength="5.09" style="fill:#f36717">f</tspan>
<tspan x="113.56" y="61.13" textLength="5.55" style="fill:#fcd205">t</tspan>
<tspan x="118.80" y="61.13" textLength="7.88" style="fill:#179f50">e</tspan>
<tspan x="126.36" y="61.13" textLength="7.72" style="fill:#44aae4" dx="0,-0.95">r </tspan></text><path d="M141.5 69 l0 -33 " style="stroke:#ffffff;stroke-width:1.00;"/><text class="f851" font-size="4.00" style="fill:#f4f4f4"><tspan x="131.72" y="61.47" textLength="3.2">&#174;</tspan></text><path d="M141.75 36 l0 42 l210.75 0 l0 -42 l-210.75 0 z " style="fill:#9a97b6;"/><text class="f885" font-size="12.00" style="fill:#231f20"><tspan x="192.87" y="61.22" textLength="117.49" dx="0,-0.14,0,0,0,0,0,0,0,0,0,0,0,0,0,0,0,0,0,0,0,0,0,0,0,0">Selecting text type       </tspan>
<tspan x="310.36" y="61.22" textLength="7.2" class="f899" style="fill:#ffffff">5</tspan>
<tspan x="317.56" y="61.22" textLength="2.7"> </tspan>
<tspan x="320.26" y="61.22" textLength="10.22" class="f914">of</tspan>
<tspan x="330.49" y="61.22" textLength="10.62" dx="0,1.56"> 8</tspan></text><path d="M301.68 45.91 l0 15.99 " style="stroke:#ffffff;stroke-width:0.83;stroke-linecap:round;"/><path d="M352.65 36 l0 32 " style="stroke:#ffffff;stroke-width:1.10;"/><text class="f1477" font-size="18.00" style="fill:#ffffff"><tspan x="720.66" y="59.99" textLength="17.5">X</tspan></text><path d="M689.87 45.91 l0 15.99 " style="stroke:#ffffff;stroke-width:0.83;stroke-linecap:round;"/><path d="M716.2 45.91 l0 15.99 " style="stroke:#ffffff;stroke-width:0.83;stroke-linecap:round;"/><path d="M742.95 45.91 l0 15.99 " style="stroke:#ffffff;stroke-width:0.83;stroke-linecap:round;"/><path d="M769.69 45.91 l0 15.99 " style="stroke:#ffffff;stroke-width:0.83;stroke-linecap:round;"/><path d="M664.04 45.91 l0 15.99 " style="stroke:#ffffff;stroke-width:0.83;stroke-linecap:round;"/><text class="f1477" font-size="20.00" style="fill:#ffffff"><tspan x="672.73" y="59.48" textLength="5.89" class="f897" font-size="18.00">i</tspan>
<tspan x="585.74" y="56.95" textLength="69.59" class="f835" font-size="7.94" dx="0,-0.08,-0.08,-0.08,-0.08,-0.08,-0.08,-0.08,-0.08,-0.08,-0.48,-0.08,-0.08,-0.08">BAmagazine.com</tspan>
<tspan x="693.24" y="60.47" textLength="19.32">U</tspan></text><path d="M752.82 47.34 l0 5.36 l0 2.56 l6.27 0 l3.86 0 l0 -7.92 l-10.13 0 z " style="stroke:#ffffff;stroke-width:0.47;"/><path d="M752.87 47.42 l0 1.42 l10.08 0 l0 -1.42 l-10.08 0 z " style="fill:#ffffff;"/><path d="M749.24 52.17 l0 1.42 l10.03 0 l0 -1.42 l-10.03 0 z " style="fill:#ffffff;"/><path d="M749.18 52.09 l0 7.92 l10.13 0 l0 -7.92 l-10.13 0 z " style="fill:#9c9a9b;"/><path d="M749.18 52.09 l0 7.92 l10.13 0 l0 -7.92 l-10.13 0 z " style="stroke:#ffffff;stroke-width:0.47;"/><text class="f1468" font-size="14.85" style="fill:#918f8f" transform="matrix(1,0,0,0.7407,0,0)"><tspan x="539.66" y="803.57" textLength="14.85">&#59904;</tspan></text><text class="f885" font-size="12.00" style="fill:#231f20"><tspan x="555.99" y="595.24" textLength="9.68" class="f1468" font-size="11.00" dx="0,0,0.77">&#59905; &#59905;</tspan>
<tspan x="565.07" y="596.24" textLength="7.2" class="f899">5</tspan>
<tspan x="572.27" y="596.24" textLength="2.7"> </tspan>
<tspan x="575.99" y="596.24" textLength="10.22" class="f914" style="fill:#918f8f">of</tspan>
<tspan x="585.61" y="596.24" textLength="21.06" dx="0,1.8,0,3.3,-1.2"> 8   </tspan></text><text class="f1468" font-size="14.85" style="fill:#918f8f" transform="matrix(1,0,0,0.7407,0,0)"><tspan x="605.47" y="803.57" textLength="14.85">&#57513;</tspan></text><path d="M635.33 584.88 c0 0 0 8.22 0 8.22 c0 0 0 6.9 6.9 6.9 c0 0 130.86 0 130.86 0 c0 0 6.9 0 6.9 -6.9 c0 0 0 -8.22 0 -8.22 " style="fill:#7c7ea4;"/><text class="f835" font-size="9.50" style="fill:#ffffff"><tspan x="643.61" y="595.57" textLength="130.08" dx="0,0,0,0,0,0,0,0,0,0,0,0,0,0,0,0,0,0,0,0,0,8.07,0,0,0">Selecting text type  0269</tspan></text><path d="M8.25 68.01 l0 14.75 l774.74 0 l0 -14.75 l-774.74 0 z " style="fill:#ffffff;"/>
<g mask="url(#Mask_107_5_zYVf6P)" ><path d="M133.74 37.36 l58.32 0 l0 51.36 l-58.32 0 l0 -51.36 " style="fill:#231f20;fill-opacity:0.45;blend-mode:multiply;"/></g>
<g clip-path="url(#Clip_119_5_zYVf6P)" >
<g clip-path="url(#Clip_120_5_zYVf6P)" >
<g clip-path="url(#Clip_121_5_zYVf6P)" ><g clip-path="url(#Clip_121_5_zYVf6P_2)" ><image x="0.00" y="0.00" width="114.00" height="93.00" transform="matrix(0.4739,-0.0498,0.0498,0.4741,133.1997,42.4376)" xlink:href="images/967.jpeg" /></g></g></g></g><path d="M564.99 360.25 c17.4 0 31.5 -14.1 31.5 -31.5 c0 -17.4 -14.1 -31.5 -31.5 -31.5 c-17.4 0 -31.5 14.1 -31.5 31.5 c0 17.4 14.1 31.5 31.5 31.5 z " style="fill:#e6ecb3;"/><path d="M650.99 360.25 c17.4 0 31.5 -14.1 31.5 -31.5 c0 -17.4 -14.1 -31.5 -31.5 -31.5 c-17.4 0 -31.5 14.1 -31.5 31.5 c0 17.4 14.1 31.5 31.5 31.5 z " style="fill:#e6ecb3;"/><path d="M472.64 360.25 c17.4 0 31.5 -14.1 31.5 -31.5 c0 -17.4 -14.1 -31.5 -31.5 -31.5 c-17.4 0 -31.5 14.1 -31.5 31.5 c0 17.4 14.1 31.5 31.5 31.5 z " style="fill:#e6ecb3;"/><text class="f1057" font-size="130.47" style="fill:#616e4e"><tspan x="429.64" y="364.12" textLength="266.68" dx="0,0.39,0.39">abg</tspan></text><text class="f885" font-size="12.00" style="fill:#231f20"><tspan x="76.75" y="121.37" textLength="135.97" class="f835" font-size="11.00" dx="0,0,-0.41,0.1,-0.27,0,0,0,0,0,0,0,0,0,0,0,0,0,0,0,0,0,0,0">5. Watch out for mirrors</tspan>
<tspan x="212.72" y="121.37" textLength="3.25" class="f835" font-size="13.00"> </tspan>
<tspan x="76.75" y="137.37" textLength="251.65" dx="0,0.06,0,0,0,0,0,0.1,0,0,0,0,0,0,0,0,0,0,0,0,0,0,0,-0.24,0,0,0,0,0,0,0,0,0,0,0.1,0,0,0,0,0,0,0,0,0,0,0,0">Geometric typestyles are so uniform that their </tspan>
<tspan x="76.75" y="153.36" textLength="271.93" dx="0,0,0,0,0,0,0,0,0,0,-0.24,0,0,0,0,0,0,0,0,0,0,0,-0.07,0,0,0,0,0,0,0,0,-0.24,0,0,-0.43,0,0,0,0,0,0,0,0,0,0,0,0,0,0,0,0,0,0,0,0">letters are often mirror images. For text, this is not </tspan>
<tspan x="76.75" y="169.36" textLength="259.51" dx="0,0,0,0,0,0,0,0,0,0,0,0,0,-0.24,0,0,0,0,0,0,0,0,0,0,0,0,0,0,0,0,0,0,0,0,0,0,0,0,-0.12,0,0,0,0,0,0,0,0,-0.24,0">ideal&#8212;the more distinct each letter is, the more </tspan>
<tspan x="76.75" y="185.36" textLength="255.35" dx="0,0,0,0,0,0,0,0,0,0,0,0,0,0,0,0,0,-0.24,0,0,0,0,0,0,0,0,0,-0.24,0,0,0,0,0,0,0,0,0,0,0,0,0,0,0,0,0,0,0,0,0">legible whole words will be. Look for typestyles </tspan>
<tspan x="76.75" y="201.35" textLength="92.23" dx="0,0,0,0,0,0,0,0,-0.96,-0.9,0,0,0,0,0,-0.07,0,-0.72">that don&#8217;t mirror.</tspan></text><path d="M395.73 111.01 l0 467.99 " style="stroke:#7b7979;stroke-width:0.50;stroke-linecap:round;"/><text class="f1087" font-size="135.00" style="fill:#57222b" transform="matrix(1,0,0,-1,0,0)"><tspan x="283.20" y="-295.13" textLength="80.05">b</tspan></text><text class="f1087" font-size="135.00" style="fill:#57222b" transform="matrix(-1,0,0,-1,0,0)"><tspan x="-288.93" y="-295.13" textLength="80.05">b</tspan></text><text class="f1087" font-size="135.00" style="fill:#57222b"><tspan x="125.93" y="364.65" textLength="80.05">b</tspan></text><text class="f1087" font-size="135.00" style="fill:#57222b" transform="matrix(-1,0,0,1,0,0)"><tspan x="-131.66" y="364.65" textLength="80.05">b</tspan></text><path d="M98.5 330.81 l55.27 0 " style="stroke:#231f20;stroke-width:0.50;stroke-dasharray:2.0469686809,2.0469686809;"/><path d="M158.5 330.81 l-6.32 -2.3 l1.59 2.3 l-1.59 2.3 l6.32 -2.3 " style="fill:#231f20;"/><path d="M258.24 332.31 l53.02 0 " style="stroke:#231f20;stroke-width:0.50;stroke-dasharray:1.9639699508,1.9639699508;"/><path d="M315.99 332.31 l-6.32 -2.3 l1.59 2.3 l-1.59 2.3 l6.32 -2.3 " style="fill:#231f20;"/><text class="f885" font-size="12.00" style="fill:#231f20"><tspan x="444.24" y="121.37" textLength="156.05" class="f835" font-size="11.00" dx="0,0,-0.41,0.1,-0.6,0,0,0,0,0,0,0,0,0,0,0,0,0,0,0,0,0,0,0,0,0,0">6. Avoid overlarge counters</tspan>
<tspan x="600.30" y="121.37" textLength="3.25" class="f835" font-size="13.00"> </tspan>
<tspan x="444.24" y="137.37" textLength="257.55" dx="0,-0.14,0,0,0,0,0,0,0,0,0,-0.24,0,0,0,0,0,0,0,0,0,0,0,0,0,0,0,0,0,0,0,0,0,0,0,0,0,0,0,0,0,0,0,0,0,0,0,-0.24,0">Counters are the enclosed spaces inside letters. </tspan>
<tspan x="444.24" y="153.36" textLength="266.05" dx="0,-0.72,-0.06,0,0,0,0,0,0,0,0,0,0,0,0,0,0,0,0,0,0,0,0,0,0,0,0,0,0,0,0,0,0,0,-0.24,0,0,-0.06,0,0.22,0,0,0,0,-0.07,0,0,0,0,0">Avoid typestyles whose counters are very large in </tspan>
<tspan x="444.24" y="169.36" textLength="264.86" dx="0,-0.24,0,0,0,0,0,0,0,0,0,0,0,0,0,0,0,0,0,-0.07,0,0,0,0,-0.07,0,0,0,0,0,0,0,-0.22,0,0,0,0,0,0,0,0,0,0,0,0,0,0,-0.72,-0.07,0,0,0">relation to the stroke weight. In the case of Avant </tspan>
<tspan x="444.24" y="185.36" textLength="264.23" dx="0,-0.14,0,-0.24,0,0,0,0,0,0,0,-0.36,0,0,0,0,0,0,0,0,0,0,-0.36,0,0,0,0,0,0,0,0,-0.24,0,0,0,0,0,0,0,0,0,0,0,0,0,0,0">Garde (below), note how much greater the space </tspan>
<tspan x="444.24" y="201.35" textLength="279.47" dx="0,0,0,0,0,0,0,0,0,0,0,0,0,0,0,0,0,0,0,0,0,0,0,0,0,0,0,0,0,0,0,0,0,0,0,0,0,0,0,0,0,0,0,0,0,0,-0.43,0,0,0,0,0,0,0,0,0">inside the letters is than the space outside! This will </tspan>
<tspan x="444.24" y="217.35" textLength="266.48" dx="0,0,0,-0.36,0,0,0,0,0,0,-0.24,0,0,0,0,0.12,0,0,0,0,0,0,0,0,0,0,0,0,0,0,0,0,0,0,0,0,0,0,0,0,-0.72,-0.07,0,0,0,0,-0.14,0,-0.24,0,0">slow the reader; set in text (bottom), Avant Garde </tspan>
<tspan x="444.24" y="233.34" textLength="125.29" dx="0,0,0,0,0,0,0,0,0,0,0,0,-0.36,0,0,0,0,0,0,0,0,0,0,0">looks like Swiss cheese!</tspan></text><path d="M436.37 280.4 c-2.25 18 5.89 30 22.5 33 " style="stroke:#231f20;stroke-width:0.50;"/><path d="M463.52 314.24 l-5.81 -3.39 l1.16 2.55 l-1.98 1.98 l6.63 -1.14 " style="fill:#231f20;"/><text class="f1057" font-size="9.90" style="fill:#231f20"><tspan x="444.10" y="438.08" textLength="252.29" dx="0,-0.49,0,0,0,0,-0.04,0,0,0,0,0,0,0,0,0,0,0,0,0,0,0,0,0,0,0,0,0,0,0,0,0,0,0,0,0,0,0,0,0,0,0,0,0,0,0,0,0,0,0,0,0,0,0,0">Texture and &#64258;asp net exating end mist of it snooling.  </tspan>
<tspan x="444.69" y="450.58" textLength="275.94" dx="0,0,0,0,0.04,0,0,0,0,0,0,0,0,0,0,0,0,0,0,0,0,0,0,0,0,0,0,0,0,0,0,0,0,0,0,0,0,0,0,0,0,0,0,0,-0.04,0,0,0,0,0,0,0,0,0,0,0,0,0,0,0,0,0">Spaff forl isn&#8217;t cubular but quastic, leam restart that can&#8217;t </tspan>
<tspan x="444.83" y="463.09" textLength="253.18" dx="0,0,-0.04,0,0,0,0,0,0,0,0,0,0,0,0,0,0,0,0,0,0,0,0,0,0,0,0,0,0,0,0,0,0,0,0,0,0,0,0,0,0,0,0,0,0,0,0,0,0,0,0,0,0,0,0,0,0,0,0">prebast. It&#8217;s tope, this &#64258;uant chasible. Silk, shast, lape </tspan>
<tspan x="444.34" y="475.59" textLength="269.67" dx="0,0,0,0,0,0,0,0,0,0,0,0,0,0,0,0,0,0,0,0,0,0,0,0,0,0,0,0,0,0,0,0,0,0,0,0,0,-0.07,0,0,0,0,0,0,0,0,0,0,0,0,0,0,0,0,0,0,0">and behast the thin chack. It has larch to say fan. Why? </tspan>
<tspan x="444.70" y="488.09" textLength="270.17" dx="0,0,0,0,0,0,0,0,0,0,0,0,0,0,-0.06,0,0,0,0,0,0,0,0,0,0,0,0,0,0,0,0,0,0,0,0,0,0,0,-0.06,0,0,0,0,0,0,0,0,0,0,0,0,0,0,0,0,0">Elesara and order is fay of alm. A card whint not oogum </tspan>
<tspan x="444.34" y="500.60" textLength="271.54" dx="0,0,0,0,0,0,0,0,0,0,0,-0.04,0,0,0,0,0,0,0,0,0,0,0,0,0,0,0,0,0,0,0,0,0,0,0,0,0,0.28,0,0,0,-0.49,0,0,0,0,-0.04,0,0,0,0,0,0,0,0,0,0">or bont. Pretty simple, glead and tarm. Texture and &#64258;asp </tspan>
<tspan x="444.83" y="513.10" textLength="263.21">net exating end mist of it. Forl isn&#8217;t cubular but quastic, </tspan>
<tspan x="444.95" y="525.60" textLength="30.18">leam r</tspan>
<tspan x="475.09" y="525.58" textLength="220.99" dx="0,0,0,0,0,0,0,0,0,0,0,0,0,0,0,0,0,0,0,0,-0.04,0,0,0,0,0,0,0,0,0,0,0,0,0,0,0,0,0,0,0,0,0,0,0,0,0">estart that can&#8217;t prebast. Whint not oogum or </tspan>
<tspan x="444.83" y="538.08" textLength="259.28" dx="0,0,0,0,0,0,0,0,-0.04,0,0,0,0,0,0,0,0,0,0,0,0,0,0,0,0,0,0,0,0,0,0,0,0,0,0.28,0,0,0,-0.49,0,0,0,0,-0.04,0,0,0,0,0,0,0,0,0,0,0,0,0">bont! Pretty simple, glead and tarm. Texture &#64258;asp. Silk, </tspan>
<tspan x="444.78" y="550.59" textLength="246.56" dx="0,0,0,0,0,0,0,0,0,0,0,0,0,0,0,0,0,0,0,0,0,0,0,0,0,0,0,0,0,0,0,0,0,0,0,0,0,0,0,0,0,0,0,0,0,0,0,0,0,0,-0.07,0,0">shast, lape and behast the thin chack. &#8220;It has larch </tspan></text><path d="M77.62 525.07 c5.68 0 10.29 -4.6 10.29 -10.29 c0 -5.68 -4.6 -10.28 -10.29 -10.28 c-5.68 0 -10.29 4.6 -10.29 10.28 c0 5.68 4.6 10.29 10.29 10.29 z " style="fill:#fff200;"/><path d="M147.71 461.41 c5.68 0 10.29 -4.6 10.29 -10.29 c0 -5.68 -4.6 -10.28 -10.29 -10.28 c-5.68 0 -10.29 4.6 -10.29 10.28 c0 5.68 4.6 10.29 10.29 10.29 z " style="fill:#fff200;"/><path d="M83.9 524.95 c4 2 17.69 4.87 27.69 3.2 " style="stroke:#231f20;stroke-width:0.50;"/><path d="M79.67 522.83 l4.63 4.89 l-0.4 -2.77 l2.45 -1.35 l-6.69 -0.77 " style="fill:#231f20;"/><text class="f1084" font-size="150.00" style="fill:#b2b1b1" transform="matrix(-1,0,0,1,0,0)"><tspan x="-213.35" y="517.50" textLength="75.0">q</tspan></text><text class="f1084" font-size="150.00" style="fill:#b2b1b1"><tspan x="68.43" y="518.50" textLength="75.0">b</tspan></text><path d="M190 444.2 l-30.52 0 " style="stroke:#231f20;stroke-width:0.50;"/><path d="M154.75 444.2 l6.32 2.3 l-1.59 -2.3 l1.59 -2.3 l-6.32 2.3 " style="fill:#231f20;"/>
<g style="blend-mode:multiply;" ><path d="M76.75 382.46 l0 16.54 l180.75 0 l0 -16.54 l-180.75 0 z " style="fill:#ffffff;fill-opacity:0.00;"/><path d="M127.37 390.99 l99.27 0 " style="stroke:#176fc0;stroke-width:0.47;"/><text class="f833" font-size="9.50" style="fill:#231f20"><tspan x="77.27" y="390.04" textLength="49.59" class="f835" dx="0,0.09,0.09,0.09,0.09,0.09,0.09,0.09,0.09,0.52">Mirrored  </tspan>
<tspan x="127.37" y="390.04" textLength="99.13" style="fill:#176fc0" dx="0,0.08,0.08,0.08,0.08,0.08,0.08,0.08,0.08,0.08,0.34,0.08,0.08,0.08,0.08,0.34,0.08,0.08,0.08,0.08">&#59909;elvetica &#59911;eue Roman</tspan>
<tspan x="226.64" y="390.04" textLength="5.09" dx="0,0.34">  </tspan></text></g>
<g style="blend-mode:multiply;" ><path d="M76.75 542 l0 16.54 l180.75 0 l0 -16.54 l-180.75 0 z " style="fill:#ffffff;fill-opacity:0.00;"/><path d="M165.72 550.52 l36.99 0 " style="stroke:#176fc0;stroke-width:0.47;"/><text class="f833" font-size="9.50" style="fill:#231f20"><tspan x="77.33" y="549.57" textLength="87.89" class="f835" dx="0,0.09,0.09,0.09,0.52,0.09,0.09,0.09,0.09,0.09,0.09,0.09,0.09,0.52,0.52,0.52,0.52,0.52,0.52,0.52">Not mirrored        </tspan>
<tspan x="165.72" y="549.57" textLength="36.89" style="fill:#176fc0" dx="0,0.08,0.08,0.08,0.08,0.34,0.08,0.08,0.08">Gill Sans</tspan></text></g>
<g style="blend-mode:multiply;" ><path d="M444 382.46 l0 28.54 l282.75 0 l0 -28.54 l-282.75 0 z " style="fill:#ffffff;fill-opacity:0.00;"/><path d="M444.48 403.99 l101.03 0 " style="stroke:#176fc0;stroke-width:0.47;"/><text class="f833" font-size="9.50" style="fill:#231f20"><tspan x="444.31" y="390.04" textLength="104.52" class="f835" dx="0,0.09,0.09,0.09,0.09,0.09,0.09,0.09,0.09,0.09,0.52,0.09,0.09,0.09,0.09,0.09,0.09,0.09,0.09,0.52,0.5">&#59908;verlarge counters   </tspan>
<tspan x="444.48" y="403.04" textLength="100.88" style="fill:#176fc0" dx="0,0.08,0.08,0.08,-0.01,-0.09,0.08,0.08,0.08,0.08,0.34,0.08,0.08,0.08,0.08,0.08,0.34,0.08,0.08,0.08,0.08,0.08">ITC Avant Garde Gothic</tspan></text></g>
</svg>
