
<?xml-stylesheet href="css/stylesheet.css" type="text/css"?>
<svg class="crocodoc-zYVf6P crocodoc-page-svg" version="1.1"
    xmlns="http://www.w3.org/2000/svg"
    xmlns:xlink="http://www.w3.org/1999/xlink"
    xml:space="preserve" width="792pt" height="612pt" viewBox="0 0 792 612">
<defs>
<mask id="Mask_107_3_zYVf6P">
<g ><image x="133.74" y="37.36" width="58.32" height="51.36" preserveAspectRatio="none" xlink:href="images/959.jpeg" /></g></mask>
<clipPath id="Clip_119_3_zYVf6P"><path d="M133.2 42.44 l4.63 44.09 l54.03 -5.68 l-4.63 -44.09 l-54.03 5.68 z " /></clipPath>
<clipPath id="Clip_120_3_zYVf6P"><path d="M138 44.36 l-0.41 0.54 c0 0 0.01 0.23 0.07 0.79 c0.25 4.52 1.79 20.74 2.38 24.51 c0.4 3.09 0.88 7.67 0.88 7.67 l0.91 5.96 l0.9 -0.24 l1.84 -0.76 c0 0 0.36 0.03 0.78 -0.01 c0.42 -0.04 1.35 0 1.35 0 l0.63 -0.07 l0.42 -0.04 l0.84 -0.16 c0 0 6.13 -1.29 8.75 -2.13 c2.62 -0.84 5.75 -2.17 6.51 -3.11 c0.76 -0.93 0.71 -1.36 0.71 -1.36 c0 0 1.79 2.8 9.15 3.03 c7.36 0.22 8.07 0.22 8.07 0.22 c0 0 2.25 -0.24 3.02 -0.39 c0.77 -0.15 1.61 -0.24 1.61 -0.24 l1.97 0.43 c0 0 -1.4 -17.5 -1.69 -20.25 c-0.29 -2.75 -2.21 -19.32 -2.21 -19.32 c0 0 -0.87 0.05 -2.72 0.6 c-1.93 0.63 -5.22 1.48 -5.22 1.48 c0 0 -7.32 1.36 -8.78 1.72 c-1.46 0.37 -4.15 1.08 -5.81 2.44 c-0.5 -0.02 -0.6 0.07 -0.6 0.07 c0 0 -3.14 -1.03 -5.49 -1.07 c-2.35 -0.04 -8.53 0.11 -8.53 0.11 l-9.34 -0.44 z " /></clipPath>
<clipPath id="Clip_121_3_zYVf6P"><path d="M133.2 42.44 l4.63 44.09 l54.02 -5.68 l-4.63 -44.09 l-54.02 5.68 z " /></clipPath>
<clipPath id="Clip_121_3_zYVf6P_2"><path d="M137.59 83.83 l50.8 0 l0 -44.4 l-50.8 0 l0 44.4 " /></clipPath>
</defs>
<path d="M20 36 c0 0 -8 0 -8 8 c0 0 0 26 0 26 c0 0 0 8 8 8 c0 0 124.25 0 124.25 0 c0 0 8 0 8 -8 c0 0 0 -26 0 -26 c0 0 0 -8 -8 -8 c0 0 -124.25 0 -124.25 0 z " style="fill:#231f20;"/><path d="M325.75 36 c0 0 -8 0 -8 8 c0 0 0 26 0 26 c0 0 0 8 8 8 c0 0 446.25 0 446.25 0 c0 0 8 0 8 -8 c0 0 0 -26 0 -26 c0 0 0 -8 -8 -8 c0 0 -446.25 0 -446.25 0 z " style="fill:#9c9a9b;"/><text class="f835" font-size="12.50" style="fill:#f4f4f4"><tspan x="48.81" y="61.13" textLength="41.49" dx="0,-0.31,-0.31,-0.31,-0.31,-0.31">Before</tspan>
<tspan x="89.97" y="61.13" textLength="9.95" style="fill:#a665b9">&amp;</tspan>
<tspan x="99.61" y="61.13" textLength="9.49" style="fill:#ef2c3c">A</tspan>
<tspan x="108.78" y="61.13" textLength="5.09" style="fill:#f36717">f</tspan>
<tspan x="113.56" y="61.13" textLength="5.55" style="fill:#fcd205">t</tspan>
<tspan x="118.80" y="61.13" textLength="7.88" style="fill:#179f50">e</tspan>
<tspan x="126.36" y="61.13" textLength="7.72" style="fill:#44aae4" dx="0,-0.95">r </tspan></text><path d="M141.5 69 l0 -33 " style="stroke:#ffffff;stroke-width:1.00;"/><text class="f851" font-size="4.00" style="fill:#f4f4f4"><tspan x="131.72" y="61.47" textLength="3.2">&#174;</tspan></text><path d="M141.75 36 l0 42 l210.75 0 l0 -42 l-210.75 0 z " style="fill:#9a97b6;"/><text class="f885" font-size="12.00" style="fill:#231f20"><tspan x="192.87" y="61.22" textLength="117.49" dx="0,-0.14,0,0,0,0,0,0,0,0,0,0,0,0,0,0,0,0,0,0,0,0,0,0,0,0">Selecting text type       </tspan>
<tspan x="310.36" y="61.22" textLength="7.2" class="f899" style="fill:#ffffff">3</tspan>
<tspan x="317.56" y="61.22" textLength="2.7"> </tspan>
<tspan x="320.26" y="61.22" textLength="10.22" class="f914">of</tspan>
<tspan x="330.49" y="61.22" textLength="10.62" dx="0,1.56"> 8</tspan></text><path d="M301.68 45.91 l0 15.99 " style="stroke:#ffffff;stroke-width:0.83;stroke-linecap:round;"/><path d="M352.65 36 l0 32 " style="stroke:#ffffff;stroke-width:1.10;"/><text class="f1477" font-size="18.00" style="fill:#ffffff"><tspan x="720.66" y="59.99" textLength="17.5">X</tspan></text><path d="M689.87 45.91 l0 15.99 " style="stroke:#ffffff;stroke-width:0.83;stroke-linecap:round;"/><path d="M716.2 45.91 l0 15.99 " style="stroke:#ffffff;stroke-width:0.83;stroke-linecap:round;"/><path d="M742.95 45.91 l0 15.99 " style="stroke:#ffffff;stroke-width:0.83;stroke-linecap:round;"/><path d="M769.69 45.91 l0 15.99 " style="stroke:#ffffff;stroke-width:0.83;stroke-linecap:round;"/><path d="M664.04 45.91 l0 15.99 " style="stroke:#ffffff;stroke-width:0.83;stroke-linecap:round;"/><text class="f1477" font-size="20.00" style="fill:#ffffff"><tspan x="672.73" y="59.48" textLength="5.89" class="f897" font-size="18.00">i</tspan>
<tspan x="585.74" y="56.95" textLength="69.59" class="f835" font-size="7.94" dx="0,-0.08,-0.08,-0.08,-0.08,-0.08,-0.08,-0.08,-0.08,-0.08,-0.48,-0.08,-0.08,-0.08">BAmagazine.com</tspan>
<tspan x="693.24" y="60.47" textLength="19.32">U</tspan></text><path d="M752.82 47.34 l0 5.36 l0 2.56 l6.27 0 l3.86 0 l0 -7.92 l-10.13 0 z " style="stroke:#ffffff;stroke-width:0.47;"/><path d="M752.87 47.42 l0 1.42 l10.08 0 l0 -1.42 l-10.08 0 z " style="fill:#ffffff;"/><path d="M749.24 52.17 l0 1.42 l10.03 0 l0 -1.42 l-10.03 0 z " style="fill:#ffffff;"/><path d="M749.18 52.09 l0 7.92 l10.13 0 l0 -7.92 l-10.13 0 z " style="fill:#9c9a9b;"/><path d="M749.18 52.09 l0 7.92 l10.13 0 l0 -7.92 l-10.13 0 z " style="stroke:#ffffff;stroke-width:0.47;"/><text class="f1468" font-size="14.85" style="fill:#918f8f" transform="matrix(1,0,0,0.7407,0,0)"><tspan x="539.66" y="803.57" textLength="14.85">&#59904;</tspan></text><text class="f885" font-size="12.00" style="fill:#231f20"><tspan x="555.99" y="595.24" textLength="9.68" class="f1468" font-size="11.00" dx="0,0,0.77">&#59905; &#59905;</tspan>
<tspan x="565.07" y="596.24" textLength="7.2" class="f899">3</tspan>
<tspan x="572.27" y="596.24" textLength="2.7"> </tspan>
<tspan x="575.99" y="596.24" textLength="10.22" class="f914" style="fill:#918f8f">of</tspan>
<tspan x="585.61" y="596.24" textLength="21.06" dx="0,1.8,0,3.3,-1.2"> 8   </tspan></text><text class="f1468" font-size="14.85" style="fill:#918f8f" transform="matrix(1,0,0,0.7407,0,0)"><tspan x="605.47" y="803.57" textLength="14.85">&#57513;</tspan></text><path d="M635.33 584.88 c0 0 0 8.22 0 8.22 c0 0 0 6.9 6.9 6.9 c0 0 130.86 0 130.86 0 c0 0 6.9 0 6.9 -6.9 c0 0 0 -8.22 0 -8.22 " style="fill:#7c7ea4;"/><text class="f835" font-size="9.50" style="fill:#ffffff"><tspan x="643.61" y="595.57" textLength="130.08" dx="0,0,0,0,0,0,0,0,0,0,0,0,0,0,0,0,0,0,0,0,0,8.07,0,0,0">Selecting text type  0269</tspan></text><path d="M8.25 68.01 l0 14.75 l774.74 0 l0 -14.75 l-774.74 0 z " style="fill:#ffffff;"/>
<g mask="url(#Mask_107_3_zYVf6P)" ><path d="M133.74 37.36 l58.32 0 l0 51.36 l-58.32 0 l0 -51.36 " style="fill:#231f20;fill-opacity:0.45;blend-mode:multiply;"/></g>
<g clip-path="url(#Clip_119_3_zYVf6P)" >
<g clip-path="url(#Clip_120_3_zYVf6P)" >
<g clip-path="url(#Clip_121_3_zYVf6P)" ><g clip-path="url(#Clip_121_3_zYVf6P_2)" ><image x="0.00" y="0.00" width="114.00" height="93.00" transform="matrix(0.4739,-0.0498,0.0498,0.4741,133.1997,42.4376)" xlink:href="images/967.jpeg" /></g></g></g></g><text class="f885" font-size="12.00" style="fill:#231f20"><tspan x="76.75" y="121.37" textLength="273.4" class="f835" font-size="11.00" dx="0,0,-0.41,0,0,0,0,0,0,0,0,0,0,0,0,0,0,0,0,0,0,0,0,0,0,0,0,0,0,0,0,0,0,0,0,0,0,0,0,0,0,0,0,0,0,0,0,0">1. Pick a typeface with similar character widths</tspan>
<tspan x="350.15" y="121.37" textLength="3.25" class="f835" font-size="13.00"> </tspan>
<tspan x="76.75" y="137.37" textLength="285.3" dx="0,-0.43,0,0,0,0,0,0,0,0,0,0,0,0,0,0,0,0,0,0,0,0,0,0,-0.12,0,0,0,-0.24,0,0,0,0,0,0,0,0,0,0,0,0,-0.22,-1.32,0,0,0,0,0,-0.12,0,0.01">For the smoothest appearance, an alphabet&#8217;s charac-</tspan>
<tspan x="76.75" y="153.36" textLength="273.66" dx="0,0,0,0,0,0,0,0,0,0,0,0,0,0,0,-0.06,0,0,0,0,0,0,0,0,0,0,0,0,0,0,0,-0.24,0,0,-0.24,0,0,0,0,0,0,0,0,0,0,0,0,0,0,0,0">ters should have similar widths. Reading has a nat-</tspan>
<tspan x="76.75" y="169.36" textLength="11.94">ur</tspan>
<tspan x="88.57" y="169.36" textLength="274.4" dx="0,0,0,0,0.07,0,0,0,0,0,0,0,0,0,0,0,0,0,0,0,0,0,0,0,0,0,0,0,0,0,0,0,-0.14,0,0,0,-0.12,0,0,0,0,0,0,-0.36,-0.9,0,0,0,0,0,0">al rhythm; an alphabet such as Futura (below, top) </tspan>
<tspan x="76.75" y="185.36" textLength="259.33" dx="0,0,0,0,0,0,0,0,0,0,0,0,0,-0.07,0,0.22,0,0,0,0,0,0,0,0,-0.12,0,0,0,0,0,0,0,0,0,0,0,0,0,0,0,0,0.1,0,0,0,0,0,0,0">with widely varying character widths disrupts it.</tspan></text><path d="M395.73 111.01 l0 467.99 " style="stroke:#7b7979;stroke-width:0.50;stroke-linecap:round;"/><path d="M275.5 281.49 l0 108.43 l53.41 0 l0 -108.43 l-53.41 0 z " style="fill:#e1dbc9;"/><path d="M275.75 270.5 l0 9.5 " style="stroke:#231f20;stroke-width:0.50;"/><path d="M328.75 270.5 l0 9.5 " style="stroke:#231f20;stroke-width:0.50;"/><path d="M276 275 l52.5 0 " style="stroke:#231f20;stroke-width:0.50;"/><path d="M250.5 270.5 l0 9.5 " style="stroke:#231f20;stroke-width:0.50;"/><path d="M268 270.5 l0 9.5 " style="stroke:#231f20;stroke-width:0.50;"/><path d="M251 275 l17 0 " style="stroke:#231f20;stroke-width:0.50;"/><path d="M199.75 270.5 l0 9.5 " style="stroke:#231f20;stroke-width:0.50;"/><path d="M208 270.5 l0 9.5 " style="stroke:#231f20;stroke-width:0.50;"/><path d="M199.5 275 l8.5 0 " style="stroke:#231f20;stroke-width:0.50;"/><path d="M125 281.49 l0 108.43 l41.82 0 l0 -108.43 l-41.82 0 z " style="fill:#e1dbc9;"/><path d="M172.68 281.57 l0 108.43 l20.57 0 l0 -108.43 l-20.57 0 z " style="fill:#e1dbc9;"/><path d="M199.5 281.49 l0 108.43 l8.72 0 l0 -108.43 l-8.72 0 z " style="fill:#e1dbc9;"/><path d="M214.5 281.88 l0 108.43 l29.44 0 l0 -108.43 l-29.44 0 z " style="fill:#e1dbc9;"/><path d="M250.25 281.49 l0 108.43 l18.41 0 l0 -108.43 l-18.41 0 z " style="fill:#e1dbc9;"/><path d="M77.18 281.49 l0 108.43 l41.93 0 l0 -108.43 l-41.93 0 z " style="fill:#e1dbc9;"/><text class="f938" font-size="92.07" style="fill:#212c53"><tspan x="74.42" y="362.56" textLength="261.38" dx="0,-3.31,1.29,0.37,-2.39,-2.85,-0.74">aefjsrm</tspan></text>
<g style="blend-mode:multiply;" ><path d="M195.52 409.67 l52.41 0 " style="stroke:#176fc0;stroke-width:0.47;"/><text class="f833" font-size="9.50" style="fill:#231f20"><tspan x="77.59" y="408.72" textLength="117.43" class="f835" dx="0,0.09,0.09,0.09,0.09,0.09,0.09,0.52,0.09,0.09,0.09,0.09,0.09,0.09,0.09,0.52,0.09,0.09,0.09,0.09,0.09,0.09,0.52">Widely varying widths  </tspan>
<tspan x="195.52" y="408.72" textLength="52.3" style="fill:#176fc0" dx="0,0.08,0.08,0.08,0.08,-0.01,0.08,0.34,0.08,0.08,0.08,0.08">Futura Light</tspan></text></g><path d="M240.51 432.21 l0 77.83 l24.87 0 l0 -77.83 l-24.87 0 z " style="fill:#e1dbc9;"/><path d="M271.62 432.21 l0 77.83 l57.52 0 l0 -77.83 l-57.52 0 z " style="fill:#e1dbc9;"/><path d="M211.47 432.21 l0 77.83 l23.31 0 l0 -77.83 l-23.31 0 z " style="fill:#e1dbc9;"/><path d="M185.49 432.21 l0 77.83 l20.76 0 l0 -77.83 l-20.76 0 z " style="fill:#e1dbc9;"/><path d="M150.01 432.21 l0 77.83 l29.5 0 l0 -77.83 l-29.5 0 z " style="fill:#e1dbc9;"/><path d="M114.71 432.21 l0 77.83 l28.98 0 l0 -77.83 l-28.98 0 z " style="fill:#e1dbc9;"/><path d="M77.94 432.21 l0 77.83 l31.56 0 l0 -77.83 l-31.56 0 z " style="fill:#e1dbc9;"/><text class="f932" font-size="74.93" style="fill:#212c53"><tspan x="76.26" y="490.74" textLength="253.01" dx="0,2.41,1.66,0,0.9,-4.71,2.46,6.89">aef jsrm</tspan></text>
<g style="blend-mode:multiply;" ><path d="M156.29 531.66 l81.78 0 " style="stroke:#176fc0;stroke-width:0.47;"/><text class="f833" font-size="9.50" style="fill:#231f20"><tspan x="77.50" y="530.71" textLength="78.29" class="f835" dx="0,0.09,0.09,0.09,0.09,0.09,0.09,0.09,0.52,0.09,0.09,0.09,0.09,0.09,0.09,0.52">Similar widths  </tspan>
<tspan x="156.29" y="530.71" textLength="81.66" style="fill:#176fc0" dx="0,0.08,0.08,0.08,0.08,0.08,0.34,0.08,0.08,0.08,0.34,0.08,0.08,0.08,0.08">Times &#59911;ew Roman</tspan></text></g><text class="f885" font-size="12.00" style="fill:#231f20"><tspan x="456.24" y="121.37" textLength="182.13" class="f835" font-size="11.00" dx="0,0,-0.41,0,0,0,0,0,0,0,0,0,0,0,0,0,0,0,0,0,0,0,0,0,0,0,0,0,0,0,0">2. Medium height-to-width ratio</tspan>
<tspan x="638.37" y="121.37" textLength="3.25" class="f835" font-size="13.00"> </tspan>
<tspan x="456.24" y="137.37" textLength="283.0" dx="0,-0.78,0,0,0,0,0,0,0,0,0,0,0,0,0,0,0,0,0,0,0,-0.3,0,0,0,0,0,0,0,0,0,0,0,0,0,0,0,0,0,0,0,0,-0.12,0,0,0,0,0.1,0,0,0,0,0,0">We identify letters by their physical characteristics&#8212;</tspan>
<tspan x="456.24" y="153.37" textLength="259.03" dx="0,0,0,0,0,-0.12,0,0,0,0,0,-0.12,0,0,0,0,0,0,-0.12,0,0,0,0,0.22,-0.06,0,0,0,0,0,0,0,0,0,0,0,0,0,0,0,0,0,0,0,0,0,0,-0.24,0,0">stems, bars, loops, curves and so on; the clearer </tspan>
<tspan x="456.24" y="169.36" textLength="261.84" dx="0,0,0,0,0,0,0,-0.24,0,0,0,0,0,0,0,0,-0.24,0,0,0,0,0,0,0,0,0,0,0,0,0,0,0,0,0,0,0,-0.72,0,0,0,0,0,0,0,0,0,0,0,0,0,0,-0.24,0">they are the more legible the letter. As letters are </tspan>
<tspan x="456.24" y="185.36" textLength="268.15" dx="0,0,0,0,0,-0.24,0,0,0,0,0,0,0,0,0,0,0,0,0,0,0,0,0,0,0,0,0,0,0,0,0,0,0,0,0,0,0,0,-0.24,0,0,0,0,0,0,0,0,0,0">compressed (or expanded), these features get dis-</tspan>
<tspan x="456.24" y="201.35" textLength="15.72">tor</tspan>
<tspan x="472.05" y="201.37" textLength="270.59" dx="0,0,0,0,0,0,0,0,0,0,0,0,0,0,0,0,-0.07,0,0,0,-0.12,0,0,0,0,0,0,0,0,0,0,0,0,-0.24,0,0,0,0,0,0,0,0,0,0,0,0,0,0">ted&#8212;diagonal strokes, for example, become quite </tspan>
<tspan x="456.24" y="217.36" textLength="209.09" dx="0,-0.06,0,0.1,0,0,0,0,0,0,0,0,0,0,0,0,0,0,-0.24,0,0,0,0,-0.24,0,0,0,0,0,0,0,0,0,0,0,0,0,0,-1.14,0">vertical&#8212;and so are harder to identify. </tspan></text><path d="M482.74 328.84 l183.74 0 " style="stroke:#0994dc;stroke-width:0.50;"/><path d="M482.74 472.83 l183.74 0 " style="stroke:#0994dc;stroke-width:0.50;"/><path d="M482.99 478.25 l0 -149.66 l-27 0 l0 149.66 l27 0 z " style="fill:#d3d1cb;"/><path d="M455.99 472.88 l26.75 0 " style="stroke:#231f20;stroke-width:0.50;"/><path d="M478.32 465.18 l4.42 0 " style="stroke:#231f20;stroke-width:0.50;"/><path d="M474.99 457.98 l7.75 0 " style="stroke:#231f20;stroke-width:0.50;"/><path d="M478.32 450.78 l4.42 0 " style="stroke:#231f20;stroke-width:0.50;"/><path d="M468.99 443.58 l13.75 0 " style="stroke:#231f20;stroke-width:0.50;"/><path d="M478.32 436.38 l4.42 0 " style="stroke:#231f20;stroke-width:0.50;"/><path d="M474.99 429.18 l7.75 0 " style="stroke:#231f20;stroke-width:0.50;"/><path d="M478.32 421.98 l4.42 0 " style="stroke:#231f20;stroke-width:0.50;"/><path d="M468.99 414.78 l13.75 0 " style="stroke:#231f20;stroke-width:0.50;"/><path d="M478.32 407.58 l4.42 0 " style="stroke:#231f20;stroke-width:0.50;"/><path d="M474.99 400.38 l7.75 0 " style="stroke:#231f20;stroke-width:0.50;"/><path d="M478.32 393.18 l4.42 0 " style="stroke:#231f20;stroke-width:0.50;"/><path d="M468.99 385.98 l13.75 0 " style="stroke:#231f20;stroke-width:0.50;"/><path d="M478.32 378.78 l4.42 0 " style="stroke:#231f20;stroke-width:0.50;"/><path d="M474.99 371.58 l7.75 0 " style="stroke:#231f20;stroke-width:0.50;"/><path d="M478.32 364.39 l4.42 0 " style="stroke:#231f20;stroke-width:0.50;"/><path d="M468.99 357.19 l13.75 0 " style="stroke:#231f20;stroke-width:0.50;"/><path d="M478.32 349.99 l4.42 0 " style="stroke:#231f20;stroke-width:0.50;"/><path d="M474.99 342.79 l7.75 0 " style="stroke:#231f20;stroke-width:0.50;"/><path d="M478.32 335.59 l4.42 0 " style="stroke:#231f20;stroke-width:0.50;"/><path d="M503.48 478.41 l0 -167.66 " style="stroke:#0994dc;stroke-width:0.50;"/><path d="M588.15 478.41 l0 -167.66 " style="stroke:#0994dc;stroke-width:0.50;"/><path d="M616.81 478.41 l0 -167.66 " style="stroke:#0994dc;stroke-width:0.50;"/><path d="M661.14 478.41 l0 -167.66 " style="stroke:#0994dc;stroke-width:0.50;"/><path d="M593.48 310.75 l-90.33 0 l0 -27 l90.33 0 l0 27 z " style="fill:#d3d1cb;"/><path d="M588.25 283.75 l0 26.75 " style="stroke:#231f20;stroke-width:0.50;"/><path d="M580.91 306.09 l0 4.42 " style="stroke:#231f20;stroke-width:0.50;"/><path d="M573.92 302.75 l0 7.75 " style="stroke:#231f20;stroke-width:0.50;"/><path d="M566.92 306.09 l0 4.42 " style="stroke:#231f20;stroke-width:0.50;"/><path d="M559.92 296.75 l0 13.75 " style="stroke:#231f20;stroke-width:0.50;"/><path d="M552.92 306.09 l0 4.42 " style="stroke:#231f20;stroke-width:0.50;"/><path d="M545.92 302.75 l0 7.75 " style="stroke:#231f20;stroke-width:0.50;"/><path d="M538.92 306.09 l0 4.42 " style="stroke:#231f20;stroke-width:0.50;"/><path d="M531.92 296.75 l0 13.75 " style="stroke:#231f20;stroke-width:0.50;"/><path d="M524.92 306.09 l0 4.42 " style="stroke:#231f20;stroke-width:0.50;"/><path d="M517.92 302.75 l0 7.75 " style="stroke:#231f20;stroke-width:0.50;"/><path d="M510.92 306.09 l0 4.42 " style="stroke:#231f20;stroke-width:0.50;"/><path d="M666.48 310.75 l-50 0 l0 -27 l50 0 l0 27 z " style="fill:#d3d1cb;"/><path d="M661.14 302.75 l0 7.75 " style="stroke:#231f20;stroke-width:0.50;"/><path d="M653.45 306.09 l0 4.42 " style="stroke:#231f20;stroke-width:0.50;"/><path d="M646.15 283.75 l0 26.75 " style="stroke:#231f20;stroke-width:0.50;"/><path d="M638.85 306.09 l0 4.42 " style="stroke:#231f20;stroke-width:0.50;"/><path d="M631.55 302.75 l0 7.75 " style="stroke:#231f20;stroke-width:0.50;"/><path d="M624.25 306.09 l0 4.42 " style="stroke:#231f20;stroke-width:0.50;"/>
<g style="blend-mode:multiply;" ><path d="M502.22 524.27 l64.05 0 " style="stroke:#176fc0;stroke-width:0.47;"/><text class="f835" font-size="9.50" style="fill:#231f20"><tspan x="502.26" y="497.32" textLength="81.35" dx="0,0.09,0.09,0.09,0.09,0.09,0.09,0.52,0.09,0.09,0.09,0.09,0.09,0.09,0.07">Medium height- </tspan>
<tspan x="502.16" y="510.32" textLength="72.16" dx="0,0.09,0.09,0.09,0.09,0.09,0.09,0.09,0.09,0.52,0.09,0.09,0.09,0.09,0.07">to-width ratio </tspan>
<tspan x="502.22" y="523.32" textLength="63.92" class="f833" style="fill:#176fc0" dx="0,0.08,0.08,0.08,0.34,0.08,0.08,0.08,0.08,0.08,0.34,0.08,0.08,0.08,0.08">ITC Stone Serif</tspan></text></g>
<g style="blend-mode:multiply;" ><text class="f835" font-size="9.50" style="fill:#231f20"><tspan x="614.96" y="497.32" textLength="64.83" dx="0,0.09,0.09,0.09,0.09,0.09,0.09,0.09,0.09,0.09,0.09">Compressed </tspan>
<tspan x="615.23" y="510.32" textLength="80.73" dx="0,0.09,0.09,0.09,0.09,0.09,0.09,0.09,0.09,0.09,0.09,0.09,0.09,0.09,0.09,0.09">height-to-width </tspan>
<tspan x="615.23" y="523.32" textLength="29.1" dx="0,0.09,0.09,0.09,0.09,0.09,0.52">ratio  </tspan>
<tspan x="644.84" y="523.32" textLength="24.77" class="f833" dx="0,0.08,0.08,0.08,0.08">Racer</tspan></text></g><text class="f851" font-size="10.50" style="fill:#231f20"><tspan x="460.24" y="469.83" textLength="6.22">5</tspan></text><text class="f851" font-size="10.50" style="fill:#231f20"><tspan x="579.14" y="295.84" textLength="6.22">3</tspan>
<tspan x="639.01" y="295.84" textLength="6.22">1</tspan></text><text class="f942" font-size="199.99" style="fill:#872647"><tspan x="496.01" y="471.29" textLength="100.0">S</tspan></text><text class="f925" font-size="206.60" style="fill:#872647" transform="matrix(1,0,0,1.0309,0,0)"><tspan x="614.73" y="458.61" textLength="51.65">S</tspan></text>
</svg>
