
<?xml-stylesheet href="css/stylesheet.css" type="text/css"?>
<svg class="crocodoc-zYVf6P crocodoc-page-svg" version="1.1"
    xmlns="http://www.w3.org/2000/svg"
    xmlns:xlink="http://www.w3.org/1999/xlink"
    xml:space="preserve" width="792pt" height="612pt" viewBox="0 0 792 612">
<defs>
<clipPath id="Clip_65_1_zYVf6P"><path d="M16.29 502.8 l420.45 0 l0 -149.4 l-420.45 0 l0 149.4 " /></clipPath>
</defs>
<path d="M116.25 36 c0 0 -8 0 -8 8 l0 26 c0 0 0 8 8 8 l655.75 0 c0 0 8 0 8 -8 l0 -26 c0 0 0 -8 -8 -8 l-655.75 0 z " style="fill:#9c9a9b;"/><path d="M141.5 36 l-121.5 0 c0 0 -8 0 -8 8 l0 26 c0 0 0 8 8 8 l121.5 0 " style="fill:#231f20;"/><text class="f1484" font-size="12.50" style="fill:#f4f4f4"><tspan x="48.92" y="61.13" textLength="41.49" dx="0,-0.31,-0.31,-0.31,-0.31,-0.31">Before</tspan>
<tspan x="90.09" y="61.13" textLength="9.95" style="fill:#a665b9">&amp;</tspan>
<tspan x="99.72" y="61.13" textLength="9.49" style="fill:#ef2c3c">A</tspan>
<tspan x="108.89" y="61.13" textLength="5.09" style="fill:#f36717">f</tspan>
<tspan x="113.67" y="61.13" textLength="5.55" style="fill:#fcd205">t</tspan>
<tspan x="118.91" y="61.13" textLength="7.88" style="fill:#179f50">e</tspan>
<tspan x="126.47" y="61.13" textLength="9.25" style="fill:#44aae4">r </tspan></text><path d="M141.5 69 l0 -33 " style="stroke:#ffffff;stroke-width:1.00;"/><text class="f1486" font-size="4.00" style="fill:#f4f4f4"><tspan x="131.71" y="61.47" textLength="3.2">&#174;</tspan></text><path d="M635.33 584.88 l0 8.23 c0 0 0 6.9 6.9 6.9 l130.87 0 c0 0 6.9 0 6.9 -6.9 l0 -8.23 " style="fill:#7c7ea4;"/><text class="f1489" font-size="12.00" style="fill:#918f8f"><tspan x="643.63" y="595.57" textLength="130.08" class="f1484" font-size="9.50" style="fill:#ffffff" dx="0,0,0,0,0,0,0,0,0,0,0,0,0,0,0,0,0,0,0,0,0,7.64,0,0,0">Selecting text type  0269</tspan>
<tspan x="540.02" y="596.22" textLength="56.52" class="f1492" dx="0,-0.06,-0.06,-0.06,-0.06,-0.06,-0.06,-0.06,-0.06">Continued</tspan>
<tspan x="596.48" y="596.22" textLength="10.2" style="fill:#231f20" dx="0,3.3,-1.2">   </tspan></text><text class="f1468" font-size="14.85" style="fill:#918f8f" transform="matrix(1,0,0,0.7407,0,0)"><tspan x="605.48" y="803.55" textLength="14.85">&#57513;</tspan></text><text class="f1477" font-size="18.00" style="fill:#ffffff"><tspan x="720.67" y="59.99" textLength="17.5">X</tspan></text><path d="M689.89 45.91 l0 15.99 " style="stroke:#ffffff;stroke-width:0.83;stroke-linecap:round;"/><path d="M716.22 45.91 l0 15.99 " style="stroke:#ffffff;stroke-width:0.83;stroke-linecap:round;"/><path d="M742.97 45.91 l0 15.99 " style="stroke:#ffffff;stroke-width:0.83;stroke-linecap:round;"/><path d="M769.71 45.91 l0 15.99 " style="stroke:#ffffff;stroke-width:0.83;stroke-linecap:round;"/><path d="M664.06 45.91 l0 15.99 " style="stroke:#ffffff;stroke-width:0.83;stroke-linecap:round;"/><text class="f1488" font-size="7.94" style="fill:#ffffff"><tspan x="672.74" y="59.47" textLength="5.89" font-size="18.00">i</tspan>
<tspan x="585.75" y="56.94" textLength="69.59" class="f1484" dx="0,-0.08,-0.08,-0.08,-0.08,-0.08,-0.08,-0.08,-0.08,-0.08,-0.48,-0.08,-0.08,-0.08">BAmagazine.com</tspan>
<tspan x="693.26" y="60.47" textLength="19.32" class="f1477" font-size="20.00">U</tspan></text><path d="M752.84 47.33 l0 5.36 l0 2.56 l6.27 0 l3.86 0 l0 -7.92 l-10.13 0 z " style="stroke:#ffffff;stroke-width:0.48;"/><path d="M752.88 48.84 l10.08 0 l0 -1.42 l-10.08 0 l0 1.42 z " style="fill:#ffffff;"/><path d="M749.25 53.59 l10.03 0 l0 -1.42 l-10.03 0 l0 1.42 z " style="fill:#ffffff;"/><path d="M749.2 60 l10.13 0 l0 -7.92 l-10.13 0 l0 7.92 z " style="fill:#9c9a9b;"/><path d="M749.2 60 l10.13 0 l0 -7.92 l-10.13 0 l0 7.92 z " style="stroke:#ffffff;stroke-width:0.48;"/><path d="M12 82.75 l774.75 0 l0 -14.75 l-774.75 0 l0 14.75 z " style="fill:#ffffff;"/><path d="M12.25 579 l767.75 0 l0 -509.75 l-767.75 0 l0 509.75 z " style="fill:#9a97b6;"/>
<g clip-path="url(#Clip_65_1_zYVf6P)" ><image x="15.09" y="352.27" width="422.64" height="151.44" preserveAspectRatio="none" xlink:href="images/1493.jpeg" /></g><text class="f1489" font-size="30.00" style="fill:#231f20"><tspan x="373.00" y="415.72" textLength="246.48" class="f1490" font-size="120.00" dx="0,-12,-6.72,-9.24,-3.48,-13.32"> text?</tspan>
<tspan x="329.18" y="235.80" textLength="373.02" class="f1490" font-size="60.00" style="fill:#ffffff" dx="0,-3.3,-3.6,-2.4,-3.6,-9.9,-3.6,-1.5,-2.1,-3.6,-3.6,-3.6,-2.4,-3.6,-3.6,-3.6,0">What&#8217;s the right </tspan>
<tspan x="166.05" y="324.88" textLength="571.32" class="f1490" font-size="120.00" dx="0,-2.88,-7.2,-6.36,-9.36,-8.88,-9.36,-7.44,-6,-10.2,-9,-7.8,0,-31.2">typeface for  </tspan>
<tspan x="606.72" y="415.75" textLength="100.62" style="fill:#dbd8e3" dx="0,-1.5,-1.5,-0.6,-0.6,-0.6,0">How to </tspan>
<tspan x="440.16" y="447.76" textLength="280.17" style="fill:#dbd8e3" dx="0,-0.6,-0.6,-0.6,-0.6,-0.6,-0.6,-0.6,-0.6,-0.6,-0.6,-0.6,-0.6,-0.6,-0.6,-0.6,-0.6,-0.6,-0.6,-0.6,-0.6,0">choose a typeface for </tspan>
<tspan x="440.16" y="479.77" textLength="306.24" style="fill:#dbd8e3" dx="0,-0.6,-0.6,-0.6,-0.6,-2.4,-0.6,-0.6,-0.6,-0.6,-0.6,-0.6,-0.6,-1.2,-0.6,-0.6,-0.6,-0.6,-0.6,-0.6,-0.6,-1.5,-0.75,-0.6,0">clear, easy reading over </tspan>
<tspan x="439.80" y="511.78" textLength="193.26" style="fill:#dbd8e3" dx="0,-0.6,-0.6,-0.6,-0.6,-0.6,-0.6,-0.6,-0.6,-0.6,-0.6,-0.6,-0.6,-0.6,-1.2">long distances.</tspan>
<tspan x="640.50" y="511.73" textLength="56.52" class="f1492" font-size="12.00" dx="0,-0.06,-0.06,-0.06,-0.06,-0.06,-0.06,-0.06,-0.06">Continued</tspan>
<tspan x="696.96" y="511.73" textLength="10.2" font-size="12.00" dx="0,3.3,-1.2">   </tspan></text><text class="f1468" font-size="14.85" style="fill:#231f20" transform="matrix(1,0,0,0.7407,0,0)"><tspan x="705.96" y="689.48" textLength="14.85">&#57513;</tspan></text><path d="M44.76 510.57 l73.83 0 " style="stroke:#176fc0;stroke-width:0.48;"/><text class="f1491" font-size="9.50" style="fill:#176fc0"><tspan x="44.76" y="509.62" textLength="73.83" dx="0,0.1,0.1,0.1,0.1,0.1,0.1,0.1,0.1,0.1,0.1,-0.26,0.1,0.1,0.1">iStockphoto.com</tspan></text>
</svg>
