
<?xml-stylesheet href="css/stylesheet.css" type="text/css"?>
<svg class="crocodoc-zYVf6P crocodoc-page-svg" version="1.1"
    xmlns="http://www.w3.org/2000/svg"
    xmlns:xlink="http://www.w3.org/1999/xlink"
    xml:space="preserve" width="792pt" height="612pt" viewBox="0 0 792 612">
<defs>
<clipPath id="Clip_76_8_zYVf6P"><path d="M352.74 529.05 c0 0 -9 0 -9 9 c0 0 0 9 9 9 l86.43 0 c0 0 9 0 9 -9 c0 0 0 -9 -9 -9 l-86.43 0 z " /></clipPath>
<linearGradient id="Grad_77_8_zYVf6P" x1="-0.00%" y1="100.00%" x2="-0.00%" y2="0.00%"><stop offset="0.00" style="stop-color:#85b41b" /><stop offset="0.25" style="stop-color:#8abb1d" /><stop offset="0.50" style="stop-color:#8fc21e" /><stop offset="0.75" style="stop-color:#94c91f" /><stop offset="1.00" style="stop-color:#99d020" /></linearGradient>
<mask id="Mask_85_8_zYVf6P">
<g ><image x="33.83" y="162.23" width="85.68" height="68.04" preserveAspectRatio="none" xlink:href="images/360.jpeg" /></g></mask>
<clipPath id="Clip_98_8_zYVf6P"><path d="M37.1 225.84 l78.75 0 l0 -60.84 l-78.75 0 l0 60.84 " /></clipPath>
<mask id="Mask_104_8_zYVf6P">
<g ><image x="125.32" y="162.23" width="85.68" height="68.04" preserveAspectRatio="none" xlink:href="images/360.jpeg" /></g></mask>
<clipPath id="Clip_117_8_zYVf6P"><path d="M128.59 225.84 l78.75 0 l0 -60.84 l-78.75 0 l0 60.84 " /></clipPath>
<mask id="Mask_123_8_zYVf6P">
<g ><image x="216.81" y="162.23" width="85.68" height="68.04" preserveAspectRatio="none" xlink:href="images/360.jpeg" /></g></mask>
<clipPath id="Clip_136_8_zYVf6P"><path d="M220.08 225.84 l78.75 0 l0 -60.84 l-78.75 0 l0 60.84 " /></clipPath>
<mask id="Mask_142_8_zYVf6P">
<g ><image x="308.30" y="162.23" width="85.68" height="68.04" preserveAspectRatio="none" xlink:href="images/360.jpeg" /></g></mask>
<clipPath id="Clip_155_8_zYVf6P"><path d="M311.57 225.84 l78.75 0 l0 -60.84 l-78.75 0 l0 60.84 " /></clipPath>
<mask id="Mask_161_8_zYVf6P">
<g ><image x="399.79" y="162.23" width="85.68" height="68.04" preserveAspectRatio="none" xlink:href="images/360.jpeg" /></g></mask>
<clipPath id="Clip_174_8_zYVf6P"><path d="M403.06 225.84 l78.75 0 l0 -60.84 l-78.75 0 l0 60.84 " /></clipPath>
<mask id="Mask_180_8_zYVf6P">
<g ><image x="582.77" y="162.23" width="85.68" height="68.04" preserveAspectRatio="none" xlink:href="images/360.jpeg" /></g></mask>
<clipPath id="Clip_193_8_zYVf6P"><path d="M586.03 225.84 l78.75 0 l0 -60.84 l-78.75 0 l0 60.84 " /></clipPath>
<mask id="Mask_199_8_zYVf6P">
<g ><image x="674.26" y="162.23" width="85.68" height="68.04" preserveAspectRatio="none" xlink:href="images/360.jpeg" /></g></mask>
<clipPath id="Clip_212_8_zYVf6P"><path d="M677.52 225.84 l78.75 0 l0 -60.84 l-78.75 0 l0 60.84 " /></clipPath>
<mask id="Mask_218_8_zYVf6P">
<g ><image x="33.83" y="310.07" width="85.68" height="68.04" preserveAspectRatio="none" xlink:href="images/360.jpeg" /></g></mask>
<clipPath id="Clip_231_8_zYVf6P"><path d="M37.1 373.67 l78.75 0 l0 -60.84 l-78.75 0 l0 60.84 " /></clipPath>
<mask id="Mask_237_8_zYVf6P">
<g ><image x="125.32" y="310.07" width="85.68" height="68.04" preserveAspectRatio="none" xlink:href="images/360.jpeg" /></g></mask>
<clipPath id="Clip_250_8_zYVf6P"><path d="M128.59 373.67 l78.75 0 l0 -60.84 l-78.75 0 l0 60.84 " /></clipPath>
<mask id="Mask_256_8_zYVf6P">
<g ><image x="216.81" y="310.07" width="85.68" height="68.04" preserveAspectRatio="none" xlink:href="images/360.jpeg" /></g></mask>
<clipPath id="Clip_269_8_zYVf6P"><path d="M220.08 373.67 l78.75 0 l0 -60.84 l-78.75 0 l0 60.84 " /></clipPath>
<mask id="Mask_275_8_zYVf6P">
<g ><image x="308.30" y="310.07" width="85.68" height="68.04" preserveAspectRatio="none" xlink:href="images/360.jpeg" /></g></mask>
<clipPath id="Clip_288_8_zYVf6P"><path d="M311.57 373.67 l78.75 0 l0 -60.84 l-78.75 0 l0 60.84 " /></clipPath>
<mask id="Mask_294_8_zYVf6P">
<g ><image x="399.79" y="310.07" width="85.68" height="68.04" preserveAspectRatio="none" xlink:href="images/360.jpeg" /></g></mask>
<clipPath id="Clip_307_8_zYVf6P"><path d="M403.06 373.67 l78.75 0 l0 -60.84 l-78.75 0 l0 60.84 " /></clipPath>
<mask id="Mask_313_8_zYVf6P">
<g ><image x="491.28" y="310.07" width="85.68" height="68.04" preserveAspectRatio="none" xlink:href="images/360.jpeg" /></g></mask>
<clipPath id="Clip_326_8_zYVf6P"><path d="M494.55 373.67 l78.75 0 l0 -60.84 l-78.75 0 l0 60.84 " /></clipPath>
<mask id="Mask_332_8_zYVf6P">
<g ><image x="582.77" y="310.07" width="85.68" height="68.04" preserveAspectRatio="none" xlink:href="images/360.jpeg" /></g></mask>
<clipPath id="Clip_345_8_zYVf6P"><path d="M586.03 373.67 l78.75 0 l0 -60.84 l-78.75 0 l0 60.84 " /></clipPath>
<mask id="Mask_351_8_zYVf6P">
<g ><image x="674.26" y="310.07" width="85.68" height="68.04" preserveAspectRatio="none" xlink:href="images/360.jpeg" /></g></mask>
<clipPath id="Clip_364_8_zYVf6P"><path d="M677.52 373.67 l78.75 0 l0 -60.84 l-78.75 0 l0 60.84 " /></clipPath>
<mask id="Mask_370_8_zYVf6P">
<g ><image x="33.83" y="236.15" width="85.68" height="68.04" preserveAspectRatio="none" xlink:href="images/360.jpeg" /></g></mask>
<clipPath id="Clip_383_8_zYVf6P"><path d="M37.1 299.76 l78.75 0 l0 -60.84 l-78.75 0 l0 60.84 " /></clipPath>
<mask id="Mask_389_8_zYVf6P">
<g ><image x="125.32" y="236.15" width="85.68" height="68.04" preserveAspectRatio="none" xlink:href="images/360.jpeg" /></g></mask>
<clipPath id="Clip_402_8_zYVf6P"><path d="M128.59 299.76 l78.75 0 l0 -60.84 l-78.75 0 l0 60.84 " /></clipPath>
<mask id="Mask_408_8_zYVf6P">
<g ><image x="216.81" y="236.15" width="85.68" height="68.04" preserveAspectRatio="none" xlink:href="images/360.jpeg" /></g></mask>
<clipPath id="Clip_421_8_zYVf6P"><path d="M220.08 299.76 l78.75 0 l0 -60.84 l-78.75 0 l0 60.84 " /></clipPath>
<mask id="Mask_427_8_zYVf6P">
<g ><image x="308.30" y="236.15" width="85.68" height="68.04" preserveAspectRatio="none" xlink:href="images/360.jpeg" /></g></mask>
<clipPath id="Clip_440_8_zYVf6P"><path d="M311.57 299.76 l78.75 0 l0 -60.84 l-78.75 0 l0 60.84 " /></clipPath>
<mask id="Mask_446_8_zYVf6P">
<g ><image x="399.79" y="236.15" width="85.68" height="68.04" preserveAspectRatio="none" xlink:href="images/360.jpeg" /></g></mask>
<clipPath id="Clip_459_8_zYVf6P"><path d="M403.06 299.76 l78.75 0 l0 -60.84 l-78.75 0 l0 60.84 " /></clipPath>
<mask id="Mask_465_8_zYVf6P">
<g ><image x="491.28" y="236.15" width="85.68" height="68.04" preserveAspectRatio="none" xlink:href="images/360.jpeg" /></g></mask>
<clipPath id="Clip_478_8_zYVf6P"><path d="M494.55 299.76 l78.75 0 l0 -60.84 l-78.75 0 l0 60.84 " /></clipPath>
<mask id="Mask_484_8_zYVf6P">
<g ><image x="582.77" y="236.15" width="85.68" height="68.04" preserveAspectRatio="none" xlink:href="images/360.jpeg" /></g></mask>
<clipPath id="Clip_497_8_zYVf6P"><path d="M586.03 299.76 l78.75 0 l0 -60.84 l-78.75 0 l0 60.84 " /></clipPath>
<mask id="Mask_503_8_zYVf6P">
<g ><image x="674.26" y="236.15" width="85.68" height="68.04" preserveAspectRatio="none" xlink:href="images/360.jpeg" /></g></mask>
<clipPath id="Clip_516_8_zYVf6P"><path d="M677.52 299.76 l78.75 0 l0 -60.84 l-78.75 0 l0 60.84 " /></clipPath>
<mask id="Mask_522_8_zYVf6P">
<g ><image x="491.28" y="162.23" width="85.68" height="68.04" preserveAspectRatio="none" xlink:href="images/451.jpeg" /></g></mask>
</defs>
<path d="M20 36 c0 0 -8 0 -8 8 l0 26 c0 0 0 8 8 8 l124.25 0 c0 0 8 0 8 -8 l0 -26 c0 0 0 -8 -8 -8 l-124.25 0 z " style="fill:#231f20;"/><path d="M325.75 36 c0 0 -8 0 -8 8 l0 26 c0 0 0 8 8 8 l446.25 0 c0 0 8 0 8 -8 l0 -26 c0 0 0 -8 -8 -8 l-446.25 0 z " style="fill:#9c9a9b;"/><text class="f1484" font-size="12.50" style="fill:#f4f4f4"><tspan x="48.92" y="61.13" textLength="41.49" dx="0,-0.31,-0.31,-0.31,-0.31,-0.31">Before</tspan>
<tspan x="90.09" y="61.13" textLength="9.95" style="fill:#a665b9">&amp;</tspan>
<tspan x="99.72" y="61.13" textLength="9.49" style="fill:#ef2c3c">A</tspan>
<tspan x="108.89" y="61.13" textLength="5.09" style="fill:#f36717">f</tspan>
<tspan x="113.67" y="61.13" textLength="5.55" style="fill:#fcd205">t</tspan>
<tspan x="118.91" y="61.13" textLength="7.88" style="fill:#179f50">e</tspan>
<tspan x="126.47" y="61.13" textLength="9.25" style="fill:#44aae4">r </tspan></text><path d="M141.5 69 l0 -33 " style="stroke:#ffffff;stroke-width:1.00;"/><text class="f1477" font-size="18.00" style="fill:#f4f4f4"><tspan x="131.71" y="61.47" textLength="3.2" class="f1486" font-size="4.00">&#174;</tspan>
<tspan x="720.67" y="59.99" textLength="17.5" style="fill:#ffffff">X</tspan></text><path d="M689.89 45.91 l0 15.99 " style="stroke:#ffffff;stroke-width:0.83;stroke-linecap:round;"/><path d="M716.22 45.91 l0 15.99 " style="stroke:#ffffff;stroke-width:0.83;stroke-linecap:round;"/><path d="M742.97 45.91 l0 15.99 " style="stroke:#ffffff;stroke-width:0.83;stroke-linecap:round;"/><path d="M769.71 45.91 l0 15.99 " style="stroke:#ffffff;stroke-width:0.83;stroke-linecap:round;"/><path d="M664.06 45.91 l0 15.99 " style="stroke:#ffffff;stroke-width:0.83;stroke-linecap:round;"/><text class="f1488" font-size="7.94" style="fill:#ffffff"><tspan x="672.74" y="59.47" textLength="5.89" font-size="18.00">i</tspan>
<tspan x="585.75" y="56.94" textLength="69.59" class="f1484" dx="0,-0.08,-0.08,-0.08,-0.08,-0.08,-0.08,-0.08,-0.08,-0.08,-0.48,-0.08,-0.08,-0.08">BAmagazine.com</tspan>
<tspan x="693.26" y="60.47" textLength="19.32" class="f1477" font-size="20.00">U</tspan></text><path d="M752.84 47.33 l0 5.36 l0 2.56 l6.27 0 l3.86 0 l0 -7.92 l-10.13 0 z " style="stroke:#ffffff;stroke-width:0.48;"/><path d="M752.88 48.84 l10.08 0 l0 -1.42 l-10.08 0 l0 1.42 z " style="fill:#ffffff;"/><path d="M749.25 53.59 l10.03 0 l0 -1.42 l-10.03 0 l0 1.42 z " style="fill:#ffffff;"/><path d="M749.2 60 l10.13 0 l0 -7.92 l-10.13 0 l0 7.92 z " style="fill:#9c9a9b;"/><path d="M749.2 60 l10.13 0 l0 -7.92 l-10.13 0 l0 7.92 z " style="stroke:#ffffff;stroke-width:0.48;"/><path d="M635.33 584.88 l0 8.23 c0 0 0 6.9 6.9 6.9 l130.87 0 c0 0 6.9 0 6.9 -6.9 l0 -8.23 " style="fill:#7c7ea4;"/><text class="f1484" font-size="9.50" style="fill:#ffffff"><tspan x="643.63" y="595.57" textLength="130.08" dx="0,0,0,0,0,0,0,0,0,0,0,0,0,0,0,0,0,0,0,0,0,7.64,0,0,0">Selecting text type  0269</tspan></text><path d="M141.75 78 l210.75 0 l0 -42 l-210.75 0 l0 42 z " style="fill:#9c9a9b;"/><text class="f1484" font-size="25.00" style="fill:#231f20"><tspan x="223.40" y="136.93" textLength="345.2" dx="0,-1.13,-0.88,-0.75,-0.38,-0.87,-0.38,-0.38,-0.5,-1,-0.38,-0.38,-0.38,-0.38,-0.38,-0.38,-0.38,-0.38,-0.38,-0.38,-0.38,-0.38,-1.3,-0.38,-0.38,-0.38,-0.38">Subscribe to Before &amp; After</tspan></text><image x="12.00" y="270.60" width="768.00" height="308.40" preserveAspectRatio="none" xlink:href="images/303.jpeg" />
<g clip-path="url(#Clip_76_8_zYVf6P)" ><path d="M343.74 547.05 l104.43 0 l0 -18 l-104.43 0 l0 18 " style="fill:url(#Grad_77_8_zYVf6P);"/></g><text class="f347" font-size="9.37" style="fill:#ffffff"><tspan x="364.00" y="540.72" textLength="63.99">Learn more!</tspan></text>
<g mask="url(#Mask_85_8_zYVf6P)" ><path d="M35.27 163.67 l82.44 0 l0 64.8 l-82.44 0 l0 -64.8 z " style="fill:#231f20;fill-opacity:0.60;blend-mode:multiply;"/></g>
<g clip-path="url(#Clip_98_8_zYVf6P)" ><image x="36.30" y="164.24" width="80.31" height="62.38" preserveAspectRatio="none" xlink:href="images/304.jpeg" /></g>
<g mask="url(#Mask_104_8_zYVf6P)" ><path d="M126.76 163.67 l82.44 0 l0 64.8 l-82.44 0 l0 -64.8 z " style="fill:#231f20;fill-opacity:0.60;blend-mode:multiply;"/></g>
<g clip-path="url(#Clip_117_8_zYVf6P)" ><image x="127.79" y="164.24" width="80.31" height="62.38" preserveAspectRatio="none" xlink:href="images/305.jpeg" /></g>
<g mask="url(#Mask_123_8_zYVf6P)" ><path d="M218.25 163.67 l82.44 0 l0 64.8 l-82.44 0 l0 -64.8 z " style="fill:#231f20;fill-opacity:0.60;blend-mode:multiply;"/></g>
<g clip-path="url(#Clip_136_8_zYVf6P)" ><image x="219.28" y="164.24" width="80.31" height="62.38" preserveAspectRatio="none" xlink:href="images/306.jpeg" /></g>
<g mask="url(#Mask_142_8_zYVf6P)" ><path d="M309.74 163.67 l82.44 0 l0 64.8 l-82.44 0 l0 -64.8 z " style="fill:#231f20;fill-opacity:0.60;blend-mode:multiply;"/></g>
<g clip-path="url(#Clip_155_8_zYVf6P)" ><image x="310.77" y="164.24" width="80.31" height="62.38" preserveAspectRatio="none" xlink:href="images/307.png" /></g>
<g mask="url(#Mask_161_8_zYVf6P)" ><path d="M401.23 163.67 l82.44 0 l0 64.8 l-82.44 0 l0 -64.8 z " style="fill:#231f20;fill-opacity:0.60;blend-mode:multiply;"/></g>
<g clip-path="url(#Clip_174_8_zYVf6P)" ><image x="402.26" y="164.24" width="80.31" height="62.38" preserveAspectRatio="none" xlink:href="images/308.jpeg" /></g>
<g mask="url(#Mask_180_8_zYVf6P)" ><path d="M584.21 163.67 l82.44 0 l0 64.8 l-82.44 0 l0 -64.8 z " style="fill:#231f20;fill-opacity:0.60;blend-mode:multiply;"/></g>
<g clip-path="url(#Clip_193_8_zYVf6P)" ><image x="585.24" y="164.24" width="80.31" height="62.38" preserveAspectRatio="none" xlink:href="images/309.jpeg" /></g>
<g mask="url(#Mask_199_8_zYVf6P)" ><path d="M675.7 163.67 l82.44 0 l0 64.8 l-82.44 0 l0 -64.8 z " style="fill:#231f20;fill-opacity:0.60;blend-mode:multiply;"/></g>
<g clip-path="url(#Clip_212_8_zYVf6P)" ><image x="676.73" y="164.24" width="80.31" height="62.38" preserveAspectRatio="none" xlink:href="images/310.jpeg" /></g>
<g mask="url(#Mask_218_8_zYVf6P)" ><path d="M35.27 311.51 l82.44 0 l0 64.8 l-82.44 0 l0 -64.8 z " style="fill:#231f20;fill-opacity:0.60;blend-mode:multiply;"/></g>
<g clip-path="url(#Clip_231_8_zYVf6P)" ><image x="36.30" y="312.07" width="80.31" height="62.38" preserveAspectRatio="none" xlink:href="images/312.jpeg" /></g>
<g mask="url(#Mask_237_8_zYVf6P)" ><path d="M126.76 311.51 l82.44 0 l0 64.8 l-82.44 0 l0 -64.8 z " style="fill:#231f20;fill-opacity:0.60;blend-mode:multiply;"/></g>
<g clip-path="url(#Clip_250_8_zYVf6P)" ><image x="127.79" y="312.07" width="80.31" height="62.38" preserveAspectRatio="none" xlink:href="images/313.jpeg" /></g>
<g mask="url(#Mask_256_8_zYVf6P)" ><path d="M218.25 311.51 l82.44 0 l0 64.8 l-82.44 0 l0 -64.8 z " style="fill:#231f20;fill-opacity:0.60;blend-mode:multiply;"/></g>
<g clip-path="url(#Clip_269_8_zYVf6P)" ><image x="219.28" y="312.07" width="80.31" height="62.38" preserveAspectRatio="none" xlink:href="images/291.jpeg" /></g>
<g mask="url(#Mask_275_8_zYVf6P)" ><path d="M309.74 311.51 l82.44 0 l0 64.8 l-82.44 0 l0 -64.8 z " style="fill:#231f20;fill-opacity:0.60;blend-mode:multiply;"/></g>
<g clip-path="url(#Clip_288_8_zYVf6P)" ><image x="310.77" y="312.07" width="80.31" height="62.38" preserveAspectRatio="none" xlink:href="images/293.jpeg" /></g>
<g mask="url(#Mask_294_8_zYVf6P)" ><path d="M401.23 311.51 l82.44 0 l0 64.8 l-82.44 0 l0 -64.8 z " style="fill:#231f20;fill-opacity:0.60;blend-mode:multiply;"/></g>
<g clip-path="url(#Clip_307_8_zYVf6P)" ><image x="402.26" y="312.07" width="80.31" height="62.38" preserveAspectRatio="none" xlink:href="images/294.jpeg" /></g>
<g mask="url(#Mask_313_8_zYVf6P)" ><path d="M492.72 311.51 l82.44 0 l0 64.8 l-82.44 0 l0 -64.8 z " style="fill:#231f20;fill-opacity:0.60;blend-mode:multiply;"/></g>
<g clip-path="url(#Clip_326_8_zYVf6P)" ><image x="493.75" y="312.07" width="80.31" height="62.38" preserveAspectRatio="none" xlink:href="images/295.jpeg" /></g>
<g mask="url(#Mask_332_8_zYVf6P)" ><path d="M584.21 311.51 l82.44 0 l0 64.8 l-82.44 0 l0 -64.8 z " style="fill:#231f20;fill-opacity:0.60;blend-mode:multiply;"/></g>
<g clip-path="url(#Clip_345_8_zYVf6P)" ><image x="585.24" y="312.07" width="80.31" height="62.38" preserveAspectRatio="none" xlink:href="images/296.png" /></g>
<g mask="url(#Mask_351_8_zYVf6P)" ><path d="M675.7 311.51 l82.44 0 l0 64.8 l-82.44 0 l0 -64.8 z " style="fill:#231f20;fill-opacity:0.60;blend-mode:multiply;"/></g>
<g clip-path="url(#Clip_364_8_zYVf6P)" ><image x="676.73" y="312.07" width="80.31" height="62.38" preserveAspectRatio="none" xlink:href="images/297.jpeg" /></g>
<g mask="url(#Mask_370_8_zYVf6P)" ><path d="M35.27 237.59 l82.44 0 l0 64.8 l-82.44 0 l0 -64.8 z " style="fill:#231f20;fill-opacity:0.60;blend-mode:multiply;"/></g>
<g clip-path="url(#Clip_383_8_zYVf6P)" ><image x="36.30" y="238.16" width="80.31" height="62.38" preserveAspectRatio="none" xlink:href="images/298.jpeg" /></g>
<g mask="url(#Mask_389_8_zYVf6P)" ><path d="M126.76 237.59 l82.44 0 l0 64.8 l-82.44 0 l0 -64.8 z " style="fill:#231f20;fill-opacity:0.60;blend-mode:multiply;"/></g>
<g clip-path="url(#Clip_402_8_zYVf6P)" ><image x="127.79" y="238.16" width="80.31" height="62.38" preserveAspectRatio="none" xlink:href="images/299.jpeg" /></g>
<g mask="url(#Mask_408_8_zYVf6P)" ><path d="M218.25 237.59 l82.44 0 l0 64.8 l-82.44 0 l0 -64.8 z " style="fill:#231f20;fill-opacity:0.60;blend-mode:multiply;"/></g>
<g clip-path="url(#Clip_421_8_zYVf6P)" ><image x="219.28" y="238.16" width="80.31" height="62.38" preserveAspectRatio="none" xlink:href="images/300.jpeg" /></g>
<g mask="url(#Mask_427_8_zYVf6P)" ><path d="M309.74 237.59 l82.44 0 l0 64.8 l-82.44 0 l0 -64.8 z " style="fill:#231f20;fill-opacity:0.60;blend-mode:multiply;"/></g>
<g clip-path="url(#Clip_440_8_zYVf6P)" ><image x="310.77" y="238.16" width="80.31" height="62.38" preserveAspectRatio="none" xlink:href="images/301.jpeg" /></g>
<g mask="url(#Mask_446_8_zYVf6P)" ><path d="M401.23 237.59 l82.44 0 l0 64.8 l-82.44 0 l0 -64.8 z " style="fill:#231f20;fill-opacity:0.60;blend-mode:multiply;"/></g>
<g clip-path="url(#Clip_459_8_zYVf6P)" ><image x="402.26" y="238.16" width="80.31" height="62.38" preserveAspectRatio="none" xlink:href="images/314.png" /></g>
<g mask="url(#Mask_465_8_zYVf6P)" ><path d="M492.72 237.59 l82.44 0 l0 64.8 l-82.44 0 l0 -64.8 z " style="fill:#231f20;fill-opacity:0.60;blend-mode:multiply;"/></g>
<g clip-path="url(#Clip_478_8_zYVf6P)" ><image x="493.75" y="238.16" width="80.31" height="62.38" preserveAspectRatio="none" xlink:href="images/317.jpeg" /></g>
<g mask="url(#Mask_484_8_zYVf6P)" ><path d="M584.21 237.59 l82.44 0 l0 64.8 l-82.44 0 l0 -64.8 z " style="fill:#231f20;fill-opacity:0.60;blend-mode:multiply;"/></g>
<g clip-path="url(#Clip_497_8_zYVf6P)" ><image x="585.24" y="238.16" width="80.31" height="62.38" preserveAspectRatio="none" xlink:href="images/320.jpeg" /></g>
<g mask="url(#Mask_503_8_zYVf6P)" ><path d="M675.7 237.59 l82.44 0 l0 64.8 l-82.44 0 l0 -64.8 z " style="fill:#231f20;fill-opacity:0.60;blend-mode:multiply;"/></g>
<g clip-path="url(#Clip_516_8_zYVf6P)" ><image x="676.73" y="238.16" width="80.31" height="62.38" preserveAspectRatio="none" xlink:href="images/323.jpeg" /></g>
<g mask="url(#Mask_522_8_zYVf6P)" ><path d="M492.72 163.67 l82.44 0 l0 64.8 l-82.44 0 l0 -64.8 z " style="fill:#231f20;fill-opacity:0.60;blend-mode:multiply;"/></g><image x="494.55" y="165.00" width="78.78" height="60.87" preserveAspectRatio="none" xlink:href="images/326.jpeg" /><text class="f1468" font-size="14.85" style="fill:#918f8f" transform="matrix(1,0,0,0.7407,0,0)"><tspan x="580.07" y="802.64" textLength="14.85">&#59904;</tspan></text><text class="f1468" font-size="11.00" style="fill:#231f20"><tspan x="596.41" y="594.55" textLength="9.68" dx="0,3.52,-2.75">&#59905; &#59905;</tspan></text><text class="f1468" font-size="14.85" style="fill:#918f8f" transform="matrix(1,0,0,0.7407,0,0)"><tspan x="605.48" y="802.64" textLength="14.85">&#57513;</tspan></text><text class="f1491" font-size="9.50" style="fill:#231f20"><tspan x="36.20" y="412.54" textLength="32.86" class="f353" font-size="19.56" style="fill:#ed1834">$36</tspan>
<tspan x="69.06" y="412.54" textLength="3.25" class="f353" font-size="15.49"> </tspan>
<tspan x="72.31" y="412.54" textLength="283.87" class="f1489" font-size="15.49" dx="0,0,0,0,0,0,0,0,0,0,0,0.12,0,0,0,0,0,0,0,0,0,0,0,0,0,0,0,0,0,0,0,0,0,0,-0.46,0,0,0,0,0,0">| 24 PDF articles in individual downloads</tspan>
<tspan x="36.62" y="439.40" textLength="311.72" dx="0,0.1,0.1,0.1,0.1,0.1,0.1,0.1,0.1,-0.26,0.1,0.1,0.1,0.1,0.1,0.1,0.1,0.1,0.1,0.1,0.1,0.1,0.1,0.1,0.1,0.1,0.1,0.1,0.1,0.1,0.1,0.1,0.1,0.1,0.1,0.1,0.1,0.1,0.1,0.1,0.1,0.1,0.1,0.1,0.1,0.1,0.1,0.1,0.1,0.1,0.1,0.1,0.1,0.1,0.1,0.1,0.1,0.1,0.1,0.1,0.1,0.1,0.1,0.1,0.1,0.1,0.1,0.1,0.1,0.1,0.1,0.1,0.1,-0.35,0.19">Before &amp; After is issued one article at a time in a beautifully designed.  </tspan>
<tspan x="36.02" y="452.39" textLength="325.19" dx="0,0.1,0.1,0.1,0.1,0.1,0.1,0.1,0.1,0.1,0.1,0.1,0.1,0.1,0.1,0.1,0.1,0.1,0.1,0.1,0.1,0.1,0.1,0.1,0.1,0.1,0.1,0.1,0.1,-0.26,-0.26,-0.26,-0.08,0.1,0.1,0.1,0.1,0.1,0.1,0.1,0.1,0.1,0.1,0.1,0.1,0.1,0.1,0.1,0.1,0.1,0.1,0.1,0.1,0.1,0.1,0.1,0.1,0.1,0.1,0.1,0.1,0.1,0.1,0.1,0.1,0.1,0.1,0.1,0.1,0.1,0.1,0.1,0.1,0.1,0">A subscription is 24 articles. We e-mail you a notice each time we publish </tspan>
<tspan x="36.45" y="465.39" textLength="327.28" dx="0,0.1,0.1,0.1,0.1,0.1,0.1,0.1,0.1,0.1,0.1,0.1,0.1,-0.26,-0.26,0.1,0.1,0.1,0.1,0.1,0.1,0.1,0.1,0.1,0.1,0.1,0.1,0.1,0.1,0.1,0.1,0.1,0.1,0.1,0.1,0.1,0.1,0.1,0.1,-0.26,-0.26,-0.61,0.1,0.1,0.1,0.1,0.1,0.1,0.1,0.1,0.1,0.1,0.1,0.1,0.1,0.1,0.1,0.1,0.1,0.1,0.1,0.1,0.1,0.1,0.1,0.1,0.1,0.1,0.1,0.1,0.1,0.1,0.1,0.1,0">a new article, which you then download. You can read the article online in </tspan>
<tspan x="36.54" y="478.39" textLength="325.92" dx="0,0.1,0.1,0.1,0.1,0.1,0.1,0.1,0.1,0.1,0.1,0.1,0.1,0.1,0.1,0.1,0.1,0.1,0.1,0.1,0.1,0.1,0.1,0.1,0.1,0.1,0.1,0.1,-0.26,0.1,0.1,0.1,0.1,0.1,-0.26,0.1,0.1,0.1,0.1,0.1,0.1,0.1,0.1,0.1,0.1,0.1,0.1,0.1,0.1,0.1,0.1,-0.77,-0.26,-0.26,-0.08,0.1,0.1,0.1,0.1,0.1,0.1,0.1,0,0.1,0.1,0.1,0.1,0.1,0.1,0">your browser or onscreen in Adobe Acrobat or Reader. We encourage you </tspan>
<tspan x="36.42" y="491.38" textLength="318.4" dx="0,0.1,0.1,0.1,0.1,0.1,0.1,0.1,0.1,0.1,0.1,0.1,0.1,0.1,0.1,0.1,0.1,0.1,0.1,0.1,0.1,0.1,0.1,0.1,0.1,0.1,0.1,0.1,0.1,0.1,0.1,0.1,0.1,0.1,0.1,0.1,0.1,0.1,0.1,0.1,0.1,0.1,0.1,0.1,0.1,0.1,0.1,0.1,0.1,0.1,0.1,0.1,0.1,0.1,0.1,0.1,0.1,0.1,0.1,0.1,0.1,0.1,0.1,0.1,0.1,0.1,-0.26,-0.26,-0.26,-0.08,0.1,0.1,0.1,0.1,0.1,0">to print and save your articles in a binder for &#64257;ngertip reference. We will </tspan>
<tspan x="36.42" y="504.38" textLength="309.7" dx="0,0.1,0.1,0.1,0.1,0.1,0.1,0.1,0.1,0.1,0.1,0.1,0.1,0.1,0.1,0.1,0.1,0.1,0.1,0.1,0.1,0.1,0.1,0.1,0.1,0.1,0.1,0.1,0.1,0.1,0.1,0.1,0.1,0.1,0.1,0.1,0.1,-0.26,0.1,0.1,0.1,0.1,0.1,0.1,0.1,0.1,0.1,0.1,0.1,0.1,0.1,0.1,0.1,0.1,0.1,0.1,0.1,0.1,0.1,0.1,0.1,0.1,0.1,0.1,0.1,0.1,0.1,0.1,0.1,0.1,0.1">e-mail you a notice (or two) when it&#8217;s time to renew your subscription.</tspan></text><text class="f1491" font-size="9.50" style="fill:#231f20"><tspan x="429.43" y="413.54" textLength="17.06" class="f1484" style="fill:#ed1834" dx="0,0.1,0.1">$48</tspan>
<tspan x="446.59" y="413.54" textLength="2.81" class="f1484"> </tspan>
<tspan x="449.49" y="413.54" textLength="2.11">|</tspan>
<tspan x="451.70" y="413.54" textLength="117.2" class="f1484" dx="0,-0.26,-0.43,0.1,0.1,0.1,0.1,0.1,0.1,0.1,0.1,0.1,0.1,0.1,0.1,0.1,0.1,0.1,0.1,0.1,-0.26,0.1,0.1,0.1,0.1,0"> Available in print, too! </tspan>
<tspan x="429.43" y="426.54" textLength="159.5" dx="0,0.1,0.1,0.1,0.1,0.1,0.1,0.1,0.1,0.1,0.1,0.1,0.1,0.1,0.1,0.1,0.1,0.1,0.1,0.1,-0.26,-0.26,0.1,0.1,0.1,0.1,0.1,0.1,0.1,0.1,0.1,0.1,0.1,0.1,0.1,0.1,0.1,0.1,0">Every eight articles, we&#8217;ll mail you a </tspan>
<tspan x="429.43" y="439.53" textLength="164.65" dx="0,0.1,0.1,0.1,0.1,0.1,0.1,0.1,0.1,0.1,-0.26,0.1,0.1,0.1,0.1,0.1,0.1,0.1,0.1,0.1,0.1,0.1,0.1,0.1,0.1,0.1,0.1,0.1,0.1,0.1,0.1,0.1,0.1,0.1,0.1,0.1,0.1,0">beautiful, commercially printed issue </tspan>
<tspan x="429.43" y="452.53" textLength="152.13" dx="0,0.1,0.1,0.1,0.1,0.1,0.1,0.1,0.1,0.1,0.1,0.1,0.1,0.1,0.1,0.1,0.1,0.1,0.1,0.1,0.1,0.1,0.1,0.1,0.1,0.1,0.1,0.1,0.1,0.1,0.1,0.1,0.1,0.1,-0.77,-0.35">in high resolution on glossy paper, </tspan>
<tspan x="429.43" y="465.52" textLength="140.79" dx="0,0.1,0.1,0.1,0.1,0.1,0.1,0.1,0.1,0.1,0.1,0.1,0.1,0.1,0.1,0.1,0.1,0.1,0.1,0.1,0.1,0.1,0.1,0.1,0.1,0.1,0.1,0.1,0.1,-0.35">bound and three-hole punched. </tspan>
<tspan x="429.43" y="478.52" textLength="164.65" dx="0,0.1,0.1,0.1,0.1,0.1,0.1,0.1,0.1,0.1,0.1,0.1,0.1,0.1,0.1,0.1,0.1,0.1,0.1,0.1,0.1,0.1,0.1,0.1,0.1,0.1,0.1,0.1,0.1,0.1,0.1,0.1,0.1,0.1,0.1,0.1,0.1,0">Identical to the PDF subscription and </tspan>
<tspan x="429.43" y="491.52" textLength="136.19" dx="0,0.1,0.1,0.1,0.1,0.1,0.1,0.1,0.1,0.1,0.1,0.1,0.1,0.1,0.1,0.1,0.1,0.1,0.1,0.1,0.1,0.1,0.1,0.1,0.1,0.1,0.1,0.1,0.1,-0.26,-0.35,0.19">includes the PDF version free.  </tspan>
<tspan x="429.43" y="504.51" textLength="145.03" dx="0,0.1,0.1,0.1,0.1,0.1,0.1,0.1,0.1,0.1,0.1,0.1,0.1,0.1,0.1,0.1,-0.26,-0.26,0.1,0.1,0.1,0.1,0.1,0.1,0.1,0.1,0.1,0.1,0.1,0.1,0.1,0.1,0.1,0.1,0.1,-0.26">3 printed issues, 24 total articles.</tspan></text><path d="M396 402.69 l0 108.67 " style="stroke:#7b7979;stroke-width:0.25;"/><path d="M8.25 82.75 l774.75 0 l0 -14.75 l-774.75 0 l0 14.75 z " style="fill:#ffffff;"/>
</svg>
