
<?xml-stylesheet href="css/stylesheet.css" type="text/css"?>
<svg class="crocodoc-zYVf6P crocodoc-page-svg" version="1.1"
    xmlns="http://www.w3.org/2000/svg"
    xmlns:xlink="http://www.w3.org/1999/xlink"
    xml:space="preserve" width="792pt" height="612pt" viewBox="0 0 792 612">
<defs>
<mask id="Mask_212_13_zYVf6P">
<g ><image x="0.00" y="0.00" width="452.00" height="199.00" transform="matrix(0,0.24,-0.24,0,304.3392,377.4853)" xlink:href="images/779.jpeg" /></g></mask>
<clipPath id="Clip_227_13_zYVf6P"><path d="M264.46 480.75 l33.75 0 l0 -97.83 l-33.75 0 l0 97.83 " /></clipPath>
<clipPath id="Clip_935_13_zYVf6P"><path d="M735.11 599.51 l17.71 0 l0 -11.81 l-17.71 0 l0 11.81 " /></clipPath>
<clipPath id="Clip_948_13_zYVf6P"><path d="M760.89 599.27 l17.67 0 l0 -11.78 l-17.67 0 l0 11.78 " /></clipPath>
</defs>
<text class="f835" font-size="6.50" style="fill:#231f20" transform="matrix(0,1,-1,0,0,0)"><tspan x="245.60" y="-26.43" textLength="22.97" dx="0,0.12,0.12,0.12,0.12,0.12">Before</tspan>
<tspan x="268.68" y="-26.43" textLength="5.17" style="fill:#7a1d90">&amp;</tspan>
<tspan x="273.97" y="-26.43" textLength="4.93" style="fill:#ed1834">A</tspan>
<tspan x="279.02" y="-26.43" textLength="2.65" style="fill:#f36717">f</tspan>
<tspan x="281.79" y="-26.43" textLength="2.89" style="fill:#fcd205">t</tspan>
<tspan x="284.79" y="-26.43" textLength="4.1" style="fill:#179f50">e</tspan>
<tspan x="289.00" y="-26.43" textLength="2.89" style="fill:#0994dc">r</tspan>
<tspan x="292.00" y="-26.43" textLength="1.63"> </tspan>
<tspan x="294.04" y="-26.43" textLength="72.4" class="f833" dx="0,0.1,0.29,0.11,0.11,-0.48,0.11,0.11,0.11,0.11,0.11,0.11,0.11,0.11,0.11,0.11,-0.13,0.11,0.11,0.11">&#59915; www.bamagazine.com</tspan>
<tspan x="293.59" y="-12.05" textLength="6.88" font-size="8.00" dx="0,0.14">3 </tspan>
<tspan x="302.60" y="-12.05" textLength="15.97" class="f833" font-size="8.00" dx="0,0.14,0.14,2.14">of 4</tspan>
<tspan x="493.67" y="-26.67" textLength="67.27" style="fill:#7b7979" dx="0,0.06,0.06,0.06,0.06,0.06,0.06,0.06,0.06,0.06,0.36,0.06,0.06,0.06,0.06,0.36,0.06,0.06,0.06,0.06">Selecting text type </tspan>
<tspan x="562.61" y="-26.67" textLength="19.16" font-size="8.00" dx="0,0.07,0.07,0.07">0269</tspan>
<tspan x="30.77" y="-26.62" textLength="19.16" font-size="8.00" dx="0,0.07,0.07,0.07">0269</tspan>
<tspan x="50.00" y="-26.62" textLength="70.58" style="fill:#7b7979" dx="0,1.68,0.06,0.06,0.06,0.06,0.06,0.06,0.06,0.06,0.06,0.36,0.06,0.06,0.06,0.06,0.36,0.06,0.06,0.06,0.06"> Selecting text type </tspan></text><path d="M190.63 101.49 c0 10.11 8.2 18.31 18.31 18.31 c10.11 0 18.31 -8.2 18.31 -18.31 c0 -10.11 -8.2 -18.31 -18.31 -18.31 c-10.11 0 -18.31 8.2 -18.31 18.31 z " style="fill:#fff200;"/><path d="M229.64 152.23 c0 13.56 9.41 24.55 21.03 24.55 c11.61 0 21.03 -10.99 21.03 -24.55 c0 -13.56 -9.41 -24.55 -21.03 -24.55 c-11.61 0 -21.03 10.99 -21.03 24.55 z " style="fill:#fff200;"/><path d="M246.69 202.07 c0 8.24 6.68 14.92 14.92 14.92 c8.24 0 14.92 -6.68 14.92 -14.92 c0 -8.24 -6.68 -14.92 -14.92 -14.92 c-8.24 0 -14.92 6.68 -14.92 14.92 z " style="fill:#fff200;"/><path d="M252.31 252.42 c0 13.23 5.42 23.96 12.12 23.96 c6.69 0 12.12 -10.73 12.12 -23.96 c0 -13.23 -5.42 -23.96 -12.12 -23.96 c-6.69 0 -12.12 10.73 -12.12 23.96 z " style="fill:#fff200;"/><text class="f885" font-size="8.62" style="fill:#231f20" transform="matrix(0,1,-1,0,0,0)"><tspan x="76.78" y="-376.57" textLength="77.26" class="f835" font-size="7.90" dx="0,0,-0.29,0.07,-0.43,0,0,0,0,0,0,0,0,0,0,0,0,0,0">7. Avoid quirkiness</tspan>
<tspan x="154.04" y="-376.57" textLength="2.33" class="f835" font-size="9.33"> </tspan>
<tspan x="76.78" y="-365.08" textLength="186.39" dx="0,-0.72,0,0,0,0,-0.09,0,0,0,0,0,0,0,0,0.07,0,0,0,0,0,0,-0.17,0,0,0,0,0,0,0,0,0,0,0,0,0,0,0,0,0,0,0,0,0,0,-0.17,0,0,0,0">Typographic sprites are fun to look at and great  </tspan>
<tspan x="76.78" y="-353.60" textLength="193.95" dx="0,0,0,0,0,0,0,0,0,-0.09,0,0,0,0,0,0,0,0,0,0,0,0,0,0,0,0,0,0,0,-0.05,0,0,0,0,0,0,0,0,0,0,0,0,0,0,-0.05,0,0,0,0,0,0">for heads, but in text they wear out their welcome </tspan>
<tspan x="76.78" y="-342.11" textLength="190.09" dx="0,0,0,0,0,0,-0.52,0,0,0,0,-0.31,0,0,0,0,0,0,0,-0.09,0,0,0,0,0,0,0,0,0,0,0,0,0,0,0,-0.04,0,0,0,0,0,0,0,0,-0.05,0,0,0,0,0">fast. Why? The extra swashiness gives the eye too </tspan>
<tspan x="76.78" y="-330.63" textLength="127.45" dx="0,0,0,0,0,0,0,0,0,0,0,0,0,-0.26,0,0,0,0,0,0,0,0,0,-0.04,0,0.16,0,0,0,0,0.07,0,0,0">much to follow and is very tiring.</tspan></text><path d="M414.17 305.52 l-376.17 0 l0 276.48 l376.17 0 l0 -276.48 z " style="fill:#cdc4a8;"/><text class="f885" font-size="8.62" style="fill:#231f20" transform="matrix(0,1,-1,0,0,0)"><tspan x="340.64" y="-376.57" textLength="77.52" class="f835" font-size="7.90">Favorite text faces</tspan>
<tspan x="418.16" y="-376.57" textLength="2.33" class="f835" font-size="9.33"> </tspan>
<tspan x="340.64" y="-365.08" textLength="179.96" dx="0,0,0,0,0,0,0,0,0,0,0,0,0,0,0,0,0,0,0,0,0,0,0,0,0,0,0,0,0,0,0,-0.17,0,0,0,0,-0.17,0,0,0,0,0,0,0">While many typefaces meet the requirements  </tspan>
<tspan x="340.64" y="-353.60" textLength="190.2" dx="0,0,0,0,0,0,0,0,0,0,0,0,0,-0.73,0,0,-0.17,0,0,0,0,0,0,0,0,0,0,0,0,0,0,0,0,0,0,0,0,-0.73,0,0,0,0,0,0,0,0,0,0,-0.26,0,0,0,0">of legibility, readability and beauty, the following </tspan>
<tspan x="340.64" y="-342.11" textLength="153.27" dx="0,0,0,0,0,0,0,-0.17,0,0,0,0,0,0,0,0,0,0,0,-0.05,0,0,0,0,0.07,0,0,0,0,0,0,0,0,0,0,0,0,0,0,0">four are the ones we turn to most often:</tspan></text><text class="f1119" font-size="7.75" style="fill:#231f20" transform="matrix(0,1,-1,0,0,0)"><tspan x="131.83" y="-168.10" textLength="141.37" dx="0,-0.71,0,0,0,0,0,0,0,0,0,0,0,0,0,0,0,0,0,0,0,0,0,0,0,0,0,0,0,0,0,0,0,0,0,0,0,0,0,0,0,0,0,0">Texture and &#64258;asp net exating end mist of it </tspan>
<tspan x="131.83" y="-159.13" textLength="146.96" dx="0,0,0,0,0,0,0,0,0,0,0,0,0,0,0,0,0,0,0,0,0,0,0,0,0,-0.14,0,0,0,0,0,0,0,0,0,0,0,0,0,0,0,0,0,0,0,0,0,0">snooling. Spaff forl isn&#8217;t cubular but quastic; </tspan>
<tspan x="131.83" y="-150.16" textLength="139.79" dx="0,0,0,0,0,0,0,0,0,0,0,0,0,0,0,0,0,0,0,0,0,0,-0.14,0,0,0,0,0,0,0,0,0,0,0,0,-0.43,0,0,0,0,0,0,0,0,0,0,0,0">leam restart that can&#8217;t preast. It&#8217;s tope, this </tspan>
<tspan x="131.83" y="-141.19" textLength="142.1">&#64258;uant chasible. Silk, chast, lape and behast </tspan>
<tspan x="131.83" y="-132.21" textLength="144.67">the thin chack. It has larch to say fan. Why? </tspan>
<tspan x="131.83" y="-123.24" textLength="148.55">Elesara and order is fay of alm. A card whint </tspan>
<tspan x="131.83" y="-114.27" textLength="144.96">not ooum or bont. Pretty simple, glead and </tspan>
<tspan x="131.83" y="-105.30" textLength="23.67">tarm. T</tspan>
<tspan x="154.79" y="-105.28" textLength="113.96">exture and &#64258;asp end mist of it sno-</tspan>
<tspan x="131.83" y="-96.31" textLength="137.79">oling. Silk, shast, lape and behast the thin </tspan>
<tspan x="131.83" y="-87.34" textLength="148.98">chack. &#8220;It has larch to say fan.&#8221; Why? Elesara </tspan></text><path d="M289.77 340.72 l-88.31 0 l0 133.01 l88.31 0 l0 -133.01 z " style="fill:#ffffff;"/><text class="f988" font-size="7.90" style="fill:#231f20" transform="matrix(0,1,-1,0,0,0)"><tspan x="349.36" y="-275.07" textLength="106.98" dx="0,-0.75,0,0,0,0,-0.08,0,0,0,0,0,0,0,0,0,0,0,0,0,0,0,0,0,0,0,0,0,0,0,0,0,0">Texture and &#64258;asp net exating end </tspan>
<tspan x="349.36" y="-265.91" textLength="108.06" dx="0,0,0,0,0,0,0,0,0,0,0,0,0,0,0,0,0,0,0,-0.08,-0.24,0,0.12,0,0,0,0,0,0,0,0.16,0,0,0,0,-0.32,-0.36,0">mist of it snooling. Spaff forl isn&#8217;t </tspan>
<tspan x="349.36" y="-256.76" textLength="117.43" dx="0,0,0,0,0,0,0,0,0,0,0,0,0,0,0,0,0,0,0,0,-0.24,0,0,0,0,0,0,-0.08,0,0,0,0,0.1,0,0,0,0,0,0">cubular but quastic, leam restart that </tspan>
<tspan x="349.36" y="-247.60" textLength="106.1" dx="0,0.08,0,-0.32,-0.36,0,0,0,-0.08,0,0,0,0,0,-0.24,0,0,0.39,-0.47,0,0,0,0,0,-0.06,-0.24,0,0,0,0,0,0,0,0,0,0,0">can&#8217;t prebast. It&#8217;s tope, this &#64258;uant </tspan>
<tspan x="349.36" y="-238.45" textLength="115.59" dx="0,0.04,0,0,0,0,0,0,0,-0.24,0,0.12,0,0,0,-0.24,0,0,0,0,0,0,-0.24,0,0,0,0,0,0,0,0,0,0,0,0,0,0,0,0">chasible. Silk, shast, lape and behast </tspan>
<tspan x="349.36" y="-229.30" textLength="106.65" dx="0,0,0,0,0,0,0,0,0,0,0.04,0,0,0.08,0,-0.24,0,0,0,0,0,0,0,0,0,0,-0.08,0.04,0,0,0,0,0,0,-0.04,0">the thin chack. It has larch to say </tspan>
<tspan x="349.36" y="-220.14" textLength="110.48" dx="0,0,0,0,-0.24,-0.09,0.28,-0.08,0,0,0,0,0,0,0,0,0.04,0,0,0,0,0,0,0,-0.04,0,0,0,0,0,0,0,0,-0.04,0">fan. Why? Elesara and order is fay </tspan>
<tspan x="349.36" y="-210.99" textLength="113.11" dx="0,0,0,0,0,0,0,-0.24,0,0,0,0.08,0,-0.04,0,0,0,0,0,0,0,0,0,0,0,0,0,0,0,0,0,0,0,0">of alm. A card whint not oogum or </tspan></text>
<g mask="url(#Mask_212_13_zYVf6P)" ><path d="M304.34 377.49 l0 108.48 l-47.76 0 l0 -108.48 l47.76 0 " style="fill:#231f20;fill-opacity:0.45;blend-mode:multiply;"/></g><path d="M301.08 382.74 l-37.34 0 l0 98.01 l37.34 0 l0 -98.01 z " style="fill:#fbf9e6;"/>
<g clip-path="url(#Clip_227_13_zYVf6P)" ><text class="f988" font-size="15.08" style="fill:#231f20" transform="matrix(0,1,-1,0,0,0)"><tspan x="372.18" y="-286.58" textLength="186.53" dx="0,-1.58,-0.15,-0.15,-0.15,-0.15,-0.3,-0.15,-0.09,-0.15,-0.15,-0.15,-0.09,-0.15,-0.15,-0.15,-0.15,-0.09,-0.15,-0.15,-0.15,-0.24,-0.15,-0.15,-0.15,-0.15,-0.15,-0.09,-0.15,-0.15,-0.15">Texture and &#64258;asp net ating end </tspan>
<tspan x="373.79" y="-270.43" textLength="172.85" dx="0,-0.15,-0.15,-0.15,-0.15,-0.39,-0.15,-0.15,-0.09,-0.15,-0.15,-0.54,-0.15,-0.15,-0.15,-0.15,-0.15,-0.15,-0.15,-0.3,-0.6,-0.47,0.08,-0.15,-0.15,-0.15,-0.15,-0.09,-0.15,-0.15,0.15,-0.15">mist of it snooling. Spaff forl </tspan></text></g><path d="M177.57 340.65 l0 49.63 " style="stroke:#176fc0;stroke-width:0.34;"/><text class="f835" font-size="6.82" style="fill:#231f20" transform="matrix(0,1,-1,0,0,0)"><tspan x="340.65" y="-178.25" textLength="49.57" style="fill:#176fc0" dx="0,0.06,0.06,0.06,0.06,0.06,0.38,0.06,0.06,0.06,0.06,0.06">Adobe Caslon</tspan>
<tspan x="390.27" y="-178.25" textLength="1.71"> </tspan>
<tspan x="392.35" y="-178.25" textLength="45.53" class="f833" dx="0,0.06,0.05,0.05,0.05,0.05,0.05,0.05,0.05,0.05,0.25,0.05,0.05,0.05,0.25,0.28">(11/12.75 pt)   </tspan></text><text class="f833" font-size="6.82" style="fill:#231f20" transform="matrix(0,1,-1,0,0,0)"><tspan x="341.08" y="-168.92" textLength="131.55" dx="0,0.05,0.05,0.05,0.05,0.05,0.25,0.05,0.05,0.05,0.05,0.05,0.05,0.25,0.05,0.05,0.05,0.25,0.05,0.05,0.05,0.05,-0.2,-0.2,0.25,0.05,0.05,0.05,0.05,0.05,0.05,0.25,0.05,0.05,0.05,0.25,0.05,0.05,0.25,0.05,0.05,0.05">First choice for books, Caslon may be the </tspan></text><text class="f833" font-size="6.82" style="fill:#231f20" transform="matrix(0,1,-1,0,0,0)"><tspan x="341.08" y="-159.59" textLength="135.53" dx="0,0.05,0.05,0.05,0.05,0.05,0.25,0.05,0.05,0.05,0.05,0.05,0.05,0.05,0.05,-0.2,0.05,0.25,0.05,0.05,0.05,0.05,0.25,0.05,0.05,0.05,0.05,0.05,0.05,0.05,0.05,0.25,0.05,0.05,0.05,0.05,0.05,0.05,0.05,-0.2,-0.2">Roman alphabet&#8217;s most readable typeface. </tspan></text><text class="f833" font-size="6.82" style="fill:#231f20" transform="matrix(0,1,-1,0,0,0)"><tspan x="341.07" y="-150.26" textLength="131.41" dx="0,0.05,0.05,0.05,0.25,0.05,0.05,0.05,0.05,0.05,0.05,0.05,0.25,0.05,0.05,0.05,0.05,0.05,0.05,0.25,0.05,0.05,0.05,0.05,0.05,0.05,0.05,0.05,0.05,-0.2,0.25,0.05,0.05,0.05,0.25,0.05,0.05,0.05,0.05,0.05,0.05,0.25,0.05,0.05,0.05,0.05">Its letters aren&#8217;t beautiful, but strung into </tspan></text><text class="f833" font-size="6.82" style="fill:#231f20" transform="matrix(0,1,-1,0,0,0)"><tspan x="341.02" y="-140.93" textLength="127.2" dx="0,0.05,0.05,0.05,0.05,0.05,0.05,0.05,0.05,0.05,0.25,0.05,0.05,0.05,0.25,0.05,0.05,-0.01,0.05,0.05,-0.01,0.05,0.05,0.05,0.05,0.25,0.05,0.05,0.05,0.05,0.25,0.05,0.05,0.05,0.05,0.25,0.05,0.05,-0.2">sentences and paragraphs they have &#64257;t, </tspan></text><text class="f833" font-size="6.82" style="fill:#231f20" transform="matrix(0,1,-1,0,0,0)"><tspan x="340.93" y="-131.60" textLength="133.63" dx="0,0.05,0.05,0.05,0.05,0.05,0.05,-0.2,-0.2,0.25,0.05,0.05,0.05,-0.2,-0.2,0.25,0.05,0.05,0.05,0.25,0.05,0.05,0.05,0.25,0.05,0.05,0.25,0.05,0.05,0.05,0.05,0.25,0.05,0.05,0.05,0.05,0.05,0.05,0.05,0.05,0.05,0.05,0.05">texture, bite, and can be read comfortably </tspan></text><text class="f833" font-size="6.82" style="fill:#231f20" transform="matrix(0,1,-1,0,0,0)"><tspan x="341.06" y="-122.27" textLength="129.92" dx="0,0.05,0.05,0.05,0.25,0.05,0.05,0.05,0.05,-0.2,-0.2,0.25,0.05,0.05,0.05,0.05,0.05,0.05,0.25,0.05,0.05,0.05,0.05,0.25,0.05,0.05,0.05,0.05,0.05,0.05,0.05,0.05,0.05,0.25,0.05,0.05,0.05,0.05,0.25,0.05,0.05,0.05">for hours. Caslon will withstand even the </tspan></text><text class="f833" font-size="6.82" style="fill:#231f20" transform="matrix(0,1,-1,0,0,0)"><tspan x="340.93" y="-112.93" textLength="50.3" dx="0,0.05,0.05,0.05,0.05,0.05,0.05,0.05,0.05,0.25,0.05,0.05,0.05,0.05,0.05,0.05,-0.07">tightest leading.</tspan></text><text class="f1119" font-size="100.52" style="fill:#4e342c" transform="matrix(0,1,-1,0,0,0)"><tspan x="72.75" y="-218.13" textLength="201.44" dx="0,0.7,0.7,8.24">gkrv</tspan></text>
<g style="blend-mode:multiply;" ><path d="M206.66 131.53 l-17.28 0 l0 124.57 l17.28 0 l0 -124.57 z " style="fill:#ffffff;fill-opacity:0.00;"/><path d="M200.55 234.16 l0 19.25 " style="stroke:#176fc0;stroke-width:0.34;"/><text class="f833" font-size="6.82" style="fill:#231f20" transform="matrix(0,1,-1,0,0,0)"><tspan x="131.94" y="-201.23" textLength="101.86" class="f835" dx="0,0.06,0.06,0.06,-0.19,0.38,0.06,0.06,0.06,0.38,0.06,0.06,0.06,0.38,0.06,0.06,0.06,0.06,0.06,0.06,0.38,0.06,0.06,0.06,0.38,0.06,0.06,0.06,0.06,0.38">Fun, but too quirky for text  </tspan>
<tspan x="234.15" y="-201.23" textLength="19.18" style="fill:#176fc0" dx="0,0.05,0.05,0.05,0.05">Belwe</tspan></text></g><path d="M571.4 427.34 c0 12.49 10.13 22.62 22.62 22.62 c12.49 0 22.62 -10.13 22.62 -22.62 c0 -12.49 -10.13 -22.62 -22.62 -22.62 c-12.49 0 -22.62 10.13 -22.62 22.62 z " style="fill:#e6ecb3;"/><path d="M571.4 489.08 c0 12.49 10.13 22.62 22.62 22.62 c12.49 0 22.62 -10.13 22.62 -22.62 c0 -12.49 -10.13 -22.62 -22.62 -22.62 c-12.49 0 -22.62 10.13 -22.62 22.62 z " style="fill:#e6ecb3;"/><path d="M571.4 361.03 c0 12.49 10.13 22.62 22.62 22.62 c12.49 0 22.62 -10.13 22.62 -22.62 c0 -12.49 -10.13 -22.62 -22.62 -22.62 c-12.49 0 -22.62 10.13 -22.62 22.62 z " style="fill:#e6ecb3;"/><text class="f1057" font-size="93.68" style="fill:#616e4e" transform="matrix(0,1,-1,0,0,0)"><tspan x="330.15" y="-568.62" textLength="191.47" dx="0,0.28,0.28">abg</tspan></text><text class="f885" font-size="8.62" style="fill:#231f20" transform="matrix(0,1,-1,0,0,0)"><tspan x="76.78" y="-742.91" textLength="97.62" class="f835" font-size="7.90" dx="0,0,-0.29,0.07,-0.2,0,0,0,0,0,0,0,0,0,0,0,0,0,0,0,0,0,0,0">5. Watch out for mirrors</tspan>
<tspan x="174.41" y="-742.91" textLength="2.33" class="f835" font-size="9.33"> </tspan>
<tspan x="76.78" y="-731.43" textLength="180.68" dx="0,0.04,0,0,0,0,0,0.07,0,0,0,0,0,0,0,0,0,0,0,0,0,0,0,-0.17,0,0,0,0,0,0,0,0,0,0,0.07,0,0,0,0,0,0,0,0,0,0,0,0">Geometric typestyles are so uniform that their </tspan>
<tspan x="76.78" y="-719.94" textLength="195.24" dx="0,0,0,0,0,0,0,0,0,0,-0.17,0,0,0,0,0,0,0,0,0,0,0,-0.05,0,0,0,0,0,0,0,0,-0.17,0,0,-0.31,0,0,0,0,0,0,0,0,0,0,0,0,0,0,0,0,0,0,0,0">letters are often mirror images. For text, this is not </tspan>
<tspan x="76.78" y="-708.46" textLength="186.33" dx="0,0,0,0,0,0,0,0,0,0,0,0,0,-0.17,0,0,0,0,0,0,0,0,0,0,0,0,0,0,0,0,0,0,0,0,0,0,0,0,-0.09,0,0,0,0,0,0,0,0,-0.17,0">ideal&#8212;the more distinct each letter is, the more </tspan>
<tspan x="76.78" y="-696.97" textLength="183.34" dx="0,0,0,0,0,0,0,0,0,0,0,0,0,0,0,0,0,-0.17,0,0,0,0,0,0,0,0,0,-0.17,0,0,0,0,0,0,0,0,0,0,0,0,0,0,0,0,0,0,0,0,0">legible whole words will be. Look for typestyles </tspan>
<tspan x="76.78" y="-685.49" textLength="66.22" dx="0,0,0,0,0,0,0,0,-0.69,-0.65,0,0,0,0,0,-0.05,0,-0.52">that don&#8217;t mirror.</tspan></text><path d="M750.36 305.81 l-318.02 0 " style="stroke:#918f8f;stroke-width:0.25;"/><text class="f1087" font-size="96.93" style="fill:#57222b" transform="matrix(0,1,1,0,0,0)"><tspan x="225.01" y="618.15" textLength="57.48">b</tspan></text><text class="f1087" font-size="96.93" style="fill:#57222b" transform="matrix(0,-1,1,0,0,0)"><tspan x="-229.12" y="618.15" textLength="57.48">b</tspan></text><text class="f1087" font-size="96.93" style="fill:#57222b" transform="matrix(0,1,-1,0,0,0)"><tspan x="112.09" y="-568.24" textLength="57.48">b</tspan></text><text class="f1087" font-size="96.93" style="fill:#57222b" transform="matrix(0,-1,-1,0,0,0)"><tspan x="-116.20" y="-568.24" textLength="57.48">b</tspan></text><path d="M592.54 92.4 l0 39.68 " style="stroke:#231f20;stroke-width:0.36;stroke-dasharray:1.4696882746,1.4696882746;"/><path d="M592.54 135.48 l1.65 -4.54 l-1.65 1.14 l-1.65 -1.14 l1.65 4.54 " style="fill:#231f20;"/><path d="M591.46 207.09 l0 38.07 " style="stroke:#231f20;stroke-width:0.36;stroke-dasharray:1.4100966152,1.4100966152;"/><path d="M591.46 248.56 l1.65 -4.54 l-1.65 1.14 l-1.65 -1.14 l1.65 4.54 " style="fill:#231f20;"/><text class="f885" font-size="8.62" style="fill:#231f20" transform="matrix(0,1,-1,0,0,0)"><tspan x="340.64" y="-742.91" textLength="112.04" class="f835" font-size="7.90" dx="0,0,-0.29,0.07,-0.43,0,0,0,0,0,0,0,0,0,0,0,0,0,0,0,0,0,0,0,0,0,0">6. Avoid overlarge counters</tspan>
<tspan x="452.68" y="-742.91" textLength="2.33" class="f835" font-size="9.33"> </tspan>
<tspan x="340.64" y="-731.42" textLength="184.92" dx="0,-0.1,0,0,0,0,0,0,0,0,0,-0.17,0,0,0,0,0,0,0,0,0,0,0,0,0,0,0,0,0,0,0,0,0,0,0,0,0,0,0,0,0,0,0,0,0,0,0,-0.17,0">Counters are the enclosed spaces inside letters. </tspan>
<tspan x="340.64" y="-719.94" textLength="191.02" dx="0,-0.52,-0.04,0,0,0,0,0,0,0,0,0,0,0,0,0,0,0,0,0,0,0,0,0,0,0,0,0,0,0,0,0,0,0,-0.17,0,0,-0.04,0,0.16,0,0,0,0,-0.05,0,0,0,0,0">Avoid typestyles whose counters are very large in </tspan>
<tspan x="340.64" y="-708.45" textLength="190.17" dx="0,-0.17,0,0,0,0,0,0,0,0,0,0,0,0,0,0,0,0,0,-0.05,0,0,0,0,-0.05,0,0,0,0,0,0,0,-0.16,0,0,0,0,0,0,0,0,0,0,0,0,0,0,-0.52,-0.05,0,0,0">relation to the stroke weight. In the case of Avant </tspan>
<tspan x="340.64" y="-696.97" textLength="189.72" dx="0,-0.1,0,-0.17,0,0,0,0,0,0,0,-0.26,0,0,0,0,0,0,0,0,0,0,-0.26,0,0,0,0,0,0,0,0,-0.17,0,0,0,0,0,0,0,0,0,0,0,0,0,0,0">Garde (below), note how much greater the space </tspan>
<tspan x="340.64" y="-685.48" textLength="200.66" dx="0,0,0,0,0,0,0,0,0,0,0,0,0,0,0,0,0,0,0,0,0,0,0,0,0,0,0,0,0,0,0,0,0,0,0,0,0,0,0,0,0,0,0,0,0,0,-0.31,0,0,0,0,0,0,0,0,0">inside the letters is than the space outside! This will </tspan>
<tspan x="340.64" y="-674.00" textLength="191.33" dx="0,0,0,-0.26,0,0,0,0,0,0,-0.17,0,0,0,0,0.09,0,0,0,0,0,0,0,0,0,0,0,0,0,0,0,0,0,0,0,0,0,0,0,0,-0.52,-0.05,0,0,0,0,-0.1,0,-0.17,0,0">slow the reader; set in text (bottom), Avant Garde </tspan>
<tspan x="340.64" y="-662.52" textLength="89.96" dx="0,0,0,0,0,0,0,0,0,0,0,0,-0.26,0,0,0,0,0,0,0,0,0,0,0">looks like Swiss cheese!</tspan></text><path d="M628.73 334.98 c-12.92 -1.62 -21.54 4.23 -23.69 16.15 " style="stroke:#231f20;stroke-width:0.36;"/><path d="M604.44 354.48 l2.43 -4.18 l-1.83 0.83 l-1.42 -1.42 l0.82 4.76 " style="fill:#231f20;"/><text class="f1057" font-size="7.11" style="fill:#231f20" transform="matrix(0,1,-1,0,0,0)"><tspan x="340.53" y="-515.52" textLength="181.14" dx="0,-0.35,0,0,0,0,-0.03,0,0,0,0,0,0,0,0,0,0,0,0,0,0,0,0,0,0,0,0,0,0,0,0,0,0,0,0,0,0,0,0,0,0,0,0,0,0,0,0,0,0,0,0,0,0,0,0">Texture and &#64258;asp net exating end mist of it snooling.  </tspan>
<tspan x="340.96" y="-506.54" textLength="198.12" dx="0,0,0,0,0.03,0,0,0,0,0,0,0,0,0,0,0,0,0,0,0,0,0,0,0,0,0,0,0,0,0,0,0,0,0,0,0,0,0,0,0,0,0,0,0,-0.03,0,0,0,0,0,0,0,0,0,0,0,0,0,0,0,0,0">Spaff forl isn&#8217;t cubular but quastic, leam restart that can&#8217;t </tspan>
<tspan x="341.05" y="-497.56" textLength="181.78" dx="0,0,-0.03,0,0,0,0,0,0,0,0,0,0,0,0,0,0,0,0,0,0,0,0,0,0,0,0,0,0,0,0,0,0,0,0,0,0,0,0,0,0,0,0,0,0,0,0,0,0,0,0,0,0,0,0,0,0,0,0">prebast. It&#8217;s tope, this &#64258;uant chasible. Silk, shast, lape </tspan>
<tspan x="340.71" y="-488.58" textLength="193.62" dx="0,0,0,0,0,0,0,0,0,0,0,0,0,0,0,0,0,0,0,0,0,0,0,0,0,0,0,0,0,0,0,0,0,0,0,0,0,-0.05,0,0,0,0,0,0,0,0,0,0,0,0,0,0,0,0,0,0,0">and behast the thin chack. It has larch to say fan. Why? </tspan>
<tspan x="340.96" y="-479.61" textLength="193.97" dx="0,0,0,0,0,0,0,0,0,0,0,0,0,0,-0.04,0,0,0,0,0,0,0,0,0,0,0,0,0,0,0,0,0,0,0,0,0,0,0,-0.04,0,0,0,0,0,0,0,0,0,0,0,0,0,0,0,0,0">Elesara and order is fay of alm. A card whint not oogum </tspan>
<tspan x="340.71" y="-470.63" textLength="194.96" dx="0,0,0,0,0,0,0,0,0,0,0,-0.03,0,0,0,0,0,0,0,0,0,0,0,0,0,0,0,0,0,0,0,0,0,0,0,0,0,0.2,0,0,0,-0.35,0,0,0,0,-0.03,0,0,0,0,0,0,0,0,0,0">or bont. Pretty simple, glead and tarm. Texture and &#64258;asp </tspan>
<tspan x="341.05" y="-461.65" textLength="188.98">net exating end mist of it. Forl isn&#8217;t cubular but quastic, </tspan>
<tspan x="341.14" y="-452.68" textLength="21.67">leam r</tspan>
<tspan x="362.78" y="-452.69" textLength="158.67" dx="0,0,0,0,0,0,0,0,0,0,0,0,0,0,0,0,0,0,0,0,-0.03,0,0,0,0,0,0,0,0,0,0,0,0,0,0,0,0,0,0,0,0,0,0,0,0,0">estart that can&#8217;t prebast. Whint not oogum or </tspan>
<tspan x="341.06" y="-443.71" textLength="186.16" dx="0,0,0,0,0,0,0,0,-0.03,0,0,0,0,0,0,0,0,0,0,0,0,0,0,0,0,0,0,0,0,0,0,0,0,0,0.2,0,0,0,-0.35,0,0,0,0,-0.03,0,0,0,0,0,0,0,0,0,0,0,0,0">bont! Pretty simple, glead and tarm. Texture &#64258;asp. Silk, </tspan>
<tspan x="341.02" y="-434.74" textLength="177.03" dx="0,0,0,0,0,0,0,0,0,0,0,0,0,0,0,0,0,0,0,0,0,0,0,0,0,0,0,0,0,0,0,0,0,0,0,0,0,0,0,0,0,0,0,0,0,0,0,0,0,0,-0.05,0,0">shast, lape and behast the thin chack. &#8220;It has larch </tspan></text><path d="M453.06 77.41 c0 4.08 3.31 7.39 7.39 7.39 c4.08 0 7.38 -3.31 7.38 -7.39 c0 -4.08 -3.31 -7.39 -7.38 -7.39 c-4.08 0 -7.39 3.31 -7.39 7.39 z " style="fill:#fff200;"/><path d="M498.77 127.73 c0 4.08 3.31 7.39 7.39 7.39 c4.08 0 7.38 -3.31 7.38 -7.39 c0 -4.08 -3.31 -7.39 -7.38 -7.39 c-4.08 0 -7.39 3.31 -7.39 7.39 z " style="fill:#fff200;"/><path d="M453.15 81.91 c-1.44 2.87 -3.5 12.7 -2.3 19.88 " style="stroke:#231f20;stroke-width:0.36;"/><path d="M454.67 78.88 l-3.51 3.32 l1.99 -0.28 l0.97 1.76 l0.55 -4.8 " style="fill:#231f20;"/><text class="f1084" font-size="107.69" style="fill:#b2b1b1" transform="matrix(0,-1,-1,0,0,0)"><tspan x="-174.86" y="-458.49" textLength="53.85">q</tspan></text><text class="f1084" font-size="107.69" style="fill:#b2b1b1" transform="matrix(0,1,-1,0,0,0)"><tspan x="70.81" y="-457.78" textLength="53.85">b</tspan></text><path d="M511.12 158.09 l0 -21.91 " style="stroke:#231f20;stroke-width:0.36;"/><path d="M511.12 132.78 l-1.65 4.54 l1.65 -1.14 l1.65 1.14 l-1.65 -4.54 " style="fill:#231f20;"/>
<g style="blend-mode:multiply;" ><path d="M555.44 76.78 l-11.87 0 l0 129.77 l11.87 0 l0 -129.77 z " style="fill:#ffffff;fill-opacity:0.00;"/><path d="M549.32 113.13 l0 71.27 " style="stroke:#176fc0;stroke-width:0.34;"/><text class="f833" font-size="6.82" style="fill:#231f20" transform="matrix(0,1,-1,0,0,0)"><tspan x="77.16" y="-550.00" textLength="35.6" class="f835" dx="0,0.06,0.06,0.06,0.06,0.06,0.06,0.06,0.06,0.38">Mirrored  </tspan>
<tspan x="113.13" y="-550.00" textLength="71.17" style="fill:#176fc0" dx="0,0.05,0.05,0.05,0.05,0.05,0.05,0.05,0.05,0.05,0.25,0.05,0.05,0.05,0.05,0.25,0.05,0.05,0.05,0.05">&#59909;elvetica &#59911;eue Roman</tspan>
<tspan x="184.40" y="-550.00" textLength="3.66" dx="0,0.25">  </tspan></text></g>
<g style="blend-mode:multiply;" ><path d="M440.9 76.78 l-11.87 0 l0 129.77 l11.87 0 l0 -129.77 z " style="fill:#ffffff;fill-opacity:0.00;"/><path d="M434.78 140.66 l0 26.56 " style="stroke:#176fc0;stroke-width:0.34;"/><text class="f833" font-size="6.82" style="fill:#231f20" transform="matrix(0,1,-1,0,0,0)"><tspan x="77.20" y="-435.46" textLength="63.1" class="f835" dx="0,0.06,0.06,0.06,0.38,0.06,0.06,0.06,0.06,0.06,0.06,0.06,0.06,0.38,0.38,0.38,0.38,0.38,0.38,0.38">Not mirrored        </tspan>
<tspan x="140.66" y="-435.46" textLength="26.48" style="fill:#176fc0" dx="0,0.05,0.05,0.05,0.05,0.25,0.05,0.05,0.05">Gill Sans</tspan></text></g>
<g style="blend-mode:multiply;" ><path d="M555.44 340.45 l-20.49 0 l0 203 l20.49 0 l0 -203 z " style="fill:#ffffff;fill-opacity:0.00;"/><path d="M539.99 340.8 l0 72.53 " style="stroke:#176fc0;stroke-width:0.34;"/><text class="f835" font-size="6.82" style="fill:#231f20" transform="matrix(0,1,-1,0,0,0)"><tspan x="340.68" y="-550.00" textLength="75.04" dx="0,0.06,0.06,0.06,0.06,0.06,0.06,0.06,0.06,0.06,0.38,0.06,0.06,0.06,0.06,0.06,0.06,0.06,0.06,0.38,0.36">&#59908;verlarge counters   </tspan></text><text class="f833" font-size="6.82" style="fill:#176fc0" transform="matrix(0,1,-1,0,0,0)"><tspan x="340.80" y="-540.67" textLength="72.43" dx="0,0.05,0.05,0.05,-0.01,-0.07,0.05,0.05,0.05,0.05,0.25,0.05,0.05,0.05,0.05,0.05,0.25,0.05,0.05,0.05,0.05,0.05">ITC Avant Garde Gothic</tspan></text></g><path d="M414.16 30 l0 551.98 " style="stroke:#918f8f;stroke-width:0.25;"/><path d="M38.02 30.01 l0 551.97 " style="stroke:#918f8f;stroke-width:0.35;"/>
<g clip-path="url(#Clip_935_13_zYVf6P)" ><text class="f885" font-size="11.81" style="fill:#231f20" transform="matrix(-1,0,0,-1,0,0)"><tspan x="-751.19" y="-589.63" textLength="2.66"> </tspan></text><text class="f1468" font-size="14.61" style="fill:#918f8f" transform="matrix(-1,0,0,-0.7407,0,0)"><tspan x="-749.72" y="-797.32" textLength="14.61">&#57513;</tspan></text></g>
<g clip-path="url(#Clip_948_13_zYVf6P)" ><text class="f885" font-size="11.78" style="fill:#231f20"><tspan x="762.51" y="597.35" textLength="2.65"> </tspan></text><text class="f1468" font-size="14.58" style="fill:#918f8f" transform="matrix(1,0,0,0.7407,0,0)"><tspan x="763.98" y="805.10" textLength="14.58">&#57513;</tspan></text></g>
</svg>
