
<?xml-stylesheet href="css/stylesheet.css" type="text/css"?>
<svg class="crocodoc-zYVf6P crocodoc-page-svg" version="1.1"
    xmlns="http://www.w3.org/2000/svg"
    xmlns:xlink="http://www.w3.org/1999/xlink"
    xml:space="preserve" width="792pt" height="612pt" viewBox="0 0 792 612">
<defs>
<mask id="Mask_107_6_zYVf6P">
<g ><image x="133.74" y="37.36" width="58.32" height="51.36" preserveAspectRatio="none" xlink:href="images/959.jpeg" /></g></mask>
<clipPath id="Clip_119_6_zYVf6P"><path d="M133.2 42.44 l4.63 44.09 l54.03 -5.68 l-4.63 -44.09 l-54.03 5.68 z " /></clipPath>
<clipPath id="Clip_120_6_zYVf6P"><path d="M138 44.36 l-0.41 0.54 c0 0 0.01 0.23 0.07 0.79 c0.25 4.52 1.79 20.74 2.38 24.51 c0.4 3.09 0.88 7.67 0.88 7.67 l0.91 5.96 l0.9 -0.24 l1.84 -0.76 c0 0 0.36 0.03 0.78 -0.01 c0.42 -0.04 1.35 0 1.35 0 l0.63 -0.07 l0.42 -0.04 l0.84 -0.16 c0 0 6.13 -1.29 8.75 -2.13 c2.62 -0.84 5.75 -2.17 6.51 -3.11 c0.76 -0.93 0.71 -1.36 0.71 -1.36 c0 0 1.79 2.8 9.15 3.03 c7.36 0.22 8.07 0.22 8.07 0.22 c0 0 2.25 -0.24 3.02 -0.39 c0.77 -0.15 1.61 -0.24 1.61 -0.24 l1.97 0.43 c0 0 -1.4 -17.5 -1.69 -20.25 c-0.29 -2.75 -2.21 -19.32 -2.21 -19.32 c0 0 -0.87 0.05 -2.72 0.6 c-1.93 0.63 -5.22 1.48 -5.22 1.48 c0 0 -7.32 1.36 -8.78 1.72 c-1.46 0.37 -4.15 1.08 -5.81 2.44 c-0.5 -0.02 -0.6 0.07 -0.6 0.07 c0 0 -3.14 -1.03 -5.49 -1.07 c-2.35 -0.04 -8.53 0.11 -8.53 0.11 l-9.34 -0.44 z " /></clipPath>
<clipPath id="Clip_121_6_zYVf6P"><path d="M133.2 42.44 l4.63 44.09 l54.02 -5.68 l-4.63 -44.09 l-54.02 5.68 z " /></clipPath>
<clipPath id="Clip_121_6_zYVf6P_2"><path d="M137.59 83.83 l50.8 0 l0 -44.4 l-50.8 0 l0 44.4 " /></clipPath>
<mask id="Mask_250_6_zYVf6P">
<g ><image x="497.63" y="223.24" width="147.12" height="62.64" preserveAspectRatio="none" xlink:href="images/1110.jpeg" /></g></mask>
<clipPath id="Clip_265_6_zYVf6P"><path d="M503.13 277.5 l136.25 0 l0 -47 l-136.25 0 l0 47 " /></clipPath>
</defs>
<path d="M20 36 c0 0 -8 0 -8 8 c0 0 0 26 0 26 c0 0 0 8 8 8 c0 0 124.25 0 124.25 0 c0 0 8 0 8 -8 c0 0 0 -26 0 -26 c0 0 0 -8 -8 -8 c0 0 -124.25 0 -124.25 0 z " style="fill:#231f20;"/><path d="M325.75 36 c0 0 -8 0 -8 8 c0 0 0 26 0 26 c0 0 0 8 8 8 c0 0 446.25 0 446.25 0 c0 0 8 0 8 -8 c0 0 0 -26 0 -26 c0 0 0 -8 -8 -8 c0 0 -446.25 0 -446.25 0 z " style="fill:#9c9a9b;"/><text class="f835" font-size="12.50" style="fill:#f4f4f4"><tspan x="48.81" y="61.13" textLength="41.49" dx="0,-0.31,-0.31,-0.31,-0.31,-0.31">Before</tspan>
<tspan x="89.97" y="61.13" textLength="9.95" style="fill:#a665b9">&amp;</tspan>
<tspan x="99.61" y="61.13" textLength="9.49" style="fill:#ef2c3c">A</tspan>
<tspan x="108.78" y="61.13" textLength="5.09" style="fill:#f36717">f</tspan>
<tspan x="113.56" y="61.13" textLength="5.55" style="fill:#fcd205">t</tspan>
<tspan x="118.80" y="61.13" textLength="7.88" style="fill:#179f50">e</tspan>
<tspan x="126.36" y="61.13" textLength="7.72" style="fill:#44aae4" dx="0,-0.95">r </tspan></text><path d="M141.5 69 l0 -33 " style="stroke:#ffffff;stroke-width:1.00;"/><text class="f851" font-size="4.00" style="fill:#f4f4f4"><tspan x="131.72" y="61.47" textLength="3.2">&#174;</tspan></text><path d="M141.75 36 l0 42 l210.75 0 l0 -42 l-210.75 0 z " style="fill:#9a97b6;"/><text class="f885" font-size="12.00" style="fill:#231f20"><tspan x="192.87" y="61.22" textLength="117.49" dx="0,-0.14,0,0,0,0,0,0,0,0,0,0,0,0,0,0,0,0,0,0,0,0,0,0,0,0">Selecting text type       </tspan>
<tspan x="310.36" y="61.22" textLength="7.2" class="f899" style="fill:#ffffff">6</tspan>
<tspan x="317.56" y="61.22" textLength="2.7"> </tspan>
<tspan x="320.26" y="61.22" textLength="10.22" class="f914">of</tspan>
<tspan x="330.49" y="61.22" textLength="10.62" dx="0,1.56"> 8</tspan></text><path d="M301.68 45.91 l0 15.99 " style="stroke:#ffffff;stroke-width:0.83;stroke-linecap:round;"/><path d="M352.65 36 l0 32 " style="stroke:#ffffff;stroke-width:1.10;"/><text class="f1477" font-size="18.00" style="fill:#ffffff"><tspan x="720.66" y="59.99" textLength="17.5">X</tspan></text><path d="M689.87 45.91 l0 15.99 " style="stroke:#ffffff;stroke-width:0.83;stroke-linecap:round;"/><path d="M716.2 45.91 l0 15.99 " style="stroke:#ffffff;stroke-width:0.83;stroke-linecap:round;"/><path d="M742.95 45.91 l0 15.99 " style="stroke:#ffffff;stroke-width:0.83;stroke-linecap:round;"/><path d="M769.69 45.91 l0 15.99 " style="stroke:#ffffff;stroke-width:0.83;stroke-linecap:round;"/><path d="M664.04 45.91 l0 15.99 " style="stroke:#ffffff;stroke-width:0.83;stroke-linecap:round;"/><text class="f1477" font-size="20.00" style="fill:#ffffff"><tspan x="672.73" y="59.48" textLength="5.89" class="f897" font-size="18.00">i</tspan>
<tspan x="585.74" y="56.95" textLength="69.59" class="f835" font-size="7.94" dx="0,-0.08,-0.08,-0.08,-0.08,-0.08,-0.08,-0.08,-0.08,-0.08,-0.48,-0.08,-0.08,-0.08">BAmagazine.com</tspan>
<tspan x="693.24" y="60.47" textLength="19.32">U</tspan></text><path d="M752.82 47.34 l0 5.36 l0 2.56 l6.27 0 l3.86 0 l0 -7.92 l-10.13 0 z " style="stroke:#ffffff;stroke-width:0.47;"/><path d="M752.87 47.42 l0 1.42 l10.08 0 l0 -1.42 l-10.08 0 z " style="fill:#ffffff;"/><path d="M749.24 52.17 l0 1.42 l10.03 0 l0 -1.42 l-10.03 0 z " style="fill:#ffffff;"/><path d="M749.18 52.09 l0 7.92 l10.13 0 l0 -7.92 l-10.13 0 z " style="fill:#9c9a9b;"/><path d="M749.18 52.09 l0 7.92 l10.13 0 l0 -7.92 l-10.13 0 z " style="stroke:#ffffff;stroke-width:0.47;"/><text class="f1468" font-size="14.85" style="fill:#918f8f" transform="matrix(1,0,0,0.7407,0,0)"><tspan x="539.66" y="803.57" textLength="14.85">&#59904;</tspan></text><text class="f885" font-size="12.00" style="fill:#231f20"><tspan x="555.99" y="595.24" textLength="9.68" class="f1468" font-size="11.00" dx="0,0,0.77">&#59905; &#59905;</tspan>
<tspan x="565.07" y="596.24" textLength="7.2" class="f899">6</tspan>
<tspan x="572.27" y="596.24" textLength="2.7"> </tspan>
<tspan x="575.99" y="596.24" textLength="10.22" class="f914" style="fill:#918f8f">of</tspan>
<tspan x="585.61" y="596.24" textLength="21.06" dx="0,1.8,0,3.3,-1.2"> 8   </tspan></text><text class="f1468" font-size="14.85" style="fill:#918f8f" transform="matrix(1,0,0,0.7407,0,0)"><tspan x="605.47" y="803.57" textLength="14.85">&#57513;</tspan></text><path d="M635.33 584.88 c0 0 0 8.22 0 8.22 c0 0 0 6.9 6.9 6.9 c0 0 130.86 0 130.86 0 c0 0 6.9 0 6.9 -6.9 c0 0 0 -8.22 0 -8.22 " style="fill:#7c7ea4;"/><text class="f835" font-size="9.50" style="fill:#ffffff"><tspan x="643.61" y="595.57" textLength="130.08" dx="0,0,0,0,0,0,0,0,0,0,0,0,0,0,0,0,0,0,0,0,0,8.07,0,0,0">Selecting text type  0269</tspan></text><path d="M8.25 68.01 l0 14.75 l774.74 0 l0 -14.75 l-774.74 0 z " style="fill:#ffffff;"/>
<g mask="url(#Mask_107_6_zYVf6P)" ><path d="M133.74 37.36 l58.32 0 l0 51.36 l-58.32 0 l0 -51.36 " style="fill:#231f20;fill-opacity:0.45;blend-mode:multiply;"/></g>
<g clip-path="url(#Clip_119_6_zYVf6P)" >
<g clip-path="url(#Clip_120_6_zYVf6P)" >
<g clip-path="url(#Clip_121_6_zYVf6P)" ><g clip-path="url(#Clip_121_6_zYVf6P_2)" ><image x="0.00" y="0.00" width="114.00" height="93.00" transform="matrix(0.4739,-0.0498,0.0498,0.4741,133.1997,42.4376)" xlink:href="images/967.jpeg" /></g></g></g></g><path d="M111.16 380.34 c14.08 0 25.5 -11.42 25.5 -25.5 c0 -14.08 -11.42 -25.5 -25.5 -25.5 c-14.08 0 -25.5 11.42 -25.5 25.5 c0 14.08 11.42 25.5 25.5 25.5 z " style="fill:#fff200;"/><path d="M181.84 326 c18.88 0 34.19 -13.11 34.19 -29.29 c0 -16.17 -15.31 -29.28 -34.19 -29.28 c-18.88 0 -34.19 13.11 -34.19 29.28 c0 16.17 15.31 29.29 34.19 29.29 z " style="fill:#fff200;"/><path d="M251.25 302.25 c11.48 0 20.79 -9.31 20.79 -20.79 c0 -11.48 -9.31 -20.78 -20.79 -20.78 c-11.48 0 -20.79 9.31 -20.79 20.78 c0 11.48 9.31 20.79 20.79 20.79 z " style="fill:#fff200;"/><path d="M321.37 294.43 c18.43 0 33.37 -7.55 33.37 -16.87 c0 -9.32 -14.94 -16.87 -33.37 -16.87 c-18.43 0 -33.37 7.55 -33.37 16.87 c0 9.32 14.94 16.87 33.37 16.87 z " style="fill:#fff200;"/><text class="f885" font-size="12.00" style="fill:#231f20"><tspan x="76.75" y="121.37" textLength="107.6" class="f835" font-size="11.00" dx="0,0,-0.41,0.1,-0.6,0,0,0,0,0,0,0,0,0,0,0,0,0,0">7. Avoid quirkiness</tspan>
<tspan x="184.35" y="121.37" textLength="3.25" class="f835" font-size="13.00"> </tspan>
<tspan x="76.75" y="137.37" textLength="259.59" dx="0,-1.01,0,0,0,0,-0.12,0,0,0,0,0,0,0,0,0.1,0,0,0,0,0,0,-0.24,0,0,0,0,0,0,0,0,0,0,0,0,0,0,0,0,0,0,0,0,0,0,-0.24,0,0,0,0">Typographic sprites are fun to look at and great  </tspan>
<tspan x="76.75" y="153.36" textLength="270.11" dx="0,0,0,0,0,0,0,0,0,-0.12,0,0,0,0,0,0,0,0,0,0,0,0,0,0,0,0,0,0,0,-0.07,0,0,0,0,0,0,0,0,0,0,0,0,0,0,-0.07,0,0,0,0,0,0">for heads, but in text they wear out their welcome </tspan>
<tspan x="76.75" y="169.36" textLength="264.75" dx="0,0,0,0,0,0,-0.72,0,0,0,0,-0.43,0,0,0,0,0,0,0,-0.12,0,0,0,0,0,0,0,0,0,0,0,0,0,0,0,-0.06,0,0,0,0,0,0,0,0,-0.07,0,0,0,0,0">fast. Why? The extra swashiness gives the eye too </tspan>
<tspan x="76.75" y="185.36" textLength="177.5" dx="0,0,0,0,0,0,0,0,0,0,0,0,0,-0.36,0,0,0,0,0,0,0,0,0,-0.06,0,0.22,0,0,0,0,0.1,0,0,0">much to follow and is very tiring.</tspan></text><path d="M395.33 69.01 l0 509.99 l384.66 0 l0 -509.99 l-384.66 0 z " style="fill:#cdc4a8;"/><text class="f885" font-size="12.00" style="fill:#231f20"><tspan x="444.24" y="121.37" textLength="107.96" class="f835" font-size="11.00">Favorite text faces</tspan>
<tspan x="552.20" y="121.37" textLength="3.25" class="f835" font-size="13.00"> </tspan>
<tspan x="444.24" y="137.37" textLength="250.64" dx="0,0,0,0,0,0,0,0,0,0,0,0,0,0,0,0,0,0,0,0,0,0,0,0,0,0,0,0,0,0,0,-0.24,0,0,0,0,-0.24,0,0,0,0,0,0,0">While many typefaces meet the requirements  </tspan>
<tspan x="444.24" y="153.36" textLength="264.89" dx="0,0,0,0,0,0,0,0,0,0,0,0,0,-1.02,0,0,-0.24,0,0,0,0,0,0,0,0,0,0,0,0,0,0,0,0,0,0,0,0,-1.02,0,0,0,0,0,0,0,0,0,0,-0.36,0,0,0,0">of legibility, readability and beauty, the following </tspan>
<tspan x="444.24" y="169.36" textLength="213.46" dx="0,0,0,0,0,0,0,-0.24,0,0,0,0,0,0,0,0,0,0,0,-0.07,0,0,0,0,0.1,0,0,0,0,0,0,0,0,0,0,0,0,0,0,0">four are the ones we turn to most often:</tspan></text><text class="f1119" font-size="10.80" style="fill:#231f20"><tspan x="153.43" y="411.71" textLength="196.89" dx="0,-0.99,0,0,0,0,0,0,0,0,0,0,0,0,0,0,0,0,0,0,0,0,0,0,0,0,0,0,0,0,0,0,0,0,0,0,0,0,0,0,0,0,0,0">Texture and &#64258;asp net exating end mist of it </tspan>
<tspan x="153.43" y="424.21" textLength="204.68" dx="0,0,0,0,0,0,0,0,0,0,0,0,0,0,0,0,0,0,0,0,0,0,0,0,0,-0.19,0,0,0,0,0,0,0,0,0,0,0,0,0,0,0,0,0,0,0,0,0,0">snooling. Spaff forl isn&#8217;t cubular but quastic; </tspan>
<tspan x="153.43" y="436.70" textLength="194.7" dx="0,0,0,0,0,0,0,0,0,0,0,0,0,0,0,0,0,0,0,0,0,0,-0.19,0,0,0,0,0,0,0,0,0,0,0,0,-0.59,0,0,0,0,0,0,0,0,0,0,0,0">leam restart that can&#8217;t preast. It&#8217;s tope, this </tspan>
<tspan x="153.43" y="449.20" textLength="197.91">&#64258;uant chasible. Silk, chast, lape and behast </tspan>
<tspan x="153.43" y="461.69" textLength="201.49">the thin chack. It has larch to say fan. Why? </tspan>
<tspan x="153.43" y="474.19" textLength="206.89">Elesara and order is fay of alm. A card whint </tspan>
<tspan x="153.43" y="486.68" textLength="201.89">not ooum or bont. Pretty simple, glead and </tspan>
<tspan x="153.43" y="499.18" textLength="32.97">tarm. T</tspan>
<tspan x="185.41" y="499.21" textLength="158.71">exture and &#64258;asp end mist of it sno-</tspan>
<tspan x="153.43" y="511.70" textLength="191.91">oling. Silk, shast, lape and behast the thin </tspan>
<tspan x="153.43" y="524.20" textLength="207.49">chack. &#8220;It has larch to say fan.&#8221; Why? Elesara </tspan></text><path d="M444.35 242.25 l0 123 l185.25 0 l0 -123 l-185.25 0 z " style="fill:#ffffff;"/><text class="f988" font-size="11.00" style="fill:#231f20"><tspan x="456.39" y="262.74" textLength="148.99" dx="0,-1.04,0,0,0,0,-0.11,0,0,0,0,0,0,0,0,0,0,0,0,0,0,0,0,0,0,0,0,0,0,0,0,0,0">Texture and &#64258;asp net exating end </tspan>
<tspan x="456.39" y="275.48" textLength="150.5" dx="0,0,0,0,0,0,0,0,0,0,0,0,0,0,0,0,0,0,0,-0.11,-0.33,0,0.16,0,0,0,0,0,0,0,0.22,0,0,0,0,-0.44,-0.49,0">mist of it snooling. Spaff forl isn&#8217;t </tspan>
<tspan x="456.39" y="288.23" textLength="163.56" dx="0,0,0,0,0,0,0,0,0,0,0,0,0,0,0,0,0,0,0,0,-0.33,0,0,0,0,0,0,-0.11,0,0,0,0,0.14,0,0,0,0,0,0">cubular but quastic, leam restart that </tspan>
<tspan x="456.39" y="300.98" textLength="147.77" dx="0,0.11,0,-0.44,-0.49,0,0,0,-0.11,0,0,0,0,0,-0.33,0,0,0.55,-0.66,0,0,0,0,0,-0.09,-0.33,0,0,0,0,0,0,0,0,0,0,0">can&#8217;t prebast. It&#8217;s tope, this &#64258;uant </tspan>
<tspan x="456.39" y="313.73" textLength="160.99" dx="0,0.05,0,0,0,0,0,0,0,-0.33,0,0.16,0,0,0,-0.33,0,0,0,0,0,0,-0.33,0,0,0,0,0,0,0,0,0,0,0,0,0,0,0,0">chasible. Silk, shast, lape and behast </tspan>
<tspan x="456.39" y="326.48" textLength="148.54" dx="0,0,0,0,0,0,0,0,0,0,0.05,0,0,0.11,0,-0.33,0,0,0,0,0,0,0,0,0,0,-0.11,0.05,0,0,0,0,0,0,-0.05,0">the thin chack. It has larch to say </tspan>
<tspan x="456.39" y="339.23" textLength="153.87" dx="0,0,0,0,-0.33,-0.12,0.38,-0.11,0,0,0,0,0,0,0,0,0.05,0,0,0,0,0,0,0,-0.05,0,0,0,0,0,0,0,0,-0.05,0">fan. Why? Elesara and order is fay </tspan>
<tspan x="456.39" y="351.98" textLength="157.53" dx="0,0,0,0,0,0,0,-0.33,0,0,0,0.11,0,-0.05,0,0,0,0,0,0,0,0,0,0,0,0,0,0,0,0,0,0,0,0">of alm. A card whint not oogum or </tspan></text>
<g mask="url(#Mask_250_6_zYVf6P)" ><path d="M497.63 223.24 l147.12 0 l0 62.64 l-147.12 0 l0 -62.64 " style="fill:#231f20;fill-opacity:0.45;blend-mode:multiply;"/></g><path d="M502.88 226.5 l0 52 l136.5 0 l0 -52 l-136.5 0 z " style="fill:#fbf9e6;"/>
<g clip-path="url(#Clip_265_6_zYVf6P)" ><text class="f988" font-size="21.00" style="fill:#231f20"><tspan x="488.17" y="246.70" textLength="259.78" dx="0,-2.2,-0.21,-0.21,-0.21,-0.21,-0.42,-0.21,-0.13,-0.21,-0.21,-0.21,-0.13,-0.21,-0.21,-0.21,-0.21,-0.13,-0.21,-0.21,-0.21,-0.34,-0.21,-0.21,-0.21,-0.21,-0.21,-0.13,-0.21,-0.21,-0.21">Texture and &#64258;asp net ating end </tspan>
<tspan x="490.41" y="269.19" textLength="240.74" dx="0,-0.21,-0.21,-0.21,-0.21,-0.55,-0.21,-0.21,-0.13,-0.21,-0.21,-0.76,-0.21,-0.21,-0.21,-0.21,-0.21,-0.21,-0.21,-0.42,-0.84,-0.65,0.1,-0.21,-0.21,-0.21,-0.21,-0.13,-0.21,-0.21,0.21,-0.21">mist of it snooling. Spaff forl </tspan></text></g><path d="M444.26 398.52 l69.12 0 " style="stroke:#176fc0;stroke-width:0.47;"/><text class="f833" font-size="9.50" style="fill:#231f20"><tspan x="444.26" y="397.57" textLength="69.04" class="f835" style="fill:#176fc0" dx="0,0.09,0.09,0.09,0.09,0.09,0.52,0.09,0.09,0.09,0.09,0.09">Adobe Caslon</tspan>
<tspan x="513.37" y="397.57" textLength="2.37" class="f835"> </tspan>
<tspan x="516.27" y="397.57" textLength="63.42" dx="0,0.08,0.08,0.08,0.08,0.08,0.08,0.08,0.08,0.08,0.34,0.08,0.08,0.08,0.34,0.39">(11/12.75 pt)   </tspan>
<tspan x="444.86" y="410.57" textLength="183.22" dx="0,0.08,0.08,0.08,0.08,0.08,0.34,0.08,0.08,0.08,0.08,0.08,0.08,0.34,0.08,0.08,0.08,0.34,0.08,0.08,0.08,0.08,-0.28,-0.28,0.34,0.08,0.08,0.08,0.08,0.08,0.08,0.34,0.08,0.08,0.08,0.34,0.08,0.08,0.34,0.08,0.08,0.08">First choice for books, Caslon may be the </tspan>
<tspan x="444.85" y="423.57" textLength="188.76" dx="0,0.08,0.08,0.08,0.08,0.08,0.34,0.08,0.08,0.08,0.08,0.08,0.08,0.08,0.08,-0.28,0.08,0.34,0.08,0.08,0.08,0.08,0.34,0.08,0.08,0.08,0.08,0.08,0.08,0.08,0.08,0.34,0.08,0.08,0.08,0.08,0.08,0.08,0.08,-0.28,-0.28">Roman alphabet&#8217;s most readable typeface. </tspan>
<tspan x="444.84" y="436.56" textLength="183.02" dx="0,0.08,0.08,0.08,0.34,0.08,0.08,0.08,0.08,0.08,0.08,0.08,0.34,0.08,0.08,0.08,0.08,0.08,0.08,0.34,0.08,0.08,0.08,0.08,0.08,0.08,0.08,0.08,0.08,-0.28,0.34,0.08,0.08,0.08,0.34,0.08,0.08,0.08,0.08,0.08,0.08,0.34,0.08,0.08,0.08,0.08">Its letters aren&#8217;t beautiful, but strung into </tspan>
<tspan x="444.78" y="449.56" textLength="177.16" dx="0,0.08,0.08,0.08,0.08,0.08,0.08,0.08,0.08,0.08,0.34,0.08,0.08,0.08,0.34,0.08,0.08,-0.01,0.08,0.08,-0.01,0.08,0.08,0.08,0.08,0.34,0.08,0.08,0.08,0.08,0.34,0.08,0.08,0.08,0.08,0.34,0.08,0.08,-0.28">sentences and paragraphs they have &#64257;t, </tspan>
<tspan x="444.65" y="462.55" textLength="186.12" dx="0,0.08,0.08,0.08,0.08,0.08,0.08,-0.28,-0.28,0.34,0.08,0.08,0.08,-0.28,-0.28,0.34,0.08,0.08,0.08,0.34,0.08,0.08,0.08,0.34,0.08,0.08,0.34,0.08,0.08,0.08,0.08,0.34,0.08,0.08,0.08,0.08,0.08,0.08,0.08,0.08,0.08,0.08,0.08">texture, bite, and can be read comfortably </tspan>
<tspan x="444.83" y="475.55" textLength="180.95" dx="0,0.08,0.08,0.08,0.34,0.08,0.08,0.08,0.08,-0.28,-0.28,0.34,0.08,0.08,0.08,0.08,0.08,0.08,0.34,0.08,0.08,0.08,0.08,0.34,0.08,0.08,0.08,0.08,0.08,0.08,0.08,0.08,0.08,0.34,0.08,0.08,0.08,0.08,0.34,0.08,0.08,0.08">for hours. Caslon will withstand even the </tspan>
<tspan x="444.65" y="488.54" textLength="70.05" dx="0,0.08,0.08,0.08,0.08,0.08,0.08,0.08,0.08,0.34,0.08,0.08,0.08,0.08,0.08,0.08,-0.09">tightest leading.</tspan></text><text class="f1119" font-size="140.00" style="fill:#4e342c"><tspan x="71.14" y="342.03" textLength="280.55" dx="0,0.98,0.98,11.48">gkrv</tspan></text>
<g style="blend-mode:multiply;" ><path d="M153 358 l0 24.07 l173.5 0 l0 -24.07 l-173.5 0 z " style="fill:#ffffff;fill-opacity:0.00;"/><path d="M295.94 366.52 l26.81 0 " style="stroke:#176fc0;stroke-width:0.47;"/><text class="f833" font-size="9.50" style="fill:#231f20"><tspan x="153.58" y="365.57" textLength="141.87" class="f835" dx="0,0.09,0.09,0.09,-0.27,0.52,0.09,0.09,0.09,0.52,0.09,0.09,0.09,0.52,0.09,0.09,0.09,0.09,0.09,0.09,0.52,0.09,0.09,0.09,0.52,0.09,0.09,0.09,0.09,0.52">Fun, but too quirky for text  </tspan>
<tspan x="295.94" y="365.57" textLength="26.71" style="fill:#176fc0" dx="0,0.08,0.08,0.08,0.08">Belwe</tspan></text></g>
</svg>
