
<?xml-stylesheet href="css/stylesheet.css" type="text/css"?>
<svg class="crocodoc-zYVf6P crocodoc-page-svg" version="1.1"
    xmlns="http://www.w3.org/2000/svg"
    xmlns:xlink="http://www.w3.org/1999/xlink"
    xml:space="preserve" width="792pt" height="612pt" viewBox="0 0 792 612">
<defs>
<clipPath id="Clip_287_11_zYVf6P"><path d="M468.71 334.87 l107.27 0 l0 -301.88 l-107.27 0 l0 301.88 " /></clipPath>
<clipPath id="Clip_419_11_zYVf6P"><path d="M735.11 599.51 l17.71 0 l0 -11.81 l-17.71 0 l0 11.81 " /></clipPath>
<clipPath id="Clip_432_11_zYVf6P"><path d="M760.89 599.27 l17.67 0 l0 -11.78 l-17.67 0 l0 11.78 " /></clipPath>
</defs>
<text class="f1484" font-size="6.50" style="fill:#231f20" transform="matrix(0,1,-1,0,0,0)"><tspan x="245.60" y="-26.43" textLength="22.97" dx="0,0.12,0.12,0.12,0.12,0.12">Before</tspan>
<tspan x="268.69" y="-26.43" textLength="5.17" style="fill:#7a1d90">&amp;</tspan>
<tspan x="273.97" y="-26.43" textLength="4.93" style="fill:#ed1834">A</tspan>
<tspan x="279.02" y="-26.43" textLength="2.65" style="fill:#f36717">f</tspan>
<tspan x="281.78" y="-26.43" textLength="2.89" style="fill:#fcd205">t</tspan>
<tspan x="284.78" y="-26.43" textLength="4.1" style="fill:#179f50">e</tspan>
<tspan x="288.99" y="-26.43" textLength="2.89" style="fill:#0994dc">r</tspan>
<tspan x="292.00" y="-26.43" textLength="1.92"> </tspan>
<tspan x="294.04" y="-26.43" textLength="72.41" class="f1491" dx="0,0.11,0.11,0.11,0.11,-0.48,0.11,0.11,0.11,0.11,0.11,0.11,0.11,0.11,0.11,0.11,-0.13,0.11,0.11,0.11">| www.bamagazine.com</tspan>
<tspan x="293.20" y="-12.05" textLength="7.25" font-size="8.00" dx="0,0.14">1 </tspan>
<tspan x="302.23" y="-12.05" textLength="15.96" class="f1491" font-size="8.00" dx="0,0.14,0.14,1.9">of 4</tspan>
<tspan x="493.64" y="-26.67" textLength="67.57" style="fill:#7b7979" dx="0,0.06,0.06,0.06,0.06,0.06,0.06,0.06,0.06,0.06,0.06,0.06,0.06,0.06,0.06,0.06,0.06,0.06,0.06,0.06">Selecting text type </tspan>
<tspan x="562.58" y="-26.67" textLength="19.16" font-size="8.00" dx="0,0.07,0.07,0.07">0269</tspan>
<tspan x="30.76" y="-26.62" textLength="19.16" font-size="8.00" dx="0,0.07,0.07,0.07">0269</tspan>
<tspan x="49.99" y="-26.62" textLength="70.82" style="fill:#7b7979" dx="0,1.38,0.06,0.06,0.06,0.06,0.06,0.06,0.06,0.06,0.06,0.06,0.06,0.06,0.06,0.06,0.06,0.06,0.06,0.06,0"> Selecting text type </tspan></text><path d="M779.93 38.62 c0 0 0 -8.62 -8.62 -8.62 l-371.7 0 c0 0 -8.62 0 -8.61 8.62 l0.07 534.77 c0 0 0 8.62 8.62 8.62 l371.7 0 c0 0 8.62 0 8.61 -8.62 l-0.07 -534.77 z " style="fill:#9a97b6;"/><path d="M414 30 l0 552 l-376 0 l0 -552 l376 0 z " style="fill:#cdc4a8;"/><text class="f1484" font-size="107.70" style="fill:#e9e5d8" transform="matrix(0,1,-1,0,0,0)"><tspan x="55.92" y="-273.23" textLength="61.82">T</tspan></text><text class="f1489" font-size="10.05" style="fill:#231f20" transform="matrix(0,1,-1,0,0,0)"><tspan x="85.64" y="-333.73" textLength="164.63" dx="0,-1.01,0,0,0,0,0,0,0,0,0,0,0,0,0,0,-0.2,0,0,0,0,0,0,0,0,0,0,0,0,0,0,0,0,0">Text type is more common than any </tspan>
<tspan x="85.64" y="-320.45" textLength="171.15" dx="0,0,0,0,0,-0.6,0,-0.36,-1.01,0,0,0,0,0,0,0,0,0,0,0,0,0,0,0,0,0,0,0,-0.2,0,0,0,0,0,0,0,-0.1,0,0">other. Text makes up the acres of gray </tspan>
<tspan x="85.64" y="-307.17" textLength="154.06" dx="0,0,0,0,0,0,0,0,-0.1,0,0,0,0,0,0,0,0,0,0,-0.1,0,0,-0.2,0,0,0,0.08,0,-0.1,0,0,0,0,0">in books, magazines, reports, and </tspan>
<tspan x="85.64" y="-293.89" textLength="168.64" dx="0,0,0,0,0,-0.2,0,0,0,0,0,0,0,0,0,0,0,0,0,0,0,0,0,0,0,0,0,-0.2,0,-0.6,0,0,0,0">hundreds of other documents. When </tspan>
<tspan x="85.64" y="-280.61" textLength="34.29" class="f1492" dx="0,-0.26,0,0,0,0,0">reading</tspan>
<tspan x="119.93" y="-280.61" textLength="123.36" dx="0,0,0,0,0,0,0,0,0,0,0.08,0,0,0,0.18,0,0,0,0,0,0,0,0,0,-0.18,-1.11,0,0,0,0,0"> is the primary goal, it&#8217;s the </tspan>
<tspan x="85.64" y="-267.33" textLength="165.31" dx="0,0,0,0,0,0,0,0,-0.2,-1.11,0,0,0,0,0,0,0,0,0,0,0,0,0,-0.2,0,0,0,0,0,0,0,0,0,0,0,0,0,0,0">designer&#8217;s job to ensure that the text </tspan>
<tspan x="85.64" y="-254.05" textLength="157.49" dx="0,0,0,0,0,0,0,0,0,0,0,0,0,-0.3,0,0,0,0,0,0,0,0,0,0,0,0,0,0,0,0,0,0,0,0">is smooth, &#64258;owing and pleasant to </tspan>
<tspan x="85.64" y="-240.78" textLength="169.43" dx="0,-0.2,0,0,0,0,-0.36,0,0,0,0,0,0,0,0,0,0,-0.06,0,0,0,0,0,0,0,0,0,0,0,0,0,0,0,0,0,0,0,0">read. The hallmarks of good text type </tspan>
<tspan x="85.64" y="-227.50" textLength="16.39" dx="0,0,-0.2,0">are </tspan>
<tspan x="102.04" y="-227.50" textLength="39.03" class="f1492">legibility</tspan>
<tspan x="141.07" y="-227.50" textLength="22.01"> and </tspan>
<tspan x="163.09" y="-227.50" textLength="48.71" class="f1492" dx="0,-0.26,0,0,0,0,0,0,0,0,0">readability</tspan>
<tspan x="211.80" y="-227.50" textLength="49.43">. Legibility </tspan>
<tspan x="85.64" y="-214.22" textLength="161.65" dx="0,-0.2,0,0,0,0,0,0,0,0,0,0,0,0,0.08,0,0,0.1,0,0,0,-0.18,-1.11,0,0,0,-0.3,0,0,-0.2,0,0,0,0,0,0,0,0,0,0">refers to clarity; it&#8217;s how readily one </tspan>
<tspan x="85.64" y="-200.94" textLength="160.01" dx="0,0,0,0,0,0,0,0,0,0,0,0,0,0,0,0,0,0,0,0,0,0,0,0,0,0,0,0,0,0,-0.06,0,0,0,0,0,0">letter can be distinguished from all </tspan>
<tspan x="85.64" y="-187.66" textLength="168.58" dx="0,0,0,0,0,0,-0.2,0,0,-0.2,0,0,0,0,0,0,0,0,0,0,0,-0.2,0,0,0,0,0,0,0,0,0,0,-0.3,0,0,-0.06,0,0,0">others. Readability refers to how well </tspan>
<tspan x="85.64" y="-174.38" textLength="155.91" dx="0,0,0,0,0,0,0,0,0,0,0,0,0,-0.1,0,0,0,0,0,0,0,0,0,0,0,0,0,0,0,0,0,-0.2,0,-0.1,0">letters interact to compose words, </tspan>
<tspan x="85.64" y="-161.10" textLength="151.82" dx="0,0,0,0,0,0,0,0,0,0,0,0,0,0,0,0,0,-0.1,0,0,-0.1,0,0,0,-0.2,0,-0.6,0,0,0,0">sentences and paragraphs. When </tspan>
<tspan x="85.64" y="-147.82" textLength="167.8" dx="0,0,-0.06,0,0,0,0,0,0,0,0,0,0,0,0,0,0,0,0,0,0,0,-0.1,0,0,0,0,0,0,0,0,0,-0.1,0,0,0,-0.05,0">evaluating the choices, the operative </tspan>
<tspan x="85.64" y="-134.55" textLength="35.07" dx="0,0,0,-0.2,0,0,0,0">word is </tspan>
<tspan x="120.72" y="-134.55" textLength="38.19" class="f1492">medium</tspan>
<tspan x="158.90" y="-134.55" textLength="4.93">. </tspan></text><path d="M332.49 389.42 l0 25.55 " style="stroke:#176fc0;stroke-width:0.34;"/><text class="f1484" font-size="6.82" style="fill:#231f20" transform="matrix(0,1,-1,0,0,0)"><tspan x="294.87" y="-333.18" textLength="54.33" dx="0,0.07,0.07,0.07,0.07,0.07,0.07,0.07,0.07,0.07,0.07,0.07,0.07,0.07">An example of </tspan>
<tspan x="349.27" y="-333.18" textLength="29.14" class="f599" dx="0,0.07,0.07,0.07,0.07,0.07">medium</tspan>
<tspan x="378.99" y="-333.18" textLength="10.19" dx="0,0.07,0.07,0.07"> is </tspan>
<tspan x="389.42" y="-333.18" textLength="25.8" style="fill:#176fc0" dx="0,0.07,0.07,0.07,0.07,0.07,0.07">Utopia.</tspan></text><path d="M214.04 378.38 l-12.74 0 " style="stroke:#0994dc;stroke-width:0.36;"/><path d="M319.95 378.38 l-40.93 0 " style="stroke:#0994dc;stroke-width:0.36;"/><path d="M211.24 272.32 l0 309.03 " style="stroke:#0994dc;stroke-width:0.36;"/>
<g style="blend-mode:multiply;" ><text class="f1489" font-size="143.60" style="fill:#231f20" transform="matrix(0,1,-1,0,0,0)"><tspan x="292.30" y="-211.39" textLength="247.85" dx="0,-26.28,-6.17,-1.87">Text</tspan></text></g><text class="f1491" font-size="6.82" style="fill:#ffffff" transform="matrix(0,1,-1,0,0,0)"><tspan x="500.29" y="-195.10" textLength="53.27" dx="0,0.07,0.07,0.07,0.07,0.07,0.07,0.07,0.07,0.07,0.07,0.07,0.07,0.07,0.07">Medium x-height</tspan></text><path d="M310.79 272.32 l0 309.03 " style="stroke:#0994dc;stroke-width:0.36;"/><text class="f1491" font-size="6.82" style="fill:#ffffff" transform="matrix(0,1,-1,0,0,0)"><tspan x="295.30" y="-187.56" textLength="92.62" dx="0,0.07,0.07,0.07,0.07,0.07,0.07,0.07,0.07,0.07,0.07,0.07,0.07,0.07,0.07,0.07,0.07,0.07,0.07,0.07,0.07,0.07,0.07,0.07,0,0.07,0.07,0.07">Medium height-to-width ratio</tspan></text><path d="M319.95 295.38 l-118.65 0 " style="stroke:#0994dc;stroke-width:0.36;"/><path d="M262.85 402.78 c-8.03 5.24 -10.19 4.16 -18.11 2.01 " style="stroke:#ffffff;stroke-width:0.36;"/><path d="M265.69 400.93 l-2.9 3.87 l0.05 -2.01 l-1.86 -0.76 l4.71 -1.1 z " style="fill:#ffffff;"/><text class="f1491" font-size="6.82" style="fill:#ffffff" transform="matrix(0,1,-1,0,0,0)"><tspan x="385.76" y="-236.39" textLength="55.4" dx="0,0.07,0.07,0.07,0.07,0.07,0.07,0.07,0.07,0.07,0.07,0.07,0.07,0.07,0.07">Medium counters</tspan></text><path d="M307.2 289.56 l-92.62 0 " style="stroke:#ffffff;stroke-width:0.36;"/><path d="M310.6 289.56 l-4.54 -1.65 l1.14 1.65 l-1.14 1.65 l4.54 -1.65 z " style="fill:#ffffff;"/><path d="M211.18 289.56 l4.54 1.65 l-1.15 -1.65 l1.15 -1.65 l-4.54 1.65 z " style="fill:#ffffff;"/><path d="M206.19 299.25 l0 75.93 " style="stroke:#ffffff;stroke-width:0.36;"/><path d="M206.19 295.85 l-1.65 4.54 l1.65 -1.14 l1.65 1.14 l-1.65 -4.54 z " style="fill:#ffffff;"/><path d="M206.19 378.58 l1.65 -4.54 l-1.65 1.15 l-1.65 -1.15 l1.65 4.54 z " style="fill:#ffffff;"/><path d="M278.3 543.87 l-63.71 0 " style="stroke:#ffffff;stroke-width:0.36;"/><path d="M281.7 543.87 l-4.54 -1.65 l1.14 1.65 l-1.14 1.65 l4.54 -1.65 z " style="fill:#ffffff;"/><path d="M211.2 543.87 l4.54 1.65 l-1.15 -1.65 l1.15 -1.65 l-4.54 1.65 z " style="fill:#ffffff;"/><text class="f1491" font-size="6.82" style="fill:#ffffff" transform="matrix(0,1,-1,0,0,0)"><tspan x="436.95" y="-195.10" textLength="49.33" dx="0,0.07,0.07,0.07,0.07,0.07,0.07,0.07,0.07,0.07,0.07,0.07,0.07,0">Medium stroke </tspan>
<tspan x="436.91" y="-185.77" textLength="47.09" dx="0,0.07,0.07,0.07,0.07,0.07,0.07,0.07,0.07,0.07,0.07,0.07,0.07,0.07,0.07">width variation</tspan></text><path d="M229.85 449.19 l-26.01 8.72 l28.22 10.77 " style="stroke:#ffffff;stroke-width:0.36;"/><path d="M233.07 448.12 l-4.83 -0.12 l1.61 1.2 l-0.56 1.93 l3.78 -3.01 z " style="fill:#ffffff;"/><path d="M235.22 469.89 l-3.65 -3.16 l0.48 1.95 l-1.66 1.14 l4.83 0.08 z " style="fill:#ffffff;"/><path d="M281.96 296.17 l0 285.25 " style="stroke:#0994dc;stroke-width:0.36;stroke-dasharray:1.433,1.433;"/>
<g clip-path="url(#Clip_287_11_zYVf6P)" ><image x="0.00" y="0.00" width="633.00" height="228.00" transform="matrix(0,0.4799,-0.4799,0,577.1352,31.9535)" xlink:href="images/589.jpeg" /></g><text class="f1489" font-size="21.54" style="fill:#dbd8e3" transform="matrix(0,1,-1,0,0,0)"><tspan x="289.11" y="-531.24" textLength="176.97" class="f1490" font-size="86.16" style="fill:#231f20" dx="0,-8.62,-4.82,-6.63,-2.5,-9.56"> text?</tspan>
<tspan x="257.65" y="-660.42" textLength="267.83" class="f1490" font-size="43.08" style="fill:#ffffff" dx="0,-2.37,-2.58,-1.72,-2.58,-7.11,-2.58,-1.08,-1.51,-2.58,-2.58,-2.58,-1.72,-2.58,-2.58,-2.58,0">What&#8217;s the right </tspan>
<tspan x="140.52" y="-596.46" textLength="410.21" class="f1490" font-size="86.16" style="fill:#231f20" dx="0,-2.07,-5.17,-4.57,-6.72,-6.38,-6.72,-5.34,-4.31,-7.32,-6.46,-5.6,0,-22.4">typeface for  </tspan>
<tspan x="456.92" y="-531.21" textLength="72.25" dx="0,-1.08,-1.08,-0.43,-0.43,-0.43,0">How to </tspan>
<tspan x="337.33" y="-508.23" textLength="201.16" dx="0,-0.43,-0.43,-0.43,-0.43,-0.43,-0.43,-0.43,-0.43,-0.43,-0.43,-0.43,-0.43,-0.43,-0.43,-0.43,-0.43,-0.43,-0.43,-0.43,-0.43,0">choose a typeface for </tspan>
<tspan x="337.33" y="-485.24" textLength="219.88" dx="0,-0.43,-0.43,-0.43,-0.43,-1.72,-0.43,-0.43,-0.43,-0.43,-0.43,-0.43,-0.43,-0.86,-0.43,-0.43,-0.43,-0.43,-0.43,-0.43,-0.43,-1.08,-0.54,-0.43,0">clear, easy reading over </tspan>
<tspan x="337.07" y="-462.26" textLength="138.76" dx="0,-0.43,-0.43,-0.43,-0.43,-0.43,-0.43,-0.43,-0.43,-0.43,-0.43,-0.43,-0.43,-0.43,-0.86">long distances.</tspan></text><path d="M463.13 53.43 l0 53.01 " style="stroke:#176fc0;stroke-width:0.34;"/><text class="f1491" font-size="6.82" style="fill:#176fc0" transform="matrix(0,1,-1,0,0,0)"><tspan x="53.43" y="-463.81" textLength="53.01" dx="0,0.07,0.07,0.07,0.07,0.07,0.07,0.07,0.07,0.07,0.07,-0.18,0.07,0.07,0.07">iStockphoto.com</tspan></text>
<g clip-path="url(#Clip_419_11_zYVf6P)" ><text class="f885" font-size="11.81" style="fill:#231f20" transform="matrix(-1,0,0,-1,0,0)"><tspan x="-751.19" y="-589.63" textLength="2.66"> </tspan></text><text class="f1468" font-size="14.61" style="fill:#918f8f" transform="matrix(-1,0,0,-0.7407,0,0)"><tspan x="-749.72" y="-797.32" textLength="14.61">&#57513;</tspan></text></g>
<g clip-path="url(#Clip_432_11_zYVf6P)" ><text class="f885" font-size="11.78" style="fill:#231f20"><tspan x="762.51" y="597.35" textLength="2.65"> </tspan></text><text class="f1468" font-size="14.58" style="fill:#918f8f" transform="matrix(1,0,0,0.7407,0,0)"><tspan x="763.98" y="805.10" textLength="14.58">&#57513;</tspan></text></g>
</svg>
