<svg class="crocodoc-R0zyIp crocodoc-page-svg" version="1.1"
    xmlns="http://www.w3.org/2000/svg"
    xmlns:xlink="http://www.w3.org/1999/xlink"
    xmlns:xhtml="http://www.w3.org/1999/xhtml"
    xml:space="preserve" width="720.0pt" height="540.0pt" viewBox="0 0 720.0 540.0">
<xhtml:link href="stylesheet.css" type="text/css" rel="stylesheet" />
<style>
.crocodoc-R0zyIp tspan { white-space:pre; }
.crocodoc-R0zyIp path { fill:transparent; }

</style>
<defs>

</defs>
<path d="M0 0 l720 0 l0 540 l-720 0 l0 -540 z " style="fill:#fda515;"/><path d="M700.33 65.7 c-25.95 0 -25.95 0 -25.95 0 c-6.41 0 -11.52 -5.25 -11.52 -11.52 c0 -6.42 5.1 -11.67 11.52 -11.67 c0.15 0 0.15 0 0.29 0 c1.6 -6.12 7.14 -10.35 13.56 -10.35 c0.58 0 1.31 0 1.9 0.15 c2.04 -3.94 5.69 -6.85 9.91 -8.17 c0.73 -0.15 1.31 0.15 1.6 0.87 c0.15 0.73 -0.15 1.46 -0.87 1.6 c-3.79 1.17 -7 3.94 -8.75 7.58 c-0.15 0.58 -0.87 0.87 -1.46 0.73 c-0.73 -0.15 -1.6 -0.15 -2.33 -0.15 c-5.54 0 -10.35 3.94 -11.37 9.33 c-0.15 0.73 -0.73 1.17 -1.46 1.02 c-0.29 0 -0.73 0 -1.02 0 c-4.96 0 -9.04 3.94 -9.04 9.04 c0 4.96 4.08 8.9 9.04 8.9 c25.95 0 25.95 0 25.95 0 c0.73 0 1.31 0.58 1.31 1.31 c0 0.73 -0.58 1.31 -1.31 1.31 z " style="fill:#00b9f2;"/><text class="f15 f287" font-size="38.00" style="fill:#ffffff"><tspan x="184.26" y="243.40" textLength="367.13" dx="0,0.02,0.02,-0.02,-0.02,0,0,0.02,0.02,0,0,0.02,-0.02,-0.02,0,-0.02,0.02,0,0,0,0.01,0.02,0.02,-8.59">Like this presenta;on&#8230;  </tspan></text><text class="f15 f287" font-size="38.00" style="fill:#ffffff"><tspan x="244.71" y="293.40" textLength="246.22" dx="0,-0.02,0.02,0,-0.02,-0.02,0.02,-0.02,0,0,0.01,0,0.02,-0.01,-8.57">en;rely HTML5. </tspan></text>
</svg>
