<?xml version="1.0" encoding="utf-8"?>
<!-- Generator: Adobe Illustrator 14.0.0, SVG Export Plug-In . SVG Version: 6.00 Build 43363)  -->
<!DOCTYPE svg PUBLIC "-//W3C//DTD SVG 1.1//EN" "http://www.w3.org/Graphics/SVG/1.1/DTD/svg11.dtd">
<svg version="1.1" xmlns="http://www.w3.org/2000/svg" xmlns:xlink="http://www.w3.org/1999/xlink" x="0px" y="0px" width="1000px"
	 height="500px" viewBox="0 0 1000 500" enable-background="new 0 0 1000 500" xml:space="preserve">
<g id="Layer_13">
	<g>
		<text transform="matrix(1 0 0 1 609.4219 134.9736)" fill="#CECECE" font-family="'Futura-CondensedMedium'" font-size="36">PROXY SVG</text>
	</g>
</g>
<g id="Layer_11">
	<polygon fill="#FFFFFF" points="552.608,202.41 596.085,180.159 725.342,190.31 710.925,313.39 692.849,368.29 548.535,337.524 	
		"/>
</g>
<g id="Layer_10">
	<text transform="matrix(1 0 0 1 372.6885 134.981)" fill="#CECECE" font-family="'Futura-CondensedMedium'" font-size="36">VIEWER.JS</text>
</g>
<g id="Layer_12">
	<polygon fill="#FFFFFF" points="312.599,148.241 316.144,150.915 367.067,143.511 479.53,150.274 480.433,283.63 401.881,335.181 
		281.096,306.104 264.274,158.143 272.53,145.499 	"/>
</g>
<g id="Layer_2">
	<polygon opacity="0.6" fill="#06B3FF" points="552.683,202.372 708.959,217.985 692.397,367.629 548.623,336.978 	"/>
	<polygon opacity="0.5" fill="#06B3FF" points="692.397,367.629 710.405,312.936 724.768,190.317 708.959,217.985 	"/>
	<polygon opacity="0.3" fill="#06B3FF" points="708.959,217.985 724.768,190.317 595.996,180.204 552.683,202.372 	"/>
	<path fill="#FFFFFF" stroke="#231F20" d="M754.263,337.246c-12.127,8.172-19.455,18.807-19.455,30.435
		c0,25.781,36.037,46.682,80.49,46.682s80.49-20.9,80.49-46.682c0-25.782-36.037-46.682-80.49-46.682
		c-14.364,0-27.85,2.182-39.523,6.006l-22.788-15.341L754.263,337.246z"/>
	<text transform="matrix(1 0 0 1 779.9355 357.1797)"><tspan x="0" y="0" font-family="'Futura-CondensedMedium'" font-size="24">“OK! IT’S </tspan><tspan x="-28.248" y="28.8" font-family="'Futura-CondensedMedium'" font-size="24">DONE LOADING!”</tspan></text>
	<line fill="none" stroke="#000000" stroke-width="3" stroke-miterlimit="10" x1="312.13" y1="222.819" x2="313.513" y2="225.012"/>
	
		<line fill="none" stroke="#000000" stroke-width="3" stroke-miterlimit="10" x1="302.976" y1="219.945" x2="304.668" y2="219.242"/>
	<line fill="none" stroke="#000000" stroke-width="3" stroke-miterlimit="10" x1="310.428" y1="221.042" x2="312.13" y2="222.819"/>
	
		<line fill="none" stroke="#000000" stroke-width="3" stroke-miterlimit="10" x1="308.528" y1="219.806" x2="310.428" y2="221.042"/>
	
		<line fill="none" stroke="#000000" stroke-width="3" stroke-miterlimit="10" x1="346.198" y1="232.331" x2="346.821" y2="230.038"/>
	
		<line fill="none" stroke="#000000" stroke-width="3" stroke-miterlimit="10" x1="300.121" y1="225.267" x2="300.625" y2="223.067"/>
	<line fill="none" stroke="#000000" stroke-width="3" stroke-miterlimit="10" x1="347.951" y1="228.15" x2="349.515" y2="226.796"/>
	
		<line fill="none" stroke="#000000" stroke-width="3" stroke-miterlimit="10" x1="304.668" y1="219.242" x2="306.562" y2="219.192"/>
	
		<line fill="none" stroke="#000000" stroke-width="3" stroke-miterlimit="10" x1="362.005" y1="234.753" x2="362.465" y2="237.419"/>
	
		<line fill="none" stroke="#000000" stroke-width="3" stroke-miterlimit="10" x1="300.625" y1="223.067" x2="301.597" y2="221.251"/>
	
		<line fill="none" stroke="#000000" stroke-width="3" stroke-miterlimit="10" x1="300.116" y1="227.702" x2="300.121" y2="225.267"/>
	
		<line fill="none" stroke="#000000" stroke-width="3" stroke-miterlimit="10" x1="353.503" y1="226.039" x2="355.656" y2="226.695"/>
	
		<line fill="none" stroke="#000000" stroke-width="3" stroke-miterlimit="10" x1="361.009" y1="232.176" x2="362.005" y2="234.753"/>
	
		<line fill="none" stroke="#000000" stroke-width="3" stroke-miterlimit="10" x1="355.656" y1="226.695" x2="357.718" y2="228.004"/>
	
		<line fill="none" stroke="#000000" stroke-width="3" stroke-miterlimit="10" x1="306.562" y1="219.192" x2="308.528" y2="219.806"/>
	
		<line fill="none" stroke="#000000" stroke-width="3" stroke-miterlimit="10" x1="313.513" y1="225.012" x2="314.481" y2="227.468"/>
	
		<line fill="none" stroke="#000000" stroke-width="3" stroke-miterlimit="10" x1="314.481" y1="227.468" x2="314.969" y2="230.017"/>
	
		<line fill="none" stroke="#000000" stroke-width="3" stroke-miterlimit="10" x1="359.546" y1="229.875" x2="361.009" y2="232.176"/>
	<line fill="none" stroke="#000000" stroke-width="3" stroke-miterlimit="10" x1="346.821" y1="230.038" x2="347.951" y2="228.15"/>
	
		<line fill="none" stroke="#000000" stroke-width="3" stroke-miterlimit="10" x1="301.597" y1="221.251" x2="302.976" y2="219.945"/>
	
		<line fill="none" stroke="#000000" stroke-width="3" stroke-miterlimit="10" x1="351.407" y1="226.074" x2="353.503" y2="226.039"/>
	<line fill="none" stroke="#000000" stroke-width="3" stroke-miterlimit="10" x1="346.12" y1="234.871" x2="346.198" y2="232.331"/>
	
		<line fill="none" stroke="#000000" stroke-width="3" stroke-miterlimit="10" x1="357.718" y1="228.004" x2="359.546" y2="229.875"/>
	
		<line fill="none" stroke="#000000" stroke-width="3" stroke-miterlimit="10" x1="349.515" y1="226.796" x2="351.407" y2="226.074"/>
	<line fill="none" stroke="#000000" stroke-width="3" stroke-miterlimit="10" x1="292.075" y1="248.6" x2="298.771" y2="258.715"/>
	
		<line fill="none" stroke="#000000" stroke-width="3" stroke-miterlimit="10" x1="298.771" y1="258.715" x2="306.597" y2="267.486"/>
	
		<line fill="none" stroke="#000000" stroke-width="3" stroke-miterlimit="10" x1="306.597" y1="267.486" x2="315.317" y2="274.614"/>
	<line fill="none" stroke="#000000" stroke-width="3" stroke-miterlimit="10" x1="315.317" y1="274.614" x2="324.655" y2="279.84"/>
	
		<line fill="none" stroke="#000000" stroke-width="3" stroke-miterlimit="10" x1="334.315" y1="282.944" x2="343.968" y2="283.758"/>
	
		<line fill="none" stroke="#000000" stroke-width="3" stroke-miterlimit="10" x1="343.968" y1="283.758" x2="353.272" y2="282.186"/>
	<line fill="none" stroke="#000000" stroke-width="3" stroke-miterlimit="10" x1="286.715" y1="237.465" x2="292.075" y2="248.6"/>
	<line fill="none" stroke="#000000" stroke-width="3" stroke-miterlimit="10" x1="324.655" y1="279.84" x2="334.315" y2="282.944"/>
	
		<line fill="none" stroke="#000000" stroke-width="3" stroke-miterlimit="10" x1="353.272" y1="282.186" x2="361.868" y2="278.198"/>
	
		<line fill="none" stroke="#000000" stroke-width="3" stroke-miterlimit="10" x1="361.868" y1="278.198" x2="369.402" y2="271.862"/>
	
		<line fill="none" stroke="#000000" stroke-width="3" stroke-miterlimit="10" x1="369.402" y1="271.862" x2="375.532" y2="263.343"/>
	
		<line fill="none" stroke="#000000" stroke-width="3" stroke-miterlimit="10" x1="375.532" y1="263.343" x2="379.958" y2="252.918"/>
	
		<line fill="none" stroke="#000000" stroke-width="3" stroke-miterlimit="10" x1="602.734" y1="261.404" x2="603.989" y2="263.317"/>
	
		<line fill="none" stroke="#000000" stroke-width="3" stroke-miterlimit="10" x1="592.599" y1="258.612" x2="594.669" y2="258.081"/>
	
		<line fill="none" stroke="#000000" stroke-width="3" stroke-miterlimit="10" x1="601.046" y1="259.831" x2="602.734" y2="261.404"/>
	
		<line fill="none" stroke="#000000" stroke-width="3" stroke-miterlimit="10" x1="599.043" y1="258.708" x2="601.046" y2="259.831"/>
	<line fill="none" stroke="#000000" stroke-width="3" stroke-miterlimit="10" x1="640.437" y1="270.744" x2="641.5" y2="268.828"/>
	
		<line fill="none" stroke="#000000" stroke-width="3" stroke-miterlimit="10" x1="588.454" y1="263.022" x2="589.384" y2="261.172"/>
	
		<line fill="none" stroke="#000000" stroke-width="3" stroke-miterlimit="10" x1="643.079" y1="267.275" x2="645.071" y2="266.191"/>
	
		<line fill="none" stroke="#000000" stroke-width="3" stroke-miterlimit="10" x1="594.669" y1="258.081" x2="596.868" y2="258.111"/>
	<line fill="none" stroke="#000000" stroke-width="3" stroke-miterlimit="10" x1="658.122" y1="273.37" x2="658.245" y2="275.635"/>
	
		<line fill="none" stroke="#000000" stroke-width="3" stroke-miterlimit="10" x1="589.384" y1="261.172" x2="590.796" y2="259.667"/>
	
		<line fill="none" stroke="#000000" stroke-width="3" stroke-miterlimit="10" x1="588.065" y1="265.092" x2="588.454" y2="263.022"/>
	
		<line fill="none" stroke="#000000" stroke-width="3" stroke-miterlimit="10" x1="649.739" y1="265.702" x2="652.099" y2="266.336"/>
	<line fill="none" stroke="#000000" stroke-width="3" stroke-miterlimit="10" x1="657.373" y1="271.16" x2="658.122" y2="273.37"/>
	
		<line fill="none" stroke="#000000" stroke-width="3" stroke-miterlimit="10" x1="652.099" y1="266.336" x2="654.253" y2="267.518"/>
	
		<line fill="none" stroke="#000000" stroke-width="3" stroke-miterlimit="10" x1="596.868" y1="258.111" x2="599.043" y2="258.708"/>
	
		<line fill="none" stroke="#000000" stroke-width="3" stroke-miterlimit="10" x1="603.989" y1="263.317" x2="604.727" y2="265.438"/>
	
		<line fill="none" stroke="#000000" stroke-width="3" stroke-miterlimit="10" x1="604.727" y1="265.438" x2="604.892" y2="267.621"/>
	<line fill="none" stroke="#000000" stroke-width="3" stroke-miterlimit="10" x1="656.054" y1="269.163" x2="657.373" y2="271.16"/>
	<line fill="none" stroke="#000000" stroke-width="3" stroke-miterlimit="10" x1="641.5" y1="268.828" x2="643.079" y2="267.275"/>
	
		<line fill="none" stroke="#000000" stroke-width="3" stroke-miterlimit="10" x1="590.796" y1="259.667" x2="592.599" y2="258.612"/>
	
		<line fill="none" stroke="#000000" stroke-width="3" stroke-miterlimit="10" x1="647.343" y1="265.653" x2="649.739" y2="265.702"/>
	<line fill="none" stroke="#000000" stroke-width="3" stroke-miterlimit="10" x1="639.96" y1="272.888" x2="640.437" y2="270.744"/>
	
		<line fill="none" stroke="#000000" stroke-width="3" stroke-miterlimit="10" x1="654.253" y1="267.518" x2="656.054" y2="269.163"/>
	
		<line fill="none" stroke="#000000" stroke-width="3" stroke-miterlimit="10" x1="645.071" y1="266.191" x2="647.343" y2="265.653"/>
	<line fill="none" stroke="#000000" stroke-width="3" stroke-miterlimit="10" x1="574.329" y1="283.35" x2="580.521" y2="292.227"/>
	
		<line fill="none" stroke="#000000" stroke-width="3" stroke-miterlimit="10" x1="580.521" y1="292.227" x2="588.235" y2="299.987"/>
	
		<line fill="none" stroke="#000000" stroke-width="3" stroke-miterlimit="10" x1="588.235" y1="299.987" x2="597.233" y2="306.368"/>
	
		<line fill="none" stroke="#000000" stroke-width="3" stroke-miterlimit="10" x1="597.233" y1="306.368" x2="607.234" y2="311.131"/>
	
		<line fill="none" stroke="#000000" stroke-width="3" stroke-miterlimit="10" x1="617.913" y1="314.084" x2="628.914" y2="315.079"/>
	
		<line fill="none" stroke="#000000" stroke-width="3" stroke-miterlimit="10" x1="628.914" y1="315.079" x2="639.847" y2="314.028"/>
	
		<line fill="none" stroke="#000000" stroke-width="3" stroke-miterlimit="10" x1="607.234" y1="311.131" x2="617.913" y2="314.084"/>
	
		<line fill="none" stroke="#000000" stroke-width="3" stroke-miterlimit="10" x1="639.847" y1="314.028" x2="650.304" y2="310.905"/>
	<line fill="none" stroke="#000000" stroke-width="3" stroke-miterlimit="10" x1="650.304" y1="310.905" x2="659.868" y2="305.77"/>
	<line fill="none" stroke="#000000" stroke-width="3" stroke-miterlimit="10" x1="659.868" y1="305.77" x2="668.131" y2="298.757"/>
	<path fill="#FFC303" stroke="#000000" stroke-width="0.75" d="M616.92,287.836c-8.056-11.695-25.237-8-33.829-1.847
		c-6.98,4.308-32.218,13.541-34.365-2.461c-2.147,28.928,50.008,36.937,68.194,17.848c10.298,14.442,20.146,22.493,36.255,24.339
		c14.986,1.717,33.549-3.41,43.215-17.566c-15.034-1.232-24.887,5.084-38.66-6.772c-14.238-12.257-23.627-24.618-40.273-14.156"/>
	<path fill="#FFC303" stroke="#000000" stroke-width="0.75" d="M615.42,289.336c-8.056-11.695-25.237-8-33.829-1.847
		c-6.98,4.308-32.218,13.541-34.365-2.461c-2.147,28.928,50.008,36.937,68.194,17.848c10.298,14.442,20.146,22.493,36.255,24.339
		c14.986,1.717,33.549-3.41,43.215-17.566c-15.034-1.232-24.887,5.084-38.66-6.772c-14.238-12.257-23.627-24.618-40.273-14.156"/>
	<line fill="none" stroke="#000000" stroke-width="3" stroke-miterlimit="10" x1="480.433" y1="283.63" x2="401.881" y2="335.181"/>
	<line fill="none" stroke="#000000" stroke-miterlimit="10" x1="366.689" y1="137.43" x2="367.067" y2="143.511"/>
	
		<line fill="none" stroke="#000000" stroke-width="3" stroke-miterlimit="10" x1="281.728" y1="311.664" x2="281.096" y2="306.104"/>
	
		<line fill="none" stroke="#000000" stroke-width="3" stroke-miterlimit="10" x1="406.826" y1="336.373" x2="401.881" y2="335.181"/>
	<line fill="none" stroke="#000000" stroke-width="3" stroke-miterlimit="10" x1="276.76" y1="305.06" x2="281.096" y2="306.104"/>
	
		<line fill="none" stroke="#000000" stroke-width="3" stroke-miterlimit="10" x1="401.881" y1="335.181" x2="281.096" y2="306.104"/>
	<line fill="none" stroke="#000000" stroke-miterlimit="10" x1="402.153" y1="340.656" x2="401.881" y2="335.181"/>
	<line fill="none" stroke="#000000" stroke-miterlimit="10" x1="393.331" y1="163.219" x2="393.63" y2="169.222"/>
	<line fill="none" stroke="#000000" stroke-miterlimit="10" x1="401.881" y1="335.181" x2="393.63" y2="169.222"/>
	<line fill="none" stroke="#000000" stroke-miterlimit="10" x1="398.535" y1="169.629" x2="393.63" y2="169.222"/>
	<line fill="none" stroke="#000000" stroke-miterlimit="10" x1="320.151" y1="163.102" x2="324.689" y2="163.48"/>
	<line fill="none" stroke="#000000" stroke-miterlimit="10" x1="393.63" y1="169.222" x2="324.689" y2="163.48"/>
	<line fill="none" stroke="#000000" stroke-width="3" stroke-miterlimit="10" x1="362.33" y1="143.225" x2="367.067" y2="143.511"/>
	<line fill="none" stroke="#000000" stroke-width="3" stroke-miterlimit="10" x1="484.843" y1="150.593" x2="479.53" y2="150.274"/>
	<line fill="none" stroke="#000000" stroke-width="3" stroke-miterlimit="10" x1="367.067" y1="143.511" x2="479.53" y2="150.274"/>
	<line fill="none" stroke="#000000" stroke-miterlimit="10" x1="479.53" y1="150.274" x2="393.63" y2="169.222"/>
	<line fill="none" stroke="#000000" stroke-miterlimit="10" x1="485.749" y1="284.579" x2="480.433" y2="283.63"/>
	<line fill="none" stroke="#000000" stroke-width="3" stroke-miterlimit="10" x1="480.472" y1="289.257" x2="480.433" y2="283.63"/>
	<line fill="none" stroke="#000000" stroke-width="3" stroke-miterlimit="10" x1="479.489" y1="144.215" x2="479.53" y2="150.274"/>
	<line fill="none" stroke="#000000" stroke-width="3" stroke-miterlimit="10" x1="480.433" y1="283.63" x2="479.53" y2="150.274"/>
	<line fill="none" stroke="#000000" stroke-width="3" stroke-miterlimit="10" x1="261.783" y1="162.431" x2="264.31" y2="158.45"/>
	<line fill="none" stroke="#000000" stroke-miterlimit="10" x1="263.104" y1="162.239" x2="264.493" y2="160.058"/>
	<line fill="none" stroke="#000000" stroke-miterlimit="10" x1="276.312" y1="141.484" x2="273.707" y2="145.578"/>
	<line fill="none" stroke="#000000" stroke-width="3" stroke-miterlimit="10" x1="330.531" y1="163.641" x2="325.943" y2="163.26"/>
	<line fill="none" stroke="#000000" stroke-miterlimit="10" x1="324.689" y1="163.48" x2="325.943" y2="163.26"/>
	
		<line fill="none" stroke="#000000" stroke-width="3" stroke-miterlimit="10" x1="316.144" y1="150.915" x2="367.067" y2="143.511"/>
	<line fill="none" stroke="#000000" stroke-miterlimit="10" x1="328.275" y1="167.998" x2="324.689" y2="163.48"/>
	<line fill="none" stroke="#000000" stroke-miterlimit="10" x1="312.823" y1="148.522" x2="324.689" y2="163.48"/>
	<line fill="none" stroke="#000000" stroke-miterlimit="10" x1="268.081" y1="145.446" x2="272.376" y2="145.742"/>
	<line fill="none" stroke="#000000" stroke-miterlimit="10" x1="272.376" y1="145.742" x2="312.823" y2="148.522"/>
	
		<line fill="none" stroke="#000000" stroke-width="3" stroke-miterlimit="10" x1="318.636" y1="148.656" x2="314.103" y2="148.345"/>
	
		<line fill="none" stroke="#000000" stroke-width="3" stroke-miterlimit="10" x1="272.376" y1="145.742" x2="273.707" y2="145.578"/>
	<line fill="none" stroke="#000000" stroke-miterlimit="10" x1="312.823" y1="148.522" x2="314.103" y2="148.345"/>
	
		<line fill="none" stroke="#000000" stroke-width="3" stroke-miterlimit="10" x1="310.539" y1="143.855" x2="314.103" y2="148.345"/>
	
		<line fill="none" stroke="#000000" stroke-width="3" stroke-miterlimit="10" x1="263.623" y1="152.415" x2="264.274" y2="158.143"/>
	<line fill="none" stroke="#000000" stroke-width="3" stroke-miterlimit="10" x1="264.274" y1="158.143" x2="264.31" y2="158.45"/>
	
		<line fill="none" stroke="#000000" stroke-width="3" stroke-miterlimit="10" x1="281.096" y1="306.104" x2="264.493" y2="160.058"/>
	<line fill="none" stroke="#000000" stroke-width="3" stroke-miterlimit="10" x1="264.493" y1="160.058" x2="264.31" y2="158.45"/>
	<line fill="none" stroke="#000000" stroke-width="3" stroke-miterlimit="10" x1="274.974" y1="141.649" x2="272.53" y2="145.499"/>
	<line fill="none" stroke="#000000" stroke-width="3" stroke-miterlimit="10" x1="272.53" y1="145.499" x2="272.376" y2="145.742"/>
	<line fill="none" stroke="#000000" stroke-width="3" stroke-miterlimit="10" x1="264.31" y1="158.45" x2="264.493" y2="158.163"/>
	
		<line fill="none" stroke="#000000" stroke-width="3" stroke-miterlimit="10" x1="264.493" y1="158.163" x2="272.376" y2="145.742"/>
	
		<line fill="none" stroke="#000000" stroke-width="3" stroke-miterlimit="10" x1="261.376" y1="157.903" x2="264.274" y2="158.143"/>
	
		<line fill="none" stroke="#000000" stroke-width="3" stroke-miterlimit="10" x1="264.274" y1="158.143" x2="264.493" y2="158.163"/>
	<line fill="none" stroke="#000000" stroke-miterlimit="10" x1="309.261" y1="144.034" x2="312.599" y2="148.241"/>
	<line fill="none" stroke="#000000" stroke-miterlimit="10" x1="312.599" y1="148.241" x2="312.823" y2="148.522"/>
	<line fill="none" stroke="#000000" stroke-miterlimit="10" x1="317.349" y1="148.834" x2="314.327" y2="148.627"/>
	<line fill="none" stroke="#000000" stroke-miterlimit="10" x1="314.327" y1="148.627" x2="312.823" y2="148.522"/>
	<line fill="none" stroke="#000000" stroke-width="3" stroke-miterlimit="10" x1="269.406" y1="145.285" x2="272.53" y2="145.499"/>
	<line fill="none" stroke="#000000" stroke-width="3" stroke-miterlimit="10" x1="272.53" y1="145.499" x2="273.707" y2="145.578"/>
	
		<line fill="none" stroke="#000000" stroke-width="3" stroke-miterlimit="10" x1="273.707" y1="145.578" x2="312.599" y2="148.241"/>
	
		<line fill="none" stroke="#000000" stroke-width="3" stroke-miterlimit="10" x1="312.599" y1="148.241" x2="314.103" y2="148.345"/>
	<line fill="none" stroke="#000000" stroke-width="3" stroke-miterlimit="10" x1="316.144" y1="150.915" x2="325.943" y2="163.26"/>
	
		<line fill="none" stroke="#000000" stroke-width="3" stroke-miterlimit="10" x1="314.103" y1="148.345" x2="314.327" y2="148.627"/>
	
		<line fill="none" stroke="#000000" stroke-width="3" stroke-miterlimit="10" x1="314.327" y1="148.627" x2="316.144" y2="150.915"/>
	<line fill="none" stroke="#000000" stroke-miterlimit="10" x1="596.395" y1="174.188" x2="596.085" y2="180.159"/>
	<line fill="none" stroke="#000000" stroke-width="3" stroke-miterlimit="10" x1="548.37" y1="342.991" x2="548.535" y2="337.524"/>
	<line fill="none" stroke="#000000" stroke-width="3" stroke-miterlimit="10" x1="552.788" y1="196.506" x2="552.608" y2="202.41"/>
	<line fill="none" stroke="#000000" stroke-width="3" stroke-miterlimit="10" x1="548.535" y1="337.524" x2="552.608" y2="202.41"/>
	<line fill="none" stroke="#000000" stroke-width="3" stroke-miterlimit="10" x1="552.608" y1="202.41" x2="596.085" y2="180.159"/>
	<line fill="none" stroke="#000000" stroke-width="3" stroke-miterlimit="10" x1="699.165" y1="369.636" x2="692.849" y2="368.29"/>
	
		<line fill="none" stroke="#000000" stroke-width="3" stroke-miterlimit="10" x1="542.951" y1="336.334" x2="548.535" y2="337.524"/>
	<line fill="none" stroke="#000000" stroke-width="3" stroke-miterlimit="10" x1="692.849" y1="368.29" x2="548.535" y2="337.524"/>
	<line fill="none" stroke="#000000" stroke-miterlimit="10" x1="715.868" y1="218.722" x2="709.474" y2="218.082"/>
	<line fill="none" stroke="#000000" stroke-miterlimit="10" x1="547.006" y1="201.85" x2="552.608" y2="202.41"/>
	<line fill="none" stroke="#000000" stroke-miterlimit="10" x1="709.474" y1="218.082" x2="552.608" y2="202.41"/>
	<line fill="none" stroke="#000000" stroke-width="3" stroke-miterlimit="10" x1="590.28" y1="179.703" x2="596.085" y2="180.159"/>
	<line fill="none" stroke="#000000" stroke-width="3" stroke-miterlimit="10" x1="731.812" y1="190.817" x2="725.342" y2="190.31"/>
	<line fill="none" stroke="#000000" stroke-width="3" stroke-miterlimit="10" x1="596.085" y1="180.159" x2="725.342" y2="190.31"/>
	<line fill="none" stroke="#000000" stroke-miterlimit="10" x1="717.327" y1="314.479" x2="710.925" y2="313.39"/>
	<line fill="none" stroke="#000000" stroke-width="3" stroke-miterlimit="10" x1="710.277" y1="318.927" x2="710.925" y2="313.39"/>
	<line fill="none" stroke="#000000" stroke-width="3" stroke-miterlimit="10" x1="726.038" y1="184.369" x2="725.342" y2="190.31"/>
	<line fill="none" stroke="#000000" stroke-width="3" stroke-miterlimit="10" x1="710.925" y1="313.39" x2="725.342" y2="190.31"/>
	<line fill="none" stroke="#000000" stroke-miterlimit="10" x1="725.342" y1="190.31" x2="709.474" y2="218.082"/>
	<line fill="none" stroke="#000000" stroke-miterlimit="10" x1="692.254" y1="373.665" x2="692.849" y2="368.29"/>
	<line fill="none" stroke="#000000" stroke-miterlimit="10" x1="710.122" y1="212.225" x2="709.474" y2="218.082"/>
	<line fill="none" stroke="#000000" stroke-miterlimit="10" x1="692.849" y1="368.29" x2="709.474" y2="218.082"/>
	<line fill="none" stroke="#000000" stroke-width="3" stroke-miterlimit="10" x1="710.925" y1="313.39" x2="692.849" y2="368.29"/>
</g>
</svg>
