<?xml version="1.0" encoding="utf-8"?>
<!-- Generator: Adobe Illustrator 14.0.0, SVG Export Plug-In . SVG Version: 6.00 Build 43363)  -->
<!DOCTYPE svg PUBLIC "-//W3C//DTD SVG 1.1//EN" "http://www.w3.org/Graphics/SVG/1.1/DTD/svg11.dtd">
<svg version="1.1" xmlns="http://www.w3.org/2000/svg" xmlns:xlink="http://www.w3.org/1999/xlink" x="0px" y="0px" width="1000px"
	 height="500px" viewBox="0 0 1000 500" enable-background="new 0 0 1000 500" xml:space="preserve">
<g id="Layer_13">
	<g>
		<text transform="matrix(1 0 0 1 609.4219 134.9736)" fill="#CECECE" font-family="'Futura-CondensedMedium'" font-size="36">PROXY SVG</text>
	</g>
</g>
<g id="Layer_11">
	<polygon fill="#FFFFFF" points="552.608,202.41 596.085,180.159 725.342,190.31 710.925,313.39 692.849,368.29 548.535,337.524 	
		"/>
</g>
<g id="Layer_10">
	<text transform="matrix(1 0 0 1 372.6885 134.981)" fill="#CECECE" font-family="'Futura-CondensedMedium'" font-size="36">VIEWER.JS</text>
</g>
<g id="Layer_12">
	<polygon fill="#FFFFFF" points="312.599,148.241 316.144,150.915 367.067,143.511 479.53,150.274 480.433,283.63 401.881,335.181 
		281.096,306.104 264.274,158.143 272.53,145.499 	"/>
</g>
<g id="Layer_6">
	<path fill="#FFFFFF" stroke="#231F20" d="M754.263,337.246c-12.127,8.172-19.455,18.807-19.455,30.435
		c0,25.781,36.037,46.682,80.49,46.682s80.49-20.9,80.49-46.682c0-25.782-36.037-46.682-80.49-46.682
		c-14.364,0-27.85,2.182-39.523,6.006l-22.788-15.341L754.263,337.246z"/>
	<text transform="matrix(1 0 0 1 797.4844 358.6797)"><tspan x="0" y="0" font-family="'Futura-CondensedMedium'" font-size="24">“HI - </tspan><tspan x="-27.252" y="28.8" font-family="'Futura-CondensedMedium'" font-size="24">I’M READY!”</tspan></text>
	
		<line fill="none" stroke="#000000" stroke-width="3" stroke-miterlimit="10" x1="307.067" y1="229.961" x2="306.835" y2="229.373"/>
	
		<line fill="none" stroke="#000000" stroke-width="3" stroke-miterlimit="10" x1="307.398" y1="230.486" x2="307.067" y2="229.961"/>
	
		<line fill="none" stroke="#000000" stroke-width="3" stroke-miterlimit="10" x1="355.749" y1="235.208" x2="355.727" y2="235.828"/>
	
		<line fill="none" stroke="#000000" stroke-width="3" stroke-miterlimit="10" x1="351.798" y1="234.605" x2="351.819" y2="233.987"/>
	
		<line fill="none" stroke="#000000" stroke-width="3" stroke-miterlimit="10" x1="324.231" y1="279.715" x2="333.964" y2="282.842"/>
	
		<line fill="none" stroke="#000000" stroke-width="3" stroke-miterlimit="10" x1="369.315" y1="271.676" x2="375.495" y2="263.094"/>
	<line fill="none" stroke="#000000" stroke-width="3" stroke-miterlimit="10" x1="314.821" y1="274.45" x2="324.231" y2="279.715"/>
	<line fill="none" stroke="#000000" stroke-width="3" stroke-miterlimit="10" x1="291.401" y1="248.239" x2="298.149" y2="258.43"/>
	<line fill="none" stroke="#000000" stroke-width="3" stroke-miterlimit="10" x1="298.149" y1="258.43" x2="306.038" y2="267.268"/>
	<line fill="none" stroke="#000000" stroke-width="3" stroke-miterlimit="10" x1="361.726" y1="278.06" x2="369.315" y2="271.676"/>
	<line fill="none" stroke="#000000" stroke-width="3" stroke-miterlimit="10" x1="353.065" y1="282.081" x2="361.726" y2="278.06"/>
	<line fill="none" stroke="#000000" stroke-width="3" stroke-miterlimit="10" x1="306.038" y1="267.268" x2="314.821" y2="274.45"/>
	<line fill="none" stroke="#000000" stroke-width="3" stroke-miterlimit="10" x1="343.69" y1="283.665" x2="353.065" y2="282.081"/>
	
		<line fill="none" stroke="#000000" stroke-width="3" stroke-miterlimit="10" x1="286.001" y1="237.019" x2="291.401" y2="248.239"/>
	<line fill="none" stroke="#000000" stroke-width="3" stroke-miterlimit="10" x1="375.495" y1="263.094" x2="379.954" y2="252.59"/>
	<line fill="none" stroke="#000000" stroke-width="3" stroke-miterlimit="10" x1="333.964" y1="282.842" x2="343.69" y2="283.665"/>
	
		<line fill="none" stroke="#000000" stroke-width="3" stroke-miterlimit="10" x1="355.397" y1="233.948" x2="355.638" y2="234.567"/>
	
		<line fill="none" stroke="#000000" stroke-width="3" stroke-miterlimit="10" x1="354.114" y1="232.629" x2="354.608" y2="232.946"/>
	
		<line fill="none" stroke="#000000" stroke-width="3" stroke-miterlimit="10" x1="354.449" y1="237.333" x2="353.944" y2="237.335"/>
	
		<line fill="none" stroke="#000000" stroke-width="3" stroke-miterlimit="10" x1="353.595" y1="232.469" x2="353.604" y2="232.472"/>
	
		<line fill="none" stroke="#000000" stroke-width="3" stroke-miterlimit="10" x1="352.251" y1="232.973" x2="352.632" y2="232.648"/>
	<line fill="none" stroke="#000000" stroke-width="3" stroke-miterlimit="10" x1="352.935" y1="236.858" x2="352.499" y2="236.41"/>
	
		<line fill="none" stroke="#000000" stroke-width="3" stroke-miterlimit="10" x1="353.944" y1="237.335" x2="353.429" y2="237.174"/>
	
		<line fill="none" stroke="#000000" stroke-width="3" stroke-miterlimit="10" x1="353.604" y1="232.472" x2="354.114" y2="232.629"/>
	<line fill="none" stroke="#000000" stroke-width="3" stroke-miterlimit="10" x1="351.819" y1="233.987" x2="351.974" y2="233.43"/>
	<line fill="none" stroke="#000000" stroke-width="3" stroke-miterlimit="10" x1="355.569" y1="236.385" x2="355.292" y2="236.84"/>
	<line fill="none" stroke="#000000" stroke-width="3" stroke-miterlimit="10" x1="352.499" y1="236.41" x2="352.151" y2="235.859"/>
	
		<line fill="none" stroke="#000000" stroke-width="3" stroke-miterlimit="10" x1="354.907" y1="237.164" x2="354.449" y2="237.333"/>
	
		<line fill="none" stroke="#000000" stroke-width="3" stroke-miterlimit="10" x1="355.638" y1="234.567" x2="355.749" y2="235.208"/>
	<line fill="none" stroke="#000000" stroke-width="3" stroke-miterlimit="10" x1="355.292" y1="236.84" x2="354.907" y2="237.164"/>
	
		<line fill="none" stroke="#000000" stroke-width="3" stroke-miterlimit="10" x1="355.727" y1="235.828" x2="355.569" y2="236.385"/>
	<line fill="none" stroke="#000000" stroke-width="3" stroke-miterlimit="10" x1="352.632" y1="232.648" x2="353.09" y2="232.476"/>
	
		<line fill="none" stroke="#000000" stroke-width="3" stroke-miterlimit="10" x1="355.047" y1="233.395" x2="355.397" y2="233.948"/>
	
		<line fill="none" stroke="#000000" stroke-width="3" stroke-miterlimit="10" x1="352.151" y1="235.859" x2="351.911" y2="235.244"/>
	
		<line fill="none" stroke="#000000" stroke-width="3" stroke-miterlimit="10" x1="354.608" y1="232.946" x2="355.047" y2="233.395"/>
	<line fill="none" stroke="#000000" stroke-width="3" stroke-miterlimit="10" x1="351.974" y1="233.43" x2="352.251" y2="232.973"/>
	
		<line fill="none" stroke="#000000" stroke-width="3" stroke-miterlimit="10" x1="353.429" y1="237.174" x2="352.935" y2="236.858"/>
	
		<line fill="none" stroke="#000000" stroke-width="3" stroke-miterlimit="10" x1="351.911" y1="235.244" x2="351.798" y2="234.605"/>
	<line fill="none" stroke="#000000" stroke-width="3" stroke-miterlimit="10" x1="353.09" y1="232.476" x2="353.595" y2="232.469"/>
	
		<line fill="none" stroke="#000000" stroke-width="3" stroke-miterlimit="10" x1="306.871" y1="225.668" x2="307.327" y2="225.967"/>
	<line fill="none" stroke="#000000" stroke-width="3" stroke-miterlimit="10" x1="307.3" y1="230.167" x2="306.843" y2="230.174"/>
	
		<line fill="none" stroke="#000000" stroke-width="3" stroke-miterlimit="10" x1="306.397" y1="225.519" x2="306.407" y2="225.522"/>
	<line fill="none" stroke="#000000" stroke-width="3" stroke-miterlimit="10" x1="305.195" y1="226.011" x2="305.53" y2="225.696"/>
	
		<line fill="none" stroke="#000000" stroke-width="3" stroke-miterlimit="10" x1="305.917" y1="229.724" x2="305.512" y2="229.298"/>
	
		<line fill="none" stroke="#000000" stroke-width="3" stroke-miterlimit="10" x1="306.843" y1="230.174" x2="306.372" y2="230.022"/>
	<line fill="none" stroke="#000000" stroke-width="3" stroke-miterlimit="10" x1="305.53" y1="225.696" x2="305.94" y2="225.528"/>
	
		<line fill="none" stroke="#000000" stroke-width="3" stroke-miterlimit="10" x1="306.407" y1="225.522" x2="306.871" y2="225.668"/>
	<line fill="none" stroke="#000000" stroke-width="3" stroke-miterlimit="10" x1="304.833" y1="226.984" x2="304.956" y2="226.45"/>
	
		<line fill="none" stroke="#000000" stroke-width="3" stroke-miterlimit="10" x1="308.288" y1="229.251" x2="308.048" y2="229.689"/>
	
		<line fill="none" stroke="#000000" stroke-width="3" stroke-miterlimit="10" x1="305.512" y1="229.298" x2="305.181" y2="228.774"/>
	<line fill="none" stroke="#000000" stroke-width="3" stroke-miterlimit="10" x1="307.71" y1="230.001" x2="307.3" y2="230.167"/>
	
		<line fill="none" stroke="#000000" stroke-width="3" stroke-miterlimit="10" x1="308.301" y1="227.511" x2="308.419" y2="228.124"/>
	<line fill="none" stroke="#000000" stroke-width="3" stroke-miterlimit="10" x1="307.735" y1="226.394" x2="308.067" y2="226.92"/>
	
		<line fill="none" stroke="#000000" stroke-width="3" stroke-miterlimit="10" x1="305.181" y1="228.774" x2="304.948" y2="228.186"/>
	
		<line fill="none" stroke="#000000" stroke-width="3" stroke-miterlimit="10" x1="307.327" y1="225.967" x2="307.735" y2="226.394"/>
	<line fill="none" stroke="#000000" stroke-width="3" stroke-miterlimit="10" x1="304.956" y1="226.45" x2="305.195" y2="226.011"/>
	
		<line fill="none" stroke="#000000" stroke-width="3" stroke-miterlimit="10" x1="306.372" y1="230.022" x2="305.917" y2="229.724"/>
	
		<line fill="none" stroke="#000000" stroke-width="3" stroke-miterlimit="10" x1="304.948" y1="228.186" x2="304.831" y2="227.576"/>
	<line fill="none" stroke="#000000" stroke-width="3" stroke-miterlimit="10" x1="305.94" y1="225.528" x2="306.397" y2="225.519"/>
	
		<line fill="none" stroke="#000000" stroke-width="3" stroke-miterlimit="10" x1="308.419" y1="228.124" x2="308.415" y2="228.717"/>
	<line fill="none" stroke="#000000" stroke-width="3" stroke-miterlimit="10" x1="308.048" y1="229.689" x2="307.71" y2="230.001"/>
	
		<line fill="none" stroke="#000000" stroke-width="3" stroke-miterlimit="10" x1="308.415" y1="228.717" x2="308.288" y2="229.251"/>
	<line fill="none" stroke="#000000" stroke-width="3" stroke-miterlimit="10" x1="308.067" y1="226.92" x2="308.301" y2="227.511"/>
	
		<line fill="none" stroke="#000000" stroke-width="3" stroke-miterlimit="10" x1="304.831" y1="227.576" x2="304.833" y2="226.984"/>
	<line fill="none" stroke="#000000" stroke-width="3" stroke-miterlimit="10" x1="480.433" y1="283.63" x2="401.881" y2="335.181"/>
	<line fill="none" stroke="#000000" stroke-miterlimit="10" x1="366.689" y1="137.43" x2="367.067" y2="143.511"/>
	
		<line fill="none" stroke="#000000" stroke-width="3" stroke-miterlimit="10" x1="281.728" y1="311.664" x2="281.096" y2="306.104"/>
	
		<line fill="none" stroke="#000000" stroke-width="3" stroke-miterlimit="10" x1="406.826" y1="336.373" x2="401.881" y2="335.181"/>
	<line fill="none" stroke="#000000" stroke-width="3" stroke-miterlimit="10" x1="276.76" y1="305.06" x2="281.096" y2="306.104"/>
	
		<line fill="none" stroke="#000000" stroke-width="3" stroke-miterlimit="10" x1="401.881" y1="335.181" x2="281.096" y2="306.104"/>
	<line fill="none" stroke="#000000" stroke-miterlimit="10" x1="402.153" y1="340.656" x2="401.881" y2="335.181"/>
	<line fill="none" stroke="#000000" stroke-miterlimit="10" x1="393.331" y1="163.219" x2="393.63" y2="169.222"/>
	<line fill="none" stroke="#000000" stroke-miterlimit="10" x1="401.881" y1="335.181" x2="393.63" y2="169.222"/>
	<line fill="none" stroke="#000000" stroke-miterlimit="10" x1="398.535" y1="169.629" x2="393.63" y2="169.222"/>
	<line fill="none" stroke="#000000" stroke-miterlimit="10" x1="320.151" y1="163.102" x2="324.689" y2="163.48"/>
	<line fill="none" stroke="#000000" stroke-miterlimit="10" x1="393.63" y1="169.222" x2="324.689" y2="163.48"/>
	<line fill="none" stroke="#000000" stroke-width="3" stroke-miterlimit="10" x1="362.33" y1="143.225" x2="367.067" y2="143.511"/>
	<line fill="none" stroke="#000000" stroke-width="3" stroke-miterlimit="10" x1="484.843" y1="150.593" x2="479.53" y2="150.274"/>
	<line fill="none" stroke="#000000" stroke-width="3" stroke-miterlimit="10" x1="367.067" y1="143.511" x2="479.53" y2="150.274"/>
	<line fill="none" stroke="#000000" stroke-miterlimit="10" x1="479.53" y1="150.274" x2="393.63" y2="169.222"/>
	<line fill="none" stroke="#000000" stroke-miterlimit="10" x1="485.749" y1="284.579" x2="480.433" y2="283.63"/>
	<line fill="none" stroke="#000000" stroke-width="3" stroke-miterlimit="10" x1="480.472" y1="289.257" x2="480.433" y2="283.63"/>
	<line fill="none" stroke="#000000" stroke-width="3" stroke-miterlimit="10" x1="479.489" y1="144.215" x2="479.53" y2="150.274"/>
	<line fill="none" stroke="#000000" stroke-width="3" stroke-miterlimit="10" x1="480.433" y1="283.63" x2="479.53" y2="150.274"/>
	<line fill="none" stroke="#000000" stroke-width="3" stroke-miterlimit="10" x1="261.783" y1="162.431" x2="264.31" y2="158.45"/>
	<line fill="none" stroke="#000000" stroke-miterlimit="10" x1="263.104" y1="162.239" x2="264.493" y2="160.058"/>
	<line fill="none" stroke="#000000" stroke-miterlimit="10" x1="276.312" y1="141.484" x2="273.707" y2="145.578"/>
	<line fill="none" stroke="#000000" stroke-width="3" stroke-miterlimit="10" x1="330.531" y1="163.641" x2="325.943" y2="163.26"/>
	<line fill="none" stroke="#000000" stroke-miterlimit="10" x1="324.689" y1="163.48" x2="325.943" y2="163.26"/>
	
		<line fill="none" stroke="#000000" stroke-width="3" stroke-miterlimit="10" x1="316.144" y1="150.915" x2="367.067" y2="143.511"/>
	<line fill="none" stroke="#000000" stroke-miterlimit="10" x1="328.275" y1="167.998" x2="324.689" y2="163.48"/>
	<line fill="none" stroke="#000000" stroke-miterlimit="10" x1="312.823" y1="148.522" x2="324.689" y2="163.48"/>
	<line fill="none" stroke="#000000" stroke-miterlimit="10" x1="268.081" y1="145.446" x2="272.376" y2="145.742"/>
	<line fill="none" stroke="#000000" stroke-miterlimit="10" x1="272.376" y1="145.742" x2="312.823" y2="148.522"/>
	
		<line fill="none" stroke="#000000" stroke-width="3" stroke-miterlimit="10" x1="318.636" y1="148.656" x2="314.103" y2="148.345"/>
	
		<line fill="none" stroke="#000000" stroke-width="3" stroke-miterlimit="10" x1="272.376" y1="145.742" x2="273.707" y2="145.578"/>
	<line fill="none" stroke="#000000" stroke-miterlimit="10" x1="312.823" y1="148.522" x2="314.103" y2="148.345"/>
	
		<line fill="none" stroke="#000000" stroke-width="3" stroke-miterlimit="10" x1="310.539" y1="143.855" x2="314.103" y2="148.345"/>
	
		<line fill="none" stroke="#000000" stroke-width="3" stroke-miterlimit="10" x1="263.623" y1="152.415" x2="264.274" y2="158.143"/>
	<line fill="none" stroke="#000000" stroke-width="3" stroke-miterlimit="10" x1="264.274" y1="158.143" x2="264.31" y2="158.45"/>
	
		<line fill="none" stroke="#000000" stroke-width="3" stroke-miterlimit="10" x1="281.096" y1="306.104" x2="264.493" y2="160.058"/>
	<line fill="none" stroke="#000000" stroke-width="3" stroke-miterlimit="10" x1="264.493" y1="160.058" x2="264.31" y2="158.45"/>
	<line fill="none" stroke="#000000" stroke-width="3" stroke-miterlimit="10" x1="274.974" y1="141.649" x2="272.53" y2="145.499"/>
	<line fill="none" stroke="#000000" stroke-width="3" stroke-miterlimit="10" x1="272.53" y1="145.499" x2="272.376" y2="145.742"/>
	<line fill="none" stroke="#000000" stroke-width="3" stroke-miterlimit="10" x1="264.31" y1="158.45" x2="264.493" y2="158.163"/>
	
		<line fill="none" stroke="#000000" stroke-width="3" stroke-miterlimit="10" x1="264.493" y1="158.163" x2="272.376" y2="145.742"/>
	
		<line fill="none" stroke="#000000" stroke-width="3" stroke-miterlimit="10" x1="261.376" y1="157.903" x2="264.274" y2="158.143"/>
	
		<line fill="none" stroke="#000000" stroke-width="3" stroke-miterlimit="10" x1="264.274" y1="158.143" x2="264.493" y2="158.163"/>
	<line fill="none" stroke="#000000" stroke-miterlimit="10" x1="309.261" y1="144.034" x2="312.599" y2="148.241"/>
	<line fill="none" stroke="#000000" stroke-miterlimit="10" x1="312.599" y1="148.241" x2="312.823" y2="148.522"/>
	<line fill="none" stroke="#000000" stroke-miterlimit="10" x1="317.349" y1="148.834" x2="314.327" y2="148.627"/>
	<line fill="none" stroke="#000000" stroke-miterlimit="10" x1="314.327" y1="148.627" x2="312.823" y2="148.522"/>
	<line fill="none" stroke="#000000" stroke-width="3" stroke-miterlimit="10" x1="269.406" y1="145.285" x2="272.53" y2="145.499"/>
	<line fill="none" stroke="#000000" stroke-width="3" stroke-miterlimit="10" x1="272.53" y1="145.499" x2="273.707" y2="145.578"/>
	
		<line fill="none" stroke="#000000" stroke-width="3" stroke-miterlimit="10" x1="273.707" y1="145.578" x2="312.599" y2="148.241"/>
	
		<line fill="none" stroke="#000000" stroke-width="3" stroke-miterlimit="10" x1="312.599" y1="148.241" x2="314.103" y2="148.345"/>
	<line fill="none" stroke="#000000" stroke-width="3" stroke-miterlimit="10" x1="316.144" y1="150.915" x2="325.943" y2="163.26"/>
	
		<line fill="none" stroke="#000000" stroke-width="3" stroke-miterlimit="10" x1="314.103" y1="148.345" x2="314.327" y2="148.627"/>
	
		<line fill="none" stroke="#000000" stroke-width="3" stroke-miterlimit="10" x1="314.327" y1="148.627" x2="316.144" y2="150.915"/>
	
		<line fill="none" stroke="#000000" stroke-width="3" stroke-miterlimit="10" x1="292.354" y1="248.568" x2="299.069" y2="258.712"/>
	
		<line fill="none" stroke="#000000" stroke-width="3" stroke-miterlimit="10" x1="299.069" y1="258.712" x2="306.921" y2="267.508"/>
	
		<line fill="none" stroke="#000000" stroke-width="3" stroke-miterlimit="10" x1="306.921" y1="267.508" x2="315.666" y2="274.659"/>
	<line fill="none" stroke="#000000" stroke-width="3" stroke-miterlimit="10" x1="315.666" y1="274.659" x2="325.03" y2="279.898"/>
	<line fill="none" stroke="#000000" stroke-width="3" stroke-miterlimit="10" x1="334.718" y1="283.011" x2="344.4" y2="283.83"/>
	<line fill="none" stroke="#000000" stroke-width="3" stroke-miterlimit="10" x1="344.4" y1="283.83" x2="353.731" y2="282.25"/>
	<line fill="none" stroke="#000000" stroke-width="3" stroke-miterlimit="10" x1="286.979" y1="237.4" x2="292.354" y2="248.568"/>
	<line fill="none" stroke="#000000" stroke-width="3" stroke-miterlimit="10" x1="325.03" y1="279.898" x2="334.718" y2="283.011"/>
	<line fill="none" stroke="#000000" stroke-width="3" stroke-miterlimit="10" x1="353.731" y1="282.25" x2="362.354" y2="278.251"/>
	
		<line fill="none" stroke="#000000" stroke-width="3" stroke-miterlimit="10" x1="362.354" y1="278.251" x2="369.909" y2="271.897"/>
	
		<line fill="none" stroke="#000000" stroke-width="3" stroke-miterlimit="10" x1="369.909" y1="271.897" x2="376.059" y2="263.354"/>
	
		<line fill="none" stroke="#000000" stroke-width="3" stroke-miterlimit="10" x1="376.059" y1="263.354" x2="380.497" y2="252.898"/>
	<line fill="none" stroke="#000000" stroke-miterlimit="10" x1="596.395" y1="174.188" x2="596.085" y2="180.159"/>
	<line fill="none" stroke="#000000" stroke-width="3" stroke-miterlimit="10" x1="548.37" y1="342.991" x2="548.535" y2="337.524"/>
	<line fill="none" stroke="#000000" stroke-width="3" stroke-miterlimit="10" x1="552.788" y1="196.506" x2="552.608" y2="202.41"/>
	<line fill="none" stroke="#000000" stroke-width="3" stroke-miterlimit="10" x1="548.535" y1="337.524" x2="552.608" y2="202.41"/>
	<line fill="none" stroke="#000000" stroke-width="3" stroke-miterlimit="10" x1="552.608" y1="202.41" x2="596.085" y2="180.159"/>
	<line fill="none" stroke="#000000" stroke-width="3" stroke-miterlimit="10" x1="699.165" y1="369.636" x2="692.849" y2="368.29"/>
	
		<line fill="none" stroke="#000000" stroke-width="3" stroke-miterlimit="10" x1="542.951" y1="336.334" x2="548.535" y2="337.524"/>
	<line fill="none" stroke="#000000" stroke-width="3" stroke-miterlimit="10" x1="692.849" y1="368.29" x2="548.535" y2="337.524"/>
	<line fill="none" stroke="#000000" stroke-miterlimit="10" x1="715.868" y1="218.722" x2="709.474" y2="218.082"/>
	<line fill="none" stroke="#000000" stroke-miterlimit="10" x1="547.006" y1="201.85" x2="552.608" y2="202.41"/>
	<line fill="none" stroke="#000000" stroke-miterlimit="10" x1="709.474" y1="218.082" x2="552.608" y2="202.41"/>
	<line fill="none" stroke="#000000" stroke-width="3" stroke-miterlimit="10" x1="590.28" y1="179.703" x2="596.085" y2="180.159"/>
	<line fill="none" stroke="#000000" stroke-width="3" stroke-miterlimit="10" x1="731.812" y1="190.817" x2="725.342" y2="190.31"/>
	<line fill="none" stroke="#000000" stroke-width="3" stroke-miterlimit="10" x1="596.085" y1="180.159" x2="725.342" y2="190.31"/>
	<line fill="none" stroke="#000000" stroke-miterlimit="10" x1="717.327" y1="314.479" x2="710.925" y2="313.39"/>
	<line fill="none" stroke="#000000" stroke-width="3" stroke-miterlimit="10" x1="710.277" y1="318.927" x2="710.925" y2="313.39"/>
	<line fill="none" stroke="#000000" stroke-width="3" stroke-miterlimit="10" x1="726.038" y1="184.369" x2="725.342" y2="190.31"/>
	<line fill="none" stroke="#000000" stroke-width="3" stroke-miterlimit="10" x1="710.925" y1="313.39" x2="725.342" y2="190.31"/>
	<line fill="none" stroke="#000000" stroke-miterlimit="10" x1="725.342" y1="190.31" x2="709.474" y2="218.082"/>
	<line fill="none" stroke="#000000" stroke-miterlimit="10" x1="692.254" y1="373.665" x2="692.849" y2="368.29"/>
	<line fill="none" stroke="#000000" stroke-miterlimit="10" x1="710.122" y1="212.225" x2="709.474" y2="218.082"/>
	<line fill="none" stroke="#000000" stroke-miterlimit="10" x1="692.849" y1="368.29" x2="709.474" y2="218.082"/>
	<line fill="none" stroke="#000000" stroke-width="3" stroke-miterlimit="10" x1="710.925" y1="313.39" x2="692.849" y2="368.29"/>
	
		<line fill="none" stroke="#000000" stroke-width="3" stroke-miterlimit="10" x1="608.438" y1="311.281" x2="619.149" y2="314.243"/>
	
		<line fill="none" stroke="#000000" stroke-width="3" stroke-miterlimit="10" x1="661.226" y1="305.904" x2="669.514" y2="298.873"/>
	
		<line fill="none" stroke="#000000" stroke-width="3" stroke-miterlimit="10" x1="598.409" y1="306.504" x2="608.438" y2="311.281"/>
	
		<line fill="none" stroke="#000000" stroke-width="3" stroke-miterlimit="10" x1="575.438" y1="283.418" x2="581.646" y2="292.322"/>
	
		<line fill="none" stroke="#000000" stroke-width="3" stroke-miterlimit="10" x1="581.646" y1="292.322" x2="589.384" y2="300.106"/>
	
		<line fill="none" stroke="#000000" stroke-width="3" stroke-miterlimit="10" x1="651.634" y1="311.055" x2="661.226" y2="305.904"/>
	
		<line fill="none" stroke="#000000" stroke-width="3" stroke-miterlimit="10" x1="641.147" y1="314.187" x2="651.634" y2="311.055"/>
	
		<line fill="none" stroke="#000000" stroke-width="3" stroke-miterlimit="10" x1="589.384" y1="300.106" x2="598.409" y2="306.504"/>
	
		<line fill="none" stroke="#000000" stroke-width="3" stroke-miterlimit="10" x1="630.183" y1="315.242" x2="641.147" y2="314.187"/>
	<line fill="none" stroke="#000000" stroke-width="3" stroke-miterlimit="10" x1="570.954" y1="273.69" x2="575.438" y2="283.418"/>
	<line fill="none" stroke="#000000" stroke-width="3" stroke-miterlimit="10" x1="669.514" y1="298.873" x2="676.118" y2="290.19"/>
	
		<line fill="none" stroke="#000000" stroke-width="3" stroke-miterlimit="10" x1="619.149" y1="314.243" x2="630.183" y2="315.242"/>
	<line fill="none" stroke="#000000" stroke-width="3" stroke-miterlimit="10" x1="565.267" y1="272.798" x2="570.954" y2="273.69"/>
	<line fill="none" stroke="#000000" stroke-width="3" stroke-miterlimit="10" x1="682.356" y1="291.168" x2="676.118" y2="290.19"/>
	<line fill="none" stroke="#000000" stroke-width="3" stroke-miterlimit="10" x1="570.954" y1="273.69" x2="676.118" y2="290.19"/>
	
		<line fill="none" stroke="#000000" stroke-width="3" stroke-miterlimit="10" x1="651.396" y1="273.504" x2="651.276" y2="274.024"/>
	
		<line fill="none" stroke="#000000" stroke-width="3" stroke-miterlimit="10" x1="646.991" y1="272.857" x2="647.108" y2="272.335"/>
	
		<line fill="none" stroke="#000000" stroke-width="3" stroke-miterlimit="10" x1="596.919" y1="263.679" x2="597.397" y2="263.949"/>
	
		<line fill="none" stroke="#000000" stroke-width="3" stroke-miterlimit="10" x1="596.711" y1="267.502" x2="596.184" y2="267.493"/>
	
		<line fill="none" stroke="#000000" stroke-width="3" stroke-miterlimit="10" x1="596.397" y1="263.536" x2="596.406" y2="263.539"/>
	
		<line fill="none" stroke="#000000" stroke-width="3" stroke-miterlimit="10" x1="594.935" y1="263.908" x2="595.369" y2="263.653"/>
	
		<line fill="none" stroke="#000000" stroke-width="3" stroke-miterlimit="10" x1="595.187" y1="267.078" x2="594.784" y2="266.703"/>
	
		<line fill="none" stroke="#000000" stroke-width="3" stroke-miterlimit="10" x1="596.184" y1="267.493" x2="595.663" y2="267.347"/>
	
		<line fill="none" stroke="#000000" stroke-width="3" stroke-miterlimit="10" x1="595.369" y1="263.653" x2="595.868" y2="263.527"/>
	
		<line fill="none" stroke="#000000" stroke-width="3" stroke-miterlimit="10" x1="596.406" y1="263.539" x2="596.919" y2="263.679"/>
	<line fill="none" stroke="#000000" stroke-width="3" stroke-miterlimit="10" x1="594.364" y1="264.718" x2="594.591" y2="264.27"/>
	
		<line fill="none" stroke="#000000" stroke-width="3" stroke-miterlimit="10" x1="597.993" y1="266.764" x2="597.647" y2="267.126"/>
	
		<line fill="none" stroke="#000000" stroke-width="3" stroke-miterlimit="10" x1="594.784" y1="266.703" x2="594.485" y2="266.246"/>
	<line fill="none" stroke="#000000" stroke-width="3" stroke-miterlimit="10" x1="597.21" y1="267.378" x2="596.711" y2="267.502"/>
	
		<line fill="none" stroke="#000000" stroke-width="3" stroke-miterlimit="10" x1="598.278" y1="265.292" x2="598.319" y2="265.815"/>
	
		<line fill="none" stroke="#000000" stroke-width="3" stroke-miterlimit="10" x1="597.801" y1="264.326" x2="598.101" y2="264.784"/>
	
		<line fill="none" stroke="#000000" stroke-width="3" stroke-miterlimit="10" x1="594.485" y1="266.246" x2="594.309" y2="265.741"/>
	
		<line fill="none" stroke="#000000" stroke-width="3" stroke-miterlimit="10" x1="597.397" y1="263.949" x2="597.801" y2="264.326"/>
	<line fill="none" stroke="#000000" stroke-width="3" stroke-miterlimit="10" x1="594.591" y1="264.27" x2="594.935" y2="263.908"/>
	
		<line fill="none" stroke="#000000" stroke-width="3" stroke-miterlimit="10" x1="595.663" y1="267.347" x2="595.187" y2="267.078"/>
	
		<line fill="none" stroke="#000000" stroke-width="3" stroke-miterlimit="10" x1="594.309" y1="265.741" x2="594.268" y2="265.219"/>
	
		<line fill="none" stroke="#000000" stroke-width="3" stroke-miterlimit="10" x1="595.868" y1="263.527" x2="596.397" y2="263.536"/>
	
		<line fill="none" stroke="#000000" stroke-width="3" stroke-miterlimit="10" x1="598.319" y1="265.815" x2="598.222" y2="266.318"/>
	<line fill="none" stroke="#000000" stroke-width="3" stroke-miterlimit="10" x1="597.647" y1="267.126" x2="597.21" y2="267.378"/>
	
		<line fill="none" stroke="#000000" stroke-width="3" stroke-miterlimit="10" x1="598.222" y1="266.318" x2="597.993" y2="266.764"/>
	
		<line fill="none" stroke="#000000" stroke-width="3" stroke-miterlimit="10" x1="598.101" y1="264.784" x2="598.278" y2="265.292"/>
	<line fill="none" stroke="#000000" stroke-width="3" stroke-miterlimit="10" x1="651.186" y1="272.43" x2="651.364" y2="272.959"/>
	
		<line fill="none" stroke="#000000" stroke-width="3" stroke-miterlimit="10" x1="649.923" y1="271.276" x2="650.438" y2="271.559"/>
	
		<line fill="none" stroke="#000000" stroke-width="3" stroke-miterlimit="10" x1="649.597" y1="275.246" x2="649.021" y2="275.231"/>
	
		<line fill="none" stroke="#000000" stroke-width="3" stroke-miterlimit="10" x1="649.358" y1="271.123" x2="649.368" y2="271.125"/>
	
		<line fill="none" stroke="#000000" stroke-width="3" stroke-miterlimit="10" x1="647.752" y1="271.499" x2="648.235" y2="271.238"/>
	
		<line fill="none" stroke="#000000" stroke-width="3" stroke-miterlimit="10" x1="647.945" y1="274.793" x2="647.517" y2="274.401"/>
	
		<line fill="none" stroke="#000000" stroke-width="3" stroke-miterlimit="10" x1="649.021" y1="275.231" x2="648.458" y2="275.078"/>
	
		<line fill="none" stroke="#000000" stroke-width="3" stroke-miterlimit="10" x1="649.368" y1="271.125" x2="649.923" y2="271.276"/>
	
		<line fill="none" stroke="#000000" stroke-width="3" stroke-miterlimit="10" x1="647.108" y1="272.335" x2="647.368" y2="271.873"/>
	
		<line fill="none" stroke="#000000" stroke-width="3" stroke-miterlimit="10" x1="651.015" y1="274.489" x2="650.628" y2="274.862"/>
	
		<line fill="none" stroke="#000000" stroke-width="3" stroke-miterlimit="10" x1="594.268" y1="265.219" x2="594.364" y2="264.718"/>
	
		<line fill="none" stroke="#000000" stroke-width="3" stroke-miterlimit="10" x1="647.517" y1="274.401" x2="647.202" y2="273.924"/>
	<line fill="none" stroke="#000000" stroke-width="3" stroke-miterlimit="10" x1="650.144" y1="275.12" x2="649.597" y2="275.246"/>
	
		<line fill="none" stroke="#000000" stroke-width="3" stroke-miterlimit="10" x1="651.364" y1="272.959" x2="651.396" y2="273.504"/>
	<line fill="none" stroke="#000000" stroke-width="3" stroke-miterlimit="10" x1="650.628" y1="274.862" x2="650.144" y2="275.12"/>
	
		<line fill="none" stroke="#000000" stroke-width="3" stroke-miterlimit="10" x1="651.276" y1="274.024" x2="651.015" y2="274.489"/>
	
		<line fill="none" stroke="#000000" stroke-width="3" stroke-miterlimit="10" x1="648.235" y1="271.238" x2="648.783" y2="271.109"/>
	<line fill="none" stroke="#000000" stroke-width="3" stroke-miterlimit="10" x1="650.869" y1="271.953" x2="651.186" y2="272.43"/>
	
		<line fill="none" stroke="#000000" stroke-width="3" stroke-miterlimit="10" x1="647.202" y1="273.924" x2="647.024" y2="273.397"/>
	
		<line fill="none" stroke="#000000" stroke-width="3" stroke-miterlimit="10" x1="650.438" y1="271.559" x2="650.869" y2="271.953"/>
	
		<line fill="none" stroke="#000000" stroke-width="3" stroke-miterlimit="10" x1="647.368" y1="271.873" x2="647.752" y2="271.499"/>
	
		<line fill="none" stroke="#000000" stroke-width="3" stroke-miterlimit="10" x1="648.458" y1="275.078" x2="647.945" y2="274.793"/>
	
		<line fill="none" stroke="#000000" stroke-width="3" stroke-miterlimit="10" x1="647.024" y1="273.397" x2="646.991" y2="272.857"/>
	
		<line fill="none" stroke="#000000" stroke-width="3" stroke-miterlimit="10" x1="648.783" y1="271.109" x2="649.358" y2="271.123"/>
</g>
</svg>
