<svg class="crocodoc-R0zyIp crocodoc-page-svg" version="1.1"
    xmlns="http://www.w3.org/2000/svg"
    xmlns:xlink="http://www.w3.org/1999/xlink"
    xmlns:xhtml="http://www.w3.org/1999/xhtml"
    xml:space="preserve" width="100%" height="100%" viewBox="0 0 720.0 540.0">
<xhtml:link href="stylesheet.css" type="text/css" rel="stylesheet" />
<style>
.crocodoc-R0zyIp tspan { white-space:pre; }
.crocodoc-R0zyIp path { fill:transparent; }

</style>
<defs>
<image id="Image_10_1_R0zyIp" width="2125" height="444" xlink:href="10.png" />
<image id="Image_8_1_R0zyIp" width="772" height="412" xlink:href="8.png" />
</defs>
<path d="M0 0 l720 0 l0 540 l-720 0 l0 -540 z " style="fill:#00325b;"/><path d="M700.33 65.7 c-25.95 0 -25.95 0 -25.95 0 c-6.41 0 -11.52 -5.25 -11.52 -11.52 c0 -6.42 5.1 -11.67 11.52 -11.67 c0.15 0 0.15 0 0.29 0 c1.6 -6.12 7.14 -10.35 13.56 -10.35 c0.58 0 1.31 0 1.9 0.15 c2.04 -3.94 5.69 -6.85 9.91 -8.17 c0.73 -0.15 1.31 0.15 1.6 0.87 c0.15 0.73 -0.15 1.46 -0.87 1.6 c-3.79 1.17 -7 3.94 -8.75 7.58 c-0.15 0.58 -0.87 0.87 -1.46 0.73 c-0.73 -0.15 -1.6 -0.15 -2.33 -0.15 c-5.54 0 -10.35 3.94 -11.37 9.33 c-0.15 0.73 -0.73 1.17 -1.46 1.02 c-0.29 0 -0.73 0 -1.02 0 c-4.96 0 -9.04 3.94 -9.04 9.04 c0 4.96 4.08 8.9 9.04 8.9 c25.95 0 25.95 0 25.95 0 c0.73 0 1.31 0.58 1.31 1.31 c0 0.73 -0.58 1.31 -1.31 1.31 z " style="fill:#00b9f2;"/><path d="M0 0 l720 0 l0 540 l-720 0 l0 -540 z " style="fill:#00325b;"/><path d="M693.77 521.52 c-146.49 0 -146.49 0 -146.49 0 c-36.21 0 -65.01 -29.63 -65.01 -65.03 c0 -36.22 28.8 -65.85 65.01 -65.85 c0.82 0 0.82 0 1.65 0 c9.05 -34.57 40.33 -58.45 76.54 -58.45 c3.29 0 7.41 0 10.7 0.82 c11.52 -22.23 32.1 -38.69 55.96 -46.1 c4.11 -0.82 7.41 0.82 9.05 4.94 c0.82 4.12 -0.82 8.23 -4.94 9.06 c-21.4 6.59 -39.5 22.23 -49.38 42.81 c-0.82 3.29 -4.94 4.94 -8.23 4.12 c-4.11 -0.82 -9.05 -0.82 -13.17 -0.82 c-31.27 0 -58.43 22.23 -64.19 52.68 c-0.82 4.12 -4.11 6.59 -8.23 5.76 c-1.65 0 -4.11 0 -5.76 0 c-27.98 0 -51.02 22.23 -51.02 51.04 c0 27.99 23.04 50.21 51.02 50.21 c146.49 0 146.49 0 146.49 0 c4.11 0 7.41 3.29 7.41 7.41 c0 4.12 -3.29 7.41 -7.41 7.41 z " style="fill:#00b9f2;"/><use transform="matrix(0.1408,0,0,0.1408,102,151.6196)" xlink:href="#Image_8_1_R0zyIp" /><use transform="matrix(0.1588,0,0,0.1588,286.5976,141.7933)" xlink:href="#Image_10_1_R0zyIp" /><text class="f13 f282" font-size="48.00" style="fill:#ffffff"><tspan x="233.91" y="202.17" textLength="41.38">+ </tspan></text><text class="f15 f287" font-size="38.00" style="fill:#00b9f2"><tspan x="172.64" y="294.57" textLength="386.31" dx="0,0.01,0.01,0,0.02,-0.01,-0.02,0.02,0,0,0.02,0,0,-0.02,0.02,-0.01,0,-0.01,0.02,0.02,-0.02,0.02,-8.57">Documents. Reimagined. </tspan></text>
</svg>
